<?xml version="1.0" encoding="utf-8" standalone="no"?>
<!DOCTYPE svg PUBLIC "-//W3C//DTD SVG 1.1//EN"
  "http://www.w3.org/Graphics/SVG/1.1/DTD/svg11.dtd">
<svg xmlns:xlink="http://www.w3.org/1999/xlink" width="720pt" height="576pt" viewBox="0 0 720 576" xmlns="http://www.w3.org/2000/svg" version="1.1">
 <metadata>
  <rdf:RDF xmlns:dc="http://purl.org/dc/elements/1.1/" xmlns:cc="http://creativecommons.org/ns#" xmlns:rdf="http://www.w3.org/1999/02/22-rdf-syntax-ns#">
   <cc:Work>
    <dc:type rdf:resource="http://purl.org/dc/dcmitype/StillImage"/>
    <dc:date>2022-03-11T21:12:09.573489</dc:date>
    <dc:format>image/svg+xml</dc:format>
    <dc:creator>
     <cc:Agent>
      <dc:title>Matplotlib v3.5.1, https://matplotlib.org/</dc:title>
     </cc:Agent>
    </dc:creator>
   </cc:Work>
  </rdf:RDF>
 </metadata>
 <defs>
  <style type="text/css">*{stroke-linejoin: round; stroke-linecap: butt}</style>
 </defs>
 <g id="figure_1">
  <g id="patch_1">
   <path d="M 0 576 
L 720 576 
L 720 0 
L 0 0 
z
" style="fill: #ffffff"/>
  </g>
  <g id="axes_1">
   <g id="patch_2">
    <path d="M 61 185 
L 360.634734 185 
L 360.634734 41.76 
L 61 41.76 
z
" style="fill: #ffffff"/>
   </g>
   <g id="matplotlib.axis_1">
    <g id="xtick_1">
     <g id="line2d_1">
      <defs>
       <path id="md239f9c7d6" d="M 0 0 
L 0 3.5 
" style="stroke: #000000; stroke-width: 0.8"/>
      </defs>
      <g>
       <use xlink:href="#md239f9c7d6" x="74.619761" y="185" style="stroke: #000000; stroke-width: 0.8"/>
      </g>
     </g>
     <g id="text_1">
      <!-- 0 -->
      <g transform="translate(71.438511 199.598437)scale(0.1 -0.1)">
       <defs>
        <path id="DejaVuSans-30" d="M 2034 4250 
Q 1547 4250 1301 3770 
Q 1056 3291 1056 2328 
Q 1056 1369 1301 889 
Q 1547 409 2034 409 
Q 2525 409 2770 889 
Q 3016 1369 3016 2328 
Q 3016 3291 2770 3770 
Q 2525 4250 2034 4250 
z
M 2034 4750 
Q 2819 4750 3233 4129 
Q 3647 3509 3647 2328 
Q 3647 1150 3233 529 
Q 2819 -91 2034 -91 
Q 1250 -91 836 529 
Q 422 1150 422 2328 
Q 422 3509 836 4129 
Q 1250 4750 2034 4750 
z
" transform="scale(0.015625)"/>
       </defs>
       <use xlink:href="#DejaVuSans-30"/>
      </g>
     </g>
    </g>
    <g id="xtick_2">
     <g id="line2d_2">
      <g>
       <use xlink:href="#md239f9c7d6" x="115.144089" y="185" style="stroke: #000000; stroke-width: 0.8"/>
      </g>
     </g>
     <g id="text_2">
      <!-- 10 -->
      <g transform="translate(108.781589 199.598437)scale(0.1 -0.1)">
       <defs>
        <path id="DejaVuSans-31" d="M 794 531 
L 1825 531 
L 1825 4091 
L 703 3866 
L 703 4441 
L 1819 4666 
L 2450 4666 
L 2450 531 
L 3481 531 
L 3481 0 
L 794 0 
L 794 531 
z
" transform="scale(0.015625)"/>
       </defs>
       <use xlink:href="#DejaVuSans-31"/>
       <use xlink:href="#DejaVuSans-30" x="63.623047"/>
      </g>
     </g>
    </g>
    <g id="xtick_3">
     <g id="line2d_3">
      <g>
       <use xlink:href="#md239f9c7d6" x="155.668417" y="185" style="stroke: #000000; stroke-width: 0.8"/>
      </g>
     </g>
     <g id="text_3">
      <!-- 20 -->
      <g transform="translate(149.305917 199.598437)scale(0.1 -0.1)">
       <defs>
        <path id="DejaVuSans-32" d="M 1228 531 
L 3431 531 
L 3431 0 
L 469 0 
L 469 531 
Q 828 903 1448 1529 
Q 2069 2156 2228 2338 
Q 2531 2678 2651 2914 
Q 2772 3150 2772 3378 
Q 2772 3750 2511 3984 
Q 2250 4219 1831 4219 
Q 1534 4219 1204 4116 
Q 875 4013 500 3803 
L 500 4441 
Q 881 4594 1212 4672 
Q 1544 4750 1819 4750 
Q 2544 4750 2975 4387 
Q 3406 4025 3406 3419 
Q 3406 3131 3298 2873 
Q 3191 2616 2906 2266 
Q 2828 2175 2409 1742 
Q 1991 1309 1228 531 
z
" transform="scale(0.015625)"/>
       </defs>
       <use xlink:href="#DejaVuSans-32"/>
       <use xlink:href="#DejaVuSans-30" x="63.623047"/>
      </g>
     </g>
    </g>
    <g id="xtick_4">
     <g id="line2d_4">
      <g>
       <use xlink:href="#md239f9c7d6" x="196.192745" y="185" style="stroke: #000000; stroke-width: 0.8"/>
      </g>
     </g>
     <g id="text_4">
      <!-- 30 -->
      <g transform="translate(189.830245 199.598437)scale(0.1 -0.1)">
       <defs>
        <path id="DejaVuSans-33" d="M 2597 2516 
Q 3050 2419 3304 2112 
Q 3559 1806 3559 1356 
Q 3559 666 3084 287 
Q 2609 -91 1734 -91 
Q 1441 -91 1130 -33 
Q 819 25 488 141 
L 488 750 
Q 750 597 1062 519 
Q 1375 441 1716 441 
Q 2309 441 2620 675 
Q 2931 909 2931 1356 
Q 2931 1769 2642 2001 
Q 2353 2234 1838 2234 
L 1294 2234 
L 1294 2753 
L 1863 2753 
Q 2328 2753 2575 2939 
Q 2822 3125 2822 3475 
Q 2822 3834 2567 4026 
Q 2313 4219 1838 4219 
Q 1578 4219 1281 4162 
Q 984 4106 628 3988 
L 628 4550 
Q 988 4650 1302 4700 
Q 1616 4750 1894 4750 
Q 2613 4750 3031 4423 
Q 3450 4097 3450 3541 
Q 3450 3153 3228 2886 
Q 3006 2619 2597 2516 
z
" transform="scale(0.015625)"/>
       </defs>
       <use xlink:href="#DejaVuSans-33"/>
       <use xlink:href="#DejaVuSans-30" x="63.623047"/>
      </g>
     </g>
    </g>
    <g id="xtick_5">
     <g id="line2d_5">
      <g>
       <use xlink:href="#md239f9c7d6" x="236.717073" y="185" style="stroke: #000000; stroke-width: 0.8"/>
      </g>
     </g>
     <g id="text_5">
      <!-- 40 -->
      <g transform="translate(230.354573 199.598437)scale(0.1 -0.1)">
       <defs>
        <path id="DejaVuSans-34" d="M 2419 4116 
L 825 1625 
L 2419 1625 
L 2419 4116 
z
M 2253 4666 
L 3047 4666 
L 3047 1625 
L 3713 1625 
L 3713 1100 
L 3047 1100 
L 3047 0 
L 2419 0 
L 2419 1100 
L 313 1100 
L 313 1709 
L 2253 4666 
z
" transform="scale(0.015625)"/>
       </defs>
       <use xlink:href="#DejaVuSans-34"/>
       <use xlink:href="#DejaVuSans-30" x="63.623047"/>
      </g>
     </g>
    </g>
    <g id="xtick_6">
     <g id="line2d_6">
      <g>
       <use xlink:href="#md239f9c7d6" x="277.241401" y="185" style="stroke: #000000; stroke-width: 0.8"/>
      </g>
     </g>
     <g id="text_6">
      <!-- 50 -->
      <g transform="translate(270.878901 199.598437)scale(0.1 -0.1)">
       <defs>
        <path id="DejaVuSans-35" d="M 691 4666 
L 3169 4666 
L 3169 4134 
L 1269 4134 
L 1269 2991 
Q 1406 3038 1543 3061 
Q 1681 3084 1819 3084 
Q 2600 3084 3056 2656 
Q 3513 2228 3513 1497 
Q 3513 744 3044 326 
Q 2575 -91 1722 -91 
Q 1428 -91 1123 -41 
Q 819 9 494 109 
L 494 744 
Q 775 591 1075 516 
Q 1375 441 1709 441 
Q 2250 441 2565 725 
Q 2881 1009 2881 1497 
Q 2881 1984 2565 2268 
Q 2250 2553 1709 2553 
Q 1456 2553 1204 2497 
Q 953 2441 691 2322 
L 691 4666 
z
" transform="scale(0.015625)"/>
       </defs>
       <use xlink:href="#DejaVuSans-35"/>
       <use xlink:href="#DejaVuSans-30" x="63.623047"/>
      </g>
     </g>
    </g>
    <g id="xtick_7">
     <g id="line2d_7">
      <g>
       <use xlink:href="#md239f9c7d6" x="317.765729" y="185" style="stroke: #000000; stroke-width: 0.8"/>
      </g>
     </g>
     <g id="text_7">
      <!-- 60 -->
      <g transform="translate(311.403229 199.598437)scale(0.1 -0.1)">
       <defs>
        <path id="DejaVuSans-36" d="M 2113 2584 
Q 1688 2584 1439 2293 
Q 1191 2003 1191 1497 
Q 1191 994 1439 701 
Q 1688 409 2113 409 
Q 2538 409 2786 701 
Q 3034 994 3034 1497 
Q 3034 2003 2786 2293 
Q 2538 2584 2113 2584 
z
M 3366 4563 
L 3366 3988 
Q 3128 4100 2886 4159 
Q 2644 4219 2406 4219 
Q 1781 4219 1451 3797 
Q 1122 3375 1075 2522 
Q 1259 2794 1537 2939 
Q 1816 3084 2150 3084 
Q 2853 3084 3261 2657 
Q 3669 2231 3669 1497 
Q 3669 778 3244 343 
Q 2819 -91 2113 -91 
Q 1303 -91 875 529 
Q 447 1150 447 2328 
Q 447 3434 972 4092 
Q 1497 4750 2381 4750 
Q 2619 4750 2861 4703 
Q 3103 4656 3366 4563 
z
" transform="scale(0.015625)"/>
       </defs>
       <use xlink:href="#DejaVuSans-36"/>
       <use xlink:href="#DejaVuSans-30" x="63.623047"/>
      </g>
     </g>
    </g>
    <g id="xtick_8">
     <g id="line2d_8">
      <g>
       <use xlink:href="#md239f9c7d6" x="358.290057" y="185" style="stroke: #000000; stroke-width: 0.8"/>
      </g>
     </g>
     <g id="text_8">
      <!-- 70 -->
      <g transform="translate(351.927557 199.598437)scale(0.1 -0.1)">
       <defs>
        <path id="DejaVuSans-37" d="M 525 4666 
L 3525 4666 
L 3525 4397 
L 1831 0 
L 1172 0 
L 2766 4134 
L 525 4134 
L 525 4666 
z
" transform="scale(0.015625)"/>
       </defs>
       <use xlink:href="#DejaVuSans-37"/>
       <use xlink:href="#DejaVuSans-30" x="63.623047"/>
      </g>
     </g>
    </g>
   </g>
   <g id="matplotlib.axis_2">
    <g id="ytick_1">
     <g id="line2d_9">
      <defs>
       <path id="m23570bfa50" d="M 0 0 
L -3.5 0 
" style="stroke: #000000; stroke-width: 0.8"/>
      </defs>
      <g>
       <use xlink:href="#m23570bfa50" x="61" y="178.527649" style="stroke: #000000; stroke-width: 0.8"/>
      </g>
     </g>
     <g id="text_9">
      <!-- 0.0 -->
      <g transform="translate(38.096875 182.326868)scale(0.1 -0.1)">
       <defs>
        <path id="DejaVuSans-2e" d="M 684 794 
L 1344 794 
L 1344 0 
L 684 0 
L 684 794 
z
" transform="scale(0.015625)"/>
       </defs>
       <use xlink:href="#DejaVuSans-30"/>
       <use xlink:href="#DejaVuSans-2e" x="63.623047"/>
       <use xlink:href="#DejaVuSans-30" x="95.410156"/>
      </g>
     </g>
    </g>
    <g id="ytick_2">
     <g id="line2d_10">
      <g>
       <use xlink:href="#m23570bfa50" x="61" y="146.405496" style="stroke: #000000; stroke-width: 0.8"/>
      </g>
     </g>
     <g id="text_10">
      <!-- 0.2 -->
      <g transform="translate(38.096875 150.204714)scale(0.1 -0.1)">
       <use xlink:href="#DejaVuSans-30"/>
       <use xlink:href="#DejaVuSans-2e" x="63.623047"/>
       <use xlink:href="#DejaVuSans-32" x="95.410156"/>
      </g>
     </g>
    </g>
    <g id="ytick_3">
     <g id="line2d_11">
      <g>
       <use xlink:href="#m23570bfa50" x="61" y="114.283342" style="stroke: #000000; stroke-width: 0.8"/>
      </g>
     </g>
     <g id="text_11">
      <!-- 0.4 -->
      <g transform="translate(38.096875 118.082561)scale(0.1 -0.1)">
       <use xlink:href="#DejaVuSans-30"/>
       <use xlink:href="#DejaVuSans-2e" x="63.623047"/>
       <use xlink:href="#DejaVuSans-34" x="95.410156"/>
      </g>
     </g>
    </g>
    <g id="ytick_4">
     <g id="line2d_12">
      <g>
       <use xlink:href="#m23570bfa50" x="61" y="82.161189" style="stroke: #000000; stroke-width: 0.8"/>
      </g>
     </g>
     <g id="text_12">
      <!-- 0.6 -->
      <g transform="translate(38.096875 85.960408)scale(0.1 -0.1)">
       <use xlink:href="#DejaVuSans-30"/>
       <use xlink:href="#DejaVuSans-2e" x="63.623047"/>
       <use xlink:href="#DejaVuSans-36" x="95.410156"/>
      </g>
     </g>
    </g>
    <g id="ytick_5">
     <g id="line2d_13">
      <g>
       <use xlink:href="#m23570bfa50" x="61" y="50.039036" style="stroke: #000000; stroke-width: 0.8"/>
      </g>
     </g>
     <g id="text_13">
      <!-- 0.8 -->
      <g transform="translate(38.096875 53.838255)scale(0.1 -0.1)">
       <defs>
        <path id="DejaVuSans-38" d="M 2034 2216 
Q 1584 2216 1326 1975 
Q 1069 1734 1069 1313 
Q 1069 891 1326 650 
Q 1584 409 2034 409 
Q 2484 409 2743 651 
Q 3003 894 3003 1313 
Q 3003 1734 2745 1975 
Q 2488 2216 2034 2216 
z
M 1403 2484 
Q 997 2584 770 2862 
Q 544 3141 544 3541 
Q 544 4100 942 4425 
Q 1341 4750 2034 4750 
Q 2731 4750 3128 4425 
Q 3525 4100 3525 3541 
Q 3525 3141 3298 2862 
Q 3072 2584 2669 2484 
Q 3125 2378 3379 2068 
Q 3634 1759 3634 1313 
Q 3634 634 3220 271 
Q 2806 -91 2034 -91 
Q 1263 -91 848 271 
Q 434 634 434 1313 
Q 434 1759 690 2068 
Q 947 2378 1403 2484 
z
M 1172 3481 
Q 1172 3119 1398 2916 
Q 1625 2713 2034 2713 
Q 2441 2713 2670 2916 
Q 2900 3119 2900 3481 
Q 2900 3844 2670 4047 
Q 2441 4250 2034 4250 
Q 1625 4250 1398 4047 
Q 1172 3844 1172 3481 
z
" transform="scale(0.015625)"/>
       </defs>
       <use xlink:href="#DejaVuSans-30"/>
       <use xlink:href="#DejaVuSans-2e" x="63.623047"/>
       <use xlink:href="#DejaVuSans-38" x="95.410156"/>
      </g>
     </g>
    </g>
   </g>
   <g id="line2d_14">
    <path d="M 74.619761 48.270909 
L 74.892489 48.270909 
L 75.437947 65.565571 
L 77.073914 97.03497 
L 77.346237 101.07746 
L 77.618966 103.367311 
L 77.891695 104.239621 
L 78.437152 104.530912 
L 78.709881 105.039771 
L 78.98261 106.207269 
L 79.254933 108.194841 
L 79.800391 115.071731 
L 81.163629 139.502798 
L 81.436358 141.870487 
L 81.709087 143.21813 
L 81.981815 143.890845 
L 82.254544 144.189944 
L 82.799596 144.328421 
L 83.617782 144.127287 
L 83.890511 144.354451 
L 84.16324 144.977449 
L 84.981021 147.587095 
L 85.25375 147.605921 
L 85.526478 146.869139 
L 85.799207 145.337996 
L 86.344664 140.124312 
L 87.980632 120.890624 
L 88.525684 117.517012 
L 89.616599 112.677811 
L 90.161651 109.958747 
L 90.43438 109.463373 
L 90.707108 110.22643 
L 90.979837 112.666076 
L 91.525295 122.928725 
L 92.888533 156.402517 
L 93.43399 161.739267 
L 94.251771 168.573485 
L 94.797229 172.864014 
L 95.069958 173.912396 
L 95.342686 174.282898 
L 95.61501 174.215689 
L 96.160467 173.490026 
L 97.251382 171.604599 
L 98.069163 170.859436 
L 98.887349 170.225969 
L 99.159673 170.374149 
L 99.432402 170.876887 
L 100.250588 173.023213 
L 100.523316 173.331923 
L 101.068369 173.432066 
L 101.613826 173.282914 
L 102.159284 172.876567 
L 102.704741 172.454347 
L 102.977064 172.436361 
L 103.249793 172.627513 
L 104.067979 173.649968 
L 104.340708 173.555538 
L 104.88576 172.582126 
L 105.431218 171.811697 
L 105.703947 171.813486 
L 106.249404 171.965744 
L 106.521727 171.70283 
L 108.430423 167.99162 
L 108.975881 166.18259 
L 109.248609 165.66861 
L 109.521338 165.788534 
L 109.794067 166.686715 
L 110.884577 172.378523 
L 111.157305 172.862668 
L 111.702763 173.122886 
L 112.247815 173.283297 
L 112.793272 173.826852 
L 113.883782 175.291246 
L 114.156511 175.456602 
L 114.42924 175.460056 
L 114.701968 175.264792 
L 115.247426 174.364589 
L 115.792478 173.515372 
L 116.065207 173.460444 
L 116.337935 173.75949 
L 117.428445 176.127929 
L 117.701174 176.213828 
L 117.973903 175.974002 
L 118.51936 174.652561 
L 119.337141 171.957696 
L 119.60987 171.369658 
L 119.882598 171.086142 
L 120.155327 171.090238 
L 120.973108 171.776022 
L 121.518566 172.308164 
L 122.064023 173.393737 
L 122.881804 175.326435 
L 123.154533 175.554935 
L 123.427261 175.486847 
L 123.69999 175.138464 
L 124.245448 173.828722 
L 124.7905 172.511419 
L 125.063229 172.201201 
L 125.335957 172.204778 
L 126.154143 172.734029 
L 126.426467 172.545602 
L 127.790111 170.691925 
L 128.062839 170.796654 
L 129.153349 171.780719 
L 129.698806 171.587385 
L 129.97113 171.495676 
L 130.243859 171.570861 
L 130.516587 171.88171 
L 131.062045 173.095243 
L 131.607502 174.363062 
L 132.152554 175.127162 
L 132.698012 175.438055 
L 134.06125 175.571729 
L 134.333979 175.542482 
L 134.606708 175.33267 
L 134.879437 174.853484 
L 135.424489 173.007456 
L 136.515404 168.432355 
L 136.788132 168.135949 
L 137.060861 168.521088 
L 137.605913 170.807241 
L 138.151371 173.114021 
L 138.696828 174.430981 
L 139.24188 175.078171 
L 139.787338 175.426231 
L 140.605524 175.611394 
L 142.786543 175.691857 
L 143.60473 175.718552 
L 144.422916 175.842672 
L 146.058883 175.582008 
L 147.967579 176.05823 
L 149.876275 176.865274 
L 151.512242 177.506904 
L 152.057294 177.451236 
L 153.420938 177.078572 
L 156.147414 177.109065 
L 156.965601 176.730294 
L 157.783382 176.43596 
L 158.601568 176.160166 
L 159.692077 175.462864 
L 160.237535 175.514811 
L 161.055316 176.111057 
L 161.600773 176.406262 
L 162.146231 176.423759 
L 163.782198 176.192762 
L 164.599979 176.261974 
L 166.508675 176.725373 
L 167.872318 177.332692 
L 169.508285 177.630903 
L 171.144253 177.932932 
L 173.052948 177.833288 
L 174.143458 177.784759 
L 176.87034 177.802798 
L 178.506307 177.711142 
L 180.142274 177.760099 
L 182.868751 177.461968 
L 184.232395 177.22264 
L 185.050176 177.418015 
L 185.868362 177.573236 
L 186.958872 177.479191 
L 188.049381 177.388445 
L 189.413025 177.472536 
L 190.230806 177.116432 
L 191.594449 176.495681 
L 192.139502 176.487814 
L 192.684959 176.781564 
L 193.50274 177.277932 
L 194.320926 177.496027 
L 197.047808 177.868797 
L 198.138318 177.761166 
L 200.592471 177.307583 
L 201.682981 177.692749 
L 202.773491 177.92352 
L 204.682186 178.016994 
L 206.04583 177.873389 
L 207.409068 177.76694 
L 208.772307 177.89095 
L 210.135545 177.961518 
L 212.31697 178.052714 
L 213.680208 178.029558 
L 214.771123 177.770167 
L 215.861633 177.55434 
L 217.770329 177.714211 
L 219.679025 177.804609 
L 225.677841 177.748408 
L 228.131589 177.815496 
L 230.585742 177.62566 
L 231.948981 177.268339 
L 233.039896 177.363806 
L 236.039101 177.827179 
L 236.857287 177.679504 
L 237.947797 177.405945 
L 238.765983 177.519318 
L 239.583764 177.625185 
L 242.310646 177.557621 
L 250.76321 178.071258 
L 253.762416 178.187916 
L 257.852536 178.210006 
L 267.668744 178.229783 
L 270.395221 178.308438 
L 273.122103 178.228743 
L 276.121309 178.322044 
L 279.665972 178.19582 
L 283.210635 178.273367 
L 287.573484 178.258159 
L 293.026843 178.356553 
L 328.473472 178.470312 
L 347.014974 178.489091 
L 347.014974 178.489091 
" clip-path="url(#peb5c330f87)" style="fill: none; stroke: #ffa500; stroke-width: 1.5; stroke-linecap: square"/>
   </g>
   <g id="patch_3">
    <path d="M 61 185 
L 61 41.76 
" style="fill: none; stroke: #000000; stroke-width: 0.8; stroke-linejoin: miter; stroke-linecap: square"/>
   </g>
   <g id="patch_4">
    <path d="M 360.634734 185 
L 360.634734 41.76 
" style="fill: none; stroke: #000000; stroke-width: 0.8; stroke-linejoin: miter; stroke-linecap: square"/>
   </g>
   <g id="patch_5">
    <path d="M 61 185 
L 360.634734 185 
" style="fill: none; stroke: #000000; stroke-width: 0.8; stroke-linejoin: miter; stroke-linecap: square"/>
   </g>
   <g id="patch_6">
    <path d="M 61 41.76 
L 360.634734 41.76 
" style="fill: none; stroke: #000000; stroke-width: 0.8; stroke-linejoin: miter; stroke-linecap: square"/>
   </g>
   <g id="legend_1">
    <g id="patch_7">
     <path d="M 309.797234 64.438125 
L 353.634734 64.438125 
Q 355.634734 64.438125 355.634734 62.438125 
L 355.634734 48.76 
Q 355.634734 46.76 353.634734 46.76 
L 309.797234 46.76 
Q 307.797234 46.76 307.797234 48.76 
L 307.797234 62.438125 
Q 307.797234 64.438125 309.797234 64.438125 
z
" style="fill: #ffffff; opacity: 0.8; stroke: #cccccc; stroke-linejoin: miter"/>
    </g>
    <g id="line2d_15">
     <path d="M 311.797234 54.858438 
L 321.797234 54.858438 
L 331.797234 54.858438 
" style="fill: none; stroke: #ffa500; stroke-width: 1.5; stroke-linecap: square"/>
    </g>
    <g id="text_14">
     <!-- xx -->
     <g transform="translate(339.797234 58.358438)scale(0.1 -0.1)">
      <defs>
       <path id="DejaVuSans-78" d="M 3513 3500 
L 2247 1797 
L 3578 0 
L 2900 0 
L 1881 1375 
L 863 0 
L 184 0 
L 1544 1831 
L 300 3500 
L 978 3500 
L 1906 2253 
L 2834 3500 
L 3513 3500 
z
" transform="scale(0.015625)"/>
      </defs>
      <use xlink:href="#DejaVuSans-78"/>
      <use xlink:href="#DejaVuSans-78" x="59.179688"/>
     </g>
    </g>
   </g>
  </g>
  <g id="axes_2">
   <g id="patch_8">
    <path d="M 405.16 185 
L 704.794734 185 
L 704.794734 41.76 
L 405.16 41.76 
z
" style="fill: #ffffff"/>
   </g>
   <g id="matplotlib.axis_3">
    <g id="xtick_9">
     <g id="line2d_16">
      <g>
       <use xlink:href="#md239f9c7d6" x="418.779761" y="185" style="stroke: #000000; stroke-width: 0.8"/>
      </g>
     </g>
     <g id="text_15">
      <!-- 0 -->
      <g transform="translate(415.598511 199.598437)scale(0.1 -0.1)">
       <use xlink:href="#DejaVuSans-30"/>
      </g>
     </g>
    </g>
    <g id="xtick_10">
     <g id="line2d_17">
      <g>
       <use xlink:href="#md239f9c7d6" x="459.304089" y="185" style="stroke: #000000; stroke-width: 0.8"/>
      </g>
     </g>
     <g id="text_16">
      <!-- 10 -->
      <g transform="translate(452.941589 199.598437)scale(0.1 -0.1)">
       <use xlink:href="#DejaVuSans-31"/>
       <use xlink:href="#DejaVuSans-30" x="63.623047"/>
      </g>
     </g>
    </g>
    <g id="xtick_11">
     <g id="line2d_18">
      <g>
       <use xlink:href="#md239f9c7d6" x="499.828417" y="185" style="stroke: #000000; stroke-width: 0.8"/>
      </g>
     </g>
     <g id="text_17">
      <!-- 20 -->
      <g transform="translate(493.465917 199.598437)scale(0.1 -0.1)">
       <use xlink:href="#DejaVuSans-32"/>
       <use xlink:href="#DejaVuSans-30" x="63.623047"/>
      </g>
     </g>
    </g>
    <g id="xtick_12">
     <g id="line2d_19">
      <g>
       <use xlink:href="#md239f9c7d6" x="540.352745" y="185" style="stroke: #000000; stroke-width: 0.8"/>
      </g>
     </g>
     <g id="text_18">
      <!-- 30 -->
      <g transform="translate(533.990245 199.598437)scale(0.1 -0.1)">
       <use xlink:href="#DejaVuSans-33"/>
       <use xlink:href="#DejaVuSans-30" x="63.623047"/>
      </g>
     </g>
    </g>
    <g id="xtick_13">
     <g id="line2d_20">
      <g>
       <use xlink:href="#md239f9c7d6" x="580.877073" y="185" style="stroke: #000000; stroke-width: 0.8"/>
      </g>
     </g>
     <g id="text_19">
      <!-- 40 -->
      <g transform="translate(574.514573 199.598437)scale(0.1 -0.1)">
       <use xlink:href="#DejaVuSans-34"/>
       <use xlink:href="#DejaVuSans-30" x="63.623047"/>
      </g>
     </g>
    </g>
    <g id="xtick_14">
     <g id="line2d_21">
      <g>
       <use xlink:href="#md239f9c7d6" x="621.401401" y="185" style="stroke: #000000; stroke-width: 0.8"/>
      </g>
     </g>
     <g id="text_20">
      <!-- 50 -->
      <g transform="translate(615.038901 199.598437)scale(0.1 -0.1)">
       <use xlink:href="#DejaVuSans-35"/>
       <use xlink:href="#DejaVuSans-30" x="63.623047"/>
      </g>
     </g>
    </g>
    <g id="xtick_15">
     <g id="line2d_22">
      <g>
       <use xlink:href="#md239f9c7d6" x="661.925729" y="185" style="stroke: #000000; stroke-width: 0.8"/>
      </g>
     </g>
     <g id="text_21">
      <!-- 60 -->
      <g transform="translate(655.563229 199.598437)scale(0.1 -0.1)">
       <use xlink:href="#DejaVuSans-36"/>
       <use xlink:href="#DejaVuSans-30" x="63.623047"/>
      </g>
     </g>
    </g>
    <g id="xtick_16">
     <g id="line2d_23">
      <g>
       <use xlink:href="#md239f9c7d6" x="702.450057" y="185" style="stroke: #000000; stroke-width: 0.8"/>
      </g>
     </g>
     <g id="text_22">
      <!-- 70 -->
      <g transform="translate(696.087557 199.598437)scale(0.1 -0.1)">
       <use xlink:href="#DejaVuSans-37"/>
       <use xlink:href="#DejaVuSans-30" x="63.623047"/>
      </g>
     </g>
    </g>
   </g>
   <g id="matplotlib.axis_4">
    <g id="ytick_6">
     <g id="line2d_24">
      <g>
       <use xlink:href="#m23570bfa50" x="405.16" y="178.527649" style="stroke: #000000; stroke-width: 0.8"/>
      </g>
     </g>
     <g id="text_23">
      <!-- 0.0 -->
      <g transform="translate(382.256875 182.326868)scale(0.1 -0.1)">
       <use xlink:href="#DejaVuSans-30"/>
       <use xlink:href="#DejaVuSans-2e" x="63.623047"/>
       <use xlink:href="#DejaVuSans-30" x="95.410156"/>
      </g>
     </g>
    </g>
    <g id="ytick_7">
     <g id="line2d_25">
      <g>
       <use xlink:href="#m23570bfa50" x="405.16" y="146.405496" style="stroke: #000000; stroke-width: 0.8"/>
      </g>
     </g>
     <g id="text_24">
      <!-- 0.2 -->
      <g transform="translate(382.256875 150.204714)scale(0.1 -0.1)">
       <use xlink:href="#DejaVuSans-30"/>
       <use xlink:href="#DejaVuSans-2e" x="63.623047"/>
       <use xlink:href="#DejaVuSans-32" x="95.410156"/>
      </g>
     </g>
    </g>
    <g id="ytick_8">
     <g id="line2d_26">
      <g>
       <use xlink:href="#m23570bfa50" x="405.16" y="114.283342" style="stroke: #000000; stroke-width: 0.8"/>
      </g>
     </g>
     <g id="text_25">
      <!-- 0.4 -->
      <g transform="translate(382.256875 118.082561)scale(0.1 -0.1)">
       <use xlink:href="#DejaVuSans-30"/>
       <use xlink:href="#DejaVuSans-2e" x="63.623047"/>
       <use xlink:href="#DejaVuSans-34" x="95.410156"/>
      </g>
     </g>
    </g>
    <g id="ytick_9">
     <g id="line2d_27">
      <g>
       <use xlink:href="#m23570bfa50" x="405.16" y="82.161189" style="stroke: #000000; stroke-width: 0.8"/>
      </g>
     </g>
     <g id="text_26">
      <!-- 0.6 -->
      <g transform="translate(382.256875 85.960408)scale(0.1 -0.1)">
       <use xlink:href="#DejaVuSans-30"/>
       <use xlink:href="#DejaVuSans-2e" x="63.623047"/>
       <use xlink:href="#DejaVuSans-36" x="95.410156"/>
      </g>
     </g>
    </g>
    <g id="ytick_10">
     <g id="line2d_28">
      <g>
       <use xlink:href="#m23570bfa50" x="405.16" y="50.039036" style="stroke: #000000; stroke-width: 0.8"/>
      </g>
     </g>
     <g id="text_27">
      <!-- 0.8 -->
      <g transform="translate(382.256875 53.838255)scale(0.1 -0.1)">
       <use xlink:href="#DejaVuSans-30"/>
       <use xlink:href="#DejaVuSans-2e" x="63.623047"/>
       <use xlink:href="#DejaVuSans-38" x="95.410156"/>
      </g>
     </g>
    </g>
   </g>
   <g id="line2d_29">
    <path d="M 418.779761 48.270909 
L 419.052489 48.270909 
L 419.597947 65.565571 
L 421.233914 97.03497 
L 421.506237 101.07746 
L 421.778966 103.367311 
L 422.051695 104.239621 
L 422.597152 104.530912 
L 422.869881 105.039771 
L 423.14261 106.207269 
L 423.414933 108.194841 
L 423.960391 115.071731 
L 425.323629 139.502798 
L 425.596358 141.870487 
L 425.869087 143.21813 
L 426.141815 143.890845 
L 426.414544 144.189944 
L 426.959596 144.328421 
L 427.777782 144.127287 
L 428.050511 144.354451 
L 428.32324 144.977449 
L 429.141021 147.587095 
L 429.41375 147.605921 
L 429.686478 146.869139 
L 429.959207 145.337996 
L 430.504664 140.124312 
L 432.140632 120.890624 
L 432.685684 117.517012 
L 433.776599 112.677811 
L 434.321651 109.958747 
L 434.59438 109.463373 
L 434.867108 110.22643 
L 435.139837 112.666076 
L 435.685295 122.928725 
L 437.048533 156.402517 
L 437.59399 161.739267 
L 438.411771 168.573485 
L 438.957229 172.864014 
L 439.229958 173.912396 
L 439.502686 174.282898 
L 439.77501 174.215689 
L 440.320467 173.490026 
L 441.411382 171.604599 
L 442.229163 170.859436 
L 443.047349 170.225969 
L 443.319673 170.374149 
L 443.592402 170.876887 
L 444.410588 173.023213 
L 444.683316 173.331923 
L 445.228369 173.432066 
L 445.773826 173.282914 
L 446.319284 172.876567 
L 446.864741 172.454347 
L 447.137064 172.436361 
L 447.409793 172.627513 
L 448.227979 173.649968 
L 448.500708 173.555538 
L 449.04576 172.582126 
L 449.591218 171.811697 
L 449.863947 171.813486 
L 450.409404 171.965744 
L 450.681727 171.70283 
L 452.590423 167.99162 
L 453.135881 166.18259 
L 453.408609 165.66861 
L 453.681338 165.788534 
L 453.954067 166.686715 
L 455.044577 172.378523 
L 455.317305 172.862668 
L 455.862763 173.122886 
L 456.407815 173.283297 
L 456.953272 173.826852 
L 458.043782 175.291246 
L 458.316511 175.456602 
L 458.58924 175.460056 
L 458.861968 175.264792 
L 459.407426 174.364589 
L 459.952478 173.515372 
L 460.225207 173.460444 
L 460.497935 173.75949 
L 461.588445 176.127929 
L 461.861174 176.213828 
L 462.133903 175.974002 
L 462.67936 174.652561 
L 463.497141 171.957696 
L 463.76987 171.369658 
L 464.042598 171.086142 
L 464.315327 171.090238 
L 465.133108 171.776022 
L 465.678566 172.308164 
L 466.224023 173.393737 
L 467.041804 175.326435 
L 467.314533 175.554935 
L 467.587261 175.486847 
L 467.85999 175.138464 
L 468.405448 173.828722 
L 468.9505 172.511419 
L 469.223229 172.201201 
L 469.495957 172.204778 
L 470.314143 172.734029 
L 470.586467 172.545602 
L 471.950111 170.691925 
L 472.222839 170.796654 
L 473.313349 171.780719 
L 473.858806 171.587385 
L 474.13113 171.495676 
L 474.403859 171.570861 
L 474.676587 171.88171 
L 475.222045 173.095243 
L 475.767502 174.363062 
L 476.312554 175.127162 
L 476.858012 175.438055 
L 478.22125 175.571729 
L 478.493979 175.542482 
L 478.766708 175.33267 
L 479.039437 174.853484 
L 479.584489 173.007456 
L 480.675404 168.432355 
L 480.948132 168.135949 
L 481.220861 168.521088 
L 481.765913 170.807241 
L 482.311371 173.114021 
L 482.856828 174.430981 
L 483.40188 175.078171 
L 483.947338 175.426231 
L 484.765524 175.611394 
L 486.946543 175.691857 
L 487.76473 175.718552 
L 488.582916 175.842672 
L 490.218883 175.582008 
L 492.127579 176.05823 
L 494.036275 176.865274 
L 495.672242 177.506904 
L 496.217294 177.451236 
L 497.580938 177.078572 
L 500.307414 177.109065 
L 501.125601 176.730294 
L 501.943382 176.43596 
L 502.761568 176.160166 
L 503.852077 175.462864 
L 504.397535 175.514811 
L 505.215316 176.111057 
L 505.760773 176.406262 
L 506.306231 176.423759 
L 507.942198 176.192762 
L 508.759979 176.261974 
L 510.668675 176.725373 
L 512.032318 177.332692 
L 513.668285 177.630903 
L 515.304253 177.932932 
L 517.212948 177.833288 
L 518.303458 177.784759 
L 521.03034 177.802798 
L 522.666307 177.711142 
L 524.302274 177.760099 
L 527.028751 177.461968 
L 528.392395 177.22264 
L 529.210176 177.418015 
L 530.028362 177.573236 
L 531.118872 177.479191 
L 532.209381 177.388445 
L 533.573025 177.472536 
L 534.390806 177.116432 
L 535.754449 176.495681 
L 536.299502 176.487814 
L 536.844959 176.781564 
L 537.66274 177.277932 
L 538.480926 177.496027 
L 541.207808 177.868797 
L 542.298318 177.761166 
L 544.752471 177.307583 
L 545.842981 177.692749 
L 546.933491 177.92352 
L 548.842186 178.016994 
L 550.20583 177.873389 
L 551.569068 177.76694 
L 552.932307 177.89095 
L 554.295545 177.961518 
L 556.47697 178.052714 
L 557.840208 178.029558 
L 558.931123 177.770167 
L 560.021633 177.55434 
L 561.930329 177.714211 
L 563.839025 177.804609 
L 569.837841 177.748408 
L 572.291589 177.815496 
L 574.745742 177.62566 
L 576.108981 177.268339 
L 577.199896 177.363806 
L 580.199101 177.827179 
L 581.017287 177.679504 
L 582.107797 177.405945 
L 582.925983 177.519318 
L 583.743764 177.625185 
L 586.470646 177.557621 
L 594.92321 178.071258 
L 597.922416 178.187916 
L 602.012536 178.210006 
L 611.828744 178.229783 
L 614.555221 178.308438 
L 617.282103 178.228743 
L 620.281309 178.322044 
L 623.825972 178.19582 
L 627.370635 178.273367 
L 631.733484 178.258159 
L 637.186843 178.356553 
L 672.633472 178.470312 
L 691.174974 178.489091 
L 691.174974 178.489091 
" clip-path="url(#p4143d94238)" style="fill: none; stroke: #0000ff; stroke-width: 1.5; stroke-linecap: square"/>
   </g>
   <g id="patch_9">
    <path d="M 405.16 185 
L 405.16 41.76 
" style="fill: none; stroke: #000000; stroke-width: 0.8; stroke-linejoin: miter; stroke-linecap: square"/>
   </g>
   <g id="patch_10">
    <path d="M 704.794734 185 
L 704.794734 41.76 
" style="fill: none; stroke: #000000; stroke-width: 0.8; stroke-linejoin: miter; stroke-linecap: square"/>
   </g>
   <g id="patch_11">
    <path d="M 405.16 185 
L 704.794734 185 
" style="fill: none; stroke: #000000; stroke-width: 0.8; stroke-linejoin: miter; stroke-linecap: square"/>
   </g>
   <g id="patch_12">
    <path d="M 405.16 41.76 
L 704.794734 41.76 
" style="fill: none; stroke: #000000; stroke-width: 0.8; stroke-linejoin: miter; stroke-linecap: square"/>
   </g>
   <g id="legend_2">
    <g id="patch_13">
     <path d="M 653.957234 64.438125 
L 697.794734 64.438125 
Q 699.794734 64.438125 699.794734 62.438125 
L 699.794734 48.76 
Q 699.794734 46.76 697.794734 46.76 
L 653.957234 46.76 
Q 651.957234 46.76 651.957234 48.76 
L 651.957234 62.438125 
Q 651.957234 64.438125 653.957234 64.438125 
z
" style="fill: #ffffff; opacity: 0.8; stroke: #cccccc; stroke-linejoin: miter"/>
    </g>
    <g id="line2d_30">
     <path d="M 655.957234 54.858438 
L 665.957234 54.858438 
L 675.957234 54.858438 
" style="fill: none; stroke: #0000ff; stroke-width: 1.5; stroke-linecap: square"/>
    </g>
    <g id="text_28">
     <!-- yy -->
     <g transform="translate(683.957234 58.358438)scale(0.1 -0.1)">
      <defs>
       <path id="DejaVuSans-79" d="M 2059 -325 
Q 1816 -950 1584 -1140 
Q 1353 -1331 966 -1331 
L 506 -1331 
L 506 -850 
L 844 -850 
Q 1081 -850 1212 -737 
Q 1344 -625 1503 -206 
L 1606 56 
L 191 3500 
L 800 3500 
L 1894 763 
L 2988 3500 
L 3597 3500 
L 2059 -325 
z
" transform="scale(0.015625)"/>
      </defs>
      <use xlink:href="#DejaVuSans-79"/>
      <use xlink:href="#DejaVuSans-79" x="59.179688"/>
     </g>
    </g>
   </g>
  </g>
  <g id="axes_3">
   <g id="patch_14">
    <path d="M 61 356.12 
L 360.634734 356.12 
L 360.634734 212.88 
L 61 212.88 
z
" style="fill: #ffffff"/>
   </g>
   <g id="matplotlib.axis_5">
    <g id="xtick_17">
     <g id="line2d_31">
      <g>
       <use xlink:href="#md239f9c7d6" x="74.619761" y="356.12" style="stroke: #000000; stroke-width: 0.8"/>
      </g>
     </g>
     <g id="text_29">
      <!-- 0 -->
      <g transform="translate(71.438511 370.718437)scale(0.1 -0.1)">
       <use xlink:href="#DejaVuSans-30"/>
      </g>
     </g>
    </g>
    <g id="xtick_18">
     <g id="line2d_32">
      <g>
       <use xlink:href="#md239f9c7d6" x="115.144089" y="356.12" style="stroke: #000000; stroke-width: 0.8"/>
      </g>
     </g>
     <g id="text_30">
      <!-- 10 -->
      <g transform="translate(108.781589 370.718437)scale(0.1 -0.1)">
       <use xlink:href="#DejaVuSans-31"/>
       <use xlink:href="#DejaVuSans-30" x="63.623047"/>
      </g>
     </g>
    </g>
    <g id="xtick_19">
     <g id="line2d_33">
      <g>
       <use xlink:href="#md239f9c7d6" x="155.668417" y="356.12" style="stroke: #000000; stroke-width: 0.8"/>
      </g>
     </g>
     <g id="text_31">
      <!-- 20 -->
      <g transform="translate(149.305917 370.718437)scale(0.1 -0.1)">
       <use xlink:href="#DejaVuSans-32"/>
       <use xlink:href="#DejaVuSans-30" x="63.623047"/>
      </g>
     </g>
    </g>
    <g id="xtick_20">
     <g id="line2d_34">
      <g>
       <use xlink:href="#md239f9c7d6" x="196.192745" y="356.12" style="stroke: #000000; stroke-width: 0.8"/>
      </g>
     </g>
     <g id="text_32">
      <!-- 30 -->
      <g transform="translate(189.830245 370.718437)scale(0.1 -0.1)">
       <use xlink:href="#DejaVuSans-33"/>
       <use xlink:href="#DejaVuSans-30" x="63.623047"/>
      </g>
     </g>
    </g>
    <g id="xtick_21">
     <g id="line2d_35">
      <g>
       <use xlink:href="#md239f9c7d6" x="236.717073" y="356.12" style="stroke: #000000; stroke-width: 0.8"/>
      </g>
     </g>
     <g id="text_33">
      <!-- 40 -->
      <g transform="translate(230.354573 370.718437)scale(0.1 -0.1)">
       <use xlink:href="#DejaVuSans-34"/>
       <use xlink:href="#DejaVuSans-30" x="63.623047"/>
      </g>
     </g>
    </g>
    <g id="xtick_22">
     <g id="line2d_36">
      <g>
       <use xlink:href="#md239f9c7d6" x="277.241401" y="356.12" style="stroke: #000000; stroke-width: 0.8"/>
      </g>
     </g>
     <g id="text_34">
      <!-- 50 -->
      <g transform="translate(270.878901 370.718437)scale(0.1 -0.1)">
       <use xlink:href="#DejaVuSans-35"/>
       <use xlink:href="#DejaVuSans-30" x="63.623047"/>
      </g>
     </g>
    </g>
    <g id="xtick_23">
     <g id="line2d_37">
      <g>
       <use xlink:href="#md239f9c7d6" x="317.765729" y="356.12" style="stroke: #000000; stroke-width: 0.8"/>
      </g>
     </g>
     <g id="text_35">
      <!-- 60 -->
      <g transform="translate(311.403229 370.718437)scale(0.1 -0.1)">
       <use xlink:href="#DejaVuSans-36"/>
       <use xlink:href="#DejaVuSans-30" x="63.623047"/>
      </g>
     </g>
    </g>
    <g id="xtick_24">
     <g id="line2d_38">
      <g>
       <use xlink:href="#md239f9c7d6" x="358.290057" y="356.12" style="stroke: #000000; stroke-width: 0.8"/>
      </g>
     </g>
     <g id="text_36">
      <!-- 70 -->
      <g transform="translate(351.927557 370.718437)scale(0.1 -0.1)">
       <use xlink:href="#DejaVuSans-37"/>
       <use xlink:href="#DejaVuSans-30" x="63.623047"/>
      </g>
     </g>
    </g>
   </g>
   <g id="matplotlib.axis_6">
    <g id="ytick_11">
     <g id="line2d_39">
      <g>
       <use xlink:href="#m23570bfa50" x="61" y="349.647649" style="stroke: #000000; stroke-width: 0.8"/>
      </g>
     </g>
     <g id="text_37">
      <!-- 0.0 -->
      <g transform="translate(38.096875 353.446868)scale(0.1 -0.1)">
       <use xlink:href="#DejaVuSans-30"/>
       <use xlink:href="#DejaVuSans-2e" x="63.623047"/>
       <use xlink:href="#DejaVuSans-30" x="95.410156"/>
      </g>
     </g>
    </g>
    <g id="ytick_12">
     <g id="line2d_40">
      <g>
       <use xlink:href="#m23570bfa50" x="61" y="317.525496" style="stroke: #000000; stroke-width: 0.8"/>
      </g>
     </g>
     <g id="text_38">
      <!-- 0.2 -->
      <g transform="translate(38.096875 321.324714)scale(0.1 -0.1)">
       <use xlink:href="#DejaVuSans-30"/>
       <use xlink:href="#DejaVuSans-2e" x="63.623047"/>
       <use xlink:href="#DejaVuSans-32" x="95.410156"/>
      </g>
     </g>
    </g>
    <g id="ytick_13">
     <g id="line2d_41">
      <g>
       <use xlink:href="#m23570bfa50" x="61" y="285.403342" style="stroke: #000000; stroke-width: 0.8"/>
      </g>
     </g>
     <g id="text_39">
      <!-- 0.4 -->
      <g transform="translate(38.096875 289.202561)scale(0.1 -0.1)">
       <use xlink:href="#DejaVuSans-30"/>
       <use xlink:href="#DejaVuSans-2e" x="63.623047"/>
       <use xlink:href="#DejaVuSans-34" x="95.410156"/>
      </g>
     </g>
    </g>
    <g id="ytick_14">
     <g id="line2d_42">
      <g>
       <use xlink:href="#m23570bfa50" x="61" y="253.281189" style="stroke: #000000; stroke-width: 0.8"/>
      </g>
     </g>
     <g id="text_40">
      <!-- 0.6 -->
      <g transform="translate(38.096875 257.080408)scale(0.1 -0.1)">
       <use xlink:href="#DejaVuSans-30"/>
       <use xlink:href="#DejaVuSans-2e" x="63.623047"/>
       <use xlink:href="#DejaVuSans-36" x="95.410156"/>
      </g>
     </g>
    </g>
    <g id="ytick_15">
     <g id="line2d_43">
      <g>
       <use xlink:href="#m23570bfa50" x="61" y="221.159036" style="stroke: #000000; stroke-width: 0.8"/>
      </g>
     </g>
     <g id="text_41">
      <!-- 0.8 -->
      <g transform="translate(38.096875 224.958255)scale(0.1 -0.1)">
       <use xlink:href="#DejaVuSans-30"/>
       <use xlink:href="#DejaVuSans-2e" x="63.623047"/>
       <use xlink:href="#DejaVuSans-38" x="95.410156"/>
      </g>
     </g>
    </g>
   </g>
   <g id="line2d_44">
    <path d="M 74.619761 219.390909 
L 74.892489 219.390909 
L 75.437947 236.685571 
L 77.073914 268.15497 
L 77.346237 272.19746 
L 77.618966 274.487311 
L 77.891695 275.359621 
L 78.437152 275.650912 
L 78.709881 276.159771 
L 78.98261 277.327269 
L 79.254933 279.314841 
L 79.800391 286.191731 
L 81.163629 310.622798 
L 81.436358 312.990487 
L 81.709087 314.33813 
L 81.981815 315.010845 
L 82.254544 315.309944 
L 82.799596 315.448421 
L 83.617782 315.247287 
L 83.890511 315.474451 
L 84.16324 316.097449 
L 84.981021 318.707095 
L 85.25375 318.725921 
L 85.526478 317.989139 
L 85.799207 316.457996 
L 86.344664 311.244312 
L 87.980632 292.010624 
L 88.525684 288.637012 
L 89.616599 283.797811 
L 90.161651 281.078747 
L 90.43438 280.583373 
L 90.707108 281.34643 
L 90.979837 283.786076 
L 91.525295 294.048725 
L 92.888533 327.522517 
L 93.43399 332.859267 
L 94.251771 339.693485 
L 94.797229 343.984014 
L 95.069958 345.032396 
L 95.342686 345.402898 
L 95.61501 345.335689 
L 96.160467 344.610026 
L 97.251382 342.724599 
L 98.069163 341.979436 
L 98.887349 341.345969 
L 99.159673 341.494149 
L 99.432402 341.996887 
L 100.250588 344.143213 
L 100.523316 344.451923 
L 101.068369 344.552066 
L 101.613826 344.402914 
L 102.159284 343.996567 
L 102.704741 343.574347 
L 102.977064 343.556361 
L 103.249793 343.747513 
L 104.067979 344.769968 
L 104.340708 344.675538 
L 104.88576 343.702126 
L 105.431218 342.931697 
L 105.703947 342.933486 
L 106.249404 343.085744 
L 106.521727 342.82283 
L 108.430423 339.11162 
L 108.975881 337.30259 
L 109.248609 336.78861 
L 109.521338 336.908534 
L 109.794067 337.806715 
L 110.884577 343.498523 
L 111.157305 343.982668 
L 111.702763 344.242886 
L 112.247815 344.403297 
L 112.793272 344.946852 
L 113.883782 346.411246 
L 114.156511 346.576602 
L 114.42924 346.580056 
L 114.701968 346.384792 
L 115.247426 345.484589 
L 115.792478 344.635372 
L 116.065207 344.580444 
L 116.337935 344.87949 
L 117.428445 347.247929 
L 117.701174 347.333828 
L 117.973903 347.094002 
L 118.51936 345.772561 
L 119.337141 343.077696 
L 119.60987 342.489658 
L 119.882598 342.206142 
L 120.155327 342.210238 
L 120.973108 342.896022 
L 121.518566 343.428164 
L 122.064023 344.513737 
L 122.881804 346.446435 
L 123.154533 346.674935 
L 123.427261 346.606847 
L 123.69999 346.258464 
L 124.245448 344.948722 
L 124.7905 343.631419 
L 125.063229 343.321201 
L 125.335957 343.324778 
L 126.154143 343.854029 
L 126.426467 343.665602 
L 127.790111 341.811925 
L 128.062839 341.916654 
L 129.153349 342.900719 
L 129.698806 342.707385 
L 129.97113 342.615676 
L 130.243859 342.690861 
L 130.516587 343.00171 
L 131.062045 344.215243 
L 131.607502 345.483062 
L 132.152554 346.247162 
L 132.698012 346.558055 
L 134.06125 346.691729 
L 134.333979 346.662482 
L 134.606708 346.45267 
L 134.879437 345.973484 
L 135.424489 344.127456 
L 136.515404 339.552355 
L 136.788132 339.255949 
L 137.060861 339.641088 
L 137.605913 341.927241 
L 138.151371 344.234021 
L 138.696828 345.550981 
L 139.24188 346.198171 
L 139.787338 346.546231 
L 140.605524 346.731394 
L 142.786543 346.811857 
L 143.60473 346.838552 
L 144.422916 346.962672 
L 146.058883 346.702008 
L 147.967579 347.17823 
L 149.876275 347.985274 
L 151.512242 348.626904 
L 152.057294 348.571236 
L 153.420938 348.198572 
L 156.147414 348.229065 
L 156.965601 347.850294 
L 157.783382 347.55596 
L 158.601568 347.280166 
L 159.692077 346.582864 
L 160.237535 346.634811 
L 161.055316 347.231057 
L 161.600773 347.526262 
L 162.146231 347.543759 
L 163.782198 347.312762 
L 164.599979 347.381974 
L 166.508675 347.845373 
L 167.872318 348.452692 
L 169.508285 348.750903 
L 171.144253 349.052932 
L 173.052948 348.953288 
L 174.143458 348.904759 
L 176.87034 348.922798 
L 178.506307 348.831142 
L 180.142274 348.880099 
L 182.868751 348.581968 
L 184.232395 348.34264 
L 185.050176 348.538015 
L 185.868362 348.693236 
L 186.958872 348.599191 
L 188.049381 348.508445 
L 189.413025 348.592536 
L 190.230806 348.236432 
L 191.594449 347.615681 
L 192.139502 347.607814 
L 192.684959 347.901564 
L 193.50274 348.397932 
L 194.320926 348.616027 
L 197.047808 348.988797 
L 198.138318 348.881166 
L 200.592471 348.427583 
L 201.682981 348.812749 
L 202.773491 349.04352 
L 204.682186 349.136994 
L 206.04583 348.993389 
L 207.409068 348.88694 
L 208.772307 349.01095 
L 210.135545 349.081518 
L 212.31697 349.172714 
L 213.680208 349.149558 
L 214.771123 348.890167 
L 215.861633 348.67434 
L 217.770329 348.834211 
L 219.679025 348.924609 
L 225.677841 348.868408 
L 228.131589 348.935496 
L 230.585742 348.74566 
L 231.948981 348.388339 
L 233.039896 348.483806 
L 236.039101 348.947179 
L 236.857287 348.799504 
L 237.947797 348.525945 
L 238.765983 348.639318 
L 239.583764 348.745185 
L 242.310646 348.677621 
L 250.76321 349.191258 
L 253.762416 349.307916 
L 257.852536 349.330006 
L 267.668744 349.349783 
L 270.395221 349.428438 
L 273.122103 349.348743 
L 276.121309 349.442044 
L 279.665972 349.31582 
L 283.210635 349.393367 
L 287.573484 349.378159 
L 293.026843 349.476553 
L 328.473472 349.590312 
L 347.014974 349.609091 
L 347.014974 349.609091 
" clip-path="url(#pfeaa4e5658)" style="fill: none; stroke: #ff0000; stroke-width: 1.5; stroke-linecap: square"/>
   </g>
   <g id="patch_15">
    <path d="M 61 356.12 
L 61 212.88 
" style="fill: none; stroke: #000000; stroke-width: 0.8; stroke-linejoin: miter; stroke-linecap: square"/>
   </g>
   <g id="patch_16">
    <path d="M 360.634734 356.12 
L 360.634734 212.88 
" style="fill: none; stroke: #000000; stroke-width: 0.8; stroke-linejoin: miter; stroke-linecap: square"/>
   </g>
   <g id="patch_17">
    <path d="M 61 356.12 
L 360.634734 356.12 
" style="fill: none; stroke: #000000; stroke-width: 0.8; stroke-linejoin: miter; stroke-linecap: square"/>
   </g>
   <g id="patch_18">
    <path d="M 61 212.88 
L 360.634734 212.88 
" style="fill: none; stroke: #000000; stroke-width: 0.8; stroke-linejoin: miter; stroke-linecap: square"/>
   </g>
   <g id="legend_3">
    <g id="patch_19">
     <path d="M 311.137859 235.558125 
L 353.634734 235.558125 
Q 355.634734 235.558125 355.634734 233.558125 
L 355.634734 219.88 
Q 355.634734 217.88 353.634734 217.88 
L 311.137859 217.88 
Q 309.137859 217.88 309.137859 219.88 
L 309.137859 233.558125 
Q 309.137859 235.558125 311.137859 235.558125 
z
" style="fill: #ffffff; opacity: 0.8; stroke: #cccccc; stroke-linejoin: miter"/>
    </g>
    <g id="line2d_45">
     <path d="M 313.137859 225.978438 
L 323.137859 225.978438 
L 333.137859 225.978438 
" style="fill: none; stroke: #ff0000; stroke-width: 1.5; stroke-linecap: square"/>
    </g>
    <g id="text_42">
     <!-- zz -->
     <g transform="translate(341.137859 229.478438)scale(0.1 -0.1)">
      <defs>
       <path id="DejaVuSans-7a" d="M 353 3500 
L 3084 3500 
L 3084 2975 
L 922 459 
L 3084 459 
L 3084 0 
L 275 0 
L 275 525 
L 2438 3041 
L 353 3041 
L 353 3500 
z
" transform="scale(0.015625)"/>
      </defs>
      <use xlink:href="#DejaVuSans-7a"/>
      <use xlink:href="#DejaVuSans-7a" x="52.490234"/>
     </g>
    </g>
   </g>
  </g>
  <g id="axes_4">
   <g id="patch_20">
    <path d="M 405.16 356.12 
L 704.794734 356.12 
L 704.794734 212.88 
L 405.16 212.88 
z
" style="fill: #ffffff"/>
   </g>
   <g id="matplotlib.axis_7">
    <g id="xtick_25">
     <g id="line2d_46">
      <g>
       <use xlink:href="#md239f9c7d6" x="418.779761" y="356.12" style="stroke: #000000; stroke-width: 0.8"/>
      </g>
     </g>
     <g id="text_43">
      <!-- 0 -->
      <g transform="translate(415.598511 370.718437)scale(0.1 -0.1)">
       <use xlink:href="#DejaVuSans-30"/>
      </g>
     </g>
    </g>
    <g id="xtick_26">
     <g id="line2d_47">
      <g>
       <use xlink:href="#md239f9c7d6" x="459.304089" y="356.12" style="stroke: #000000; stroke-width: 0.8"/>
      </g>
     </g>
     <g id="text_44">
      <!-- 10 -->
      <g transform="translate(452.941589 370.718437)scale(0.1 -0.1)">
       <use xlink:href="#DejaVuSans-31"/>
       <use xlink:href="#DejaVuSans-30" x="63.623047"/>
      </g>
     </g>
    </g>
    <g id="xtick_27">
     <g id="line2d_48">
      <g>
       <use xlink:href="#md239f9c7d6" x="499.828417" y="356.12" style="stroke: #000000; stroke-width: 0.8"/>
      </g>
     </g>
     <g id="text_45">
      <!-- 20 -->
      <g transform="translate(493.465917 370.718437)scale(0.1 -0.1)">
       <use xlink:href="#DejaVuSans-32"/>
       <use xlink:href="#DejaVuSans-30" x="63.623047"/>
      </g>
     </g>
    </g>
    <g id="xtick_28">
     <g id="line2d_49">
      <g>
       <use xlink:href="#md239f9c7d6" x="540.352745" y="356.12" style="stroke: #000000; stroke-width: 0.8"/>
      </g>
     </g>
     <g id="text_46">
      <!-- 30 -->
      <g transform="translate(533.990245 370.718437)scale(0.1 -0.1)">
       <use xlink:href="#DejaVuSans-33"/>
       <use xlink:href="#DejaVuSans-30" x="63.623047"/>
      </g>
     </g>
    </g>
    <g id="xtick_29">
     <g id="line2d_50">
      <g>
       <use xlink:href="#md239f9c7d6" x="580.877073" y="356.12" style="stroke: #000000; stroke-width: 0.8"/>
      </g>
     </g>
     <g id="text_47">
      <!-- 40 -->
      <g transform="translate(574.514573 370.718437)scale(0.1 -0.1)">
       <use xlink:href="#DejaVuSans-34"/>
       <use xlink:href="#DejaVuSans-30" x="63.623047"/>
      </g>
     </g>
    </g>
    <g id="xtick_30">
     <g id="line2d_51">
      <g>
       <use xlink:href="#md239f9c7d6" x="621.401401" y="356.12" style="stroke: #000000; stroke-width: 0.8"/>
      </g>
     </g>
     <g id="text_48">
      <!-- 50 -->
      <g transform="translate(615.038901 370.718437)scale(0.1 -0.1)">
       <use xlink:href="#DejaVuSans-35"/>
       <use xlink:href="#DejaVuSans-30" x="63.623047"/>
      </g>
     </g>
    </g>
    <g id="xtick_31">
     <g id="line2d_52">
      <g>
       <use xlink:href="#md239f9c7d6" x="661.925729" y="356.12" style="stroke: #000000; stroke-width: 0.8"/>
      </g>
     </g>
     <g id="text_49">
      <!-- 60 -->
      <g transform="translate(655.563229 370.718437)scale(0.1 -0.1)">
       <use xlink:href="#DejaVuSans-36"/>
       <use xlink:href="#DejaVuSans-30" x="63.623047"/>
      </g>
     </g>
    </g>
    <g id="xtick_32">
     <g id="line2d_53">
      <g>
       <use xlink:href="#md239f9c7d6" x="702.450057" y="356.12" style="stroke: #000000; stroke-width: 0.8"/>
      </g>
     </g>
     <g id="text_50">
      <!-- 70 -->
      <g transform="translate(696.087557 370.718437)scale(0.1 -0.1)">
       <use xlink:href="#DejaVuSans-37"/>
       <use xlink:href="#DejaVuSans-30" x="63.623047"/>
      </g>
     </g>
    </g>
   </g>
   <g id="matplotlib.axis_8">
    <g id="ytick_16">
     <g id="line2d_54">
      <g>
       <use xlink:href="#m23570bfa50" x="405.16" y="336.587273" style="stroke: #000000; stroke-width: 0.8"/>
      </g>
     </g>
     <g id="text_51">
      <!-- 0.96 -->
      <g transform="translate(375.894375 340.386491)scale(0.1 -0.1)">
       <defs>
        <path id="DejaVuSans-39" d="M 703 97 
L 703 672 
Q 941 559 1184 500 
Q 1428 441 1663 441 
Q 2288 441 2617 861 
Q 2947 1281 2994 2138 
Q 2813 1869 2534 1725 
Q 2256 1581 1919 1581 
Q 1219 1581 811 2004 
Q 403 2428 403 3163 
Q 403 3881 828 4315 
Q 1253 4750 1959 4750 
Q 2769 4750 3195 4129 
Q 3622 3509 3622 2328 
Q 3622 1225 3098 567 
Q 2575 -91 1691 -91 
Q 1453 -91 1209 -44 
Q 966 3 703 97 
z
M 1959 2075 
Q 2384 2075 2632 2365 
Q 2881 2656 2881 3163 
Q 2881 3666 2632 3958 
Q 2384 4250 1959 4250 
Q 1534 4250 1286 3958 
Q 1038 3666 1038 3163 
Q 1038 2656 1286 2365 
Q 1534 2075 1959 2075 
z
" transform="scale(0.015625)"/>
       </defs>
       <use xlink:href="#DejaVuSans-30"/>
       <use xlink:href="#DejaVuSans-2e" x="63.623047"/>
       <use xlink:href="#DejaVuSans-39" x="95.410156"/>
       <use xlink:href="#DejaVuSans-36" x="159.033203"/>
      </g>
     </g>
    </g>
    <g id="ytick_17">
     <g id="line2d_55">
      <g>
       <use xlink:href="#m23570bfa50" x="405.16" y="310.543636" style="stroke: #000000; stroke-width: 0.8"/>
      </g>
     </g>
     <g id="text_52">
      <!-- 0.98 -->
      <g transform="translate(375.894375 314.342855)scale(0.1 -0.1)">
       <use xlink:href="#DejaVuSans-30"/>
       <use xlink:href="#DejaVuSans-2e" x="63.623047"/>
       <use xlink:href="#DejaVuSans-39" x="95.410156"/>
       <use xlink:href="#DejaVuSans-38" x="159.033203"/>
      </g>
     </g>
    </g>
    <g id="ytick_18">
     <g id="line2d_56">
      <g>
       <use xlink:href="#m23570bfa50" x="405.16" y="284.5" style="stroke: #000000; stroke-width: 0.8"/>
      </g>
     </g>
     <g id="text_53">
      <!-- 1.00 -->
      <g transform="translate(375.894375 288.299219)scale(0.1 -0.1)">
       <use xlink:href="#DejaVuSans-31"/>
       <use xlink:href="#DejaVuSans-2e" x="63.623047"/>
       <use xlink:href="#DejaVuSans-30" x="95.410156"/>
       <use xlink:href="#DejaVuSans-30" x="159.033203"/>
      </g>
     </g>
    </g>
    <g id="ytick_19">
     <g id="line2d_57">
      <g>
       <use xlink:href="#m23570bfa50" x="405.16" y="258.456364" style="stroke: #000000; stroke-width: 0.8"/>
      </g>
     </g>
     <g id="text_54">
      <!-- 1.02 -->
      <g transform="translate(375.894375 262.255582)scale(0.1 -0.1)">
       <use xlink:href="#DejaVuSans-31"/>
       <use xlink:href="#DejaVuSans-2e" x="63.623047"/>
       <use xlink:href="#DejaVuSans-30" x="95.410156"/>
       <use xlink:href="#DejaVuSans-32" x="159.033203"/>
      </g>
     </g>
    </g>
    <g id="ytick_20">
     <g id="line2d_58">
      <g>
       <use xlink:href="#m23570bfa50" x="405.16" y="232.412727" style="stroke: #000000; stroke-width: 0.8"/>
      </g>
     </g>
     <g id="text_55">
      <!-- 1.04 -->
      <g transform="translate(375.894375 236.211946)scale(0.1 -0.1)">
       <use xlink:href="#DejaVuSans-31"/>
       <use xlink:href="#DejaVuSans-2e" x="63.623047"/>
       <use xlink:href="#DejaVuSans-30" x="95.410156"/>
       <use xlink:href="#DejaVuSans-34" x="159.033203"/>
      </g>
     </g>
    </g>
   </g>
   <g id="line2d_59">
    <path d="M 418.779761 284.5 
L 691.174974 284.5 
L 691.174974 284.5 
" clip-path="url(#p9aa63fa24f)" style="fill: none; stroke: #008000; stroke-width: 1.5; stroke-linecap: square"/>
   </g>
   <g id="patch_21">
    <path d="M 405.16 356.12 
L 405.16 212.88 
" style="fill: none; stroke: #000000; stroke-width: 0.8; stroke-linejoin: miter; stroke-linecap: square"/>
   </g>
   <g id="patch_22">
    <path d="M 704.794734 356.12 
L 704.794734 212.88 
" style="fill: none; stroke: #000000; stroke-width: 0.8; stroke-linejoin: miter; stroke-linecap: square"/>
   </g>
   <g id="patch_23">
    <path d="M 405.16 356.12 
L 704.794734 356.12 
" style="fill: none; stroke: #000000; stroke-width: 0.8; stroke-linejoin: miter; stroke-linecap: square"/>
   </g>
   <g id="patch_24">
    <path d="M 405.16 212.88 
L 704.794734 212.88 
" style="fill: none; stroke: #000000; stroke-width: 0.8; stroke-linejoin: miter; stroke-linecap: square"/>
   </g>
   <g id="legend_4">
    <g id="patch_25">
     <path d="M 653.957234 235.558125 
L 697.794734 235.558125 
Q 699.794734 235.558125 699.794734 233.558125 
L 699.794734 219.88 
Q 699.794734 217.88 697.794734 217.88 
L 653.957234 217.88 
Q 651.957234 217.88 651.957234 219.88 
L 651.957234 233.558125 
Q 651.957234 235.558125 653.957234 235.558125 
z
" style="fill: #ffffff; opacity: 0.8; stroke: #cccccc; stroke-linejoin: miter"/>
    </g>
    <g id="line2d_60">
     <path d="M 655.957234 225.978438 
L 665.957234 225.978438 
L 675.957234 225.978438 
" style="fill: none; stroke: #008000; stroke-width: 1.5; stroke-linecap: square"/>
    </g>
    <g id="text_56">
     <!-- xy -->
     <g transform="translate(683.957234 229.478438)scale(0.1 -0.1)">
      <use xlink:href="#DejaVuSans-78"/>
      <use xlink:href="#DejaVuSans-79" x="59.179688"/>
     </g>
    </g>
   </g>
  </g>
  <g id="axes_5">
   <g id="patch_26">
    <path d="M 61 527.24 
L 360.634734 527.24 
L 360.634734 384 
L 61 384 
z
" style="fill: #ffffff"/>
   </g>
   <g id="matplotlib.axis_9">
    <g id="xtick_33">
     <g id="line2d_61">
      <g>
       <use xlink:href="#md239f9c7d6" x="74.619761" y="527.24" style="stroke: #000000; stroke-width: 0.8"/>
      </g>
     </g>
     <g id="text_57">
      <!-- 0 -->
      <g transform="translate(71.438511 541.838438)scale(0.1 -0.1)">
       <use xlink:href="#DejaVuSans-30"/>
      </g>
     </g>
    </g>
    <g id="xtick_34">
     <g id="line2d_62">
      <g>
       <use xlink:href="#md239f9c7d6" x="115.144089" y="527.24" style="stroke: #000000; stroke-width: 0.8"/>
      </g>
     </g>
     <g id="text_58">
      <!-- 10 -->
      <g transform="translate(108.781589 541.838438)scale(0.1 -0.1)">
       <use xlink:href="#DejaVuSans-31"/>
       <use xlink:href="#DejaVuSans-30" x="63.623047"/>
      </g>
     </g>
    </g>
    <g id="xtick_35">
     <g id="line2d_63">
      <g>
       <use xlink:href="#md239f9c7d6" x="155.668417" y="527.24" style="stroke: #000000; stroke-width: 0.8"/>
      </g>
     </g>
     <g id="text_59">
      <!-- 20 -->
      <g transform="translate(149.305917 541.838438)scale(0.1 -0.1)">
       <use xlink:href="#DejaVuSans-32"/>
       <use xlink:href="#DejaVuSans-30" x="63.623047"/>
      </g>
     </g>
    </g>
    <g id="xtick_36">
     <g id="line2d_64">
      <g>
       <use xlink:href="#md239f9c7d6" x="196.192745" y="527.24" style="stroke: #000000; stroke-width: 0.8"/>
      </g>
     </g>
     <g id="text_60">
      <!-- 30 -->
      <g transform="translate(189.830245 541.838438)scale(0.1 -0.1)">
       <use xlink:href="#DejaVuSans-33"/>
       <use xlink:href="#DejaVuSans-30" x="63.623047"/>
      </g>
     </g>
    </g>
    <g id="xtick_37">
     <g id="line2d_65">
      <g>
       <use xlink:href="#md239f9c7d6" x="236.717073" y="527.24" style="stroke: #000000; stroke-width: 0.8"/>
      </g>
     </g>
     <g id="text_61">
      <!-- 40 -->
      <g transform="translate(230.354573 541.838438)scale(0.1 -0.1)">
       <use xlink:href="#DejaVuSans-34"/>
       <use xlink:href="#DejaVuSans-30" x="63.623047"/>
      </g>
     </g>
    </g>
    <g id="xtick_38">
     <g id="line2d_66">
      <g>
       <use xlink:href="#md239f9c7d6" x="277.241401" y="527.24" style="stroke: #000000; stroke-width: 0.8"/>
      </g>
     </g>
     <g id="text_62">
      <!-- 50 -->
      <g transform="translate(270.878901 541.838438)scale(0.1 -0.1)">
       <use xlink:href="#DejaVuSans-35"/>
       <use xlink:href="#DejaVuSans-30" x="63.623047"/>
      </g>
     </g>
    </g>
    <g id="xtick_39">
     <g id="line2d_67">
      <g>
       <use xlink:href="#md239f9c7d6" x="317.765729" y="527.24" style="stroke: #000000; stroke-width: 0.8"/>
      </g>
     </g>
     <g id="text_63">
      <!-- 60 -->
      <g transform="translate(311.403229 541.838438)scale(0.1 -0.1)">
       <use xlink:href="#DejaVuSans-36"/>
       <use xlink:href="#DejaVuSans-30" x="63.623047"/>
      </g>
     </g>
    </g>
    <g id="xtick_40">
     <g id="line2d_68">
      <g>
       <use xlink:href="#md239f9c7d6" x="358.290057" y="527.24" style="stroke: #000000; stroke-width: 0.8"/>
      </g>
     </g>
     <g id="text_64">
      <!-- 70 -->
      <g transform="translate(351.927557 541.838438)scale(0.1 -0.1)">
       <use xlink:href="#DejaVuSans-37"/>
       <use xlink:href="#DejaVuSans-30" x="63.623047"/>
      </g>
     </g>
    </g>
   </g>
   <g id="matplotlib.axis_10">
    <g id="ytick_21">
     <g id="line2d_69">
      <g>
       <use xlink:href="#m23570bfa50" x="61" y="507.707273" style="stroke: #000000; stroke-width: 0.8"/>
      </g>
     </g>
     <g id="text_65">
      <!-- 0.96 -->
      <g transform="translate(31.734375 511.506491)scale(0.1 -0.1)">
       <use xlink:href="#DejaVuSans-30"/>
       <use xlink:href="#DejaVuSans-2e" x="63.623047"/>
       <use xlink:href="#DejaVuSans-39" x="95.410156"/>
       <use xlink:href="#DejaVuSans-36" x="159.033203"/>
      </g>
     </g>
    </g>
    <g id="ytick_22">
     <g id="line2d_70">
      <g>
       <use xlink:href="#m23570bfa50" x="61" y="481.663636" style="stroke: #000000; stroke-width: 0.8"/>
      </g>
     </g>
     <g id="text_66">
      <!-- 0.98 -->
      <g transform="translate(31.734375 485.462855)scale(0.1 -0.1)">
       <use xlink:href="#DejaVuSans-30"/>
       <use xlink:href="#DejaVuSans-2e" x="63.623047"/>
       <use xlink:href="#DejaVuSans-39" x="95.410156"/>
       <use xlink:href="#DejaVuSans-38" x="159.033203"/>
      </g>
     </g>
    </g>
    <g id="ytick_23">
     <g id="line2d_71">
      <g>
       <use xlink:href="#m23570bfa50" x="61" y="455.62" style="stroke: #000000; stroke-width: 0.8"/>
      </g>
     </g>
     <g id="text_67">
      <!-- 1.00 -->
      <g transform="translate(31.734375 459.419219)scale(0.1 -0.1)">
       <use xlink:href="#DejaVuSans-31"/>
       <use xlink:href="#DejaVuSans-2e" x="63.623047"/>
       <use xlink:href="#DejaVuSans-30" x="95.410156"/>
       <use xlink:href="#DejaVuSans-30" x="159.033203"/>
      </g>
     </g>
    </g>
    <g id="ytick_24">
     <g id="line2d_72">
      <g>
       <use xlink:href="#m23570bfa50" x="61" y="429.576364" style="stroke: #000000; stroke-width: 0.8"/>
      </g>
     </g>
     <g id="text_68">
      <!-- 1.02 -->
      <g transform="translate(31.734375 433.375582)scale(0.1 -0.1)">
       <use xlink:href="#DejaVuSans-31"/>
       <use xlink:href="#DejaVuSans-2e" x="63.623047"/>
       <use xlink:href="#DejaVuSans-30" x="95.410156"/>
       <use xlink:href="#DejaVuSans-32" x="159.033203"/>
      </g>
     </g>
    </g>
    <g id="ytick_25">
     <g id="line2d_73">
      <g>
       <use xlink:href="#m23570bfa50" x="61" y="403.532727" style="stroke: #000000; stroke-width: 0.8"/>
      </g>
     </g>
     <g id="text_69">
      <!-- 1.04 -->
      <g transform="translate(31.734375 407.331946)scale(0.1 -0.1)">
       <use xlink:href="#DejaVuSans-31"/>
       <use xlink:href="#DejaVuSans-2e" x="63.623047"/>
       <use xlink:href="#DejaVuSans-30" x="95.410156"/>
       <use xlink:href="#DejaVuSans-34" x="159.033203"/>
      </g>
     </g>
    </g>
   </g>
   <g id="line2d_74">
    <path d="M 74.619761 455.62 
L 347.014974 455.62 
L 347.014974 455.62 
" clip-path="url(#pbb779d9197)" style="fill: none; stroke: #000000; stroke-width: 1.5; stroke-linecap: square"/>
   </g>
   <g id="patch_27">
    <path d="M 61 527.24 
L 61 384 
" style="fill: none; stroke: #000000; stroke-width: 0.8; stroke-linejoin: miter; stroke-linecap: square"/>
   </g>
   <g id="patch_28">
    <path d="M 360.634734 527.24 
L 360.634734 384 
" style="fill: none; stroke: #000000; stroke-width: 0.8; stroke-linejoin: miter; stroke-linecap: square"/>
   </g>
   <g id="patch_29">
    <path d="M 61 527.24 
L 360.634734 527.24 
" style="fill: none; stroke: #000000; stroke-width: 0.8; stroke-linejoin: miter; stroke-linecap: square"/>
   </g>
   <g id="patch_30">
    <path d="M 61 384 
L 360.634734 384 
" style="fill: none; stroke: #000000; stroke-width: 0.8; stroke-linejoin: miter; stroke-linecap: square"/>
   </g>
   <g id="legend_5">
    <g id="patch_31">
     <path d="M 310.467547 406.678125 
L 353.634734 406.678125 
Q 355.634734 406.678125 355.634734 404.678125 
L 355.634734 391 
Q 355.634734 389 353.634734 389 
L 310.467547 389 
Q 308.467547 389 308.467547 391 
L 308.467547 404.678125 
Q 308.467547 406.678125 310.467547 406.678125 
z
" style="fill: #ffffff; opacity: 0.8; stroke: #cccccc; stroke-linejoin: miter"/>
    </g>
    <g id="line2d_75">
     <path d="M 312.467547 397.098438 
L 322.467547 397.098438 
L 332.467547 397.098438 
" style="fill: none; stroke: #000000; stroke-width: 1.5; stroke-linecap: square"/>
    </g>
    <g id="text_70">
     <!-- yz -->
     <g transform="translate(340.467547 400.598438)scale(0.1 -0.1)">
      <use xlink:href="#DejaVuSans-79"/>
      <use xlink:href="#DejaVuSans-7a" x="59.179688"/>
     </g>
    </g>
   </g>
  </g>
  <g id="axes_6">
   <g id="patch_32">
    <path d="M 405.16 527.24 
L 704.794734 527.24 
L 704.794734 384 
L 405.16 384 
z
" style="fill: #ffffff"/>
   </g>
   <g id="matplotlib.axis_11">
    <g id="xtick_41">
     <g id="line2d_76">
      <g>
       <use xlink:href="#md239f9c7d6" x="418.779761" y="527.24" style="stroke: #000000; stroke-width: 0.8"/>
      </g>
     </g>
     <g id="text_71">
      <!-- 0 -->
      <g transform="translate(415.598511 541.838438)scale(0.1 -0.1)">
       <use xlink:href="#DejaVuSans-30"/>
      </g>
     </g>
    </g>
    <g id="xtick_42">
     <g id="line2d_77">
      <g>
       <use xlink:href="#md239f9c7d6" x="459.304089" y="527.24" style="stroke: #000000; stroke-width: 0.8"/>
      </g>
     </g>
     <g id="text_72">
      <!-- 10 -->
      <g transform="translate(452.941589 541.838438)scale(0.1 -0.1)">
       <use xlink:href="#DejaVuSans-31"/>
       <use xlink:href="#DejaVuSans-30" x="63.623047"/>
      </g>
     </g>
    </g>
    <g id="xtick_43">
     <g id="line2d_78">
      <g>
       <use xlink:href="#md239f9c7d6" x="499.828417" y="527.24" style="stroke: #000000; stroke-width: 0.8"/>
      </g>
     </g>
     <g id="text_73">
      <!-- 20 -->
      <g transform="translate(493.465917 541.838438)scale(0.1 -0.1)">
       <use xlink:href="#DejaVuSans-32"/>
       <use xlink:href="#DejaVuSans-30" x="63.623047"/>
      </g>
     </g>
    </g>
    <g id="xtick_44">
     <g id="line2d_79">
      <g>
       <use xlink:href="#md239f9c7d6" x="540.352745" y="527.24" style="stroke: #000000; stroke-width: 0.8"/>
      </g>
     </g>
     <g id="text_74">
      <!-- 30 -->
      <g transform="translate(533.990245 541.838438)scale(0.1 -0.1)">
       <use xlink:href="#DejaVuSans-33"/>
       <use xlink:href="#DejaVuSans-30" x="63.623047"/>
      </g>
     </g>
    </g>
    <g id="xtick_45">
     <g id="line2d_80">
      <g>
       <use xlink:href="#md239f9c7d6" x="580.877073" y="527.24" style="stroke: #000000; stroke-width: 0.8"/>
      </g>
     </g>
     <g id="text_75">
      <!-- 40 -->
      <g transform="translate(574.514573 541.838438)scale(0.1 -0.1)">
       <use xlink:href="#DejaVuSans-34"/>
       <use xlink:href="#DejaVuSans-30" x="63.623047"/>
      </g>
     </g>
    </g>
    <g id="xtick_46">
     <g id="line2d_81">
      <g>
       <use xlink:href="#md239f9c7d6" x="621.401401" y="527.24" style="stroke: #000000; stroke-width: 0.8"/>
      </g>
     </g>
     <g id="text_76">
      <!-- 50 -->
      <g transform="translate(615.038901 541.838438)scale(0.1 -0.1)">
       <use xlink:href="#DejaVuSans-35"/>
       <use xlink:href="#DejaVuSans-30" x="63.623047"/>
      </g>
     </g>
    </g>
    <g id="xtick_47">
     <g id="line2d_82">
      <g>
       <use xlink:href="#md239f9c7d6" x="661.925729" y="527.24" style="stroke: #000000; stroke-width: 0.8"/>
      </g>
     </g>
     <g id="text_77">
      <!-- 60 -->
      <g transform="translate(655.563229 541.838438)scale(0.1 -0.1)">
       <use xlink:href="#DejaVuSans-36"/>
       <use xlink:href="#DejaVuSans-30" x="63.623047"/>
      </g>
     </g>
    </g>
    <g id="xtick_48">
     <g id="line2d_83">
      <g>
       <use xlink:href="#md239f9c7d6" x="702.450057" y="527.24" style="stroke: #000000; stroke-width: 0.8"/>
      </g>
     </g>
     <g id="text_78">
      <!-- 70 -->
      <g transform="translate(696.087557 541.838438)scale(0.1 -0.1)">
       <use xlink:href="#DejaVuSans-37"/>
       <use xlink:href="#DejaVuSans-30" x="63.623047"/>
      </g>
     </g>
    </g>
   </g>
   <g id="matplotlib.axis_12">
    <g id="ytick_26">
     <g id="line2d_84">
      <g>
       <use xlink:href="#m23570bfa50" x="405.16" y="507.707273" style="stroke: #000000; stroke-width: 0.8"/>
      </g>
     </g>
     <g id="text_79">
      <!-- 0.96 -->
      <g transform="translate(375.894375 511.506491)scale(0.1 -0.1)">
       <use xlink:href="#DejaVuSans-30"/>
       <use xlink:href="#DejaVuSans-2e" x="63.623047"/>
       <use xlink:href="#DejaVuSans-39" x="95.410156"/>
       <use xlink:href="#DejaVuSans-36" x="159.033203"/>
      </g>
     </g>
    </g>
    <g id="ytick_27">
     <g id="line2d_85">
      <g>
       <use xlink:href="#m23570bfa50" x="405.16" y="481.663636" style="stroke: #000000; stroke-width: 0.8"/>
      </g>
     </g>
     <g id="text_80">
      <!-- 0.98 -->
      <g transform="translate(375.894375 485.462855)scale(0.1 -0.1)">
       <use xlink:href="#DejaVuSans-30"/>
       <use xlink:href="#DejaVuSans-2e" x="63.623047"/>
       <use xlink:href="#DejaVuSans-39" x="95.410156"/>
       <use xlink:href="#DejaVuSans-38" x="159.033203"/>
      </g>
     </g>
    </g>
    <g id="ytick_28">
     <g id="line2d_86">
      <g>
       <use xlink:href="#m23570bfa50" x="405.16" y="455.62" style="stroke: #000000; stroke-width: 0.8"/>
      </g>
     </g>
     <g id="text_81">
      <!-- 1.00 -->
      <g transform="translate(375.894375 459.419219)scale(0.1 -0.1)">
       <use xlink:href="#DejaVuSans-31"/>
       <use xlink:href="#DejaVuSans-2e" x="63.623047"/>
       <use xlink:href="#DejaVuSans-30" x="95.410156"/>
       <use xlink:href="#DejaVuSans-30" x="159.033203"/>
      </g>
     </g>
    </g>
    <g id="ytick_29">
     <g id="line2d_87">
      <g>
       <use xlink:href="#m23570bfa50" x="405.16" y="429.576364" style="stroke: #000000; stroke-width: 0.8"/>
      </g>
     </g>
     <g id="text_82">
      <!-- 1.02 -->
      <g transform="translate(375.894375 433.375582)scale(0.1 -0.1)">
       <use xlink:href="#DejaVuSans-31"/>
       <use xlink:href="#DejaVuSans-2e" x="63.623047"/>
       <use xlink:href="#DejaVuSans-30" x="95.410156"/>
       <use xlink:href="#DejaVuSans-32" x="159.033203"/>
      </g>
     </g>
    </g>
    <g id="ytick_30">
     <g id="line2d_88">
      <g>
       <use xlink:href="#m23570bfa50" x="405.16" y="403.532727" style="stroke: #000000; stroke-width: 0.8"/>
      </g>
     </g>
     <g id="text_83">
      <!-- 1.04 -->
      <g transform="translate(375.894375 407.331946)scale(0.1 -0.1)">
       <use xlink:href="#DejaVuSans-31"/>
       <use xlink:href="#DejaVuSans-2e" x="63.623047"/>
       <use xlink:href="#DejaVuSans-30" x="95.410156"/>
       <use xlink:href="#DejaVuSans-34" x="159.033203"/>
      </g>
     </g>
    </g>
   </g>
   <g id="line2d_89">
    <path d="M 418.779761 455.62 
L 691.174974 455.62 
L 691.174974 455.62 
" clip-path="url(#p70d3547dfe)" style="fill: none; stroke: #ee82ee; stroke-width: 1.5; stroke-linecap: square"/>
   </g>
   <g id="patch_33">
    <path d="M 405.16 527.24 
L 405.16 384 
" style="fill: none; stroke: #000000; stroke-width: 0.8; stroke-linejoin: miter; stroke-linecap: square"/>
   </g>
   <g id="patch_34">
    <path d="M 704.794734 527.24 
L 704.794734 384 
" style="fill: none; stroke: #000000; stroke-width: 0.8; stroke-linejoin: miter; stroke-linecap: square"/>
   </g>
   <g id="patch_35">
    <path d="M 405.16 527.24 
L 704.794734 527.24 
" style="fill: none; stroke: #000000; stroke-width: 0.8; stroke-linejoin: miter; stroke-linecap: square"/>
   </g>
   <g id="patch_36">
    <path d="M 405.16 384 
L 704.794734 384 
" style="fill: none; stroke: #000000; stroke-width: 0.8; stroke-linejoin: miter; stroke-linecap: square"/>
   </g>
   <g id="legend_6">
    <g id="patch_37">
     <path d="M 654.627547 406.678125 
L 697.794734 406.678125 
Q 699.794734 406.678125 699.794734 404.678125 
L 699.794734 391 
Q 699.794734 389 697.794734 389 
L 654.627547 389 
Q 652.627547 389 652.627547 391 
L 652.627547 404.678125 
Q 652.627547 406.678125 654.627547 406.678125 
z
" style="fill: #ffffff; opacity: 0.8; stroke: #cccccc; stroke-linejoin: miter"/>
    </g>
    <g id="line2d_90">
     <path d="M 656.627547 397.098438 
L 666.627547 397.098438 
L 676.627547 397.098438 
" style="fill: none; stroke: #ee82ee; stroke-width: 1.5; stroke-linecap: square"/>
    </g>
    <g id="text_84">
     <!-- zx -->
     <g transform="translate(684.627547 400.598438)scale(0.1 -0.1)">
      <use xlink:href="#DejaVuSans-7a"/>
      <use xlink:href="#DejaVuSans-78" x="52.490234"/>
     </g>
    </g>
   </g>
  </g>
  <g id="text_85">
   <!-- Reflectivity -->
   <g transform="translate(304.164062 26.716875)scale(0.2 -0.2)">
    <defs>
     <path id="DejaVuSans-52" d="M 2841 2188 
Q 3044 2119 3236 1894 
Q 3428 1669 3622 1275 
L 4263 0 
L 3584 0 
L 2988 1197 
Q 2756 1666 2539 1819 
Q 2322 1972 1947 1972 
L 1259 1972 
L 1259 0 
L 628 0 
L 628 4666 
L 2053 4666 
Q 2853 4666 3247 4331 
Q 3641 3997 3641 3322 
Q 3641 2881 3436 2590 
Q 3231 2300 2841 2188 
z
M 1259 4147 
L 1259 2491 
L 2053 2491 
Q 2509 2491 2742 2702 
Q 2975 2913 2975 3322 
Q 2975 3731 2742 3939 
Q 2509 4147 2053 4147 
L 1259 4147 
z
" transform="scale(0.015625)"/>
     <path id="DejaVuSans-65" d="M 3597 1894 
L 3597 1613 
L 953 1613 
Q 991 1019 1311 708 
Q 1631 397 2203 397 
Q 2534 397 2845 478 
Q 3156 559 3463 722 
L 3463 178 
Q 3153 47 2828 -22 
Q 2503 -91 2169 -91 
Q 1331 -91 842 396 
Q 353 884 353 1716 
Q 353 2575 817 3079 
Q 1281 3584 2069 3584 
Q 2775 3584 3186 3129 
Q 3597 2675 3597 1894 
z
M 3022 2063 
Q 3016 2534 2758 2815 
Q 2500 3097 2075 3097 
Q 1594 3097 1305 2825 
Q 1016 2553 972 2059 
L 3022 2063 
z
" transform="scale(0.015625)"/>
     <path id="DejaVuSans-66" d="M 2375 4863 
L 2375 4384 
L 1825 4384 
Q 1516 4384 1395 4259 
Q 1275 4134 1275 3809 
L 1275 3500 
L 2222 3500 
L 2222 3053 
L 1275 3053 
L 1275 0 
L 697 0 
L 697 3053 
L 147 3053 
L 147 3500 
L 697 3500 
L 697 3744 
Q 697 4328 969 4595 
Q 1241 4863 1831 4863 
L 2375 4863 
z
" transform="scale(0.015625)"/>
     <path id="DejaVuSans-6c" d="M 603 4863 
L 1178 4863 
L 1178 0 
L 603 0 
L 603 4863 
z
" transform="scale(0.015625)"/>
     <path id="DejaVuSans-63" d="M 3122 3366 
L 3122 2828 
Q 2878 2963 2633 3030 
Q 2388 3097 2138 3097 
Q 1578 3097 1268 2742 
Q 959 2388 959 1747 
Q 959 1106 1268 751 
Q 1578 397 2138 397 
Q 2388 397 2633 464 
Q 2878 531 3122 666 
L 3122 134 
Q 2881 22 2623 -34 
Q 2366 -91 2075 -91 
Q 1284 -91 818 406 
Q 353 903 353 1747 
Q 353 2603 823 3093 
Q 1294 3584 2113 3584 
Q 2378 3584 2631 3529 
Q 2884 3475 3122 3366 
z
" transform="scale(0.015625)"/>
     <path id="DejaVuSans-74" d="M 1172 4494 
L 1172 3500 
L 2356 3500 
L 2356 3053 
L 1172 3053 
L 1172 1153 
Q 1172 725 1289 603 
Q 1406 481 1766 481 
L 2356 481 
L 2356 0 
L 1766 0 
Q 1100 0 847 248 
Q 594 497 594 1153 
L 594 3053 
L 172 3053 
L 172 3500 
L 594 3500 
L 594 4494 
L 1172 4494 
z
" transform="scale(0.015625)"/>
     <path id="DejaVuSans-69" d="M 603 3500 
L 1178 3500 
L 1178 0 
L 603 0 
L 603 3500 
z
M 603 4863 
L 1178 4863 
L 1178 4134 
L 603 4134 
L 603 4863 
z
" transform="scale(0.015625)"/>
     <path id="DejaVuSans-76" d="M 191 3500 
L 800 3500 
L 1894 563 
L 2988 3500 
L 3597 3500 
L 2284 0 
L 1503 0 
L 191 3500 
z
" transform="scale(0.015625)"/>
    </defs>
    <use xlink:href="#DejaVuSans-52"/>
    <use xlink:href="#DejaVuSans-65" x="64.982422"/>
    <use xlink:href="#DejaVuSans-66" x="126.505859"/>
    <use xlink:href="#DejaVuSans-6c" x="161.710938"/>
    <use xlink:href="#DejaVuSans-65" x="189.494141"/>
    <use xlink:href="#DejaVuSans-63" x="251.017578"/>
    <use xlink:href="#DejaVuSans-74" x="305.998047"/>
    <use xlink:href="#DejaVuSans-69" x="345.207031"/>
    <use xlink:href="#DejaVuSans-76" x="372.990234"/>
    <use xlink:href="#DejaVuSans-69" x="432.169922"/>
    <use xlink:href="#DejaVuSans-74" x="459.953125"/>
    <use xlink:href="#DejaVuSans-79" x="499.162109"/>
   </g>
  </g>
  <g id="text_86">
   <!-- cm^-1 -->
   <g transform="translate(21.998438 304.794531)rotate(-90)scale(0.1 -0.1)">
    <defs>
     <path id="DejaVuSans-6d" d="M 3328 2828 
Q 3544 3216 3844 3400 
Q 4144 3584 4550 3584 
Q 5097 3584 5394 3201 
Q 5691 2819 5691 2113 
L 5691 0 
L 5113 0 
L 5113 2094 
Q 5113 2597 4934 2840 
Q 4756 3084 4391 3084 
Q 3944 3084 3684 2787 
Q 3425 2491 3425 1978 
L 3425 0 
L 2847 0 
L 2847 2094 
Q 2847 2600 2669 2842 
Q 2491 3084 2119 3084 
Q 1678 3084 1418 2786 
Q 1159 2488 1159 1978 
L 1159 0 
L 581 0 
L 581 3500 
L 1159 3500 
L 1159 2956 
Q 1356 3278 1631 3431 
Q 1906 3584 2284 3584 
Q 2666 3584 2933 3390 
Q 3200 3197 3328 2828 
z
" transform="scale(0.015625)"/>
     <path id="DejaVuSans-5e" d="M 2988 4666 
L 4684 2925 
L 4056 2925 
L 2681 4159 
L 1306 2925 
L 678 2925 
L 2375 4666 
L 2988 4666 
z
" transform="scale(0.015625)"/>
     <path id="DejaVuSans-2d" d="M 313 2009 
L 1997 2009 
L 1997 1497 
L 313 1497 
L 313 2009 
z
" transform="scale(0.015625)"/>
    </defs>
    <use xlink:href="#DejaVuSans-63"/>
    <use xlink:href="#DejaVuSans-6d" x="54.980469"/>
    <use xlink:href="#DejaVuSans-5e" x="152.392578"/>
    <use xlink:href="#DejaVuSans-2d" x="236.181641"/>
    <use xlink:href="#DejaVuSans-31" x="272.265625"/>
   </g>
  </g>
  <g id="text_87">
   <!-- Energy (eV) -->
   <g transform="translate(330.50625 568.160313)scale(0.1 -0.1)">
    <defs>
     <path id="DejaVuSans-45" d="M 628 4666 
L 3578 4666 
L 3578 4134 
L 1259 4134 
L 1259 2753 
L 3481 2753 
L 3481 2222 
L 1259 2222 
L 1259 531 
L 3634 531 
L 3634 0 
L 628 0 
L 628 4666 
z
" transform="scale(0.015625)"/>
     <path id="DejaVuSans-6e" d="M 3513 2113 
L 3513 0 
L 2938 0 
L 2938 2094 
Q 2938 2591 2744 2837 
Q 2550 3084 2163 3084 
Q 1697 3084 1428 2787 
Q 1159 2491 1159 1978 
L 1159 0 
L 581 0 
L 581 3500 
L 1159 3500 
L 1159 2956 
Q 1366 3272 1645 3428 
Q 1925 3584 2291 3584 
Q 2894 3584 3203 3211 
Q 3513 2838 3513 2113 
z
" transform="scale(0.015625)"/>
     <path id="DejaVuSans-72" d="M 2631 2963 
Q 2534 3019 2420 3045 
Q 2306 3072 2169 3072 
Q 1681 3072 1420 2755 
Q 1159 2438 1159 1844 
L 1159 0 
L 581 0 
L 581 3500 
L 1159 3500 
L 1159 2956 
Q 1341 3275 1631 3429 
Q 1922 3584 2338 3584 
Q 2397 3584 2469 3576 
Q 2541 3569 2628 3553 
L 2631 2963 
z
" transform="scale(0.015625)"/>
     <path id="DejaVuSans-67" d="M 2906 1791 
Q 2906 2416 2648 2759 
Q 2391 3103 1925 3103 
Q 1463 3103 1205 2759 
Q 947 2416 947 1791 
Q 947 1169 1205 825 
Q 1463 481 1925 481 
Q 2391 481 2648 825 
Q 2906 1169 2906 1791 
z
M 3481 434 
Q 3481 -459 3084 -895 
Q 2688 -1331 1869 -1331 
Q 1566 -1331 1297 -1286 
Q 1028 -1241 775 -1147 
L 775 -588 
Q 1028 -725 1275 -790 
Q 1522 -856 1778 -856 
Q 2344 -856 2625 -561 
Q 2906 -266 2906 331 
L 2906 616 
Q 2728 306 2450 153 
Q 2172 0 1784 0 
Q 1141 0 747 490 
Q 353 981 353 1791 
Q 353 2603 747 3093 
Q 1141 3584 1784 3584 
Q 2172 3584 2450 3431 
Q 2728 3278 2906 2969 
L 2906 3500 
L 3481 3500 
L 3481 434 
z
" transform="scale(0.015625)"/>
     <path id="DejaVuSans-20" transform="scale(0.015625)"/>
     <path id="DejaVuSans-28" d="M 1984 4856 
Q 1566 4138 1362 3434 
Q 1159 2731 1159 2009 
Q 1159 1288 1364 580 
Q 1569 -128 1984 -844 
L 1484 -844 
Q 1016 -109 783 600 
Q 550 1309 550 2009 
Q 550 2706 781 3412 
Q 1013 4119 1484 4856 
L 1984 4856 
z
" transform="scale(0.015625)"/>
     <path id="DejaVuSans-56" d="M 1831 0 
L 50 4666 
L 709 4666 
L 2188 738 
L 3669 4666 
L 4325 4666 
L 2547 0 
L 1831 0 
z
" transform="scale(0.015625)"/>
     <path id="DejaVuSans-29" d="M 513 4856 
L 1013 4856 
Q 1481 4119 1714 3412 
Q 1947 2706 1947 2009 
Q 1947 1309 1714 600 
Q 1481 -109 1013 -844 
L 513 -844 
Q 928 -128 1133 580 
Q 1338 1288 1338 2009 
Q 1338 2731 1133 3434 
Q 928 4138 513 4856 
z
" transform="scale(0.015625)"/>
    </defs>
    <use xlink:href="#DejaVuSans-45"/>
    <use xlink:href="#DejaVuSans-6e" x="63.183594"/>
    <use xlink:href="#DejaVuSans-65" x="126.5625"/>
    <use xlink:href="#DejaVuSans-72" x="188.085938"/>
    <use xlink:href="#DejaVuSans-67" x="227.449219"/>
    <use xlink:href="#DejaVuSans-79" x="290.925781"/>
    <use xlink:href="#DejaVuSans-20" x="350.105469"/>
    <use xlink:href="#DejaVuSans-28" x="381.892578"/>
    <use xlink:href="#DejaVuSans-65" x="420.90625"/>
    <use xlink:href="#DejaVuSans-56" x="482.429688"/>
    <use xlink:href="#DejaVuSans-29" x="550.837891"/>
   </g>
  </g>
 </g>
 <defs>
  <clipPath id="peb5c330f87">
   <rect x="61" y="41.76" width="299.634734" height="143.24"/>
  </clipPath>
  <clipPath id="p4143d94238">
   <rect x="405.16" y="41.76" width="299.634734" height="143.24"/>
  </clipPath>
  <clipPath id="pfeaa4e5658">
   <rect x="61" y="212.88" width="299.634734" height="143.24"/>
  </clipPath>
  <clipPath id="p9aa63fa24f">
   <rect x="405.16" y="212.88" width="299.634734" height="143.24"/>
  </clipPath>
  <clipPath id="pbb779d9197">
   <rect x="61" y="384" width="299.634734" height="143.24"/>
  </clipPath>
  <clipPath id="p70d3547dfe">
   <rect x="405.16" y="384" width="299.634734" height="143.24"/>
  </clipPath>
 </defs>
</svg>
