<?xml version="1.0" encoding="utf-8" standalone="no"?>
<!DOCTYPE svg PUBLIC "-//W3C//DTD SVG 1.1//EN"
  "http://www.w3.org/Graphics/SVG/1.1/DTD/svg11.dtd">
<svg xmlns:xlink="http://www.w3.org/1999/xlink" width="720pt" height="576pt" viewBox="0 0 720 576" xmlns="http://www.w3.org/2000/svg" version="1.1">
 <metadata>
  <rdf:RDF xmlns:dc="http://purl.org/dc/elements/1.1/" xmlns:cc="http://creativecommons.org/ns#" xmlns:rdf="http://www.w3.org/1999/02/22-rdf-syntax-ns#">
   <cc:Work>
    <dc:type rdf:resource="http://purl.org/dc/dcmitype/StillImage"/>
    <dc:date>2022-03-11T21:10:52.920551</dc:date>
    <dc:format>image/svg+xml</dc:format>
    <dc:creator>
     <cc:Agent>
      <dc:title>Matplotlib v3.5.1, https://matplotlib.org/</dc:title>
     </cc:Agent>
    </dc:creator>
   </cc:Work>
  </rdf:RDF>
 </metadata>
 <defs>
  <style type="text/css">*{stroke-linejoin: round; stroke-linecap: butt}</style>
 </defs>
 <g id="figure_1">
  <g id="patch_1">
   <path d="M 0 576 
L 720 576 
L 720 0 
L 0 0 
z
" style="fill: #ffffff"/>
  </g>
  <g id="axes_1">
   <g id="patch_2">
    <path d="M 55.15 250.04 
L 707.176415 250.04 
L 707.176415 10.8 
L 55.15 10.8 
z
" style="fill: #ffffff"/>
   </g>
   <g id="matplotlib.axis_1">
    <g id="xtick_1">
     <g id="line2d_1">
      <defs>
       <path id="m141ceda9d1" d="M 0 0 
L 0 3.5 
" style="stroke: #000000; stroke-width: 0.8"/>
      </defs>
      <g>
       <use xlink:href="#m141ceda9d1" x="84.787564" y="250.04" style="stroke: #000000; stroke-width: 0.8"/>
      </g>
     </g>
     <g id="text_1">
      <!-- 0 -->
      <g transform="translate(81.606314 264.638438)scale(0.1 -0.1)">
       <defs>
        <path id="DejaVuSans-30" d="M 2034 4250 
Q 1547 4250 1301 3770 
Q 1056 3291 1056 2328 
Q 1056 1369 1301 889 
Q 1547 409 2034 409 
Q 2525 409 2770 889 
Q 3016 1369 3016 2328 
Q 3016 3291 2770 3770 
Q 2525 4250 2034 4250 
z
M 2034 4750 
Q 2819 4750 3233 4129 
Q 3647 3509 3647 2328 
Q 3647 1150 3233 529 
Q 2819 -91 2034 -91 
Q 1250 -91 836 529 
Q 422 1150 422 2328 
Q 422 3509 836 4129 
Q 1250 4750 2034 4750 
z
" transform="scale(0.015625)"/>
       </defs>
       <use xlink:href="#DejaVuSans-30"/>
      </g>
     </g>
    </g>
    <g id="xtick_2">
     <g id="line2d_2">
      <g>
       <use xlink:href="#m141ceda9d1" x="172.971374" y="250.04" style="stroke: #000000; stroke-width: 0.8"/>
      </g>
     </g>
     <g id="text_2">
      <!-- 10 -->
      <g transform="translate(166.608874 264.638438)scale(0.1 -0.1)">
       <defs>
        <path id="DejaVuSans-31" d="M 794 531 
L 1825 531 
L 1825 4091 
L 703 3866 
L 703 4441 
L 1819 4666 
L 2450 4666 
L 2450 531 
L 3481 531 
L 3481 0 
L 794 0 
L 794 531 
z
" transform="scale(0.015625)"/>
       </defs>
       <use xlink:href="#DejaVuSans-31"/>
       <use xlink:href="#DejaVuSans-30" x="63.623047"/>
      </g>
     </g>
    </g>
    <g id="xtick_3">
     <g id="line2d_3">
      <g>
       <use xlink:href="#m141ceda9d1" x="261.155184" y="250.04" style="stroke: #000000; stroke-width: 0.8"/>
      </g>
     </g>
     <g id="text_3">
      <!-- 20 -->
      <g transform="translate(254.792684 264.638438)scale(0.1 -0.1)">
       <defs>
        <path id="DejaVuSans-32" d="M 1228 531 
L 3431 531 
L 3431 0 
L 469 0 
L 469 531 
Q 828 903 1448 1529 
Q 2069 2156 2228 2338 
Q 2531 2678 2651 2914 
Q 2772 3150 2772 3378 
Q 2772 3750 2511 3984 
Q 2250 4219 1831 4219 
Q 1534 4219 1204 4116 
Q 875 4013 500 3803 
L 500 4441 
Q 881 4594 1212 4672 
Q 1544 4750 1819 4750 
Q 2544 4750 2975 4387 
Q 3406 4025 3406 3419 
Q 3406 3131 3298 2873 
Q 3191 2616 2906 2266 
Q 2828 2175 2409 1742 
Q 1991 1309 1228 531 
z
" transform="scale(0.015625)"/>
       </defs>
       <use xlink:href="#DejaVuSans-32"/>
       <use xlink:href="#DejaVuSans-30" x="63.623047"/>
      </g>
     </g>
    </g>
    <g id="xtick_4">
     <g id="line2d_4">
      <g>
       <use xlink:href="#m141ceda9d1" x="349.338993" y="250.04" style="stroke: #000000; stroke-width: 0.8"/>
      </g>
     </g>
     <g id="text_4">
      <!-- 30 -->
      <g transform="translate(342.976493 264.638438)scale(0.1 -0.1)">
       <defs>
        <path id="DejaVuSans-33" d="M 2597 2516 
Q 3050 2419 3304 2112 
Q 3559 1806 3559 1356 
Q 3559 666 3084 287 
Q 2609 -91 1734 -91 
Q 1441 -91 1130 -33 
Q 819 25 488 141 
L 488 750 
Q 750 597 1062 519 
Q 1375 441 1716 441 
Q 2309 441 2620 675 
Q 2931 909 2931 1356 
Q 2931 1769 2642 2001 
Q 2353 2234 1838 2234 
L 1294 2234 
L 1294 2753 
L 1863 2753 
Q 2328 2753 2575 2939 
Q 2822 3125 2822 3475 
Q 2822 3834 2567 4026 
Q 2313 4219 1838 4219 
Q 1578 4219 1281 4162 
Q 984 4106 628 3988 
L 628 4550 
Q 988 4650 1302 4700 
Q 1616 4750 1894 4750 
Q 2613 4750 3031 4423 
Q 3450 4097 3450 3541 
Q 3450 3153 3228 2886 
Q 3006 2619 2597 2516 
z
" transform="scale(0.015625)"/>
       </defs>
       <use xlink:href="#DejaVuSans-33"/>
       <use xlink:href="#DejaVuSans-30" x="63.623047"/>
      </g>
     </g>
    </g>
    <g id="xtick_5">
     <g id="line2d_5">
      <g>
       <use xlink:href="#m141ceda9d1" x="437.522803" y="250.04" style="stroke: #000000; stroke-width: 0.8"/>
      </g>
     </g>
     <g id="text_5">
      <!-- 40 -->
      <g transform="translate(431.160303 264.638438)scale(0.1 -0.1)">
       <defs>
        <path id="DejaVuSans-34" d="M 2419 4116 
L 825 1625 
L 2419 1625 
L 2419 4116 
z
M 2253 4666 
L 3047 4666 
L 3047 1625 
L 3713 1625 
L 3713 1100 
L 3047 1100 
L 3047 0 
L 2419 0 
L 2419 1100 
L 313 1100 
L 313 1709 
L 2253 4666 
z
" transform="scale(0.015625)"/>
       </defs>
       <use xlink:href="#DejaVuSans-34"/>
       <use xlink:href="#DejaVuSans-30" x="63.623047"/>
      </g>
     </g>
    </g>
    <g id="xtick_6">
     <g id="line2d_6">
      <g>
       <use xlink:href="#m141ceda9d1" x="525.706613" y="250.04" style="stroke: #000000; stroke-width: 0.8"/>
      </g>
     </g>
     <g id="text_6">
      <!-- 50 -->
      <g transform="translate(519.344113 264.638438)scale(0.1 -0.1)">
       <defs>
        <path id="DejaVuSans-35" d="M 691 4666 
L 3169 4666 
L 3169 4134 
L 1269 4134 
L 1269 2991 
Q 1406 3038 1543 3061 
Q 1681 3084 1819 3084 
Q 2600 3084 3056 2656 
Q 3513 2228 3513 1497 
Q 3513 744 3044 326 
Q 2575 -91 1722 -91 
Q 1428 -91 1123 -41 
Q 819 9 494 109 
L 494 744 
Q 775 591 1075 516 
Q 1375 441 1709 441 
Q 2250 441 2565 725 
Q 2881 1009 2881 1497 
Q 2881 1984 2565 2268 
Q 2250 2553 1709 2553 
Q 1456 2553 1204 2497 
Q 953 2441 691 2322 
L 691 4666 
z
" transform="scale(0.015625)"/>
       </defs>
       <use xlink:href="#DejaVuSans-35"/>
       <use xlink:href="#DejaVuSans-30" x="63.623047"/>
      </g>
     </g>
    </g>
    <g id="xtick_7">
     <g id="line2d_7">
      <g>
       <use xlink:href="#m141ceda9d1" x="613.890423" y="250.04" style="stroke: #000000; stroke-width: 0.8"/>
      </g>
     </g>
     <g id="text_7">
      <!-- 60 -->
      <g transform="translate(607.527923 264.638438)scale(0.1 -0.1)">
       <defs>
        <path id="DejaVuSans-36" d="M 2113 2584 
Q 1688 2584 1439 2293 
Q 1191 2003 1191 1497 
Q 1191 994 1439 701 
Q 1688 409 2113 409 
Q 2538 409 2786 701 
Q 3034 994 3034 1497 
Q 3034 2003 2786 2293 
Q 2538 2584 2113 2584 
z
M 3366 4563 
L 3366 3988 
Q 3128 4100 2886 4159 
Q 2644 4219 2406 4219 
Q 1781 4219 1451 3797 
Q 1122 3375 1075 2522 
Q 1259 2794 1537 2939 
Q 1816 3084 2150 3084 
Q 2853 3084 3261 2657 
Q 3669 2231 3669 1497 
Q 3669 778 3244 343 
Q 2819 -91 2113 -91 
Q 1303 -91 875 529 
Q 447 1150 447 2328 
Q 447 3434 972 4092 
Q 1497 4750 2381 4750 
Q 2619 4750 2861 4703 
Q 3103 4656 3366 4563 
z
" transform="scale(0.015625)"/>
       </defs>
       <use xlink:href="#DejaVuSans-36"/>
       <use xlink:href="#DejaVuSans-30" x="63.623047"/>
      </g>
     </g>
    </g>
    <g id="xtick_8">
     <g id="line2d_8">
      <g>
       <use xlink:href="#m141ceda9d1" x="702.074232" y="250.04" style="stroke: #000000; stroke-width: 0.8"/>
      </g>
     </g>
     <g id="text_8">
      <!-- 70 -->
      <g transform="translate(695.711732 264.638438)scale(0.1 -0.1)">
       <defs>
        <path id="DejaVuSans-37" d="M 525 4666 
L 3525 4666 
L 3525 4397 
L 1831 0 
L 1172 0 
L 2766 4134 
L 525 4134 
L 525 4666 
z
" transform="scale(0.015625)"/>
       </defs>
       <use xlink:href="#DejaVuSans-37"/>
       <use xlink:href="#DejaVuSans-30" x="63.623047"/>
      </g>
     </g>
    </g>
   </g>
   <g id="matplotlib.axis_2">
    <g id="ytick_1">
     <g id="line2d_9">
      <defs>
       <path id="m8ced2ab0a4" d="M 0 0 
L -3.5 0 
" style="stroke: #000000; stroke-width: 0.8"/>
      </defs>
      <g>
       <use xlink:href="#m8ced2ab0a4" x="55.15" y="239.165455" style="stroke: #000000; stroke-width: 0.8"/>
      </g>
     </g>
     <g id="text_9">
      <!-- 0 -->
      <g transform="translate(41.7875 242.964673)scale(0.1 -0.1)">
       <use xlink:href="#DejaVuSans-30"/>
      </g>
     </g>
    </g>
    <g id="ytick_2">
     <g id="line2d_10">
      <g>
       <use xlink:href="#m8ced2ab0a4" x="55.15" y="189.294753" style="stroke: #000000; stroke-width: 0.8"/>
      </g>
     </g>
     <g id="text_10">
      <!-- 1 -->
      <g transform="translate(41.7875 193.093971)scale(0.1 -0.1)">
       <use xlink:href="#DejaVuSans-31"/>
      </g>
     </g>
    </g>
    <g id="ytick_3">
     <g id="line2d_11">
      <g>
       <use xlink:href="#m8ced2ab0a4" x="55.15" y="139.424051" style="stroke: #000000; stroke-width: 0.8"/>
      </g>
     </g>
     <g id="text_11">
      <!-- 2 -->
      <g transform="translate(41.7875 143.223269)scale(0.1 -0.1)">
       <use xlink:href="#DejaVuSans-32"/>
      </g>
     </g>
    </g>
    <g id="ytick_4">
     <g id="line2d_12">
      <g>
       <use xlink:href="#m8ced2ab0a4" x="55.15" y="89.553349" style="stroke: #000000; stroke-width: 0.8"/>
      </g>
     </g>
     <g id="text_12">
      <!-- 3 -->
      <g transform="translate(41.7875 93.352567)scale(0.1 -0.1)">
       <use xlink:href="#DejaVuSans-33"/>
      </g>
     </g>
    </g>
    <g id="ytick_5">
     <g id="line2d_13">
      <g>
       <use xlink:href="#m8ced2ab0a4" x="55.15" y="39.682646" style="stroke: #000000; stroke-width: 0.8"/>
      </g>
     </g>
     <g id="text_13">
      <!-- 4 -->
      <g transform="translate(41.7875 43.481865)scale(0.1 -0.1)">
       <use xlink:href="#DejaVuSans-34"/>
      </g>
     </g>
    </g>
   </g>
   <g id="line2d_14">
    <path d="M 84.787564 239.165455 
L 85.381041 90.749228 
L 85.974518 92.05027 
L 86.567995 94.563858 
L 87.160591 98.654632 
L 87.754068 104.254738 
L 88.941022 117.538188 
L 89.534499 122.47455 
L 90.127976 124.266973 
L 90.720571 122.370185 
L 92.501002 108.862651 
L 93.094479 108.872914 
L 93.687956 112.507227 
L 94.281433 118.841958 
L 96.65446 148.952028 
L 97.247937 153.857639 
L 97.841414 156.916863 
L 98.434891 158.106518 
L 99.027486 157.592361 
L 99.620963 155.652835 
L 100.21444 152.689498 
L 102.587466 137.86415 
L 103.77442 130.669947 
L 104.367897 127.789585 
L 104.961374 126.027683 
L 105.554852 125.474986 
L 106.148329 125.489852 
L 106.740924 124.932567 
L 107.334401 122.66936 
L 107.927878 117.924527 
L 108.521355 110.152437 
L 109.114832 98.869295 
L 110.301786 66.322698 
L 111.487858 32.852345 
L 112.081335 23.381934 
L 112.674812 21.674545 
L 113.268289 27.578229 
L 113.861766 39.121227 
L 116.234793 95.681785 
L 119.794773 170.967733 
L 120.38825 179.645126 
L 120.981727 186.13279 
L 121.575204 190.705917 
L 122.168681 193.738514 
L 122.761276 195.516118 
L 123.354754 196.236312 
L 123.948231 196.106734 
L 125.135185 194.876918 
L 125.728662 194.910302 
L 126.321257 195.923099 
L 128.101688 201.316666 
L 128.695165 201.525821 
L 129.288642 200.223047 
L 129.882119 197.564437 
L 131.068191 190.008385 
L 133.442099 173.69786 
L 134.035577 170.686258 
L 135.221649 166.470299 
L 136.408603 162.770725 
L 137.00208 161.37863 
L 137.595557 161.214695 
L 138.188152 162.846235 
L 139.968583 172.875986 
L 140.56206 174.477329 
L 141.155537 174.55594 
L 141.749014 173.623992 
L 142.935087 170.699259 
L 143.528564 168.827911 
L 144.715518 163.728886 
L 145.308995 161.063946 
L 145.902472 159.180623 
L 146.495067 158.698314 
L 147.088544 159.81437 
L 148.275498 164.370348 
L 148.868975 165.124278 
L 149.462452 163.205548 
L 150.055047 158.54738 
L 151.242001 147.130924 
L 151.835479 144.154307 
L 152.428956 143.635242 
L 153.022433 144.00836 
L 153.61591 143.099716 
L 154.208505 139.566277 
L 155.988936 122.446812 
L 157.17589 115.338327 
L 157.769367 110.726464 
L 158.955439 100.315945 
L 159.548916 99.309429 
L 160.142393 103.752031 
L 160.73587 113.210159 
L 161.921943 137.165232 
L 162.51542 146.465006 
L 163.108897 152.244716 
L 163.702374 154.719375 
L 164.295851 154.907203 
L 165.482805 153.052995 
L 166.0754 152.685219 
L 166.668877 153.283827 
L 167.262354 154.929929 
L 169.636262 164.883927 
L 170.228858 166.065359 
L 170.822335 166.104731 
L 171.415812 164.435594 
L 172.009289 160.542393 
L 173.196243 147.215949 
L 173.788838 140.916356 
L 174.382315 137.697741 
L 174.975792 138.729636 
L 175.569269 143.679094 
L 177.3497 164.971854 
L 177.942295 168.820999 
L 178.535772 169.382927 
L 179.129249 165.973946 
L 179.722727 158.104189 
L 180.316204 145.936935 
L 181.502276 115.84029 
L 182.095753 103.910071 
L 182.68923 97.295316 
L 183.282707 96.17323 
L 183.876184 98.932756 
L 185.655733 111.424619 
L 186.24921 115.177663 
L 186.842687 119.802577 
L 187.436164 125.836598 
L 189.216595 146.270739 
L 189.809191 149.899072 
L 190.402668 150.420785 
L 190.996145 147.345792 
L 191.589622 140.476876 
L 192.776576 117.98506 
L 193.369171 106.681356 
L 193.962648 99.09505 
L 194.556125 96.621493 
L 195.149602 98.44145 
L 195.743079 101.984025 
L 196.336556 104.430542 
L 196.930033 103.873631 
L 197.522629 100.065055 
L 198.709583 88.573948 
L 199.30306 85.050498 
L 199.896537 84.689843 
L 200.490014 87.348246 
L 202.269563 101.512881 
L 202.86304 104.082649 
L 203.456517 104.823747 
L 204.049994 104.667642 
L 204.643471 105.066363 
L 205.236066 107.319073 
L 205.829543 111.945418 
L 208.203452 138.369445 
L 208.796929 142.196323 
L 209.389524 144.345526 
L 209.983001 145.087352 
L 210.576478 144.720698 
L 211.169955 143.515792 
L 212.950386 138.271883 
L 214.136458 135.626791 
L 214.729935 132.529571 
L 215.323412 126.07905 
L 215.916889 115.14037 
L 217.696439 66.786091 
L 218.289916 57.137801 
L 218.883393 56.417189 
L 219.47687 64.826527 
L 220.663824 97.605183 
L 221.256419 114.400982 
L 221.849896 127.983542 
L 222.443373 137.690709 
L 223.03685 143.988666 
L 223.630327 147.688653 
L 224.223804 149.612814 
L 224.817281 150.467339 
L 225.409876 150.695787 
L 226.003354 150.608787 
L 226.596831 150.182777 
L 227.190308 149.393473 
L 228.377262 147.297423 
L 228.969857 146.537892 
L 229.563334 146.122808 
L 230.156811 145.851292 
L 230.750288 145.415586 
L 231.343765 144.648116 
L 233.123314 141.679837 
L 233.716791 141.318629 
L 234.310268 141.590554 
L 235.497222 142.937132 
L 236.0907 142.86457 
L 236.684177 141.700887 
L 237.870249 137.976613 
L 238.463726 137.159676 
L 239.057203 137.708603 
L 242.617183 146.438933 
L 243.804137 150.907922 
L 245.583687 158.057381 
L 246.177164 160.033697 
L 246.770641 161.567345 
L 247.957595 163.93391 
L 248.551072 165.390778 
L 250.330621 171.142331 
L 250.924098 172.254612 
L 251.517575 172.256881 
L 252.111052 170.874291 
L 252.703647 168.142763 
L 253.890602 160.013165 
L 254.484079 155.954712 
L 255.077556 152.938811 
L 255.671033 151.360025 
L 256.26451 151.036289 
L 257.450582 151.636283 
L 258.044059 151.365286 
L 259.231013 150.082676 
L 261.010562 148.915911 
L 261.604039 147.316508 
L 262.197516 144.33051 
L 263.38447 135.19705 
L 263.977947 130.601105 
L 264.570543 127.070544 
L 265.16402 124.863102 
L 266.350974 122.09467 
L 266.944451 119.75899 
L 268.724 109.435765 
L 269.317477 108.463985 
L 269.910954 110.040173 
L 270.504431 113.934666 
L 272.877458 135.668293 
L 273.470935 138.244648 
L 274.064412 138.86697 
L 274.657889 137.97002 
L 275.844843 134.902603 
L 276.437438 134.047011 
L 277.030915 133.809821 
L 277.624392 134.061419 
L 278.217869 134.752019 
L 278.811346 135.886013 
L 279.404823 137.63251 
L 280.590895 142.465974 
L 281.777849 147.263101 
L 282.964804 151.54496 
L 283.558281 154.330737 
L 284.744353 161.730113 
L 285.931307 168.757514 
L 286.524784 171.115814 
L 287.118261 172.71055 
L 287.711738 173.736465 
L 288.304333 174.333577 
L 290.084764 175.623787 
L 290.678241 176.562234 
L 291.865195 179.498202 
L 292.457791 180.966989 
L 293.051268 181.848059 
L 293.644745 181.896195 
L 294.238222 181.014077 
L 294.831699 179.465771 
L 299.578633 164.416803 
L 300.171229 163.508203 
L 300.764706 163.425987 
L 301.358183 163.683659 
L 301.95166 163.727355 
L 302.545137 163.307259 
L 303.732091 161.996343 
L 304.324686 161.821985 
L 305.51164 162.101331 
L 306.105117 161.708335 
L 306.698594 160.619892 
L 307.292071 158.863017 
L 308.478143 154.662153 
L 309.07162 153.201216 
L 309.665097 152.722727 
L 310.258575 153.201934 
L 311.445529 155.265045 
L 312.038124 155.791186 
L 312.631601 155.706426 
L 313.225078 155.038767 
L 313.818555 153.914103 
L 315.005509 150.575893 
L 316.785058 144.980664 
L 318.565489 140.080982 
L 319.751562 136.112322 
L 320.938516 131.285187 
L 321.531993 128.792654 
L 322.12547 127.090532 
L 322.718947 127.050681 
L 323.312424 129.053702 
L 325.68545 142.86844 
L 326.278927 143.931494 
L 326.872404 143.633382 
L 327.465881 142.272855 
L 328.651954 137.682057 
L 329.245431 135.271616 
L 329.838908 133.335576 
L 330.432385 132.221554 
L 331.025862 132.176656 
L 331.618457 133.174169 
L 332.805411 136.304638 
L 333.398888 136.728574 
L 333.992365 135.260939 
L 334.585842 131.435392 
L 336.958868 109.733359 
L 337.552345 106.975394 
L 338.145822 105.547262 
L 338.7393 105.773715 
L 339.332777 108.198049 
L 339.925372 113.376169 
L 341.112326 130.131812 
L 342.29928 146.327343 
L 342.892757 151.523211 
L 343.485352 154.772717 
L 344.078829 156.679648 
L 345.265783 158.860793 
L 346.452737 161.104645 
L 347.63881 163.449331 
L 348.232287 164.368797 
L 348.825764 164.879658 
L 349.419241 164.865744 
L 350.012718 164.32353 
L 350.606195 163.136278 
L 351.199672 161.300637 
L 351.792267 158.814049 
L 352.979221 152.220274 
L 354.166175 145.208982 
L 355.352247 139.495276 
L 355.945724 137.103442 
L 356.539202 135.201787 
L 357.132679 134.443763 
L 357.726156 135.60402 
L 358.319633 139.160354 
L 358.91311 144.867567 
L 360.099182 158.354191 
L 360.692659 163.834044 
L 361.286136 167.73303 
L 361.879613 170.112291 
L 362.47309 171.393794 
L 363.066567 171.966279 
L 363.659162 172.103803 
L 364.252639 171.882926 
L 364.846116 171.421681 
L 365.439593 170.718669 
L 366.03307 169.772572 
L 366.626548 168.582143 
L 367.219143 167.025609 
L 367.81262 164.979968 
L 368.999574 159.536366 
L 370.780005 150.605177 
L 371.3726 148.680457 
L 371.966077 147.765359 
L 372.559554 147.86525 
L 373.153031 148.700814 
L 373.746508 149.990884 
L 374.339985 151.738962 
L 375.526058 156.459548 
L 376.119535 158.859281 
L 376.713012 160.731936 
L 377.306489 161.864904 
L 377.899966 162.127463 
L 378.493443 161.764783 
L 379.679515 160.114727 
L 380.272992 159.622079 
L 380.866469 159.717467 
L 381.459946 160.36227 
L 382.6469 161.831416 
L 383.239495 162.189497 
L 383.832972 162.166347 
L 384.42645 161.845195 
L 385.019927 161.181675 
L 385.613404 159.960152 
L 386.206881 157.878405 
L 386.799476 154.848146 
L 387.392953 150.738331 
L 388.579907 140.007438 
L 389.766861 128.815909 
L 390.360338 124.835249 
L 390.952933 122.904006 
L 391.54641 123.200238 
L 392.139887 125.436296 
L 393.920318 135.03884 
L 395.106391 139.368195 
L 396.293345 142.949336 
L 397.480299 145.725862 
L 398.073776 146.393212 
L 398.666371 146.442758 
L 399.259848 145.914937 
L 401.040279 143.431042 
L 403.413306 141.332772 
L 405.193737 138.719123 
L 405.787214 138.356144 
L 406.380691 138.536377 
L 406.973286 139.081509 
L 408.16024 140.863668 
L 409.347194 142.479434 
L 409.940671 143.040574 
L 410.533266 143.328757 
L 411.72022 143.540443 
L 412.313697 143.786635 
L 412.907175 144.497906 
L 413.500652 145.677123 
L 414.686724 148.705397 
L 415.280201 149.668186 
L 415.873678 149.744508 
L 416.467155 149.023448 
L 417.654109 145.881543 
L 418.840181 142.629869 
L 419.433658 141.422769 
L 420.027135 140.496291 
L 420.620612 139.804235 
L 421.214089 139.300192 
L 421.807566 138.509995 
L 422.400162 136.862058 
L 422.993639 133.782308 
L 424.77407 119.939004 
L 425.367547 117.452505 
L 425.961024 117.342655 
L 426.553619 119.478178 
L 427.147096 123.300528 
L 430.707077 151.401682 
L 431.894031 158.39332 
L 432.487508 160.926058 
L 433.080985 162.478907 
L 433.674462 163.04493 
L 434.267057 162.469352 
L 434.860534 160.796599 
L 435.454011 158.073399 
L 436.047488 154.397694 
L 438.420514 137.392119 
L 439.013991 136.078978 
L 439.607468 137.410331 
L 440.200945 141.303124 
L 441.3879 152.530679 
L 441.981377 156.847822 
L 442.573972 159.152641 
L 443.167449 159.327213 
L 443.760926 158.023683 
L 444.354403 156.155761 
L 444.94788 154.743687 
L 445.541357 154.40286 
L 446.133952 155.343272 
L 446.727429 157.520752 
L 447.914383 163.661157 
L 449.101337 169.494448 
L 449.694814 171.62298 
L 450.28741 173.133802 
L 451.474364 175.43932 
L 452.067841 176.861987 
L 453.254795 180.833914 
L 456.221298 192.166742 
L 458.594325 199.310827 
L 459.781279 202.383599 
L 460.374756 203.575654 
L 460.968233 204.39096 
L 462.154305 205.156165 
L 463.341259 206.036796 
L 464.528213 207.25418 
L 465.12169 207.590474 
L 465.714285 207.596717 
L 466.307762 207.326526 
L 468.088193 206.067815 
L 468.68167 206.072535 
L 469.275148 206.467422 
L 469.867743 207.310345 
L 472.241651 211.78084 
L 472.835128 212.415366 
L 473.428605 212.656861 
L 474.0212 212.390385 
L 474.614677 211.670266 
L 477.581181 207.130955 
L 479.361612 205.042894 
L 479.955089 204.534114 
L 481.142043 203.91437 
L 482.921592 203.123357 
L 484.108546 202.612254 
L 484.702023 202.674091 
L 485.2955 203.08401 
L 485.888095 203.727675 
L 488.262004 207.493738 
L 488.855481 208.150433 
L 489.448076 208.515946 
L 490.041553 208.412405 
L 490.63503 207.720179 
L 491.228507 206.319389 
L 491.821984 204.267102 
L 493.601533 196.787357 
L 494.19501 195.840276 
L 494.788487 196.251535 
L 495.381964 197.790472 
L 496.568918 201.718551 
L 497.162396 202.85807 
L 497.754991 203.045224 
L 498.348468 202.455049 
L 498.941945 201.324408 
L 500.128899 198.635543 
L 500.722376 197.73719 
L 501.314971 197.438224 
L 501.908448 198.041986 
L 502.501925 199.49268 
L 503.688879 204.046233 
L 504.875833 208.878247 
L 505.468429 210.667002 
L 506.061906 211.666717 
L 506.655383 211.995677 
L 507.24886 211.650773 
L 507.842337 210.690855 
L 508.435814 209.114052 
L 509.029291 207.041953 
L 509.621886 204.350791 
L 511.995794 190.772468 
L 512.589271 189.166749 
L 513.181866 189.345214 
L 513.775343 191.377131 
L 514.962298 198.940868 
L 516.149252 206.195027 
L 516.742729 208.529348 
L 517.335324 209.993524 
L 517.928801 210.770904 
L 518.522278 211.172902 
L 519.115755 211.197778 
L 519.709232 210.970249 
L 520.302709 210.426125 
L 520.896186 209.437762 
L 521.488781 207.813983 
L 522.082258 205.299959 
L 522.675735 201.894888 
L 525.048762 184.751537 
L 525.642239 182.780626 
L 526.235716 183.023083 
L 526.829193 185.361301 
L 527.42267 189.491052 
L 529.202219 204.69027 
L 529.795696 208.513768 
L 530.389173 211.18874 
L 530.98265 212.901279 
L 531.576127 213.840314 
L 532.763081 214.554682 
L 535.136108 215.996635 
L 535.729585 216.163007 
L 536.323062 215.935765 
L 536.915657 215.445024 
L 537.509134 214.492356 
L 538.696088 211.723858 
L 539.289565 210.23658 
L 539.883042 209.142556 
L 540.476519 208.707175 
L 541.069114 209.065068 
L 541.662591 210.219537 
L 542.256068 211.776199 
L 543.443023 215.905391 
L 544.629977 221.20249 
L 545.816049 226.808027 
L 546.409526 229.153851 
L 547.003003 231.0344 
L 547.59648 232.44679 
L 548.189957 233.524171 
L 549.376029 234.871368 
L 550.562983 235.474938 
L 551.15646 235.675377 
L 552.343414 235.735047 
L 555.309918 235.782271 
L 556.49599 235.842913 
L 557.682944 235.834551 
L 559.463375 235.334798 
L 561.836402 234.266743 
L 562.429879 234.260656 
L 563.023356 234.464837 
L 565.396382 235.780237 
L 566.583336 235.84253 
L 568.362885 235.688437 
L 568.956362 235.826171 
L 570.143316 236.458645 
L 571.330271 237.237189 
L 572.516343 237.733483 
L 574.296774 238.303035 
L 576.077205 238.66051 
L 577.856754 238.73107 
L 579.043708 238.80259 
L 584.976715 238.871673 
L 586.163669 238.944592 
L 615.237871 239.009671 
L 616.423943 239.087387 
L 677.538851 239.078412 
L 677.538851 239.078412 
" clip-path="url(#p2e23caf1ed)" style="fill: none; stroke: #ffa500; stroke-linecap: square"/>
   </g>
   <g id="patch_3">
    <path d="M 55.15 250.04 
L 55.15 10.8 
" style="fill: none; stroke: #000000; stroke-width: 0.8; stroke-linejoin: miter; stroke-linecap: square"/>
   </g>
   <g id="patch_4">
    <path d="M 707.176415 250.04 
L 707.176415 10.8 
" style="fill: none; stroke: #000000; stroke-width: 0.8; stroke-linejoin: miter; stroke-linecap: square"/>
   </g>
   <g id="patch_5">
    <path d="M 55.15 250.04 
L 707.176415 250.04 
" style="fill: none; stroke: #000000; stroke-width: 0.8; stroke-linejoin: miter; stroke-linecap: square"/>
   </g>
   <g id="patch_6">
    <path d="M 55.15 10.8 
L 707.176415 10.8 
" style="fill: none; stroke: #000000; stroke-width: 0.8; stroke-linejoin: miter; stroke-linecap: square"/>
   </g>
   <g id="legend_1">
    <g id="patch_7">
     <path d="M 656.338915 33.478125 
L 700.176415 33.478125 
Q 702.176415 33.478125 702.176415 31.478125 
L 702.176415 17.8 
Q 702.176415 15.8 700.176415 15.8 
L 656.338915 15.8 
Q 654.338915 15.8 654.338915 17.8 
L 654.338915 31.478125 
Q 654.338915 33.478125 656.338915 33.478125 
z
" style="fill: #ffffff; opacity: 0.8; stroke: #cccccc; stroke-linejoin: miter"/>
    </g>
    <g id="line2d_15">
     <path d="M 658.338915 23.898438 
L 668.338915 23.898438 
L 678.338915 23.898438 
" style="fill: none; stroke: #ffa500; stroke-linecap: square"/>
    </g>
    <g id="text_14">
     <!-- xx -->
     <g transform="translate(686.338915 27.398438)scale(0.1 -0.1)">
      <defs>
       <path id="DejaVuSans-78" d="M 3513 3500 
L 2247 1797 
L 3578 0 
L 2900 0 
L 1881 1375 
L 863 0 
L 184 0 
L 1544 1831 
L 300 3500 
L 978 3500 
L 1906 2253 
L 2834 3500 
L 3513 3500 
z
" transform="scale(0.015625)"/>
      </defs>
      <use xlink:href="#DejaVuSans-78"/>
      <use xlink:href="#DejaVuSans-78" x="59.179688"/>
     </g>
    </g>
   </g>
  </g>
  <g id="axes_2">
   <g id="patch_8">
    <path d="M 55.15 517.16 
L 707.176415 517.16 
L 707.176415 277.92 
L 55.15 277.92 
z
" style="fill: #ffffff"/>
   </g>
   <g id="matplotlib.axis_3">
    <g id="xtick_9">
     <g id="line2d_16">
      <g>
       <use xlink:href="#m141ceda9d1" x="84.787564" y="517.16" style="stroke: #000000; stroke-width: 0.8"/>
      </g>
     </g>
     <g id="text_15">
      <!-- 0 -->
      <g transform="translate(81.606314 531.758438)scale(0.1 -0.1)">
       <use xlink:href="#DejaVuSans-30"/>
      </g>
     </g>
    </g>
    <g id="xtick_10">
     <g id="line2d_17">
      <g>
       <use xlink:href="#m141ceda9d1" x="172.971374" y="517.16" style="stroke: #000000; stroke-width: 0.8"/>
      </g>
     </g>
     <g id="text_16">
      <!-- 10 -->
      <g transform="translate(166.608874 531.758438)scale(0.1 -0.1)">
       <use xlink:href="#DejaVuSans-31"/>
       <use xlink:href="#DejaVuSans-30" x="63.623047"/>
      </g>
     </g>
    </g>
    <g id="xtick_11">
     <g id="line2d_18">
      <g>
       <use xlink:href="#m141ceda9d1" x="261.155184" y="517.16" style="stroke: #000000; stroke-width: 0.8"/>
      </g>
     </g>
     <g id="text_17">
      <!-- 20 -->
      <g transform="translate(254.792684 531.758438)scale(0.1 -0.1)">
       <use xlink:href="#DejaVuSans-32"/>
       <use xlink:href="#DejaVuSans-30" x="63.623047"/>
      </g>
     </g>
    </g>
    <g id="xtick_12">
     <g id="line2d_19">
      <g>
       <use xlink:href="#m141ceda9d1" x="349.338993" y="517.16" style="stroke: #000000; stroke-width: 0.8"/>
      </g>
     </g>
     <g id="text_18">
      <!-- 30 -->
      <g transform="translate(342.976493 531.758438)scale(0.1 -0.1)">
       <use xlink:href="#DejaVuSans-33"/>
       <use xlink:href="#DejaVuSans-30" x="63.623047"/>
      </g>
     </g>
    </g>
    <g id="xtick_13">
     <g id="line2d_20">
      <g>
       <use xlink:href="#m141ceda9d1" x="437.522803" y="517.16" style="stroke: #000000; stroke-width: 0.8"/>
      </g>
     </g>
     <g id="text_19">
      <!-- 40 -->
      <g transform="translate(431.160303 531.758438)scale(0.1 -0.1)">
       <use xlink:href="#DejaVuSans-34"/>
       <use xlink:href="#DejaVuSans-30" x="63.623047"/>
      </g>
     </g>
    </g>
    <g id="xtick_14">
     <g id="line2d_21">
      <g>
       <use xlink:href="#m141ceda9d1" x="525.706613" y="517.16" style="stroke: #000000; stroke-width: 0.8"/>
      </g>
     </g>
     <g id="text_20">
      <!-- 50 -->
      <g transform="translate(519.344113 531.758438)scale(0.1 -0.1)">
       <use xlink:href="#DejaVuSans-35"/>
       <use xlink:href="#DejaVuSans-30" x="63.623047"/>
      </g>
     </g>
    </g>
    <g id="xtick_15">
     <g id="line2d_22">
      <g>
       <use xlink:href="#m141ceda9d1" x="613.890423" y="517.16" style="stroke: #000000; stroke-width: 0.8"/>
      </g>
     </g>
     <g id="text_21">
      <!-- 60 -->
      <g transform="translate(607.527923 531.758438)scale(0.1 -0.1)">
       <use xlink:href="#DejaVuSans-36"/>
       <use xlink:href="#DejaVuSans-30" x="63.623047"/>
      </g>
     </g>
    </g>
    <g id="xtick_16">
     <g id="line2d_23">
      <g>
       <use xlink:href="#m141ceda9d1" x="702.074232" y="517.16" style="stroke: #000000; stroke-width: 0.8"/>
      </g>
     </g>
     <g id="text_22">
      <!-- 70 -->
      <g transform="translate(695.711732 531.758438)scale(0.1 -0.1)">
       <use xlink:href="#DejaVuSans-37"/>
       <use xlink:href="#DejaVuSans-30" x="63.623047"/>
      </g>
     </g>
    </g>
   </g>
   <g id="matplotlib.axis_4">
    <g id="ytick_6">
     <g id="line2d_24">
      <g>
       <use xlink:href="#m8ced2ab0a4" x="55.15" y="506.285455" style="stroke: #000000; stroke-width: 0.8"/>
      </g>
     </g>
     <g id="text_23">
      <!-- 0 -->
      <g transform="translate(41.7875 510.084673)scale(0.1 -0.1)">
       <use xlink:href="#DejaVuSans-30"/>
      </g>
     </g>
    </g>
    <g id="ytick_7">
     <g id="line2d_25">
      <g>
       <use xlink:href="#m8ced2ab0a4" x="55.15" y="456.414753" style="stroke: #000000; stroke-width: 0.8"/>
      </g>
     </g>
     <g id="text_24">
      <!-- 1 -->
      <g transform="translate(41.7875 460.213971)scale(0.1 -0.1)">
       <use xlink:href="#DejaVuSans-31"/>
      </g>
     </g>
    </g>
    <g id="ytick_8">
     <g id="line2d_26">
      <g>
       <use xlink:href="#m8ced2ab0a4" x="55.15" y="406.544051" style="stroke: #000000; stroke-width: 0.8"/>
      </g>
     </g>
     <g id="text_25">
      <!-- 2 -->
      <g transform="translate(41.7875 410.343269)scale(0.1 -0.1)">
       <use xlink:href="#DejaVuSans-32"/>
      </g>
     </g>
    </g>
    <g id="ytick_9">
     <g id="line2d_27">
      <g>
       <use xlink:href="#m8ced2ab0a4" x="55.15" y="356.673349" style="stroke: #000000; stroke-width: 0.8"/>
      </g>
     </g>
     <g id="text_26">
      <!-- 3 -->
      <g transform="translate(41.7875 360.472567)scale(0.1 -0.1)">
       <use xlink:href="#DejaVuSans-33"/>
      </g>
     </g>
    </g>
    <g id="ytick_10">
     <g id="line2d_28">
      <g>
       <use xlink:href="#m8ced2ab0a4" x="55.15" y="306.802646" style="stroke: #000000; stroke-width: 0.8"/>
      </g>
     </g>
     <g id="text_27">
      <!-- 4 -->
      <g transform="translate(41.7875 310.601865)scale(0.1 -0.1)">
       <use xlink:href="#DejaVuSans-34"/>
      </g>
     </g>
    </g>
   </g>
   <g id="line2d_29">
    <path d="M 84.787564 506.285455 
L 85.381041 357.869228 
L 85.974518 359.17027 
L 86.567995 361.683858 
L 87.160591 365.774632 
L 87.754068 371.374738 
L 88.941022 384.658188 
L 89.534499 389.59455 
L 90.127976 391.386973 
L 90.720571 389.490185 
L 92.501002 375.982651 
L 93.094479 375.992914 
L 93.687956 379.627227 
L 94.281433 385.961958 
L 96.65446 416.072028 
L 97.247937 420.977639 
L 97.841414 424.036863 
L 98.434891 425.226518 
L 99.027486 424.712361 
L 99.620963 422.772835 
L 100.21444 419.809498 
L 102.587466 404.98415 
L 103.77442 397.789947 
L 104.367897 394.909585 
L 104.961374 393.147683 
L 105.554852 392.594986 
L 106.148329 392.609852 
L 106.740924 392.052567 
L 107.334401 389.78936 
L 107.927878 385.044527 
L 108.521355 377.272437 
L 109.114832 365.989295 
L 110.301786 333.442698 
L 111.487858 299.972345 
L 112.081335 290.501934 
L 112.674812 288.794545 
L 113.268289 294.698229 
L 113.861766 306.241227 
L 116.234793 362.801785 
L 119.794773 438.087733 
L 120.38825 446.765126 
L 120.981727 453.25279 
L 121.575204 457.825917 
L 122.168681 460.858514 
L 122.761276 462.636118 
L 123.354754 463.356312 
L 123.948231 463.226734 
L 125.135185 461.996918 
L 125.728662 462.030302 
L 126.321257 463.043099 
L 128.101688 468.436666 
L 128.695165 468.645821 
L 129.288642 467.343047 
L 129.882119 464.684437 
L 131.068191 457.128385 
L 133.442099 440.81786 
L 134.035577 437.806258 
L 135.221649 433.590299 
L 136.408603 429.890725 
L 137.00208 428.49863 
L 137.595557 428.334695 
L 138.188152 429.966235 
L 139.968583 439.995986 
L 140.56206 441.597329 
L 141.155537 441.67594 
L 141.749014 440.743992 
L 142.935087 437.819259 
L 143.528564 435.947911 
L 144.715518 430.848886 
L 145.308995 428.183946 
L 145.902472 426.300623 
L 146.495067 425.818314 
L 147.088544 426.93437 
L 148.275498 431.490348 
L 148.868975 432.244278 
L 149.462452 430.325548 
L 150.055047 425.66738 
L 151.242001 414.250924 
L 151.835479 411.274307 
L 152.428956 410.755242 
L 153.022433 411.12836 
L 153.61591 410.219716 
L 154.208505 406.686277 
L 155.988936 389.566812 
L 157.17589 382.458327 
L 157.769367 377.846464 
L 158.955439 367.435945 
L 159.548916 366.429429 
L 160.142393 370.872031 
L 160.73587 380.330159 
L 161.921943 404.285232 
L 162.51542 413.585006 
L 163.108897 419.364716 
L 163.702374 421.839375 
L 164.295851 422.027203 
L 165.482805 420.172995 
L 166.0754 419.805219 
L 166.668877 420.403827 
L 167.262354 422.049929 
L 169.636262 432.003927 
L 170.228858 433.185359 
L 170.822335 433.224731 
L 171.415812 431.555594 
L 172.009289 427.662393 
L 173.196243 414.335949 
L 173.788838 408.036356 
L 174.382315 404.817741 
L 174.975792 405.849636 
L 175.569269 410.799094 
L 177.3497 432.091854 
L 177.942295 435.940999 
L 178.535772 436.502927 
L 179.129249 433.093946 
L 179.722727 425.224189 
L 180.316204 413.056935 
L 181.502276 382.96029 
L 182.095753 371.030071 
L 182.68923 364.415316 
L 183.282707 363.29323 
L 183.876184 366.052756 
L 185.655733 378.544619 
L 186.24921 382.297663 
L 186.842687 386.922577 
L 187.436164 392.956598 
L 189.216595 413.390739 
L 189.809191 417.019072 
L 190.402668 417.540785 
L 190.996145 414.465792 
L 191.589622 407.596876 
L 192.776576 385.10506 
L 193.369171 373.801356 
L 193.962648 366.21505 
L 194.556125 363.741493 
L 195.149602 365.56145 
L 195.743079 369.104025 
L 196.336556 371.550542 
L 196.930033 370.993631 
L 197.522629 367.185055 
L 198.709583 355.693948 
L 199.30306 352.170498 
L 199.896537 351.809843 
L 200.490014 354.468246 
L 202.269563 368.632881 
L 202.86304 371.202649 
L 203.456517 371.943747 
L 204.049994 371.787642 
L 204.643471 372.186363 
L 205.236066 374.439073 
L 205.829543 379.065418 
L 208.203452 405.489445 
L 208.796929 409.316323 
L 209.389524 411.465526 
L 209.983001 412.207352 
L 210.576478 411.840698 
L 211.169955 410.635792 
L 212.950386 405.391883 
L 214.136458 402.746791 
L 214.729935 399.649571 
L 215.323412 393.19905 
L 215.916889 382.26037 
L 217.696439 333.906091 
L 218.289916 324.257801 
L 218.883393 323.537189 
L 219.47687 331.946527 
L 220.663824 364.725183 
L 221.256419 381.520982 
L 221.849896 395.103542 
L 222.443373 404.810709 
L 223.03685 411.108666 
L 223.630327 414.808653 
L 224.223804 416.732814 
L 224.817281 417.587339 
L 225.409876 417.815787 
L 226.003354 417.728787 
L 226.596831 417.302777 
L 227.190308 416.513473 
L 228.377262 414.417423 
L 228.969857 413.657892 
L 229.563334 413.242808 
L 230.156811 412.971292 
L 230.750288 412.535586 
L 231.343765 411.768116 
L 233.123314 408.799837 
L 233.716791 408.438629 
L 234.310268 408.710554 
L 235.497222 410.057132 
L 236.0907 409.98457 
L 236.684177 408.820887 
L 237.870249 405.096613 
L 238.463726 404.279676 
L 239.057203 404.828603 
L 242.617183 413.558933 
L 243.804137 418.027922 
L 245.583687 425.177381 
L 246.177164 427.153697 
L 246.770641 428.687345 
L 247.957595 431.05391 
L 248.551072 432.510778 
L 250.330621 438.262331 
L 250.924098 439.374612 
L 251.517575 439.376881 
L 252.111052 437.994291 
L 252.703647 435.262763 
L 253.890602 427.133165 
L 254.484079 423.074712 
L 255.077556 420.058811 
L 255.671033 418.480025 
L 256.26451 418.156289 
L 257.450582 418.756283 
L 258.044059 418.485286 
L 259.231013 417.202676 
L 261.010562 416.035911 
L 261.604039 414.436508 
L 262.197516 411.45051 
L 263.38447 402.31705 
L 263.977947 397.721105 
L 264.570543 394.190544 
L 265.16402 391.983102 
L 266.350974 389.21467 
L 266.944451 386.87899 
L 268.724 376.555765 
L 269.317477 375.583985 
L 269.910954 377.160173 
L 270.504431 381.054666 
L 272.877458 402.788293 
L 273.470935 405.364648 
L 274.064412 405.98697 
L 274.657889 405.09002 
L 275.844843 402.022603 
L 276.437438 401.167011 
L 277.030915 400.929821 
L 277.624392 401.181419 
L 278.217869 401.872019 
L 278.811346 403.006013 
L 279.404823 404.75251 
L 280.590895 409.585974 
L 281.777849 414.383101 
L 282.964804 418.66496 
L 283.558281 421.450737 
L 284.744353 428.850113 
L 285.931307 435.877514 
L 286.524784 438.235814 
L 287.118261 439.83055 
L 287.711738 440.856465 
L 288.304333 441.453577 
L 290.084764 442.743787 
L 290.678241 443.682234 
L 291.865195 446.618202 
L 292.457791 448.086989 
L 293.051268 448.968059 
L 293.644745 449.016195 
L 294.238222 448.134077 
L 294.831699 446.585771 
L 299.578633 431.536803 
L 300.171229 430.628203 
L 300.764706 430.545987 
L 301.358183 430.803659 
L 301.95166 430.847355 
L 302.545137 430.427259 
L 303.732091 429.116343 
L 304.324686 428.941985 
L 305.51164 429.221331 
L 306.105117 428.828335 
L 306.698594 427.739892 
L 307.292071 425.983017 
L 308.478143 421.782153 
L 309.07162 420.321216 
L 309.665097 419.842727 
L 310.258575 420.321934 
L 311.445529 422.385045 
L 312.038124 422.911186 
L 312.631601 422.826426 
L 313.225078 422.158767 
L 313.818555 421.034103 
L 315.005509 417.695893 
L 316.785058 412.100664 
L 318.565489 407.200982 
L 319.751562 403.232322 
L 320.938516 398.405187 
L 321.531993 395.912654 
L 322.12547 394.210532 
L 322.718947 394.170681 
L 323.312424 396.173702 
L 325.68545 409.98844 
L 326.278927 411.051494 
L 326.872404 410.753382 
L 327.465881 409.392855 
L 328.651954 404.802057 
L 329.245431 402.391616 
L 329.838908 400.455576 
L 330.432385 399.341554 
L 331.025862 399.296656 
L 331.618457 400.294169 
L 332.805411 403.424638 
L 333.398888 403.848574 
L 333.992365 402.380939 
L 334.585842 398.555392 
L 336.958868 376.853359 
L 337.552345 374.095394 
L 338.145822 372.667262 
L 338.7393 372.893715 
L 339.332777 375.318049 
L 339.925372 380.496169 
L 341.112326 397.251812 
L 342.29928 413.447343 
L 342.892757 418.643211 
L 343.485352 421.892717 
L 344.078829 423.799648 
L 345.265783 425.980793 
L 346.452737 428.224645 
L 347.63881 430.569331 
L 348.232287 431.488797 
L 348.825764 431.999658 
L 349.419241 431.985744 
L 350.012718 431.44353 
L 350.606195 430.256278 
L 351.199672 428.420637 
L 351.792267 425.934049 
L 352.979221 419.340274 
L 354.166175 412.328982 
L 355.352247 406.615276 
L 355.945724 404.223442 
L 356.539202 402.321787 
L 357.132679 401.563763 
L 357.726156 402.72402 
L 358.319633 406.280354 
L 358.91311 411.987567 
L 360.099182 425.474191 
L 360.692659 430.954044 
L 361.286136 434.85303 
L 361.879613 437.232291 
L 362.47309 438.513794 
L 363.066567 439.086279 
L 363.659162 439.223803 
L 364.252639 439.002926 
L 364.846116 438.541681 
L 365.439593 437.838669 
L 366.03307 436.892572 
L 366.626548 435.702143 
L 367.219143 434.145609 
L 367.81262 432.099968 
L 368.999574 426.656366 
L 370.780005 417.725177 
L 371.3726 415.800457 
L 371.966077 414.885359 
L 372.559554 414.98525 
L 373.153031 415.820814 
L 373.746508 417.110884 
L 374.339985 418.858962 
L 375.526058 423.579548 
L 376.119535 425.979281 
L 376.713012 427.851936 
L 377.306489 428.984904 
L 377.899966 429.247463 
L 378.493443 428.884783 
L 379.679515 427.234727 
L 380.272992 426.742079 
L 380.866469 426.837467 
L 381.459946 427.48227 
L 382.6469 428.951416 
L 383.239495 429.309497 
L 383.832972 429.286347 
L 384.42645 428.965195 
L 385.019927 428.301675 
L 385.613404 427.080152 
L 386.206881 424.998405 
L 386.799476 421.968146 
L 387.392953 417.858331 
L 388.579907 407.127438 
L 389.766861 395.935909 
L 390.360338 391.955249 
L 390.952933 390.024006 
L 391.54641 390.320238 
L 392.139887 392.556296 
L 393.920318 402.15884 
L 395.106391 406.488195 
L 396.293345 410.069336 
L 397.480299 412.845862 
L 398.073776 413.513212 
L 398.666371 413.562758 
L 399.259848 413.034937 
L 401.040279 410.551042 
L 403.413306 408.452772 
L 405.193737 405.839123 
L 405.787214 405.476144 
L 406.380691 405.656377 
L 406.973286 406.201509 
L 408.16024 407.983668 
L 409.347194 409.599434 
L 409.940671 410.160574 
L 410.533266 410.448757 
L 411.72022 410.660443 
L 412.313697 410.906635 
L 412.907175 411.617906 
L 413.500652 412.797123 
L 414.686724 415.825397 
L 415.280201 416.788186 
L 415.873678 416.864508 
L 416.467155 416.143448 
L 417.654109 413.001543 
L 418.840181 409.749869 
L 419.433658 408.542769 
L 420.027135 407.616291 
L 420.620612 406.924235 
L 421.214089 406.420192 
L 421.807566 405.629995 
L 422.400162 403.982058 
L 422.993639 400.902308 
L 424.77407 387.059004 
L 425.367547 384.572505 
L 425.961024 384.462655 
L 426.553619 386.598178 
L 427.147096 390.420528 
L 430.707077 418.521682 
L 431.894031 425.51332 
L 432.487508 428.046058 
L 433.080985 429.598907 
L 433.674462 430.16493 
L 434.267057 429.589352 
L 434.860534 427.916599 
L 435.454011 425.193399 
L 436.047488 421.517694 
L 438.420514 404.512119 
L 439.013991 403.198978 
L 439.607468 404.530331 
L 440.200945 408.423124 
L 441.3879 419.650679 
L 441.981377 423.967822 
L 442.573972 426.272641 
L 443.167449 426.447213 
L 443.760926 425.143683 
L 444.354403 423.275761 
L 444.94788 421.863687 
L 445.541357 421.52286 
L 446.133952 422.463272 
L 446.727429 424.640752 
L 447.914383 430.781157 
L 449.101337 436.614448 
L 449.694814 438.74298 
L 450.28741 440.253802 
L 451.474364 442.55932 
L 452.067841 443.981987 
L 453.254795 447.953914 
L 456.221298 459.286742 
L 458.594325 466.430827 
L 459.781279 469.503599 
L 460.374756 470.695654 
L 460.968233 471.51096 
L 462.154305 472.276165 
L 463.341259 473.156796 
L 464.528213 474.37418 
L 465.12169 474.710474 
L 465.714285 474.716717 
L 466.307762 474.446526 
L 468.088193 473.187815 
L 468.68167 473.192535 
L 469.275148 473.587422 
L 469.867743 474.430345 
L 472.241651 478.90084 
L 472.835128 479.535366 
L 473.428605 479.776861 
L 474.0212 479.510385 
L 474.614677 478.790266 
L 477.581181 474.250955 
L 479.361612 472.162894 
L 479.955089 471.654114 
L 481.142043 471.03437 
L 482.921592 470.243357 
L 484.108546 469.732254 
L 484.702023 469.794091 
L 485.2955 470.20401 
L 485.888095 470.847675 
L 488.262004 474.613738 
L 488.855481 475.270433 
L 489.448076 475.635946 
L 490.041553 475.532405 
L 490.63503 474.840179 
L 491.228507 473.439389 
L 491.821984 471.387102 
L 493.601533 463.907357 
L 494.19501 462.960276 
L 494.788487 463.371535 
L 495.381964 464.910472 
L 496.568918 468.838551 
L 497.162396 469.97807 
L 497.754991 470.165224 
L 498.348468 469.575049 
L 498.941945 468.444408 
L 500.128899 465.755543 
L 500.722376 464.85719 
L 501.314971 464.558224 
L 501.908448 465.161986 
L 502.501925 466.61268 
L 503.688879 471.166233 
L 504.875833 475.998247 
L 505.468429 477.787002 
L 506.061906 478.786717 
L 506.655383 479.115677 
L 507.24886 478.770773 
L 507.842337 477.810855 
L 508.435814 476.234052 
L 509.029291 474.161953 
L 509.621886 471.470791 
L 511.995794 457.892468 
L 512.589271 456.286749 
L 513.181866 456.465214 
L 513.775343 458.497131 
L 514.962298 466.060868 
L 516.149252 473.315027 
L 516.742729 475.649348 
L 517.335324 477.113524 
L 517.928801 477.890904 
L 518.522278 478.292902 
L 519.115755 478.317778 
L 519.709232 478.090249 
L 520.302709 477.546125 
L 520.896186 476.557762 
L 521.488781 474.933983 
L 522.082258 472.419959 
L 522.675735 469.014888 
L 525.048762 451.871537 
L 525.642239 449.900626 
L 526.235716 450.143083 
L 526.829193 452.481301 
L 527.42267 456.611052 
L 529.202219 471.81027 
L 529.795696 475.633768 
L 530.389173 478.30874 
L 530.98265 480.021279 
L 531.576127 480.960314 
L 532.763081 481.674682 
L 535.136108 483.116635 
L 535.729585 483.283007 
L 536.323062 483.055765 
L 536.915657 482.565024 
L 537.509134 481.612356 
L 538.696088 478.843858 
L 539.289565 477.35658 
L 539.883042 476.262556 
L 540.476519 475.827175 
L 541.069114 476.185068 
L 541.662591 477.339537 
L 542.256068 478.896199 
L 543.443023 483.025391 
L 544.629977 488.32249 
L 545.816049 493.928027 
L 546.409526 496.273851 
L 547.003003 498.1544 
L 547.59648 499.56679 
L 548.189957 500.644171 
L 549.376029 501.991368 
L 550.562983 502.594938 
L 551.15646 502.795377 
L 552.343414 502.855047 
L 555.309918 502.902271 
L 556.49599 502.962913 
L 557.682944 502.954551 
L 559.463375 502.454798 
L 561.836402 501.386743 
L 562.429879 501.380656 
L 563.023356 501.584837 
L 565.396382 502.900237 
L 566.583336 502.96253 
L 568.362885 502.808437 
L 568.956362 502.946171 
L 570.143316 503.578645 
L 571.330271 504.357189 
L 572.516343 504.853483 
L 574.296774 505.423035 
L 576.077205 505.78051 
L 577.856754 505.85107 
L 579.043708 505.92259 
L 584.976715 505.991673 
L 586.163669 506.064592 
L 615.237871 506.129671 
L 616.423943 506.207387 
L 677.538851 506.198412 
L 677.538851 506.198412 
" clip-path="url(#p05a8b1f900)" style="fill: none; stroke: #0000ff; stroke-linecap: square"/>
   </g>
   <g id="patch_9">
    <path d="M 55.15 517.16 
L 55.15 277.92 
" style="fill: none; stroke: #000000; stroke-width: 0.8; stroke-linejoin: miter; stroke-linecap: square"/>
   </g>
   <g id="patch_10">
    <path d="M 707.176415 517.16 
L 707.176415 277.92 
" style="fill: none; stroke: #000000; stroke-width: 0.8; stroke-linejoin: miter; stroke-linecap: square"/>
   </g>
   <g id="patch_11">
    <path d="M 55.15 517.16 
L 707.176415 517.16 
" style="fill: none; stroke: #000000; stroke-width: 0.8; stroke-linejoin: miter; stroke-linecap: square"/>
   </g>
   <g id="patch_12">
    <path d="M 55.15 277.92 
L 707.176415 277.92 
" style="fill: none; stroke: #000000; stroke-width: 0.8; stroke-linejoin: miter; stroke-linecap: square"/>
   </g>
   <g id="legend_2">
    <g id="patch_13">
     <path d="M 656.338915 300.598125 
L 700.176415 300.598125 
Q 702.176415 300.598125 702.176415 298.598125 
L 702.176415 284.92 
Q 702.176415 282.92 700.176415 282.92 
L 656.338915 282.92 
Q 654.338915 282.92 654.338915 284.92 
L 654.338915 298.598125 
Q 654.338915 300.598125 656.338915 300.598125 
z
" style="fill: #ffffff; opacity: 0.8; stroke: #cccccc; stroke-linejoin: miter"/>
    </g>
    <g id="line2d_30">
     <path d="M 658.338915 291.018438 
L 668.338915 291.018438 
L 678.338915 291.018438 
" style="fill: none; stroke: #0000ff; stroke-linecap: square"/>
    </g>
    <g id="text_28">
     <!-- yy -->
     <g transform="translate(686.338915 294.518438)scale(0.1 -0.1)">
      <defs>
       <path id="DejaVuSans-79" d="M 2059 -325 
Q 1816 -950 1584 -1140 
Q 1353 -1331 966 -1331 
L 506 -1331 
L 506 -850 
L 844 -850 
Q 1081 -850 1212 -737 
Q 1344 -625 1503 -206 
L 1606 56 
L 191 3500 
L 800 3500 
L 1894 763 
L 2988 3500 
L 3597 3500 
L 2059 -325 
z
" transform="scale(0.015625)"/>
      </defs>
      <use xlink:href="#DejaVuSans-79"/>
      <use xlink:href="#DejaVuSans-79" x="59.179688"/>
     </g>
    </g>
   </g>
  </g>
  <g id="text_29">
   <!-- Absoption (cm^-1) -->
   <g transform="translate(29.596875 382.590625)rotate(-90)scale(0.2 -0.2)">
    <defs>
     <path id="DejaVuSans-41" d="M 2188 4044 
L 1331 1722 
L 3047 1722 
L 2188 4044 
z
M 1831 4666 
L 2547 4666 
L 4325 0 
L 3669 0 
L 3244 1197 
L 1141 1197 
L 716 0 
L 50 0 
L 1831 4666 
z
" transform="scale(0.015625)"/>
     <path id="DejaVuSans-62" d="M 3116 1747 
Q 3116 2381 2855 2742 
Q 2594 3103 2138 3103 
Q 1681 3103 1420 2742 
Q 1159 2381 1159 1747 
Q 1159 1113 1420 752 
Q 1681 391 2138 391 
Q 2594 391 2855 752 
Q 3116 1113 3116 1747 
z
M 1159 2969 
Q 1341 3281 1617 3432 
Q 1894 3584 2278 3584 
Q 2916 3584 3314 3078 
Q 3713 2572 3713 1747 
Q 3713 922 3314 415 
Q 2916 -91 2278 -91 
Q 1894 -91 1617 61 
Q 1341 213 1159 525 
L 1159 0 
L 581 0 
L 581 4863 
L 1159 4863 
L 1159 2969 
z
" transform="scale(0.015625)"/>
     <path id="DejaVuSans-73" d="M 2834 3397 
L 2834 2853 
Q 2591 2978 2328 3040 
Q 2066 3103 1784 3103 
Q 1356 3103 1142 2972 
Q 928 2841 928 2578 
Q 928 2378 1081 2264 
Q 1234 2150 1697 2047 
L 1894 2003 
Q 2506 1872 2764 1633 
Q 3022 1394 3022 966 
Q 3022 478 2636 193 
Q 2250 -91 1575 -91 
Q 1294 -91 989 -36 
Q 684 19 347 128 
L 347 722 
Q 666 556 975 473 
Q 1284 391 1588 391 
Q 1994 391 2212 530 
Q 2431 669 2431 922 
Q 2431 1156 2273 1281 
Q 2116 1406 1581 1522 
L 1381 1569 
Q 847 1681 609 1914 
Q 372 2147 372 2553 
Q 372 3047 722 3315 
Q 1072 3584 1716 3584 
Q 2034 3584 2315 3537 
Q 2597 3491 2834 3397 
z
" transform="scale(0.015625)"/>
     <path id="DejaVuSans-6f" d="M 1959 3097 
Q 1497 3097 1228 2736 
Q 959 2375 959 1747 
Q 959 1119 1226 758 
Q 1494 397 1959 397 
Q 2419 397 2687 759 
Q 2956 1122 2956 1747 
Q 2956 2369 2687 2733 
Q 2419 3097 1959 3097 
z
M 1959 3584 
Q 2709 3584 3137 3096 
Q 3566 2609 3566 1747 
Q 3566 888 3137 398 
Q 2709 -91 1959 -91 
Q 1206 -91 779 398 
Q 353 888 353 1747 
Q 353 2609 779 3096 
Q 1206 3584 1959 3584 
z
" transform="scale(0.015625)"/>
     <path id="DejaVuSans-70" d="M 1159 525 
L 1159 -1331 
L 581 -1331 
L 581 3500 
L 1159 3500 
L 1159 2969 
Q 1341 3281 1617 3432 
Q 1894 3584 2278 3584 
Q 2916 3584 3314 3078 
Q 3713 2572 3713 1747 
Q 3713 922 3314 415 
Q 2916 -91 2278 -91 
Q 1894 -91 1617 61 
Q 1341 213 1159 525 
z
M 3116 1747 
Q 3116 2381 2855 2742 
Q 2594 3103 2138 3103 
Q 1681 3103 1420 2742 
Q 1159 2381 1159 1747 
Q 1159 1113 1420 752 
Q 1681 391 2138 391 
Q 2594 391 2855 752 
Q 3116 1113 3116 1747 
z
" transform="scale(0.015625)"/>
     <path id="DejaVuSans-74" d="M 1172 4494 
L 1172 3500 
L 2356 3500 
L 2356 3053 
L 1172 3053 
L 1172 1153 
Q 1172 725 1289 603 
Q 1406 481 1766 481 
L 2356 481 
L 2356 0 
L 1766 0 
Q 1100 0 847 248 
Q 594 497 594 1153 
L 594 3053 
L 172 3053 
L 172 3500 
L 594 3500 
L 594 4494 
L 1172 4494 
z
" transform="scale(0.015625)"/>
     <path id="DejaVuSans-69" d="M 603 3500 
L 1178 3500 
L 1178 0 
L 603 0 
L 603 3500 
z
M 603 4863 
L 1178 4863 
L 1178 4134 
L 603 4134 
L 603 4863 
z
" transform="scale(0.015625)"/>
     <path id="DejaVuSans-6e" d="M 3513 2113 
L 3513 0 
L 2938 0 
L 2938 2094 
Q 2938 2591 2744 2837 
Q 2550 3084 2163 3084 
Q 1697 3084 1428 2787 
Q 1159 2491 1159 1978 
L 1159 0 
L 581 0 
L 581 3500 
L 1159 3500 
L 1159 2956 
Q 1366 3272 1645 3428 
Q 1925 3584 2291 3584 
Q 2894 3584 3203 3211 
Q 3513 2838 3513 2113 
z
" transform="scale(0.015625)"/>
     <path id="DejaVuSans-20" transform="scale(0.015625)"/>
     <path id="DejaVuSans-28" d="M 1984 4856 
Q 1566 4138 1362 3434 
Q 1159 2731 1159 2009 
Q 1159 1288 1364 580 
Q 1569 -128 1984 -844 
L 1484 -844 
Q 1016 -109 783 600 
Q 550 1309 550 2009 
Q 550 2706 781 3412 
Q 1013 4119 1484 4856 
L 1984 4856 
z
" transform="scale(0.015625)"/>
     <path id="DejaVuSans-63" d="M 3122 3366 
L 3122 2828 
Q 2878 2963 2633 3030 
Q 2388 3097 2138 3097 
Q 1578 3097 1268 2742 
Q 959 2388 959 1747 
Q 959 1106 1268 751 
Q 1578 397 2138 397 
Q 2388 397 2633 464 
Q 2878 531 3122 666 
L 3122 134 
Q 2881 22 2623 -34 
Q 2366 -91 2075 -91 
Q 1284 -91 818 406 
Q 353 903 353 1747 
Q 353 2603 823 3093 
Q 1294 3584 2113 3584 
Q 2378 3584 2631 3529 
Q 2884 3475 3122 3366 
z
" transform="scale(0.015625)"/>
     <path id="DejaVuSans-6d" d="M 3328 2828 
Q 3544 3216 3844 3400 
Q 4144 3584 4550 3584 
Q 5097 3584 5394 3201 
Q 5691 2819 5691 2113 
L 5691 0 
L 5113 0 
L 5113 2094 
Q 5113 2597 4934 2840 
Q 4756 3084 4391 3084 
Q 3944 3084 3684 2787 
Q 3425 2491 3425 1978 
L 3425 0 
L 2847 0 
L 2847 2094 
Q 2847 2600 2669 2842 
Q 2491 3084 2119 3084 
Q 1678 3084 1418 2786 
Q 1159 2488 1159 1978 
L 1159 0 
L 581 0 
L 581 3500 
L 1159 3500 
L 1159 2956 
Q 1356 3278 1631 3431 
Q 1906 3584 2284 3584 
Q 2666 3584 2933 3390 
Q 3200 3197 3328 2828 
z
" transform="scale(0.015625)"/>
     <path id="DejaVuSans-5e" d="M 2988 4666 
L 4684 2925 
L 4056 2925 
L 2681 4159 
L 1306 2925 
L 678 2925 
L 2375 4666 
L 2988 4666 
z
" transform="scale(0.015625)"/>
     <path id="DejaVuSans-2d" d="M 313 2009 
L 1997 2009 
L 1997 1497 
L 313 1497 
L 313 2009 
z
" transform="scale(0.015625)"/>
     <path id="DejaVuSans-29" d="M 513 4856 
L 1013 4856 
Q 1481 4119 1714 3412 
Q 1947 2706 1947 2009 
Q 1947 1309 1714 600 
Q 1481 -109 1013 -844 
L 513 -844 
Q 928 -128 1133 580 
Q 1338 1288 1338 2009 
Q 1338 2731 1133 3434 
Q 928 4138 513 4856 
z
" transform="scale(0.015625)"/>
    </defs>
    <use xlink:href="#DejaVuSans-41"/>
    <use xlink:href="#DejaVuSans-62" x="68.408203"/>
    <use xlink:href="#DejaVuSans-73" x="131.884766"/>
    <use xlink:href="#DejaVuSans-6f" x="183.984375"/>
    <use xlink:href="#DejaVuSans-70" x="245.166016"/>
    <use xlink:href="#DejaVuSans-74" x="308.642578"/>
    <use xlink:href="#DejaVuSans-69" x="347.851562"/>
    <use xlink:href="#DejaVuSans-6f" x="375.634766"/>
    <use xlink:href="#DejaVuSans-6e" x="436.816406"/>
    <use xlink:href="#DejaVuSans-20" x="500.195312"/>
    <use xlink:href="#DejaVuSans-28" x="531.982422"/>
    <use xlink:href="#DejaVuSans-63" x="570.996094"/>
    <use xlink:href="#DejaVuSans-6d" x="625.976562"/>
    <use xlink:href="#DejaVuSans-5e" x="723.388672"/>
    <use xlink:href="#DejaVuSans-2d" x="807.177734"/>
    <use xlink:href="#DejaVuSans-31" x="843.261719"/>
    <use xlink:href="#DejaVuSans-29" x="906.884766"/>
   </g>
  </g>
  <g id="text_30">
   <!-- Energy (eV) -->
   <g transform="translate(301.0125 566.080625)scale(0.2 -0.2)">
    <defs>
     <path id="DejaVuSans-45" d="M 628 4666 
L 3578 4666 
L 3578 4134 
L 1259 4134 
L 1259 2753 
L 3481 2753 
L 3481 2222 
L 1259 2222 
L 1259 531 
L 3634 531 
L 3634 0 
L 628 0 
L 628 4666 
z
" transform="scale(0.015625)"/>
     <path id="DejaVuSans-65" d="M 3597 1894 
L 3597 1613 
L 953 1613 
Q 991 1019 1311 708 
Q 1631 397 2203 397 
Q 2534 397 2845 478 
Q 3156 559 3463 722 
L 3463 178 
Q 3153 47 2828 -22 
Q 2503 -91 2169 -91 
Q 1331 -91 842 396 
Q 353 884 353 1716 
Q 353 2575 817 3079 
Q 1281 3584 2069 3584 
Q 2775 3584 3186 3129 
Q 3597 2675 3597 1894 
z
M 3022 2063 
Q 3016 2534 2758 2815 
Q 2500 3097 2075 3097 
Q 1594 3097 1305 2825 
Q 1016 2553 972 2059 
L 3022 2063 
z
" transform="scale(0.015625)"/>
     <path id="DejaVuSans-72" d="M 2631 2963 
Q 2534 3019 2420 3045 
Q 2306 3072 2169 3072 
Q 1681 3072 1420 2755 
Q 1159 2438 1159 1844 
L 1159 0 
L 581 0 
L 581 3500 
L 1159 3500 
L 1159 2956 
Q 1341 3275 1631 3429 
Q 1922 3584 2338 3584 
Q 2397 3584 2469 3576 
Q 2541 3569 2628 3553 
L 2631 2963 
z
" transform="scale(0.015625)"/>
     <path id="DejaVuSans-67" d="M 2906 1791 
Q 2906 2416 2648 2759 
Q 2391 3103 1925 3103 
Q 1463 3103 1205 2759 
Q 947 2416 947 1791 
Q 947 1169 1205 825 
Q 1463 481 1925 481 
Q 2391 481 2648 825 
Q 2906 1169 2906 1791 
z
M 3481 434 
Q 3481 -459 3084 -895 
Q 2688 -1331 1869 -1331 
Q 1566 -1331 1297 -1286 
Q 1028 -1241 775 -1147 
L 775 -588 
Q 1028 -725 1275 -790 
Q 1522 -856 1778 -856 
Q 2344 -856 2625 -561 
Q 2906 -266 2906 331 
L 2906 616 
Q 2728 306 2450 153 
Q 2172 0 1784 0 
Q 1141 0 747 490 
Q 353 981 353 1791 
Q 353 2603 747 3093 
Q 1141 3584 1784 3584 
Q 2172 3584 2450 3431 
Q 2728 3278 2906 2969 
L 2906 3500 
L 3481 3500 
L 3481 434 
z
" transform="scale(0.015625)"/>
     <path id="DejaVuSans-56" d="M 1831 0 
L 50 4666 
L 709 4666 
L 2188 738 
L 3669 4666 
L 4325 4666 
L 2547 0 
L 1831 0 
z
" transform="scale(0.015625)"/>
    </defs>
    <use xlink:href="#DejaVuSans-45"/>
    <use xlink:href="#DejaVuSans-6e" x="63.183594"/>
    <use xlink:href="#DejaVuSans-65" x="126.5625"/>
    <use xlink:href="#DejaVuSans-72" x="188.085938"/>
    <use xlink:href="#DejaVuSans-67" x="227.449219"/>
    <use xlink:href="#DejaVuSans-79" x="290.925781"/>
    <use xlink:href="#DejaVuSans-20" x="350.105469"/>
    <use xlink:href="#DejaVuSans-28" x="381.892578"/>
    <use xlink:href="#DejaVuSans-65" x="420.90625"/>
    <use xlink:href="#DejaVuSans-56" x="482.429688"/>
    <use xlink:href="#DejaVuSans-29" x="550.837891"/>
   </g>
  </g>
 </g>
 <defs>
  <clipPath id="p2e23caf1ed">
   <rect x="55.15" y="10.8" width="652.026415" height="239.24"/>
  </clipPath>
  <clipPath id="p05a8b1f900">
   <rect x="55.15" y="277.92" width="652.026415" height="239.24"/>
  </clipPath>
 </defs>
</svg>
