<?xml version="1.0" encoding="utf-8" standalone="no"?>
<!DOCTYPE svg PUBLIC "-//W3C//DTD SVG 1.1//EN"
  "http://www.w3.org/Graphics/SVG/1.1/DTD/svg11.dtd">
<svg xmlns:xlink="http://www.w3.org/1999/xlink" width="720pt" height="576pt" viewBox="0 0 720 576" xmlns="http://www.w3.org/2000/svg" version="1.1">
 <metadata>
  <rdf:RDF xmlns:dc="http://purl.org/dc/elements/1.1/" xmlns:cc="http://creativecommons.org/ns#" xmlns:rdf="http://www.w3.org/1999/02/22-rdf-syntax-ns#">
   <cc:Work>
    <dc:type rdf:resource="http://purl.org/dc/dcmitype/StillImage"/>
    <dc:date>2022-03-11T21:11:56.111289</dc:date>
    <dc:format>image/svg+xml</dc:format>
    <dc:creator>
     <cc:Agent>
      <dc:title>Matplotlib v3.5.1, https://matplotlib.org/</dc:title>
     </cc:Agent>
    </dc:creator>
   </cc:Work>
  </rdf:RDF>
 </metadata>
 <defs>
  <style type="text/css">*{stroke-linejoin: round; stroke-linecap: butt}</style>
 </defs>
 <g id="figure_1">
  <g id="patch_1">
   <path d="M 0 576 
L 720 576 
L 720 0 
L 0 0 
z
" style="fill: #ffffff"/>
  </g>
  <g id="axes_1">
   <g id="patch_2">
    <path d="M 54.61 270.56 
L 353.254734 270.56 
L 353.254734 41.76 
L 54.61 41.76 
z
" style="fill: #ffffff"/>
   </g>
   <g id="matplotlib.axis_1">
    <g id="xtick_1">
     <g id="line2d_1">
      <defs>
       <path id="m10aa0b29d6" d="M 0 0 
L 0 3.5 
" style="stroke: #000000; stroke-width: 0.8"/>
      </defs>
      <g>
       <use xlink:href="#m10aa0b29d6" x="68.184761" y="270.56" style="stroke: #000000; stroke-width: 0.8"/>
      </g>
     </g>
     <g id="text_1">
      <!-- 0 -->
      <g transform="translate(65.003511 285.158437)scale(0.1 -0.1)">
       <defs>
        <path id="DejaVuSans-30" d="M 2034 4250 
Q 1547 4250 1301 3770 
Q 1056 3291 1056 2328 
Q 1056 1369 1301 889 
Q 1547 409 2034 409 
Q 2525 409 2770 889 
Q 3016 1369 3016 2328 
Q 3016 3291 2770 3770 
Q 2525 4250 2034 4250 
z
M 2034 4750 
Q 2819 4750 3233 4129 
Q 3647 3509 3647 2328 
Q 3647 1150 3233 529 
Q 2819 -91 2034 -91 
Q 1250 -91 836 529 
Q 422 1150 422 2328 
Q 422 3509 836 4129 
Q 1250 4750 2034 4750 
z
" transform="scale(0.015625)"/>
       </defs>
       <use xlink:href="#DejaVuSans-30"/>
      </g>
     </g>
    </g>
    <g id="xtick_2">
     <g id="line2d_2">
      <g>
       <use xlink:href="#m10aa0b29d6" x="108.575195" y="270.56" style="stroke: #000000; stroke-width: 0.8"/>
      </g>
     </g>
     <g id="text_2">
      <!-- 10 -->
      <g transform="translate(102.212695 285.158437)scale(0.1 -0.1)">
       <defs>
        <path id="DejaVuSans-31" d="M 794 531 
L 1825 531 
L 1825 4091 
L 703 3866 
L 703 4441 
L 1819 4666 
L 2450 4666 
L 2450 531 
L 3481 531 
L 3481 0 
L 794 0 
L 794 531 
z
" transform="scale(0.015625)"/>
       </defs>
       <use xlink:href="#DejaVuSans-31"/>
       <use xlink:href="#DejaVuSans-30" x="63.623047"/>
      </g>
     </g>
    </g>
    <g id="xtick_3">
     <g id="line2d_3">
      <g>
       <use xlink:href="#m10aa0b29d6" x="148.96563" y="270.56" style="stroke: #000000; stroke-width: 0.8"/>
      </g>
     </g>
     <g id="text_3">
      <!-- 20 -->
      <g transform="translate(142.60313 285.158437)scale(0.1 -0.1)">
       <defs>
        <path id="DejaVuSans-32" d="M 1228 531 
L 3431 531 
L 3431 0 
L 469 0 
L 469 531 
Q 828 903 1448 1529 
Q 2069 2156 2228 2338 
Q 2531 2678 2651 2914 
Q 2772 3150 2772 3378 
Q 2772 3750 2511 3984 
Q 2250 4219 1831 4219 
Q 1534 4219 1204 4116 
Q 875 4013 500 3803 
L 500 4441 
Q 881 4594 1212 4672 
Q 1544 4750 1819 4750 
Q 2544 4750 2975 4387 
Q 3406 4025 3406 3419 
Q 3406 3131 3298 2873 
Q 3191 2616 2906 2266 
Q 2828 2175 2409 1742 
Q 1991 1309 1228 531 
z
" transform="scale(0.015625)"/>
       </defs>
       <use xlink:href="#DejaVuSans-32"/>
       <use xlink:href="#DejaVuSans-30" x="63.623047"/>
      </g>
     </g>
    </g>
    <g id="xtick_4">
     <g id="line2d_4">
      <g>
       <use xlink:href="#m10aa0b29d6" x="189.356065" y="270.56" style="stroke: #000000; stroke-width: 0.8"/>
      </g>
     </g>
     <g id="text_4">
      <!-- 30 -->
      <g transform="translate(182.993565 285.158437)scale(0.1 -0.1)">
       <defs>
        <path id="DejaVuSans-33" d="M 2597 2516 
Q 3050 2419 3304 2112 
Q 3559 1806 3559 1356 
Q 3559 666 3084 287 
Q 2609 -91 1734 -91 
Q 1441 -91 1130 -33 
Q 819 25 488 141 
L 488 750 
Q 750 597 1062 519 
Q 1375 441 1716 441 
Q 2309 441 2620 675 
Q 2931 909 2931 1356 
Q 2931 1769 2642 2001 
Q 2353 2234 1838 2234 
L 1294 2234 
L 1294 2753 
L 1863 2753 
Q 2328 2753 2575 2939 
Q 2822 3125 2822 3475 
Q 2822 3834 2567 4026 
Q 2313 4219 1838 4219 
Q 1578 4219 1281 4162 
Q 984 4106 628 3988 
L 628 4550 
Q 988 4650 1302 4700 
Q 1616 4750 1894 4750 
Q 2613 4750 3031 4423 
Q 3450 4097 3450 3541 
Q 3450 3153 3228 2886 
Q 3006 2619 2597 2516 
z
" transform="scale(0.015625)"/>
       </defs>
       <use xlink:href="#DejaVuSans-33"/>
       <use xlink:href="#DejaVuSans-30" x="63.623047"/>
      </g>
     </g>
    </g>
    <g id="xtick_5">
     <g id="line2d_5">
      <g>
       <use xlink:href="#m10aa0b29d6" x="229.7465" y="270.56" style="stroke: #000000; stroke-width: 0.8"/>
      </g>
     </g>
     <g id="text_5">
      <!-- 40 -->
      <g transform="translate(223.384 285.158437)scale(0.1 -0.1)">
       <defs>
        <path id="DejaVuSans-34" d="M 2419 4116 
L 825 1625 
L 2419 1625 
L 2419 4116 
z
M 2253 4666 
L 3047 4666 
L 3047 1625 
L 3713 1625 
L 3713 1100 
L 3047 1100 
L 3047 0 
L 2419 0 
L 2419 1100 
L 313 1100 
L 313 1709 
L 2253 4666 
z
" transform="scale(0.015625)"/>
       </defs>
       <use xlink:href="#DejaVuSans-34"/>
       <use xlink:href="#DejaVuSans-30" x="63.623047"/>
      </g>
     </g>
    </g>
    <g id="xtick_6">
     <g id="line2d_6">
      <g>
       <use xlink:href="#m10aa0b29d6" x="270.136935" y="270.56" style="stroke: #000000; stroke-width: 0.8"/>
      </g>
     </g>
     <g id="text_6">
      <!-- 50 -->
      <g transform="translate(263.774435 285.158437)scale(0.1 -0.1)">
       <defs>
        <path id="DejaVuSans-35" d="M 691 4666 
L 3169 4666 
L 3169 4134 
L 1269 4134 
L 1269 2991 
Q 1406 3038 1543 3061 
Q 1681 3084 1819 3084 
Q 2600 3084 3056 2656 
Q 3513 2228 3513 1497 
Q 3513 744 3044 326 
Q 2575 -91 1722 -91 
Q 1428 -91 1123 -41 
Q 819 9 494 109 
L 494 744 
Q 775 591 1075 516 
Q 1375 441 1709 441 
Q 2250 441 2565 725 
Q 2881 1009 2881 1497 
Q 2881 1984 2565 2268 
Q 2250 2553 1709 2553 
Q 1456 2553 1204 2497 
Q 953 2441 691 2322 
L 691 4666 
z
" transform="scale(0.015625)"/>
       </defs>
       <use xlink:href="#DejaVuSans-35"/>
       <use xlink:href="#DejaVuSans-30" x="63.623047"/>
      </g>
     </g>
    </g>
    <g id="xtick_7">
     <g id="line2d_7">
      <g>
       <use xlink:href="#m10aa0b29d6" x="310.527369" y="270.56" style="stroke: #000000; stroke-width: 0.8"/>
      </g>
     </g>
     <g id="text_7">
      <!-- 60 -->
      <g transform="translate(304.164869 285.158437)scale(0.1 -0.1)">
       <defs>
        <path id="DejaVuSans-36" d="M 2113 2584 
Q 1688 2584 1439 2293 
Q 1191 2003 1191 1497 
Q 1191 994 1439 701 
Q 1688 409 2113 409 
Q 2538 409 2786 701 
Q 3034 994 3034 1497 
Q 3034 2003 2786 2293 
Q 2538 2584 2113 2584 
z
M 3366 4563 
L 3366 3988 
Q 3128 4100 2886 4159 
Q 2644 4219 2406 4219 
Q 1781 4219 1451 3797 
Q 1122 3375 1075 2522 
Q 1259 2794 1537 2939 
Q 1816 3084 2150 3084 
Q 2853 3084 3261 2657 
Q 3669 2231 3669 1497 
Q 3669 778 3244 343 
Q 2819 -91 2113 -91 
Q 1303 -91 875 529 
Q 447 1150 447 2328 
Q 447 3434 972 4092 
Q 1497 4750 2381 4750 
Q 2619 4750 2861 4703 
Q 3103 4656 3366 4563 
z
" transform="scale(0.015625)"/>
       </defs>
       <use xlink:href="#DejaVuSans-36"/>
       <use xlink:href="#DejaVuSans-30" x="63.623047"/>
      </g>
     </g>
    </g>
    <g id="xtick_8">
     <g id="line2d_8">
      <g>
       <use xlink:href="#m10aa0b29d6" x="350.917804" y="270.56" style="stroke: #000000; stroke-width: 0.8"/>
      </g>
     </g>
     <g id="text_8">
      <!-- 70 -->
      <g transform="translate(344.555304 285.158437)scale(0.1 -0.1)">
       <defs>
        <path id="DejaVuSans-37" d="M 525 4666 
L 3525 4666 
L 3525 4397 
L 1831 0 
L 1172 0 
L 2766 4134 
L 525 4134 
L 525 4666 
z
" transform="scale(0.015625)"/>
       </defs>
       <use xlink:href="#DejaVuSans-37"/>
       <use xlink:href="#DejaVuSans-30" x="63.623047"/>
      </g>
     </g>
    </g>
   </g>
   <g id="matplotlib.axis_2">
    <g id="ytick_1">
     <g id="line2d_9">
      <defs>
       <path id="mebd2ccd01e" d="M 0 0 
L -3.5 0 
" style="stroke: #000000; stroke-width: 0.8"/>
      </defs>
      <g>
       <use xlink:href="#mebd2ccd01e" x="54.61" y="260.177817" style="stroke: #000000; stroke-width: 0.8"/>
      </g>
     </g>
     <g id="text_9">
      <!-- 0.0 -->
      <g transform="translate(31.706875 263.977036)scale(0.1 -0.1)">
       <defs>
        <path id="DejaVuSans-2e" d="M 684 794 
L 1344 794 
L 1344 0 
L 684 0 
L 684 794 
z
" transform="scale(0.015625)"/>
       </defs>
       <use xlink:href="#DejaVuSans-30"/>
       <use xlink:href="#DejaVuSans-2e" x="63.623047"/>
       <use xlink:href="#DejaVuSans-30" x="95.410156"/>
      </g>
     </g>
    </g>
    <g id="ytick_2">
     <g id="line2d_10">
      <g>
       <use xlink:href="#mebd2ccd01e" x="54.61" y="228.698592" style="stroke: #000000; stroke-width: 0.8"/>
      </g>
     </g>
     <g id="text_10">
      <!-- 0.2 -->
      <g transform="translate(31.706875 232.497811)scale(0.1 -0.1)">
       <use xlink:href="#DejaVuSans-30"/>
       <use xlink:href="#DejaVuSans-2e" x="63.623047"/>
       <use xlink:href="#DejaVuSans-32" x="95.410156"/>
      </g>
     </g>
    </g>
    <g id="ytick_3">
     <g id="line2d_11">
      <g>
       <use xlink:href="#mebd2ccd01e" x="54.61" y="197.219368" style="stroke: #000000; stroke-width: 0.8"/>
      </g>
     </g>
     <g id="text_11">
      <!-- 0.4 -->
      <g transform="translate(31.706875 201.018586)scale(0.1 -0.1)">
       <use xlink:href="#DejaVuSans-30"/>
       <use xlink:href="#DejaVuSans-2e" x="63.623047"/>
       <use xlink:href="#DejaVuSans-34" x="95.410156"/>
      </g>
     </g>
    </g>
    <g id="ytick_4">
     <g id="line2d_12">
      <g>
       <use xlink:href="#mebd2ccd01e" x="54.61" y="165.740143" style="stroke: #000000; stroke-width: 0.8"/>
      </g>
     </g>
     <g id="text_12">
      <!-- 0.6 -->
      <g transform="translate(31.706875 169.539362)scale(0.1 -0.1)">
       <use xlink:href="#DejaVuSans-30"/>
       <use xlink:href="#DejaVuSans-2e" x="63.623047"/>
       <use xlink:href="#DejaVuSans-36" x="95.410156"/>
      </g>
     </g>
    </g>
    <g id="ytick_5">
     <g id="line2d_13">
      <g>
       <use xlink:href="#mebd2ccd01e" x="54.61" y="134.260918" style="stroke: #000000; stroke-width: 0.8"/>
      </g>
     </g>
     <g id="text_13">
      <!-- 0.8 -->
      <g transform="translate(31.706875 138.060137)scale(0.1 -0.1)">
       <defs>
        <path id="DejaVuSans-38" d="M 2034 2216 
Q 1584 2216 1326 1975 
Q 1069 1734 1069 1313 
Q 1069 891 1326 650 
Q 1584 409 2034 409 
Q 2484 409 2743 651 
Q 3003 894 3003 1313 
Q 3003 1734 2745 1975 
Q 2488 2216 2034 2216 
z
M 1403 2484 
Q 997 2584 770 2862 
Q 544 3141 544 3541 
Q 544 4100 942 4425 
Q 1341 4750 2034 4750 
Q 2731 4750 3128 4425 
Q 3525 4100 3525 3541 
Q 3525 3141 3298 2862 
Q 3072 2584 2669 2484 
Q 3125 2378 3379 2068 
Q 3634 1759 3634 1313 
Q 3634 634 3220 271 
Q 2806 -91 2034 -91 
Q 1263 -91 848 271 
Q 434 634 434 1313 
Q 434 1759 690 2068 
Q 947 2378 1403 2484 
z
M 1172 3481 
Q 1172 3119 1398 2916 
Q 1625 2713 2034 2713 
Q 2441 2713 2670 2916 
Q 2900 3119 2900 3481 
Q 2900 3844 2670 4047 
Q 2441 4250 2034 4250 
Q 1625 4250 1398 4047 
Q 1172 3844 1172 3481 
z
" transform="scale(0.015625)"/>
       </defs>
       <use xlink:href="#DejaVuSans-30"/>
       <use xlink:href="#DejaVuSans-2e" x="63.623047"/>
       <use xlink:href="#DejaVuSans-38" x="95.410156"/>
      </g>
     </g>
    </g>
    <g id="ytick_6">
     <g id="line2d_14">
      <g>
       <use xlink:href="#mebd2ccd01e" x="54.61" y="102.781694" style="stroke: #000000; stroke-width: 0.8"/>
      </g>
     </g>
     <g id="text_14">
      <!-- 1.0 -->
      <g transform="translate(31.706875 106.580913)scale(0.1 -0.1)">
       <use xlink:href="#DejaVuSans-31"/>
       <use xlink:href="#DejaVuSans-2e" x="63.623047"/>
       <use xlink:href="#DejaVuSans-30" x="95.410156"/>
      </g>
     </g>
    </g>
    <g id="ytick_7">
     <g id="line2d_15">
      <g>
       <use xlink:href="#mebd2ccd01e" x="54.61" y="71.302469" style="stroke: #000000; stroke-width: 0.8"/>
      </g>
     </g>
     <g id="text_15">
      <!-- 1.2 -->
      <g transform="translate(31.706875 75.101688)scale(0.1 -0.1)">
       <use xlink:href="#DejaVuSans-31"/>
       <use xlink:href="#DejaVuSans-2e" x="63.623047"/>
       <use xlink:href="#DejaVuSans-32" x="95.410156"/>
      </g>
     </g>
    </g>
   </g>
   <g id="line2d_16">
    <path d="M 68.184761 259.282225 
L 68.456588 259.282225 
L 69.543495 255.363746 
L 70.358978 251.170975 
L 70.902229 248.727326 
L 71.98954 245.989511 
L 72.533195 243.094227 
L 73.076446 238.3204 
L 74.435584 222.094723 
L 74.707008 221.539869 
L 74.978836 222.066198 
L 75.794319 224.823338 
L 76.33757 225.704586 
L 76.609398 225.877188 
L 76.881225 225.835905 
L 77.153053 225.501844 
L 77.968536 223.573713 
L 78.239959 223.67504 
L 78.511787 224.578377 
L 79.870925 232.358923 
L 80.142349 232.90684 
L 80.414176 232.97116 
L 80.686004 232.605126 
L 80.957832 231.848813 
L 81.501487 229.24055 
L 82.316566 223.105321 
L 83.132049 215.615609 
L 83.6753 207.87003 
L 83.947128 201.536178 
L 84.218955 192.268891 
L 84.762611 159.841522 
L 85.849517 57.057207 
L 86.121345 52.16 
L 86.393173 57.698345 
L 86.936828 71.803257 
L 87.208252 76.011887 
L 87.480079 82.453953 
L 87.751907 96.2487 
L 88.56739 158.907872 
L 89.110641 178.371857 
L 89.382469 182.661887 
L 89.654296 185.089184 
L 89.926124 186.230208 
L 90.197952 186.344596 
L 90.469779 185.663124 
L 91.828513 180.082375 
L 92.372169 174.585058 
L 92.91542 169.0247 
L 93.187248 169.610254 
L 93.730903 178.280777 
L 94.274558 186.413856 
L 94.817809 190.728477 
L 95.361465 193.126645 
L 95.633292 193.242936 
L 95.90512 192.489255 
L 96.720199 188.724721 
L 96.992027 189.575477 
L 97.263854 192.520997 
L 97.807509 200.339615 
L 98.078933 202.030155 
L 98.350761 201.583369 
L 99.166244 195.910595 
L 99.438071 196.130037 
L 99.981323 198.861686 
L 100.25315 198.872809 
L 100.524978 197.500424 
L 101.883712 187.005278 
L 102.15554 182.450571 
L 102.699195 166.6734 
L 103.24285 146.391582 
L 103.514274 140.880266 
L 103.786102 142.386547 
L 104.601584 163.199253 
L 104.873412 166.754424 
L 105.14524 168.40875 
L 105.416663 168.876775 
L 105.688491 168.914091 
L 105.960319 169.268143 
L 106.232146 170.649193 
L 106.503974 173.446007 
L 107.319053 187.176598 
L 107.862708 195.654339 
L 108.134536 197.854511 
L 108.406363 197.918364 
L 108.678191 195.78924 
L 109.221442 186.863919 
L 109.765098 178.968569 
L 110.036925 179.583515 
L 110.308753 184.527495 
L 111.123832 208.004559 
L 111.39566 212.425963 
L 111.667487 214.083571 
L 111.939315 213.180298 
L 112.211142 210.146626 
L 112.754394 199.693355 
L 113.569877 181.791249 
L 114.113532 175.046069 
L 114.928611 168.771542 
L 115.200438 167.703199 
L 115.472266 168.835522 
L 115.744094 173.074456 
L 116.831 199.613857 
L 117.102828 202.025726 
L 117.374656 201.957446 
L 117.646483 199.675975 
L 118.189735 190.703285 
L 118.73339 181.930657 
L 119.005217 180.302089 
L 119.277045 180.740829 
L 119.548873 181.970307 
L 119.820296 182.458024 
L 120.092124 181.332876 
L 120.363952 178.484351 
L 121.722686 157.990035 
L 121.994514 157.170746 
L 122.266341 157.361335 
L 122.538169 157.329292 
L 122.809996 156.111223 
L 123.081824 153.361235 
L 123.896903 142.782069 
L 124.168731 142.831775 
L 124.440558 146.147466 
L 125.799292 174.817982 
L 126.342948 180.285863 
L 127.158027 185.118056 
L 127.97351 192.363757 
L 128.245337 192.557066 
L 128.517165 190.312766 
L 128.788589 185.491794 
L 129.332244 168.320309 
L 129.875899 141.649327 
L 130.419554 113.277311 
L 130.690978 106.965451 
L 130.962806 109.861946 
L 132.321944 156.053813 
L 132.865195 164.400546 
L 133.40885 169.449074 
L 133.952506 171.731225 
L 134.495757 172.921521 
L 135.31124 175.172946 
L 135.583067 175.363455 
L 135.854895 175.133816 
L 136.398146 174.140113 
L 136.669974 173.960055 
L 136.941802 174.388043 
L 137.485457 176.449607 
L 137.757285 176.847954 
L 138.028708 176.204845 
L 138.844191 171.145486 
L 139.116019 170.554114 
L 139.387846 170.7384 
L 139.931098 171.475897 
L 140.202925 171.716405 
L 140.474753 172.191133 
L 140.746581 173.133384 
L 141.290236 176.539192 
L 143.735877 198.3596 
L 144.55136 207.105593 
L 144.823187 208.517265 
L 145.094611 208.812917 
L 145.366439 208.046696 
L 145.910094 204.396426 
L 146.453749 200.88428 
L 146.725577 200.208618 
L 146.997 200.309571 
L 147.540656 201.201926 
L 148.356139 201.767606 
L 149.171218 203.589818 
L 149.443045 203.40605 
L 149.714873 202.333492 
L 150.258528 198.054378 
L 150.801779 193.579137 
L 151.88909 187.803237 
L 152.432341 180.959756 
L 152.975997 173.258529 
L 153.247824 170.843797 
L 153.519652 170.171785 
L 153.791479 171.434319 
L 154.334731 178.008112 
L 154.878386 183.734219 
L 155.150214 184.671195 
L 155.422041 184.450953 
L 157.052603 179.230595 
L 157.324431 178.999704 
L 157.596258 179.293027 
L 157.867682 180.151349 
L 159.22682 186.476147 
L 159.770072 191.902712 
L 160.585554 202.660191 
L 161.12921 207.349052 
L 161.672461 210.135599 
L 162.487944 213.346261 
L 163.031599 216.726941 
L 163.574851 220.395618 
L 163.846678 221.588471 
L 164.118506 222.13191 
L 164.390333 222.13431 
L 164.933585 221.254743 
L 166.020895 218.872015 
L 166.835974 216.28307 
L 167.107802 216.136206 
L 167.923285 216.776085 
L 168.46694 216.486661 
L 168.738364 216.520154 
L 169.553847 217.571928 
L 169.825674 217.554747 
L 170.097502 217.124146 
L 171.184408 213.822298 
L 171.456236 213.799554 
L 171.728064 214.292062 
L 172.543143 216.209692 
L 172.81497 216.427304 
L 173.086798 216.395353 
L 173.358626 216.141761 
L 173.902281 215.008597 
L 175.804266 209.936707 
L 176.347922 207.415356 
L 177.163404 202.390488 
L 177.435232 201.816628 
L 177.706656 202.409815 
L 178.250311 206.083804 
L 178.793966 209.502955 
L 179.065794 210.30244 
L 179.337622 210.472795 
L 179.609045 210.072239 
L 180.152701 208.205952 
L 180.696356 206.114328 
L 180.968183 205.540361 
L 181.239607 205.580385 
L 181.511435 206.24228 
L 182.05509 208.414612 
L 182.326918 208.879091 
L 182.598745 208.267593 
L 182.870573 206.466798 
L 183.685652 197.267621 
L 184.772962 185.389149 
L 185.044386 184.075904 
L 185.316214 184.815817 
L 185.588041 187.897242 
L 186.674948 205.969824 
L 187.218603 210.023037 
L 188.849165 217.723414 
L 189.39282 219.581461 
L 189.664648 220.116589 
L 189.936476 220.304174 
L 190.208303 220.13717 
L 190.479727 219.590984 
L 191.023382 217.357959 
L 192.110289 210.746886 
L 193.197599 203.928381 
L 193.469427 203.823693 
L 193.741255 205.339382 
L 194.284506 212.21401 
L 194.828161 219.146517 
L 195.371816 223.040592 
L 195.915068 224.913173 
L 196.458723 225.798721 
L 196.730551 226.008855 
L 197.002378 226.075181 
L 197.274206 226.01835 
L 197.54563 225.781883 
L 197.817457 225.304803 
L 198.361112 223.559557 
L 199.719847 217.319449 
L 199.991674 216.825055 
L 200.263502 216.722622 
L 200.53533 216.922864 
L 200.807157 217.425934 
L 201.350409 219.440138 
L 202.165891 223.015254 
L 202.437719 223.609045 
L 202.709547 223.863294 
L 202.98097 223.804223 
L 203.524626 223.507366 
L 203.796453 223.607259 
L 204.340109 224.576359 
L 205.155188 226.106492 
L 205.698843 226.612266 
L 205.97067 226.641518 
L 206.242498 226.361082 
L 206.513922 225.70661 
L 207.057577 223.010517 
L 207.601232 218.619955 
L 208.416311 211.477975 
L 208.688139 210.161412 
L 208.959966 209.778982 
L 209.231794 210.198505 
L 211.406011 217.411302 
L 211.949263 218.438984 
L 212.22109 218.533674 
L 212.764745 218.152109 
L 213.308401 217.720727 
L 213.851652 217.45998 
L 214.395307 216.867242 
L 215.21079 215.524551 
L 215.482618 215.341779 
L 215.754042 215.353129 
L 216.025869 215.535968 
L 217.384603 217.082637 
L 218.471914 217.479162 
L 218.743741 217.935826 
L 219.830648 220.814984 
L 220.102476 220.932556 
L 220.374303 220.690451 
L 220.917959 219.617938 
L 221.733038 218.130716 
L 222.276693 217.707306 
L 222.54852 217.573896 
L 222.819944 217.220286 
L 223.091772 216.299554 
L 223.635427 212.309164 
L 224.45091 205.52201 
L 224.722334 204.671319 
L 224.994161 204.817716 
L 225.265989 205.811669 
L 225.809644 209.312275 
L 227.712034 223.44113 
L 227.983861 224.428144 
L 228.255285 224.879344 
L 228.527113 224.794004 
L 228.79894 224.170702 
L 229.070768 223.0206 
L 229.614423 219.301941 
L 230.429502 212.886098 
L 230.70133 212.023446 
L 230.973157 212.532759 
L 231.516813 216.969166 
L 232.060064 221.100379 
L 232.331892 221.748024 
L 232.603719 221.486538 
L 233.419202 219.136071 
L 233.690626 219.01128 
L 233.962453 219.533613 
L 234.506109 221.988548 
L 235.321592 226.17087 
L 235.864843 227.733899 
L 236.408498 229.001359 
L 236.952153 230.927781 
L 239.125967 240.119677 
L 239.941449 242.917601 
L 240.485105 244.202567 
L 242.115667 246.21056 
L 242.658918 246.598357 
L 243.202573 246.49322 
L 243.746228 246.257293 
L 244.018056 246.287337 
L 244.289884 246.473441 
L 244.833135 247.372688 
L 245.920446 249.366347 
L 246.192273 249.574861 
L 246.463697 249.576348 
L 247.007352 249.104311 
L 248.094259 247.940931 
L 249.181569 247.079767 
L 250.268476 246.750456 
L 251.355786 246.51508 
L 251.899038 246.909686 
L 253.5296 249.036525 
L 253.801427 249.098031 
L 254.073255 248.951622 
L 254.345082 248.555465 
L 254.888738 247.029408 
L 255.431989 245.242774 
L 255.703817 244.780592 
L 255.975644 244.795103 
L 256.247472 245.261236 
L 257.062955 247.198498 
L 257.334379 247.361407 
L 257.606206 247.237326 
L 258.149861 246.44132 
L 258.693517 245.595235 
L 258.96494 245.411865 
L 259.236768 245.536085 
L 259.508596 245.980847 
L 260.052251 247.576072 
L 260.86733 250.1538 
L 261.139157 250.611017 
L 261.410985 250.834744 
L 261.682813 250.822823 
L 261.95464 250.598484 
L 262.498296 249.56504 
L 263.041547 247.716212 
L 264.128857 243.36357 
L 264.400281 243.146075 
L 264.672109 243.594039 
L 265.215764 246.013936 
L 265.759419 248.671269 
L 266.302671 250.189744 
L 266.846326 250.772304 
L 267.389981 250.870992 
L 267.661809 250.775852 
L 267.933636 250.543177 
L 268.20506 250.111289 
L 268.748715 248.397463 
L 270.10745 241.606656 
L 270.379277 241.277179 
L 270.651105 241.686447 
L 270.922933 242.823788 
L 272.281667 250.484816 
L 272.825322 251.565812 
L 273.640401 252.075654 
L 274.727711 252.642642 
L 275.270963 252.488789 
L 275.814618 251.821865 
L 276.630101 250.461652 
L 276.901929 250.257152 
L 277.173352 250.307913 
L 277.717008 251.099146 
L 278.260663 252.419257 
L 279.075742 255.174837 
L 279.891225 257.524346 
L 280.43488 258.365579 
L 280.978131 258.818267 
L 281.793614 259.093268 
L 283.152348 259.111196 
L 284.78291 259.189036 
L 286.141644 258.892452 
L 286.957127 258.751275 
L 287.77261 259.038373 
L 288.587689 259.226469 
L 290.218251 259.311757 
L 291.848813 259.83811 
L 293.207951 260.039065 
L 339.679974 260.16 
L 339.679974 260.16 
" clip-path="url(#p7ba3e42f56)" style="fill: none; stroke: #ffa500; stroke-width: 1.5; stroke-linecap: square"/>
   </g>
   <g id="patch_3">
    <path d="M 54.61 270.56 
L 54.61 41.76 
" style="fill: none; stroke: #000000; stroke-width: 0.8; stroke-linejoin: miter; stroke-linecap: square"/>
   </g>
   <g id="patch_4">
    <path d="M 353.254734 270.56 
L 353.254734 41.76 
" style="fill: none; stroke: #000000; stroke-width: 0.8; stroke-linejoin: miter; stroke-linecap: square"/>
   </g>
   <g id="patch_5">
    <path d="M 54.61 270.56 
L 353.254734 270.56 
" style="fill: none; stroke: #000000; stroke-width: 0.8; stroke-linejoin: miter; stroke-linecap: square"/>
   </g>
   <g id="patch_6">
    <path d="M 54.61 41.76 
L 353.254734 41.76 
" style="fill: none; stroke: #000000; stroke-width: 0.8; stroke-linejoin: miter; stroke-linecap: square"/>
   </g>
   <g id="legend_1">
    <g id="patch_7">
     <path d="M 302.417234 64.438125 
L 346.254734 64.438125 
Q 348.254734 64.438125 348.254734 62.438125 
L 348.254734 48.76 
Q 348.254734 46.76 346.254734 46.76 
L 302.417234 46.76 
Q 300.417234 46.76 300.417234 48.76 
L 300.417234 62.438125 
Q 300.417234 64.438125 302.417234 64.438125 
z
" style="fill: #ffffff; opacity: 0.8; stroke: #cccccc; stroke-linejoin: miter"/>
    </g>
    <g id="line2d_17">
     <path d="M 304.417234 54.858438 
L 314.417234 54.858438 
L 324.417234 54.858438 
" style="fill: none; stroke: #ffa500; stroke-width: 1.5; stroke-linecap: square"/>
    </g>
    <g id="text_16">
     <!-- xx -->
     <g transform="translate(332.417234 58.358438)scale(0.1 -0.1)">
      <defs>
       <path id="DejaVuSans-78" d="M 3513 3500 
L 2247 1797 
L 3578 0 
L 2900 0 
L 1881 1375 
L 863 0 
L 184 0 
L 1544 1831 
L 300 3500 
L 978 3500 
L 1906 2253 
L 2834 3500 
L 3513 3500 
z
" transform="scale(0.015625)"/>
      </defs>
      <use xlink:href="#DejaVuSans-78"/>
      <use xlink:href="#DejaVuSans-78" x="59.179688"/>
     </g>
    </g>
   </g>
  </g>
  <g id="axes_2">
   <g id="patch_8">
    <path d="M 406.15 270.56 
L 704.794734 270.56 
L 704.794734 41.76 
L 406.15 41.76 
z
" style="fill: #ffffff"/>
   </g>
   <g id="matplotlib.axis_3">
    <g id="xtick_9">
     <g id="line2d_18">
      <g>
       <use xlink:href="#m10aa0b29d6" x="419.724761" y="270.56" style="stroke: #000000; stroke-width: 0.8"/>
      </g>
     </g>
     <g id="text_17">
      <!-- 0 -->
      <g transform="translate(416.543511 285.158437)scale(0.1 -0.1)">
       <use xlink:href="#DejaVuSans-30"/>
      </g>
     </g>
    </g>
    <g id="xtick_10">
     <g id="line2d_19">
      <g>
       <use xlink:href="#m10aa0b29d6" x="460.115195" y="270.56" style="stroke: #000000; stroke-width: 0.8"/>
      </g>
     </g>
     <g id="text_18">
      <!-- 10 -->
      <g transform="translate(453.752695 285.158437)scale(0.1 -0.1)">
       <use xlink:href="#DejaVuSans-31"/>
       <use xlink:href="#DejaVuSans-30" x="63.623047"/>
      </g>
     </g>
    </g>
    <g id="xtick_11">
     <g id="line2d_20">
      <g>
       <use xlink:href="#m10aa0b29d6" x="500.50563" y="270.56" style="stroke: #000000; stroke-width: 0.8"/>
      </g>
     </g>
     <g id="text_19">
      <!-- 20 -->
      <g transform="translate(494.14313 285.158437)scale(0.1 -0.1)">
       <use xlink:href="#DejaVuSans-32"/>
       <use xlink:href="#DejaVuSans-30" x="63.623047"/>
      </g>
     </g>
    </g>
    <g id="xtick_12">
     <g id="line2d_21">
      <g>
       <use xlink:href="#m10aa0b29d6" x="540.896065" y="270.56" style="stroke: #000000; stroke-width: 0.8"/>
      </g>
     </g>
     <g id="text_20">
      <!-- 30 -->
      <g transform="translate(534.533565 285.158437)scale(0.1 -0.1)">
       <use xlink:href="#DejaVuSans-33"/>
       <use xlink:href="#DejaVuSans-30" x="63.623047"/>
      </g>
     </g>
    </g>
    <g id="xtick_13">
     <g id="line2d_22">
      <g>
       <use xlink:href="#m10aa0b29d6" x="581.2865" y="270.56" style="stroke: #000000; stroke-width: 0.8"/>
      </g>
     </g>
     <g id="text_21">
      <!-- 40 -->
      <g transform="translate(574.924 285.158437)scale(0.1 -0.1)">
       <use xlink:href="#DejaVuSans-34"/>
       <use xlink:href="#DejaVuSans-30" x="63.623047"/>
      </g>
     </g>
    </g>
    <g id="xtick_14">
     <g id="line2d_23">
      <g>
       <use xlink:href="#m10aa0b29d6" x="621.676935" y="270.56" style="stroke: #000000; stroke-width: 0.8"/>
      </g>
     </g>
     <g id="text_22">
      <!-- 50 -->
      <g transform="translate(615.314435 285.158437)scale(0.1 -0.1)">
       <use xlink:href="#DejaVuSans-35"/>
       <use xlink:href="#DejaVuSans-30" x="63.623047"/>
      </g>
     </g>
    </g>
    <g id="xtick_15">
     <g id="line2d_24">
      <g>
       <use xlink:href="#m10aa0b29d6" x="662.067369" y="270.56" style="stroke: #000000; stroke-width: 0.8"/>
      </g>
     </g>
     <g id="text_23">
      <!-- 60 -->
      <g transform="translate(655.704869 285.158437)scale(0.1 -0.1)">
       <use xlink:href="#DejaVuSans-36"/>
       <use xlink:href="#DejaVuSans-30" x="63.623047"/>
      </g>
     </g>
    </g>
    <g id="xtick_16">
     <g id="line2d_25">
      <g>
       <use xlink:href="#m10aa0b29d6" x="702.457804" y="270.56" style="stroke: #000000; stroke-width: 0.8"/>
      </g>
     </g>
     <g id="text_24">
      <!-- 70 -->
      <g transform="translate(696.095304 285.158437)scale(0.1 -0.1)">
       <use xlink:href="#DejaVuSans-37"/>
       <use xlink:href="#DejaVuSans-30" x="63.623047"/>
      </g>
     </g>
    </g>
   </g>
   <g id="matplotlib.axis_4">
    <g id="ytick_8">
     <g id="line2d_26">
      <g>
       <use xlink:href="#mebd2ccd01e" x="406.15" y="260.177817" style="stroke: #000000; stroke-width: 0.8"/>
      </g>
     </g>
     <g id="text_25">
      <!-- 0.0 -->
      <g transform="translate(383.246875 263.977036)scale(0.1 -0.1)">
       <use xlink:href="#DejaVuSans-30"/>
       <use xlink:href="#DejaVuSans-2e" x="63.623047"/>
       <use xlink:href="#DejaVuSans-30" x="95.410156"/>
      </g>
     </g>
    </g>
    <g id="ytick_9">
     <g id="line2d_27">
      <g>
       <use xlink:href="#mebd2ccd01e" x="406.15" y="228.698592" style="stroke: #000000; stroke-width: 0.8"/>
      </g>
     </g>
     <g id="text_26">
      <!-- 0.2 -->
      <g transform="translate(383.246875 232.497811)scale(0.1 -0.1)">
       <use xlink:href="#DejaVuSans-30"/>
       <use xlink:href="#DejaVuSans-2e" x="63.623047"/>
       <use xlink:href="#DejaVuSans-32" x="95.410156"/>
      </g>
     </g>
    </g>
    <g id="ytick_10">
     <g id="line2d_28">
      <g>
       <use xlink:href="#mebd2ccd01e" x="406.15" y="197.219368" style="stroke: #000000; stroke-width: 0.8"/>
      </g>
     </g>
     <g id="text_27">
      <!-- 0.4 -->
      <g transform="translate(383.246875 201.018586)scale(0.1 -0.1)">
       <use xlink:href="#DejaVuSans-30"/>
       <use xlink:href="#DejaVuSans-2e" x="63.623047"/>
       <use xlink:href="#DejaVuSans-34" x="95.410156"/>
      </g>
     </g>
    </g>
    <g id="ytick_11">
     <g id="line2d_29">
      <g>
       <use xlink:href="#mebd2ccd01e" x="406.15" y="165.740143" style="stroke: #000000; stroke-width: 0.8"/>
      </g>
     </g>
     <g id="text_28">
      <!-- 0.6 -->
      <g transform="translate(383.246875 169.539362)scale(0.1 -0.1)">
       <use xlink:href="#DejaVuSans-30"/>
       <use xlink:href="#DejaVuSans-2e" x="63.623047"/>
       <use xlink:href="#DejaVuSans-36" x="95.410156"/>
      </g>
     </g>
    </g>
    <g id="ytick_12">
     <g id="line2d_30">
      <g>
       <use xlink:href="#mebd2ccd01e" x="406.15" y="134.260918" style="stroke: #000000; stroke-width: 0.8"/>
      </g>
     </g>
     <g id="text_29">
      <!-- 0.8 -->
      <g transform="translate(383.246875 138.060137)scale(0.1 -0.1)">
       <use xlink:href="#DejaVuSans-30"/>
       <use xlink:href="#DejaVuSans-2e" x="63.623047"/>
       <use xlink:href="#DejaVuSans-38" x="95.410156"/>
      </g>
     </g>
    </g>
    <g id="ytick_13">
     <g id="line2d_31">
      <g>
       <use xlink:href="#mebd2ccd01e" x="406.15" y="102.781694" style="stroke: #000000; stroke-width: 0.8"/>
      </g>
     </g>
     <g id="text_30">
      <!-- 1.0 -->
      <g transform="translate(383.246875 106.580913)scale(0.1 -0.1)">
       <use xlink:href="#DejaVuSans-31"/>
       <use xlink:href="#DejaVuSans-2e" x="63.623047"/>
       <use xlink:href="#DejaVuSans-30" x="95.410156"/>
      </g>
     </g>
    </g>
    <g id="ytick_14">
     <g id="line2d_32">
      <g>
       <use xlink:href="#mebd2ccd01e" x="406.15" y="71.302469" style="stroke: #000000; stroke-width: 0.8"/>
      </g>
     </g>
     <g id="text_31">
      <!-- 1.2 -->
      <g transform="translate(383.246875 75.101688)scale(0.1 -0.1)">
       <use xlink:href="#DejaVuSans-31"/>
       <use xlink:href="#DejaVuSans-2e" x="63.623047"/>
       <use xlink:href="#DejaVuSans-32" x="95.410156"/>
      </g>
     </g>
    </g>
   </g>
   <g id="line2d_33">
    <path d="M 419.724761 259.282225 
L 419.996588 259.282225 
L 421.083495 255.363746 
L 421.898978 251.170975 
L 422.442229 248.727326 
L 423.52954 245.989511 
L 424.073195 243.094227 
L 424.616446 238.3204 
L 425.975584 222.094723 
L 426.247008 221.539869 
L 426.518836 222.066198 
L 427.334319 224.823338 
L 427.87757 225.704586 
L 428.149398 225.877188 
L 428.421225 225.835905 
L 428.693053 225.501844 
L 429.508536 223.573713 
L 429.779959 223.67504 
L 430.051787 224.578377 
L 431.410925 232.358923 
L 431.682349 232.90684 
L 431.954176 232.97116 
L 432.226004 232.605126 
L 432.497832 231.848813 
L 433.041487 229.24055 
L 433.856566 223.105321 
L 434.672049 215.615609 
L 435.2153 207.87003 
L 435.487128 201.536178 
L 435.758955 192.268891 
L 436.302611 159.841522 
L 437.389517 57.057207 
L 437.661345 52.16 
L 437.933173 57.698345 
L 438.476828 71.803257 
L 438.748252 76.011887 
L 439.020079 82.453953 
L 439.291907 96.2487 
L 440.10739 158.907872 
L 440.650641 178.371857 
L 440.922469 182.661887 
L 441.194296 185.089184 
L 441.466124 186.230208 
L 441.737952 186.344596 
L 442.009779 185.663124 
L 443.368513 180.082375 
L 443.912169 174.585058 
L 444.45542 169.0247 
L 444.727248 169.610254 
L 445.270903 178.280777 
L 445.814558 186.413856 
L 446.357809 190.728477 
L 446.901465 193.126645 
L 447.173292 193.242936 
L 447.44512 192.489255 
L 448.260199 188.724721 
L 448.532027 189.575477 
L 448.803854 192.520997 
L 449.347509 200.339615 
L 449.618933 202.030155 
L 449.890761 201.583369 
L 450.706244 195.910595 
L 450.978071 196.130037 
L 451.521323 198.861686 
L 451.79315 198.872809 
L 452.064978 197.500424 
L 453.423712 187.005278 
L 453.69554 182.450571 
L 454.239195 166.6734 
L 454.78285 146.391582 
L 455.054274 140.880266 
L 455.326102 142.386547 
L 456.141584 163.199253 
L 456.413412 166.754424 
L 456.68524 168.40875 
L 456.956663 168.876775 
L 457.228491 168.914091 
L 457.500319 169.268143 
L 457.772146 170.649193 
L 458.043974 173.446007 
L 458.859053 187.176598 
L 459.402708 195.654339 
L 459.674536 197.854511 
L 459.946363 197.918364 
L 460.218191 195.78924 
L 460.761442 186.863919 
L 461.305098 178.968569 
L 461.576925 179.583515 
L 461.848753 184.527495 
L 462.663832 208.004559 
L 462.93566 212.425963 
L 463.207487 214.083571 
L 463.479315 213.180298 
L 463.751142 210.146626 
L 464.294394 199.693355 
L 465.109877 181.791249 
L 465.653532 175.046069 
L 466.468611 168.771542 
L 466.740438 167.703199 
L 467.012266 168.835522 
L 467.284094 173.074456 
L 468.371 199.613857 
L 468.642828 202.025726 
L 468.914656 201.957446 
L 469.186483 199.675975 
L 469.729735 190.703285 
L 470.27339 181.930657 
L 470.545217 180.302089 
L 470.817045 180.740829 
L 471.088873 181.970307 
L 471.360296 182.458024 
L 471.632124 181.332876 
L 471.903952 178.484351 
L 473.262686 157.990035 
L 473.534514 157.170746 
L 473.806341 157.361335 
L 474.078169 157.329292 
L 474.349996 156.111223 
L 474.621824 153.361235 
L 475.436903 142.782069 
L 475.708731 142.831775 
L 475.980558 146.147466 
L 477.339292 174.817982 
L 477.882948 180.285863 
L 478.698027 185.118056 
L 479.51351 192.363757 
L 479.785337 192.557066 
L 480.057165 190.312766 
L 480.328589 185.491794 
L 480.872244 168.320309 
L 481.415899 141.649327 
L 481.959554 113.277311 
L 482.230978 106.965451 
L 482.502806 109.861946 
L 483.861944 156.053813 
L 484.405195 164.400546 
L 484.94885 169.449074 
L 485.492506 171.731225 
L 486.035757 172.921521 
L 486.85124 175.172946 
L 487.123067 175.363455 
L 487.394895 175.133816 
L 487.938146 174.140113 
L 488.209974 173.960055 
L 488.481802 174.388043 
L 489.025457 176.449607 
L 489.297285 176.847954 
L 489.568708 176.204845 
L 490.384191 171.145486 
L 490.656019 170.554114 
L 490.927846 170.7384 
L 491.471098 171.475897 
L 491.742925 171.716405 
L 492.014753 172.191133 
L 492.286581 173.133384 
L 492.830236 176.539192 
L 495.275877 198.3596 
L 496.09136 207.105593 
L 496.363187 208.517265 
L 496.634611 208.812917 
L 496.906439 208.046696 
L 497.450094 204.396426 
L 497.993749 200.88428 
L 498.265577 200.208618 
L 498.537 200.309571 
L 499.080656 201.201926 
L 499.896139 201.767606 
L 500.711218 203.589818 
L 500.983045 203.40605 
L 501.254873 202.333492 
L 501.798528 198.054378 
L 502.341779 193.579137 
L 503.42909 187.803237 
L 503.972341 180.959756 
L 504.515997 173.258529 
L 504.787824 170.843797 
L 505.059652 170.171785 
L 505.331479 171.434319 
L 505.874731 178.008112 
L 506.418386 183.734219 
L 506.690214 184.671195 
L 506.962041 184.450953 
L 508.592603 179.230595 
L 508.864431 178.999704 
L 509.136258 179.293027 
L 509.407682 180.151349 
L 510.76682 186.476147 
L 511.310072 191.902712 
L 512.125554 202.660191 
L 512.66921 207.349052 
L 513.212461 210.135599 
L 514.027944 213.346261 
L 514.571599 216.726941 
L 515.114851 220.395618 
L 515.386678 221.588471 
L 515.658506 222.13191 
L 515.930333 222.13431 
L 516.473585 221.254743 
L 517.560895 218.872015 
L 518.375974 216.28307 
L 518.647802 216.136206 
L 519.463285 216.776085 
L 520.00694 216.486661 
L 520.278364 216.520154 
L 521.093847 217.571928 
L 521.365674 217.554747 
L 521.637502 217.124146 
L 522.724408 213.822298 
L 522.996236 213.799554 
L 523.268064 214.292062 
L 524.083143 216.209692 
L 524.35497 216.427304 
L 524.626798 216.395353 
L 524.898626 216.141761 
L 525.442281 215.008597 
L 527.344266 209.936707 
L 527.887922 207.415356 
L 528.703404 202.390488 
L 528.975232 201.816628 
L 529.246656 202.409815 
L 529.790311 206.083804 
L 530.333966 209.502955 
L 530.605794 210.30244 
L 530.877622 210.472795 
L 531.149045 210.072239 
L 531.692701 208.205952 
L 532.236356 206.114328 
L 532.508183 205.540361 
L 532.779607 205.580385 
L 533.051435 206.24228 
L 533.59509 208.414612 
L 533.866918 208.879091 
L 534.138745 208.267593 
L 534.410573 206.466798 
L 535.225652 197.267621 
L 536.312962 185.389149 
L 536.584386 184.075904 
L 536.856214 184.815817 
L 537.128041 187.897242 
L 538.214948 205.969824 
L 538.758603 210.023037 
L 540.389165 217.723414 
L 540.93282 219.581461 
L 541.204648 220.116589 
L 541.476476 220.304174 
L 541.748303 220.13717 
L 542.019727 219.590984 
L 542.563382 217.357959 
L 543.650289 210.746886 
L 544.737599 203.928381 
L 545.009427 203.823693 
L 545.281255 205.339382 
L 545.824506 212.21401 
L 546.368161 219.146517 
L 546.911816 223.040592 
L 547.455068 224.913173 
L 547.998723 225.798721 
L 548.270551 226.008855 
L 548.542378 226.075181 
L 548.814206 226.01835 
L 549.08563 225.781883 
L 549.357457 225.304803 
L 549.901112 223.559557 
L 551.259847 217.319449 
L 551.531674 216.825055 
L 551.803502 216.722622 
L 552.07533 216.922864 
L 552.347157 217.425934 
L 552.890409 219.440138 
L 553.705891 223.015254 
L 553.977719 223.609045 
L 554.249547 223.863294 
L 554.52097 223.804223 
L 555.064626 223.507366 
L 555.336453 223.607259 
L 555.880109 224.576359 
L 556.695188 226.106492 
L 557.238843 226.612266 
L 557.51067 226.641518 
L 557.782498 226.361082 
L 558.053922 225.70661 
L 558.597577 223.010517 
L 559.141232 218.619955 
L 559.956311 211.477975 
L 560.228139 210.161412 
L 560.499966 209.778982 
L 560.771794 210.198505 
L 562.946011 217.411302 
L 563.489263 218.438984 
L 563.76109 218.533674 
L 564.304745 218.152109 
L 564.848401 217.720727 
L 565.391652 217.45998 
L 565.935307 216.867242 
L 566.75079 215.524551 
L 567.022618 215.341779 
L 567.294042 215.353129 
L 567.565869 215.535968 
L 568.924603 217.082637 
L 570.011914 217.479162 
L 570.283741 217.935826 
L 571.370648 220.814984 
L 571.642476 220.932556 
L 571.914303 220.690451 
L 572.457959 219.617938 
L 573.273038 218.130716 
L 573.816693 217.707306 
L 574.08852 217.573896 
L 574.359944 217.220286 
L 574.631772 216.299554 
L 575.175427 212.309164 
L 575.99091 205.52201 
L 576.262334 204.671319 
L 576.534161 204.817716 
L 576.805989 205.811669 
L 577.349644 209.312275 
L 579.252034 223.44113 
L 579.523861 224.428144 
L 579.795285 224.879344 
L 580.067113 224.794004 
L 580.33894 224.170702 
L 580.610768 223.0206 
L 581.154423 219.301941 
L 581.969502 212.886098 
L 582.24133 212.023446 
L 582.513157 212.532759 
L 583.056813 216.969166 
L 583.600064 221.100379 
L 583.871892 221.748024 
L 584.143719 221.486538 
L 584.959202 219.136071 
L 585.230626 219.01128 
L 585.502453 219.533613 
L 586.046109 221.988548 
L 586.861592 226.17087 
L 587.404843 227.733899 
L 587.948498 229.001359 
L 588.492153 230.927781 
L 590.665967 240.119677 
L 591.481449 242.917601 
L 592.025105 244.202567 
L 593.655667 246.21056 
L 594.198918 246.598357 
L 594.742573 246.49322 
L 595.286228 246.257293 
L 595.558056 246.287337 
L 595.829884 246.473441 
L 596.373135 247.372688 
L 597.460446 249.366347 
L 597.732273 249.574861 
L 598.003697 249.576348 
L 598.547352 249.104311 
L 599.634259 247.940931 
L 600.721569 247.079767 
L 601.808476 246.750456 
L 602.895786 246.51508 
L 603.439038 246.909686 
L 605.0696 249.036525 
L 605.341427 249.098031 
L 605.613255 248.951622 
L 605.885082 248.555465 
L 606.428738 247.029408 
L 606.971989 245.242774 
L 607.243817 244.780592 
L 607.515644 244.795103 
L 607.787472 245.261236 
L 608.602955 247.198498 
L 608.874379 247.361407 
L 609.146206 247.237326 
L 609.689861 246.44132 
L 610.233517 245.595235 
L 610.50494 245.411865 
L 610.776768 245.536085 
L 611.048596 245.980847 
L 611.592251 247.576072 
L 612.40733 250.1538 
L 612.679157 250.611017 
L 612.950985 250.834744 
L 613.222813 250.822823 
L 613.49464 250.598484 
L 614.038296 249.56504 
L 614.581547 247.716212 
L 615.668857 243.36357 
L 615.940281 243.146075 
L 616.212109 243.594039 
L 616.755764 246.013936 
L 617.299419 248.671269 
L 617.842671 250.189744 
L 618.386326 250.772304 
L 618.929981 250.870992 
L 619.201809 250.775852 
L 619.473636 250.543177 
L 619.74506 250.111289 
L 620.288715 248.397463 
L 621.64745 241.606656 
L 621.919277 241.277179 
L 622.191105 241.686447 
L 622.462933 242.823788 
L 623.821667 250.484816 
L 624.365322 251.565812 
L 625.180401 252.075654 
L 626.267711 252.642642 
L 626.810963 252.488789 
L 627.354618 251.821865 
L 628.170101 250.461652 
L 628.441929 250.257152 
L 628.713352 250.307913 
L 629.257008 251.099146 
L 629.800663 252.419257 
L 630.615742 255.174837 
L 631.431225 257.524346 
L 631.97488 258.365579 
L 632.518131 258.818267 
L 633.333614 259.093268 
L 634.692348 259.111196 
L 636.32291 259.189036 
L 637.681644 258.892452 
L 638.497127 258.751275 
L 639.31261 259.038373 
L 640.127689 259.226469 
L 641.758251 259.311757 
L 643.388813 259.83811 
L 644.747951 260.039065 
L 691.219974 260.16 
L 691.219974 260.16 
" clip-path="url(#pc42a3cd4e2)" style="fill: none; stroke: #0000ff; stroke-width: 1.5; stroke-linecap: square"/>
   </g>
   <g id="patch_9">
    <path d="M 406.15 270.56 
L 406.15 41.76 
" style="fill: none; stroke: #000000; stroke-width: 0.8; stroke-linejoin: miter; stroke-linecap: square"/>
   </g>
   <g id="patch_10">
    <path d="M 704.794734 270.56 
L 704.794734 41.76 
" style="fill: none; stroke: #000000; stroke-width: 0.8; stroke-linejoin: miter; stroke-linecap: square"/>
   </g>
   <g id="patch_11">
    <path d="M 406.15 270.56 
L 704.794734 270.56 
" style="fill: none; stroke: #000000; stroke-width: 0.8; stroke-linejoin: miter; stroke-linecap: square"/>
   </g>
   <g id="patch_12">
    <path d="M 406.15 41.76 
L 704.794734 41.76 
" style="fill: none; stroke: #000000; stroke-width: 0.8; stroke-linejoin: miter; stroke-linecap: square"/>
   </g>
   <g id="legend_2">
    <g id="patch_13">
     <path d="M 653.957234 64.438125 
L 697.794734 64.438125 
Q 699.794734 64.438125 699.794734 62.438125 
L 699.794734 48.76 
Q 699.794734 46.76 697.794734 46.76 
L 653.957234 46.76 
Q 651.957234 46.76 651.957234 48.76 
L 651.957234 62.438125 
Q 651.957234 64.438125 653.957234 64.438125 
z
" style="fill: #ffffff; opacity: 0.8; stroke: #cccccc; stroke-linejoin: miter"/>
    </g>
    <g id="line2d_34">
     <path d="M 655.957234 54.858438 
L 665.957234 54.858438 
L 675.957234 54.858438 
" style="fill: none; stroke: #0000ff; stroke-width: 1.5; stroke-linecap: square"/>
    </g>
    <g id="text_32">
     <!-- yy -->
     <g transform="translate(683.957234 58.358438)scale(0.1 -0.1)">
      <defs>
       <path id="DejaVuSans-79" d="M 2059 -325 
Q 1816 -950 1584 -1140 
Q 1353 -1331 966 -1331 
L 506 -1331 
L 506 -850 
L 844 -850 
Q 1081 -850 1212 -737 
Q 1344 -625 1503 -206 
L 1606 56 
L 191 3500 
L 800 3500 
L 1894 763 
L 2988 3500 
L 3597 3500 
L 2059 -325 
z
" transform="scale(0.015625)"/>
      </defs>
      <use xlink:href="#DejaVuSans-79"/>
      <use xlink:href="#DejaVuSans-79" x="59.179688"/>
     </g>
    </g>
   </g>
  </g>
  <g id="axes_3">
   <g id="patch_14">
    <path d="M 54.61 527.24 
L 353.254734 527.24 
L 353.254734 298.44 
L 54.61 298.44 
z
" style="fill: #ffffff"/>
   </g>
   <g id="matplotlib.axis_5">
    <g id="xtick_17">
     <g id="line2d_35">
      <g>
       <use xlink:href="#m10aa0b29d6" x="68.184761" y="527.24" style="stroke: #000000; stroke-width: 0.8"/>
      </g>
     </g>
     <g id="text_33">
      <!-- 0 -->
      <g transform="translate(65.003511 541.838437)scale(0.1 -0.1)">
       <use xlink:href="#DejaVuSans-30"/>
      </g>
     </g>
    </g>
    <g id="xtick_18">
     <g id="line2d_36">
      <g>
       <use xlink:href="#m10aa0b29d6" x="108.575195" y="527.24" style="stroke: #000000; stroke-width: 0.8"/>
      </g>
     </g>
     <g id="text_34">
      <!-- 10 -->
      <g transform="translate(102.212695 541.838437)scale(0.1 -0.1)">
       <use xlink:href="#DejaVuSans-31"/>
       <use xlink:href="#DejaVuSans-30" x="63.623047"/>
      </g>
     </g>
    </g>
    <g id="xtick_19">
     <g id="line2d_37">
      <g>
       <use xlink:href="#m10aa0b29d6" x="148.96563" y="527.24" style="stroke: #000000; stroke-width: 0.8"/>
      </g>
     </g>
     <g id="text_35">
      <!-- 20 -->
      <g transform="translate(142.60313 541.838437)scale(0.1 -0.1)">
       <use xlink:href="#DejaVuSans-32"/>
       <use xlink:href="#DejaVuSans-30" x="63.623047"/>
      </g>
     </g>
    </g>
    <g id="xtick_20">
     <g id="line2d_38">
      <g>
       <use xlink:href="#m10aa0b29d6" x="189.356065" y="527.24" style="stroke: #000000; stroke-width: 0.8"/>
      </g>
     </g>
     <g id="text_36">
      <!-- 30 -->
      <g transform="translate(182.993565 541.838437)scale(0.1 -0.1)">
       <use xlink:href="#DejaVuSans-33"/>
       <use xlink:href="#DejaVuSans-30" x="63.623047"/>
      </g>
     </g>
    </g>
    <g id="xtick_21">
     <g id="line2d_39">
      <g>
       <use xlink:href="#m10aa0b29d6" x="229.7465" y="527.24" style="stroke: #000000; stroke-width: 0.8"/>
      </g>
     </g>
     <g id="text_37">
      <!-- 40 -->
      <g transform="translate(223.384 541.838437)scale(0.1 -0.1)">
       <use xlink:href="#DejaVuSans-34"/>
       <use xlink:href="#DejaVuSans-30" x="63.623047"/>
      </g>
     </g>
    </g>
    <g id="xtick_22">
     <g id="line2d_40">
      <g>
       <use xlink:href="#m10aa0b29d6" x="270.136935" y="527.24" style="stroke: #000000; stroke-width: 0.8"/>
      </g>
     </g>
     <g id="text_38">
      <!-- 50 -->
      <g transform="translate(263.774435 541.838437)scale(0.1 -0.1)">
       <use xlink:href="#DejaVuSans-35"/>
       <use xlink:href="#DejaVuSans-30" x="63.623047"/>
      </g>
     </g>
    </g>
    <g id="xtick_23">
     <g id="line2d_41">
      <g>
       <use xlink:href="#m10aa0b29d6" x="310.527369" y="527.24" style="stroke: #000000; stroke-width: 0.8"/>
      </g>
     </g>
     <g id="text_39">
      <!-- 60 -->
      <g transform="translate(304.164869 541.838437)scale(0.1 -0.1)">
       <use xlink:href="#DejaVuSans-36"/>
       <use xlink:href="#DejaVuSans-30" x="63.623047"/>
      </g>
     </g>
    </g>
    <g id="xtick_24">
     <g id="line2d_42">
      <g>
       <use xlink:href="#m10aa0b29d6" x="350.917804" y="527.24" style="stroke: #000000; stroke-width: 0.8"/>
      </g>
     </g>
     <g id="text_40">
      <!-- 70 -->
      <g transform="translate(344.555304 541.838437)scale(0.1 -0.1)">
       <use xlink:href="#DejaVuSans-37"/>
       <use xlink:href="#DejaVuSans-30" x="63.623047"/>
      </g>
     </g>
    </g>
   </g>
   <g id="matplotlib.axis_6">
    <g id="ytick_15">
     <g id="line2d_43">
      <g>
       <use xlink:href="#mebd2ccd01e" x="54.61" y="516.857817" style="stroke: #000000; stroke-width: 0.8"/>
      </g>
     </g>
     <g id="text_41">
      <!-- 0.0 -->
      <g transform="translate(31.706875 520.657036)scale(0.1 -0.1)">
       <use xlink:href="#DejaVuSans-30"/>
       <use xlink:href="#DejaVuSans-2e" x="63.623047"/>
       <use xlink:href="#DejaVuSans-30" x="95.410156"/>
      </g>
     </g>
    </g>
    <g id="ytick_16">
     <g id="line2d_44">
      <g>
       <use xlink:href="#mebd2ccd01e" x="54.61" y="485.378592" style="stroke: #000000; stroke-width: 0.8"/>
      </g>
     </g>
     <g id="text_42">
      <!-- 0.2 -->
      <g transform="translate(31.706875 489.177811)scale(0.1 -0.1)">
       <use xlink:href="#DejaVuSans-30"/>
       <use xlink:href="#DejaVuSans-2e" x="63.623047"/>
       <use xlink:href="#DejaVuSans-32" x="95.410156"/>
      </g>
     </g>
    </g>
    <g id="ytick_17">
     <g id="line2d_45">
      <g>
       <use xlink:href="#mebd2ccd01e" x="54.61" y="453.899368" style="stroke: #000000; stroke-width: 0.8"/>
      </g>
     </g>
     <g id="text_43">
      <!-- 0.4 -->
      <g transform="translate(31.706875 457.698586)scale(0.1 -0.1)">
       <use xlink:href="#DejaVuSans-30"/>
       <use xlink:href="#DejaVuSans-2e" x="63.623047"/>
       <use xlink:href="#DejaVuSans-34" x="95.410156"/>
      </g>
     </g>
    </g>
    <g id="ytick_18">
     <g id="line2d_46">
      <g>
       <use xlink:href="#mebd2ccd01e" x="54.61" y="422.420143" style="stroke: #000000; stroke-width: 0.8"/>
      </g>
     </g>
     <g id="text_44">
      <!-- 0.6 -->
      <g transform="translate(31.706875 426.219362)scale(0.1 -0.1)">
       <use xlink:href="#DejaVuSans-30"/>
       <use xlink:href="#DejaVuSans-2e" x="63.623047"/>
       <use xlink:href="#DejaVuSans-36" x="95.410156"/>
      </g>
     </g>
    </g>
    <g id="ytick_19">
     <g id="line2d_47">
      <g>
       <use xlink:href="#mebd2ccd01e" x="54.61" y="390.940918" style="stroke: #000000; stroke-width: 0.8"/>
      </g>
     </g>
     <g id="text_45">
      <!-- 0.8 -->
      <g transform="translate(31.706875 394.740137)scale(0.1 -0.1)">
       <use xlink:href="#DejaVuSans-30"/>
       <use xlink:href="#DejaVuSans-2e" x="63.623047"/>
       <use xlink:href="#DejaVuSans-38" x="95.410156"/>
      </g>
     </g>
    </g>
    <g id="ytick_20">
     <g id="line2d_48">
      <g>
       <use xlink:href="#mebd2ccd01e" x="54.61" y="359.461694" style="stroke: #000000; stroke-width: 0.8"/>
      </g>
     </g>
     <g id="text_46">
      <!-- 1.0 -->
      <g transform="translate(31.706875 363.260913)scale(0.1 -0.1)">
       <use xlink:href="#DejaVuSans-31"/>
       <use xlink:href="#DejaVuSans-2e" x="63.623047"/>
       <use xlink:href="#DejaVuSans-30" x="95.410156"/>
      </g>
     </g>
    </g>
    <g id="ytick_21">
     <g id="line2d_49">
      <g>
       <use xlink:href="#mebd2ccd01e" x="54.61" y="327.982469" style="stroke: #000000; stroke-width: 0.8"/>
      </g>
     </g>
     <g id="text_47">
      <!-- 1.2 -->
      <g transform="translate(31.706875 331.781688)scale(0.1 -0.1)">
       <use xlink:href="#DejaVuSans-31"/>
       <use xlink:href="#DejaVuSans-2e" x="63.623047"/>
       <use xlink:href="#DejaVuSans-32" x="95.410156"/>
      </g>
     </g>
    </g>
   </g>
   <g id="line2d_50">
    <path d="M 68.184761 515.962225 
L 68.456588 515.962225 
L 69.543495 512.043746 
L 70.358978 507.850975 
L 70.902229 505.407326 
L 71.98954 502.669511 
L 72.533195 499.774227 
L 73.076446 495.0004 
L 74.435584 478.774723 
L 74.707008 478.219869 
L 74.978836 478.746198 
L 75.794319 481.503338 
L 76.33757 482.384586 
L 76.609398 482.557188 
L 76.881225 482.515905 
L 77.153053 482.181844 
L 77.968536 480.253713 
L 78.239959 480.35504 
L 78.511787 481.258377 
L 79.870925 489.038923 
L 80.142349 489.58684 
L 80.414176 489.65116 
L 80.686004 489.285126 
L 80.957832 488.528813 
L 81.501487 485.92055 
L 82.316566 479.785321 
L 83.132049 472.295609 
L 83.6753 464.55003 
L 83.947128 458.216178 
L 84.218955 448.948891 
L 84.762611 416.521522 
L 85.849517 313.737207 
L 86.121345 308.84 
L 86.393173 314.378345 
L 86.936828 328.483257 
L 87.208252 332.691887 
L 87.480079 339.133953 
L 87.751907 352.9287 
L 88.56739 415.587872 
L 89.110641 435.051857 
L 89.382469 439.341887 
L 89.654296 441.769184 
L 89.926124 442.910208 
L 90.197952 443.024596 
L 90.469779 442.343124 
L 91.828513 436.762375 
L 92.372169 431.265058 
L 92.91542 425.7047 
L 93.187248 426.290254 
L 93.730903 434.960777 
L 94.274558 443.093856 
L 94.817809 447.408477 
L 95.361465 449.806645 
L 95.633292 449.922936 
L 95.90512 449.169255 
L 96.720199 445.404721 
L 96.992027 446.255477 
L 97.263854 449.200997 
L 97.807509 457.019615 
L 98.078933 458.710155 
L 98.350761 458.263369 
L 99.166244 452.590595 
L 99.438071 452.810037 
L 99.981323 455.541686 
L 100.25315 455.552809 
L 100.524978 454.180424 
L 101.883712 443.685278 
L 102.15554 439.130571 
L 102.699195 423.3534 
L 103.24285 403.071582 
L 103.514274 397.560266 
L 103.786102 399.066547 
L 104.601584 419.879253 
L 104.873412 423.434424 
L 105.14524 425.08875 
L 105.416663 425.556775 
L 105.688491 425.594091 
L 105.960319 425.948143 
L 106.232146 427.329193 
L 106.503974 430.126007 
L 107.319053 443.856598 
L 107.862708 452.334339 
L 108.134536 454.534511 
L 108.406363 454.598364 
L 108.678191 452.46924 
L 109.221442 443.543919 
L 109.765098 435.648569 
L 110.036925 436.263515 
L 110.308753 441.207495 
L 111.123832 464.684559 
L 111.39566 469.105963 
L 111.667487 470.763571 
L 111.939315 469.860298 
L 112.211142 466.826626 
L 112.754394 456.373355 
L 113.569877 438.471249 
L 114.113532 431.726069 
L 114.928611 425.451542 
L 115.200438 424.383199 
L 115.472266 425.515522 
L 115.744094 429.754456 
L 116.831 456.293857 
L 117.102828 458.705726 
L 117.374656 458.637446 
L 117.646483 456.355975 
L 118.189735 447.383285 
L 118.73339 438.610657 
L 119.005217 436.982089 
L 119.277045 437.420829 
L 119.548873 438.650307 
L 119.820296 439.138024 
L 120.092124 438.012876 
L 120.363952 435.164351 
L 121.722686 414.670035 
L 121.994514 413.850746 
L 122.266341 414.041335 
L 122.538169 414.009292 
L 122.809996 412.791223 
L 123.081824 410.041235 
L 123.896903 399.462069 
L 124.168731 399.511775 
L 124.440558 402.827466 
L 125.799292 431.497982 
L 126.342948 436.965863 
L 127.158027 441.798056 
L 127.97351 449.043757 
L 128.245337 449.237066 
L 128.517165 446.992766 
L 128.788589 442.171794 
L 129.332244 425.000309 
L 129.875899 398.329327 
L 130.419554 369.957311 
L 130.690978 363.645451 
L 130.962806 366.541946 
L 132.321944 412.733813 
L 132.865195 421.080546 
L 133.40885 426.129074 
L 133.952506 428.411225 
L 134.495757 429.601521 
L 135.31124 431.852946 
L 135.583067 432.043455 
L 135.854895 431.813816 
L 136.398146 430.820113 
L 136.669974 430.640055 
L 136.941802 431.068043 
L 137.485457 433.129607 
L 137.757285 433.527954 
L 138.028708 432.884845 
L 138.844191 427.825486 
L 139.116019 427.234114 
L 139.387846 427.4184 
L 139.931098 428.155897 
L 140.202925 428.396405 
L 140.474753 428.871133 
L 140.746581 429.813384 
L 141.290236 433.219192 
L 143.735877 455.0396 
L 144.55136 463.785593 
L 144.823187 465.197265 
L 145.094611 465.492917 
L 145.366439 464.726696 
L 145.910094 461.076426 
L 146.453749 457.56428 
L 146.725577 456.888618 
L 146.997 456.989571 
L 147.540656 457.881926 
L 148.356139 458.447606 
L 149.171218 460.269818 
L 149.443045 460.08605 
L 149.714873 459.013492 
L 150.258528 454.734378 
L 150.801779 450.259137 
L 151.88909 444.483237 
L 152.432341 437.639756 
L 152.975997 429.938529 
L 153.247824 427.523797 
L 153.519652 426.851785 
L 153.791479 428.114319 
L 154.334731 434.688112 
L 154.878386 440.414219 
L 155.150214 441.351195 
L 155.422041 441.130953 
L 157.052603 435.910595 
L 157.324431 435.679704 
L 157.596258 435.973027 
L 157.867682 436.831349 
L 159.22682 443.156147 
L 159.770072 448.582712 
L 160.585554 459.340191 
L 161.12921 464.029052 
L 161.672461 466.815599 
L 162.487944 470.026261 
L 163.031599 473.406941 
L 163.574851 477.075618 
L 163.846678 478.268471 
L 164.118506 478.81191 
L 164.390333 478.81431 
L 164.933585 477.934743 
L 166.020895 475.552015 
L 166.835974 472.96307 
L 167.107802 472.816206 
L 167.923285 473.456085 
L 168.46694 473.166661 
L 168.738364 473.200154 
L 169.553847 474.251928 
L 169.825674 474.234747 
L 170.097502 473.804146 
L 171.184408 470.502298 
L 171.456236 470.479554 
L 171.728064 470.972062 
L 172.543143 472.889692 
L 172.81497 473.107304 
L 173.086798 473.075353 
L 173.358626 472.821761 
L 173.902281 471.688597 
L 175.804266 466.616707 
L 176.347922 464.095356 
L 177.163404 459.070488 
L 177.435232 458.496628 
L 177.706656 459.089815 
L 178.250311 462.763804 
L 178.793966 466.182955 
L 179.065794 466.98244 
L 179.337622 467.152795 
L 179.609045 466.752239 
L 180.152701 464.885952 
L 180.696356 462.794328 
L 180.968183 462.220361 
L 181.239607 462.260385 
L 181.511435 462.92228 
L 182.05509 465.094612 
L 182.326918 465.559091 
L 182.598745 464.947593 
L 182.870573 463.146798 
L 183.685652 453.947621 
L 184.772962 442.069149 
L 185.044386 440.755904 
L 185.316214 441.495817 
L 185.588041 444.577242 
L 186.674948 462.649824 
L 187.218603 466.703037 
L 188.849165 474.403414 
L 189.39282 476.261461 
L 189.664648 476.796589 
L 189.936476 476.984174 
L 190.208303 476.81717 
L 190.479727 476.270984 
L 191.023382 474.037959 
L 192.110289 467.426886 
L 193.197599 460.608381 
L 193.469427 460.503693 
L 193.741255 462.019382 
L 194.284506 468.89401 
L 194.828161 475.826517 
L 195.371816 479.720592 
L 195.915068 481.593173 
L 196.458723 482.478721 
L 196.730551 482.688855 
L 197.002378 482.755181 
L 197.274206 482.69835 
L 197.54563 482.461883 
L 197.817457 481.984803 
L 198.361112 480.239557 
L 199.719847 473.999449 
L 199.991674 473.505055 
L 200.263502 473.402622 
L 200.53533 473.602864 
L 200.807157 474.105934 
L 201.350409 476.120138 
L 202.165891 479.695254 
L 202.437719 480.289045 
L 202.709547 480.543294 
L 202.98097 480.484223 
L 203.524626 480.187366 
L 203.796453 480.287259 
L 204.340109 481.256359 
L 205.155188 482.786492 
L 205.698843 483.292266 
L 205.97067 483.321518 
L 206.242498 483.041082 
L 206.513922 482.38661 
L 207.057577 479.690517 
L 207.601232 475.299955 
L 208.416311 468.157975 
L 208.688139 466.841412 
L 208.959966 466.458982 
L 209.231794 466.878505 
L 211.406011 474.091302 
L 211.949263 475.118984 
L 212.22109 475.213674 
L 212.764745 474.832109 
L 213.308401 474.400727 
L 213.851652 474.13998 
L 214.395307 473.547242 
L 215.21079 472.204551 
L 215.482618 472.021779 
L 215.754042 472.033129 
L 216.025869 472.215968 
L 217.384603 473.762637 
L 218.471914 474.159162 
L 218.743741 474.615826 
L 219.830648 477.494984 
L 220.102476 477.612556 
L 220.374303 477.370451 
L 220.917959 476.297938 
L 221.733038 474.810716 
L 222.276693 474.387306 
L 222.54852 474.253896 
L 222.819944 473.900286 
L 223.091772 472.979554 
L 223.635427 468.989164 
L 224.45091 462.20201 
L 224.722334 461.351319 
L 224.994161 461.497716 
L 225.265989 462.491669 
L 225.809644 465.992275 
L 227.712034 480.12113 
L 227.983861 481.108144 
L 228.255285 481.559344 
L 228.527113 481.474004 
L 228.79894 480.850702 
L 229.070768 479.7006 
L 229.614423 475.981941 
L 230.429502 469.566098 
L 230.70133 468.703446 
L 230.973157 469.212759 
L 231.516813 473.649166 
L 232.060064 477.780379 
L 232.331892 478.428024 
L 232.603719 478.166538 
L 233.419202 475.816071 
L 233.690626 475.69128 
L 233.962453 476.213613 
L 234.506109 478.668548 
L 235.321592 482.85087 
L 235.864843 484.413899 
L 236.408498 485.681359 
L 236.952153 487.607781 
L 239.125967 496.799677 
L 239.941449 499.597601 
L 240.485105 500.882567 
L 242.115667 502.89056 
L 242.658918 503.278357 
L 243.202573 503.17322 
L 243.746228 502.937293 
L 244.018056 502.967337 
L 244.289884 503.153441 
L 244.833135 504.052688 
L 245.920446 506.046347 
L 246.192273 506.254861 
L 246.463697 506.256348 
L 247.007352 505.784311 
L 248.094259 504.620931 
L 249.181569 503.759767 
L 250.268476 503.430456 
L 251.355786 503.19508 
L 251.899038 503.589686 
L 253.5296 505.716525 
L 253.801427 505.778031 
L 254.073255 505.631622 
L 254.345082 505.235465 
L 254.888738 503.709408 
L 255.431989 501.922774 
L 255.703817 501.460592 
L 255.975644 501.475103 
L 256.247472 501.941236 
L 257.062955 503.878498 
L 257.334379 504.041407 
L 257.606206 503.917326 
L 258.149861 503.12132 
L 258.693517 502.275235 
L 258.96494 502.091865 
L 259.236768 502.216085 
L 259.508596 502.660847 
L 260.052251 504.256072 
L 260.86733 506.8338 
L 261.139157 507.291017 
L 261.410985 507.514744 
L 261.682813 507.502823 
L 261.95464 507.278484 
L 262.498296 506.24504 
L 263.041547 504.396212 
L 264.128857 500.04357 
L 264.400281 499.826075 
L 264.672109 500.274039 
L 265.215764 502.693936 
L 265.759419 505.351269 
L 266.302671 506.869744 
L 266.846326 507.452304 
L 267.389981 507.550992 
L 267.661809 507.455852 
L 267.933636 507.223177 
L 268.20506 506.791289 
L 268.748715 505.077463 
L 270.10745 498.286656 
L 270.379277 497.957179 
L 270.651105 498.366447 
L 270.922933 499.503788 
L 272.281667 507.164816 
L 272.825322 508.245812 
L 273.640401 508.755654 
L 274.727711 509.322642 
L 275.270963 509.168789 
L 275.814618 508.501865 
L 276.630101 507.141652 
L 276.901929 506.937152 
L 277.173352 506.987913 
L 277.717008 507.779146 
L 278.260663 509.099257 
L 279.075742 511.854837 
L 279.891225 514.204346 
L 280.43488 515.045579 
L 280.978131 515.498267 
L 281.793614 515.773268 
L 283.152348 515.791196 
L 284.78291 515.869036 
L 286.141644 515.572452 
L 286.957127 515.431275 
L 287.77261 515.718373 
L 288.587689 515.906469 
L 290.218251 515.991757 
L 291.848813 516.51811 
L 293.207951 516.719065 
L 339.679974 516.84 
L 339.679974 516.84 
" clip-path="url(#p504714f606)" style="fill: none; stroke: #ff0000; stroke-width: 1.5; stroke-linecap: square"/>
   </g>
   <g id="patch_15">
    <path d="M 54.61 527.24 
L 54.61 298.44 
" style="fill: none; stroke: #000000; stroke-width: 0.8; stroke-linejoin: miter; stroke-linecap: square"/>
   </g>
   <g id="patch_16">
    <path d="M 353.254734 527.24 
L 353.254734 298.44 
" style="fill: none; stroke: #000000; stroke-width: 0.8; stroke-linejoin: miter; stroke-linecap: square"/>
   </g>
   <g id="patch_17">
    <path d="M 54.61 527.24 
L 353.254734 527.24 
" style="fill: none; stroke: #000000; stroke-width: 0.8; stroke-linejoin: miter; stroke-linecap: square"/>
   </g>
   <g id="patch_18">
    <path d="M 54.61 298.44 
L 353.254734 298.44 
" style="fill: none; stroke: #000000; stroke-width: 0.8; stroke-linejoin: miter; stroke-linecap: square"/>
   </g>
   <g id="legend_3">
    <g id="patch_19">
     <path d="M 303.757859 321.118125 
L 346.254734 321.118125 
Q 348.254734 321.118125 348.254734 319.118125 
L 348.254734 305.44 
Q 348.254734 303.44 346.254734 303.44 
L 303.757859 303.44 
Q 301.757859 303.44 301.757859 305.44 
L 301.757859 319.118125 
Q 301.757859 321.118125 303.757859 321.118125 
z
" style="fill: #ffffff; opacity: 0.8; stroke: #cccccc; stroke-linejoin: miter"/>
    </g>
    <g id="line2d_51">
     <path d="M 305.757859 311.538437 
L 315.757859 311.538437 
L 325.757859 311.538437 
" style="fill: none; stroke: #ff0000; stroke-width: 1.5; stroke-linecap: square"/>
    </g>
    <g id="text_48">
     <!-- zz -->
     <g transform="translate(333.757859 315.038437)scale(0.1 -0.1)">
      <defs>
       <path id="DejaVuSans-7a" d="M 353 3500 
L 3084 3500 
L 3084 2975 
L 922 459 
L 3084 459 
L 3084 0 
L 275 0 
L 275 525 
L 2438 3041 
L 353 3041 
L 353 3500 
z
" transform="scale(0.015625)"/>
      </defs>
      <use xlink:href="#DejaVuSans-7a"/>
      <use xlink:href="#DejaVuSans-7a" x="52.490234"/>
     </g>
    </g>
   </g>
  </g>
  <g id="axes_4">
   <g id="patch_20">
    <path d="M 406.15 527.24 
L 704.794734 527.24 
L 704.794734 298.44 
L 406.15 298.44 
z
" style="fill: #ffffff"/>
   </g>
   <g id="matplotlib.axis_7">
    <g id="xtick_25">
     <g id="line2d_52">
      <g>
       <use xlink:href="#m10aa0b29d6" x="446.874282" y="527.24" style="stroke: #000000; stroke-width: 0.8"/>
      </g>
     </g>
     <g id="text_49">
      <!-- 0.04 -->
      <g transform="translate(431.551626 541.838437)scale(0.1 -0.1)">
       <defs>
        <path id="DejaVuSans-2212" d="M 678 2272 
L 4684 2272 
L 4684 1741 
L 678 1741 
L 678 2272 
z
" transform="scale(0.015625)"/>
       </defs>
       <use xlink:href="#DejaVuSans-2212"/>
       <use xlink:href="#DejaVuSans-30" x="83.789062"/>
       <use xlink:href="#DejaVuSans-2e" x="147.412109"/>
       <use xlink:href="#DejaVuSans-30" x="179.199219"/>
       <use xlink:href="#DejaVuSans-34" x="242.822266"/>
      </g>
     </g>
    </g>
    <g id="xtick_26">
     <g id="line2d_53">
      <g>
       <use xlink:href="#m10aa0b29d6" x="501.173325" y="527.24" style="stroke: #000000; stroke-width: 0.8"/>
      </g>
     </g>
     <g id="text_50">
      <!-- 0.02 -->
      <g transform="translate(485.850668 541.838437)scale(0.1 -0.1)">
       <use xlink:href="#DejaVuSans-2212"/>
       <use xlink:href="#DejaVuSans-30" x="83.789062"/>
       <use xlink:href="#DejaVuSans-2e" x="147.412109"/>
       <use xlink:href="#DejaVuSans-30" x="179.199219"/>
       <use xlink:href="#DejaVuSans-32" x="242.822266"/>
      </g>
     </g>
    </g>
    <g id="xtick_27">
     <g id="line2d_54">
      <g>
       <use xlink:href="#m10aa0b29d6" x="555.472367" y="527.24" style="stroke: #000000; stroke-width: 0.8"/>
      </g>
     </g>
     <g id="text_51">
      <!-- 0.00 -->
      <g transform="translate(544.339555 541.838437)scale(0.1 -0.1)">
       <use xlink:href="#DejaVuSans-30"/>
       <use xlink:href="#DejaVuSans-2e" x="63.623047"/>
       <use xlink:href="#DejaVuSans-30" x="95.410156"/>
       <use xlink:href="#DejaVuSans-30" x="159.033203"/>
      </g>
     </g>
    </g>
    <g id="xtick_28">
     <g id="line2d_55">
      <g>
       <use xlink:href="#m10aa0b29d6" x="609.77141" y="527.24" style="stroke: #000000; stroke-width: 0.8"/>
      </g>
     </g>
     <g id="text_52">
      <!-- 0.02 -->
      <g transform="translate(598.638597 541.838437)scale(0.1 -0.1)">
       <use xlink:href="#DejaVuSans-30"/>
       <use xlink:href="#DejaVuSans-2e" x="63.623047"/>
       <use xlink:href="#DejaVuSans-30" x="95.410156"/>
       <use xlink:href="#DejaVuSans-32" x="159.033203"/>
      </g>
     </g>
    </g>
    <g id="xtick_29">
     <g id="line2d_56">
      <g>
       <use xlink:href="#m10aa0b29d6" x="664.070452" y="527.24" style="stroke: #000000; stroke-width: 0.8"/>
      </g>
     </g>
     <g id="text_53">
      <!-- 0.04 -->
      <g transform="translate(652.93764 541.838437)scale(0.1 -0.1)">
       <use xlink:href="#DejaVuSans-30"/>
       <use xlink:href="#DejaVuSans-2e" x="63.623047"/>
       <use xlink:href="#DejaVuSans-30" x="95.410156"/>
       <use xlink:href="#DejaVuSans-34" x="159.033203"/>
      </g>
     </g>
    </g>
   </g>
   <g id="matplotlib.axis_8">
    <g id="ytick_22">
     <g id="line2d_57">
      <g>
       <use xlink:href="#mebd2ccd01e" x="406.15" y="496.04" style="stroke: #000000; stroke-width: 0.8"/>
      </g>
     </g>
     <g id="text_54">
      <!-- 0.04 -->
      <g transform="translate(368.504688 499.839219)scale(0.1 -0.1)">
       <use xlink:href="#DejaVuSans-2212"/>
       <use xlink:href="#DejaVuSans-30" x="83.789062"/>
       <use xlink:href="#DejaVuSans-2e" x="147.412109"/>
       <use xlink:href="#DejaVuSans-30" x="179.199219"/>
       <use xlink:href="#DejaVuSans-34" x="242.822266"/>
      </g>
     </g>
    </g>
    <g id="ytick_23">
     <g id="line2d_58">
      <g>
       <use xlink:href="#mebd2ccd01e" x="406.15" y="454.44" style="stroke: #000000; stroke-width: 0.8"/>
      </g>
     </g>
     <g id="text_55">
      <!-- 0.02 -->
      <g transform="translate(368.504688 458.239219)scale(0.1 -0.1)">
       <use xlink:href="#DejaVuSans-2212"/>
       <use xlink:href="#DejaVuSans-30" x="83.789062"/>
       <use xlink:href="#DejaVuSans-2e" x="147.412109"/>
       <use xlink:href="#DejaVuSans-30" x="179.199219"/>
       <use xlink:href="#DejaVuSans-32" x="242.822266"/>
      </g>
     </g>
    </g>
    <g id="ytick_24">
     <g id="line2d_59">
      <g>
       <use xlink:href="#mebd2ccd01e" x="406.15" y="412.84" style="stroke: #000000; stroke-width: 0.8"/>
      </g>
     </g>
     <g id="text_56">
      <!-- 0.00 -->
      <g transform="translate(376.884375 416.639219)scale(0.1 -0.1)">
       <use xlink:href="#DejaVuSans-30"/>
       <use xlink:href="#DejaVuSans-2e" x="63.623047"/>
       <use xlink:href="#DejaVuSans-30" x="95.410156"/>
       <use xlink:href="#DejaVuSans-30" x="159.033203"/>
      </g>
     </g>
    </g>
    <g id="ytick_25">
     <g id="line2d_60">
      <g>
       <use xlink:href="#mebd2ccd01e" x="406.15" y="371.24" style="stroke: #000000; stroke-width: 0.8"/>
      </g>
     </g>
     <g id="text_57">
      <!-- 0.02 -->
      <g transform="translate(376.884375 375.039219)scale(0.1 -0.1)">
       <use xlink:href="#DejaVuSans-30"/>
       <use xlink:href="#DejaVuSans-2e" x="63.623047"/>
       <use xlink:href="#DejaVuSans-30" x="95.410156"/>
       <use xlink:href="#DejaVuSans-32" x="159.033203"/>
      </g>
     </g>
    </g>
    <g id="ytick_26">
     <g id="line2d_61">
      <g>
       <use xlink:href="#mebd2ccd01e" x="406.15" y="329.64" style="stroke: #000000; stroke-width: 0.8"/>
      </g>
     </g>
     <g id="text_58">
      <!-- 0.04 -->
      <g transform="translate(376.884375 333.439219)scale(0.1 -0.1)">
       <use xlink:href="#DejaVuSans-30"/>
       <use xlink:href="#DejaVuSans-2e" x="63.623047"/>
       <use xlink:href="#DejaVuSans-30" x="95.410156"/>
       <use xlink:href="#DejaVuSans-34" x="159.033203"/>
      </g>
     </g>
    </g>
   </g>
   <g id="line2d_62">
    <path d="M 0 0 
" clip-path="url(#pfcc59751f1)" style="fill: none; stroke: #008000; stroke-width: 1.5; stroke-linecap: square"/>
   </g>
   <g id="patch_21">
    <path d="M 406.15 527.24 
L 406.15 298.44 
" style="fill: none; stroke: #000000; stroke-width: 0.8; stroke-linejoin: miter; stroke-linecap: square"/>
   </g>
   <g id="patch_22">
    <path d="M 704.794734 527.24 
L 704.794734 298.44 
" style="fill: none; stroke: #000000; stroke-width: 0.8; stroke-linejoin: miter; stroke-linecap: square"/>
   </g>
   <g id="patch_23">
    <path d="M 406.15 527.24 
L 704.794734 527.24 
" style="fill: none; stroke: #000000; stroke-width: 0.8; stroke-linejoin: miter; stroke-linecap: square"/>
   </g>
   <g id="patch_24">
    <path d="M 406.15 298.44 
L 704.794734 298.44 
" style="fill: none; stroke: #000000; stroke-width: 0.8; stroke-linejoin: miter; stroke-linecap: square"/>
   </g>
   <g id="legend_4">
    <g id="patch_25">
     <path d="M 653.957234 321.118125 
L 697.794734 321.118125 
Q 699.794734 321.118125 699.794734 319.118125 
L 699.794734 305.44 
Q 699.794734 303.44 697.794734 303.44 
L 653.957234 303.44 
Q 651.957234 303.44 651.957234 305.44 
L 651.957234 319.118125 
Q 651.957234 321.118125 653.957234 321.118125 
z
" style="fill: #ffffff; opacity: 0.8; stroke: #cccccc; stroke-linejoin: miter"/>
    </g>
    <g id="line2d_63">
     <path d="M 655.957234 311.538437 
L 665.957234 311.538437 
L 675.957234 311.538437 
" style="fill: none; stroke: #008000; stroke-width: 1.5; stroke-linecap: square"/>
    </g>
    <g id="text_59">
     <!-- xy -->
     <g transform="translate(683.957234 315.038437)scale(0.1 -0.1)">
      <use xlink:href="#DejaVuSans-78"/>
      <use xlink:href="#DejaVuSans-79" x="59.179688"/>
     </g>
    </g>
   </g>
  </g>
  <g id="text_60">
   <!-- Energyloss spectra -->
   <g transform="translate(265.125 26.716875)scale(0.2 -0.2)">
    <defs>
     <path id="DejaVuSans-45" d="M 628 4666 
L 3578 4666 
L 3578 4134 
L 1259 4134 
L 1259 2753 
L 3481 2753 
L 3481 2222 
L 1259 2222 
L 1259 531 
L 3634 531 
L 3634 0 
L 628 0 
L 628 4666 
z
" transform="scale(0.015625)"/>
     <path id="DejaVuSans-6e" d="M 3513 2113 
L 3513 0 
L 2938 0 
L 2938 2094 
Q 2938 2591 2744 2837 
Q 2550 3084 2163 3084 
Q 1697 3084 1428 2787 
Q 1159 2491 1159 1978 
L 1159 0 
L 581 0 
L 581 3500 
L 1159 3500 
L 1159 2956 
Q 1366 3272 1645 3428 
Q 1925 3584 2291 3584 
Q 2894 3584 3203 3211 
Q 3513 2838 3513 2113 
z
" transform="scale(0.015625)"/>
     <path id="DejaVuSans-65" d="M 3597 1894 
L 3597 1613 
L 953 1613 
Q 991 1019 1311 708 
Q 1631 397 2203 397 
Q 2534 397 2845 478 
Q 3156 559 3463 722 
L 3463 178 
Q 3153 47 2828 -22 
Q 2503 -91 2169 -91 
Q 1331 -91 842 396 
Q 353 884 353 1716 
Q 353 2575 817 3079 
Q 1281 3584 2069 3584 
Q 2775 3584 3186 3129 
Q 3597 2675 3597 1894 
z
M 3022 2063 
Q 3016 2534 2758 2815 
Q 2500 3097 2075 3097 
Q 1594 3097 1305 2825 
Q 1016 2553 972 2059 
L 3022 2063 
z
" transform="scale(0.015625)"/>
     <path id="DejaVuSans-72" d="M 2631 2963 
Q 2534 3019 2420 3045 
Q 2306 3072 2169 3072 
Q 1681 3072 1420 2755 
Q 1159 2438 1159 1844 
L 1159 0 
L 581 0 
L 581 3500 
L 1159 3500 
L 1159 2956 
Q 1341 3275 1631 3429 
Q 1922 3584 2338 3584 
Q 2397 3584 2469 3576 
Q 2541 3569 2628 3553 
L 2631 2963 
z
" transform="scale(0.015625)"/>
     <path id="DejaVuSans-67" d="M 2906 1791 
Q 2906 2416 2648 2759 
Q 2391 3103 1925 3103 
Q 1463 3103 1205 2759 
Q 947 2416 947 1791 
Q 947 1169 1205 825 
Q 1463 481 1925 481 
Q 2391 481 2648 825 
Q 2906 1169 2906 1791 
z
M 3481 434 
Q 3481 -459 3084 -895 
Q 2688 -1331 1869 -1331 
Q 1566 -1331 1297 -1286 
Q 1028 -1241 775 -1147 
L 775 -588 
Q 1028 -725 1275 -790 
Q 1522 -856 1778 -856 
Q 2344 -856 2625 -561 
Q 2906 -266 2906 331 
L 2906 616 
Q 2728 306 2450 153 
Q 2172 0 1784 0 
Q 1141 0 747 490 
Q 353 981 353 1791 
Q 353 2603 747 3093 
Q 1141 3584 1784 3584 
Q 2172 3584 2450 3431 
Q 2728 3278 2906 2969 
L 2906 3500 
L 3481 3500 
L 3481 434 
z
" transform="scale(0.015625)"/>
     <path id="DejaVuSans-6c" d="M 603 4863 
L 1178 4863 
L 1178 0 
L 603 0 
L 603 4863 
z
" transform="scale(0.015625)"/>
     <path id="DejaVuSans-6f" d="M 1959 3097 
Q 1497 3097 1228 2736 
Q 959 2375 959 1747 
Q 959 1119 1226 758 
Q 1494 397 1959 397 
Q 2419 397 2687 759 
Q 2956 1122 2956 1747 
Q 2956 2369 2687 2733 
Q 2419 3097 1959 3097 
z
M 1959 3584 
Q 2709 3584 3137 3096 
Q 3566 2609 3566 1747 
Q 3566 888 3137 398 
Q 2709 -91 1959 -91 
Q 1206 -91 779 398 
Q 353 888 353 1747 
Q 353 2609 779 3096 
Q 1206 3584 1959 3584 
z
" transform="scale(0.015625)"/>
     <path id="DejaVuSans-73" d="M 2834 3397 
L 2834 2853 
Q 2591 2978 2328 3040 
Q 2066 3103 1784 3103 
Q 1356 3103 1142 2972 
Q 928 2841 928 2578 
Q 928 2378 1081 2264 
Q 1234 2150 1697 2047 
L 1894 2003 
Q 2506 1872 2764 1633 
Q 3022 1394 3022 966 
Q 3022 478 2636 193 
Q 2250 -91 1575 -91 
Q 1294 -91 989 -36 
Q 684 19 347 128 
L 347 722 
Q 666 556 975 473 
Q 1284 391 1588 391 
Q 1994 391 2212 530 
Q 2431 669 2431 922 
Q 2431 1156 2273 1281 
Q 2116 1406 1581 1522 
L 1381 1569 
Q 847 1681 609 1914 
Q 372 2147 372 2553 
Q 372 3047 722 3315 
Q 1072 3584 1716 3584 
Q 2034 3584 2315 3537 
Q 2597 3491 2834 3397 
z
" transform="scale(0.015625)"/>
     <path id="DejaVuSans-20" transform="scale(0.015625)"/>
     <path id="DejaVuSans-70" d="M 1159 525 
L 1159 -1331 
L 581 -1331 
L 581 3500 
L 1159 3500 
L 1159 2969 
Q 1341 3281 1617 3432 
Q 1894 3584 2278 3584 
Q 2916 3584 3314 3078 
Q 3713 2572 3713 1747 
Q 3713 922 3314 415 
Q 2916 -91 2278 -91 
Q 1894 -91 1617 61 
Q 1341 213 1159 525 
z
M 3116 1747 
Q 3116 2381 2855 2742 
Q 2594 3103 2138 3103 
Q 1681 3103 1420 2742 
Q 1159 2381 1159 1747 
Q 1159 1113 1420 752 
Q 1681 391 2138 391 
Q 2594 391 2855 752 
Q 3116 1113 3116 1747 
z
" transform="scale(0.015625)"/>
     <path id="DejaVuSans-63" d="M 3122 3366 
L 3122 2828 
Q 2878 2963 2633 3030 
Q 2388 3097 2138 3097 
Q 1578 3097 1268 2742 
Q 959 2388 959 1747 
Q 959 1106 1268 751 
Q 1578 397 2138 397 
Q 2388 397 2633 464 
Q 2878 531 3122 666 
L 3122 134 
Q 2881 22 2623 -34 
Q 2366 -91 2075 -91 
Q 1284 -91 818 406 
Q 353 903 353 1747 
Q 353 2603 823 3093 
Q 1294 3584 2113 3584 
Q 2378 3584 2631 3529 
Q 2884 3475 3122 3366 
z
" transform="scale(0.015625)"/>
     <path id="DejaVuSans-74" d="M 1172 4494 
L 1172 3500 
L 2356 3500 
L 2356 3053 
L 1172 3053 
L 1172 1153 
Q 1172 725 1289 603 
Q 1406 481 1766 481 
L 2356 481 
L 2356 0 
L 1766 0 
Q 1100 0 847 248 
Q 594 497 594 1153 
L 594 3053 
L 172 3053 
L 172 3500 
L 594 3500 
L 594 4494 
L 1172 4494 
z
" transform="scale(0.015625)"/>
     <path id="DejaVuSans-61" d="M 2194 1759 
Q 1497 1759 1228 1600 
Q 959 1441 959 1056 
Q 959 750 1161 570 
Q 1363 391 1709 391 
Q 2188 391 2477 730 
Q 2766 1069 2766 1631 
L 2766 1759 
L 2194 1759 
z
M 3341 1997 
L 3341 0 
L 2766 0 
L 2766 531 
Q 2569 213 2275 61 
Q 1981 -91 1556 -91 
Q 1019 -91 701 211 
Q 384 513 384 1019 
Q 384 1609 779 1909 
Q 1175 2209 1959 2209 
L 2766 2209 
L 2766 2266 
Q 2766 2663 2505 2880 
Q 2244 3097 1772 3097 
Q 1472 3097 1187 3025 
Q 903 2953 641 2809 
L 641 3341 
Q 956 3463 1253 3523 
Q 1550 3584 1831 3584 
Q 2591 3584 2966 3190 
Q 3341 2797 3341 1997 
z
" transform="scale(0.015625)"/>
    </defs>
    <use xlink:href="#DejaVuSans-45"/>
    <use xlink:href="#DejaVuSans-6e" x="63.183594"/>
    <use xlink:href="#DejaVuSans-65" x="126.5625"/>
    <use xlink:href="#DejaVuSans-72" x="188.085938"/>
    <use xlink:href="#DejaVuSans-67" x="227.449219"/>
    <use xlink:href="#DejaVuSans-79" x="290.925781"/>
    <use xlink:href="#DejaVuSans-6c" x="350.105469"/>
    <use xlink:href="#DejaVuSans-6f" x="377.888672"/>
    <use xlink:href="#DejaVuSans-73" x="439.070312"/>
    <use xlink:href="#DejaVuSans-73" x="491.169922"/>
    <use xlink:href="#DejaVuSans-20" x="543.269531"/>
    <use xlink:href="#DejaVuSans-73" x="575.056641"/>
    <use xlink:href="#DejaVuSans-70" x="627.15625"/>
    <use xlink:href="#DejaVuSans-65" x="690.632812"/>
    <use xlink:href="#DejaVuSans-63" x="752.15625"/>
    <use xlink:href="#DejaVuSans-74" x="807.136719"/>
    <use xlink:href="#DejaVuSans-72" x="846.345703"/>
    <use xlink:href="#DejaVuSans-61" x="887.458984"/>
   </g>
  </g>
  <g id="text_61">
   <!-- cm^-1 -->
   <g transform="translate(21.998438 304.794531)rotate(-90)scale(0.1 -0.1)">
    <defs>
     <path id="DejaVuSans-6d" d="M 3328 2828 
Q 3544 3216 3844 3400 
Q 4144 3584 4550 3584 
Q 5097 3584 5394 3201 
Q 5691 2819 5691 2113 
L 5691 0 
L 5113 0 
L 5113 2094 
Q 5113 2597 4934 2840 
Q 4756 3084 4391 3084 
Q 3944 3084 3684 2787 
Q 3425 2491 3425 1978 
L 3425 0 
L 2847 0 
L 2847 2094 
Q 2847 2600 2669 2842 
Q 2491 3084 2119 3084 
Q 1678 3084 1418 2786 
Q 1159 2488 1159 1978 
L 1159 0 
L 581 0 
L 581 3500 
L 1159 3500 
L 1159 2956 
Q 1356 3278 1631 3431 
Q 1906 3584 2284 3584 
Q 2666 3584 2933 3390 
Q 3200 3197 3328 2828 
z
" transform="scale(0.015625)"/>
     <path id="DejaVuSans-5e" d="M 2988 4666 
L 4684 2925 
L 4056 2925 
L 2681 4159 
L 1306 2925 
L 678 2925 
L 2375 4666 
L 2988 4666 
z
" transform="scale(0.015625)"/>
     <path id="DejaVuSans-2d" d="M 313 2009 
L 1997 2009 
L 1997 1497 
L 313 1497 
L 313 2009 
z
" transform="scale(0.015625)"/>
    </defs>
    <use xlink:href="#DejaVuSans-63"/>
    <use xlink:href="#DejaVuSans-6d" x="54.980469"/>
    <use xlink:href="#DejaVuSans-5e" x="152.392578"/>
    <use xlink:href="#DejaVuSans-2d" x="236.181641"/>
    <use xlink:href="#DejaVuSans-31" x="272.265625"/>
   </g>
  </g>
  <g id="text_62">
   <!-- Energy (eV) -->
   <g transform="translate(330.50625 568.160313)scale(0.1 -0.1)">
    <defs>
     <path id="DejaVuSans-28" d="M 1984 4856 
Q 1566 4138 1362 3434 
Q 1159 2731 1159 2009 
Q 1159 1288 1364 580 
Q 1569 -128 1984 -844 
L 1484 -844 
Q 1016 -109 783 600 
Q 550 1309 550 2009 
Q 550 2706 781 3412 
Q 1013 4119 1484 4856 
L 1984 4856 
z
" transform="scale(0.015625)"/>
     <path id="DejaVuSans-56" d="M 1831 0 
L 50 4666 
L 709 4666 
L 2188 738 
L 3669 4666 
L 4325 4666 
L 2547 0 
L 1831 0 
z
" transform="scale(0.015625)"/>
     <path id="DejaVuSans-29" d="M 513 4856 
L 1013 4856 
Q 1481 4119 1714 3412 
Q 1947 2706 1947 2009 
Q 1947 1309 1714 600 
Q 1481 -109 1013 -844 
L 513 -844 
Q 928 -128 1133 580 
Q 1338 1288 1338 2009 
Q 1338 2731 1133 3434 
Q 928 4138 513 4856 
z
" transform="scale(0.015625)"/>
    </defs>
    <use xlink:href="#DejaVuSans-45"/>
    <use xlink:href="#DejaVuSans-6e" x="63.183594"/>
    <use xlink:href="#DejaVuSans-65" x="126.5625"/>
    <use xlink:href="#DejaVuSans-72" x="188.085938"/>
    <use xlink:href="#DejaVuSans-67" x="227.449219"/>
    <use xlink:href="#DejaVuSans-79" x="290.925781"/>
    <use xlink:href="#DejaVuSans-20" x="350.105469"/>
    <use xlink:href="#DejaVuSans-28" x="381.892578"/>
    <use xlink:href="#DejaVuSans-65" x="420.90625"/>
    <use xlink:href="#DejaVuSans-56" x="482.429688"/>
    <use xlink:href="#DejaVuSans-29" x="550.837891"/>
   </g>
  </g>
 </g>
 <defs>
  <clipPath id="p7ba3e42f56">
   <rect x="54.61" y="41.76" width="298.644734" height="228.8"/>
  </clipPath>
  <clipPath id="pc42a3cd4e2">
   <rect x="406.15" y="41.76" width="298.644734" height="228.8"/>
  </clipPath>
  <clipPath id="p504714f606">
   <rect x="54.61" y="298.44" width="298.644734" height="228.8"/>
  </clipPath>
  <clipPath id="pfcc59751f1">
   <rect x="406.15" y="298.44" width="298.644734" height="228.8"/>
  </clipPath>
 </defs>
</svg>
