<?xml version="1.0" encoding="utf-8" standalone="no"?>
<!DOCTYPE svg PUBLIC "-//W3C//DTD SVG 1.1//EN"
  "http://www.w3.org/Graphics/SVG/1.1/DTD/svg11.dtd">
<svg xmlns:xlink="http://www.w3.org/1999/xlink" width="720pt" height="576pt" viewBox="0 0 720 576" xmlns="http://www.w3.org/2000/svg" version="1.1">
 <metadata>
  <rdf:RDF xmlns:dc="http://purl.org/dc/elements/1.1/" xmlns:cc="http://creativecommons.org/ns#" xmlns:rdf="http://www.w3.org/1999/02/22-rdf-syntax-ns#">
   <cc:Work>
    <dc:type rdf:resource="http://purl.org/dc/dcmitype/StillImage"/>
    <dc:date>2022-03-19T10:58:33.311613</dc:date>
    <dc:format>image/svg+xml</dc:format>
    <dc:creator>
     <cc:Agent>
      <dc:title>Matplotlib v3.5.1, https://matplotlib.org/</dc:title>
     </cc:Agent>
    </dc:creator>
   </cc:Work>
  </rdf:RDF>
 </metadata>
 <defs>
  <style type="text/css">*{stroke-linejoin: round; stroke-linecap: butt}</style>
 </defs>
 <g id="figure_1">
  <g id="patch_1">
   <path d="M 0 576 
L 720 576 
L 720 0 
L 0 0 
z
" style="fill: #ffffff"/>
  </g>
  <g id="axes_1">
   <g id="patch_2">
    <path d="M 90 512.64 
L 648 512.64 
L 648 69.12 
L 90 69.12 
z
" style="fill: #ffffff"/>
   </g>
   <g id="matplotlib.axis_1">
    <g id="xtick_1">
     <g id="line2d_1">
      <defs>
       <path id="me85805633a" d="M 0 0 
L 0 3.5 
" style="stroke: #000000; stroke-width: 0.8"/>
      </defs>
      <g>
       <use xlink:href="#me85805633a" x="115.363636" y="512.64" style="stroke: #000000; stroke-width: 0.8"/>
      </g>
     </g>
     <g id="text_1">
      <!-- 0 -->
      <g transform="translate(112.182386 527.238438)scale(0.1 -0.1)">
       <defs>
        <path id="DejaVuSans-30" d="M 2034 4250 
Q 1547 4250 1301 3770 
Q 1056 3291 1056 2328 
Q 1056 1369 1301 889 
Q 1547 409 2034 409 
Q 2525 409 2770 889 
Q 3016 1369 3016 2328 
Q 3016 3291 2770 3770 
Q 2525 4250 2034 4250 
z
M 2034 4750 
Q 2819 4750 3233 4129 
Q 3647 3509 3647 2328 
Q 3647 1150 3233 529 
Q 2819 -91 2034 -91 
Q 1250 -91 836 529 
Q 422 1150 422 2328 
Q 422 3509 836 4129 
Q 1250 4750 2034 4750 
z
" transform="scale(0.015625)"/>
       </defs>
       <use xlink:href="#DejaVuSans-30"/>
      </g>
     </g>
    </g>
    <g id="xtick_2">
     <g id="line2d_2">
      <g>
       <use xlink:href="#me85805633a" x="197.813624" y="512.64" style="stroke: #000000; stroke-width: 0.8"/>
      </g>
     </g>
     <g id="text_2">
      <!-- 20 -->
      <g transform="translate(191.451124 527.238438)scale(0.1 -0.1)">
       <defs>
        <path id="DejaVuSans-32" d="M 1228 531 
L 3431 531 
L 3431 0 
L 469 0 
L 469 531 
Q 828 903 1448 1529 
Q 2069 2156 2228 2338 
Q 2531 2678 2651 2914 
Q 2772 3150 2772 3378 
Q 2772 3750 2511 3984 
Q 2250 4219 1831 4219 
Q 1534 4219 1204 4116 
Q 875 4013 500 3803 
L 500 4441 
Q 881 4594 1212 4672 
Q 1544 4750 1819 4750 
Q 2544 4750 2975 4387 
Q 3406 4025 3406 3419 
Q 3406 3131 3298 2873 
Q 3191 2616 2906 2266 
Q 2828 2175 2409 1742 
Q 1991 1309 1228 531 
z
" transform="scale(0.015625)"/>
       </defs>
       <use xlink:href="#DejaVuSans-32"/>
       <use xlink:href="#DejaVuSans-30" x="63.623047"/>
      </g>
     </g>
    </g>
    <g id="xtick_3">
     <g id="line2d_3">
      <g>
       <use xlink:href="#me85805633a" x="280.263613" y="512.64" style="stroke: #000000; stroke-width: 0.8"/>
      </g>
     </g>
     <g id="text_3">
      <!-- 40 -->
      <g transform="translate(273.901113 527.238438)scale(0.1 -0.1)">
       <defs>
        <path id="DejaVuSans-34" d="M 2419 4116 
L 825 1625 
L 2419 1625 
L 2419 4116 
z
M 2253 4666 
L 3047 4666 
L 3047 1625 
L 3713 1625 
L 3713 1100 
L 3047 1100 
L 3047 0 
L 2419 0 
L 2419 1100 
L 313 1100 
L 313 1709 
L 2253 4666 
z
" transform="scale(0.015625)"/>
       </defs>
       <use xlink:href="#DejaVuSans-34"/>
       <use xlink:href="#DejaVuSans-30" x="63.623047"/>
      </g>
     </g>
    </g>
    <g id="xtick_4">
     <g id="line2d_4">
      <g>
       <use xlink:href="#me85805633a" x="362.713601" y="512.64" style="stroke: #000000; stroke-width: 0.8"/>
      </g>
     </g>
     <g id="text_4">
      <!-- 60 -->
      <g transform="translate(356.351101 527.238438)scale(0.1 -0.1)">
       <defs>
        <path id="DejaVuSans-36" d="M 2113 2584 
Q 1688 2584 1439 2293 
Q 1191 2003 1191 1497 
Q 1191 994 1439 701 
Q 1688 409 2113 409 
Q 2538 409 2786 701 
Q 3034 994 3034 1497 
Q 3034 2003 2786 2293 
Q 2538 2584 2113 2584 
z
M 3366 4563 
L 3366 3988 
Q 3128 4100 2886 4159 
Q 2644 4219 2406 4219 
Q 1781 4219 1451 3797 
Q 1122 3375 1075 2522 
Q 1259 2794 1537 2939 
Q 1816 3084 2150 3084 
Q 2853 3084 3261 2657 
Q 3669 2231 3669 1497 
Q 3669 778 3244 343 
Q 2819 -91 2113 -91 
Q 1303 -91 875 529 
Q 447 1150 447 2328 
Q 447 3434 972 4092 
Q 1497 4750 2381 4750 
Q 2619 4750 2861 4703 
Q 3103 4656 3366 4563 
z
" transform="scale(0.015625)"/>
       </defs>
       <use xlink:href="#DejaVuSans-36"/>
       <use xlink:href="#DejaVuSans-30" x="63.623047"/>
      </g>
     </g>
    </g>
    <g id="xtick_5">
     <g id="line2d_5">
      <g>
       <use xlink:href="#me85805633a" x="445.163589" y="512.64" style="stroke: #000000; stroke-width: 0.8"/>
      </g>
     </g>
     <g id="text_5">
      <!-- 80 -->
      <g transform="translate(438.801089 527.238438)scale(0.1 -0.1)">
       <defs>
        <path id="DejaVuSans-38" d="M 2034 2216 
Q 1584 2216 1326 1975 
Q 1069 1734 1069 1313 
Q 1069 891 1326 650 
Q 1584 409 2034 409 
Q 2484 409 2743 651 
Q 3003 894 3003 1313 
Q 3003 1734 2745 1975 
Q 2488 2216 2034 2216 
z
M 1403 2484 
Q 997 2584 770 2862 
Q 544 3141 544 3541 
Q 544 4100 942 4425 
Q 1341 4750 2034 4750 
Q 2731 4750 3128 4425 
Q 3525 4100 3525 3541 
Q 3525 3141 3298 2862 
Q 3072 2584 2669 2484 
Q 3125 2378 3379 2068 
Q 3634 1759 3634 1313 
Q 3634 634 3220 271 
Q 2806 -91 2034 -91 
Q 1263 -91 848 271 
Q 434 634 434 1313 
Q 434 1759 690 2068 
Q 947 2378 1403 2484 
z
M 1172 3481 
Q 1172 3119 1398 2916 
Q 1625 2713 2034 2713 
Q 2441 2713 2670 2916 
Q 2900 3119 2900 3481 
Q 2900 3844 2670 4047 
Q 2441 4250 2034 4250 
Q 1625 4250 1398 4047 
Q 1172 3844 1172 3481 
z
" transform="scale(0.015625)"/>
       </defs>
       <use xlink:href="#DejaVuSans-38"/>
       <use xlink:href="#DejaVuSans-30" x="63.623047"/>
      </g>
     </g>
    </g>
    <g id="xtick_6">
     <g id="line2d_6">
      <g>
       <use xlink:href="#me85805633a" x="527.613577" y="512.64" style="stroke: #000000; stroke-width: 0.8"/>
      </g>
     </g>
     <g id="text_6">
      <!-- 100 -->
      <g transform="translate(518.069827 527.238438)scale(0.1 -0.1)">
       <defs>
        <path id="DejaVuSans-31" d="M 794 531 
L 1825 531 
L 1825 4091 
L 703 3866 
L 703 4441 
L 1819 4666 
L 2450 4666 
L 2450 531 
L 3481 531 
L 3481 0 
L 794 0 
L 794 531 
z
" transform="scale(0.015625)"/>
       </defs>
       <use xlink:href="#DejaVuSans-31"/>
       <use xlink:href="#DejaVuSans-30" x="63.623047"/>
       <use xlink:href="#DejaVuSans-30" x="127.246094"/>
      </g>
     </g>
    </g>
    <g id="xtick_7">
     <g id="line2d_7">
      <g>
       <use xlink:href="#me85805633a" x="610.063565" y="512.64" style="stroke: #000000; stroke-width: 0.8"/>
      </g>
     </g>
     <g id="text_7">
      <!-- 120 -->
      <g transform="translate(600.519815 527.238438)scale(0.1 -0.1)">
       <use xlink:href="#DejaVuSans-31"/>
       <use xlink:href="#DejaVuSans-32" x="63.623047"/>
       <use xlink:href="#DejaVuSans-30" x="127.246094"/>
      </g>
     </g>
    </g>
    <g id="text_8">
     <!-- Energy (eV) -->
     <g transform="translate(339.50625 540.916563)scale(0.1 -0.1)">
      <defs>
       <path id="DejaVuSans-45" d="M 628 4666 
L 3578 4666 
L 3578 4134 
L 1259 4134 
L 1259 2753 
L 3481 2753 
L 3481 2222 
L 1259 2222 
L 1259 531 
L 3634 531 
L 3634 0 
L 628 0 
L 628 4666 
z
" transform="scale(0.015625)"/>
       <path id="DejaVuSans-6e" d="M 3513 2113 
L 3513 0 
L 2938 0 
L 2938 2094 
Q 2938 2591 2744 2837 
Q 2550 3084 2163 3084 
Q 1697 3084 1428 2787 
Q 1159 2491 1159 1978 
L 1159 0 
L 581 0 
L 581 3500 
L 1159 3500 
L 1159 2956 
Q 1366 3272 1645 3428 
Q 1925 3584 2291 3584 
Q 2894 3584 3203 3211 
Q 3513 2838 3513 2113 
z
" transform="scale(0.015625)"/>
       <path id="DejaVuSans-65" d="M 3597 1894 
L 3597 1613 
L 953 1613 
Q 991 1019 1311 708 
Q 1631 397 2203 397 
Q 2534 397 2845 478 
Q 3156 559 3463 722 
L 3463 178 
Q 3153 47 2828 -22 
Q 2503 -91 2169 -91 
Q 1331 -91 842 396 
Q 353 884 353 1716 
Q 353 2575 817 3079 
Q 1281 3584 2069 3584 
Q 2775 3584 3186 3129 
Q 3597 2675 3597 1894 
z
M 3022 2063 
Q 3016 2534 2758 2815 
Q 2500 3097 2075 3097 
Q 1594 3097 1305 2825 
Q 1016 2553 972 2059 
L 3022 2063 
z
" transform="scale(0.015625)"/>
       <path id="DejaVuSans-72" d="M 2631 2963 
Q 2534 3019 2420 3045 
Q 2306 3072 2169 3072 
Q 1681 3072 1420 2755 
Q 1159 2438 1159 1844 
L 1159 0 
L 581 0 
L 581 3500 
L 1159 3500 
L 1159 2956 
Q 1341 3275 1631 3429 
Q 1922 3584 2338 3584 
Q 2397 3584 2469 3576 
Q 2541 3569 2628 3553 
L 2631 2963 
z
" transform="scale(0.015625)"/>
       <path id="DejaVuSans-67" d="M 2906 1791 
Q 2906 2416 2648 2759 
Q 2391 3103 1925 3103 
Q 1463 3103 1205 2759 
Q 947 2416 947 1791 
Q 947 1169 1205 825 
Q 1463 481 1925 481 
Q 2391 481 2648 825 
Q 2906 1169 2906 1791 
z
M 3481 434 
Q 3481 -459 3084 -895 
Q 2688 -1331 1869 -1331 
Q 1566 -1331 1297 -1286 
Q 1028 -1241 775 -1147 
L 775 -588 
Q 1028 -725 1275 -790 
Q 1522 -856 1778 -856 
Q 2344 -856 2625 -561 
Q 2906 -266 2906 331 
L 2906 616 
Q 2728 306 2450 153 
Q 2172 0 1784 0 
Q 1141 0 747 490 
Q 353 981 353 1791 
Q 353 2603 747 3093 
Q 1141 3584 1784 3584 
Q 2172 3584 2450 3431 
Q 2728 3278 2906 2969 
L 2906 3500 
L 3481 3500 
L 3481 434 
z
" transform="scale(0.015625)"/>
       <path id="DejaVuSans-79" d="M 2059 -325 
Q 1816 -950 1584 -1140 
Q 1353 -1331 966 -1331 
L 506 -1331 
L 506 -850 
L 844 -850 
Q 1081 -850 1212 -737 
Q 1344 -625 1503 -206 
L 1606 56 
L 191 3500 
L 800 3500 
L 1894 763 
L 2988 3500 
L 3597 3500 
L 2059 -325 
z
" transform="scale(0.015625)"/>
       <path id="DejaVuSans-20" transform="scale(0.015625)"/>
       <path id="DejaVuSans-28" d="M 1984 4856 
Q 1566 4138 1362 3434 
Q 1159 2731 1159 2009 
Q 1159 1288 1364 580 
Q 1569 -128 1984 -844 
L 1484 -844 
Q 1016 -109 783 600 
Q 550 1309 550 2009 
Q 550 2706 781 3412 
Q 1013 4119 1484 4856 
L 1984 4856 
z
" transform="scale(0.015625)"/>
       <path id="DejaVuSans-56" d="M 1831 0 
L 50 4666 
L 709 4666 
L 2188 738 
L 3669 4666 
L 4325 4666 
L 2547 0 
L 1831 0 
z
" transform="scale(0.015625)"/>
       <path id="DejaVuSans-29" d="M 513 4856 
L 1013 4856 
Q 1481 4119 1714 3412 
Q 1947 2706 1947 2009 
Q 1947 1309 1714 600 
Q 1481 -109 1013 -844 
L 513 -844 
Q 928 -128 1133 580 
Q 1338 1288 1338 2009 
Q 1338 2731 1133 3434 
Q 928 4138 513 4856 
z
" transform="scale(0.015625)"/>
      </defs>
      <use xlink:href="#DejaVuSans-45"/>
      <use xlink:href="#DejaVuSans-6e" x="63.183594"/>
      <use xlink:href="#DejaVuSans-65" x="126.5625"/>
      <use xlink:href="#DejaVuSans-72" x="188.085938"/>
      <use xlink:href="#DejaVuSans-67" x="227.449219"/>
      <use xlink:href="#DejaVuSans-79" x="290.925781"/>
      <use xlink:href="#DejaVuSans-20" x="350.105469"/>
      <use xlink:href="#DejaVuSans-28" x="381.892578"/>
      <use xlink:href="#DejaVuSans-65" x="420.90625"/>
      <use xlink:href="#DejaVuSans-56" x="482.429688"/>
      <use xlink:href="#DejaVuSans-29" x="550.837891"/>
     </g>
    </g>
   </g>
   <g id="matplotlib.axis_2">
    <g id="ytick_1">
     <g id="line2d_8">
      <defs>
       <path id="m9b6cf49f0e" d="M 0 0 
L -3.5 0 
" style="stroke: #000000; stroke-width: 0.8"/>
      </defs>
      <g>
       <use xlink:href="#m9b6cf49f0e" x="90" y="492.48" style="stroke: #000000; stroke-width: 0.8"/>
      </g>
     </g>
     <g id="text_9">
      <!-- 0.0 -->
      <g transform="translate(67.096875 496.279219)scale(0.1 -0.1)">
       <defs>
        <path id="DejaVuSans-2e" d="M 684 794 
L 1344 794 
L 1344 0 
L 684 0 
L 684 794 
z
" transform="scale(0.015625)"/>
       </defs>
       <use xlink:href="#DejaVuSans-30"/>
       <use xlink:href="#DejaVuSans-2e" x="63.623047"/>
       <use xlink:href="#DejaVuSans-30" x="95.410156"/>
      </g>
     </g>
    </g>
    <g id="ytick_2">
     <g id="line2d_9">
      <g>
       <use xlink:href="#m9b6cf49f0e" x="90" y="411.518417" style="stroke: #000000; stroke-width: 0.8"/>
      </g>
     </g>
     <g id="text_10">
      <!-- 0.5 -->
      <g transform="translate(67.096875 415.317636)scale(0.1 -0.1)">
       <defs>
        <path id="DejaVuSans-35" d="M 691 4666 
L 3169 4666 
L 3169 4134 
L 1269 4134 
L 1269 2991 
Q 1406 3038 1543 3061 
Q 1681 3084 1819 3084 
Q 2600 3084 3056 2656 
Q 3513 2228 3513 1497 
Q 3513 744 3044 326 
Q 2575 -91 1722 -91 
Q 1428 -91 1123 -41 
Q 819 9 494 109 
L 494 744 
Q 775 591 1075 516 
Q 1375 441 1709 441 
Q 2250 441 2565 725 
Q 2881 1009 2881 1497 
Q 2881 1984 2565 2268 
Q 2250 2553 1709 2553 
Q 1456 2553 1204 2497 
Q 953 2441 691 2322 
L 691 4666 
z
" transform="scale(0.015625)"/>
       </defs>
       <use xlink:href="#DejaVuSans-30"/>
       <use xlink:href="#DejaVuSans-2e" x="63.623047"/>
       <use xlink:href="#DejaVuSans-35" x="95.410156"/>
      </g>
     </g>
    </g>
    <g id="ytick_3">
     <g id="line2d_10">
      <g>
       <use xlink:href="#m9b6cf49f0e" x="90" y="330.556835" style="stroke: #000000; stroke-width: 0.8"/>
      </g>
     </g>
     <g id="text_11">
      <!-- 1.0 -->
      <g transform="translate(67.096875 334.356053)scale(0.1 -0.1)">
       <use xlink:href="#DejaVuSans-31"/>
       <use xlink:href="#DejaVuSans-2e" x="63.623047"/>
       <use xlink:href="#DejaVuSans-30" x="95.410156"/>
      </g>
     </g>
    </g>
    <g id="ytick_4">
     <g id="line2d_11">
      <g>
       <use xlink:href="#m9b6cf49f0e" x="90" y="249.595252" style="stroke: #000000; stroke-width: 0.8"/>
      </g>
     </g>
     <g id="text_12">
      <!-- 1.5 -->
      <g transform="translate(67.096875 253.394471)scale(0.1 -0.1)">
       <use xlink:href="#DejaVuSans-31"/>
       <use xlink:href="#DejaVuSans-2e" x="63.623047"/>
       <use xlink:href="#DejaVuSans-35" x="95.410156"/>
      </g>
     </g>
    </g>
    <g id="ytick_5">
     <g id="line2d_12">
      <g>
       <use xlink:href="#m9b6cf49f0e" x="90" y="168.633669" style="stroke: #000000; stroke-width: 0.8"/>
      </g>
     </g>
     <g id="text_13">
      <!-- 2.0 -->
      <g transform="translate(67.096875 172.432888)scale(0.1 -0.1)">
       <use xlink:href="#DejaVuSans-32"/>
       <use xlink:href="#DejaVuSans-2e" x="63.623047"/>
       <use xlink:href="#DejaVuSans-30" x="95.410156"/>
      </g>
     </g>
    </g>
    <g id="ytick_6">
     <g id="line2d_13">
      <g>
       <use xlink:href="#m9b6cf49f0e" x="90" y="87.672087" style="stroke: #000000; stroke-width: 0.8"/>
      </g>
     </g>
     <g id="text_14">
      <!-- 2.5 -->
      <g transform="translate(67.096875 91.471306)scale(0.1 -0.1)">
       <use xlink:href="#DejaVuSans-32"/>
       <use xlink:href="#DejaVuSans-2e" x="63.623047"/>
       <use xlink:href="#DejaVuSans-35" x="95.410156"/>
      </g>
     </g>
    </g>
    <g id="text_15">
     <!-- Absorption$\ alpha$, cm^-1 -->
     <g transform="translate(60.996875 353.43)rotate(-90)scale(0.1 -0.1)">
      <defs>
       <path id="DejaVuSans-41" d="M 2188 4044 
L 1331 1722 
L 3047 1722 
L 2188 4044 
z
M 1831 4666 
L 2547 4666 
L 4325 0 
L 3669 0 
L 3244 1197 
L 1141 1197 
L 716 0 
L 50 0 
L 1831 4666 
z
" transform="scale(0.015625)"/>
       <path id="DejaVuSans-62" d="M 3116 1747 
Q 3116 2381 2855 2742 
Q 2594 3103 2138 3103 
Q 1681 3103 1420 2742 
Q 1159 2381 1159 1747 
Q 1159 1113 1420 752 
Q 1681 391 2138 391 
Q 2594 391 2855 752 
Q 3116 1113 3116 1747 
z
M 1159 2969 
Q 1341 3281 1617 3432 
Q 1894 3584 2278 3584 
Q 2916 3584 3314 3078 
Q 3713 2572 3713 1747 
Q 3713 922 3314 415 
Q 2916 -91 2278 -91 
Q 1894 -91 1617 61 
Q 1341 213 1159 525 
L 1159 0 
L 581 0 
L 581 4863 
L 1159 4863 
L 1159 2969 
z
" transform="scale(0.015625)"/>
       <path id="DejaVuSans-73" d="M 2834 3397 
L 2834 2853 
Q 2591 2978 2328 3040 
Q 2066 3103 1784 3103 
Q 1356 3103 1142 2972 
Q 928 2841 928 2578 
Q 928 2378 1081 2264 
Q 1234 2150 1697 2047 
L 1894 2003 
Q 2506 1872 2764 1633 
Q 3022 1394 3022 966 
Q 3022 478 2636 193 
Q 2250 -91 1575 -91 
Q 1294 -91 989 -36 
Q 684 19 347 128 
L 347 722 
Q 666 556 975 473 
Q 1284 391 1588 391 
Q 1994 391 2212 530 
Q 2431 669 2431 922 
Q 2431 1156 2273 1281 
Q 2116 1406 1581 1522 
L 1381 1569 
Q 847 1681 609 1914 
Q 372 2147 372 2553 
Q 372 3047 722 3315 
Q 1072 3584 1716 3584 
Q 2034 3584 2315 3537 
Q 2597 3491 2834 3397 
z
" transform="scale(0.015625)"/>
       <path id="DejaVuSans-6f" d="M 1959 3097 
Q 1497 3097 1228 2736 
Q 959 2375 959 1747 
Q 959 1119 1226 758 
Q 1494 397 1959 397 
Q 2419 397 2687 759 
Q 2956 1122 2956 1747 
Q 2956 2369 2687 2733 
Q 2419 3097 1959 3097 
z
M 1959 3584 
Q 2709 3584 3137 3096 
Q 3566 2609 3566 1747 
Q 3566 888 3137 398 
Q 2709 -91 1959 -91 
Q 1206 -91 779 398 
Q 353 888 353 1747 
Q 353 2609 779 3096 
Q 1206 3584 1959 3584 
z
" transform="scale(0.015625)"/>
       <path id="DejaVuSans-70" d="M 1159 525 
L 1159 -1331 
L 581 -1331 
L 581 3500 
L 1159 3500 
L 1159 2969 
Q 1341 3281 1617 3432 
Q 1894 3584 2278 3584 
Q 2916 3584 3314 3078 
Q 3713 2572 3713 1747 
Q 3713 922 3314 415 
Q 2916 -91 2278 -91 
Q 1894 -91 1617 61 
Q 1341 213 1159 525 
z
M 3116 1747 
Q 3116 2381 2855 2742 
Q 2594 3103 2138 3103 
Q 1681 3103 1420 2742 
Q 1159 2381 1159 1747 
Q 1159 1113 1420 752 
Q 1681 391 2138 391 
Q 2594 391 2855 752 
Q 3116 1113 3116 1747 
z
" transform="scale(0.015625)"/>
       <path id="DejaVuSans-74" d="M 1172 4494 
L 1172 3500 
L 2356 3500 
L 2356 3053 
L 1172 3053 
L 1172 1153 
Q 1172 725 1289 603 
Q 1406 481 1766 481 
L 2356 481 
L 2356 0 
L 1766 0 
Q 1100 0 847 248 
Q 594 497 594 1153 
L 594 3053 
L 172 3053 
L 172 3500 
L 594 3500 
L 594 4494 
L 1172 4494 
z
" transform="scale(0.015625)"/>
       <path id="DejaVuSans-69" d="M 603 3500 
L 1178 3500 
L 1178 0 
L 603 0 
L 603 3500 
z
M 603 4863 
L 1178 4863 
L 1178 4134 
L 603 4134 
L 603 4863 
z
" transform="scale(0.015625)"/>
       <path id="DejaVuSans-Oblique-61" d="M 3438 1997 
L 3047 0 
L 2472 0 
L 2578 531 
Q 2325 219 2001 64 
Q 1678 -91 1281 -91 
Q 834 -91 548 182 
Q 263 456 263 884 
Q 263 1497 752 1853 
Q 1241 2209 2100 2209 
L 2900 2209 
L 2931 2363 
Q 2938 2388 2941 2417 
Q 2944 2447 2944 2509 
Q 2944 2788 2717 2942 
Q 2491 3097 2081 3097 
Q 1800 3097 1504 3025 
Q 1209 2953 897 2809 
L 997 3341 
Q 1322 3463 1633 3523 
Q 1944 3584 2234 3584 
Q 2853 3584 3176 3315 
Q 3500 3047 3500 2534 
Q 3500 2431 3484 2292 
Q 3469 2153 3438 1997 
z
M 2816 1759 
L 2241 1759 
Q 1534 1759 1195 1570 
Q 856 1381 856 984 
Q 856 709 1029 553 
Q 1203 397 1509 397 
Q 1978 397 2328 733 
Q 2678 1069 2791 1631 
L 2816 1759 
z
" transform="scale(0.015625)"/>
       <path id="DejaVuSans-Oblique-6c" d="M 1172 4863 
L 1747 4863 
L 800 0 
L 225 0 
L 1172 4863 
z
" transform="scale(0.015625)"/>
       <path id="DejaVuSans-Oblique-70" d="M 3175 2156 
Q 3175 2616 2975 2859 
Q 2775 3103 2400 3103 
Q 2144 3103 1911 2972 
Q 1678 2841 1497 2591 
Q 1319 2344 1212 1994 
Q 1106 1644 1106 1300 
Q 1106 863 1306 627 
Q 1506 391 1875 391 
Q 2147 391 2380 519 
Q 2613 647 2778 891 
Q 2956 1147 3065 1494 
Q 3175 1841 3175 2156 
z
M 1394 2969 
Q 1625 3272 1939 3428 
Q 2253 3584 2638 3584 
Q 3175 3584 3472 3232 
Q 3769 2881 3769 2247 
Q 3769 1728 3584 1258 
Q 3400 788 3053 416 
Q 2822 169 2531 39 
Q 2241 -91 1919 -91 
Q 1547 -91 1294 64 
Q 1041 219 916 525 
L 556 -1331 
L -19 -1331 
L 922 3500 
L 1497 3500 
L 1394 2969 
z
" transform="scale(0.015625)"/>
       <path id="DejaVuSans-Oblique-68" d="M 3566 2113 
L 3156 0 
L 2578 0 
L 2988 2091 
Q 3016 2238 3031 2350 
Q 3047 2463 3047 2528 
Q 3047 2791 2881 2937 
Q 2716 3084 2419 3084 
Q 1956 3084 1617 2771 
Q 1278 2459 1178 1941 
L 800 0 
L 225 0 
L 1172 4863 
L 1747 4863 
L 1375 2950 
Q 1594 3244 1934 3414 
Q 2275 3584 2650 3584 
Q 3113 3584 3367 3334 
Q 3622 3084 3622 2631 
Q 3622 2519 3608 2391 
Q 3594 2263 3566 2113 
z
" transform="scale(0.015625)"/>
       <path id="DejaVuSans-2c" d="M 750 794 
L 1409 794 
L 1409 256 
L 897 -744 
L 494 -744 
L 750 256 
L 750 794 
z
" transform="scale(0.015625)"/>
       <path id="DejaVuSans-63" d="M 3122 3366 
L 3122 2828 
Q 2878 2963 2633 3030 
Q 2388 3097 2138 3097 
Q 1578 3097 1268 2742 
Q 959 2388 959 1747 
Q 959 1106 1268 751 
Q 1578 397 2138 397 
Q 2388 397 2633 464 
Q 2878 531 3122 666 
L 3122 134 
Q 2881 22 2623 -34 
Q 2366 -91 2075 -91 
Q 1284 -91 818 406 
Q 353 903 353 1747 
Q 353 2603 823 3093 
Q 1294 3584 2113 3584 
Q 2378 3584 2631 3529 
Q 2884 3475 3122 3366 
z
" transform="scale(0.015625)"/>
       <path id="DejaVuSans-6d" d="M 3328 2828 
Q 3544 3216 3844 3400 
Q 4144 3584 4550 3584 
Q 5097 3584 5394 3201 
Q 5691 2819 5691 2113 
L 5691 0 
L 5113 0 
L 5113 2094 
Q 5113 2597 4934 2840 
Q 4756 3084 4391 3084 
Q 3944 3084 3684 2787 
Q 3425 2491 3425 1978 
L 3425 0 
L 2847 0 
L 2847 2094 
Q 2847 2600 2669 2842 
Q 2491 3084 2119 3084 
Q 1678 3084 1418 2786 
Q 1159 2488 1159 1978 
L 1159 0 
L 581 0 
L 581 3500 
L 1159 3500 
L 1159 2956 
Q 1356 3278 1631 3431 
Q 1906 3584 2284 3584 
Q 2666 3584 2933 3390 
Q 3200 3197 3328 2828 
z
" transform="scale(0.015625)"/>
       <path id="DejaVuSans-5e" d="M 2988 4666 
L 4684 2925 
L 4056 2925 
L 2681 4159 
L 1306 2925 
L 678 2925 
L 2375 4666 
L 2988 4666 
z
" transform="scale(0.015625)"/>
       <path id="DejaVuSans-2d" d="M 313 2009 
L 1997 2009 
L 1997 1497 
L 313 1497 
L 313 2009 
z
" transform="scale(0.015625)"/>
      </defs>
      <use xlink:href="#DejaVuSans-41" transform="translate(0 0.015625)"/>
      <use xlink:href="#DejaVuSans-62" transform="translate(68.408203 0.015625)"/>
      <use xlink:href="#DejaVuSans-73" transform="translate(131.884766 0.015625)"/>
      <use xlink:href="#DejaVuSans-6f" transform="translate(183.984375 0.015625)"/>
      <use xlink:href="#DejaVuSans-72" transform="translate(245.166016 0.015625)"/>
      <use xlink:href="#DejaVuSans-70" transform="translate(286.279297 0.015625)"/>
      <use xlink:href="#DejaVuSans-74" transform="translate(349.755859 0.015625)"/>
      <use xlink:href="#DejaVuSans-69" transform="translate(388.964844 0.015625)"/>
      <use xlink:href="#DejaVuSans-6f" transform="translate(416.748047 0.015625)"/>
      <use xlink:href="#DejaVuSans-6e" transform="translate(477.929688 0.015625)"/>
      <use xlink:href="#DejaVuSans-Oblique-61" transform="translate(573.778972 0.015625)"/>
      <use xlink:href="#DejaVuSans-Oblique-6c" transform="translate(635.058269 0.015625)"/>
      <use xlink:href="#DejaVuSans-Oblique-70" transform="translate(662.841472 0.015625)"/>
      <use xlink:href="#DejaVuSans-Oblique-68" transform="translate(726.318035 0.015625)"/>
      <use xlink:href="#DejaVuSans-Oblique-61" transform="translate(789.696941 0.015625)"/>
      <use xlink:href="#DejaVuSans-2c" transform="translate(850.976238 0.015625)"/>
      <use xlink:href="#DejaVuSans-20" transform="translate(882.763347 0.015625)"/>
      <use xlink:href="#DejaVuSans-63" transform="translate(914.550457 0.015625)"/>
      <use xlink:href="#DejaVuSans-6d" transform="translate(969.530925 0.015625)"/>
      <use xlink:href="#DejaVuSans-5e" transform="translate(1066.943035 0.015625)"/>
      <use xlink:href="#DejaVuSans-2d" transform="translate(1150.732097 0.015625)"/>
      <use xlink:href="#DejaVuSans-31" transform="translate(1186.816082 0.015625)"/>
     </g>
    </g>
    <g id="text_16">
     <!-- 1e6 -->
     <g transform="translate(90 66.12)scale(0.1 -0.1)">
      <use xlink:href="#DejaVuSans-31"/>
      <use xlink:href="#DejaVuSans-65" x="63.623047"/>
      <use xlink:href="#DejaVuSans-36" x="125.146484"/>
     </g>
    </g>
   </g>
   <g id="line2d_14">
    <path d="M 115.363636 492.48 
L 115.585427 490.215005 
L 116.251623 475.291063 
L 116.473413 473.380662 
L 116.695204 472.926589 
L 116.917406 472.913031 
L 117.3614 473.968045 
L 117.58319 472.841751 
L 118.027183 464.655538 
L 118.248974 461.003196 
L 118.692967 458.444029 
L 118.914757 457.738112 
L 119.13696 455.524224 
L 119.580541 441.740312 
L 120.468527 400.184435 
L 120.690318 396.945642 
L 120.912521 397.673004 
L 121.578304 403.879247 
L 121.800095 404.697987 
L 122.022297 406.283216 
L 122.465878 413.700602 
L 123.353865 431.987215 
L 123.575655 432.756877 
L 124.019648 429.00825 
L 124.241851 428.840831 
L 124.463642 427.237654 
L 124.907635 419.531261 
L 125.129425 418.382488 
L 125.573418 420.050667 
L 125.795209 419.432234 
L 126.239202 415.179421 
L 126.460993 414.928192 
L 126.683195 414.850315 
L 126.904986 414.588779 
L 127.127188 415.744698 
L 127.792972 424.412446 
L 128.014763 424.581766 
L 128.236965 424.362869 
L 128.458756 426.022504 
L 128.902749 433.386675 
L 129.124539 432.412707 
L 129.346742 429.624557 
L 129.568533 428.365015 
L 129.790323 431.337899 
L 130.234316 438.479782 
L 130.456519 437.412901 
L 130.678309 435.207014 
L 130.9001 435.310777 
L 131.122303 437.073578 
L 131.344093 437.02356 
L 132.67566 424.524773 
L 132.897863 423.168268 
L 133.341856 413.600074 
L 133.563647 412.455391 
L 133.785437 414.82226 
L 134.22943 421.68802 
L 134.451633 422.390426 
L 134.673424 420.902291 
L 135.117417 411.193562 
L 135.560998 396.378775 
L 136.227194 363.60637 
L 136.448984 351.698077 
L 136.670775 347.305296 
L 136.892977 353.833194 
L 137.33697 375.699282 
L 137.558761 379.810981 
L 137.780551 380.304868 
L 138.224545 374.892269 
L 138.446747 377.38896 
L 139.334321 407.635448 
L 139.556112 408.251362 
L 139.778315 404.120022 
L 140.444098 378.752288 
L 140.665889 375.302104 
L 140.888091 375.146468 
L 141.109882 373.715649 
L 141.775666 351.824178 
L 142.219659 360.919562 
L 142.663652 364.407093 
L 143.107645 370.859051 
L 143.329436 369.177859 
L 143.995219 353.304356 
L 144.217422 351.518156 
L 144.439212 353.395747 
L 144.883206 363.586838 
L 145.104996 363.777679 
L 145.327199 353.57447 
L 145.992982 305.641005 
L 146.436976 287.441149 
L 146.658766 286.675867 
L 147.102759 293.822363 
L 147.32455 299.280161 
L 147.990333 324.132047 
L 148.212536 323.982738 
L 148.656117 310.572925 
L 148.87832 308.585837 
L 149.10011 311.806456 
L 150.209887 352.876562 
L 150.65388 357.969264 
L 151.319664 376.605019 
L 151.541867 376.386664 
L 151.763657 376.825646 
L 152.873434 394.025191 
L 153.095224 392.215248 
L 153.317427 385.131936 
L 153.761008 361.645255 
L 153.983211 357.164768 
L 154.205001 357.956686 
L 154.427204 359.870694 
L 154.648994 363.113317 
L 155.092988 373.040039 
L 155.314778 374.464081 
L 155.758771 371.106924 
L 156.202764 370.051501 
L 156.424555 368.435276 
L 156.868548 363.007319 
L 157.090339 361.519603 
L 157.312541 361.306387 
L 157.534332 364.345125 
L 157.978325 377.094589 
L 158.644109 387.459826 
L 158.865899 390.324586 
L 159.088102 391.709427 
L 159.309892 390.299489 
L 159.753885 383.962534 
L 159.975676 382.044729 
L 160.197879 381.159293 
L 160.419669 383.709448 
L 160.863662 392.103653 
L 161.085453 391.161886 
L 161.973439 377.491443 
L 162.19523 367.472826 
L 163.083216 308.748715 
L 163.305006 307.323225 
L 163.527209 314.419248 
L 164.414783 361.401421 
L 165.080567 379.431503 
L 165.30277 382.90183 
L 165.52456 384.299813 
L 165.746351 382.946795 
L 166.190344 373.737956 
L 166.634337 368.05782 
L 167.07833 361.332546 
L 167.744114 355.838585 
L 167.965904 358.127147 
L 169.075681 388.075136 
L 169.297884 387.462114 
L 169.519674 382.335316 
L 169.741465 370.894611 
L 170.407661 304.723305 
L 170.851242 256.34102 
L 171.073444 243.998038 
L 171.517438 236.369125 
L 171.739228 230.845732 
L 171.961018 232.28505 
L 172.183221 245.464916 
L 172.627214 283.631485 
L 173.070795 301.321235 
L 173.958782 325.79584 
L 175.068558 333.914538 
L 175.290349 334.134603 
L 175.512552 333.283885 
L 176.178335 319.853131 
L 176.400126 322.685215 
L 176.622329 322.93631 
L 177.065909 313.405658 
L 177.288112 311.464652 
L 177.509903 311.270215 
L 177.732105 313.535617 
L 178.397889 331.652277 
L 179.729456 314.229264 
L 180.17345 316.975529 
L 180.39524 316.266662 
L 180.617443 312.226987 
L 181.283226 285.576231 
L 181.94901 249.705587 
L 182.1708 259.713232 
L 183.058787 331.698053 
L 183.72457 363.699247 
L 183.946361 366.967846 
L 184.168564 362.619676 
L 184.834347 332.238164 
L 185.056138 334.242442 
L 185.500131 344.74861 
L 185.722334 344.907895 
L 185.944124 341.813785 
L 186.165915 341.394069 
L 187.053901 361.779157 
L 187.275691 363.206759 
L 187.497894 363.349179 
L 187.719685 362.141475 
L 188.385468 354.509006 
L 188.607671 356.120147 
L 188.829462 358.970281 
L 189.051252 359.107903 
L 189.273455 354.323332 
L 190.161029 320.796932 
L 190.383232 320.637163 
L 190.605022 316.692666 
L 191.270806 293.112831 
L 191.493008 288.945415 
L 191.714799 281.958706 
L 191.936589 270.727715 
L 192.380582 225.831813 
L 192.824576 185.847737 
L 193.268569 170.199628 
L 193.490359 167.203289 
L 193.712562 169.339331 
L 194.378346 201.722458 
L 194.822339 222.693467 
L 195.044129 224.267652 
L 195.26592 219.698568 
L 195.488123 220.535679 
L 195.931703 240.725473 
L 196.153906 242.660229 
L 196.597899 235.352409 
L 196.81969 236.48537 
L 197.485474 245.220493 
L 197.707676 249.099492 
L 198.37346 266.205104 
L 198.59525 266.516838 
L 198.817453 265.574462 
L 199.039244 266.156624 
L 199.483237 275.48675 
L 199.705027 275.042449 
L 200.14902 263.811232 
L 200.593014 258.286705 
L 201.036594 247.563699 
L 201.258797 245.893268 
L 201.480588 248.324738 
L 202.368574 271.877726 
L 202.590365 274.330457 
L 202.812567 279.220552 
L 203.256148 293.222551 
L 203.700141 298.488551 
L 203.922344 299.544533 
L 204.144135 297.159923 
L 204.809918 284.024457 
L 205.253911 281.313814 
L 205.475702 280.445275 
L 205.919695 281.208937 
L 206.141486 279.742042 
L 206.363688 275.955194 
L 206.585479 268.204839 
L 207.029472 239.918011 
L 207.251262 216.868589 
L 207.917458 112.119975 
L 208.361039 89.28 
L 208.583242 89.380214 
L 208.805032 98.387806 
L 209.249026 146.071344 
L 209.693019 189.185362 
L 209.914809 195.265399 
L 210.1366 193.735517 
L 210.358802 193.880616 
L 210.580593 200.453223 
L 211.024586 219.409924 
L 212.134363 247.168137 
L 212.356153 241.201981 
L 212.800147 213.873253 
L 213.46593 191.158461 
L 214.131714 178.109284 
L 214.575707 165.779757 
L 215.0197 157.696294 
L 215.241491 160.631232 
L 216.129477 208.214978 
L 216.57347 217.033864 
L 217.461044 243.553996 
L 218.349031 286.306893 
L 218.793024 298.746932 
L 219.014814 304.41034 
L 219.458808 326.867108 
L 219.902801 350.236931 
L 220.124591 356.881463 
L 220.346382 357.283526 
L 220.568584 352.344971 
L 221.012578 330.467226 
L 221.234368 318.443298 
L 221.456159 312.744995 
L 221.678361 314.189835 
L 222.565935 338.014893 
L 223.009929 340.919644 
L 223.231719 341.554475 
L 223.453922 339.251793 
L 223.897915 322.890113 
L 224.341496 310.026953 
L 225.229482 290.769836 
L 225.451273 293.355166 
L 225.895266 311.508194 
L 226.117056 314.145274 
L 226.339259 308.801275 
L 227.005043 277.345677 
L 227.226833 273.415154 
L 227.449036 273.188736 
L 227.670826 273.51608 
L 227.893029 273.349785 
L 228.11482 271.078036 
L 228.33661 261.896004 
L 228.780603 231.854529 
L 229.002806 229.004438 
L 229.224596 230.088903 
L 229.446387 230.462459 
L 229.89038 233.963724 
L 230.112171 228.815701 
L 230.334373 219.832641 
L 230.556164 218.475741 
L 231.000157 240.326511 
L 231.44415 260.509845 
L 231.888143 272.182675 
L 232.331724 278.840017 
L 232.553927 279.845106 
L 232.775717 276.3976 
L 233.441501 243.9174 
L 233.663704 245.772845 
L 234.107697 261.794122 
L 234.329487 266.28362 
L 235.661055 307.889551 
L 235.883257 309.467945 
L 236.326838 304.010746 
L 236.549041 309.555076 
L 237.214825 338.12683 
L 237.658818 344.855084 
L 238.102811 350.507459 
L 238.324602 350.941059 
L 238.546392 346.254079 
L 239.212176 309.0701 
L 239.434378 306.088204 
L 239.656169 311.878706 
L 240.544155 360.883123 
L 240.765946 367.380272 
L 240.988148 369.862064 
L 241.209939 369.533326 
L 241.875723 364.404215 
L 242.097925 365.469728 
L 242.541506 376.792348 
L 242.985499 391.123515 
L 243.20729 393.032527 
L 243.429493 389.031109 
L 244.095276 368.125954 
L 244.539269 362.518307 
L 244.983263 352.365806 
L 245.205053 357.085947 
L 245.649046 378.462278 
L 245.870837 384.702286 
L 246.093039 387.076737 
L 246.758823 389.001199 
L 246.980614 388.782622 
L 247.202816 385.956548 
L 247.646397 377.276459 
L 248.09039 370.609236 
L 248.312181 366.787258 
L 248.534384 365.308279 
L 248.978377 365.787965 
L 249.200167 364.125591 
L 249.421958 361.120486 
L 249.64416 361.361899 
L 250.088154 373.850563 
L 250.753937 389.952556 
L 251.197931 396.970296 
L 251.419721 398.588765 
L 251.641511 398.07958 
L 252.307295 392.511622 
L 252.751288 386.990505 
L 252.973491 388.748398 
L 253.417072 394.615561 
L 253.861065 397.212945 
L 254.526849 402.970011 
L 254.749051 403.043539 
L 255.636626 397.150504 
L 256.302409 387.252427 
L 256.524612 383.38396 
L 256.968605 370.775231 
L 257.634389 363.126321 
L 258.521963 340.568377 
L 258.744166 345.562549 
L 259.409949 369.77371 
L 259.63174 372.932589 
L 259.853943 373.272721 
L 260.075733 370.053446 
L 260.963719 345.440911 
L 261.18551 342.989781 
L 261.851293 325.275533 
L 262.073496 322.814219 
L 262.295287 322.012846 
L 262.517077 320.138731 
L 263.405063 302.152014 
L 263.849057 283.622725 
L 264.070847 285.032007 
L 265.180624 319.701198 
L 265.624617 338.910404 
L 266.290401 349.466407 
L 266.734394 352.75892 
L 267.178387 355.325177 
L 267.400178 355.265403 
L 267.621968 352.952674 
L 268.065961 342.681528 
L 268.731745 327.579165 
L 268.953948 327.680901 
L 269.175738 328.277345 
L 269.397529 327.183732 
L 269.619731 323.671084 
L 269.841522 315.804776 
L 270.507305 265.966542 
L 270.729508 265.893596 
L 271.173501 284.070605 
L 271.395292 287.621531 
L 271.617082 285.377373 
L 271.839285 274.355717 
L 272.283278 232.396162 
L 272.505069 234.792722 
L 273.170852 307.870541 
L 273.614846 329.418304 
L 274.724622 356.50786 
L 274.946413 357.246543 
L 276.05619 339.311191 
L 276.500183 324.745688 
L 276.944176 303.218926 
L 277.388169 269.584505 
L 277.83175 229.902837 
L 278.053953 229.410202 
L 278.275743 242.252312 
L 278.941527 298.611159 
L 279.38552 316.151583 
L 279.607311 319.937638 
L 279.829513 318.576026 
L 280.051304 310.368999 
L 280.93929 255.784247 
L 281.161081 256.052975 
L 282.049067 275.940119 
L 282.936641 308.140839 
L 283.602425 337.229988 
L 284.046418 341.399313 
L 285.600188 350.810186 
L 285.821979 351.374472 
L 286.044181 353.529332 
L 286.487762 361.841878 
L 286.709965 362.345482 
L 286.931755 358.536973 
L 288.041532 324.963021 
L 288.707316 343.842451 
L 288.929519 346.14096 
L 289.151309 345.522404 
L 289.373512 342.491689 
L 289.595302 335.885849 
L 290.261086 302.884522 
L 290.483289 297.558772 
L 290.705079 298.201364 
L 291.149072 302.501169 
L 291.370863 303.513642 
L 291.592653 302.477787 
L 291.814856 296.268714 
L 292.036646 282.439731 
L 292.258849 256.016137 
L 292.70243 176.818416 
L 292.924633 157.987707 
L 293.146423 156.41213 
L 293.368626 166.808812 
L 294.478403 301.417385 
L 295.365977 341.123458 
L 295.587767 346.957396 
L 295.80997 349.688023 
L 296.031761 350.373212 
L 296.253963 349.892507 
L 296.475754 350.497705 
L 296.697544 352.160189 
L 296.919747 351.061763 
L 297.36374 337.723008 
L 298.029524 305.237395 
L 298.251314 302.985012 
L 298.695307 314.844329 
L 299.139301 315.818475 
L 299.361091 319.690641 
L 300.249077 345.600999 
L 300.470868 344.65343 
L 300.692658 341.95495 
L 301.580645 326.428393 
L 301.802435 327.033872 
L 302.024638 324.693888 
L 302.690422 304.296541 
L 302.912212 299.693518 
L 303.356205 277.239487 
L 303.578408 264.519063 
L 303.800198 261.508344 
L 304.021989 269.315356 
L 305.131766 330.59198 
L 305.575759 336.447101 
L 305.797549 337.470424 
L 306.019752 334.52443 
L 306.685536 314.91679 
L 306.907326 318.235891 
L 307.351319 329.33765 
L 307.573522 332.915092 
L 307.795313 332.780124 
L 308.239306 321.825565 
L 308.461096 323.693252 
L 309.349083 347.834639 
L 309.570873 348.124544 
L 309.792664 346.465496 
L 310.236657 345.245507 
L 310.458859 340.129837 
L 310.90244 322.277622 
L 311.124643 323.055906 
L 311.568636 336.873721 
L 311.790427 339.791467 
L 312.45621 343.009813 
L 312.900204 341.639212 
L 313.344197 344.947701 
L 313.565987 342.322361 
L 314.00998 326.421884 
L 314.453974 300.663875 
L 314.675764 294.711806 
L 315.119757 300.303078 
L 315.341548 293.939627 
L 316.007331 256.384253 
L 316.229534 257.905635 
L 316.451325 260.597462 
L 316.673115 257.86028 
L 316.895318 252.652135 
L 317.117108 252.897173 
L 317.339311 264.253735 
L 318.005095 313.449409 
L 318.226885 318.05065 
L 318.449088 319.217453 
L 318.670878 319.069358 
L 319.114871 313.475074 
L 319.336662 314.483532 
L 320.002446 333.018923 
L 320.668641 360.377816 
L 320.890432 364.393566 
L 321.112222 364.009247 
L 321.334425 358.965995 
L 321.778006 335.368731 
L 322.221999 311.403364 
L 322.444202 312.087198 
L 322.887783 324.346434 
L 323.109986 326.511816 
L 323.331776 331.374207 
L 324.219762 372.4688 
L 324.663756 380.804069 
L 324.885546 382.378951 
L 325.107337 380.268064 
L 325.55133 370.416445 
L 325.77312 369.203352 
L 325.995323 369.772124 
L 326.217113 369.582091 
L 326.439316 369.634274 
L 326.661107 371.368824 
L 327.32689 378.749293 
L 328.436667 387.82393 
L 328.65887 387.757559 
L 329.102451 382.637915 
L 329.546444 374.431362 
L 329.990437 358.689634 
L 330.212228 350.416633 
L 330.43443 346.710853 
L 330.878011 348.030814 
L 331.100214 346.738918 
L 331.322004 342.692241 
L 332.431781 308.204297 
L 332.653984 315.74378 
L 333.097565 339.035943 
L 333.541558 350.117652 
L 333.763761 350.286026 
L 334.207342 346.995529 
L 334.429544 348.374301 
L 334.873125 360.646871 
L 335.539321 383.270262 
L 335.982902 389.512016 
L 336.205105 389.479259 
L 336.649098 384.52164 
L 336.870889 385.585121 
L 337.092679 389.000623 
L 337.314882 389.757957 
L 337.536672 388.159516 
L 337.758875 385.429384 
L 338.202456 371.826631 
L 338.646449 354.481802 
L 338.86824 350.709235 
L 339.090442 350.594103 
L 339.534436 351.54583 
L 339.756226 350.880355 
L 339.978016 352.091351 
L 340.42201 363.852407 
L 341.087793 382.252666 
L 341.309996 383.095615 
L 341.531786 379.724474 
L 342.19757 363.170668 
L 342.419773 362.625206 
L 342.863354 366.317627 
L 343.52955 375.882346 
L 343.973131 373.1633 
L 344.195333 372.807568 
L 344.417124 371.776023 
L 344.639327 368.026127 
L 345.082907 356.165213 
L 345.30511 354.774123 
L 345.526901 359.805601 
L 345.970894 374.37041 
L 346.636677 384.33994 
L 346.85888 387.863733 
L 347.080671 389.149953 
L 347.302461 386.400018 
L 347.968245 369.953369 
L 348.190448 368.361229 
L 348.412238 371.191971 
L 349.078022 387.56105 
L 349.300224 388.373446 
L 349.522015 385.806285 
L 349.966008 379.294202 
L 350.187798 380.069901 
L 350.410001 381.377176 
L 350.631792 381.959034 
L 350.853994 383.077449 
L 351.297575 387.424195 
L 351.963359 393.212192 
L 352.185562 393.039603 
L 353.073136 380.763484 
L 353.961122 373.299597 
L 354.405115 364.442455 
L 354.626906 357.969322 
L 355.292689 319.510355 
L 355.514892 322.514273 
L 355.736683 329.337829 
L 355.958473 329.564019 
L 356.402466 310.294369 
L 356.624669 310.883672 
L 357.512243 358.369298 
L 357.956236 368.47274 
L 358.178027 370.893176 
L 358.40023 371.50411 
L 358.62202 369.420927 
L 359.066013 362.806549 
L 359.731797 357.198115 
L 359.953587 352.864562 
L 360.17579 345.273456 
L 360.619783 322.75209 
L 360.841574 317.872681 
L 361.063364 317.394943 
L 361.285567 316.283551 
L 361.507357 316.014677 
L 361.72956 320.824815 
L 362.617134 353.958994 
L 363.061127 360.106276 
L 363.282918 360.713254 
L 363.505121 360.168639 
L 363.726911 361.248197 
L 364.614897 381.15729 
L 364.836688 382.815391 
L 365.058478 383.628498 
L 365.280681 383.042064 
L 365.502472 381.854234 
L 365.724674 381.438344 
L 366.612248 383.962501 
L 367.056242 387.597774 
L 367.278032 387.145772 
L 367.722025 383.435414 
L 367.944228 384.361668 
L 368.387809 387.151342 
L 368.610012 386.372932 
L 369.275795 376.229966 
L 369.497586 370.927436 
L 370.385572 335.71474 
L 370.607363 337.495445 
L 371.273146 360.373154 
L 371.495349 362.001826 
L 371.717139 360.696125 
L 372.161133 356.378372 
L 372.382923 357.185491 
L 372.826916 360.939615 
L 373.048707 358.71277 
L 373.4927 348.520043 
L 373.936693 344.600411 
L 374.158484 339.326193 
L 374.602477 324.123012 
L 374.824679 325.115763 
L 375.490463 341.712863 
L 375.712254 343.844484 
L 375.934456 342.105324 
L 376.156247 339.329024 
L 376.378037 339.450487 
L 376.60024 343.937582 
L 377.266024 363.909449 
L 377.710017 369.386659 
L 378.597591 374.537597 
L 379.041584 378.905829 
L 379.263375 379.267802 
L 379.485577 377.103124 
L 379.92957 371.208416 
L 380.151361 371.330833 
L 380.373151 371.970273 
L 380.595354 372.228833 
L 380.817145 373.038904 
L 381.039347 373.428689 
L 381.261138 371.054123 
L 382.148712 355.001514 
L 382.370915 353.553321 
L 382.814908 355.260064 
L 383.036698 351.697267 
L 383.480691 336.979229 
L 383.702482 338.306754 
L 384.146475 353.683998 
L 384.368266 357.301218 
L 384.590468 354.045398 
L 385.034461 337.652716 
L 385.256252 335.957665 
L 386.587819 371.120914 
L 386.810022 374.559023 
L 387.031812 375.448083 
L 387.697596 368.956735 
L 388.141589 372.842881 
L 389.029576 374.835971 
L 389.251366 376.076432 
L 389.695359 379.827779 
L 389.91715 379.541487 
L 390.139352 378.977012 
L 390.361143 379.496769 
L 390.805136 384.817349 
L 391.47092 398.099597 
L 391.914913 409.963309 
L 392.136703 412.748957 
L 392.358494 412.122297 
L 392.802487 407.508265 
L 393.02469 406.514987 
L 393.24648 407.336586 
L 393.468271 410.978844 
L 394.134467 427.234856 
L 394.578048 434.551308 
L 394.80025 436.400577 
L 395.022041 436.953285 
L 395.243831 436.6049 
L 395.687824 435.491676 
L 395.910027 435.256957 
L 397.019804 432.117201 
L 397.685588 426.261479 
L 397.907378 429.038776 
L 398.351371 437.566782 
L 398.573162 439.785924 
L 398.795364 440.510146 
L 399.017155 439.925341 
L 399.461148 435.143363 
L 400.348722 423.975701 
L 400.570925 422.267199 
L 400.792715 423.03922 
L 401.014918 424.619213 
L 401.236709 424.971583 
L 401.680702 423.870355 
L 401.902492 423.826189 
L 402.124695 423.413821 
L 402.346485 422.425633 
L 402.568276 422.158321 
L 403.012269 424.117772 
L 403.456262 426.960332 
L 403.900255 430.897006 
L 404.566039 433.997289 
L 404.78783 434.633416 
L 405.010032 434.292593 
L 405.231823 433.448452 
L 405.453613 433.149539 
L 405.897606 434.72425 
L 406.119809 434.029092 
L 406.56339 427.674928 
L 407.229586 414.364306 
L 407.673167 403.979973 
L 407.89537 402.204441 
L 408.561153 409.719799 
L 409.005146 404.034534 
L 409.448727 393.064055 
L 409.892721 383.006175 
L 410.114923 382.233552 
L 410.336714 380.757668 
L 411.002497 371.5583 
L 411.446491 379.071488 
L 411.668281 373.99751 
L 412.112274 354.900329 
L 412.334065 358.59259 
L 413.000261 384.395403 
L 413.443842 396.377874 
L 413.666044 398.314534 
L 414.553618 393.976724 
L 414.775821 394.936797 
L 415.219814 401.228315 
L 416.107388 420.607688 
L 416.329179 421.354608 
L 416.551382 419.731279 
L 416.773172 419.36147 
L 417.217165 424.793814 
L 417.438956 425.798153 
L 417.661158 425.658808 
L 417.882949 426.127373 
L 418.548733 433.138168 
L 418.992726 433.698199 
L 419.658509 435.810442 
L 419.880712 435.854928 
L 420.102503 436.477282 
L 420.768286 442.297885 
L 420.990489 443.760837 
L 421.43407 449.419742 
L 422.100266 457.532773 
L 422.322056 458.218791 
L 422.543847 457.629821 
L 423.210043 453.739165 
L 423.431833 453.572616 
L 423.653624 453.158736 
L 423.875826 451.858674 
L 424.097617 449.45348 
L 424.7634 439.220683 
L 424.985603 439.831491 
L 425.207394 439.860414 
L 425.651387 436.228955 
L 425.873177 435.685664 
L 426.09538 435.494369 
L 426.31717 433.611863 
L 426.982954 424.818712 
L 427.426947 420.136964 
L 427.648738 420.271674 
L 428.092731 427.21271 
L 428.314934 428.446817 
L 428.536724 427.263423 
L 428.980717 421.899256 
L 429.202508 420.985496 
L 429.424298 420.904642 
L 429.646501 420.322789 
L 429.868291 420.402099 
L 430.312285 423.502715 
L 430.534075 423.788843 
L 430.978068 420.501377 
L 431.200271 422.062062 
L 431.422061 425.085885 
L 431.866055 427.822725 
L 432.753629 444.976977 
L 432.975832 445.002823 
L 433.197622 444.229198 
L 433.419825 444.340407 
L 434.085608 447.912887 
L 434.307399 448.4499 
L 434.529189 448.55469 
L 434.973182 447.154986 
L 435.195385 447.746527 
L 435.417176 449.328628 
L 435.638966 450.007149 
L 435.861169 449.706874 
L 436.082959 450.30581 
L 436.526953 454.469128 
L 436.748743 455.028697 
L 436.970946 454.915621 
L 437.192736 454.937808 
L 437.414939 454.672829 
L 437.636729 454.031987 
L 437.85852 453.735752 
L 438.302513 454.406881 
L 438.524303 454.308481 
L 438.746506 452.909364 
L 439.190499 448.328166 
L 439.41229 447.019156 
L 439.63408 446.783011 
L 440.743857 450.43789 
L 440.96606 450.666736 
L 441.18785 450.226122 
L 441.410053 450.412703 
L 441.853634 451.877496 
L 442.075837 452.103413 
L 442.519418 453.2527 
L 442.74162 452.589117 
L 443.629194 446.233136 
L 443.851397 445.544263 
L 444.073188 445.608088 
L 444.29539 445.49771 
L 444.517181 444.328878 
L 444.738971 441.574877 
L 445.405167 429.75186 
L 445.626958 429.336847 
L 445.848748 431.467874 
L 446.292741 438.318325 
L 446.514532 440.199936 
L 446.736735 440.416613 
L 446.958525 439.855311 
L 447.180728 437.827191 
L 447.402518 432.904228 
L 448.290505 392.666032 
L 448.956288 366.147198 
L 449.178079 361.613272 
L 449.400281 363.676626 
L 449.622072 372.489533 
L 450.510058 422.142658 
L 450.953639 433.613105 
L 451.175842 435.94032 
L 451.397632 435.824888 
L 451.841626 431.382789 
L 452.063416 429.432628 
L 452.7292 427.348858 
L 452.951402 429.166138 
L 453.617186 441.039946 
L 454.061179 444.241416 
L 454.948753 456.513478 
L 455.83674 470.897237 
L 456.280733 474.422355 
L 456.724314 477.279725 
L 457.6123 483.218349 
L 458.056293 485.117785 
L 458.722077 486.619878 
L 459.16607 487.252504 
L 460.053644 487.650168 
L 460.719428 488.043084 
L 461.163421 488.0442 
L 462.273198 488.746409 
L 462.717191 488.669546 
L 463.605178 488.123702 
L 464.048759 488.199814 
L 464.492752 488.197861 
L 464.714542 488.352247 
L 465.380738 489.129506 
L 465.824319 489.440936 
L 466.046522 489.596754 
L 466.490515 489.518768 
L 466.712305 489.44081 
L 467.600292 488.347592 
L 468.266075 487.092588 
L 468.487866 487.010738 
L 469.597643 488.094887 
L 470.263426 488.403719 
L 472.26119 489.728679 
L 473.592757 490.11726 
L 473.814547 490.116374 
L 474.924324 490.82266 
L 477.143878 491.530043 
L 478.031864 491.608069 
L 478.475857 491.686843 
L 480.029215 491.764397 
L 480.473208 491.843477 
L 485.578099 491.91821 
L 486.022093 491.998088 
L 502.002549 492.066139 
L 502.446542 492.148626 
L 545.727015 492.209077 
L 546.170596 492.299219 
L 559.265715 492.294485 
L 559.265715 492.294485 
" clip-path="url(#pae41af37f1)" style="fill: none; stroke: #c71585; stroke-width: 1.5; stroke-linecap: square"/>
   </g>
   <g id="line2d_15">
    <path d="M 115.363636 492.48 
L 115.61717 490.552029 
L 116.12465 485.363014 
L 116.631717 482.917181 
L 117.392731 479.101807 
L 117.899798 471.836354 
L 119.421825 441.627329 
L 119.928892 430.566038 
L 120.182838 431.281972 
L 120.436372 434.418289 
L 120.689906 435.876485 
L 120.943439 432.951476 
L 121.197385 424.133516 
L 121.957986 385.670938 
L 122.211932 380.459163 
L 122.465466 379.125052 
L 122.719 381.232137 
L 123.226479 391.809373 
L 124.49456 403.427886 
L 124.748094 404.107029 
L 125.255574 406.730511 
L 125.509107 405.172202 
L 126.016175 394.62264 
L 126.270121 392.964021 
L 126.523655 394.786625 
L 127.030722 403.379584 
L 127.538202 414.402802 
L 128.552749 422.706076 
L 128.806282 421.640385 
L 129.059816 422.067694 
L 129.567296 428.019267 
L 129.82083 427.90432 
L 130.074363 426.363703 
L 130.328309 423.982649 
L 130.581843 418.497055 
L 131.08891 401.406463 
L 131.342856 397.646557 
L 131.59639 400.0156 
L 132.610937 426.973022 
L 133.118005 432.524149 
L 133.371951 434.11302 
L 133.625484 434.436713 
L 133.879018 434.447732 
L 134.132552 432.285269 
L 134.893565 413.995118 
L 135.147099 413.243595 
L 135.401045 413.088981 
L 135.654578 411.402955 
L 135.908112 407.791848 
L 136.415592 396.001257 
L 136.669126 393.456912 
L 136.922659 392.379 
L 137.176193 389.745718 
L 137.430139 388.746653 
L 137.683673 394.349066 
L 137.937206 402.643494 
L 138.19074 406.922358 
L 138.444686 405.657063 
L 138.69822 399.782409 
L 139.205287 382.605409 
L 139.459233 377.976971 
L 139.712767 378.899579 
L 139.966301 381.539621 
L 140.219834 382.670601 
L 140.47378 381.539049 
L 140.980848 372.325506 
L 141.741861 357.692042 
L 141.995395 357.008522 
L 142.502874 364.491048 
L 142.756408 364.178402 
L 143.263476 353.915456 
L 143.517422 352.941423 
L 144.024489 358.73728 
L 144.278023 356.713621 
L 145.29257 337.104821 
L 145.546516 336.555115 
L 145.800049 336.869503 
L 146.053583 337.810957 
L 146.307117 340.151218 
L 146.814597 352.517434 
L 147.06813 352.626031 
L 147.829144 329.944344 
L 148.082677 328.320724 
L 148.590157 318.424855 
L 148.843691 318.725384 
L 149.350758 326.668881 
L 150.111772 346.406685 
L 150.619251 358.588675 
L 151.126319 362.413859 
L 152.648345 388.079142 
L 152.901879 389.572639 
L 153.155413 387.861054 
L 153.662893 382.013648 
L 153.916426 379.396114 
L 154.423494 370.455898 
L 154.67744 368.512297 
L 154.930973 368.372031 
L 155.184507 368.990814 
L 155.945521 373.02107 
L 156.199054 373.446541 
L 156.452588 371.390612 
L 156.960068 365.290003 
L 157.213601 364.366398 
L 157.467135 364.299561 
L 157.721081 366.457874 
L 158.228148 374.753257 
L 158.481682 377.124271 
L 158.735628 377.564715 
L 159.242696 375.38896 
L 159.496229 375.436279 
L 159.750175 378.264714 
L 160.257243 386.850731 
L 160.510776 389.478892 
L 160.764722 390.75768 
L 161.018256 389.571873 
L 161.27179 384.546003 
L 161.779269 365.747217 
L 162.286337 341.909006 
L 162.539871 341.497873 
L 163.04735 347.544168 
L 163.300884 353.989 
L 164.061897 382.23841 
L 164.568965 390.776345 
L 164.822911 392.480256 
L 165.076444 393.20277 
L 165.329978 391.433471 
L 166.090992 377.714218 
L 166.598059 375.133557 
L 166.852005 374.878057 
L 167.359072 378.807878 
L 167.612606 377.53423 
L 167.866552 377.177786 
L 168.373619 386.732942 
L 168.627153 385.266535 
L 168.881099 373.082455 
L 169.6417 321.3425 
L 170.402714 287.465065 
L 170.656247 287.601874 
L 170.910193 288.61969 
L 171.163727 287.321973 
L 171.417261 286.644972 
L 171.670794 284.404992 
L 171.92474 279.637845 
L 172.685342 248.758239 
L 172.939288 248.677326 
L 173.192821 254.656663 
L 173.953835 283.619632 
L 174.207368 287.887279 
L 174.714436 290.167465 
L 174.968382 293.446069 
L 175.728983 308.195051 
L 175.982929 309.501464 
L 176.236463 309.495278 
L 176.489996 310.691243 
L 178.265557 324.992572 
L 178.51909 325.722019 
L 178.772624 326.842609 
L 179.02657 326.003685 
L 179.280104 323.149319 
L 179.533638 317.984796 
L 180.041117 294.795861 
L 180.548185 273.554618 
L 180.801718 266.849461 
L 181.055664 271.034171 
L 182.070211 319.123991 
L 182.323745 326.847758 
L 182.577279 328.701616 
L 182.830813 327.995987 
L 183.084759 331.845892 
L 183.84536 360.809811 
L 184.352839 371.255249 
L 184.606373 373.138006 
L 184.859907 372.062522 
L 185.367387 362.263963 
L 185.62092 363.304616 
L 186.635467 386.205063 
L 186.889001 387.014324 
L 187.142947 386.590356 
L 187.903548 383.05999 
L 188.157494 378.021469 
L 189.425575 327.871841 
L 189.932642 308.576477 
L 190.440122 286.247224 
L 190.693656 279.697449 
L 190.947189 276.625572 
L 191.200723 277.406284 
L 191.454669 281.890212 
L 191.708203 284.064209 
L 191.961737 281.477276 
L 192.976284 261.991069 
L 193.229817 257.820123 
L 193.483763 250.54294 
L 193.990831 229.199459 
L 194.244364 225.68252 
L 194.49831 223.791549 
L 194.751844 218.757665 
L 195.512858 192.129627 
L 195.766391 193.050744 
L 196.273459 202.521435 
L 196.527405 203.11626 
L 197.034472 199.663572 
L 197.288006 205.437121 
L 198.049019 235.287673 
L 198.302553 239.534512 
L 198.810033 243.325555 
L 199.063566 244.404999 
L 199.3171 248.372975 
L 200.078113 273.747128 
L 200.331647 277.074148 
L 200.585593 277.190489 
L 200.839127 276.346983 
L 201.09266 274.067056 
L 201.60014 265.418449 
L 201.853674 259.998621 
L 202.107208 258.157652 
L 202.360741 261.3204 
L 202.868221 271.062701 
L 203.121755 272.810322 
L 203.375288 273.276434 
L 203.882768 278.159502 
L 204.389836 285.378652 
L 204.897315 296.622241 
L 205.150849 302.873268 
L 205.404383 305.972494 
L 205.911862 308.242041 
L 206.165396 307.01034 
L 207.179943 280.306911 
L 207.687423 256.357503 
L 208.70197 193.823263 
L 209.209037 172.217369 
L 209.462571 170.029463 
L 209.716517 177.33317 
L 210.731064 228.303505 
L 210.984598 227.508576 
L 211.238132 226.076544 
L 211.491665 227.61313 
L 211.999145 233.511116 
L 212.252679 234.627609 
L 214.281773 202.422565 
L 214.535307 201.860044 
L 214.789253 200.708608 
L 215.042786 197.393474 
L 215.549854 185.969876 
L 215.8038 185.318232 
L 216.310867 196.454547 
L 217.325414 222.292626 
L 218.086428 241.39216 
L 218.847441 255.800391 
L 220.369055 300.351315 
L 221.637136 332.891503 
L 222.651683 352.610038 
L 223.412697 358.911037 
L 224.17371 360.112069 
L 224.427244 357.95484 
L 224.680778 350.516647 
L 225.441791 320.390764 
L 225.949271 308.959151 
L 226.963818 274.217159 
L 227.217351 276.747678 
L 227.978365 294.820781 
L 228.231899 294.752465 
L 228.738966 293.025506 
L 228.992912 292.579667 
L 229.246446 292.391318 
L 229.499979 292.66615 
L 230.007459 294.36508 
L 230.260993 291.819292 
L 230.514526 284.125124 
L 231.27554 253.801142 
L 231.529074 249.088837 
L 231.782607 248.247744 
L 232.036553 251.131352 
L 232.290087 255.804342 
L 232.543621 257.020045 
L 233.304634 243.728679 
L 233.558168 242.73154 
L 233.811702 239.323543 
L 234.572715 221.224468 
L 234.826249 218.922034 
L 235.080195 217.767359 
L 235.333728 220.366485 
L 235.840796 247.596327 
L 236.348275 270.970049 
L 236.855343 285.373163 
L 237.616356 291.703517 
L 238.123836 305.116892 
L 239.138383 336.72148 
L 239.391917 339.293933 
L 239.64545 338.845499 
L 239.898984 339.410594 
L 240.406464 343.519756 
L 240.659998 344.499841 
L 241.167477 347.704895 
L 241.928078 353.715651 
L 242.689092 360.65571 
L 242.942625 361.998236 
L 243.196571 364.145172 
L 243.957173 375.484703 
L 244.97172 390.727771 
L 245.479199 395.223152 
L 245.732733 396.619485 
L 245.986267 397.025368 
L 246.240213 395.214084 
L 246.493746 391.240459 
L 247.25476 374.100987 
L 248.269307 365.335495 
L 248.522841 365.089484 
L 248.776374 367.796927 
L 249.537388 379.903858 
L 250.044455 382.766634 
L 250.298401 382.81293 
L 250.805469 380.172086 
L 251.059002 378.565036 
L 251.566482 373.971832 
L 251.820016 374.263686 
L 252.834563 383.901183 
L 253.088096 385.977112 
L 253.84911 396.455217 
L 254.35659 400.403822 
L 254.610123 401.360142 
L 254.863657 401.045055 
L 255.117191 399.631602 
L 255.878204 392.246178 
L 256.131738 392.1779 
L 256.385684 393.032417 
L 256.639217 392.589841 
L 256.892751 391.31917 
L 257.146285 391.527157 
L 257.653765 395.380309 
L 257.907298 395.494862 
L 258.160832 394.176302 
L 259.175379 382.047967 
L 259.429325 376.906057 
L 259.936392 362.925245 
L 260.443872 357.016278 
L 260.697406 355.078055 
L 261.204473 354.006123 
L 261.458419 349.547159 
L 262.472554 309.688355 
L 262.7265 309.843834 
L 263.233568 323.821414 
L 263.994581 342.41782 
L 264.248115 345.722351 
L 264.501648 347.023167 
L 265.009128 347.609167 
L 265.262662 345.733297 
L 266.277209 327.491629 
L 266.530743 329.77277 
L 267.291756 346.357887 
L 267.54529 349.903335 
L 267.799236 351.338591 
L 268.052769 351.959869 
L 268.813783 358.699607 
L 269.067316 359.192059 
L 269.32085 356.96705 
L 270.335397 343.159077 
L 270.842877 327.993818 
L 271.349944 312.819544 
L 272.110958 297.636268 
L 273.379039 254.498804 
L 273.632572 254.43214 
L 273.886518 256.458236 
L 274.140052 256.024557 
L 274.393586 256.29173 
L 274.647119 262.03304 
L 275.154599 293.264618 
L 275.661666 324.331731 
L 276.169146 339.688553 
L 276.676214 348.445844 
L 276.93016 351.288918 
L 277.183693 351.332859 
L 277.437227 350.438174 
L 277.690761 348.583657 
L 277.944707 343.068897 
L 278.451774 323.164184 
L 279.212787 283.21863 
L 279.466321 270.545875 
L 279.719855 263.694955 
L 279.973801 264.775533 
L 280.227335 270.292967 
L 280.734402 289.567006 
L 281.495415 321.055475 
L 281.748949 326.341667 
L 282.002895 327.926506 
L 282.256429 325.478876 
L 282.763496 312.694864 
L 283.52451 292.411931 
L 283.778043 292.880828 
L 284.539057 296.700466 
L 284.79259 299.95789 
L 285.553604 315.110401 
L 285.807138 316.666871 
L 286.061083 317.312977 
L 286.314617 319.843075 
L 287.075631 331.27834 
L 287.329164 332.682894 
L 287.582698 332.389021 
L 288.090178 328.564743 
L 288.343711 329.587838 
L 288.597245 331.19289 
L 288.850779 330.469591 
L 289.358258 326.557899 
L 289.611792 327.645926 
L 290.626339 334.144293 
L 290.879873 333.818477 
L 291.387353 332.012174 
L 291.89442 335.836458 
L 292.148366 335.099963 
L 292.655434 328.904538 
L 293.162913 316.593941 
L 293.669981 300.421719 
L 294.684528 243.13944 
L 294.938061 234.997361 
L 295.192007 232.584722 
L 295.445541 234.086527 
L 295.699075 240.924412 
L 296.713622 288.230929 
L 296.967156 295.15954 
L 297.474635 297.9828 
L 297.981703 302.840851 
L 298.235649 305.986856 
L 298.489182 307.316294 
L 298.742716 305.524728 
L 298.99625 301.745975 
L 299.250196 299.715475 
L 299.50373 302.988039 
L 300.518277 326.36296 
L 301.025344 336.697194 
L 301.27929 338.317206 
L 301.532824 338.531504 
L 301.786357 339.405722 
L 302.039891 339.584451 
L 302.547371 336.048705 
L 303.308384 326.149238 
L 303.815452 316.921641 
L 304.068985 315.335863 
L 304.322931 316.415081 
L 304.576465 318.029131 
L 304.829999 318.554329 
L 305.083532 317.547361 
L 305.591012 313.5146 
L 305.844546 313.663229 
L 306.352026 320.41366 
L 307.366573 326.719401 
L 308.127174 333.981314 
L 308.38112 332.167363 
L 308.888187 326.878831 
L 309.141721 324.667576 
L 309.902734 314.860133 
L 310.156268 315.266997 
L 310.917281 325.41171 
L 311.424761 328.703252 
L 311.678295 331.939443 
L 312.439308 346.425394 
L 312.946376 352.483683 
L 313.453855 360.277273 
L 313.707389 361.392211 
L 313.960923 360.712561 
L 314.214456 360.761177 
L 314.721936 362.752733 
L 314.97547 362.615764 
L 315.482949 361.832828 
L 315.736483 360.858937 
L 315.990017 358.066175 
L 316.75103 345.213446 
L 317.004564 344.018302 
L 317.258098 340.815444 
L 318.019111 324.166845 
L 318.526591 298.050743 
L 318.780124 284.52012 
L 319.033658 277.512263 
L 319.287192 276.799995 
L 319.541138 279.935071 
L 321.316286 311.500146 
L 321.570232 313.6261 
L 321.823766 316.70902 
L 322.330833 332.000529 
L 322.838313 344.366981 
L 323.599326 354.427914 
L 323.85286 355.573512 
L 324.106394 355.324113 
L 324.613873 353.883492 
L 324.867407 355.247795 
L 325.374475 360.57204 
L 325.881954 362.34059 
L 326.135488 362.911463 
L 326.389022 364.646549 
L 327.150035 376.334308 
L 327.403569 377.138612 
L 327.657515 377.139458 
L 328.164582 378.287721 
L 328.418116 378.138537 
L 328.925596 376.720457 
L 329.179129 376.373062 
L 329.432663 377.083034 
L 329.686609 378.336337 
L 329.940143 378.821143 
L 330.193676 378.768455 
L 330.44721 378.204697 
L 330.95469 375.184826 
L 331.208223 375.251103 
L 331.715703 379.124148 
L 331.969237 379.908653 
L 332.222771 378.78516 
L 332.983784 368.825244 
L 333.490851 365.489541 
L 333.744797 365.087414 
L 334.505398 362.419465 
L 334.758932 363.516771 
L 335.266412 366.648959 
L 335.519946 365.848123 
L 335.773479 364.29318 
L 336.027425 363.840698 
L 336.280959 365.044699 
L 337.295506 375.036126 
L 337.54904 376.256172 
L 337.802574 378.349484 
L 338.310053 384.537248 
L 338.563587 386.299503 
L 338.817121 387.092881 
L 339.578134 388.1225 
L 340.085614 387.294569 
L 340.339147 388.988561 
L 340.592681 391.881323 
L 340.846215 393.480923 
L 341.100161 393.266283 
L 341.607228 391.234419 
L 341.860762 392.249263 
L 342.368242 396.755759 
L 342.875309 401.505223 
L 343.129255 402.614321 
L 343.382789 403.200483 
L 343.889856 405.385654 
L 344.65087 409.669734 
L 344.904403 410.017289 
L 345.411883 409.188249 
L 346.172896 406.045461 
L 347.440977 409.284703 
L 347.694511 409.321296 
L 348.201991 408.101533 
L 348.709058 408.9521 
L 348.962592 409.027362 
L 349.216538 409.355624 
L 349.470071 408.865674 
L 350.484618 404.068998 
L 350.991686 404.088132 
L 351.245632 404.297998 
L 351.752699 406.116526 
L 352.006233 406.345489 
L 352.260179 405.851298 
L 352.767246 403.859254 
L 353.02078 402.652203 
L 353.274726 402.125991 
L 353.52826 402.535359 
L 354.289273 405.240175 
L 354.542807 406.856679 
L 355.049874 410.848017 
L 355.30382 410.647109 
L 355.810888 408.575938 
L 357.332914 398.043596 
L 357.839982 393.923532 
L 358.854529 380.531295 
L 359.108063 378.826051 
L 359.362009 378.84434 
L 359.615542 379.52127 
L 359.869076 380.833079 
L 360.630089 387.443092 
L 361.391103 393.800475 
L 361.89817 396.469625 
L 362.40565 398.612204 
L 362.659184 398.765909 
L 362.912717 397.612879 
L 363.166251 395.519099 
L 364.180798 383.150314 
L 364.434744 380.728306 
L 364.688278 379.973576 
L 364.941812 380.31706 
L 365.195345 380.247306 
L 365.449291 380.329807 
L 365.702825 381.445903 
L 366.463838 389.236132 
L 367.478385 395.029785 
L 368.746466 408.3772 
L 369 408.577499 
L 369.253534 407.55083 
L 369.50748 407.02265 
L 369.761013 407.664651 
L 370.77556 416.002424 
L 371.029094 416.444136 
L 371.536574 415.35845 
L 372.043641 416.161297 
L 372.297175 417.161666 
L 372.551121 418.833824 
L 372.804655 419.692793 
L 373.058188 419.69645 
L 373.311722 419.822995 
L 374.072736 421.744602 
L 374.326269 421.395883 
L 374.833749 419.287402 
L 375.087283 418.864172 
L 375.340816 418.746339 
L 375.594762 418.787121 
L 375.848296 418.33201 
L 377.116377 412.596939 
L 377.369911 411.092634 
L 377.623857 410.384725 
L 377.87739 410.228379 
L 378.130924 409.198486 
L 379.145471 397.467692 
L 379.399005 396.218888 
L 380.160018 386.351788 
L 380.413552 386.234227 
L 380.667498 386.40008 
L 380.921032 386.750681 
L 381.174565 388.662961 
L 381.935579 398.258421 
L 382.189112 398.357416 
L 382.442646 397.638046 
L 382.696592 397.552917 
L 382.950126 397.919878 
L 383.203659 398.082809 
L 383.457193 399.001243 
L 383.964673 402.505699 
L 384.218207 402.781804 
L 384.47174 402.358181 
L 384.725686 401.609762 
L 384.97922 400.433953 
L 385.486287 395.463057 
L 385.993767 389.602109 
L 386.247301 388.540876 
L 386.500834 389.037371 
L 386.75478 390.600812 
L 388.022861 401.686443 
L 388.276395 402.22917 
L 388.529929 402.006751 
L 388.783875 402.265407 
L 389.290942 404.346635 
L 389.544476 403.962924 
L 390.305489 400.279622 
L 390.559023 400.123949 
L 390.812969 400.292757 
L 391.066503 400.650923 
L 391.57357 402.324642 
L 392.08105 406.411884 
L 392.334583 408.388256 
L 392.588117 409.221847 
L 393.095597 408.071428 
L 394.110144 409.870354 
L 394.363678 410.159798 
L 394.617211 411.250347 
L 395.378225 417.265726 
L 395.885704 418.76358 
L 397.153785 420.306297 
L 397.407319 420.964278 
L 397.914799 424.307706 
L 398.421866 427.591056 
L 398.929346 428.746228 
L 399.436413 430.912739 
L 399.689947 431.263471 
L 399.943893 431.395033 
L 400.197426 431.709273 
L 400.45096 432.23812 
L 400.704494 432.129849 
L 401.211974 431.266871 
L 401.465507 431.651688 
L 401.972987 433.126751 
L 402.480054 435.89485 
L 402.733588 437.186074 
L 402.987534 437.653291 
L 403.241068 437.198406 
L 404.002081 433.189153 
L 404.509149 432.659716 
L 404.762682 432.384594 
L 405.016628 432.815807 
L 405.523696 435.170566 
L 405.777229 435.517628 
L 406.031175 435.242669 
L 406.284709 435.451051 
L 407.045723 438.224029 
L 407.299256 438.222004 
L 409.32835 430.644226 
L 410.088952 426.919239 
L 410.849965 425.614585 
L 411.864512 425.55092 
L 412.118046 425.543125 
L 412.371992 425.043858 
L 412.625525 424.908849 
L 412.879059 425.374876 
L 413.132593 426.115098 
L 413.386539 427.27359 
L 414.14714 432.205133 
L 414.401086 432.903704 
L 414.908153 432.119622 
L 415.161687 432.520859 
L 415.415633 433.373266 
L 415.669167 433.58218 
L 415.9227 432.967006 
L 416.43018 430.984747 
L 416.683714 431.173271 
L 417.444727 435.033848 
L 417.951795 435.310667 
L 418.205328 435.38432 
L 418.459274 436.186503 
L 418.966342 439.310893 
L 419.219876 439.685682 
L 419.473821 439.364491 
L 419.980889 437.865949 
L 420.488369 437.477 
L 420.741902 437.886227 
L 421.24897 439.123036 
L 421.502916 439.376977 
L 421.756449 439.425277 
L 422.263517 438.866372 
L 422.517463 438.873796 
L 423.278064 440.097746 
L 423.785544 441.282262 
L 424.292611 441.863071 
L 424.546557 442.048397 
L 424.800091 442.029425 
L 425.814638 441.431005 
L 426.575651 443.642238 
L 426.829185 443.560623 
L 427.336252 442.951086 
L 427.843732 442.130897 
L 428.350799 443.338776 
L 428.858279 444.754112 
L 429.111813 445.023418 
L 429.365347 444.79849 
L 429.872826 443.776656 
L 430.12636 444.043441 
L 430.63384 446.271591 
L 431.140907 447.179271 
L 431.90192 451.408681 
L 432.155454 451.2835 
L 433.170001 450.276051 
L 433.423535 450.38705 
L 433.677481 450.282381 
L 433.931015 450.3804 
L 434.184548 450.689692 
L 434.438082 451.213651 
L 434.692028 452.238515 
L 435.199095 454.872655 
L 435.452629 455.247104 
L 435.706575 455.038506 
L 436.467176 453.479033 
L 436.721122 453.359507 
L 437.989203 455.974554 
L 438.242737 455.753295 
L 438.49627 455.295655 
L 438.750216 455.182879 
L 439.257284 456.126175 
L 439.510818 456.683607 
L 440.271831 457.425222 
L 440.525365 457.402245 
L 440.779311 457.659771 
L 441.286378 458.996545 
L 441.793858 459.631974 
L 442.300925 459.827085 
L 443.569006 459.304908 
L 443.822952 459.056848 
L 444.076486 459.166354 
L 444.330019 459.640743 
L 444.837499 461.062489 
L 446.10558 462.388277 
L 446.359114 462.524616 
L 446.612647 462.443256 
L 446.866593 462.140251 
L 447.373661 461.207902 
L 447.627194 461.388926 
L 448.134674 462.592068 
L 448.388208 462.946541 
L 448.641742 463.076819 
L 449.656289 464.353457 
L 449.910235 463.969916 
L 450.163768 463.795271 
L 450.670836 464.572706 
L 451.178315 464.537339 
L 451.939329 465.373324 
L 452.69993 465.310399 
L 452.953876 465.801311 
L 453.460943 467.557785 
L 454.47549 469.531151 
L 454.729024 470.202054 
L 454.98297 470.356621 
L 455.490038 469.743024 
L 456.251051 469.181826 
L 456.504585 468.936802 
L 456.758118 469.137213 
L 457.519132 470.672358 
L 458.280145 471.087644 
L 458.787213 471.973476 
L 459.294692 471.951907 
L 459.548226 472.237571 
L 460.055706 473.431602 
L 460.309239 473.504726 
L 460.562773 473.345303 
L 460.816307 473.483739 
L 461.070253 473.854019 
L 461.323786 473.926215 
L 462.0848 473.363494 
L 462.338334 473.496722 
L 462.845401 474.616959 
L 463.099347 474.765635 
L 463.606414 474.595105 
L 464.367428 475.092969 
L 465.128441 476.756962 
L 465.381975 476.527956 
L 465.889042 475.674272 
L 466.396522 475.268539 
L 467.664603 475.594202 
L 467.918136 475.812437 
L 468.425616 476.485401 
L 469.18663 477.15631 
L 469.947231 477.057268 
L 470.201177 476.96999 
L 470.708244 477.181442 
L 470.961778 477.401558 
L 471.469257 478.160279 
L 471.722791 478.310051 
L 472.483805 478.285708 
L 473.244818 479.353716 
L 473.498352 479.349878 
L 474.259365 478.866999 
L 474.766432 478.221268 
L 475.527446 479.280972 
L 476.288459 480.593357 
L 476.541993 480.668854 
L 477.04906 480.423011 
L 477.55654 480.408234 
L 477.810074 480.555953 
L 478.317553 481.330705 
L 478.571087 481.405406 
L 479.078155 481.316566 
L 479.585634 481.22625 
L 479.839168 481.140338 
L 480.346648 481.363069 
L 481.360783 482.047383 
L 482.121796 482.826159 
L 482.882809 482.653319 
L 483.136343 482.806838 
L 483.643823 482.876263 
L 484.15089 482.947542 
L 484.65837 482.459518 
L 485.418971 482.676794 
L 486.687464 484.250793 
L 487.702011 483.917366 
L 488.209079 483.344794 
L 488.462612 483.497903 
L 489.477159 484.602928 
L 489.731105 484.680737 
L 490.238173 484.513323 
L 490.745652 484.019566 
L 490.999186 484.173657 
L 491.506254 484.72995 
L 491.7602 484.807283 
L 492.013733 484.723551 
L 492.520801 483.904087 
L 492.774747 483.894323 
L 493.281814 485.014327 
L 494.042827 487.28083 
L 494.296361 487.442562 
L 495.818388 486.940271 
L 496.578989 487.256918 
L 497.593536 487.981801 
L 497.847482 488.225313 
L 498.35455 488.30353 
L 498.608083 488.219312 
L 499.115563 488.460266 
L 499.62263 488.866504 
L 500.383644 489.601757 
L 501.144657 489.927275 
L 501.398191 490.091084 
L 502.159204 490.005683 
L 503.173751 489.75299 
L 503.680819 489.832473 
L 504.441832 490.15967 
L 505.202846 490.654466 
L 505.456379 490.653801 
L 505.709913 490.48683 
L 506.72446 490.565898 
L 507.23194 490.647268 
L 507.739007 490.72871 
L 509.0075 491.142589 
L 510.022047 490.804786 
L 512.558209 491.553973 
L 516.10933 491.632215 
L 516.616397 491.716244 
L 517.884478 491.799383 
L 518.391958 491.883877 
L 522.70368 491.964615 
L 523.21116 492.050074 
L 527.015402 492.133434 
L 527.522882 492.219813 
L 591.692883 492.283123 
L 592.199951 492.381467 
L 622.636364 492.375727 
L 622.636364 492.375727 
" clip-path="url(#pae41af37f1)" style="fill: none; stroke-dasharray: 5.55,2.4; stroke-dashoffset: 0; stroke: #008080; stroke-width: 1.5"/>
   </g>
   <g id="patch_3">
    <path d="M 90 512.64 
L 90 69.12 
" style="fill: none; stroke: #000000; stroke-width: 0.8; stroke-linejoin: miter; stroke-linecap: square"/>
   </g>
   <g id="patch_4">
    <path d="M 648 512.64 
L 648 69.12 
" style="fill: none; stroke: #000000; stroke-width: 0.8; stroke-linejoin: miter; stroke-linecap: square"/>
   </g>
   <g id="patch_5">
    <path d="M 90 512.64 
L 648 512.64 
" style="fill: none; stroke: #000000; stroke-width: 0.8; stroke-linejoin: miter; stroke-linecap: square"/>
   </g>
   <g id="patch_6">
    <path d="M 90 69.12 
L 648 69.12 
" style="fill: none; stroke: #000000; stroke-width: 0.8; stroke-linejoin: miter; stroke-linecap: square"/>
   </g>
   <g id="legend_1">
    <g id="patch_7">
     <path d="M 572.376562 106.47625 
L 641 106.47625 
Q 643 106.47625 643 104.47625 
L 643 76.12 
Q 643 74.12 641 74.12 
L 572.376562 74.12 
Q 570.376562 74.12 570.376562 76.12 
L 570.376562 104.47625 
Q 570.376562 106.47625 572.376562 106.47625 
z
" style="fill: #ffffff; opacity: 0.8; stroke: #cccccc; stroke-linejoin: miter"/>
    </g>
    <g id="line2d_16">
     <path d="M 574.376562 82.218438 
L 584.376562 82.218438 
L 594.376562 82.218438 
" style="fill: none; stroke: #c71585; stroke-width: 1.5; stroke-linecap: square"/>
    </g>
    <g id="text_17">
     <!-- InFeO3 -->
     <g transform="translate(602.376562 85.718438)scale(0.1 -0.1)">
      <defs>
       <path id="DejaVuSans-49" d="M 628 4666 
L 1259 4666 
L 1259 0 
L 628 0 
L 628 4666 
z
" transform="scale(0.015625)"/>
       <path id="DejaVuSans-46" d="M 628 4666 
L 3309 4666 
L 3309 4134 
L 1259 4134 
L 1259 2759 
L 3109 2759 
L 3109 2228 
L 1259 2228 
L 1259 0 
L 628 0 
L 628 4666 
z
" transform="scale(0.015625)"/>
       <path id="DejaVuSans-4f" d="M 2522 4238 
Q 1834 4238 1429 3725 
Q 1025 3213 1025 2328 
Q 1025 1447 1429 934 
Q 1834 422 2522 422 
Q 3209 422 3611 934 
Q 4013 1447 4013 2328 
Q 4013 3213 3611 3725 
Q 3209 4238 2522 4238 
z
M 2522 4750 
Q 3503 4750 4090 4092 
Q 4678 3434 4678 2328 
Q 4678 1225 4090 567 
Q 3503 -91 2522 -91 
Q 1538 -91 948 565 
Q 359 1222 359 2328 
Q 359 3434 948 4092 
Q 1538 4750 2522 4750 
z
" transform="scale(0.015625)"/>
       <path id="DejaVuSans-33" d="M 2597 2516 
Q 3050 2419 3304 2112 
Q 3559 1806 3559 1356 
Q 3559 666 3084 287 
Q 2609 -91 1734 -91 
Q 1441 -91 1130 -33 
Q 819 25 488 141 
L 488 750 
Q 750 597 1062 519 
Q 1375 441 1716 441 
Q 2309 441 2620 675 
Q 2931 909 2931 1356 
Q 2931 1769 2642 2001 
Q 2353 2234 1838 2234 
L 1294 2234 
L 1294 2753 
L 1863 2753 
Q 2328 2753 2575 2939 
Q 2822 3125 2822 3475 
Q 2822 3834 2567 4026 
Q 2313 4219 1838 4219 
Q 1578 4219 1281 4162 
Q 984 4106 628 3988 
L 628 4550 
Q 988 4650 1302 4700 
Q 1616 4750 1894 4750 
Q 2613 4750 3031 4423 
Q 3450 4097 3450 3541 
Q 3450 3153 3228 2886 
Q 3006 2619 2597 2516 
z
" transform="scale(0.015625)"/>
      </defs>
      <use xlink:href="#DejaVuSans-49"/>
      <use xlink:href="#DejaVuSans-6e" x="29.492188"/>
      <use xlink:href="#DejaVuSans-46" x="92.871094"/>
      <use xlink:href="#DejaVuSans-65" x="144.890625"/>
      <use xlink:href="#DejaVuSans-4f" x="206.414062"/>
      <use xlink:href="#DejaVuSans-33" x="285.125"/>
     </g>
    </g>
    <g id="line2d_17">
     <path d="M 574.376562 96.896563 
L 584.376562 96.896563 
L 594.376562 96.896563 
" style="fill: none; stroke-dasharray: 5.55,2.4; stroke-dashoffset: 0; stroke: #008080; stroke-width: 1.5"/>
    </g>
    <g id="text_18">
     <!-- InCoO3 -->
     <g transform="translate(602.376562 100.396563)scale(0.1 -0.1)">
      <defs>
       <path id="DejaVuSans-43" d="M 4122 4306 
L 4122 3641 
Q 3803 3938 3442 4084 
Q 3081 4231 2675 4231 
Q 1875 4231 1450 3742 
Q 1025 3253 1025 2328 
Q 1025 1406 1450 917 
Q 1875 428 2675 428 
Q 3081 428 3442 575 
Q 3803 722 4122 1019 
L 4122 359 
Q 3791 134 3420 21 
Q 3050 -91 2638 -91 
Q 1578 -91 968 557 
Q 359 1206 359 2328 
Q 359 3453 968 4101 
Q 1578 4750 2638 4750 
Q 3056 4750 3426 4639 
Q 3797 4528 4122 4306 
z
" transform="scale(0.015625)"/>
      </defs>
      <use xlink:href="#DejaVuSans-49"/>
      <use xlink:href="#DejaVuSans-6e" x="29.492188"/>
      <use xlink:href="#DejaVuSans-43" x="92.871094"/>
      <use xlink:href="#DejaVuSans-6f" x="162.695312"/>
      <use xlink:href="#DejaVuSans-4f" x="223.876953"/>
      <use xlink:href="#DejaVuSans-33" x="302.587891"/>
     </g>
    </g>
   </g>
  </g>
 </g>
 <defs>
  <clipPath id="pae41af37f1">
   <rect x="90" y="69.12" width="558" height="443.52"/>
  </clipPath>
 </defs>
</svg>
