<?xml version="1.0" encoding="utf-8" standalone="no"?>
<!DOCTYPE svg PUBLIC "-//W3C//DTD SVG 1.1//EN"
  "http://www.w3.org/Graphics/SVG/1.1/DTD/svg11.dtd">
<svg xmlns:xlink="http://www.w3.org/1999/xlink" width="720pt" height="576pt" viewBox="0 0 720 576" xmlns="http://www.w3.org/2000/svg" version="1.1">
 <metadata>
  <rdf:RDF xmlns:dc="http://purl.org/dc/elements/1.1/" xmlns:cc="http://creativecommons.org/ns#" xmlns:rdf="http://www.w3.org/1999/02/22-rdf-syntax-ns#">
   <cc:Work>
    <dc:type rdf:resource="http://purl.org/dc/dcmitype/StillImage"/>
    <dc:date>2022-03-18T21:03:16.816713</dc:date>
    <dc:format>image/svg+xml</dc:format>
    <dc:creator>
     <cc:Agent>
      <dc:title>Matplotlib v3.5.1, https://matplotlib.org/</dc:title>
     </cc:Agent>
    </dc:creator>
   </cc:Work>
  </rdf:RDF>
 </metadata>
 <defs>
  <style type="text/css">*{stroke-linejoin: round; stroke-linecap: butt}</style>
 </defs>
 <g id="figure_1">
  <g id="patch_1">
   <path d="M 0 576 
L 720 576 
L 720 0 
L 0 0 
z
" style="fill: #ffffff"/>
  </g>
  <g id="axes_1">
   <g id="patch_2">
    <path d="M 90 512.64 
L 648 512.64 
L 648 69.12 
L 90 69.12 
z
" style="fill: #ffffff"/>
   </g>
   <g id="matplotlib.axis_1">
    <g id="xtick_1">
     <g id="line2d_1">
      <defs>
       <path id="mb29a382e97" d="M 0 0 
L 0 3.5 
" style="stroke: #000000; stroke-width: 0.8"/>
      </defs>
      <g>
       <use xlink:href="#mb29a382e97" x="115.141749" y="512.64" style="stroke: #000000; stroke-width: 0.8"/>
      </g>
     </g>
     <g id="text_1">
      <!-- 0 -->
      <g transform="translate(111.960499 527.238438)scale(0.1 -0.1)">
       <defs>
        <path id="DejaVuSans-30" d="M 2034 4250 
Q 1547 4250 1301 3770 
Q 1056 3291 1056 2328 
Q 1056 1369 1301 889 
Q 1547 409 2034 409 
Q 2525 409 2770 889 
Q 3016 1369 3016 2328 
Q 3016 3291 2770 3770 
Q 2525 4250 2034 4250 
z
M 2034 4750 
Q 2819 4750 3233 4129 
Q 3647 3509 3647 2328 
Q 3647 1150 3233 529 
Q 2819 -91 2034 -91 
Q 1250 -91 836 529 
Q 422 1150 422 2328 
Q 422 3509 836 4129 
Q 1250 4750 2034 4750 
z
" transform="scale(0.015625)"/>
       </defs>
       <use xlink:href="#DejaVuSans-30"/>
      </g>
     </g>
    </g>
    <g id="xtick_2">
     <g id="line2d_2">
      <g>
       <use xlink:href="#mb29a382e97" x="197.627802" y="512.64" style="stroke: #000000; stroke-width: 0.8"/>
      </g>
     </g>
     <g id="text_2">
      <!-- 20 -->
      <g transform="translate(191.265302 527.238438)scale(0.1 -0.1)">
       <defs>
        <path id="DejaVuSans-32" d="M 1228 531 
L 3431 531 
L 3431 0 
L 469 0 
L 469 531 
Q 828 903 1448 1529 
Q 2069 2156 2228 2338 
Q 2531 2678 2651 2914 
Q 2772 3150 2772 3378 
Q 2772 3750 2511 3984 
Q 2250 4219 1831 4219 
Q 1534 4219 1204 4116 
Q 875 4013 500 3803 
L 500 4441 
Q 881 4594 1212 4672 
Q 1544 4750 1819 4750 
Q 2544 4750 2975 4387 
Q 3406 4025 3406 3419 
Q 3406 3131 3298 2873 
Q 3191 2616 2906 2266 
Q 2828 2175 2409 1742 
Q 1991 1309 1228 531 
z
" transform="scale(0.015625)"/>
       </defs>
       <use xlink:href="#DejaVuSans-32"/>
       <use xlink:href="#DejaVuSans-30" x="63.623047"/>
      </g>
     </g>
    </g>
    <g id="xtick_3">
     <g id="line2d_3">
      <g>
       <use xlink:href="#mb29a382e97" x="280.113854" y="512.64" style="stroke: #000000; stroke-width: 0.8"/>
      </g>
     </g>
     <g id="text_3">
      <!-- 40 -->
      <g transform="translate(273.751354 527.238438)scale(0.1 -0.1)">
       <defs>
        <path id="DejaVuSans-34" d="M 2419 4116 
L 825 1625 
L 2419 1625 
L 2419 4116 
z
M 2253 4666 
L 3047 4666 
L 3047 1625 
L 3713 1625 
L 3713 1100 
L 3047 1100 
L 3047 0 
L 2419 0 
L 2419 1100 
L 313 1100 
L 313 1709 
L 2253 4666 
z
" transform="scale(0.015625)"/>
       </defs>
       <use xlink:href="#DejaVuSans-34"/>
       <use xlink:href="#DejaVuSans-30" x="63.623047"/>
      </g>
     </g>
    </g>
    <g id="xtick_4">
     <g id="line2d_4">
      <g>
       <use xlink:href="#mb29a382e97" x="362.599907" y="512.64" style="stroke: #000000; stroke-width: 0.8"/>
      </g>
     </g>
     <g id="text_4">
      <!-- 60 -->
      <g transform="translate(356.237407 527.238438)scale(0.1 -0.1)">
       <defs>
        <path id="DejaVuSans-36" d="M 2113 2584 
Q 1688 2584 1439 2293 
Q 1191 2003 1191 1497 
Q 1191 994 1439 701 
Q 1688 409 2113 409 
Q 2538 409 2786 701 
Q 3034 994 3034 1497 
Q 3034 2003 2786 2293 
Q 2538 2584 2113 2584 
z
M 3366 4563 
L 3366 3988 
Q 3128 4100 2886 4159 
Q 2644 4219 2406 4219 
Q 1781 4219 1451 3797 
Q 1122 3375 1075 2522 
Q 1259 2794 1537 2939 
Q 1816 3084 2150 3084 
Q 2853 3084 3261 2657 
Q 3669 2231 3669 1497 
Q 3669 778 3244 343 
Q 2819 -91 2113 -91 
Q 1303 -91 875 529 
Q 447 1150 447 2328 
Q 447 3434 972 4092 
Q 1497 4750 2381 4750 
Q 2619 4750 2861 4703 
Q 3103 4656 3366 4563 
z
" transform="scale(0.015625)"/>
       </defs>
       <use xlink:href="#DejaVuSans-36"/>
       <use xlink:href="#DejaVuSans-30" x="63.623047"/>
      </g>
     </g>
    </g>
    <g id="xtick_5">
     <g id="line2d_5">
      <g>
       <use xlink:href="#mb29a382e97" x="445.08596" y="512.64" style="stroke: #000000; stroke-width: 0.8"/>
      </g>
     </g>
     <g id="text_5">
      <!-- 80 -->
      <g transform="translate(438.72346 527.238438)scale(0.1 -0.1)">
       <defs>
        <path id="DejaVuSans-38" d="M 2034 2216 
Q 1584 2216 1326 1975 
Q 1069 1734 1069 1313 
Q 1069 891 1326 650 
Q 1584 409 2034 409 
Q 2484 409 2743 651 
Q 3003 894 3003 1313 
Q 3003 1734 2745 1975 
Q 2488 2216 2034 2216 
z
M 1403 2484 
Q 997 2584 770 2862 
Q 544 3141 544 3541 
Q 544 4100 942 4425 
Q 1341 4750 2034 4750 
Q 2731 4750 3128 4425 
Q 3525 4100 3525 3541 
Q 3525 3141 3298 2862 
Q 3072 2584 2669 2484 
Q 3125 2378 3379 2068 
Q 3634 1759 3634 1313 
Q 3634 634 3220 271 
Q 2806 -91 2034 -91 
Q 1263 -91 848 271 
Q 434 634 434 1313 
Q 434 1759 690 2068 
Q 947 2378 1403 2484 
z
M 1172 3481 
Q 1172 3119 1398 2916 
Q 1625 2713 2034 2713 
Q 2441 2713 2670 2916 
Q 2900 3119 2900 3481 
Q 2900 3844 2670 4047 
Q 2441 4250 2034 4250 
Q 1625 4250 1398 4047 
Q 1172 3844 1172 3481 
z
" transform="scale(0.015625)"/>
       </defs>
       <use xlink:href="#DejaVuSans-38"/>
       <use xlink:href="#DejaVuSans-30" x="63.623047"/>
      </g>
     </g>
    </g>
    <g id="xtick_6">
     <g id="line2d_6">
      <g>
       <use xlink:href="#mb29a382e97" x="527.572013" y="512.64" style="stroke: #000000; stroke-width: 0.8"/>
      </g>
     </g>
     <g id="text_6">
      <!-- 100 -->
      <g transform="translate(518.028263 527.238438)scale(0.1 -0.1)">
       <defs>
        <path id="DejaVuSans-31" d="M 794 531 
L 1825 531 
L 1825 4091 
L 703 3866 
L 703 4441 
L 1819 4666 
L 2450 4666 
L 2450 531 
L 3481 531 
L 3481 0 
L 794 0 
L 794 531 
z
" transform="scale(0.015625)"/>
       </defs>
       <use xlink:href="#DejaVuSans-31"/>
       <use xlink:href="#DejaVuSans-30" x="63.623047"/>
       <use xlink:href="#DejaVuSans-30" x="127.246094"/>
      </g>
     </g>
    </g>
    <g id="xtick_7">
     <g id="line2d_7">
      <g>
       <use xlink:href="#mb29a382e97" x="610.058065" y="512.64" style="stroke: #000000; stroke-width: 0.8"/>
      </g>
     </g>
     <g id="text_7">
      <!-- 120 -->
      <g transform="translate(600.514315 527.238438)scale(0.1 -0.1)">
       <use xlink:href="#DejaVuSans-31"/>
       <use xlink:href="#DejaVuSans-32" x="63.623047"/>
       <use xlink:href="#DejaVuSans-30" x="127.246094"/>
      </g>
     </g>
    </g>
    <g id="text_8">
     <!-- Energy (eV) -->
     <g transform="translate(339.50625 540.916563)scale(0.1 -0.1)">
      <defs>
       <path id="DejaVuSans-45" d="M 628 4666 
L 3578 4666 
L 3578 4134 
L 1259 4134 
L 1259 2753 
L 3481 2753 
L 3481 2222 
L 1259 2222 
L 1259 531 
L 3634 531 
L 3634 0 
L 628 0 
L 628 4666 
z
" transform="scale(0.015625)"/>
       <path id="DejaVuSans-6e" d="M 3513 2113 
L 3513 0 
L 2938 0 
L 2938 2094 
Q 2938 2591 2744 2837 
Q 2550 3084 2163 3084 
Q 1697 3084 1428 2787 
Q 1159 2491 1159 1978 
L 1159 0 
L 581 0 
L 581 3500 
L 1159 3500 
L 1159 2956 
Q 1366 3272 1645 3428 
Q 1925 3584 2291 3584 
Q 2894 3584 3203 3211 
Q 3513 2838 3513 2113 
z
" transform="scale(0.015625)"/>
       <path id="DejaVuSans-65" d="M 3597 1894 
L 3597 1613 
L 953 1613 
Q 991 1019 1311 708 
Q 1631 397 2203 397 
Q 2534 397 2845 478 
Q 3156 559 3463 722 
L 3463 178 
Q 3153 47 2828 -22 
Q 2503 -91 2169 -91 
Q 1331 -91 842 396 
Q 353 884 353 1716 
Q 353 2575 817 3079 
Q 1281 3584 2069 3584 
Q 2775 3584 3186 3129 
Q 3597 2675 3597 1894 
z
M 3022 2063 
Q 3016 2534 2758 2815 
Q 2500 3097 2075 3097 
Q 1594 3097 1305 2825 
Q 1016 2553 972 2059 
L 3022 2063 
z
" transform="scale(0.015625)"/>
       <path id="DejaVuSans-72" d="M 2631 2963 
Q 2534 3019 2420 3045 
Q 2306 3072 2169 3072 
Q 1681 3072 1420 2755 
Q 1159 2438 1159 1844 
L 1159 0 
L 581 0 
L 581 3500 
L 1159 3500 
L 1159 2956 
Q 1341 3275 1631 3429 
Q 1922 3584 2338 3584 
Q 2397 3584 2469 3576 
Q 2541 3569 2628 3553 
L 2631 2963 
z
" transform="scale(0.015625)"/>
       <path id="DejaVuSans-67" d="M 2906 1791 
Q 2906 2416 2648 2759 
Q 2391 3103 1925 3103 
Q 1463 3103 1205 2759 
Q 947 2416 947 1791 
Q 947 1169 1205 825 
Q 1463 481 1925 481 
Q 2391 481 2648 825 
Q 2906 1169 2906 1791 
z
M 3481 434 
Q 3481 -459 3084 -895 
Q 2688 -1331 1869 -1331 
Q 1566 -1331 1297 -1286 
Q 1028 -1241 775 -1147 
L 775 -588 
Q 1028 -725 1275 -790 
Q 1522 -856 1778 -856 
Q 2344 -856 2625 -561 
Q 2906 -266 2906 331 
L 2906 616 
Q 2728 306 2450 153 
Q 2172 0 1784 0 
Q 1141 0 747 490 
Q 353 981 353 1791 
Q 353 2603 747 3093 
Q 1141 3584 1784 3584 
Q 2172 3584 2450 3431 
Q 2728 3278 2906 2969 
L 2906 3500 
L 3481 3500 
L 3481 434 
z
" transform="scale(0.015625)"/>
       <path id="DejaVuSans-79" d="M 2059 -325 
Q 1816 -950 1584 -1140 
Q 1353 -1331 966 -1331 
L 506 -1331 
L 506 -850 
L 844 -850 
Q 1081 -850 1212 -737 
Q 1344 -625 1503 -206 
L 1606 56 
L 191 3500 
L 800 3500 
L 1894 763 
L 2988 3500 
L 3597 3500 
L 2059 -325 
z
" transform="scale(0.015625)"/>
       <path id="DejaVuSans-20" transform="scale(0.015625)"/>
       <path id="DejaVuSans-28" d="M 1984 4856 
Q 1566 4138 1362 3434 
Q 1159 2731 1159 2009 
Q 1159 1288 1364 580 
Q 1569 -128 1984 -844 
L 1484 -844 
Q 1016 -109 783 600 
Q 550 1309 550 2009 
Q 550 2706 781 3412 
Q 1013 4119 1484 4856 
L 1984 4856 
z
" transform="scale(0.015625)"/>
       <path id="DejaVuSans-56" d="M 1831 0 
L 50 4666 
L 709 4666 
L 2188 738 
L 3669 4666 
L 4325 4666 
L 2547 0 
L 1831 0 
z
" transform="scale(0.015625)"/>
       <path id="DejaVuSans-29" d="M 513 4856 
L 1013 4856 
Q 1481 4119 1714 3412 
Q 1947 2706 1947 2009 
Q 1947 1309 1714 600 
Q 1481 -109 1013 -844 
L 513 -844 
Q 928 -128 1133 580 
Q 1338 1288 1338 2009 
Q 1338 2731 1133 3434 
Q 928 4138 513 4856 
z
" transform="scale(0.015625)"/>
      </defs>
      <use xlink:href="#DejaVuSans-45"/>
      <use xlink:href="#DejaVuSans-6e" x="63.183594"/>
      <use xlink:href="#DejaVuSans-65" x="126.5625"/>
      <use xlink:href="#DejaVuSans-72" x="188.085938"/>
      <use xlink:href="#DejaVuSans-67" x="227.449219"/>
      <use xlink:href="#DejaVuSans-79" x="290.925781"/>
      <use xlink:href="#DejaVuSans-20" x="350.105469"/>
      <use xlink:href="#DejaVuSans-28" x="381.892578"/>
      <use xlink:href="#DejaVuSans-65" x="420.90625"/>
      <use xlink:href="#DejaVuSans-56" x="482.429688"/>
      <use xlink:href="#DejaVuSans-29" x="550.837891"/>
     </g>
    </g>
   </g>
   <g id="matplotlib.axis_2">
    <g id="ytick_1">
     <g id="line2d_8">
      <defs>
       <path id="m64719481cf" d="M 0 0 
L -3.5 0 
" style="stroke: #000000; stroke-width: 0.8"/>
      </defs>
      <g>
       <use xlink:href="#m64719481cf" x="90" y="464.345163" style="stroke: #000000; stroke-width: 0.8"/>
      </g>
     </g>
     <g id="text_9">
      <!-- 0 -->
      <g transform="translate(76.6375 468.144382)scale(0.1 -0.1)">
       <use xlink:href="#DejaVuSans-30"/>
      </g>
     </g>
    </g>
    <g id="ytick_2">
     <g id="line2d_9">
      <g>
       <use xlink:href="#m64719481cf" x="90" y="409.729259" style="stroke: #000000; stroke-width: 0.8"/>
      </g>
     </g>
     <g id="text_10">
      <!-- 20 -->
      <g transform="translate(70.275 413.528478)scale(0.1 -0.1)">
       <use xlink:href="#DejaVuSans-32"/>
       <use xlink:href="#DejaVuSans-30" x="63.623047"/>
      </g>
     </g>
    </g>
    <g id="ytick_3">
     <g id="line2d_10">
      <g>
       <use xlink:href="#m64719481cf" x="90" y="355.113355" style="stroke: #000000; stroke-width: 0.8"/>
      </g>
     </g>
     <g id="text_11">
      <!-- 40 -->
      <g transform="translate(70.275 358.912574)scale(0.1 -0.1)">
       <use xlink:href="#DejaVuSans-34"/>
       <use xlink:href="#DejaVuSans-30" x="63.623047"/>
      </g>
     </g>
    </g>
    <g id="ytick_4">
     <g id="line2d_11">
      <g>
       <use xlink:href="#m64719481cf" x="90" y="300.497451" style="stroke: #000000; stroke-width: 0.8"/>
      </g>
     </g>
     <g id="text_12">
      <!-- 60 -->
      <g transform="translate(70.275 304.29667)scale(0.1 -0.1)">
       <use xlink:href="#DejaVuSans-36"/>
       <use xlink:href="#DejaVuSans-30" x="63.623047"/>
      </g>
     </g>
    </g>
    <g id="ytick_5">
     <g id="line2d_12">
      <g>
       <use xlink:href="#m64719481cf" x="90" y="245.881547" style="stroke: #000000; stroke-width: 0.8"/>
      </g>
     </g>
     <g id="text_13">
      <!-- 80 -->
      <g transform="translate(70.275 249.680766)scale(0.1 -0.1)">
       <use xlink:href="#DejaVuSans-38"/>
       <use xlink:href="#DejaVuSans-30" x="63.623047"/>
      </g>
     </g>
    </g>
    <g id="ytick_6">
     <g id="line2d_13">
      <g>
       <use xlink:href="#m64719481cf" x="90" y="191.265643" style="stroke: #000000; stroke-width: 0.8"/>
      </g>
     </g>
     <g id="text_14">
      <!-- 100 -->
      <g transform="translate(63.9125 195.064862)scale(0.1 -0.1)">
       <use xlink:href="#DejaVuSans-31"/>
       <use xlink:href="#DejaVuSans-30" x="63.623047"/>
       <use xlink:href="#DejaVuSans-30" x="127.246094"/>
      </g>
     </g>
    </g>
    <g id="ytick_7">
     <g id="line2d_14">
      <g>
       <use xlink:href="#m64719481cf" x="90" y="136.649739" style="stroke: #000000; stroke-width: 0.8"/>
      </g>
     </g>
     <g id="text_15">
      <!-- 120 -->
      <g transform="translate(63.9125 140.448958)scale(0.1 -0.1)">
       <use xlink:href="#DejaVuSans-31"/>
       <use xlink:href="#DejaVuSans-32" x="63.623047"/>
       <use xlink:href="#DejaVuSans-30" x="127.246094"/>
      </g>
     </g>
    </g>
    <g id="ytick_8">
     <g id="line2d_15">
      <g>
       <use xlink:href="#m64719481cf" x="90" y="82.033835" style="stroke: #000000; stroke-width: 0.8"/>
      </g>
     </g>
     <g id="text_16">
      <!-- 140 -->
      <g transform="translate(63.9125 85.833054)scale(0.1 -0.1)">
       <use xlink:href="#DejaVuSans-31"/>
       <use xlink:href="#DejaVuSans-34" x="63.623047"/>
       <use xlink:href="#DejaVuSans-30" x="127.246094"/>
      </g>
     </g>
    </g>
    <g id="text_17">
     <!-- Dielectric constant $\epsilon$ -->
     <g transform="translate(57.832812 342.23)rotate(-90)scale(0.1 -0.1)">
      <defs>
       <path id="DejaVuSans-44" d="M 1259 4147 
L 1259 519 
L 2022 519 
Q 2988 519 3436 956 
Q 3884 1394 3884 2338 
Q 3884 3275 3436 3711 
Q 2988 4147 2022 4147 
L 1259 4147 
z
M 628 4666 
L 1925 4666 
Q 3281 4666 3915 4102 
Q 4550 3538 4550 2338 
Q 4550 1131 3912 565 
Q 3275 0 1925 0 
L 628 0 
L 628 4666 
z
" transform="scale(0.015625)"/>
       <path id="DejaVuSans-69" d="M 603 3500 
L 1178 3500 
L 1178 0 
L 603 0 
L 603 3500 
z
M 603 4863 
L 1178 4863 
L 1178 4134 
L 603 4134 
L 603 4863 
z
" transform="scale(0.015625)"/>
       <path id="DejaVuSans-6c" d="M 603 4863 
L 1178 4863 
L 1178 0 
L 603 0 
L 603 4863 
z
" transform="scale(0.015625)"/>
       <path id="DejaVuSans-63" d="M 3122 3366 
L 3122 2828 
Q 2878 2963 2633 3030 
Q 2388 3097 2138 3097 
Q 1578 3097 1268 2742 
Q 959 2388 959 1747 
Q 959 1106 1268 751 
Q 1578 397 2138 397 
Q 2388 397 2633 464 
Q 2878 531 3122 666 
L 3122 134 
Q 2881 22 2623 -34 
Q 2366 -91 2075 -91 
Q 1284 -91 818 406 
Q 353 903 353 1747 
Q 353 2603 823 3093 
Q 1294 3584 2113 3584 
Q 2378 3584 2631 3529 
Q 2884 3475 3122 3366 
z
" transform="scale(0.015625)"/>
       <path id="DejaVuSans-74" d="M 1172 4494 
L 1172 3500 
L 2356 3500 
L 2356 3053 
L 1172 3053 
L 1172 1153 
Q 1172 725 1289 603 
Q 1406 481 1766 481 
L 2356 481 
L 2356 0 
L 1766 0 
Q 1100 0 847 248 
Q 594 497 594 1153 
L 594 3053 
L 172 3053 
L 172 3500 
L 594 3500 
L 594 4494 
L 1172 4494 
z
" transform="scale(0.015625)"/>
       <path id="DejaVuSans-6f" d="M 1959 3097 
Q 1497 3097 1228 2736 
Q 959 2375 959 1747 
Q 959 1119 1226 758 
Q 1494 397 1959 397 
Q 2419 397 2687 759 
Q 2956 1122 2956 1747 
Q 2956 2369 2687 2733 
Q 2419 3097 1959 3097 
z
M 1959 3584 
Q 2709 3584 3137 3096 
Q 3566 2609 3566 1747 
Q 3566 888 3137 398 
Q 2709 -91 1959 -91 
Q 1206 -91 779 398 
Q 353 888 353 1747 
Q 353 2609 779 3096 
Q 1206 3584 1959 3584 
z
" transform="scale(0.015625)"/>
       <path id="DejaVuSans-73" d="M 2834 3397 
L 2834 2853 
Q 2591 2978 2328 3040 
Q 2066 3103 1784 3103 
Q 1356 3103 1142 2972 
Q 928 2841 928 2578 
Q 928 2378 1081 2264 
Q 1234 2150 1697 2047 
L 1894 2003 
Q 2506 1872 2764 1633 
Q 3022 1394 3022 966 
Q 3022 478 2636 193 
Q 2250 -91 1575 -91 
Q 1294 -91 989 -36 
Q 684 19 347 128 
L 347 722 
Q 666 556 975 473 
Q 1284 391 1588 391 
Q 1994 391 2212 530 
Q 2431 669 2431 922 
Q 2431 1156 2273 1281 
Q 2116 1406 1581 1522 
L 1381 1569 
Q 847 1681 609 1914 
Q 372 2147 372 2553 
Q 372 3047 722 3315 
Q 1072 3584 1716 3584 
Q 2034 3584 2315 3537 
Q 2597 3491 2834 3397 
z
" transform="scale(0.015625)"/>
       <path id="DejaVuSans-61" d="M 2194 1759 
Q 1497 1759 1228 1600 
Q 959 1441 959 1056 
Q 959 750 1161 570 
Q 1363 391 1709 391 
Q 2188 391 2477 730 
Q 2766 1069 2766 1631 
L 2766 1759 
L 2194 1759 
z
M 3341 1997 
L 3341 0 
L 2766 0 
L 2766 531 
Q 2569 213 2275 61 
Q 1981 -91 1556 -91 
Q 1019 -91 701 211 
Q 384 513 384 1019 
Q 384 1609 779 1909 
Q 1175 2209 1959 2209 
L 2766 2209 
L 2766 2266 
Q 2766 2663 2505 2880 
Q 2244 3097 1772 3097 
Q 1472 3097 1187 3025 
Q 903 2953 641 2809 
L 641 3341 
Q 956 3463 1253 3523 
Q 1550 3584 1831 3584 
Q 2591 3584 2966 3190 
Q 3341 2797 3341 1997 
z
" transform="scale(0.015625)"/>
       <path id="DejaVuSans-Oblique-3b5" d="M 1263 1888 
Q 925 1963 778 2166 
Q 669 2309 669 2503 
Q 669 3034 1175 3344 
Q 1575 3588 2188 3588 
Q 2425 3588 2684 3550 
Q 2944 3513 3234 3438 
L 3134 2916 
Q 2847 3006 2606 3047 
Q 2359 3088 2138 3088 
Q 1766 3088 1522 2944 
Q 1228 2772 1228 2522 
Q 1228 2356 1381 2241 
Q 1563 2103 1925 2103 
L 2409 2103 
L 2319 1628 
L 1856 1628 
Q 1425 1628 1172 1469 
Q 828 1253 828 916 
Q 828 703 1013 563 
Q 1244 388 1716 388 
Q 2006 388 2284 444 
Q 2563 503 2806 619 
L 2700 84 
Q 2403 -3 2131 -47 
Q 1859 -91 1609 -91 
Q 866 -91 516 194 
Q 250 413 250 781 
Q 250 1278 600 1584 
Q 859 1813 1263 1888 
z
" transform="scale(0.015625)"/>
      </defs>
      <use xlink:href="#DejaVuSans-44" transform="translate(0 0.015625)"/>
      <use xlink:href="#DejaVuSans-69" transform="translate(77.001953 0.015625)"/>
      <use xlink:href="#DejaVuSans-65" transform="translate(104.785156 0.015625)"/>
      <use xlink:href="#DejaVuSans-6c" transform="translate(166.308594 0.015625)"/>
      <use xlink:href="#DejaVuSans-65" transform="translate(194.091797 0.015625)"/>
      <use xlink:href="#DejaVuSans-63" transform="translate(255.615234 0.015625)"/>
      <use xlink:href="#DejaVuSans-74" transform="translate(310.595703 0.015625)"/>
      <use xlink:href="#DejaVuSans-72" transform="translate(349.804688 0.015625)"/>
      <use xlink:href="#DejaVuSans-69" transform="translate(390.917969 0.015625)"/>
      <use xlink:href="#DejaVuSans-63" transform="translate(418.701172 0.015625)"/>
      <use xlink:href="#DejaVuSans-20" transform="translate(473.681641 0.015625)"/>
      <use xlink:href="#DejaVuSans-63" transform="translate(505.46875 0.015625)"/>
      <use xlink:href="#DejaVuSans-6f" transform="translate(560.449219 0.015625)"/>
      <use xlink:href="#DejaVuSans-6e" transform="translate(621.630859 0.015625)"/>
      <use xlink:href="#DejaVuSans-73" transform="translate(685.009766 0.015625)"/>
      <use xlink:href="#DejaVuSans-74" transform="translate(737.109375 0.015625)"/>
      <use xlink:href="#DejaVuSans-61" transform="translate(776.318359 0.015625)"/>
      <use xlink:href="#DejaVuSans-6e" transform="translate(837.597656 0.015625)"/>
      <use xlink:href="#DejaVuSans-74" transform="translate(900.976562 0.015625)"/>
      <use xlink:href="#DejaVuSans-20" transform="translate(940.185547 0.015625)"/>
      <use xlink:href="#DejaVuSans-Oblique-3b5" transform="translate(971.972656 0.015625)"/>
     </g>
    </g>
   </g>
   <g id="line2d_16">
    <path d="M 115.395393 254.515229 
L 115.649038 330.349958 
L 115.903095 364.990095 
L 116.15674 374.28463 
L 116.664029 382.625298 
L 116.918086 383.215422 
L 117.425375 377.979669 
L 117.67902 380.387684 
L 118.186722 394.08153 
L 118.694011 407.286017 
L 118.948068 412.254699 
L 119.455357 433.817604 
L 119.709002 445.52343 
L 119.963059 450.005758 
L 120.216703 446.937709 
L 120.723993 435.91977 
L 120.97805 435.491854 
L 121.231694 443.010826 
L 121.99304 483.934523 
L 122.246685 488.773219 
L 122.50033 489.585903 
L 123.515321 478.54011 
L 124.530311 471.595698 
L 125.291658 468.065599 
L 125.545302 468.810833 
L 126.053004 472.002859 
L 126.306649 472.019517 
L 126.560293 471.305687 
L 127.067995 468.587727 
L 127.575284 465.929844 
L 128.082986 464.240847 
L 128.33663 463.363442 
L 129.097977 462.285051 
L 129.605266 460.391245 
L 130.112967 459.292919 
L 130.366612 459.101217 
L 130.620257 459.874032 
L 131.127958 463.312103 
L 131.381603 464.122876 
L 131.635248 463.843243 
L 133.411585 458.304098 
L 134.172931 456.335468 
L 134.426576 456.633944 
L 134.68022 457.321012 
L 134.933865 457.589449 
L 135.695211 457.09299 
L 135.948856 457.37672 
L 136.456557 458.749764 
L 136.963847 459.490902 
L 137.217904 460.177697 
L 137.471548 460.305771 
L 137.978837 458.523654 
L 138.232894 457.672738 
L 138.486539 457.269673 
L 138.740184 457.480217 
L 139.50153 459.645738 
L 139.755175 459.530225 
L 140.262876 458.968774 
L 140.516521 458.910335 
L 141.02381 459.553164 
L 141.531512 460.748979 
L 141.785156 461.359585 
L 142.038801 461.39017 
L 142.546503 460.708836 
L 142.800147 460.751164 
L 143.307849 461.759919 
L 143.561494 461.687007 
L 144.068783 461.099067 
L 144.32284 461.187818 
L 145.337831 463.07152 
L 145.84512 463.431712 
L 146.098764 463.512817 
L 146.352822 463.31183 
L 146.860111 462.146327 
L 147.113755 462.142231 
L 147.621457 463.324665 
L 148.128746 463.97159 
L 148.636448 465.079201 
L 148.890093 465.231033 
L 149.143737 465.245779 
L 149.651439 464.916992 
L 150.66643 463.791631 
L 151.173719 463.576991 
L 151.681421 463.071247 
L 152.696411 461.865055 
L 152.950056 461.618464 
L 153.711402 461.415566 
L 153.965047 461.44697 
L 154.726393 461.86724 
L 155.233682 461.880621 
L 156.50273 461.603172 
L 157.517721 462.043649 
L 158.02501 461.826005 
L 158.532712 461.525344 
L 159.040001 461.488478 
L 159.547703 461.527256 
L 160.054992 461.176895 
L 161.323628 460.027776 
L 161.577685 460.103146 
L 161.831329 460.50075 
L 162.338619 461.679361 
L 163.099965 462.169266 
L 163.353609 462.059761 
L 165.383591 460.045253 
L 166.398582 460.118438 
L 166.906284 460.067646 
L 167.413573 459.753331 
L 167.66763 459.708273 
L 167.921275 459.538964 
L 168.428564 458.440092 
L 168.682621 457.929433 
L 168.936265 457.884921 
L 169.697612 459.140814 
L 170.458546 460.849199 
L 171.473536 461.283396 
L 171.727594 461.365046 
L 171.981238 461.613276 
L 172.742584 463.375458 
L 172.996229 463.617679 
L 173.249874 463.637068 
L 174.264864 463.095278 
L 175.026211 463.075343 
L 176.041202 462.700132 
L 176.802548 462.596362 
L 178.578473 462.026172 
L 179.339819 461.715407 
L 179.593463 461.733977 
L 180.101165 462.328198 
L 180.862511 463.586002 
L 181.116156 463.619045 
L 181.877502 463.17611 
L 182.384792 462.837764 
L 183.146138 462.829299 
L 184.922475 461.588425 
L 185.683409 461.669803 
L 186.19111 461.325723 
L 188.221092 459.613514 
L 188.728381 459.640276 
L 189.997017 460.068465 
L 191.012008 461.05947 
L 191.519709 460.96717 
L 192.026999 460.9202 
L 193.549691 461.365319 
L 194.05698 461.905744 
L 194.818327 462.303621 
L 195.579673 463.311557 
L 196.086962 463.427889 
L 196.594664 463.601841 
L 197.101953 463.929536 
L 197.609655 463.747665 
L 198.371001 463.482505 
L 199.639636 463.31893 
L 200.400983 462.905215 
L 201.161917 462.783148 
L 201.669618 462.916411 
L 202.176907 463.084082 
L 204.460946 462.773591 
L 205.22188 462.377898 
L 206.490928 461.770023 
L 207.505919 461.646045 
L 208.013208 462.02426 
L 208.774554 462.993693 
L 209.281844 463.731827 
L 209.535901 463.917248 
L 209.789545 463.937455 
L 210.296834 463.631606 
L 210.804536 463.394573 
L 211.565882 463.377642 
L 212.326816 463.210791 
L 214.103153 463.663011 
L 215.118144 463.933359 
L 215.879491 464.317582 
L 216.894481 464.299286 
L 219.685809 463.850616 
L 221.461734 463.405223 
L 223.999418 462.537923 
L 224.760764 462.268393 
L 226.283044 462.484126 
L 227.04439 462.886645 
L 227.551679 462.889103 
L 228.313026 462.772498 
L 229.835718 462.661082 
L 230.343007 462.565777 
L 230.850709 462.703955 
L 231.8657 463.089544 
L 232.880691 463.113028 
L 234.656616 463.649357 
L 235.417962 463.925713 
L 240.239272 463.227449 
L 245.060581 462.811549 
L 246.836506 462.51635 
L 249.120545 462.651797 
L 251.150527 462.490134 
L 252.672807 462.51553 
L 253.941442 462.398925 
L 255.971424 462.19275 
L 258.762752 461.896732 
L 259.777743 461.852493 
L 260.792734 461.910113 
L 261.807725 461.879528 
L 263.07636 462.327379 
L 264.344996 462.20067 
L 265.614044 462.11465 
L 266.882679 462.272217 
L 271.449932 461.890178 
L 272.464923 462.004052 
L 275.002606 462.805268 
L 276.778943 462.329563 
L 278.301223 461.996133 
L 279.06257 462.116561 
L 280.331205 462.633501 
L 281.092551 462.594723 
L 282.614832 462.30089 
L 283.376178 462.426506 
L 284.644813 462.578612 
L 286.167506 462.540927 
L 291.749749 462.241359 
L 293.526087 462.036003 
L 294.033788 462.122842 
L 295.809713 462.830937 
L 296.824704 462.739456 
L 298.601041 462.642239 
L 300.631023 462.675555 
L 302.661004 462.467468 
L 304.183697 462.538469 
L 313.318615 462.568781 
L 316.109531 462.333113 
L 318.647214 462.398106 
L 319.662205 462.679924 
L 321.692187 462.793798 
L 322.707177 462.76376 
L 325.75215 462.65562 
L 328.289421 462.558404 
L 333.872077 462.489315 
L 338.185685 462.561408 
L 341.484303 462.506519 
L 343.767929 462.475115 
L 353.410548 462.321917 
L 356.709166 462.233985 
L 359.246849 462.298432 
L 361.530475 462.330929 
L 365.082737 462.341306 
L 367.874065 462.394829 
L 378.023974 462.175273 
L 379.800311 462.197939 
L 381.830293 462.277951 
L 385.636612 462.245728 
L 388.681585 462.303075 
L 566.558221 461.839659 
L 622.636364 461.784497 
L 622.636364 461.784497 
" clip-path="url(#p5f0b4f22e5)" style="fill: none; stroke: #ee82ee; stroke-width: 1.5; stroke-linecap: square"/>
   </g>
   <g id="line2d_17">
    <path d="M 115.363636 89.28 
L 115.807824 327.346903 
L 116.030124 395.44365 
L 116.252011 421.929633 
L 116.473899 426.262039 
L 116.696199 425.07114 
L 116.918086 420.529008 
L 117.362273 404.79362 
L 117.584161 401.844634 
L 117.806461 407.088307 
L 118.250236 420.068869 
L 118.472536 420.501427 
L 118.694423 417.913179 
L 118.916723 412.838269 
L 119.138611 410.49907 
L 119.360498 413.649316 
L 119.582798 422.466507 
L 120.47076 489.496606 
L 120.69306 492.48 
L 120.914948 491.183145 
L 121.359135 486.649752 
L 121.803323 484.174013 
L 122.247097 478.946998 
L 123.35736 464.146634 
L 123.57966 463.250114 
L 123.801547 463.101559 
L 124.245735 461.645226 
L 124.467622 462.095534 
L 124.911809 464.077818 
L 125.134109 464.050237 
L 125.577884 463.060324 
L 125.800184 463.3446 
L 126.022072 463.975687 
L 126.243959 464.258324 
L 126.466259 464.339429 
L 126.910446 464.711363 
L 127.132334 464.26952 
L 127.576521 462.618481 
L 127.798409 462.230982 
L 128.242596 462.126938 
L 128.464484 461.420755 
L 128.908671 459.655296 
L 129.130971 459.705269 
L 129.352858 460.129908 
L 129.574746 460.108608 
L 130.241233 457.6569 
L 130.685008 457.506433 
L 131.573383 455.727047 
L 131.795271 455.480456 
L 132.01757 455.437036 
L 132.239458 455.634746 
L 132.461345 455.635838 
L 132.683645 455.323435 
L 132.905533 455.367947 
L 133.34972 456.859507 
L 133.571608 457.033732 
L 133.793908 456.681186 
L 134.68187 453.646181 
L 134.90417 453.367093 
L 135.126057 453.307835 
L 135.347945 453.540226 
L 135.570245 454.235759 
L 135.792132 455.394982 
L 136.23632 460.110792 
L 136.458207 462.783421 
L 136.680507 463.809381 
L 136.902394 463.272507 
L 137.346582 461.452978 
L 137.568469 461.06029 
L 137.790769 461.101525 
L 138.234957 462.124754 
L 138.456844 461.860413 
L 138.901032 460.103965 
L 139.567106 457.144329 
L 139.788994 456.881627 
L 140.011294 457.245642 
L 140.455069 458.543862 
L 140.677369 458.676579 
L 140.899256 458.458934 
L 141.121556 458.601209 
L 141.787631 461.313981 
L 142.231818 460.949966 
L 142.453706 460.896169 
L 142.675593 460.573116 
L 143.119781 459.600133 
L 143.341668 459.561083 
L 144.230043 460.924296 
L 144.45193 460.626912 
L 145.118418 458.302186 
L 145.340305 458.86473 
L 146.450567 465.90472 
L 146.894755 466.534988 
L 147.116642 466.577042 
L 147.338942 466.308059 
L 148.005017 464.762975 
L 148.226905 464.994 
L 148.671092 466.172611 
L 148.89298 466.419202 
L 149.115279 466.29222 
L 150.003242 464.583835 
L 150.891617 463.666561 
L 151.335804 463.051312 
L 151.779579 462.845137 
L 152.445654 461.942063 
L 153.112141 460.846741 
L 153.334029 460.968535 
L 153.778216 462.040372 
L 154.222403 462.394829 
L 154.444291 462.428964 
L 154.666178 462.322736 
L 155.332666 461.745992 
L 156.442515 461.743808 
L 157.33089 462.328471 
L 157.552778 462.252009 
L 159.329527 460.751164 
L 160.21749 460.852203 
L 160.43979 460.675248 
L 161.105864 459.857101 
L 161.549639 459.58921 
L 161.993827 459.128252 
L 162.216127 459.284454 
L 162.438014 459.820236 
L 163.326389 462.821653 
L 163.548277 462.871353 
L 163.992464 462.415856 
L 165.546501 460.481634 
L 165.990689 460.329256 
L 166.656763 460.307409 
L 167.989326 460.70474 
L 168.433513 460.261532 
L 168.877288 459.352996 
L 169.765663 457.41304 
L 169.98755 457.573337 
L 170.20985 458.069796 
L 170.431738 458.895861 
L 171.097812 462.150423 
L 171.986187 464.385852 
L 172.208075 464.160835 
L 172.652262 463.420243 
L 173.984412 462.32574 
L 174.872787 461.85659 
L 175.538862 461.555929 
L 176.204936 461.802247 
L 176.427236 461.690284 
L 176.649124 461.70585 
L 177.537499 462.176639 
L 177.759386 462.166262 
L 178.647348 461.598256 
L 179.313836 461.611637 
L 179.757611 461.717319 
L 180.645986 461.480559 
L 181.090173 461.819724 
L 181.31206 462.131308 
L 181.978135 463.823035 
L 182.200435 463.779889 
L 182.86651 462.989596 
L 183.532585 462.122842 
L 183.976772 461.460624 
L 184.19866 461.333915 
L 184.42096 461.44697 
L 184.864735 461.833924 
L 185.308922 461.678815 
L 185.753109 461.573679 
L 186.197297 461.657241 
L 188.195522 460.556731 
L 188.639709 460.311506 
L 189.305784 459.676596 
L 189.528084 459.670042 
L 189.971859 459.917725 
L 190.860233 459.746231 
L 191.082121 459.807128 
L 191.970496 459.622253 
L 192.192383 460.03788 
L 193.080758 462.702044 
L 193.524945 463.561971 
L 193.746833 463.732646 
L 194.19102 463.660553 
L 194.857095 463.202598 
L 195.52317 463.407135 
L 195.967357 463.052678 
L 196.411545 463.160544 
L 196.85532 463.241103 
L 197.743695 463.172287 
L 198.409769 462.847868 
L 199.075844 462.789156 
L 199.741919 462.487949 
L 200.852181 462.819195 
L 201.296369 463.058686 
L 201.740556 463.018543 
L 202.406631 462.82411 
L 202.850819 462.682928 
L 203.961081 461.991764 
L 204.627156 461.912298 
L 205.51553 461.733431 
L 207.069568 460.886065 
L 207.291868 461.211576 
L 208.17983 464.441833 
L 208.624017 465.210552 
L 208.845905 465.238406 
L 209.290092 464.674224 
L 209.73428 464.164931 
L 210.844542 463.941825 
L 212.398992 463.170648 
L 213.509254 463.812112 
L 214.175329 464.160835 
L 215.063291 464.856368 
L 215.285591 464.862103 
L 216.173553 464.519388 
L 217.283816 464.387764 
L 219.282453 463.687315 
L 220.836902 462.834487 
L 221.724865 463.106474 
L 222.613239 462.804995 
L 223.723502 462.457091 
L 225.499839 462.797895 
L 226.387801 462.407664 
L 227.720363 462.680744 
L 228.164138 462.609197 
L 228.608326 462.948908 
L 229.052513 463.198775 
L 230.82885 463.707796 
L 232.827487 463.246291 
L 233.93775 463.670657 
L 234.825712 463.599929 
L 236.157862 463.462843 
L 236.602049 463.471036 
L 238.600686 462.915865 
L 239.044461 463.128048 
L 239.488649 463.357161 
L 239.932836 463.348969 
L 241.709173 462.968296 
L 242.375248 462.962835 
L 243.041323 462.724436 
L 243.48551 462.598274 
L 244.595773 462.690028 
L 245.261847 462.858245 
L 247.482372 462.445076 
L 249.036822 462.526181 
L 250.147084 462.625581 
L 253.255571 462.284505 
L 255.03232 462.013883 
L 256.808657 461.829282 
L 259.25107 462.032999 
L 260.361332 461.747904 
L 262.359556 461.91694 
L 263.469819 462.076145 
L 264.136306 462.403568 
L 265.246156 462.449172 
L 266.578718 462.161346 
L 268.355055 461.90984 
L 269.02113 461.921856 
L 269.909505 461.769204 
L 270.35328 462.064403 
L 270.797467 462.295701 
L 271.907729 462.26184 
L 272.573804 462.908492 
L 273.462179 462.598 
L 275.904591 461.952167 
L 276.792966 461.841024 
L 277.237153 461.924859 
L 277.680928 462.341852 
L 278.125116 462.713786 
L 278.569303 462.715425 
L 280.123753 462.184285 
L 280.567528 462.353321 
L 281.234015 462.671186 
L 282.566165 462.803902 
L 283.23224 462.718155 
L 284.120614 462.539288 
L 287.673289 462.167627 
L 288.117476 462.261293 
L 289.005438 462.067953 
L 289.671513 461.928409 
L 291.225963 462.060034 
L 292.114338 461.805251 
L 292.336225 461.93469 
L 293.2246 463.167644 
L 293.668375 463.269503 
L 296.777274 462.38336 
L 297.443349 462.291605 
L 299.663874 462.532734 
L 300.996024 462.295974 
L 303.438848 462.478938 
L 303.882623 462.709963 
L 304.548698 462.738363 
L 306.103147 462.435791 
L 307.43571 462.508703 
L 308.101785 462.50215 
L 308.767859 462.543658 
L 310.544197 462.330382 
L 311.432571 462.441526 
L 314.096871 462.150969 
L 314.985246 462.291605 
L 315.429433 462.27522 
L 317.20577 462.873538 
L 317.649545 462.844318 
L 318.53792 462.687024 
L 320.980332 462.524815 
L 321.646407 462.428418 
L 323.423156 462.76649 
L 324.533419 462.594723 
L 325.421381 462.490134 
L 327.197718 462.471838 
L 331.638767 462.309628 
L 333.193217 462.568235 
L 334.081179 462.541473 
L 334.969554 462.587896 
L 338.522228 462.282867 
L 339.854378 462.44098 
L 340.742753 462.435518 
L 341.853015 462.31864 
L 343.185165 462.380629 
L 344.739615 462.314544 
L 346.071764 462.406026 
L 349.846739 462.28232 
L 351.623076 462.242724 
L 354.509675 462.046107 
L 354.953863 462.076419 
L 355.619937 462.249551 
L 356.286012 462.311813 
L 356.7302 462.461188 
L 357.618574 462.39401 
L 359.616799 462.217874 
L 360.505174 462.24682 
L 361.837324 462.505973 
L 363.169473 462.446168 
L 365.834185 462.349498 
L 370.275234 462.251189 
L 370.941309 462.339121 
L 373.161834 462.246001 
L 378.713145 462.398925 
L 381.599745 462.302255 
L 391.591693 462.551577 
L 393.36803 462.518534 
L 394.922479 462.429237 
L 397.364891 462.342944 
L 398.697454 462.317002 
L 400.473791 462.277132 
L 403.36039 462.287236 
L 411.798301 462.257743 
L 412.686263 462.414491 
L 421.790249 462.312905 
L 424.676848 462.196574 
L 434.669209 462.24682 
L 442.440632 462.153154 
L 445.327644 462.120657 
L 446.659794 462.114923 
L 448.214243 462.064949 
L 449.324506 462.299798 
L 449.990581 462.395648 
L 461.981166 462.196574 
L 475.082013 462.097992 
L 507.722981 461.968006 
L 559.237996 461.86724 
L 559.237996 461.86724 
" clip-path="url(#p5f0b4f22e5)" style="fill: none; stroke-dasharray: 5.55,2.4; stroke-dashoffset: 0; stroke: #8b4513; stroke-width: 1.5"/>
   </g>
   <g id="patch_3">
    <path d="M 90 512.64 
L 90 69.12 
" style="fill: none; stroke: #000000; stroke-width: 0.8; stroke-linejoin: miter; stroke-linecap: square"/>
   </g>
   <g id="patch_4">
    <path d="M 648 512.64 
L 648 69.12 
" style="fill: none; stroke: #000000; stroke-width: 0.8; stroke-linejoin: miter; stroke-linecap: square"/>
   </g>
   <g id="patch_5">
    <path d="M 90 512.64 
L 648 512.64 
" style="fill: none; stroke: #000000; stroke-width: 0.8; stroke-linejoin: miter; stroke-linecap: square"/>
   </g>
   <g id="patch_6">
    <path d="M 90 69.12 
L 648 69.12 
" style="fill: none; stroke: #000000; stroke-width: 0.8; stroke-linejoin: miter; stroke-linecap: square"/>
   </g>
   <g id="legend_1">
    <g id="patch_7">
     <path d="M 572.376562 106.47625 
L 641 106.47625 
Q 643 106.47625 643 104.47625 
L 643 76.12 
Q 643 74.12 641 74.12 
L 572.376562 74.12 
Q 570.376562 74.12 570.376562 76.12 
L 570.376562 104.47625 
Q 570.376562 106.47625 572.376562 106.47625 
z
" style="fill: #ffffff; opacity: 0.8; stroke: #cccccc; stroke-linejoin: miter"/>
    </g>
    <g id="line2d_18">
     <path d="M 574.376562 82.218438 
L 584.376562 82.218438 
L 594.376562 82.218438 
" style="fill: none; stroke: #ee82ee; stroke-width: 1.5; stroke-linecap: square"/>
    </g>
    <g id="text_18">
     <!-- InCoO3 -->
     <g transform="translate(602.376562 85.718438)scale(0.1 -0.1)">
      <defs>
       <path id="DejaVuSans-49" d="M 628 4666 
L 1259 4666 
L 1259 0 
L 628 0 
L 628 4666 
z
" transform="scale(0.015625)"/>
       <path id="DejaVuSans-43" d="M 4122 4306 
L 4122 3641 
Q 3803 3938 3442 4084 
Q 3081 4231 2675 4231 
Q 1875 4231 1450 3742 
Q 1025 3253 1025 2328 
Q 1025 1406 1450 917 
Q 1875 428 2675 428 
Q 3081 428 3442 575 
Q 3803 722 4122 1019 
L 4122 359 
Q 3791 134 3420 21 
Q 3050 -91 2638 -91 
Q 1578 -91 968 557 
Q 359 1206 359 2328 
Q 359 3453 968 4101 
Q 1578 4750 2638 4750 
Q 3056 4750 3426 4639 
Q 3797 4528 4122 4306 
z
" transform="scale(0.015625)"/>
       <path id="DejaVuSans-4f" d="M 2522 4238 
Q 1834 4238 1429 3725 
Q 1025 3213 1025 2328 
Q 1025 1447 1429 934 
Q 1834 422 2522 422 
Q 3209 422 3611 934 
Q 4013 1447 4013 2328 
Q 4013 3213 3611 3725 
Q 3209 4238 2522 4238 
z
M 2522 4750 
Q 3503 4750 4090 4092 
Q 4678 3434 4678 2328 
Q 4678 1225 4090 567 
Q 3503 -91 2522 -91 
Q 1538 -91 948 565 
Q 359 1222 359 2328 
Q 359 3434 948 4092 
Q 1538 4750 2522 4750 
z
" transform="scale(0.015625)"/>
       <path id="DejaVuSans-33" d="M 2597 2516 
Q 3050 2419 3304 2112 
Q 3559 1806 3559 1356 
Q 3559 666 3084 287 
Q 2609 -91 1734 -91 
Q 1441 -91 1130 -33 
Q 819 25 488 141 
L 488 750 
Q 750 597 1062 519 
Q 1375 441 1716 441 
Q 2309 441 2620 675 
Q 2931 909 2931 1356 
Q 2931 1769 2642 2001 
Q 2353 2234 1838 2234 
L 1294 2234 
L 1294 2753 
L 1863 2753 
Q 2328 2753 2575 2939 
Q 2822 3125 2822 3475 
Q 2822 3834 2567 4026 
Q 2313 4219 1838 4219 
Q 1578 4219 1281 4162 
Q 984 4106 628 3988 
L 628 4550 
Q 988 4650 1302 4700 
Q 1616 4750 1894 4750 
Q 2613 4750 3031 4423 
Q 3450 4097 3450 3541 
Q 3450 3153 3228 2886 
Q 3006 2619 2597 2516 
z
" transform="scale(0.015625)"/>
      </defs>
      <use xlink:href="#DejaVuSans-49"/>
      <use xlink:href="#DejaVuSans-6e" x="29.492188"/>
      <use xlink:href="#DejaVuSans-43" x="92.871094"/>
      <use xlink:href="#DejaVuSans-6f" x="162.695312"/>
      <use xlink:href="#DejaVuSans-4f" x="223.876953"/>
      <use xlink:href="#DejaVuSans-33" x="302.587891"/>
     </g>
    </g>
    <g id="line2d_19">
     <path d="M 574.376562 96.896563 
L 584.376562 96.896563 
L 594.376562 96.896563 
" style="fill: none; stroke-dasharray: 5.55,2.4; stroke-dashoffset: 0; stroke: #8b4513; stroke-width: 1.5"/>
    </g>
    <g id="text_19">
     <!-- InFeO3 -->
     <g transform="translate(602.376562 100.396563)scale(0.1 -0.1)">
      <defs>
       <path id="DejaVuSans-46" d="M 628 4666 
L 3309 4666 
L 3309 4134 
L 1259 4134 
L 1259 2759 
L 3109 2759 
L 3109 2228 
L 1259 2228 
L 1259 0 
L 628 0 
L 628 4666 
z
" transform="scale(0.015625)"/>
      </defs>
      <use xlink:href="#DejaVuSans-49"/>
      <use xlink:href="#DejaVuSans-6e" x="29.492188"/>
      <use xlink:href="#DejaVuSans-46" x="92.871094"/>
      <use xlink:href="#DejaVuSans-65" x="144.890625"/>
      <use xlink:href="#DejaVuSans-4f" x="206.414062"/>
      <use xlink:href="#DejaVuSans-33" x="285.125"/>
     </g>
    </g>
   </g>
  </g>
 </g>
 <defs>
  <clipPath id="p5f0b4f22e5">
   <rect x="90" y="69.12" width="558" height="443.52"/>
  </clipPath>
 </defs>
</svg>
