<?xml version="1.0" encoding="utf-8" standalone="no"?>
<!DOCTYPE svg PUBLIC "-//W3C//DTD SVG 1.1//EN"
  "http://www.w3.org/Graphics/SVG/1.1/DTD/svg11.dtd">
<svg xmlns:xlink="http://www.w3.org/1999/xlink" width="720pt" height="576pt" viewBox="0 0 720 576" xmlns="http://www.w3.org/2000/svg" version="1.1">
 <metadata>
  <rdf:RDF xmlns:dc="http://purl.org/dc/elements/1.1/" xmlns:cc="http://creativecommons.org/ns#" xmlns:rdf="http://www.w3.org/1999/02/22-rdf-syntax-ns#">
   <cc:Work>
    <dc:type rdf:resource="http://purl.org/dc/dcmitype/StillImage"/>
    <dc:date>2022-03-19T11:15:30.180415</dc:date>
    <dc:format>image/svg+xml</dc:format>
    <dc:creator>
     <cc:Agent>
      <dc:title>Matplotlib v3.5.1, https://matplotlib.org/</dc:title>
     </cc:Agent>
    </dc:creator>
   </cc:Work>
  </rdf:RDF>
 </metadata>
 <defs>
  <style type="text/css">*{stroke-linejoin: round; stroke-linecap: butt}</style>
 </defs>
 <g id="figure_1">
  <g id="patch_1">
   <path d="M 0 576 
L 720 576 
L 720 0 
L 0 0 
z
" style="fill: #ffffff"/>
  </g>
  <g id="axes_1">
   <g id="patch_2">
    <path d="M 90 512.64 
L 648 512.64 
L 648 69.12 
L 90 69.12 
z
" style="fill: #ffffff"/>
   </g>
   <g id="matplotlib.axis_1">
    <g id="xtick_1">
     <g id="line2d_1">
      <defs>
       <path id="mbe7da33c38" d="M 0 0 
L 0 3.5 
" style="stroke: #000000; stroke-width: 0.8"/>
      </defs>
      <g>
       <use xlink:href="#mbe7da33c38" x="115.141749" y="512.64" style="stroke: #000000; stroke-width: 0.8"/>
      </g>
     </g>
     <g id="text_1">
      <!-- 0 -->
      <g transform="translate(111.960499 527.238438)scale(0.1 -0.1)">
       <defs>
        <path id="DejaVuSans-30" d="M 2034 4250 
Q 1547 4250 1301 3770 
Q 1056 3291 1056 2328 
Q 1056 1369 1301 889 
Q 1547 409 2034 409 
Q 2525 409 2770 889 
Q 3016 1369 3016 2328 
Q 3016 3291 2770 3770 
Q 2525 4250 2034 4250 
z
M 2034 4750 
Q 2819 4750 3233 4129 
Q 3647 3509 3647 2328 
Q 3647 1150 3233 529 
Q 2819 -91 2034 -91 
Q 1250 -91 836 529 
Q 422 1150 422 2328 
Q 422 3509 836 4129 
Q 1250 4750 2034 4750 
z
" transform="scale(0.015625)"/>
       </defs>
       <use xlink:href="#DejaVuSans-30"/>
      </g>
     </g>
    </g>
    <g id="xtick_2">
     <g id="line2d_2">
      <g>
       <use xlink:href="#mbe7da33c38" x="197.627802" y="512.64" style="stroke: #000000; stroke-width: 0.8"/>
      </g>
     </g>
     <g id="text_2">
      <!-- 20 -->
      <g transform="translate(191.265302 527.238438)scale(0.1 -0.1)">
       <defs>
        <path id="DejaVuSans-32" d="M 1228 531 
L 3431 531 
L 3431 0 
L 469 0 
L 469 531 
Q 828 903 1448 1529 
Q 2069 2156 2228 2338 
Q 2531 2678 2651 2914 
Q 2772 3150 2772 3378 
Q 2772 3750 2511 3984 
Q 2250 4219 1831 4219 
Q 1534 4219 1204 4116 
Q 875 4013 500 3803 
L 500 4441 
Q 881 4594 1212 4672 
Q 1544 4750 1819 4750 
Q 2544 4750 2975 4387 
Q 3406 4025 3406 3419 
Q 3406 3131 3298 2873 
Q 3191 2616 2906 2266 
Q 2828 2175 2409 1742 
Q 1991 1309 1228 531 
z
" transform="scale(0.015625)"/>
       </defs>
       <use xlink:href="#DejaVuSans-32"/>
       <use xlink:href="#DejaVuSans-30" x="63.623047"/>
      </g>
     </g>
    </g>
    <g id="xtick_3">
     <g id="line2d_3">
      <g>
       <use xlink:href="#mbe7da33c38" x="280.113854" y="512.64" style="stroke: #000000; stroke-width: 0.8"/>
      </g>
     </g>
     <g id="text_3">
      <!-- 40 -->
      <g transform="translate(273.751354 527.238438)scale(0.1 -0.1)">
       <defs>
        <path id="DejaVuSans-34" d="M 2419 4116 
L 825 1625 
L 2419 1625 
L 2419 4116 
z
M 2253 4666 
L 3047 4666 
L 3047 1625 
L 3713 1625 
L 3713 1100 
L 3047 1100 
L 3047 0 
L 2419 0 
L 2419 1100 
L 313 1100 
L 313 1709 
L 2253 4666 
z
" transform="scale(0.015625)"/>
       </defs>
       <use xlink:href="#DejaVuSans-34"/>
       <use xlink:href="#DejaVuSans-30" x="63.623047"/>
      </g>
     </g>
    </g>
    <g id="xtick_4">
     <g id="line2d_4">
      <g>
       <use xlink:href="#mbe7da33c38" x="362.599907" y="512.64" style="stroke: #000000; stroke-width: 0.8"/>
      </g>
     </g>
     <g id="text_4">
      <!-- 60 -->
      <g transform="translate(356.237407 527.238438)scale(0.1 -0.1)">
       <defs>
        <path id="DejaVuSans-36" d="M 2113 2584 
Q 1688 2584 1439 2293 
Q 1191 2003 1191 1497 
Q 1191 994 1439 701 
Q 1688 409 2113 409 
Q 2538 409 2786 701 
Q 3034 994 3034 1497 
Q 3034 2003 2786 2293 
Q 2538 2584 2113 2584 
z
M 3366 4563 
L 3366 3988 
Q 3128 4100 2886 4159 
Q 2644 4219 2406 4219 
Q 1781 4219 1451 3797 
Q 1122 3375 1075 2522 
Q 1259 2794 1537 2939 
Q 1816 3084 2150 3084 
Q 2853 3084 3261 2657 
Q 3669 2231 3669 1497 
Q 3669 778 3244 343 
Q 2819 -91 2113 -91 
Q 1303 -91 875 529 
Q 447 1150 447 2328 
Q 447 3434 972 4092 
Q 1497 4750 2381 4750 
Q 2619 4750 2861 4703 
Q 3103 4656 3366 4563 
z
" transform="scale(0.015625)"/>
       </defs>
       <use xlink:href="#DejaVuSans-36"/>
       <use xlink:href="#DejaVuSans-30" x="63.623047"/>
      </g>
     </g>
    </g>
    <g id="xtick_5">
     <g id="line2d_5">
      <g>
       <use xlink:href="#mbe7da33c38" x="445.08596" y="512.64" style="stroke: #000000; stroke-width: 0.8"/>
      </g>
     </g>
     <g id="text_5">
      <!-- 80 -->
      <g transform="translate(438.72346 527.238438)scale(0.1 -0.1)">
       <defs>
        <path id="DejaVuSans-38" d="M 2034 2216 
Q 1584 2216 1326 1975 
Q 1069 1734 1069 1313 
Q 1069 891 1326 650 
Q 1584 409 2034 409 
Q 2484 409 2743 651 
Q 3003 894 3003 1313 
Q 3003 1734 2745 1975 
Q 2488 2216 2034 2216 
z
M 1403 2484 
Q 997 2584 770 2862 
Q 544 3141 544 3541 
Q 544 4100 942 4425 
Q 1341 4750 2034 4750 
Q 2731 4750 3128 4425 
Q 3525 4100 3525 3541 
Q 3525 3141 3298 2862 
Q 3072 2584 2669 2484 
Q 3125 2378 3379 2068 
Q 3634 1759 3634 1313 
Q 3634 634 3220 271 
Q 2806 -91 2034 -91 
Q 1263 -91 848 271 
Q 434 634 434 1313 
Q 434 1759 690 2068 
Q 947 2378 1403 2484 
z
M 1172 3481 
Q 1172 3119 1398 2916 
Q 1625 2713 2034 2713 
Q 2441 2713 2670 2916 
Q 2900 3119 2900 3481 
Q 2900 3844 2670 4047 
Q 2441 4250 2034 4250 
Q 1625 4250 1398 4047 
Q 1172 3844 1172 3481 
z
" transform="scale(0.015625)"/>
       </defs>
       <use xlink:href="#DejaVuSans-38"/>
       <use xlink:href="#DejaVuSans-30" x="63.623047"/>
      </g>
     </g>
    </g>
    <g id="xtick_6">
     <g id="line2d_6">
      <g>
       <use xlink:href="#mbe7da33c38" x="527.572013" y="512.64" style="stroke: #000000; stroke-width: 0.8"/>
      </g>
     </g>
     <g id="text_6">
      <!-- 100 -->
      <g transform="translate(518.028263 527.238438)scale(0.1 -0.1)">
       <defs>
        <path id="DejaVuSans-31" d="M 794 531 
L 1825 531 
L 1825 4091 
L 703 3866 
L 703 4441 
L 1819 4666 
L 2450 4666 
L 2450 531 
L 3481 531 
L 3481 0 
L 794 0 
L 794 531 
z
" transform="scale(0.015625)"/>
       </defs>
       <use xlink:href="#DejaVuSans-31"/>
       <use xlink:href="#DejaVuSans-30" x="63.623047"/>
       <use xlink:href="#DejaVuSans-30" x="127.246094"/>
      </g>
     </g>
    </g>
    <g id="xtick_7">
     <g id="line2d_7">
      <g>
       <use xlink:href="#mbe7da33c38" x="610.058065" y="512.64" style="stroke: #000000; stroke-width: 0.8"/>
      </g>
     </g>
     <g id="text_7">
      <!-- 120 -->
      <g transform="translate(600.514315 527.238438)scale(0.1 -0.1)">
       <use xlink:href="#DejaVuSans-31"/>
       <use xlink:href="#DejaVuSans-32" x="63.623047"/>
       <use xlink:href="#DejaVuSans-30" x="127.246094"/>
      </g>
     </g>
    </g>
    <g id="text_8">
     <!-- Energy (eV) -->
     <g transform="translate(339.50625 540.916563)scale(0.1 -0.1)">
      <defs>
       <path id="DejaVuSans-45" d="M 628 4666 
L 3578 4666 
L 3578 4134 
L 1259 4134 
L 1259 2753 
L 3481 2753 
L 3481 2222 
L 1259 2222 
L 1259 531 
L 3634 531 
L 3634 0 
L 628 0 
L 628 4666 
z
" transform="scale(0.015625)"/>
       <path id="DejaVuSans-6e" d="M 3513 2113 
L 3513 0 
L 2938 0 
L 2938 2094 
Q 2938 2591 2744 2837 
Q 2550 3084 2163 3084 
Q 1697 3084 1428 2787 
Q 1159 2491 1159 1978 
L 1159 0 
L 581 0 
L 581 3500 
L 1159 3500 
L 1159 2956 
Q 1366 3272 1645 3428 
Q 1925 3584 2291 3584 
Q 2894 3584 3203 3211 
Q 3513 2838 3513 2113 
z
" transform="scale(0.015625)"/>
       <path id="DejaVuSans-65" d="M 3597 1894 
L 3597 1613 
L 953 1613 
Q 991 1019 1311 708 
Q 1631 397 2203 397 
Q 2534 397 2845 478 
Q 3156 559 3463 722 
L 3463 178 
Q 3153 47 2828 -22 
Q 2503 -91 2169 -91 
Q 1331 -91 842 396 
Q 353 884 353 1716 
Q 353 2575 817 3079 
Q 1281 3584 2069 3584 
Q 2775 3584 3186 3129 
Q 3597 2675 3597 1894 
z
M 3022 2063 
Q 3016 2534 2758 2815 
Q 2500 3097 2075 3097 
Q 1594 3097 1305 2825 
Q 1016 2553 972 2059 
L 3022 2063 
z
" transform="scale(0.015625)"/>
       <path id="DejaVuSans-72" d="M 2631 2963 
Q 2534 3019 2420 3045 
Q 2306 3072 2169 3072 
Q 1681 3072 1420 2755 
Q 1159 2438 1159 1844 
L 1159 0 
L 581 0 
L 581 3500 
L 1159 3500 
L 1159 2956 
Q 1341 3275 1631 3429 
Q 1922 3584 2338 3584 
Q 2397 3584 2469 3576 
Q 2541 3569 2628 3553 
L 2631 2963 
z
" transform="scale(0.015625)"/>
       <path id="DejaVuSans-67" d="M 2906 1791 
Q 2906 2416 2648 2759 
Q 2391 3103 1925 3103 
Q 1463 3103 1205 2759 
Q 947 2416 947 1791 
Q 947 1169 1205 825 
Q 1463 481 1925 481 
Q 2391 481 2648 825 
Q 2906 1169 2906 1791 
z
M 3481 434 
Q 3481 -459 3084 -895 
Q 2688 -1331 1869 -1331 
Q 1566 -1331 1297 -1286 
Q 1028 -1241 775 -1147 
L 775 -588 
Q 1028 -725 1275 -790 
Q 1522 -856 1778 -856 
Q 2344 -856 2625 -561 
Q 2906 -266 2906 331 
L 2906 616 
Q 2728 306 2450 153 
Q 2172 0 1784 0 
Q 1141 0 747 490 
Q 353 981 353 1791 
Q 353 2603 747 3093 
Q 1141 3584 1784 3584 
Q 2172 3584 2450 3431 
Q 2728 3278 2906 2969 
L 2906 3500 
L 3481 3500 
L 3481 434 
z
" transform="scale(0.015625)"/>
       <path id="DejaVuSans-79" d="M 2059 -325 
Q 1816 -950 1584 -1140 
Q 1353 -1331 966 -1331 
L 506 -1331 
L 506 -850 
L 844 -850 
Q 1081 -850 1212 -737 
Q 1344 -625 1503 -206 
L 1606 56 
L 191 3500 
L 800 3500 
L 1894 763 
L 2988 3500 
L 3597 3500 
L 2059 -325 
z
" transform="scale(0.015625)"/>
       <path id="DejaVuSans-20" transform="scale(0.015625)"/>
       <path id="DejaVuSans-28" d="M 1984 4856 
Q 1566 4138 1362 3434 
Q 1159 2731 1159 2009 
Q 1159 1288 1364 580 
Q 1569 -128 1984 -844 
L 1484 -844 
Q 1016 -109 783 600 
Q 550 1309 550 2009 
Q 550 2706 781 3412 
Q 1013 4119 1484 4856 
L 1984 4856 
z
" transform="scale(0.015625)"/>
       <path id="DejaVuSans-56" d="M 1831 0 
L 50 4666 
L 709 4666 
L 2188 738 
L 3669 4666 
L 4325 4666 
L 2547 0 
L 1831 0 
z
" transform="scale(0.015625)"/>
       <path id="DejaVuSans-29" d="M 513 4856 
L 1013 4856 
Q 1481 4119 1714 3412 
Q 1947 2706 1947 2009 
Q 1947 1309 1714 600 
Q 1481 -109 1013 -844 
L 513 -844 
Q 928 -128 1133 580 
Q 1338 1288 1338 2009 
Q 1338 2731 1133 3434 
Q 928 4138 513 4856 
z
" transform="scale(0.015625)"/>
      </defs>
      <use xlink:href="#DejaVuSans-45"/>
      <use xlink:href="#DejaVuSans-6e" x="63.183594"/>
      <use xlink:href="#DejaVuSans-65" x="126.5625"/>
      <use xlink:href="#DejaVuSans-72" x="188.085938"/>
      <use xlink:href="#DejaVuSans-67" x="227.449219"/>
      <use xlink:href="#DejaVuSans-79" x="290.925781"/>
      <use xlink:href="#DejaVuSans-20" x="350.105469"/>
      <use xlink:href="#DejaVuSans-28" x="381.892578"/>
      <use xlink:href="#DejaVuSans-65" x="420.90625"/>
      <use xlink:href="#DejaVuSans-56" x="482.429688"/>
      <use xlink:href="#DejaVuSans-29" x="550.837891"/>
     </g>
    </g>
   </g>
   <g id="matplotlib.axis_2">
    <g id="ytick_1">
     <g id="line2d_8">
      <defs>
       <path id="m0d7524ab78" d="M 0 0 
L -3.5 0 
" style="stroke: #000000; stroke-width: 0.8"/>
      </defs>
      <g>
       <use xlink:href="#m0d7524ab78" x="90" y="492.480467" style="stroke: #000000; stroke-width: 0.8"/>
      </g>
     </g>
     <g id="text_9">
      <!-- 0 -->
      <g transform="translate(76.6375 496.279685)scale(0.1 -0.1)">
       <use xlink:href="#DejaVuSans-30"/>
      </g>
     </g>
    </g>
    <g id="ytick_2">
     <g id="line2d_9">
      <g>
       <use xlink:href="#m0d7524ab78" x="90" y="399.132548" style="stroke: #000000; stroke-width: 0.8"/>
      </g>
     </g>
     <g id="text_10">
      <!-- 20 -->
      <g transform="translate(70.275 402.931767)scale(0.1 -0.1)">
       <use xlink:href="#DejaVuSans-32"/>
       <use xlink:href="#DejaVuSans-30" x="63.623047"/>
      </g>
     </g>
    </g>
    <g id="ytick_3">
     <g id="line2d_10">
      <g>
       <use xlink:href="#m0d7524ab78" x="90" y="305.784629" style="stroke: #000000; stroke-width: 0.8"/>
      </g>
     </g>
     <g id="text_11">
      <!-- 40 -->
      <g transform="translate(70.275 309.583848)scale(0.1 -0.1)">
       <use xlink:href="#DejaVuSans-34"/>
       <use xlink:href="#DejaVuSans-30" x="63.623047"/>
      </g>
     </g>
    </g>
    <g id="ytick_4">
     <g id="line2d_11">
      <g>
       <use xlink:href="#m0d7524ab78" x="90" y="212.43671" style="stroke: #000000; stroke-width: 0.8"/>
      </g>
     </g>
     <g id="text_12">
      <!-- 60 -->
      <g transform="translate(70.275 216.235929)scale(0.1 -0.1)">
       <use xlink:href="#DejaVuSans-36"/>
       <use xlink:href="#DejaVuSans-30" x="63.623047"/>
      </g>
     </g>
    </g>
    <g id="ytick_5">
     <g id="line2d_12">
      <g>
       <use xlink:href="#m0d7524ab78" x="90" y="119.088791" style="stroke: #000000; stroke-width: 0.8"/>
      </g>
     </g>
     <g id="text_13">
      <!-- 80 -->
      <g transform="translate(70.275 122.88801)scale(0.1 -0.1)">
       <use xlink:href="#DejaVuSans-38"/>
       <use xlink:href="#DejaVuSans-30" x="63.623047"/>
      </g>
     </g>
    </g>
    <g id="text_14">
     <!-- Dielectric constant $\epsilon$ -->
     <g transform="translate(64.195312 342.23)rotate(-90)scale(0.1 -0.1)">
      <defs>
       <path id="DejaVuSans-44" d="M 1259 4147 
L 1259 519 
L 2022 519 
Q 2988 519 3436 956 
Q 3884 1394 3884 2338 
Q 3884 3275 3436 3711 
Q 2988 4147 2022 4147 
L 1259 4147 
z
M 628 4666 
L 1925 4666 
Q 3281 4666 3915 4102 
Q 4550 3538 4550 2338 
Q 4550 1131 3912 565 
Q 3275 0 1925 0 
L 628 0 
L 628 4666 
z
" transform="scale(0.015625)"/>
       <path id="DejaVuSans-69" d="M 603 3500 
L 1178 3500 
L 1178 0 
L 603 0 
L 603 3500 
z
M 603 4863 
L 1178 4863 
L 1178 4134 
L 603 4134 
L 603 4863 
z
" transform="scale(0.015625)"/>
       <path id="DejaVuSans-6c" d="M 603 4863 
L 1178 4863 
L 1178 0 
L 603 0 
L 603 4863 
z
" transform="scale(0.015625)"/>
       <path id="DejaVuSans-63" d="M 3122 3366 
L 3122 2828 
Q 2878 2963 2633 3030 
Q 2388 3097 2138 3097 
Q 1578 3097 1268 2742 
Q 959 2388 959 1747 
Q 959 1106 1268 751 
Q 1578 397 2138 397 
Q 2388 397 2633 464 
Q 2878 531 3122 666 
L 3122 134 
Q 2881 22 2623 -34 
Q 2366 -91 2075 -91 
Q 1284 -91 818 406 
Q 353 903 353 1747 
Q 353 2603 823 3093 
Q 1294 3584 2113 3584 
Q 2378 3584 2631 3529 
Q 2884 3475 3122 3366 
z
" transform="scale(0.015625)"/>
       <path id="DejaVuSans-74" d="M 1172 4494 
L 1172 3500 
L 2356 3500 
L 2356 3053 
L 1172 3053 
L 1172 1153 
Q 1172 725 1289 603 
Q 1406 481 1766 481 
L 2356 481 
L 2356 0 
L 1766 0 
Q 1100 0 847 248 
Q 594 497 594 1153 
L 594 3053 
L 172 3053 
L 172 3500 
L 594 3500 
L 594 4494 
L 1172 4494 
z
" transform="scale(0.015625)"/>
       <path id="DejaVuSans-6f" d="M 1959 3097 
Q 1497 3097 1228 2736 
Q 959 2375 959 1747 
Q 959 1119 1226 758 
Q 1494 397 1959 397 
Q 2419 397 2687 759 
Q 2956 1122 2956 1747 
Q 2956 2369 2687 2733 
Q 2419 3097 1959 3097 
z
M 1959 3584 
Q 2709 3584 3137 3096 
Q 3566 2609 3566 1747 
Q 3566 888 3137 398 
Q 2709 -91 1959 -91 
Q 1206 -91 779 398 
Q 353 888 353 1747 
Q 353 2609 779 3096 
Q 1206 3584 1959 3584 
z
" transform="scale(0.015625)"/>
       <path id="DejaVuSans-73" d="M 2834 3397 
L 2834 2853 
Q 2591 2978 2328 3040 
Q 2066 3103 1784 3103 
Q 1356 3103 1142 2972 
Q 928 2841 928 2578 
Q 928 2378 1081 2264 
Q 1234 2150 1697 2047 
L 1894 2003 
Q 2506 1872 2764 1633 
Q 3022 1394 3022 966 
Q 3022 478 2636 193 
Q 2250 -91 1575 -91 
Q 1294 -91 989 -36 
Q 684 19 347 128 
L 347 722 
Q 666 556 975 473 
Q 1284 391 1588 391 
Q 1994 391 2212 530 
Q 2431 669 2431 922 
Q 2431 1156 2273 1281 
Q 2116 1406 1581 1522 
L 1381 1569 
Q 847 1681 609 1914 
Q 372 2147 372 2553 
Q 372 3047 722 3315 
Q 1072 3584 1716 3584 
Q 2034 3584 2315 3537 
Q 2597 3491 2834 3397 
z
" transform="scale(0.015625)"/>
       <path id="DejaVuSans-61" d="M 2194 1759 
Q 1497 1759 1228 1600 
Q 959 1441 959 1056 
Q 959 750 1161 570 
Q 1363 391 1709 391 
Q 2188 391 2477 730 
Q 2766 1069 2766 1631 
L 2766 1759 
L 2194 1759 
z
M 3341 1997 
L 3341 0 
L 2766 0 
L 2766 531 
Q 2569 213 2275 61 
Q 1981 -91 1556 -91 
Q 1019 -91 701 211 
Q 384 513 384 1019 
Q 384 1609 779 1909 
Q 1175 2209 1959 2209 
L 2766 2209 
L 2766 2266 
Q 2766 2663 2505 2880 
Q 2244 3097 1772 3097 
Q 1472 3097 1187 3025 
Q 903 2953 641 2809 
L 641 3341 
Q 956 3463 1253 3523 
Q 1550 3584 1831 3584 
Q 2591 3584 2966 3190 
Q 3341 2797 3341 1997 
z
" transform="scale(0.015625)"/>
       <path id="DejaVuSans-Oblique-3b5" d="M 1263 1888 
Q 925 1963 778 2166 
Q 669 2309 669 2503 
Q 669 3034 1175 3344 
Q 1575 3588 2188 3588 
Q 2425 3588 2684 3550 
Q 2944 3513 3234 3438 
L 3134 2916 
Q 2847 3006 2606 3047 
Q 2359 3088 2138 3088 
Q 1766 3088 1522 2944 
Q 1228 2772 1228 2522 
Q 1228 2356 1381 2241 
Q 1563 2103 1925 2103 
L 2409 2103 
L 2319 1628 
L 1856 1628 
Q 1425 1628 1172 1469 
Q 828 1253 828 916 
Q 828 703 1013 563 
Q 1244 388 1716 388 
Q 2006 388 2284 444 
Q 2563 503 2806 619 
L 2700 84 
Q 2403 -3 2131 -47 
Q 1859 -91 1609 -91 
Q 866 -91 516 194 
Q 250 413 250 781 
Q 250 1278 600 1584 
Q 859 1813 1263 1888 
z
" transform="scale(0.015625)"/>
      </defs>
      <use xlink:href="#DejaVuSans-44" transform="translate(0 0.015625)"/>
      <use xlink:href="#DejaVuSans-69" transform="translate(77.001953 0.015625)"/>
      <use xlink:href="#DejaVuSans-65" transform="translate(104.785156 0.015625)"/>
      <use xlink:href="#DejaVuSans-6c" transform="translate(166.308594 0.015625)"/>
      <use xlink:href="#DejaVuSans-65" transform="translate(194.091797 0.015625)"/>
      <use xlink:href="#DejaVuSans-63" transform="translate(255.615234 0.015625)"/>
      <use xlink:href="#DejaVuSans-74" transform="translate(310.595703 0.015625)"/>
      <use xlink:href="#DejaVuSans-72" transform="translate(349.804688 0.015625)"/>
      <use xlink:href="#DejaVuSans-69" transform="translate(390.917969 0.015625)"/>
      <use xlink:href="#DejaVuSans-63" transform="translate(418.701172 0.015625)"/>
      <use xlink:href="#DejaVuSans-20" transform="translate(473.681641 0.015625)"/>
      <use xlink:href="#DejaVuSans-63" transform="translate(505.46875 0.015625)"/>
      <use xlink:href="#DejaVuSans-6f" transform="translate(560.449219 0.015625)"/>
      <use xlink:href="#DejaVuSans-6e" transform="translate(621.630859 0.015625)"/>
      <use xlink:href="#DejaVuSans-73" transform="translate(685.009766 0.015625)"/>
      <use xlink:href="#DejaVuSans-74" transform="translate(737.109375 0.015625)"/>
      <use xlink:href="#DejaVuSans-61" transform="translate(776.318359 0.015625)"/>
      <use xlink:href="#DejaVuSans-6e" transform="translate(837.597656 0.015625)"/>
      <use xlink:href="#DejaVuSans-74" transform="translate(900.976562 0.015625)"/>
      <use xlink:href="#DejaVuSans-20" transform="translate(940.185547 0.015625)"/>
      <use xlink:href="#DejaVuSans-Oblique-3b5" transform="translate(971.972656 0.015625)"/>
     </g>
    </g>
   </g>
   <g id="line2d_13">
    <path d="M 115.395393 332.509671 
L 115.649038 312.115485 
L 116.15674 377.257396 
L 116.664029 395.033174 
L 116.918086 402.799254 
L 117.171731 402.765649 
L 117.67902 379.684909 
L 118.186722 359.736459 
L 118.440366 357.371023 
L 118.694011 356.137897 
L 119.201712 343.429511 
L 119.455357 343.620874 
L 119.709002 355.708496 
L 120.216703 389.787021 
L 120.470348 393.975542 
L 120.723993 387.559273 
L 121.485339 346.994001 
L 121.738983 354.354018 
L 122.753974 426.529229 
L 123.008031 434.944543 
L 124.023022 451.701895 
L 125.038013 456.924711 
L 125.545302 454.261028 
L 125.798947 455.224846 
L 126.813938 470.093302 
L 127.067995 472.314983 
L 127.321639 473.322673 
L 127.575284 473.491633 
L 128.082986 474.617409 
L 128.590275 474.051254 
L 128.84392 474.639346 
L 129.097977 475.616698 
L 129.351621 475.883673 
L 129.85891 474.447049 
L 130.112967 473.36468 
L 130.620257 469.27184 
L 130.873901 468.484451 
L 131.127958 470.038227 
L 131.888892 477.842113 
L 132.396594 479.786083 
L 132.903883 480.19168 
L 133.15794 480.167876 
L 133.665229 479.541512 
L 133.918874 478.582829 
L 134.426576 475.132689 
L 134.68022 474.62301 
L 134.933865 474.945527 
L 135.187922 475.05241 
L 135.441566 474.658015 
L 136.202913 472.066677 
L 136.963847 472.794791 
L 137.217904 473.642857 
L 137.725193 477.001048 
L 137.978837 477.212014 
L 138.232894 476.369549 
L 138.993828 472.077879 
L 139.247885 472.219768 
L 139.755175 474.02605 
L 140.008819 474.238416 
L 140.262876 473.946704 
L 141.02381 472.128287 
L 141.277867 471.803903 
L 141.531512 471.851043 
L 142.292858 474.581937 
L 142.546503 474.381239 
L 142.800147 473.732471 
L 143.053792 473.415088 
L 143.815138 475.241907 
L 144.068783 474.79617 
L 144.576484 473.51497 
L 144.830129 473.592916 
L 145.337831 474.717291 
L 146.098764 476.848424 
L 146.352822 477.824377 
L 146.606466 478.304652 
L 146.860111 477.732429 
L 147.367812 475.840733 
L 147.875102 476.403155 
L 148.128746 476.346212 
L 148.382803 476.820887 
L 149.651439 481.909282 
L 150.158728 483.119537 
L 150.412785 483.362242 
L 150.66643 483.420118 
L 151.173719 484.123494 
L 151.681421 484.813802 
L 151.935065 484.983695 
L 152.442767 485.034103 
L 152.696411 484.922552 
L 153.457758 484.000742 
L 154.218692 483.169479 
L 154.726393 483.388379 
L 155.741384 484.014277 
L 155.995029 483.997941 
L 156.50273 483.603546 
L 156.756375 483.574142 
L 157.263664 483.874255 
L 158.02501 484.864677 
L 158.278655 484.966893 
L 159.293646 484.931421 
L 160.054992 485.702008 
L 160.308637 485.757083 
L 160.562694 485.691739 
L 160.816338 485.421964 
L 161.323628 484.187438 
L 161.831329 482.551049 
L 162.084974 482.364353 
L 163.099965 484.687316 
L 163.607666 485.989519 
L 164.114956 486.470728 
L 164.622657 486.498732 
L 164.876302 486.410052 
L 165.383591 485.770618 
L 165.637648 485.385091 
L 166.144937 485.175992 
L 166.652639 485.154522 
L 167.159928 485.35242 
L 167.413573 485.209131 
L 167.66763 485.193728 
L 168.174919 485.576455 
L 168.428564 485.140987 
L 169.697612 479.661931 
L 169.951256 479.154585 
L 170.204901 479.225996 
L 170.712603 480.069394 
L 171.219892 480.327034 
L 171.473536 480.27896 
L 171.727594 480.049324 
L 172.234883 479.235797 
L 172.488527 479.57045 
L 173.757575 483.367376 
L 174.772566 484.090823 
L 175.279855 484.667246 
L 175.5335 484.820803 
L 176.041202 484.847874 
L 178.071183 485.585789 
L 178.578473 485.551251 
L 179.086174 485.192328 
L 179.593463 484.341928 
L 179.847521 483.818713 
L 180.101165 483.567141 
L 180.35481 483.507398 
L 180.608454 483.795376 
L 181.369801 486.042261 
L 181.877502 486.84832 
L 182.131147 487.003744 
L 182.638436 486.991142 
L 183.146138 487.650645 
L 183.653427 488.134188 
L 184.161129 488.281211 
L 184.668418 488.085647 
L 185.17612 487.686118 
L 185.429764 487.797668 
L 186.19111 488.427767 
L 186.6984 488.384827 
L 187.713391 487.866279 
L 187.967448 487.50829 
L 188.728381 485.785554 
L 190.251074 483.515333 
L 190.504719 483.457457 
L 190.758363 483.548471 
L 191.519709 484.116493 
L 193.04199 483.140541 
L 193.803336 482.288274 
L 194.311037 482.461901 
L 195.071971 482.001229 
L 195.326028 482.233199 
L 196.086962 483.483594 
L 196.848308 484.031547 
L 197.609655 485.46117 
L 198.116944 485.749615 
L 198.87829 486.004922 
L 199.893281 486.873524 
L 200.400983 486.768041 
L 201.923263 486.338174 
L 202.684609 486.860455 
L 203.445955 487.009812 
L 205.22188 487.645045 
L 205.729582 487.517625 
L 205.983226 487.353332 
L 207.251862 485.850431 
L 208.266853 484.194905 
L 208.52091 484.00821 
L 208.774554 483.979272 
L 209.028199 484.13843 
L 209.535901 485.214731 
L 210.04319 486.329772 
L 210.296834 486.611216 
L 210.550892 486.638287 
L 211.058181 486.543539 
L 211.819527 486.758239 
L 212.326816 486.56781 
L 212.834518 486.429188 
L 214.103153 486.36011 
L 214.610855 486.493598 
L 215.371789 486.562209 
L 217.401771 488.375492 
L 219.939454 489.557277 
L 221.20809 489.958206 
L 222.22308 490.15377 
L 223.238071 490.1309 
L 224.253062 489.887262 
L 225.521698 488.923911 
L 226.536689 488.290079 
L 227.04439 488.515047 
L 227.551679 488.8539 
L 228.059381 488.886105 
L 229.581661 488.859501 
L 230.089363 488.742349 
L 231.104354 488.100116 
L 231.611643 488.205599 
L 232.119345 488.446903 
L 232.626634 488.353089 
L 233.134335 488.31715 
L 233.641625 488.307815 
L 234.149326 488.225202 
L 234.656616 488.371291 
L 235.164317 488.740016 
L 235.671606 489.356579 
L 236.179308 489.672095 
L 236.686597 489.820985 
L 237.447944 489.931602 
L 238.970636 490.496823 
L 241.000618 490.555166 
L 243.791534 490.911288 
L 245.314226 491.105919 
L 246.075572 491.045709 
L 247.597852 490.64758 
L 248.359199 490.631244 
L 249.881479 490.888418 
L 252.419162 490.895886 
L 254.956433 491.086782 
L 255.971424 490.967297 
L 258.001406 490.952828 
L 259.524098 490.509892 
L 260.285445 490.345133 
L 261.300435 490.211179 
L 262.061369 489.726236 
L 262.569071 489.767776 
L 263.584062 490.260653 
L 264.344996 490.377805 
L 265.106342 490.32833 
L 266.121333 490.111297 
L 267.89767 490.487955 
L 268.912661 490.548165 
L 270.434941 490.129966 
L 271.196287 489.786913 
L 271.957634 489.58108 
L 272.972624 489.165215 
L 273.479914 489.238027 
L 274.494904 489.613752 
L 275.509895 490.451083 
L 276.271242 490.62611 
L 277.032588 490.637779 
L 277.793934 490.446416 
L 279.569859 489.490066 
L 280.331205 489.88026 
L 281.346196 490.41281 
L 281.853898 490.441748 
L 282.868889 490.104762 
L 283.376178 489.997879 
L 287.689786 490.548632 
L 289.466123 490.530429 
L 290.988816 490.570568 
L 292.511096 490.467419 
L 293.526087 490.059488 
L 294.287433 489.540941 
L 294.794722 489.445726 
L 295.302424 489.604417 
L 296.824704 490.406743 
L 299.362387 490.519227 
L 300.884667 490.869748 
L 302.40736 490.810006 
L 304.183697 490.631244 
L 305.198688 490.632645 
L 305.959622 490.688187 
L 307.735959 490.858547 
L 308.75095 490.787135 
L 310.273642 490.766599 
L 313.064558 491.164728 
L 314.333606 491.188065 
L 315.855886 491.111986 
L 318.393569 490.470219 
L 318.900859 490.341866 
L 320.169494 490.641513 
L 321.438542 490.875349 
L 324.229458 491.24034 
L 326.005795 491.325286 
L 328.797123 491.434503 
L 337.170694 491.466242 
L 345.290621 491.762155 
L 347.827892 491.75702 
L 354.679184 491.773823 
L 355.947819 491.746752 
L 360.007783 491.576392 
L 362.545466 491.705679 
L 366.097728 491.640802 
L 371.172683 491.873239 
L 379.800311 491.657605 
L 381.068947 491.679075 
L 382.591639 491.750953 
L 409.235047 492.041265 
L 412.787309 492.013727 
L 421.668582 492.120611 
L 430.295798 492.167751 
L 435.878454 492.232628 
L 441.460698 492.267167 
L 474.194463 492.398787 
L 483.328969 492.423525 
L 574.170858 492.479533 
L 622.636364 492.48 
L 622.636364 492.48 
" clip-path="url(#pe9bf5b8826)" style="fill: none; stroke: #6a5acd; stroke-width: 1.5; stroke-linecap: square"/>
   </g>
   <g id="line2d_14">
    <path d="M 115.363636 205.198512 
L 115.585936 89.28 
L 115.807824 100.836939 
L 116.473899 311.743027 
L 116.918086 371.717664 
L 117.140386 385.169099 
L 117.362273 385.183568 
L 117.806461 363.205734 
L 118.028348 363.79476 
L 118.472536 378.396241 
L 118.694423 382.360727 
L 118.916723 377.852023 
L 119.360498 343.987731 
L 119.804685 309.322048 
L 120.026985 308.95099 
L 120.248873 325.63273 
L 120.914948 397.632447 
L 121.359135 420.337928 
L 122.247097 452.05055 
L 122.691285 460.232961 
L 122.913585 462.052312 
L 123.135472 462.348225 
L 123.801547 458.751997 
L 124.023847 459.081048 
L 124.467622 456.228336 
L 124.689922 456.34082 
L 125.355997 461.416613 
L 125.577884 461.479623 
L 125.800184 461.286393 
L 126.022072 462.098986 
L 126.910446 468.051316 
L 127.354221 471.613006 
L 127.576521 472.076945 
L 127.798409 472.220701 
L 128.020709 472.649168 
L 128.464484 475.397798 
L 128.686784 475.736651 
L 129.130971 474.303293 
L 129.352858 474.679019 
L 129.797046 477.445851 
L 130.018933 477.649349 
L 130.463121 476.382618 
L 130.907308 477.117733 
L 131.129196 476.809685 
L 131.573383 475.522884 
L 132.239458 473.670861 
L 132.461345 473.704 
L 132.683645 473.283 
L 133.127833 471.322694 
L 133.34972 471.960727 
L 133.793908 474.349967 
L 134.015795 474.947394 
L 134.238095 474.733627 
L 134.459982 473.933169 
L 134.90417 470.714532 
L 135.570245 464.30153 
L 136.014432 460.124678 
L 136.23632 459.776957 
L 136.458207 462.586729 
L 136.902394 470.802746 
L 137.124694 472.55162 
L 137.346582 472.975886 
L 137.568469 472.906342 
L 137.790769 472.588959 
L 138.012657 472.858267 
L 138.901032 478.643038 
L 139.122919 478.732185 
L 139.344806 478.104887 
L 139.788994 474.736894 
L 140.233181 472.190363 
L 140.455069 472.229569 
L 140.677369 472.578224 
L 140.899256 472.250106 
L 141.343444 469.859466 
L 141.565331 470.741137 
L 142.009518 473.556977 
L 142.453706 474.567468 
L 142.675593 475.205501 
L 142.897893 475.299316 
L 143.341668 473.738538 
L 143.563968 473.04823 
L 143.785856 472.909609 
L 144.008155 473.261064 
L 144.45193 474.905854 
L 144.67423 475.231638 
L 144.896118 474.376105 
L 145.562193 467.237789 
L 145.784493 466.513876 
L 146.00638 466.603957 
L 146.22868 467.810945 
L 147.116642 475.188231 
L 147.56083 477.872918 
L 147.782717 478.16323 
L 148.226905 477.108398 
L 148.448792 477.240952 
L 148.89298 479.611523 
L 149.337167 482.260737 
L 149.781354 483.248824 
L 150.447429 483.806111 
L 150.891617 484.741924 
L 151.113504 484.71392 
L 151.335804 484.504821 
L 151.557691 484.547761 
L 152.223766 485.145654 
L 152.445654 485.176926 
L 152.667954 485.026169 
L 152.889841 484.524424 
L 153.555916 481.847205 
L 153.778216 482.027834 
L 154.888478 484.140764 
L 155.110366 484.091756 
L 155.554553 483.793043 
L 155.998741 483.770639 
L 156.664815 483.47426 
L 156.886703 483.569474 
L 157.109003 483.808912 
L 157.775078 485.228734 
L 158.441153 485.722544 
L 158.66304 485.806557 
L 158.88534 485.75755 
L 159.773302 484.933754 
L 159.995602 484.958025 
L 160.661677 485.599792 
L 161.105864 484.938422 
L 161.771939 483.853252 
L 162.659902 479.825289 
L 162.882202 479.949909 
L 163.326389 482.149186 
L 163.770164 484.343795 
L 164.214351 485.437366 
L 164.880426 486.107604 
L 165.102726 486.148211 
L 165.324614 486.063264 
L 165.768801 485.398627 
L 166.212988 484.929554 
L 166.879063 484.3732 
L 167.545138 484.302256 
L 167.989326 485.036437 
L 168.433513 485.76035 
L 168.6554 485.97085 
L 168.877288 485.928376 
L 169.099588 485.604926 
L 169.321475 484.939822 
L 169.765663 482.101578 
L 170.431738 477.017851 
L 170.653625 476.162317 
L 170.875925 476.483901 
L 171.763887 479.713272 
L 172.208075 482.852096 
L 172.430375 483.692694 
L 173.09645 484.615905 
L 173.540637 485.101314 
L 173.984412 485.172725 
L 174.872787 485.2278 
L 175.316974 485.030836 
L 175.760749 484.446011 
L 175.983049 484.516022 
L 176.204936 484.708786 
L 176.427236 484.65091 
L 176.871011 484.295254 
L 177.315199 484.505287 
L 178.203574 485.488241 
L 178.647348 485.059307 
L 179.091536 484.829671 
L 179.313836 484.654177 
L 179.535723 484.667246 
L 179.979911 484.82267 
L 180.201798 484.718587 
L 180.645986 484.011944 
L 181.53436 482.672401 
L 181.756248 483.279162 
L 182.422323 486.421253 
L 182.86651 487.338863 
L 183.532585 487.98063 
L 183.754472 487.854611 
L 184.19866 486.917864 
L 184.42096 486.410052 
L 184.642847 486.298501 
L 185.308922 486.944468 
L 185.974997 486.837118 
L 186.419184 487.3608 
L 186.863372 487.489154 
L 187.307559 487.391138 
L 188.195522 486.854388 
L 188.639709 486.948202 
L 188.861596 486.824516 
L 189.305784 485.975517 
L 189.749971 485.018234 
L 190.194159 484.924886 
L 190.416046 484.646709 
L 190.860233 483.75757 
L 191.304421 483.324903 
L 191.748196 482.235999 
L 192.414683 479.40149 
L 192.636571 479.254 
L 192.858458 479.474768 
L 193.302645 480.432984 
L 194.412908 483.882657 
L 194.635208 484.128162 
L 195.078983 484.006343 
L 195.301283 484.305523 
L 195.745057 485.03177 
L 196.411545 484.817536 
L 198.187882 486.12254 
L 198.632069 486.037593 
L 199.520032 486.163146 
L 199.964219 485.795822 
L 200.408406 485.672603 
L 200.852181 485.532114 
L 201.296369 485.905039 
L 201.740556 486.46466 
L 202.184744 486.681227 
L 202.628931 486.919731 
L 203.072706 487.19044 
L 203.739193 487.082623 
L 204.627156 486.410985 
L 205.959305 485.964315 
L 206.403493 485.260005 
L 206.84768 483.96667 
L 207.513755 480.574873 
L 207.736055 480.481525 
L 207.957942 480.891789 
L 208.40213 482.505775 
L 209.068205 485.695007 
L 209.290092 486.233624 
L 209.512392 486.417986 
L 209.956167 486.277964 
L 210.178467 486.388115 
L 210.844542 487.035016 
L 211.510617 487.212377 
L 211.732917 487.304325 
L 211.954804 487.199308 
L 212.620879 486.143543 
L 213.286954 485.901305 
L 213.953029 485.950313 
L 214.397216 486.070265 
L 214.841404 486.462793 
L 215.729778 488.048774 
L 216.395853 488.403496 
L 217.94989 489.542808 
L 219.948528 490.295192 
L 220.392715 489.993211 
L 221.05879 489.272099 
L 221.280677 489.247362 
L 222.39094 489.719702 
L 223.057014 489.638956 
L 223.501202 489.331375 
L 223.945389 488.96125 
L 225.055651 488.634999 
L 225.721726 489.094271 
L 225.943614 489.050864 
L 226.831989 488.228469 
L 227.942251 488.185529 
L 228.608326 487.528826 
L 229.718588 488.047374 
L 230.162775 487.944691 
L 230.606963 488.473041 
L 231.050738 488.936046 
L 231.494925 489.149813 
L 232.161 489.234293 
L 232.605187 489.086336 
L 233.049375 488.726013 
L 233.271262 488.727414 
L 234.159637 489.416788 
L 234.825712 489.815384 
L 235.714087 489.997412 
L 236.157862 489.959139 
L 237.046237 490.437548 
L 238.156499 490.440348 
L 238.600686 490.101495 
L 239.044461 489.826585 
L 239.266761 489.895196 
L 240.377023 490.765665 
L 240.821211 490.811406 
L 241.931473 490.718992 
L 243.041323 491.030774 
L 244.595773 490.452483 
L 244.818072 490.439881 
L 245.928335 490.955162 
L 247.038597 490.860414 
L 247.926559 490.617242 
L 248.592634 490.578503 
L 249.702896 490.677918 
L 250.591271 491.004636 
L 251.257346 491.091916 
L 253.033683 490.980832 
L 254.588133 491.090983 
L 256.36447 490.704056 
L 257.030545 490.463685 
L 257.474732 490.380139 
L 258.140807 490.080025 
L 258.584995 490.227515 
L 259.25107 490.593439 
L 259.695257 490.599039 
L 260.139444 490.397408 
L 260.583219 490.145835 
L 261.249294 489.975475 
L 261.915781 489.795314 
L 262.581856 489.698699 
L 263.914006 489.453194 
L 265.246156 490.275589 
L 265.912643 490.435681 
L 267.022905 490.490289 
L 267.68898 490.330197 
L 268.576943 490.017015 
L 269.243018 489.996012 
L 269.687205 489.769176 
L 270.35328 489.109207 
L 271.241655 489.587615 
L 271.463542 489.527872 
L 272.130029 488.924378 
L 272.351917 489.192286 
L 272.796104 490.02635 
L 273.239879 490.36847 
L 274.350141 490.658315 
L 274.794329 490.66765 
L 276.348779 490.07209 
L 277.014853 489.506869 
L 277.680928 488.888439 
L 278.125116 489.369181 
L 278.569303 489.957272 
L 279.01349 490.228915 
L 279.457265 490.289591 
L 279.901453 490.074424 
L 280.567528 489.490533 
L 281.011715 489.555876 
L 283.23224 490.656915 
L 283.898315 490.721325 
L 286.784914 490.798337 
L 287.673289 490.38714 
L 288.117476 490.502891 
L 288.561251 490.641979 
L 289.227738 490.5603 
L 290.559888 490.02495 
L 291.225963 490.079558 
L 291.67015 489.915733 
L 291.892038 489.682363 
L 292.558113 488.394162 
L 292.780413 488.424966 
L 293.2246 489.041996 
L 293.890675 490.264854 
L 294.334862 490.608374 
L 295.444712 490.958896 
L 296.777274 490.891685 
L 297.443349 490.575236 
L 297.887537 490.357268 
L 298.331724 490.47302 
L 298.997799 490.564501 
L 300.329949 490.844078 
L 302.994661 490.198577 
L 303.438848 489.978743 
L 303.882623 490.181307 
L 304.770998 490.780134 
L 305.437073 490.867415 
L 305.88126 490.813273 
L 306.547335 490.627044 
L 307.657597 490.819341 
L 308.101785 490.714791 
L 309.878122 490.948161 
L 310.322309 490.865081 
L 310.766084 490.694721 
L 312.542421 490.909888 
L 313.652683 490.788536 
L 314.541058 490.375471 
L 314.985246 490.449683 
L 316.095508 490.120165 
L 316.539283 490.165438 
L 316.98347 490.224714 
L 317.871845 490.848278 
L 318.759807 490.83941 
L 319.203995 490.845478 
L 320.980332 491.26321 
L 321.424519 491.088649 
L 322.090594 490.763332 
L 323.200856 491.047109 
L 324.089231 491.409299 
L 324.977194 491.43777 
L 325.643269 491.333221 
L 329.196355 491.381295 
L 330.972692 491.081648 
L 332.304842 490.796937 
L 333.415104 491.212335 
L 334.525367 491.265544 
L 335.857516 491.56239 
L 337.856153 491.431703 
L 338.744116 491.179663 
L 340.298566 491.352824 
L 341.18694 491.502181 
L 342.51909 491.341622 
L 344.07354 491.4149 
L 345.627989 491.405565 
L 346.515952 491.541387 
L 347.182027 491.541853 
L 348.070401 491.394364 
L 349.402551 491.54232 
L 350.068626 491.497513 
L 352.51145 491.526918 
L 354.509675 491.256676 
L 355.17575 490.939759 
L 355.841825 491.058778 
L 356.286012 490.914555 
L 356.7302 491.088649 
L 357.396275 491.377561 
L 358.284649 491.459707 
L 360.060986 491.209535 
L 360.727061 491.008837 
L 361.837324 491.18013 
L 362.725698 491.410233 
L 367.166335 491.623066 
L 370.052934 491.241273 
L 370.497122 491.233805 
L 371.163197 491.426102 
L 372.939534 491.403232 
L 374.493984 491.150726 
L 379.15692 491.616532 
L 382.265819 491.422835 
L 382.931894 491.408833 
L 383.597969 491.336021 
L 384.264044 491.479777 
L 385.374306 491.399498 
L 386.484569 491.613731 
L 387.372943 491.595995 
L 390.259543 491.687943 
L 396.032742 492.069736 
L 403.582278 492.031463 
L 406.025102 492.059468 
L 411.132226 491.665539 
L 411.576001 491.651537 
L 412.020188 491.535319 
L 414.240713 491.825631 
L 415.350975 491.910111 
L 416.461237 491.998791 
L 418.903649 492.092139 
L 424.454961 492.134613 
L 427.785748 492.025862 
L 428.67371 492.030997 
L 430.006272 492.019328 
L 435.557171 492.207424 
L 447.547756 492.03473 
L 448.880318 491.684209 
L 449.324506 491.693077 
L 451.100843 492.140214 
L 454.20933 492.211625 
L 458.206191 492.43986 
L 467.754365 492.452929 
L 475.082013 492.471132 
L 531.482264 492.479067 
L 559.237996 492.479533 
L 559.237996 492.479533 
" clip-path="url(#pe9bf5b8826)" style="fill: none; stroke-dasharray: 5.55,2.4; stroke-dashoffset: 0; stroke: #66cdaa; stroke-width: 1.5"/>
   </g>
   <g id="patch_3">
    <path d="M 90 512.64 
L 90 69.12 
" style="fill: none; stroke: #000000; stroke-width: 0.8; stroke-linejoin: miter; stroke-linecap: square"/>
   </g>
   <g id="patch_4">
    <path d="M 648 512.64 
L 648 69.12 
" style="fill: none; stroke: #000000; stroke-width: 0.8; stroke-linejoin: miter; stroke-linecap: square"/>
   </g>
   <g id="patch_5">
    <path d="M 90 512.64 
L 648 512.64 
" style="fill: none; stroke: #000000; stroke-width: 0.8; stroke-linejoin: miter; stroke-linecap: square"/>
   </g>
   <g id="patch_6">
    <path d="M 90 69.12 
L 648 69.12 
" style="fill: none; stroke: #000000; stroke-width: 0.8; stroke-linejoin: miter; stroke-linecap: square"/>
   </g>
   <g id="legend_1">
    <g id="patch_7">
     <path d="M 572.376562 106.47625 
L 641 106.47625 
Q 643 106.47625 643 104.47625 
L 643 76.12 
Q 643 74.12 641 74.12 
L 572.376562 74.12 
Q 570.376562 74.12 570.376562 76.12 
L 570.376562 104.47625 
Q 570.376562 106.47625 572.376562 106.47625 
z
" style="fill: #ffffff; opacity: 0.8; stroke: #cccccc; stroke-linejoin: miter"/>
    </g>
    <g id="line2d_15">
     <path d="M 574.376562 82.218438 
L 584.376562 82.218438 
L 594.376562 82.218438 
" style="fill: none; stroke: #6a5acd; stroke-width: 1.5; stroke-linecap: square"/>
    </g>
    <g id="text_15">
     <!-- InCoO3 -->
     <g transform="translate(602.376562 85.718438)scale(0.1 -0.1)">
      <defs>
       <path id="DejaVuSans-49" d="M 628 4666 
L 1259 4666 
L 1259 0 
L 628 0 
L 628 4666 
z
" transform="scale(0.015625)"/>
       <path id="DejaVuSans-43" d="M 4122 4306 
L 4122 3641 
Q 3803 3938 3442 4084 
Q 3081 4231 2675 4231 
Q 1875 4231 1450 3742 
Q 1025 3253 1025 2328 
Q 1025 1406 1450 917 
Q 1875 428 2675 428 
Q 3081 428 3442 575 
Q 3803 722 4122 1019 
L 4122 359 
Q 3791 134 3420 21 
Q 3050 -91 2638 -91 
Q 1578 -91 968 557 
Q 359 1206 359 2328 
Q 359 3453 968 4101 
Q 1578 4750 2638 4750 
Q 3056 4750 3426 4639 
Q 3797 4528 4122 4306 
z
" transform="scale(0.015625)"/>
       <path id="DejaVuSans-4f" d="M 2522 4238 
Q 1834 4238 1429 3725 
Q 1025 3213 1025 2328 
Q 1025 1447 1429 934 
Q 1834 422 2522 422 
Q 3209 422 3611 934 
Q 4013 1447 4013 2328 
Q 4013 3213 3611 3725 
Q 3209 4238 2522 4238 
z
M 2522 4750 
Q 3503 4750 4090 4092 
Q 4678 3434 4678 2328 
Q 4678 1225 4090 567 
Q 3503 -91 2522 -91 
Q 1538 -91 948 565 
Q 359 1222 359 2328 
Q 359 3434 948 4092 
Q 1538 4750 2522 4750 
z
" transform="scale(0.015625)"/>
       <path id="DejaVuSans-33" d="M 2597 2516 
Q 3050 2419 3304 2112 
Q 3559 1806 3559 1356 
Q 3559 666 3084 287 
Q 2609 -91 1734 -91 
Q 1441 -91 1130 -33 
Q 819 25 488 141 
L 488 750 
Q 750 597 1062 519 
Q 1375 441 1716 441 
Q 2309 441 2620 675 
Q 2931 909 2931 1356 
Q 2931 1769 2642 2001 
Q 2353 2234 1838 2234 
L 1294 2234 
L 1294 2753 
L 1863 2753 
Q 2328 2753 2575 2939 
Q 2822 3125 2822 3475 
Q 2822 3834 2567 4026 
Q 2313 4219 1838 4219 
Q 1578 4219 1281 4162 
Q 984 4106 628 3988 
L 628 4550 
Q 988 4650 1302 4700 
Q 1616 4750 1894 4750 
Q 2613 4750 3031 4423 
Q 3450 4097 3450 3541 
Q 3450 3153 3228 2886 
Q 3006 2619 2597 2516 
z
" transform="scale(0.015625)"/>
      </defs>
      <use xlink:href="#DejaVuSans-49"/>
      <use xlink:href="#DejaVuSans-6e" x="29.492188"/>
      <use xlink:href="#DejaVuSans-43" x="92.871094"/>
      <use xlink:href="#DejaVuSans-6f" x="162.695312"/>
      <use xlink:href="#DejaVuSans-4f" x="223.876953"/>
      <use xlink:href="#DejaVuSans-33" x="302.587891"/>
     </g>
    </g>
    <g id="line2d_16">
     <path d="M 574.376562 96.896563 
L 584.376562 96.896563 
L 594.376562 96.896563 
" style="fill: none; stroke-dasharray: 5.55,2.4; stroke-dashoffset: 0; stroke: #66cdaa; stroke-width: 1.5"/>
    </g>
    <g id="text_16">
     <!-- InFeO3 -->
     <g transform="translate(602.376562 100.396563)scale(0.1 -0.1)">
      <defs>
       <path id="DejaVuSans-46" d="M 628 4666 
L 3309 4666 
L 3309 4134 
L 1259 4134 
L 1259 2759 
L 3109 2759 
L 3109 2228 
L 1259 2228 
L 1259 0 
L 628 0 
L 628 4666 
z
" transform="scale(0.015625)"/>
      </defs>
      <use xlink:href="#DejaVuSans-49"/>
      <use xlink:href="#DejaVuSans-6e" x="29.492188"/>
      <use xlink:href="#DejaVuSans-46" x="92.871094"/>
      <use xlink:href="#DejaVuSans-65" x="144.890625"/>
      <use xlink:href="#DejaVuSans-4f" x="206.414062"/>
      <use xlink:href="#DejaVuSans-33" x="285.125"/>
     </g>
    </g>
   </g>
  </g>
 </g>
 <defs>
  <clipPath id="pe9bf5b8826">
   <rect x="90" y="69.12" width="558" height="443.52"/>
  </clipPath>
 </defs>
</svg>
