<?xml version="1.0" encoding="utf-8" standalone="no"?>
<!DOCTYPE svg PUBLIC "-//W3C//DTD SVG 1.1//EN"
  "http://www.w3.org/Graphics/SVG/1.1/DTD/svg11.dtd">
<svg xmlns:xlink="http://www.w3.org/1999/xlink" width="720pt" height="576pt" viewBox="0 0 720 576" xmlns="http://www.w3.org/2000/svg" version="1.1">
 <metadata>
  <rdf:RDF xmlns:dc="http://purl.org/dc/elements/1.1/" xmlns:cc="http://creativecommons.org/ns#" xmlns:rdf="http://www.w3.org/1999/02/22-rdf-syntax-ns#">
   <cc:Work>
    <dc:type rdf:resource="http://purl.org/dc/dcmitype/StillImage"/>
    <dc:date>2022-03-18T19:46:39.843744</dc:date>
    <dc:format>image/svg+xml</dc:format>
    <dc:creator>
     <cc:Agent>
      <dc:title>Matplotlib v3.5.1, https://matplotlib.org/</dc:title>
     </cc:Agent>
    </dc:creator>
   </cc:Work>
  </rdf:RDF>
 </metadata>
 <defs>
  <style type="text/css">*{stroke-linejoin: round; stroke-linecap: butt}</style>
 </defs>
 <g id="figure_1">
  <g id="patch_1">
   <path d="M 0 576 
L 720 576 
L 720 0 
L 0 0 
z
" style="fill: #ffffff"/>
  </g>
  <g id="axes_1">
   <g id="patch_2">
    <path d="M 90 512.64 
L 648 512.64 
L 648 69.12 
L 90 69.12 
z
" style="fill: #ffffff"/>
   </g>
   <g id="matplotlib.axis_1">
    <g id="xtick_1">
     <g id="line2d_1">
      <defs>
       <path id="m9a189c26d4" d="M 0 0 
L 0 3.5 
" style="stroke: #000000; stroke-width: 0.8"/>
      </defs>
      <g>
       <use xlink:href="#m9a189c26d4" x="144.857016" y="512.64" style="stroke: #000000; stroke-width: 0.8"/>
      </g>
     </g>
     <g id="text_1">
      <!-- −20 -->
      <g transform="translate(134.304672 527.238438)scale(0.1 -0.1)">
       <defs>
        <path id="DejaVuSans-2212" d="M 678 2272 
L 4684 2272 
L 4684 1741 
L 678 1741 
L 678 2272 
z
" transform="scale(0.015625)"/>
        <path id="DejaVuSans-32" d="M 1228 531 
L 3431 531 
L 3431 0 
L 469 0 
L 469 531 
Q 828 903 1448 1529 
Q 2069 2156 2228 2338 
Q 2531 2678 2651 2914 
Q 2772 3150 2772 3378 
Q 2772 3750 2511 3984 
Q 2250 4219 1831 4219 
Q 1534 4219 1204 4116 
Q 875 4013 500 3803 
L 500 4441 
Q 881 4594 1212 4672 
Q 1544 4750 1819 4750 
Q 2544 4750 2975 4387 
Q 3406 4025 3406 3419 
Q 3406 3131 3298 2873 
Q 3191 2616 2906 2266 
Q 2828 2175 2409 1742 
Q 1991 1309 1228 531 
z
" transform="scale(0.015625)"/>
        <path id="DejaVuSans-30" d="M 2034 4250 
Q 1547 4250 1301 3770 
Q 1056 3291 1056 2328 
Q 1056 1369 1301 889 
Q 1547 409 2034 409 
Q 2525 409 2770 889 
Q 3016 1369 3016 2328 
Q 3016 3291 2770 3770 
Q 2525 4250 2034 4250 
z
M 2034 4750 
Q 2819 4750 3233 4129 
Q 3647 3509 3647 2328 
Q 3647 1150 3233 529 
Q 2819 -91 2034 -91 
Q 1250 -91 836 529 
Q 422 1150 422 2328 
Q 422 3509 836 4129 
Q 1250 4750 2034 4750 
z
" transform="scale(0.015625)"/>
       </defs>
       <use xlink:href="#DejaVuSans-2212"/>
       <use xlink:href="#DejaVuSans-32" x="83.789062"/>
       <use xlink:href="#DejaVuSans-30" x="147.412109"/>
      </g>
     </g>
    </g>
    <g id="xtick_2">
     <g id="line2d_2">
      <g>
       <use xlink:href="#m9a189c26d4" x="210.007246" y="512.64" style="stroke: #000000; stroke-width: 0.8"/>
      </g>
     </g>
     <g id="text_2">
      <!-- −15 -->
      <g transform="translate(199.454903 527.238438)scale(0.1 -0.1)">
       <defs>
        <path id="DejaVuSans-31" d="M 794 531 
L 1825 531 
L 1825 4091 
L 703 3866 
L 703 4441 
L 1819 4666 
L 2450 4666 
L 2450 531 
L 3481 531 
L 3481 0 
L 794 0 
L 794 531 
z
" transform="scale(0.015625)"/>
        <path id="DejaVuSans-35" d="M 691 4666 
L 3169 4666 
L 3169 4134 
L 1269 4134 
L 1269 2991 
Q 1406 3038 1543 3061 
Q 1681 3084 1819 3084 
Q 2600 3084 3056 2656 
Q 3513 2228 3513 1497 
Q 3513 744 3044 326 
Q 2575 -91 1722 -91 
Q 1428 -91 1123 -41 
Q 819 9 494 109 
L 494 744 
Q 775 591 1075 516 
Q 1375 441 1709 441 
Q 2250 441 2565 725 
Q 2881 1009 2881 1497 
Q 2881 1984 2565 2268 
Q 2250 2553 1709 2553 
Q 1456 2553 1204 2497 
Q 953 2441 691 2322 
L 691 4666 
z
" transform="scale(0.015625)"/>
       </defs>
       <use xlink:href="#DejaVuSans-2212"/>
       <use xlink:href="#DejaVuSans-31" x="83.789062"/>
       <use xlink:href="#DejaVuSans-35" x="147.412109"/>
      </g>
     </g>
    </g>
    <g id="xtick_3">
     <g id="line2d_3">
      <g>
       <use xlink:href="#m9a189c26d4" x="275.157477" y="512.64" style="stroke: #000000; stroke-width: 0.8"/>
      </g>
     </g>
     <g id="text_3">
      <!-- −10 -->
      <g transform="translate(264.605133 527.238438)scale(0.1 -0.1)">
       <use xlink:href="#DejaVuSans-2212"/>
       <use xlink:href="#DejaVuSans-31" x="83.789062"/>
       <use xlink:href="#DejaVuSans-30" x="147.412109"/>
      </g>
     </g>
    </g>
    <g id="xtick_4">
     <g id="line2d_4">
      <g>
       <use xlink:href="#m9a189c26d4" x="340.307708" y="512.64" style="stroke: #000000; stroke-width: 0.8"/>
      </g>
     </g>
     <g id="text_4">
      <!-- −5 -->
      <g transform="translate(332.936614 527.238438)scale(0.1 -0.1)">
       <use xlink:href="#DejaVuSans-2212"/>
       <use xlink:href="#DejaVuSans-35" x="83.789062"/>
      </g>
     </g>
    </g>
    <g id="xtick_5">
     <g id="line2d_5">
      <g>
       <use xlink:href="#m9a189c26d4" x="405.457939" y="512.64" style="stroke: #000000; stroke-width: 0.8"/>
      </g>
     </g>
     <g id="text_5">
      <!-- 0 -->
      <g transform="translate(402.276689 527.238438)scale(0.1 -0.1)">
       <use xlink:href="#DejaVuSans-30"/>
      </g>
     </g>
    </g>
    <g id="xtick_6">
     <g id="line2d_6">
      <g>
       <use xlink:href="#m9a189c26d4" x="470.60817" y="512.64" style="stroke: #000000; stroke-width: 0.8"/>
      </g>
     </g>
     <g id="text_6">
      <!-- 5 -->
      <g transform="translate(467.42692 527.238438)scale(0.1 -0.1)">
       <use xlink:href="#DejaVuSans-35"/>
      </g>
     </g>
    </g>
    <g id="xtick_7">
     <g id="line2d_7">
      <g>
       <use xlink:href="#m9a189c26d4" x="535.758401" y="512.64" style="stroke: #000000; stroke-width: 0.8"/>
      </g>
     </g>
     <g id="text_7">
      <!-- 10 -->
      <g transform="translate(529.395901 527.238438)scale(0.1 -0.1)">
       <use xlink:href="#DejaVuSans-31"/>
       <use xlink:href="#DejaVuSans-30" x="63.623047"/>
      </g>
     </g>
    </g>
    <g id="xtick_8">
     <g id="line2d_8">
      <g>
       <use xlink:href="#m9a189c26d4" x="600.908631" y="512.64" style="stroke: #000000; stroke-width: 0.8"/>
      </g>
     </g>
     <g id="text_8">
      <!-- 15 -->
      <g transform="translate(594.546131 527.238438)scale(0.1 -0.1)">
       <use xlink:href="#DejaVuSans-31"/>
       <use xlink:href="#DejaVuSans-35" x="63.623047"/>
      </g>
     </g>
    </g>
    <g id="text_9">
     <!-- Energy (ev) -->
     <g transform="translate(310.934375 548.515)scale(0.2 -0.2)">
      <defs>
       <path id="DejaVuSans-45" d="M 628 4666 
L 3578 4666 
L 3578 4134 
L 1259 4134 
L 1259 2753 
L 3481 2753 
L 3481 2222 
L 1259 2222 
L 1259 531 
L 3634 531 
L 3634 0 
L 628 0 
L 628 4666 
z
" transform="scale(0.015625)"/>
       <path id="DejaVuSans-6e" d="M 3513 2113 
L 3513 0 
L 2938 0 
L 2938 2094 
Q 2938 2591 2744 2837 
Q 2550 3084 2163 3084 
Q 1697 3084 1428 2787 
Q 1159 2491 1159 1978 
L 1159 0 
L 581 0 
L 581 3500 
L 1159 3500 
L 1159 2956 
Q 1366 3272 1645 3428 
Q 1925 3584 2291 3584 
Q 2894 3584 3203 3211 
Q 3513 2838 3513 2113 
z
" transform="scale(0.015625)"/>
       <path id="DejaVuSans-65" d="M 3597 1894 
L 3597 1613 
L 953 1613 
Q 991 1019 1311 708 
Q 1631 397 2203 397 
Q 2534 397 2845 478 
Q 3156 559 3463 722 
L 3463 178 
Q 3153 47 2828 -22 
Q 2503 -91 2169 -91 
Q 1331 -91 842 396 
Q 353 884 353 1716 
Q 353 2575 817 3079 
Q 1281 3584 2069 3584 
Q 2775 3584 3186 3129 
Q 3597 2675 3597 1894 
z
M 3022 2063 
Q 3016 2534 2758 2815 
Q 2500 3097 2075 3097 
Q 1594 3097 1305 2825 
Q 1016 2553 972 2059 
L 3022 2063 
z
" transform="scale(0.015625)"/>
       <path id="DejaVuSans-72" d="M 2631 2963 
Q 2534 3019 2420 3045 
Q 2306 3072 2169 3072 
Q 1681 3072 1420 2755 
Q 1159 2438 1159 1844 
L 1159 0 
L 581 0 
L 581 3500 
L 1159 3500 
L 1159 2956 
Q 1341 3275 1631 3429 
Q 1922 3584 2338 3584 
Q 2397 3584 2469 3576 
Q 2541 3569 2628 3553 
L 2631 2963 
z
" transform="scale(0.015625)"/>
       <path id="DejaVuSans-67" d="M 2906 1791 
Q 2906 2416 2648 2759 
Q 2391 3103 1925 3103 
Q 1463 3103 1205 2759 
Q 947 2416 947 1791 
Q 947 1169 1205 825 
Q 1463 481 1925 481 
Q 2391 481 2648 825 
Q 2906 1169 2906 1791 
z
M 3481 434 
Q 3481 -459 3084 -895 
Q 2688 -1331 1869 -1331 
Q 1566 -1331 1297 -1286 
Q 1028 -1241 775 -1147 
L 775 -588 
Q 1028 -725 1275 -790 
Q 1522 -856 1778 -856 
Q 2344 -856 2625 -561 
Q 2906 -266 2906 331 
L 2906 616 
Q 2728 306 2450 153 
Q 2172 0 1784 0 
Q 1141 0 747 490 
Q 353 981 353 1791 
Q 353 2603 747 3093 
Q 1141 3584 1784 3584 
Q 2172 3584 2450 3431 
Q 2728 3278 2906 2969 
L 2906 3500 
L 3481 3500 
L 3481 434 
z
" transform="scale(0.015625)"/>
       <path id="DejaVuSans-79" d="M 2059 -325 
Q 1816 -950 1584 -1140 
Q 1353 -1331 966 -1331 
L 506 -1331 
L 506 -850 
L 844 -850 
Q 1081 -850 1212 -737 
Q 1344 -625 1503 -206 
L 1606 56 
L 191 3500 
L 800 3500 
L 1894 763 
L 2988 3500 
L 3597 3500 
L 2059 -325 
z
" transform="scale(0.015625)"/>
       <path id="DejaVuSans-20" transform="scale(0.015625)"/>
       <path id="DejaVuSans-28" d="M 1984 4856 
Q 1566 4138 1362 3434 
Q 1159 2731 1159 2009 
Q 1159 1288 1364 580 
Q 1569 -128 1984 -844 
L 1484 -844 
Q 1016 -109 783 600 
Q 550 1309 550 2009 
Q 550 2706 781 3412 
Q 1013 4119 1484 4856 
L 1984 4856 
z
" transform="scale(0.015625)"/>
       <path id="DejaVuSans-76" d="M 191 3500 
L 800 3500 
L 1894 563 
L 2988 3500 
L 3597 3500 
L 2284 0 
L 1503 0 
L 191 3500 
z
" transform="scale(0.015625)"/>
       <path id="DejaVuSans-29" d="M 513 4856 
L 1013 4856 
Q 1481 4119 1714 3412 
Q 1947 2706 1947 2009 
Q 1947 1309 1714 600 
Q 1481 -109 1013 -844 
L 513 -844 
Q 928 -128 1133 580 
Q 1338 1288 1338 2009 
Q 1338 2731 1133 3434 
Q 928 4138 513 4856 
z
" transform="scale(0.015625)"/>
      </defs>
      <use xlink:href="#DejaVuSans-45"/>
      <use xlink:href="#DejaVuSans-6e" x="63.183594"/>
      <use xlink:href="#DejaVuSans-65" x="126.5625"/>
      <use xlink:href="#DejaVuSans-72" x="188.085938"/>
      <use xlink:href="#DejaVuSans-67" x="227.449219"/>
      <use xlink:href="#DejaVuSans-79" x="290.925781"/>
      <use xlink:href="#DejaVuSans-20" x="350.105469"/>
      <use xlink:href="#DejaVuSans-28" x="381.892578"/>
      <use xlink:href="#DejaVuSans-65" x="420.90625"/>
      <use xlink:href="#DejaVuSans-76" x="482.429688"/>
      <use xlink:href="#DejaVuSans-29" x="541.609375"/>
     </g>
    </g>
   </g>
   <g id="matplotlib.axis_2">
    <g id="ytick_1">
     <g id="line2d_9">
      <defs>
       <path id="m83d3f5737f" d="M 0 0 
L -3.5 0 
" style="stroke: #000000; stroke-width: 0.8"/>
      </defs>
      <g>
       <use xlink:href="#m83d3f5737f" x="90" y="500.475077" style="stroke: #000000; stroke-width: 0.8"/>
      </g>
     </g>
     <g id="text_10">
      <!-- −30 -->
      <g transform="translate(61.895313 504.274296)scale(0.1 -0.1)">
       <defs>
        <path id="DejaVuSans-33" d="M 2597 2516 
Q 3050 2419 3304 2112 
Q 3559 1806 3559 1356 
Q 3559 666 3084 287 
Q 2609 -91 1734 -91 
Q 1441 -91 1130 -33 
Q 819 25 488 141 
L 488 750 
Q 750 597 1062 519 
Q 1375 441 1716 441 
Q 2309 441 2620 675 
Q 2931 909 2931 1356 
Q 2931 1769 2642 2001 
Q 2353 2234 1838 2234 
L 1294 2234 
L 1294 2753 
L 1863 2753 
Q 2328 2753 2575 2939 
Q 2822 3125 2822 3475 
Q 2822 3834 2567 4026 
Q 2313 4219 1838 4219 
Q 1578 4219 1281 4162 
Q 984 4106 628 3988 
L 628 4550 
Q 988 4650 1302 4700 
Q 1616 4750 1894 4750 
Q 2613 4750 3031 4423 
Q 3450 4097 3450 3541 
Q 3450 3153 3228 2886 
Q 3006 2619 2597 2516 
z
" transform="scale(0.015625)"/>
       </defs>
       <use xlink:href="#DejaVuSans-2212"/>
       <use xlink:href="#DejaVuSans-33" x="83.789062"/>
       <use xlink:href="#DejaVuSans-30" x="147.412109"/>
      </g>
     </g>
    </g>
    <g id="ytick_2">
     <g id="line2d_10">
      <g>
       <use xlink:href="#m83d3f5737f" x="90" y="431.552" style="stroke: #000000; stroke-width: 0.8"/>
      </g>
     </g>
     <g id="text_11">
      <!-- −20 -->
      <g transform="translate(61.895313 435.351219)scale(0.1 -0.1)">
       <use xlink:href="#DejaVuSans-2212"/>
       <use xlink:href="#DejaVuSans-32" x="83.789062"/>
       <use xlink:href="#DejaVuSans-30" x="147.412109"/>
      </g>
     </g>
    </g>
    <g id="ytick_3">
     <g id="line2d_11">
      <g>
       <use xlink:href="#m83d3f5737f" x="90" y="362.628923" style="stroke: #000000; stroke-width: 0.8"/>
      </g>
     </g>
     <g id="text_12">
      <!-- −10 -->
      <g transform="translate(61.895313 366.428142)scale(0.1 -0.1)">
       <use xlink:href="#DejaVuSans-2212"/>
       <use xlink:href="#DejaVuSans-31" x="83.789062"/>
       <use xlink:href="#DejaVuSans-30" x="147.412109"/>
      </g>
     </g>
    </g>
    <g id="ytick_4">
     <g id="line2d_12">
      <g>
       <use xlink:href="#m83d3f5737f" x="90" y="293.705846" style="stroke: #000000; stroke-width: 0.8"/>
      </g>
     </g>
     <g id="text_13">
      <!-- 0 -->
      <g transform="translate(76.6375 297.505065)scale(0.1 -0.1)">
       <use xlink:href="#DejaVuSans-30"/>
      </g>
     </g>
    </g>
    <g id="ytick_5">
     <g id="line2d_13">
      <g>
       <use xlink:href="#m83d3f5737f" x="90" y="224.782769" style="stroke: #000000; stroke-width: 0.8"/>
      </g>
     </g>
     <g id="text_14">
      <!-- 10 -->
      <g transform="translate(70.275 228.581988)scale(0.1 -0.1)">
       <use xlink:href="#DejaVuSans-31"/>
       <use xlink:href="#DejaVuSans-30" x="63.623047"/>
      </g>
     </g>
    </g>
    <g id="ytick_6">
     <g id="line2d_14">
      <g>
       <use xlink:href="#m83d3f5737f" x="90" y="155.859692" style="stroke: #000000; stroke-width: 0.8"/>
      </g>
     </g>
     <g id="text_15">
      <!-- 20 -->
      <g transform="translate(70.275 159.658911)scale(0.1 -0.1)">
       <use xlink:href="#DejaVuSans-32"/>
       <use xlink:href="#DejaVuSans-30" x="63.623047"/>
      </g>
     </g>
    </g>
    <g id="ytick_7">
     <g id="line2d_15">
      <g>
       <use xlink:href="#m83d3f5737f" x="90" y="86.936615" style="stroke: #000000; stroke-width: 0.8"/>
      </g>
     </g>
     <g id="text_16">
      <!-- 30 -->
      <g transform="translate(70.275 90.735834)scale(0.1 -0.1)">
       <use xlink:href="#DejaVuSans-33"/>
       <use xlink:href="#DejaVuSans-30" x="63.623047"/>
      </g>
     </g>
    </g>
    <g id="text_17">
     <!-- Density of States (arbitrary) -->
     <g transform="translate(53.735937 431.108125)rotate(-90)scale(0.2 -0.2)">
      <defs>
       <path id="DejaVuSans-44" d="M 1259 4147 
L 1259 519 
L 2022 519 
Q 2988 519 3436 956 
Q 3884 1394 3884 2338 
Q 3884 3275 3436 3711 
Q 2988 4147 2022 4147 
L 1259 4147 
z
M 628 4666 
L 1925 4666 
Q 3281 4666 3915 4102 
Q 4550 3538 4550 2338 
Q 4550 1131 3912 565 
Q 3275 0 1925 0 
L 628 0 
L 628 4666 
z
" transform="scale(0.015625)"/>
       <path id="DejaVuSans-73" d="M 2834 3397 
L 2834 2853 
Q 2591 2978 2328 3040 
Q 2066 3103 1784 3103 
Q 1356 3103 1142 2972 
Q 928 2841 928 2578 
Q 928 2378 1081 2264 
Q 1234 2150 1697 2047 
L 1894 2003 
Q 2506 1872 2764 1633 
Q 3022 1394 3022 966 
Q 3022 478 2636 193 
Q 2250 -91 1575 -91 
Q 1294 -91 989 -36 
Q 684 19 347 128 
L 347 722 
Q 666 556 975 473 
Q 1284 391 1588 391 
Q 1994 391 2212 530 
Q 2431 669 2431 922 
Q 2431 1156 2273 1281 
Q 2116 1406 1581 1522 
L 1381 1569 
Q 847 1681 609 1914 
Q 372 2147 372 2553 
Q 372 3047 722 3315 
Q 1072 3584 1716 3584 
Q 2034 3584 2315 3537 
Q 2597 3491 2834 3397 
z
" transform="scale(0.015625)"/>
       <path id="DejaVuSans-69" d="M 603 3500 
L 1178 3500 
L 1178 0 
L 603 0 
L 603 3500 
z
M 603 4863 
L 1178 4863 
L 1178 4134 
L 603 4134 
L 603 4863 
z
" transform="scale(0.015625)"/>
       <path id="DejaVuSans-74" d="M 1172 4494 
L 1172 3500 
L 2356 3500 
L 2356 3053 
L 1172 3053 
L 1172 1153 
Q 1172 725 1289 603 
Q 1406 481 1766 481 
L 2356 481 
L 2356 0 
L 1766 0 
Q 1100 0 847 248 
Q 594 497 594 1153 
L 594 3053 
L 172 3053 
L 172 3500 
L 594 3500 
L 594 4494 
L 1172 4494 
z
" transform="scale(0.015625)"/>
       <path id="DejaVuSans-6f" d="M 1959 3097 
Q 1497 3097 1228 2736 
Q 959 2375 959 1747 
Q 959 1119 1226 758 
Q 1494 397 1959 397 
Q 2419 397 2687 759 
Q 2956 1122 2956 1747 
Q 2956 2369 2687 2733 
Q 2419 3097 1959 3097 
z
M 1959 3584 
Q 2709 3584 3137 3096 
Q 3566 2609 3566 1747 
Q 3566 888 3137 398 
Q 2709 -91 1959 -91 
Q 1206 -91 779 398 
Q 353 888 353 1747 
Q 353 2609 779 3096 
Q 1206 3584 1959 3584 
z
" transform="scale(0.015625)"/>
       <path id="DejaVuSans-66" d="M 2375 4863 
L 2375 4384 
L 1825 4384 
Q 1516 4384 1395 4259 
Q 1275 4134 1275 3809 
L 1275 3500 
L 2222 3500 
L 2222 3053 
L 1275 3053 
L 1275 0 
L 697 0 
L 697 3053 
L 147 3053 
L 147 3500 
L 697 3500 
L 697 3744 
Q 697 4328 969 4595 
Q 1241 4863 1831 4863 
L 2375 4863 
z
" transform="scale(0.015625)"/>
       <path id="DejaVuSans-53" d="M 3425 4513 
L 3425 3897 
Q 3066 4069 2747 4153 
Q 2428 4238 2131 4238 
Q 1616 4238 1336 4038 
Q 1056 3838 1056 3469 
Q 1056 3159 1242 3001 
Q 1428 2844 1947 2747 
L 2328 2669 
Q 3034 2534 3370 2195 
Q 3706 1856 3706 1288 
Q 3706 609 3251 259 
Q 2797 -91 1919 -91 
Q 1588 -91 1214 -16 
Q 841 59 441 206 
L 441 856 
Q 825 641 1194 531 
Q 1563 422 1919 422 
Q 2459 422 2753 634 
Q 3047 847 3047 1241 
Q 3047 1584 2836 1778 
Q 2625 1972 2144 2069 
L 1759 2144 
Q 1053 2284 737 2584 
Q 422 2884 422 3419 
Q 422 4038 858 4394 
Q 1294 4750 2059 4750 
Q 2388 4750 2728 4690 
Q 3069 4631 3425 4513 
z
" transform="scale(0.015625)"/>
       <path id="DejaVuSans-61" d="M 2194 1759 
Q 1497 1759 1228 1600 
Q 959 1441 959 1056 
Q 959 750 1161 570 
Q 1363 391 1709 391 
Q 2188 391 2477 730 
Q 2766 1069 2766 1631 
L 2766 1759 
L 2194 1759 
z
M 3341 1997 
L 3341 0 
L 2766 0 
L 2766 531 
Q 2569 213 2275 61 
Q 1981 -91 1556 -91 
Q 1019 -91 701 211 
Q 384 513 384 1019 
Q 384 1609 779 1909 
Q 1175 2209 1959 2209 
L 2766 2209 
L 2766 2266 
Q 2766 2663 2505 2880 
Q 2244 3097 1772 3097 
Q 1472 3097 1187 3025 
Q 903 2953 641 2809 
L 641 3341 
Q 956 3463 1253 3523 
Q 1550 3584 1831 3584 
Q 2591 3584 2966 3190 
Q 3341 2797 3341 1997 
z
" transform="scale(0.015625)"/>
       <path id="DejaVuSans-62" d="M 3116 1747 
Q 3116 2381 2855 2742 
Q 2594 3103 2138 3103 
Q 1681 3103 1420 2742 
Q 1159 2381 1159 1747 
Q 1159 1113 1420 752 
Q 1681 391 2138 391 
Q 2594 391 2855 752 
Q 3116 1113 3116 1747 
z
M 1159 2969 
Q 1341 3281 1617 3432 
Q 1894 3584 2278 3584 
Q 2916 3584 3314 3078 
Q 3713 2572 3713 1747 
Q 3713 922 3314 415 
Q 2916 -91 2278 -91 
Q 1894 -91 1617 61 
Q 1341 213 1159 525 
L 1159 0 
L 581 0 
L 581 4863 
L 1159 4863 
L 1159 2969 
z
" transform="scale(0.015625)"/>
      </defs>
      <use xlink:href="#DejaVuSans-44"/>
      <use xlink:href="#DejaVuSans-65" x="77.001953"/>
      <use xlink:href="#DejaVuSans-6e" x="138.525391"/>
      <use xlink:href="#DejaVuSans-73" x="201.904297"/>
      <use xlink:href="#DejaVuSans-69" x="254.003906"/>
      <use xlink:href="#DejaVuSans-74" x="281.787109"/>
      <use xlink:href="#DejaVuSans-79" x="320.996094"/>
      <use xlink:href="#DejaVuSans-20" x="380.175781"/>
      <use xlink:href="#DejaVuSans-6f" x="411.962891"/>
      <use xlink:href="#DejaVuSans-66" x="473.144531"/>
      <use xlink:href="#DejaVuSans-20" x="508.349609"/>
      <use xlink:href="#DejaVuSans-53" x="540.136719"/>
      <use xlink:href="#DejaVuSans-74" x="603.613281"/>
      <use xlink:href="#DejaVuSans-61" x="642.822266"/>
      <use xlink:href="#DejaVuSans-74" x="704.101562"/>
      <use xlink:href="#DejaVuSans-65" x="743.310547"/>
      <use xlink:href="#DejaVuSans-73" x="804.833984"/>
      <use xlink:href="#DejaVuSans-20" x="856.933594"/>
      <use xlink:href="#DejaVuSans-28" x="888.720703"/>
      <use xlink:href="#DejaVuSans-61" x="927.734375"/>
      <use xlink:href="#DejaVuSans-72" x="989.013672"/>
      <use xlink:href="#DejaVuSans-62" x="1030.126953"/>
      <use xlink:href="#DejaVuSans-69" x="1093.603516"/>
      <use xlink:href="#DejaVuSans-74" x="1121.386719"/>
      <use xlink:href="#DejaVuSans-72" x="1160.595703"/>
      <use xlink:href="#DejaVuSans-61" x="1201.708984"/>
      <use xlink:href="#DejaVuSans-72" x="1262.988281"/>
      <use xlink:href="#DejaVuSans-79" x="1304.101562"/>
      <use xlink:href="#DejaVuSans-29" x="1363.28125"/>
     </g>
    </g>
   </g>
   <g id="line2d_16">
    <path d="M 115.363636 293.705846 
L 138.192277 293.705846 
L 138.452878 293.306988 
L 138.700449 293.246336 
L 139.208621 292.880837 
L 141.241308 292.096492 
L 143.013394 291.489969 
L 145.046082 290.753182 
L 147.32634 289.649723 
L 148.850855 288.185108 
L 149.098426 287.020997 
L 149.867199 287.356652 
L 155.183457 288.158917 
L 155.95223 288.33536 
L 156.199801 288.270572 
L 156.707973 288.438055 
L 157.216145 288.823335 
L 157.476746 288.784049 
L 157.984917 290.045342 
L 158.988231 290.945477 
L 161.789691 292.403889 
L 162.284833 288.856418 
L 162.793004 286.020923 
L 163.561777 280.107323 
L 163.809348 276.923077 
L 164.069949 271.381662 
L 164.31752 227.973908 
L 164.578121 235.472738 
L 165.086293 257.941662 
L 165.333863 261.739323 
L 165.581434 255.046892 
L 165.842035 265.1648 
L 166.089606 267.136 
L 166.350207 264.075815 
L 166.858379 268.052677 
L 167.10595 265.488738 
L 167.366551 268.224985 
L 167.614121 265.447385 
L 167.874722 260.760615 
L 168.122293 261.973662 
L 168.382894 271.9744 
L 168.891066 279.445662 
L 169.89438 293.318705 
L 170.15498 293.705846 
L 217.076177 293.705846 
L 217.323748 286.4896 
L 217.584349 272.946215 
L 217.831919 253.227323 
L 218.09252 161.718154 
L 218.340091 188.667077 
L 218.600692 155.446154 
L 218.848263 89.28 
L 219.108864 116.504615 
L 219.356435 129.737846 
L 219.617036 133.804308 
L 219.864607 203.278769 
L 220.125208 221.060923 
L 220.372778 200.039385 
L 220.620349 137.801846 
L 220.88095 113.265231 
L 221.389122 248.988554 
L 221.897294 267.714954 
L 222.144865 269.058954 
L 222.405466 269.575877 
L 222.653036 281.823508 
L 223.161208 293.447798 
L 223.421809 293.705846 
L 298.487905 293.705846 
L 298.748506 293.428844 
L 298.996077 293.509967 
L 299.504249 293.399207 
L 299.76485 292.075126 
L 300.012421 292.042732 
L 300.520592 291.430006 
L 301.276335 290.467151 
L 302.045108 289.750351 
L 302.292679 289.408492 
L 302.80085 287.997637 
L 303.061451 287.709538 
L 304.077795 285.993354 
L 304.325366 286.275938 
L 304.572937 285.166277 
L 305.58928 282.705723 
L 306.097452 282.285292 
L 306.605624 279.693785 
L 306.866225 279.493908 
L 307.113796 279.535262 
L 307.374397 280.293415 
L 307.621968 280.327877 
L 307.882568 280.624246 
L 308.130139 281.175631 
L 308.638311 281.072246 
L 309.394054 279.328492 
L 309.654655 278.632369 
L 309.902226 275.172431 
L 310.162827 275.510154 
L 310.410397 277.2608 
L 310.670998 283.133046 
L 311.17917 284.738954 
L 311.934913 285.180062 
L 313.198827 285.786585 
L 313.459428 285.607385 
L 313.9676 285.586708 
L 314.215171 285.545354 
L 314.475772 285.338585 
L 314.983944 285.242092 
L 315.231514 277.398646 
L 315.492115 274.345354 
L 316.247858 280.341662 
L 316.75603 279.693785 
L 317.003601 279.218215 
L 317.264202 279.190646 
L 317.511773 279.452554 
L 318.019944 279.342277 
L 318.280545 280.789662 
L 318.528116 281.182523 
L 318.788717 280.817231 
L 320.052632 281.492677 
L 320.300202 281.7408 
L 320.560803 281.754585 
L 321.068975 281.279015 
L 321.824718 281.616738 
L 322.085319 279.997046 
L 322.33289 281.375508 
L 322.593491 281.279015 
L 322.841061 281.396185 
L 323.088632 281.065354 
L 323.596804 274.586585 
L 323.857405 279.445662 
L 324.365577 279.652431 
L 324.613148 280.389908 
L 325.629491 281.347938 
L 326.893406 282.223262 
L 327.909749 282.512738 
L 328.678522 282.878031 
L 329.434265 282.884923 
L 329.942437 283.008985 
L 330.450608 284.097969 
L 330.698179 284.194462 
L 331.975124 283.732677 
L 333.239038 283.339815 
L 333.74721 282.967631 
L 333.994781 281.520246 
L 334.255382 281.2032 
L 334.763554 282.381785 
L 335.271726 284.022154 
L 335.519296 284.215138 
L 335.779897 284.235815 
L 336.027468 283.243323 
L 336.53564 284.980185 
L 337.043812 285.834831 
L 338.568327 286.172554 
L 339.076499 286.207015 
L 339.32407 283.822277 
L 339.832242 285.738338 
L 340.092843 285.669415 
L 340.601014 285.972677 
L 340.848585 285.490215 
L 341.356757 285.931323 
L 341.604328 284.111754 
L 341.864929 286.572308 
L 343.128843 287.141612 
L 343.389444 287.131274 
L 343.637015 287.464172 
L 345.669702 287.440049 
L 347.194218 287.018929 
L 347.441789 286.138092 
L 347.70239 286.296615 
L 348.210561 285.717662 
L 348.458132 285.221415 
L 348.705703 285.1456 
L 349.213875 285.352369 
L 349.982648 285.641846 
L 350.230218 286.241477 
L 350.490819 286.420677 
L 350.998991 287.395249 
L 351.246562 287.666806 
L 351.507163 284.091077 
L 351.754734 286.289723 
L 352.015335 286.096738 
L 352.262906 286.406892 
L 352.510477 286.455138 
L 352.771078 286.372431 
L 353.018648 287.241551 
L 353.52682 287.957662 
L 353.787421 288.011422 
L 354.034992 287.669563 
L 354.295593 287.956283 
L 354.803765 287.661292 
L 355.051336 287.395938 
L 355.311937 286.641231 
L 355.559507 286.510277 
L 356.067679 286.737723 
L 356.575851 286.496492 
L 356.823422 286.007138 
L 357.084023 286.344862 
L 358.608538 285.931323 
L 359.11671 285.497108 
L 359.364281 285.159385 
L 359.611852 285.214523 
L 359.872453 285.745231 
L 360.120024 285.662523 
L 360.628195 285.869292 
L 362.660883 285.889969 
L 363.924797 285.5936 
L 364.432969 285.331692 
L 364.69357 285.497108 
L 364.941141 285.304123 
L 366.218085 285.490215 
L 366.465656 285.311015 
L 366.726257 285.524677 
L 367.221399 285.345477 
L 367.482 285.297231 
L 367.72957 284.387446 
L 367.990171 284.890585 
L 368.237742 284.738954 
L 368.498343 281.616738 
L 368.745914 284.318523 
L 369.006515 279.955692 
L 369.254086 280.589785 
L 369.514687 278.928738 
L 369.762258 278.170585 
L 370.778601 283.870523 
L 371.026172 284.346092 
L 371.286773 285.628062 
L 371.534344 286.082954 
L 371.794945 283.360492 
L 372.042516 283.388062 
L 372.303117 282.616123 
L 372.550688 281.079138 
L 373.31946 280.231385 
L 373.567031 280.148677 
L 373.827632 280.644923 
L 374.075203 280.458831 
L 374.322774 281.210092 
L 374.583375 282.919385 
L 374.830946 283.574154 
L 375.599718 284.477046 
L 375.847289 284.718277 
L 376.10789 284.511508 
L 376.355461 284.766523 
L 376.616062 284.401231 
L 376.863633 284.608 
L 377.124234 284.235815 
L 377.371805 284.180677 
L 377.879976 284.594215 
L 379.143891 283.339815 
L 379.652063 283.374277 
L 380.160235 283.119262 
L 380.420835 282.698831 
L 381.424149 282.326646 
L 381.932321 281.768369 
L 382.440493 281.154954 
L 382.701094 281.554708 
L 384.225609 280.203815 
L 384.733781 279.990154 
L 385.228922 278.218831 
L 385.489523 278.356677 
L 385.737094 279.8592 
L 385.997695 279.542154 
L 386.505867 278.177477 
L 386.753438 276.461292 
L 387.014039 265.371569 
L 387.522211 272.753231 
L 387.769782 273.028923 
L 388.030382 276.874831 
L 388.277953 275.413662 
L 389.294297 265.667938 
L 389.541868 267.501292 
L 389.802469 274.0352 
L 390.05004 277.329723 
L 390.310641 276.178708 
L 390.558211 278.363569 
L 390.818812 278.611692 
L 391.066383 279.128615 
L 391.326984 279.356062 
L 391.835156 271.671138 
L 392.082727 264.923569 
L 392.343328 267.556431 
L 392.838469 269.086523 
L 393.09907 267.7632 
L 393.346641 269.775754 
L 393.607242 269.272615 
L 393.854813 268.521354 
L 394.362985 253.399631 
L 394.623586 271.354092 
L 394.871157 272.139815 
L 395.131758 271.912369 
L 395.379328 272.698092 
L 395.639929 272.863508 
L 395.8875 272.484431 
L 396.135071 271.547077 
L 396.395672 271.9744 
L 396.643243 274.655508 
L 396.903844 272.456862 
L 397.151415 277.736369 
L 397.412016 278.770215 
L 397.920187 281.837292 
L 398.167758 282.829785 
L 399.184102 289.653858 
L 399.939845 289.680738 
L 400.708617 289.458806 
L 400.956188 289.370585 
L 401.46436 288.932234 
L 402.233133 288.752345 
L 402.480704 288.617945 
L 402.741305 288.004529 
L 402.988875 288.083791 
L 403.249476 287.983163 
L 403.497047 287.140923 
L 403.744618 289.048714 
L 404.005219 289.451914 
L 407.549392 289.735877 
L 409.84268 289.889575 
L 410.845993 289.989514 
L 413.139281 289.809625 
L 415.419539 289.506363 
L 416.944055 289.124529 
L 418.45554 288.081723 
L 418.963712 287.776394 
L 419.224313 288.007975 
L 419.732485 289.028726 
L 419.980056 289.522905 
L 420.240657 289.753108 
L 421.257 289.764825 
L 422.520915 289.558745 
L 422.768486 288.986683 
L 423.029086 289.310622 
L 424.293001 288.925342 
L 424.801173 288.469071 
L 426.83386 285.228308 
L 427.850204 284.029046 
L 428.358375 284.594215 
L 428.605946 285.104246 
L 428.866547 285.214523 
L 429.361689 285.614277 
L 429.869861 285.786585 
L 430.638633 285.827938 
L 431.146805 285.648738 
L 431.394376 285.441969 
L 432.163149 286.014031 
L 433.166462 286.544738 
L 433.427063 286.613662 
L 433.674634 286.524062 
L 433.935235 283.9808 
L 434.182806 283.312246 
L 434.690978 286.2208 
L 434.951579 287.116111 
L 435.19915 287.231902 
L 435.45975 285.421292 
L 435.707321 285.972677 
L 435.967922 289.895778 
L 436.723665 290.095655 
L 437.231837 290.515397 
L 438.24818 290.581563 
L 441.544782 290.729058 
L 444.333212 290.664271 
L 445.088955 290.771102 
L 445.597126 290.697354 
L 447.629814 290.811766 
L 447.877384 290.829686 
L 448.137985 290.414769 
L 448.385556 290.285883 
L 449.154329 290.738708 
L 450.678844 291.508578 
L 450.926415 288.027963 
L 451.173986 293.705846 
L 461.584993 293.705846 
L 461.832564 293.166454 
L 462.080135 293.534228 
L 474.510799 292.470055 
L 476.791057 292.132332 
L 478.823744 291.58784 
L 479.592517 291.259766 
L 479.840088 291.039902 
L 480.856431 288.983237 
L 481.364603 288.696517 
L 482.120346 288.682043 
L 483.644861 288.945329 
L 483.892432 288.912935 
L 484.661205 289.209994 
L 484.908776 289.196209 
L 485.169377 288.983926 
L 486.18572 289.187938 
L 486.433291 289.848911 
L 488.205377 290.501612 
L 490.498665 290.779372 
L 492.010151 291.140529 
L 492.270752 290.802806 
L 492.518323 291.276997 
L 493.287095 291.525809 
L 493.534666 290.280369 
L 493.795267 290.327237 
L 494.303439 289.143138 
L 494.55101 287.902523 
L 494.811611 287.418683 
L 495.059182 287.272566 
L 495.306753 286.441354 
L 495.567353 286.765292 
L 496.323096 286.779077 
L 496.583697 287.005145 
L 496.831268 286.861785 
L 497.091869 286.510277 
L 497.33944 286.772185 
L 498.355783 286.822498 
L 501.144213 286.908652 
L 501.404814 286.94656 
L 501.652385 286.866609 
L 503.932643 287.182966 
L 505.717759 287.253268 
L 506.473502 287.220185 
L 506.981674 287.281526 
L 507.489846 287.378708 
L 507.998017 287.628898 
L 508.506189 287.621317 
L 508.75376 287.511729 
L 510.278276 287.639926 
L 511.034018 287.353895 
L 511.802791 286.682585 
L 512.050362 286.3104 
L 513.066705 283.146831 
L 513.314276 283.002092 
L 513.574877 283.257108 
L 513.822448 283.298462 
L 514.838792 283.008985 
L 515.607564 280.258954 
L 515.855135 280.362338 
L 516.363307 282.285292 
L 516.871479 285.827938 
L 517.887823 288.773022 
L 518.135393 287.838425 
L 518.395994 290.089452 
L 518.643565 290.49472 
L 519.151737 290.743532 
L 519.412338 290.711828 
L 519.92051 290.964086 
L 520.428682 290.866905 
L 520.676252 291.560271 
L 521.692596 291.908332 
L 523.972854 292.393551 
L 526.761284 292.781588 
L 531.582401 293.211323 
L 531.829972 293.230897 
L 532.090573 292.926326 
L 533.615088 293.493494 
L 537.928034 293.705846 
L 548.573581 293.705846 
L 548.834182 293.013169 
L 549.081753 293.086434 
L 549.342354 293.467993 
L 560.496073 292.834658 
L 563.284503 292.543114 
L 563.545104 292.104763 
L 563.792675 292.306708 
L 572.926738 290.282437 
L 573.174308 289.744837 
L 573.434909 290.071532 
L 575.454566 289.608369 
L 575.962738 289.595274 
L 577.995425 289.156234 
L 580.275684 288.542818 
L 583.324714 287.386978 
L 584.080457 286.925883 
L 584.84923 286.172554 
L 585.604972 285.069785 
L 586.360715 283.636185 
L 586.621316 282.829785 
L 586.868887 282.505846 
L 587.377059 283.739569 
L 587.63766 284.463262 
L 588.145831 285.083569 
L 588.393402 285.193846 
L 588.654003 284.270277 
L 588.901574 284.297846 
L 589.409746 284.794092 
L 589.670347 284.959508 
L 589.917918 284.863015 
L 590.165489 284.952615 
L 590.42609 285.455754 
L 590.934261 284.890585 
L 591.442433 283.732677 
L 591.690004 282.361108 
L 591.950605 282.498954 
L 592.198176 282.898708 
L 593.214519 287.939052 
L 593.970262 289.527729 
L 594.478434 290.134942 
L 594.739035 290.318966 
L 595.247207 290.396849 
L 595.494777 288.908111 
L 595.755378 288.375335 
L 596.002949 291.780825 
L 596.26355 293.34655 
L 596.511121 293.589849 
L 599.299551 293.705846 
L 622.636364 293.705846 
L 622.636364 293.705846 
" clip-path="url(#p3f99d82139)" style="fill: none; stroke: #006400; stroke-width: 2; stroke-linecap: square"/>
   </g>
   <g id="line2d_17">
    <path d="M 115.363636 293.705846 
L 139.469222 293.705846 
L 139.716793 294.260815 
L 139.964364 294.350759 
L 140.224964 294.605982 
L 140.733136 294.720394 
L 145.801824 296.504123 
L 147.834511 297.413218 
L 148.590254 297.8688 
L 149.867199 299.049452 
L 150.114769 300.191508 
L 150.37537 300.083298 
L 150.622941 300.287311 
L 150.870512 300.054351 
L 155.691629 299.349957 
L 157.984917 298.883348 
L 158.480059 298.498068 
L 158.74066 298.531151 
L 158.988231 297.748185 
L 159.496403 297.061022 
L 160.773347 296.107126 
L 162.284833 295.287631 
L 163.053605 294.961625 
L 163.301176 298.598695 
L 163.561777 299.079089 
L 164.578121 305.760492 
L 165.086293 311.784369 
L 165.333863 340.015262 
L 165.581434 351.787323 
L 166.350207 323.921723 
L 166.597778 323.391015 
L 166.858379 327.7952 
L 167.10595 319.710523 
L 167.366551 318.490585 
L 167.614121 322.260677 
L 167.874722 319.2832 
L 168.122293 318.662892 
L 168.382894 321.302646 
L 168.630465 318.2976 
L 168.891066 318.463015 
L 169.138637 319.6416 
L 169.386208 331.062154 
L 169.646809 318.318277 
L 169.89438 312.811323 
L 171.418895 294.092987 
L 171.679496 293.705846 
L 217.076177 293.705846 
L 217.584349 327.726277 
L 217.831919 385.511385 
L 218.09252 388.337231 
L 218.340091 434.171077 
L 219.108864 492.48 
L 219.356435 399.985231 
L 219.617036 409.496615 
L 219.864607 367.798154 
L 220.125208 361.595077 
L 220.620349 462.291692 
L 220.88095 446.370462 
L 221.128521 348.203323 
L 221.389122 330.496985 
L 221.636693 321.406031 
L 221.897294 318.201108 
L 222.144865 316.836431 
L 222.405466 311.419077 
L 222.913637 296.028554 
L 223.161208 293.705846 
L 299.256678 293.705846 
L 299.504249 293.974853 
L 299.76485 293.891111 
L 301.276335 294.185344 
L 301.536936 295.433748 
L 301.784507 295.418585 
L 302.292679 296.036135 
L 303.061451 296.962462 
L 303.817194 297.805391 
L 304.572937 299.107348 
L 305.341709 300.729108 
L 306.097452 301.397662 
L 307.113796 303.506708 
L 307.374397 303.479138 
L 307.621968 303.651446 
L 308.130139 304.168369 
L 308.37771 304.430277 
L 308.638311 305.3056 
L 308.885882 305.739815 
L 309.146483 306.9184 
L 309.394054 307.256123 
L 310.162827 304.768 
L 310.410397 304.575015 
L 310.670998 304.740431 
L 310.918569 304.375138 
L 311.17917 304.457846 
L 311.426741 304.719754 
L 312.182484 304.940308 
L 312.443085 305.236677 
L 312.690655 305.188431 
L 313.198827 305.898338 
L 313.459428 305.650215 
L 313.706999 308.407138 
L 313.9676 304.202831 
L 314.215171 303.982277 
L 314.723343 303.754831 
L 314.983944 301.845662 
L 315.231514 301.321846 
L 315.739686 301.184 
L 315.987257 301.280492 
L 316.247858 301.197785 
L 316.495429 300.708431 
L 318.019944 300.41344 
L 318.788717 300.351409 
L 320.052632 300.594018 
L 320.808374 301.080615 
L 321.068975 303.734154 
L 321.316546 304.575015 
L 321.577147 316.305723 
L 321.824718 312.659692 
L 322.085319 314.796308 
L 322.33289 310.467938 
L 322.593491 311.033108 
L 322.841061 311.301908 
L 323.088632 311.391508 
L 323.349233 310.750523 
L 323.596804 308.607015 
L 323.857405 308.0832 
L 324.104976 308.159015 
L 324.365577 309.813169 
L 325.12132 318.656 
L 325.38192 316.092062 
L 325.629491 311.177846 
L 325.890092 310.709169 
L 326.137663 310.550646 
L 326.398264 313.245538 
L 326.645835 309.558154 
L 327.154007 308.124554 
L 328.678522 306.091323 
L 329.434265 305.539938 
L 329.942437 305.312492 
L 330.190007 305.367631 
L 330.698179 304.692185 
L 330.95878 304.568123 
L 331.714523 304.533662 
L 332.222695 304.361354 
L 332.483296 303.872 
L 332.991467 303.947815 
L 333.499639 304.009846 
L 333.994781 304.237292 
L 334.502953 304.719754 
L 335.011125 304.830031 
L 335.271726 305.767385 
L 335.519296 306.2016 
L 335.779897 305.967262 
L 336.53564 304.058092 
L 337.043812 303.368862 
L 337.799554 302.913969 
L 338.060155 306.029292 
L 338.307726 302.286769 
L 339.32407 301.356308 
L 340.848585 300.873846 
L 341.864929 300.756677 
L 342.1125 302.576246 
L 342.373101 302.445292 
L 342.620672 301.762954 
L 343.389444 300.963446 
L 344.145187 300.791138 
L 344.653359 301.156431 
L 344.90093 300.818708 
L 345.161531 304.519877 
L 345.409101 300.880738 
L 345.669702 300.407237 
L 347.70239 299.809674 
L 347.94996 299.835865 
L 348.210561 300.425157 
L 348.458132 300.066757 
L 349.982648 300.325908 
L 350.230218 300.585748 
L 350.490819 300.582302 
L 350.73839 300.415508 
L 351.507163 301.011692 
L 351.754734 301.445908 
L 352.015335 301.652677 
L 352.510477 301.563077 
L 352.771078 301.445908 
L 353.018648 300.798031 
L 353.279249 300.763569 
L 353.52682 300.387938 
L 353.787421 299.518129 
L 354.034992 303.272369 
L 354.295593 301.583754 
L 354.543164 300.9152 
L 354.803765 301.135754 
L 355.311937 300.560246 
L 355.559507 301.246031 
L 355.807078 300.426535 
L 356.31525 300.639508 
L 356.575851 300.504418 
L 356.823422 300.168763 
L 357.084023 300.143951 
L 357.331594 299.254843 
L 357.839765 299.092185 
L 358.100366 299.174203 
L 358.608538 300.090191 
L 358.856109 300.160492 
L 359.11671 300.112246 
L 360.120024 300.694646 
L 360.380624 301.115077 
L 360.888796 300.565071 
L 361.396968 300.618831 
L 362.660883 300.984123 
L 363.169054 301.246031 
L 363.677226 301.756062 
L 364.432969 301.432123 
L 364.941141 301.239138 
L 365.449312 301.197785 
L 368.237742 301.673354 
L 368.498343 301.7216 
L 368.745914 302.086892 
L 369.006515 301.914585 
L 369.254086 301.983508 
L 369.514687 304.768 
L 369.762258 305.519262 
L 370.022859 306.835692 
L 370.27043 306.497969 
L 370.518 304.788677 
L 371.026172 303.106954 
L 371.286773 303.086277 
L 371.534344 303.217231 
L 371.794945 303.541169 
L 372.042516 304.540554 
L 372.303117 311.267446 
L 372.550688 303.658338 
L 372.811289 304.264862 
L 373.058859 306.215385 
L 373.567031 306.9184 
L 373.827632 307.972923 
L 374.075203 308.110769 
L 374.322774 307.711015 
L 374.583375 307.841969 
L 374.830946 306.746092 
L 375.091547 306.642708 
L 375.339117 307.008 
L 375.599718 308.179692 
L 375.847289 311.798154 
L 376.10789 311.612062 
L 376.355461 311.226092 
L 376.616062 309.3376 
L 376.863633 310.716062 
L 377.124234 305.491692 
L 377.879976 303.210338 
L 378.635719 301.928369 
L 378.89632 301.728492 
L 379.143891 301.714708 
L 379.652063 301.073723 
L 380.160235 301.246031 
L 380.420835 300.977231 
L 380.929007 300.894523 
L 381.176578 300.694646 
L 382.440493 300.414818 
L 383.209265 300.073649 
L 383.717437 300.012997 
L 384.225609 300.152911 
L 384.47318 300.611938 
L 384.981352 300.997908 
L 385.228922 302.383262 
L 385.489523 302.7072 
L 385.737094 304.774892 
L 385.997695 302.562462 
L 386.245266 302.500431 
L 386.505867 302.569354 
L 386.753438 302.831262 
L 387.014039 302.672738 
L 387.522211 302.700308 
L 387.769782 303.051815 
L 388.277953 301.625108 
L 388.538554 301.742277 
L 389.033696 302.596923 
L 389.294297 304.044308 
L 389.541868 306.587569 
L 389.802469 304.202831 
L 390.05004 303.934031 
L 390.310641 303.348185 
L 390.558211 303.940923 
L 390.818812 308.655262 
L 391.066383 303.251692 
L 391.326984 302.176492 
L 391.574555 305.781169 
L 391.835156 300.470646 
L 392.082727 300.088812 
L 392.838469 300.586437 
L 393.346641 301.170215 
L 393.607242 301.535508 
L 394.115414 302.603815 
L 394.623586 303.237908 
L 394.871157 303.947815 
L 395.131758 303.747938 
L 395.379328 303.851323 
L 396.135071 304.705969 
L 396.643243 305.381415 
L 396.903844 305.388308 
L 397.412016 305.7536 
L 397.659587 306.091323 
L 397.920187 306.677169 
L 398.167758 308.048738 
L 398.428359 308.855138 
L 398.67593 309.096369 
L 398.936531 310.123323 
L 399.184102 313.583262 
L 399.444703 313.238646 
L 399.692274 309.723569 
L 400.448016 306.883938 
L 400.708617 302.920862 
L 400.956188 303.568738 
L 401.216789 304.892062 
L 401.46436 306.821908 
L 401.972532 313.762462 
L 402.480704 314.300062 
L 402.741305 314.003692 
L 403.249476 314.258708 
L 403.497047 313.176615 
L 403.744618 313.045662 
L 404.25279 311.873969 
L 404.513391 315.554462 
L 404.760962 314.224246 
L 405.021563 317.546338 
L 405.529734 317.966769 
L 406.037906 325.817108 
L 406.285477 327.622892 
L 406.546078 318.352738 
L 406.793649 318.097723 
L 407.04122 317.463631 
L 407.301821 317.518769 
L 407.809993 309.213538 
L 408.057563 307.180308 
L 408.826336 298.274068 
L 409.073907 297.601378 
L 409.582079 297.648935 
L 411.354165 298.086597 
L 411.862337 298.257526 
L 412.122938 298.465674 
L 413.139281 298.613169 
L 414.403196 299.05152 
L 415.158939 299.546388 
L 415.927711 299.792443 
L 416.435883 300.409994 
L 416.683454 300.357612 
L 416.944055 300.489945 
L 417.191626 301.011692 
L 417.452227 299.522265 
L 417.699798 299.118375 
L 420.748828 299.055655 
L 422.012743 299.154215 
L 422.520915 299.380972 
L 422.768486 299.784862 
L 423.029086 300.722215 
L 423.276657 300.625723 
L 423.537258 300.168074 
L 425.556915 299.686991 
L 427.081431 299.901342 
L 427.850204 300.023335 
L 428.097774 297.853637 
L 428.605946 297.14304 
L 428.866547 297.136837 
L 429.62229 297.533834 
L 430.130462 298.803397 
L 430.378032 300.321772 
L 430.886204 301.666462 
L 431.394376 302.693415 
L 431.654977 304.712862 
L 431.902548 305.622646 
L 432.41072 303.217231 
L 432.918891 302.534892 
L 433.427063 302.066215 
L 433.674634 302.755446 
L 433.935235 302.4384 
L 434.690978 302.410831 
L 434.951579 303.823754 
L 435.45975 301.652677 
L 435.707321 301.728492 
L 436.215493 300.942769 
L 436.463064 300.667077 
L 436.971236 300.625723 
L 437.231837 300.984123 
L 437.479408 299.686991 
L 437.740009 297.324997 
L 439.772696 297.13408 
L 441.544782 297.066535 
L 443.069297 296.989342 
L 446.105298 296.928 
L 449.4019 296.84736 
L 449.910072 296.788775 
L 453.975446 296.841846 
L 454.223017 296.91008 
L 455.486931 296.713649 
L 455.995103 296.794978 
L 458.02779 296.6592 
L 458.275361 296.639212 
L 458.535962 297.283643 
L 459.291705 296.780505 
L 460.81622 295.984443 
L 461.076821 299.383729 
L 461.324392 293.705846 
L 461.584993 293.705846 
L 461.832564 294.253716 
L 462.080135 293.885666 
L 474.7714 294.958868 
L 477.051658 295.323471 
L 479.084345 295.916209 
L 479.592517 296.150548 
L 480.100689 297.001748 
L 480.59583 298.070055 
L 481.104002 298.591803 
L 481.872775 298.715175 
L 482.380947 298.624197 
L 483.136689 298.308529 
L 484.153033 298.320246 
L 484.661205 298.130708 
L 484.908776 298.143114 
L 485.169377 298.393305 
L 485.925119 298.166548 
L 486.18572 297.947372 
L 486.433291 297.520738 
L 488.465978 296.843914 
L 490.746236 296.586831 
L 492.270752 296.235323 
L 492.518323 296.563397 
L 492.778924 296.090585 
L 493.534666 295.84384 
L 493.795267 297.316726 
L 494.303439 297.649625 
L 495.059182 300.673969 
L 495.306753 300.532677 
L 495.567353 300.853169 
L 496.075525 300.729108 
L 496.583697 300.3776 
L 497.091869 300.561625 
L 497.33944 300.935877 
L 497.600041 300.680862 
L 498.603354 300.625723 
L 499.619698 300.598154 
L 500.388471 300.563003 
L 501.144213 300.529231 
L 503.1769 300.39552 
L 504.440815 300.25216 
L 506.212901 300.250782 
L 506.721073 300.241822 
L 507.489846 300.132923 
L 507.737417 300.104665 
L 507.998017 299.873772 
L 508.75376 299.851717 
L 509.261932 299.891003 
L 510.525846 299.836554 
L 511.034018 300.035052 
L 511.54219 300.355545 
L 512.050362 300.873846 
L 512.819135 302.948431 
L 513.066705 304.120123 
L 513.314276 304.382031 
L 513.574877 304.285538 
L 513.822448 304.044308 
L 514.33062 304.133908 
L 514.838792 304.354462 
L 515.607564 307.242338 
L 515.855135 307.242338 
L 516.115736 306.477292 
L 516.623908 303.789292 
L 516.871479 301.859446 
L 517.11905 300.818708 
L 517.379651 300.784246 
L 517.627222 299.616689 
L 518.135393 298.480148 
L 518.395994 304.147692 
L 518.643565 298.012849 
L 518.904166 297.014843 
L 519.151737 296.643348 
L 520.168081 296.400738 
L 520.428682 296.577182 
L 520.676252 295.837637 
L 521.692596 295.495089 
L 523.972854 295.011938 
L 526.761284 294.625969 
L 531.582401 294.198922 
L 531.829972 294.179141 
L 532.090573 294.473649 
L 533.615088 293.91489 
L 537.928034 293.705846 
L 548.573581 293.705846 
L 548.834182 294.284593 
L 549.081753 294.170732 
L 549.342354 294.324982 
L 549.589925 293.93853 
L 561.759988 294.590129 
L 564.053276 294.812062 
L 564.300847 295.242831 
L 564.548418 295.036062 
L 573.68248 296.972111 
L 573.943081 297.504886 
L 574.190652 297.176812 
L 575.962738 297.545551 
L 576.47091 297.554511 
L 578.503597 297.953575 
L 581.552628 298.706905 
L 583.324714 299.416812 
L 584.341058 299.703532 
L 585.357402 300.228726 
L 586.360715 300.928985 
L 586.868887 301.425231 
L 587.63766 302.562462 
L 588.145831 303.430892 
L 588.654003 304.650831 
L 588.901574 304.761108 
L 589.162175 304.313108 
L 589.917918 302.066215 
L 590.42609 301.583754 
L 590.67366 301.053046 
L 590.934261 301.142646 
L 591.181832 302.431508 
L 591.442433 302.783015 
L 592.198176 305.291815 
L 592.458777 305.774277 
L 592.706348 305.5744 
L 592.966949 306.194708 
L 593.214519 305.960369 
L 593.970262 301.9008 
L 594.739035 298.57664 
L 595.247207 297.826068 
L 595.494777 297.758523 
L 595.755378 297.161649 
L 596.26355 296.770166 
L 596.771722 300.223902 
L 597.019293 295.974794 
L 597.527465 295.32416 
L 597.775036 294.162393 
L 598.035636 293.757056 
L 600.576495 293.705846 
L 622.636364 293.705846 
L 622.636364 293.705846 
" clip-path="url(#p3f99d82139)" style="fill: none; stroke: #006400; stroke-width: 2; stroke-linecap: square"/>
   </g>
   <g id="line2d_18">
    <path d="M 115.363636 293.705846 
L 148.590254 293.596052 
L 157.476746 293.533676 
L 158.988231 293.603358 
L 162.284833 293.541258 
L 163.809348 293.300303 
L 164.069949 293.180928 
L 164.31752 291.584738 
L 164.578121 292.24509 
L 165.086293 292.789445 
L 165.333863 292.869809 
L 165.581434 292.734858 
L 165.842035 292.97023 
L 166.089606 293.02399 
L 166.350207 292.953895 
L 166.858379 293.086572 
L 167.10595 293.02723 
L 167.366551 293.125927 
L 168.122293 293.063759 
L 168.630465 293.448212 
L 169.646809 293.688684 
L 171.418895 293.705846 
L 217.076177 293.705846 
L 217.323748 286.753231 
L 217.584349 273.687828 
L 217.831919 254.651481 
L 218.09252 166.316012 
L 218.340091 192.151207 
L 218.600692 159.937182 
L 218.848263 95.542833 
L 219.108864 121.643175 
L 219.356435 134.45315 
L 219.617036 138.372667 
L 219.864607 206.10496 
L 220.125208 223.904069 
L 220.372778 203.739038 
L 220.620349 142.435889 
L 220.88095 118.800374 
L 221.389122 251.077888 
L 221.897294 269.169782 
L 222.144865 270.487109 
L 222.405466 271.017058 
L 222.653036 282.547131 
L 223.161208 293.464133 
L 223.421809 293.705846 
L 299.504249 293.705502 
L 299.76485 293.444421 
L 300.273021 293.413199 
L 301.536936 293.17955 
L 302.55328 292.994698 
L 303.569623 292.743542 
L 305.081109 292.477844 
L 305.58928 292.319114 
L 307.374397 292.284583 
L 309.654655 292.605007 
L 309.902226 292.526228 
L 310.410397 292.820116 
L 310.918569 293.018959 
L 313.706999 293.095946 
L 320.560803 293.131786 
L 323.349233 292.954929 
L 323.596804 292.851476 
L 323.857405 293.039291 
L 326.398264 293.178309 
L 332.222695 293.276731 
L 333.994781 293.151291 
L 334.502953 293.129856 
L 338.060155 293.387628 
L 341.356757 293.390661 
L 341.604328 293.306988 
L 342.1125 293.424226 
L 346.686046 293.418782 
L 350.73839 293.356958 
L 351.246562 293.391488 
L 351.507163 293.19678 
L 351.754734 293.315604 
L 353.018648 293.377083 
L 354.543164 293.423262 
L 364.185398 293.364608 
L 367.482 293.379151 
L 368.498343 293.328079 
L 369.006515 293.328217 
L 370.022859 293.283003 
L 371.534344 293.439114 
L 373.567031 293.389627 
L 376.616062 293.456896 
L 380.420835 293.372396 
L 383.717437 293.185201 
L 384.225609 293.135646 
L 384.981352 293.07327 
L 385.228922 292.345511 
L 385.489523 292.44159 
L 385.737094 293.172037 
L 386.505867 293.009034 
L 386.753438 292.842791 
L 387.014039 291.368734 
L 387.26161 291.595422 
L 387.522211 292.09987 
L 388.030382 292.616793 
L 388.277953 292.515338 
L 388.786125 292.126198 
L 389.294297 292.134745 
L 389.802469 292.895449 
L 391.066383 293.27873 
L 391.326984 293.305127 
L 392.082727 292.623478 
L 392.838469 292.88125 
L 393.346641 292.999936 
L 393.854813 293.036121 
L 394.362985 292.617551 
L 394.623586 293.19554 
L 395.639929 293.27811 
L 396.903844 293.300923 
L 397.412016 293.391557 
L 399.692274 293.491771 
L 413.895024 293.126272 
L 417.191626 292.925706 
L 418.963712 292.703222 
L 419.732485 292.89538 
L 420.488227 292.99773 
L 422.012743 292.971195 
L 424.293001 292.759601 
L 425.061774 292.468953 
L 426.573259 291.661932 
L 427.850204 291.215173 
L 429.361689 291.620578 
L 430.378032 291.675786 
L 431.146805 291.593974 
L 431.654977 291.540076 
L 433.674634 291.872906 
L 433.935235 290.96195 
L 434.182806 290.546137 
L 434.690978 291.785236 
L 434.951579 292.249157 
L 435.19915 292.308431 
L 435.45975 291.5123 
L 435.707321 291.734715 
L 435.967922 293.486188 
L 437.987579 293.696404 
L 461.584993 293.705846 
L 461.832564 293.475298 
L 462.080135 293.632788 
L 476.543486 293.064724 
L 479.331916 292.702395 
L 479.840088 292.543045 
L 480.856431 291.554481 
L 481.364603 291.423252 
L 482.380947 291.452268 
L 483.39729 291.599212 
L 483.892432 291.544074 
L 484.908776 291.689846 
L 485.416947 291.629952 
L 486.18572 291.688812 
L 486.433291 291.998553 
L 488.713549 292.320561 
L 490.746236 292.466265 
L 492.010151 292.597425 
L 492.270752 292.462818 
L 492.518323 292.654287 
L 493.287095 292.758154 
L 493.534666 292.271557 
L 493.795267 292.277967 
L 494.303439 291.768901 
L 494.55101 291.224753 
L 495.306753 290.469563 
L 495.567353 290.655311 
L 496.323096 290.655242 
L 496.583697 290.758764 
L 497.33944 290.644972 
L 501.404814 290.667579 
L 501.912986 290.645386 
L 504.440815 290.736778 
L 510.786447 290.677573 
L 511.54219 290.433241 
L 512.050362 290.115298 
L 513.066705 288.663985 
L 513.314276 288.590789 
L 513.822448 288.718848 
L 514.838792 288.574041 
L 515.607564 287.160704 
L 515.855135 287.195028 
L 516.363307 288.123353 
L 516.871479 289.894607 
L 517.887823 291.273551 
L 518.135393 290.919975 
L 518.395994 291.867943 
L 518.904166 292.116618 
L 519.92051 292.293543 
L 520.428682 292.274796 
L 520.676252 292.58688 
L 522.200768 292.832246 
L 525.74494 293.159493 
L 531.829972 293.456965 
L 532.090573 293.31581 
L 533.862659 293.598395 
L 539.70012 293.705846 
L 548.573581 293.705846 
L 548.834182 293.458757 
L 550.606268 293.612111 
L 570.385879 293.21022 
L 572.926738 293.118001 
L 573.174308 292.9907 
L 573.68248 293.068928 
L 582.0608 292.914885 
L 584.080457 292.891451 
L 586.360715 292.720246 
L 586.868887 292.672207 
L 588.654003 292.921846 
L 589.409746 293.003727 
L 590.42609 292.957962 
L 591.442433 292.615414 
L 591.690004 292.434009 
L 592.198176 292.44669 
L 593.722691 293.234619 
L 594.739035 293.403136 
L 595.247207 293.407754 
L 595.494777 293.288241 
L 595.755378 293.327527 
L 596.26355 293.653671 
L 597.527465 293.69537 
L 607.925442 293.705846 
L 622.636364 293.705846 
L 622.636364 293.705846 
" clip-path="url(#p3f99d82139)" style="fill: none; stroke: #800080; stroke-width: 2; stroke-linecap: square"/>
   </g>
   <g id="line2d_19">
    <path d="M 115.363636 293.705846 
L 149.606598 293.815158 
L 158.988231 293.854513 
L 162.037262 293.780903 
L 163.053605 293.764844 
L 163.561777 293.889113 
L 165.086293 294.153019 
L 165.333863 295.251377 
L 165.581434 295.466555 
L 165.842035 294.9568 
L 166.597778 294.518656 
L 166.858379 294.614046 
L 167.10595 294.417201 
L 167.366551 294.377639 
L 167.614121 294.4691 
L 168.122293 294.347658 
L 168.382894 294.420923 
L 168.891066 294.288453 
L 169.138637 294.290796 
L 169.386208 294.585374 
L 169.89438 294.04481 
L 170.910723 293.759055 
L 171.927067 293.705846 
L 217.076177 293.705846 
L 217.584349 326.541214 
L 217.831919 382.377728 
L 218.09252 385.202265 
L 218.340091 429.631803 
L 219.108864 486.741602 
L 219.356435 396.754048 
L 219.617036 406.251924 
L 219.864607 364.921098 
L 220.125208 358.797834 
L 220.620349 457.107161 
L 220.88095 441.252854 
L 221.128521 345.81507 
L 221.389122 328.589883 
L 221.636693 319.838651 
L 221.897294 316.764062 
L 222.144865 315.428332 
L 222.405466 310.313689 
L 222.913637 295.876372 
L 223.161208 293.705846 
L 301.276335 293.706949 
L 301.536936 293.972716 
L 302.045108 294.005248 
L 303.309022 294.260539 
L 304.325366 294.453662 
L 305.849881 294.81089 
L 306.358053 294.885809 
L 307.374397 295.10974 
L 309.394054 295.325607 
L 310.918569 294.871266 
L 313.459428 294.672837 
L 313.706999 294.863616 
L 313.9676 294.473167 
L 315.739686 294.232832 
L 317.003601 294.221873 
L 320.808374 294.24255 
L 321.316546 294.331047 
L 324.365577 294.347382 
L 325.12132 294.662361 
L 326.137663 294.399212 
L 326.398264 294.521482 
L 326.893406 294.3693 
L 330.698179 294.1779 
L 335.271726 294.256059 
L 335.779897 294.296655 
L 337.799554 294.104842 
L 338.060155 294.202506 
L 338.568327 294.073826 
L 341.864929 294.033644 
L 342.373101 294.11139 
L 343.637015 294.051909 
L 344.90093 294.052391 
L 345.161531 294.265433 
L 345.409101 294.05763 
L 346.686046 294.011106 
L 351.754734 294.135237 
L 353.018648 294.106289 
L 353.787421 294.027441 
L 354.034992 294.231454 
L 354.543164 294.099397 
L 356.575851 294.068106 
L 358.347937 293.994565 
L 360.380624 294.053701 
L 362.413312 294.029578 
L 374.830946 294.023168 
L 375.599718 294.036953 
L 376.10789 294.096295 
L 380.160235 293.838868 
L 383.965008 293.838454 
L 384.981352 293.902415 
L 385.228922 294.081615 
L 385.737094 294.07617 
L 387.522211 294.280044 
L 387.769782 294.403968 
L 388.277953 293.933361 
L 390.310641 293.983882 
L 390.558211 294.303478 
L 390.818812 294.457177 
L 391.066383 294.345866 
L 393.607242 294.598469 
L 394.362985 294.852175 
L 397.920187 295.063493 
L 398.167758 295.231114 
L 398.67593 295.283495 
L 398.936531 295.427545 
L 399.184102 295.896015 
L 399.444703 295.701238 
L 399.692274 294.974031 
L 400.200446 294.549327 
L 400.448016 294.431813 
L 400.708617 294.049083 
L 401.216789 294.17087 
L 401.724961 294.518932 
L 401.972532 294.743897 
L 402.741305 294.621351 
L 404.25279 294.231936 
L 405.777305 294.381775 
L 406.285477 294.468204 
L 406.546078 294.18114 
L 409.84268 294.023719 
L 418.45554 294.312507 
L 421.752142 294.54209 
L 422.768486 294.762713 
L 423.276657 295.026274 
L 424.553602 294.984714 
L 426.065087 294.999257 
L 427.850204 295.044815 
L 428.097774 294.681866 
L 428.605946 294.509834 
L 429.62229 294.62914 
L 430.130462 294.96769 
L 430.378032 295.369787 
L 430.886204 295.57635 
L 431.394376 295.725568 
L 431.902548 296.438853 
L 432.41072 296.053297 
L 433.427063 295.858383 
L 433.674634 296.033172 
L 434.182806 295.939367 
L 434.690978 295.902562 
L 434.951579 296.462907 
L 435.45975 295.570422 
L 436.463064 295.052879 
L 436.971236 295.026137 
L 437.231837 295.170599 
L 437.479408 294.699166 
L 437.740009 293.764569 
L 443.316868 293.712049 
L 461.584993 293.705846 
L 461.832564 293.94046 
L 462.080135 293.782626 
L 476.543486 294.342971 
L 479.331916 294.709642 
L 479.840088 294.926956 
L 480.856431 295.853282 
L 481.364603 295.969831 
L 482.380947 295.942882 
L 483.39729 295.797662 
L 484.153033 295.7856 
L 484.661205 295.6909 
L 486.18572 295.597578 
L 486.433291 295.396667 
L 488.713549 295.071143 
L 491.254408 294.901937 
L 492.270752 294.802137 
L 492.518323 294.937984 
L 492.778924 294.741346 
L 493.534666 294.636721 
L 493.795267 295.219604 
L 494.303439 295.391429 
L 495.059182 296.802629 
L 495.306753 296.707722 
L 495.567353 296.858388 
L 496.323096 296.705516 
L 496.831268 296.6765 
L 497.600041 296.794358 
L 499.619698 296.775749 
L 502.160557 296.766444 
L 505.209588 296.696901 
L 507.737417 296.709721 
L 508.245588 296.608679 
L 511.034018 296.786156 
L 511.802791 297.057438 
L 512.050362 297.197558 
L 512.819135 298.152281 
L 513.066705 298.679404 
L 513.314276 298.807946 
L 514.33062 298.713866 
L 514.838792 298.81918 
L 515.607564 300.276007 
L 515.855135 300.320394 
L 516.115736 299.963717 
L 516.623908 298.63171 
L 516.871479 297.654725 
L 517.11905 297.149657 
L 517.379651 297.092588 
L 517.887823 296.262686 
L 518.135393 296.049989 
L 518.395994 298.340578 
L 518.643565 295.808138 
L 518.904166 295.386949 
L 519.412338 295.176596 
L 520.428682 295.153162 
L 520.676252 294.820332 
L 522.200768 294.577378 
L 525.497369 294.268327 
L 531.33483 293.974922 
L 531.829972 293.954727 
L 532.090573 294.09278 
L 533.862659 293.811781 
L 539.70012 293.705846 
L 548.573581 293.705846 
L 548.834182 293.914201 
L 549.837496 293.78497 
L 565.564761 294.084165 
L 568.861363 294.170457 
L 577.239683 294.417132 
L 587.129488 294.612805 
L 589.162175 294.719015 
L 590.165489 294.46083 
L 591.181832 294.381361 
L 591.950605 294.586821 
L 593.214519 294.963348 
L 593.970262 294.474614 
L 594.986606 294.076239 
L 596.26355 293.952798 
L 596.511121 294.119867 
L 596.771722 294.158188 
L 597.019293 293.914476 
L 600.068324 293.705846 
L 622.636364 293.705846 
L 622.636364 293.705846 
" clip-path="url(#p3f99d82139)" style="fill: none; stroke: #800080; stroke-width: 2; stroke-linecap: square"/>
   </g>
   <g id="line2d_20">
    <path d="M 115.363636 293.705846 
L 139.469222 293.601359 
L 148.850855 293.118966 
L 149.098426 292.989598 
L 151.639285 293.074718 
L 157.476746 293.234619 
L 158.232488 293.393831 
L 161.52909 293.597223 
L 161.789691 293.606114 
L 162.284833 293.356199 
L 163.053605 293.017098 
L 163.561777 292.710873 
L 163.809348 292.473088 
L 164.069949 292.066993 
L 164.31752 289.040788 
L 164.578121 289.477415 
L 165.086293 290.951749 
L 165.333863 291.190361 
L 165.581434 290.58046 
L 165.842035 291.345575 
L 166.089606 291.465295 
L 166.350207 291.143769 
L 166.858379 291.401058 
L 167.10595 291.107653 
L 167.366551 291.333445 
L 167.614121 291.014814 
L 167.874722 290.485829 
L 168.122293 290.552615 
L 168.382894 291.535734 
L 169.138637 292.566548 
L 169.646809 293.209669 
L 169.89438 293.664286 
L 170.663152 293.705846 
L 218.09252 293.604391 
L 218.600692 293.502041 
L 218.848263 293.427535 
L 219.356435 293.480054 
L 220.88095 293.351444 
L 221.897294 293.577925 
L 222.653036 293.651604 
L 223.929981 293.705846 
L 299.504249 293.600601 
L 299.76485 293.382252 
L 300.520592 293.251298 
L 303.309022 292.344064 
L 304.077795 292.047695 
L 304.325366 292.120753 
L 304.572937 291.798331 
L 306.097452 290.99779 
L 306.605624 290.197386 
L 307.882568 290.060711 
L 308.130139 290.143764 
L 308.638311 289.959326 
L 309.654655 288.704098 
L 309.902226 287.10398 
L 310.162827 287.011623 
L 310.410397 287.518828 
L 310.670998 290.27072 
L 311.426741 290.97987 
L 313.198827 291.325036 
L 313.9676 291.171131 
L 314.983944 290.900677 
L 315.231514 286.262705 
L 315.492115 284.482284 
L 316.247858 288.051604 
L 317.264202 287.599537 
L 317.511773 287.812578 
L 318.019944 287.934021 
L 318.280545 288.756962 
L 318.528116 288.937058 
L 318.788717 288.771161 
L 320.560803 289.326956 
L 321.068975 289.221504 
L 321.824718 289.46432 
L 322.085319 289.070287 
L 322.33289 289.506018 
L 323.088632 289.612298 
L 323.596804 288.204682 
L 323.857405 289.420002 
L 324.365577 289.581627 
L 324.873749 289.907909 
L 325.629491 290.09538 
L 327.401578 290.404844 
L 327.909749 290.440133 
L 329.434265 290.561989 
L 330.190007 290.745945 
L 330.698179 290.926661 
L 333.74721 290.686946 
L 333.994781 290.383616 
L 334.255382 290.334474 
L 335.519296 290.96574 
L 335.779897 290.960571 
L 336.027468 290.673231 
L 336.53564 291.1539 
L 337.304413 291.380175 
L 339.076499 291.45089 
L 339.32407 290.823483 
L 339.832242 291.324002 
L 340.340413 291.337994 
L 340.601014 291.368389 
L 340.848585 291.210762 
L 341.356757 291.329447 
L 341.604328 290.742981 
L 341.864929 291.511198 
L 344.145187 291.779239 
L 347.194218 291.711419 
L 347.441789 291.512438 
L 347.94996 291.491279 
L 348.705703 291.31263 
L 351.246562 291.86498 
L 351.507163 291.274654 
L 351.754734 291.661174 
L 352.510477 291.659106 
L 352.771078 291.661243 
L 353.279249 292.004894 
L 353.787421 292.116962 
L 354.034992 292.035909 
L 354.543164 292.033014 
L 355.051336 291.897167 
L 355.559507 291.618649 
L 356.31525 291.627953 
L 359.11671 291.218964 
L 359.364281 291.090284 
L 359.611852 291.104069 
L 359.872453 291.245223 
L 360.380624 291.2435 
L 362.413312 291.292711 
L 364.185398 291.133775 
L 364.432969 291.058718 
L 364.69357 291.167616 
L 365.201742 291.191532 
L 366.218085 291.376866 
L 366.465656 291.33379 
L 366.973828 291.502169 
L 367.990171 291.641669 
L 368.237742 291.412706 
L 368.498343 289.302144 
L 368.745914 291.46495 
L 369.006515 288.864414 
L 369.254086 290.343641 
L 369.762258 290.56957 
L 370.27043 291.495414 
L 370.518 291.883865 
L 371.534344 292.416089 
L 373.31946 292.021918 
L 374.322774 292.190917 
L 374.583375 292.448 
L 375.339117 292.56579 
L 376.10789 292.486735 
L 376.355461 292.474466 
L 376.616062 292.316012 
L 376.863633 292.344202 
L 377.371805 292.183198 
L 378.127547 292.013509 
L 380.160235 291.117716 
L 380.668406 290.699353 
L 381.424149 290.374449 
L 382.440493 289.676948 
L 382.701094 289.780539 
L 383.456836 289.272369 
L 384.733781 288.449566 
L 384.981352 287.882466 
L 385.489523 287.736556 
L 385.737094 288.04547 
L 386.245266 287.514142 
L 386.753438 286.521305 
L 387.014039 281.581588 
L 387.522211 283.475732 
L 387.769782 282.381164 
L 388.030382 284.773829 
L 388.277953 284.355052 
L 388.538554 283.084662 
L 389.294297 280.907244 
L 390.05004 284.199906 
L 390.310641 283.125947 
L 390.558211 284.540938 
L 390.818812 284.594284 
L 391.066383 284.801674 
L 391.326984 284.845026 
L 391.835156 279.964446 
L 392.082727 275.82334 
L 392.343328 277.511266 
L 392.838469 278.325937 
L 393.09907 277.153073 
L 393.346641 278.485218 
L 393.854813 277.525534 
L 394.362985 267.715023 
L 394.623586 279.630306 
L 394.871157 280.217324 
L 395.131758 280.143163 
L 395.379328 280.742587 
L 395.639929 280.906831 
L 395.8875 280.717844 
L 396.135071 280.179279 
L 396.395672 280.473856 
L 396.643243 282.179151 
L 396.903844 280.836805 
L 397.151415 284.119473 
L 397.412016 284.74109 
L 397.920187 286.582164 
L 398.167758 287.166011 
L 399.184102 291.06816 
L 399.939845 291.097177 
L 400.956188 290.895439 
L 401.46436 290.573844 
L 402.233133 290.460603 
L 402.480704 290.365696 
L 402.741305 289.891919 
L 402.988875 289.96608 
L 403.249476 289.89695 
L 403.497047 289.228672 
L 403.744618 290.759522 
L 404.005219 291.094213 
L 411.354165 291.890757 
L 414.155625 291.853194 
L 416.944055 291.691914 
L 418.963712 291.157209 
L 419.471884 291.476667 
L 419.980056 292.030257 
L 420.488227 292.160866 
L 422.520915 292.110622 
L 422.768486 291.747948 
L 423.029086 292.003308 
L 424.801173 291.87518 
L 426.325688 291.338132 
L 427.850204 290.919148 
L 428.358375 291.068505 
L 428.866547 291.350331 
L 430.378032 291.50589 
L 431.902548 291.671375 
L 433.427063 291.782341 
L 433.674634 291.724583 
L 433.935235 291.420012 
L 434.443407 291.65118 
L 434.951579 291.575365 
L 435.707321 291.476254 
L 435.967922 291.689019 
L 436.723665 291.677509 
L 437.479408 291.831414 
L 441.544782 291.940864 
L 444.841384 291.966572 
L 445.857727 291.949204 
L 447.877384 292.03584 
L 448.137985 291.801295 
L 448.385556 291.728305 
L 449.662501 292.135434 
L 450.678844 292.442142 
L 450.926415 290.448817 
L 451.173986 293.705846 
L 562.020589 293.595776 
L 565.05659 293.420367 
L 571.402222 293.151705 
L 579.25934 292.703291 
L 583.572285 292.182233 
L 584.84923 291.840098 
L 585.865573 291.338614 
L 586.868887 290.634151 
L 587.885231 291.459161 
L 588.393402 291.558961 
L 588.654003 291.187328 
L 590.165489 291.353502 
L 590.42609 291.601211 
L 591.181832 291.551586 
L 591.442433 291.464123 
L 591.690004 291.242053 
L 592.198176 291.436347 
L 593.214519 292.469573 
L 594.230863 292.874634 
L 595.247207 292.980638 
L 595.494777 292.73665 
L 595.755378 292.659111 
L 596.002949 293.314294 
L 596.26355 293.639335 
L 597.019293 293.695921 
L 611.730215 293.705846 
L 622.636364 293.705846 
L 622.636364 293.705846 
" clip-path="url(#p3f99d82139)" style="fill: none; stroke: #6495ed; stroke-width: 2; stroke-linecap: square"/>
   </g>
   <g id="line2d_21">
    <path d="M 115.363636 293.705846 
L 140.472535 293.807852 
L 149.867199 294.271842 
L 150.114769 294.398316 
L 153.671972 294.308647 
L 158.988231 294.079478 
L 160.265175 293.942183 
L 163.053605 293.800615 
L 163.301176 294.056458 
L 163.809348 294.202713 
L 164.578121 294.579722 
L 165.086293 295.024965 
L 165.333863 296.980244 
L 165.581434 297.847227 
L 166.350207 296.022558 
L 166.597778 296.018491 
L 166.858379 296.427412 
L 167.10595 295.820682 
L 167.366551 295.752448 
L 167.614121 296.116155 
L 167.874722 295.898703 
L 168.122293 295.883402 
L 168.382894 296.165297 
L 168.630465 295.924342 
L 168.891066 295.96797 
L 169.138637 296.124081 
L 169.386208 297.284539 
L 169.646809 296.073698 
L 170.15498 295.261509 
L 171.418895 293.745959 
L 172.187668 293.705846 
L 218.09252 293.778215 
L 218.600692 293.920817 
L 220.125208 293.921506 
L 220.620349 294.030129 
L 220.88095 294.03709 
L 221.389122 293.858097 
L 224.177552 293.705846 
L 300.273021 293.804475 
L 301.276335 293.867678 
L 301.536936 294.040468 
L 302.292679 294.146816 
L 304.833538 294.83005 
L 307.113796 295.619358 
L 307.621968 295.6288 
L 308.638311 296.02304 
L 309.394054 296.715166 
L 309.902226 296.356214 
L 310.918569 296.283087 
L 312.690655 296.763825 
L 313.198827 297.11747 
L 313.459428 297.100997 
L 313.706999 298.023532 
L 313.9676 296.770718 
L 314.723343 296.827028 
L 314.983944 296.064049 
L 315.231514 295.849974 
L 317.772373 295.51935 
L 319.54446 295.547953 
L 320.808374 295.754378 
L 321.068975 296.867692 
L 321.316546 297.240704 
L 321.577147 303.703001 
L 321.824718 301.720153 
L 322.085319 302.846356 
L 322.33289 300.45955 
L 322.841061 300.806233 
L 323.088632 300.712359 
L 323.349233 300.482501 
L 323.596804 299.285307 
L 323.857405 298.969226 
L 324.104976 298.950961 
L 324.365577 299.246848 
L 325.12132 301.456039 
L 325.890092 298.967985 
L 326.137663 298.865979 
L 326.398264 299.512615 
L 326.645835 298.363392 
L 327.154007 297.82083 
L 328.417921 297.250491 
L 329.694866 296.979968 
L 330.698179 296.762791 
L 331.466952 296.642796 
L 332.222695 296.557952 
L 332.483296 296.413558 
L 334.502953 296.507225 
L 335.011125 296.502193 
L 335.519296 296.735498 
L 336.027468 296.538929 
L 336.796241 296.209822 
L 337.799554 296.034137 
L 338.060155 296.669194 
L 338.307726 295.876096 
L 339.832242 295.591995 
L 341.356757 295.495847 
L 341.864929 295.47331 
L 342.1125 295.925996 
L 342.373101 295.886641 
L 342.881272 295.643756 
L 343.389444 295.49185 
L 344.405788 295.446085 
L 344.653359 295.52066 
L 344.90093 295.421204 
L 345.161531 296.149927 
L 345.409101 295.419412 
L 345.917273 295.302105 
L 347.70239 295.166464 
L 351.246562 295.284805 
L 352.510477 295.405765 
L 353.52682 295.189691 
L 353.787421 295.044746 
L 354.034992 295.632384 
L 354.543164 295.2531 
L 355.051336 295.247035 
L 355.311937 295.19107 
L 355.559507 295.305758 
L 355.807078 295.175286 
L 356.575851 295.170462 
L 357.839765 294.846937 
L 358.347937 294.937295 
L 358.856109 295.062183 
L 359.872453 295.135655 
L 360.628195 295.190174 
L 361.136367 295.126695 
L 364.69357 295.261302 
L 367.221399 295.218363 
L 369.254086 295.229253 
L 370.022859 295.776433 
L 370.27043 295.702272 
L 370.778601 295.181145 
L 371.026172 294.996017 
L 372.550688 294.918892 
L 372.811289 294.973617 
L 373.31946 295.265989 
L 374.075203 295.368409 
L 375.339117 295.05922 
L 375.599718 295.140342 
L 375.847289 295.43037 
L 376.863633 294.89794 
L 377.124234 294.505492 
L 378.635719 294.179141 
L 380.668406 294.034954 
L 380.929007 294.106358 
L 381.68475 294.042398 
L 383.965008 294.095468 
L 384.225609 294.137994 
L 384.47318 294.411825 
L 384.981352 294.620042 
L 385.228922 295.624871 
L 385.489523 295.73632 
L 385.737094 297.222784 
L 385.997695 295.639414 
L 386.245266 295.453184 
L 386.505867 295.406661 
L 386.753438 295.57373 
L 387.26161 295.701445 
L 388.538554 295.999399 
L 389.294297 296.263237 
L 389.541868 296.614882 
L 389.802469 296.635008 
L 390.558211 297.10465 
L 391.574555 297.332716 
L 392.343328 297.65569 
L 393.09907 298.076741 
L 394.623586 299.646395 
L 394.871157 300.1485 
L 395.131758 300.001969 
L 395.639929 300.235067 
L 396.643243 301.12893 
L 397.151415 301.293519 
L 397.659587 301.70499 
L 397.920187 302.141893 
L 398.428359 303.749799 
L 398.67593 303.994338 
L 398.936531 304.829548 
L 399.184102 307.478814 
L 399.444703 307.2717 
L 399.692274 304.649039 
L 400.448016 302.622218 
L 400.708617 299.923121 
L 400.956188 300.374292 
L 401.216789 301.278838 
L 401.46436 302.603815 
L 401.972532 307.350341 
L 402.480704 307.855685 
L 402.741305 307.715151 
L 403.249476 308.083338 
L 403.497047 307.333799 
L 403.744618 307.25185 
L 404.25279 306.53629 
L 404.513391 309.646238 
L 404.760962 308.513487 
L 405.021563 311.469253 
L 405.269134 311.253799 
L 405.529734 311.404534 
L 406.037906 317.361762 
L 406.285477 318.653174 
L 406.546078 311.157583 
L 406.793649 310.792842 
L 407.04122 310.200241 
L 407.301821 310.174671 
L 407.809993 304.353634 
L 408.057563 302.920655 
L 408.826336 296.859559 
L 409.073907 296.41411 
L 409.582079 296.417142 
L 414.650767 297.34595 
L 414.911368 297.530319 
L 415.927711 297.680916 
L 416.435883 298.152832 
L 416.683454 298.087217 
L 416.944055 298.177231 
L 417.191626 298.596214 
L 417.452227 297.328512 
L 417.699798 296.970457 
L 422.520915 296.397154 
L 422.768486 296.568222 
L 423.029086 297.034073 
L 423.784829 296.401083 
L 425.309345 296.057502 
L 426.83386 296.029726 
L 427.850204 296.069839 
L 428.097774 295.052258 
L 428.605946 294.796071 
L 429.361689 294.845489 
L 429.62229 294.878779 
L 430.130462 295.242073 
L 430.638633 296.108091 
L 431.394376 296.881408 
L 431.654977 297.862666 
L 431.902548 297.951921 
L 432.163149 297.161856 
L 432.658291 296.567808 
L 433.427063 296.222779 
L 433.674634 296.433822 
L 434.182806 296.341189 
L 435.45975 296.355456 
L 435.707321 296.623705 
L 435.967922 296.475451 
L 437.231837 296.565327 
L 437.987579 296.093342 
L 444.841384 295.842048 
L 449.4019 295.741007 
L 450.418243 295.692347 
L 453.975446 295.696345 
L 454.483618 295.705649 
L 455.747532 295.657954 
L 458.275361 295.538855 
L 458.535962 295.933095 
L 459.552306 295.537477 
L 460.81622 295.115047 
L 461.076821 297.208862 
L 461.324392 293.705846 
L 564.053276 293.75678 
L 564.300847 293.836455 
L 565.05659 293.810334 
L 576.47091 294.283904 
L 580.536284 294.565868 
L 584.588629 295.035166 
L 586.621316 295.443259 
L 587.63766 295.86114 
L 588.901574 296.529349 
L 589.162175 296.407906 
L 589.917918 295.751138 
L 590.934261 295.63073 
L 591.181832 296.086105 
L 591.442433 296.147102 
L 592.198176 296.692628 
L 592.458777 296.737359 
L 592.706348 296.539825 
L 592.966949 296.610402 
L 593.214519 296.498954 
L 593.970262 295.635003 
L 594.739035 294.86017 
L 595.755378 294.52989 
L 596.26355 294.418855 
L 596.771722 294.989194 
L 597.019293 294.234555 
L 597.527465 294.097881 
L 597.775036 293.809851 
L 598.283207 293.711222 
L 614.010473 293.705846 
L 622.636364 293.705846 
L 622.636364 293.705846 
" clip-path="url(#p3f99d82139)" style="fill: none; stroke: #6495ed; stroke-width: 2; stroke-linecap: square"/>
   </g>
   <g id="line2d_22">
    <path d="M 115.363636 293.705846 
L 138.192277 293.705846 
L 138.452878 293.437391 
L 138.96105 293.243028 
L 140.472535 292.777246 
L 146.062425 291.30946 
L 147.57391 290.673644 
L 148.850855 289.776679 
L 149.098426 288.936438 
L 149.867199 289.163746 
L 155.183457 289.668746 
L 156.968574 289.989445 
L 157.216145 290.137078 
L 157.476746 290.108199 
L 157.984917 291.022119 
L 159.248832 291.776482 
L 160.773347 292.396928 
L 161.789691 292.740027 
L 162.284833 290.079596 
L 162.793004 287.926164 
L 163.561777 283.377792 
L 163.809348 280.921649 
L 164.069949 276.653243 
L 164.31752 243.746747 
L 164.578121 249.072571 
L 165.086293 266.274806 
L 165.333863 269.178053 
L 165.581434 263.95968 
L 165.842035 271.751227 
L 166.089606 273.244377 
L 166.350207 270.84482 
L 166.858379 273.851796 
L 167.10595 271.847099 
L 167.366551 273.920374 
L 167.614121 271.727449 
L 167.874722 268.048542 
L 168.122293 268.941647 
L 168.382894 276.663099 
L 169.138637 284.977703 
L 169.646809 289.973248 
L 169.89438 293.395072 
L 170.15498 293.705846 
L 217.323748 293.66787 
L 217.831919 293.467855 
L 218.09252 292.91137 
L 218.340091 293.040394 
L 218.848263 292.368187 
L 219.108864 292.562619 
L 219.356435 292.521886 
L 219.617036 292.315668 
L 219.864607 292.663109 
L 220.125208 292.312084 
L 220.88095 290.775719 
L 221.128521 291.318006 
L 221.389122 292.311119 
L 222.144865 292.639882 
L 222.405466 292.598597 
L 222.653036 293.128891 
L 223.161208 293.692268 
L 225.441466 293.705846 
L 298.487905 293.705846 
L 298.748506 293.5629 
L 299.256678 293.577167 
L 299.504249 293.547185 
L 299.76485 293.123791 
L 300.273021 293.014272 
L 301.536936 292.454617 
L 302.292679 292.1171 
L 302.80085 291.561718 
L 303.569623 291.110272 
L 304.077795 290.761108 
L 304.325366 290.877174 
L 304.572937 290.393058 
L 305.849881 289.270439 
L 306.097452 289.205238 
L 306.605624 288.105295 
L 307.113796 287.995018 
L 307.374397 288.228598 
L 307.621968 288.20799 
L 308.37771 288.450393 
L 308.638311 288.399114 
L 309.654655 287.277804 
L 309.902226 285.787687 
L 310.162827 285.890107 
L 310.410397 286.605666 
L 310.670998 289.141829 
L 311.426741 289.944231 
L 313.198827 290.392231 
L 313.706999 290.347638 
L 314.983944 290.209172 
L 315.231514 287.087301 
L 315.492115 285.860953 
L 316.247858 288.191862 
L 317.264202 287.662464 
L 317.511773 287.749376 
L 318.019944 287.655158 
L 318.280545 288.235628 
L 318.528116 288.404697 
L 318.788717 288.238385 
L 320.560803 288.53827 
L 321.068975 288.292766 
L 321.824718 288.39298 
L 322.085319 287.625108 
L 322.33289 288.213918 
L 323.088632 287.985713 
L 323.596804 284.628194 
L 323.857405 287.09054 
L 324.365577 287.147609 
L 324.613148 287.473615 
L 326.645835 288.246449 
L 327.401578 288.355486 
L 327.662179 288.323505 
L 328.417921 288.536202 
L 328.926093 288.576522 
L 329.186694 288.513871 
L 329.942437 288.645514 
L 330.450608 289.185595 
L 330.95878 289.161817 
L 331.975124 288.962078 
L 333.499639 288.600507 
L 333.74721 288.520625 
L 333.994781 287.759921 
L 334.255382 287.596091 
L 334.763554 288.227426 
L 335.271726 289.08545 
L 335.779897 289.196209 
L 336.027468 288.742351 
L 336.53564 289.562604 
L 337.304413 290.023631 
L 339.076499 290.162166 
L 339.32407 288.918242 
L 339.832242 289.928379 
L 340.092843 289.907771 
L 340.601014 290.070292 
L 340.848585 289.869863 
L 341.356757 290.091727 
L 341.604328 289.369689 
L 341.864929 290.387269 
L 343.897616 290.809905 
L 346.686046 290.72189 
L 347.194218 290.605893 
L 347.441789 290.073049 
L 347.70239 290.21248 
L 348.210561 289.93789 
L 348.458132 289.701071 
L 348.966304 289.797977 
L 349.982648 289.989169 
L 350.230218 290.297393 
L 350.490819 290.395402 
L 350.998991 290.875865 
L 351.246562 291.01502 
L 351.507163 289.138383 
L 351.754734 290.288295 
L 352.015335 290.186841 
L 352.262906 290.355702 
L 352.771078 290.318759 
L 353.018648 290.74367 
L 353.52682 291.045002 
L 353.787421 291.062095 
L 354.034992 290.888546 
L 354.295593 291.039488 
L 355.051336 290.775582 
L 355.311937 290.40767 
L 355.559507 290.363008 
L 356.067679 290.481969 
L 356.575851 290.375276 
L 356.823422 290.139559 
L 357.084023 290.311316 
L 358.856109 290.057817 
L 359.611852 289.82403 
L 359.872453 290.082284 
L 360.380624 290.11902 
L 361.644539 290.143557 
L 363.924797 289.958085 
L 364.432969 289.862902 
L 364.69357 289.906806 
L 365.201742 289.790188 
L 366.218085 289.738978 
L 366.465656 289.641108 
L 366.726257 289.67805 
L 367.482 289.454671 
L 367.72957 288.805898 
L 367.990171 289.108677 
L 368.237742 289.16099 
L 368.498343 288.480374 
L 368.745914 288.792113 
L 369.514687 285.721314 
L 369.762258 285.077435 
L 370.27043 286.57341 
L 370.518 287.525169 
L 371.534344 289.270439 
L 371.794945 287.320674 
L 372.042516 287.312955 
L 372.303117 286.796997 
L 372.550688 285.809467 
L 373.31946 285.170412 
L 373.567031 285.092598 
L 373.827632 285.373391 
L 374.075203 285.333691 
L 374.322774 285.732549 
L 374.583375 286.79293 
L 374.830946 287.22046 
L 375.847289 288.019761 
L 376.10789 287.935606 
L 376.355461 288.129625 
L 376.616062 287.963658 
L 376.863633 288.106053 
L 377.124234 287.902454 
L 377.371805 287.911552 
L 377.879976 288.286631 
L 379.143891 287.760817 
L 379.912664 287.923958 
L 381.932321 287.804928 
L 382.440493 287.627796 
L 382.701094 287.866545 
L 383.456836 287.667013 
L 383.717437 287.806651 
L 384.225609 287.712778 
L 384.733781 287.840492 
L 384.981352 287.693548 
L 385.997695 287.928714 
L 386.505867 287.572795 
L 386.753438 286.850826 
L 387.014039 283.543759 
L 387.26161 286.073305 
L 388.030382 288.806311 
L 388.538554 287.183311 
L 388.786125 286.11073 
L 389.033696 283.537211 
L 389.294297 283.406946 
L 389.541868 283.55651 
L 389.802469 287.426058 
L 390.05004 289.214956 
L 390.310641 289.08669 
L 390.558211 289.586314 
L 391.066383 289.863591 
L 391.326984 289.992133 
L 391.835156 288.296005 
L 392.082727 286.650811 
L 392.343328 287.189514 
L 392.590899 287.306959 
L 392.838469 287.58141 
L 393.09907 287.504079 
L 393.346641 287.878124 
L 393.854813 287.624694 
L 394.115414 286.656876 
L 394.362985 283.899195 
L 394.623586 287.95263 
L 394.871157 288.043333 
L 395.131758 287.91741 
L 395.379328 287.997361 
L 395.639929 287.959798 
L 395.8875 287.80479 
L 396.135071 287.497393 
L 396.395672 287.572106 
L 396.643243 288.251618 
L 396.903844 287.602501 
L 397.151415 289.041546 
L 397.412016 289.337226 
L 398.67593 291.575503 
L 398.936531 292.491766 
L 399.184102 292.759119 
L 400.708617 292.711906 
L 402.480704 292.545388 
L 402.988875 292.449034 
L 403.249476 292.430356 
L 403.497047 292.29251 
L 403.744618 292.602732 
L 404.25279 292.665452 
L 411.106594 292.623616 
L 415.419539 292.429253 
L 417.191626 292.236544 
L 418.963712 291.862154 
L 419.471884 292.029913 
L 419.980056 292.333174 
L 420.748828 292.397617 
L 422.520915 292.300367 
L 422.768486 292.135434 
L 423.276657 292.188711 
L 424.553602 291.974498 
L 425.061774 291.744916 
L 426.325688 290.982971 
L 427.850204 290.266654 
L 429.869861 290.8077 
L 430.886204 290.760074 
L 431.654977 290.676953 
L 433.166462 290.959193 
L 433.674634 290.944167 
L 433.935235 289.879513 
L 434.182806 289.551301 
L 434.690978 290.790193 
L 434.951579 291.180642 
L 435.19915 291.225856 
L 435.45975 290.520635 
L 435.707321 290.774823 
L 435.967922 292.262252 
L 436.723665 292.33793 
L 437.231837 292.496935 
L 440.267838 292.545457 
L 443.577469 292.476465 
L 444.333212 292.475087 
L 446.365899 292.471503 
L 447.877384 292.507274 
L 448.385556 292.264734 
L 449.910072 292.601216 
L 450.678844 292.766907 
L 450.926415 291.264384 
L 451.173986 293.705846 
L 468.425767 293.596534 
L 478.576173 293.310228 
L 480.100689 293.138747 
L 481.612174 292.863262 
L 486.18572 292.809364 
L 486.693892 292.940111 
L 489.482322 293.016615 
L 493.287095 293.207394 
L 493.534666 292.834176 
L 493.795267 292.864158 
L 494.303439 292.5773 
L 494.55101 292.292647 
L 495.306753 292.119099 
L 496.831268 292.150873 
L 497.091869 292.065339 
L 497.600041 292.160246 
L 500.896642 292.208837 
L 506.473502 292.351232 
L 508.506189 292.474191 
L 509.509503 292.485425 
L 511.034018 292.435456 
L 512.050362 292.187264 
L 513.066705 291.381415 
L 513.574877 291.404987 
L 514.33062 291.337442 
L 514.838792 291.304359 
L 515.607564 290.735882 
L 515.855135 290.77758 
L 516.363307 291.199596 
L 516.871479 291.938314 
L 517.11905 292.092633 
L 517.627222 292.560138 
L 517.887823 292.684475 
L 518.135393 292.303606 
L 518.395994 293.056522 
L 518.904166 293.197125 
L 523.972854 293.482673 
L 531.829972 293.616522 
L 532.338144 293.581922 
L 535.126574 293.68193 
L 547.817839 293.705846 
L 562.776332 293.595018 
L 568.10562 293.414991 
L 583.064113 292.747333 
L 584.84923 292.511271 
L 586.360715 292.072645 
L 586.868887 291.879247 
L 588.393402 292.198774 
L 588.654003 291.907023 
L 591.181832 292.066786 
L 591.442433 291.955476 
L 591.690004 291.717346 
L 592.198176 291.79523 
L 593.47512 292.68861 
L 594.230863 292.920192 
L 595.247207 292.941214 
L 595.494777 292.612175 
L 595.755378 292.770009 
L 596.26355 293.628239 
L 596.771722 293.697024 
L 613.762902 293.705846 
L 622.636364 293.705846 
L 622.636364 293.705846 
" clip-path="url(#p3f99d82139)" style="fill: none; stroke: #ffa500; stroke-width: 2; stroke-linecap: square"/>
   </g>
   <g id="line2d_23">
    <path d="M 115.363636 293.705846 
L 139.469222 293.705846 
L 139.716793 294.079202 
L 146.570597 295.88416 
L 148.590254 296.642727 
L 149.867199 297.504542 
L 150.114769 298.328241 
L 150.37537 298.253873 
L 150.622941 298.405573 
L 150.870512 298.244017 
L 156.460402 297.699732 
L 158.232488 297.351946 
L 158.480059 297.204313 
L 158.74066 297.229056 
L 159.248832 296.333676 
L 160.512746 295.589376 
L 162.545434 294.78077 
L 163.053605 294.635274 
L 163.301176 297.349189 
L 163.561777 297.722614 
L 164.578121 302.835673 
L 165.086293 307.478331 
L 165.333863 328.821878 
L 165.581434 337.957425 
L 166.350207 316.847872 
L 166.597778 316.473137 
L 166.858379 319.909711 
L 167.10595 313.707668 
L 167.366551 312.792921 
L 167.614121 315.739865 
L 167.874722 313.463473 
L 168.122293 313.024847 
L 168.382894 315.06945 
L 168.630465 312.800847 
L 168.891066 312.971225 
L 169.138637 313.9347 
L 169.386208 322.836254 
L 169.646809 312.989834 
L 169.89438 308.741553 
L 171.418895 294.017861 
L 171.679496 293.705846 
L 217.323748 293.809851 
L 217.584349 293.901863 
L 217.831919 294.251097 
L 218.09252 294.248271 
L 218.340091 294.65085 
L 219.108864 295.094508 
L 219.356435 294.725977 
L 219.617036 294.767193 
L 219.864607 295.099402 
L 220.125208 295.213883 
L 220.372778 296.171638 
L 220.88095 296.708066 
L 221.128521 295.27936 
L 221.636693 294.847833 
L 222.405466 294.578826 
L 222.913637 293.831148 
L 223.161208 293.705846 
L 299.256678 293.705846 
L 299.504249 293.845691 
L 300.012421 293.828598 
L 301.276335 293.956864 
L 301.536936 294.356204 
L 302.045108 294.457521 
L 304.572937 295.761546 
L 305.341709 296.38978 
L 306.358053 296.929861 
L 307.113796 297.58015 
L 307.621968 297.628534 
L 308.37771 297.977698 
L 309.394054 299.32542 
L 309.902226 298.539422 
L 310.410397 298.37759 
L 310.670998 298.445686 
L 310.918569 298.307771 
L 312.690655 298.806567 
L 313.198827 299.175237 
L 313.459428 299.089359 
L 313.706999 300.339141 
L 313.9676 298.490142 
L 314.723343 298.334858 
L 314.983944 297.446715 
L 315.231514 297.197903 
L 315.739686 297.116367 
L 316.247858 297.10334 
L 316.495429 296.867348 
L 318.788717 296.67326 
L 320.300202 296.82303 
L 320.808374 296.971284 
L 321.068975 298.137049 
L 321.316546 298.51261 
L 321.577147 303.736084 
L 321.824718 302.153886 
L 322.085319 303.144241 
L 322.33289 301.235968 
L 322.841061 301.65695 
L 323.088632 301.715948 
L 323.349233 301.495326 
L 323.596804 300.545979 
L 323.857405 300.332455 
L 324.104976 300.392212 
L 324.365577 301.287522 
L 325.12132 305.885794 
L 325.38192 304.674747 
L 325.629491 302.177802 
L 325.890092 301.953595 
L 326.137663 301.89184 
L 326.398264 303.236667 
L 326.645835 301.447217 
L 327.154007 300.7584 
L 328.678522 299.814016 
L 329.694866 299.504414 
L 330.450608 299.331003 
L 330.95878 299.116032 
L 331.714523 299.127887 
L 332.222695 299.045662 
L 332.483296 298.804431 
L 334.255382 299.222242 
L 334.763554 299.386073 
L 335.011125 299.426806 
L 335.271726 299.955377 
L 335.519296 300.198469 
L 335.779897 300.070065 
L 336.53564 299.047729 
L 337.043812 298.693671 
L 337.799554 298.469465 
L 338.060155 300.276766 
L 338.307726 298.123333 
L 339.32407 297.621297 
L 341.604328 297.29219 
L 341.864929 297.275786 
L 342.1125 298.130225 
L 342.373101 298.061922 
L 342.620672 297.729438 
L 343.637015 297.320724 
L 344.405788 297.327202 
L 344.653359 297.413356 
L 344.90093 297.266206 
L 345.161531 299.033738 
L 345.409101 297.293017 
L 345.669702 297.068603 
L 347.94996 296.80194 
L 348.210561 297.165302 
L 348.458132 296.937374 
L 349.982648 297.063089 
L 350.230218 297.184049 
L 350.998991 297.162407 
L 351.507163 297.37469 
L 352.015335 297.692081 
L 352.771078 297.581942 
L 353.018648 297.250836 
L 353.279249 297.238085 
L 353.52682 297.043584 
L 353.787421 296.590139 
L 354.034992 298.573538 
L 354.295593 297.67809 
L 354.543164 297.334922 
L 354.803765 297.452642 
L 355.311937 297.167094 
L 355.559507 297.534041 
L 355.807078 297.101617 
L 356.31525 297.219751 
L 357.084023 296.997061 
L 357.331594 296.551749 
L 357.839765 296.480138 
L 358.100366 296.528798 
L 358.856109 297.071222 
L 359.364281 297.124362 
L 360.120024 297.361044 
L 360.380624 297.58849 
L 360.888796 297.315899 
L 361.644539 297.38882 
L 362.921483 297.638321 
L 363.924797 297.988382 
L 365.201742 297.790021 
L 366.465656 297.95709 
L 369.254086 298.425698 
L 369.514687 300.225349 
L 369.762258 300.678863 
L 370.022859 301.497462 
L 370.27043 301.32226 
L 370.518 300.324943 
L 371.026172 299.40096 
L 371.534344 299.548731 
L 371.794945 299.797543 
L 372.042516 300.517169 
L 372.303117 305.397681 
L 372.550688 299.912507 
L 372.811289 300.317775 
L 373.058859 301.610496 
L 373.567031 302.076416 
L 373.827632 302.826092 
L 374.075203 302.984546 
L 374.322774 302.765922 
L 374.583375 302.86786 
L 374.830946 302.2317 
L 375.091547 302.211023 
L 375.339117 302.499948 
L 375.599718 303.327301 
L 375.847289 305.80095 
L 376.10789 305.757529 
L 376.355461 305.550001 
L 376.616062 304.350671 
L 376.863633 305.427594 
L 377.124234 301.829258 
L 378.127547 299.937664 
L 378.89632 299.290476 
L 379.143891 299.30433 
L 379.652063 298.86019 
L 380.160235 299.027466 
L 380.420835 298.851505 
L 380.929007 298.718622 
L 381.932321 298.53053 
L 382.192922 298.587943 
L 383.209265 298.226924 
L 383.965008 298.175783 
L 384.981352 298.441689 
L 385.228922 298.513231 
L 385.737094 299.087636 
L 385.997695 298.659761 
L 386.753438 298.853297 
L 387.26161 298.56575 
L 387.522211 298.495862 
L 387.769782 298.578501 
L 388.277953 297.902366 
L 388.538554 297.926006 
L 389.033696 298.496345 
L 389.294297 299.539702 
L 389.541868 301.261125 
L 389.802469 299.369531 
L 390.558211 298.434934 
L 390.818812 302.045194 
L 391.066383 297.819313 
L 391.326984 296.88961 
L 391.574555 299.65377 
L 391.835156 295.212229 
L 392.082727 294.861824 
L 393.607242 294.973204 
L 394.623586 295.186107 
L 394.871157 295.339254 
L 395.379328 295.31651 
L 398.167758 295.856315 
L 398.67593 295.938402 
L 398.936531 295.945984 
L 399.444703 296.184458 
L 400.200446 296.222986 
L 400.448016 296.152546 
L 400.708617 295.568217 
L 401.216789 295.912212 
L 401.46436 296.237322 
L 401.972532 297.437686 
L 403.249476 297.50847 
L 403.497047 297.348844 
L 403.744618 297.365041 
L 404.25279 297.116849 
L 404.513391 297.5104 
L 404.760962 297.3709 
L 405.269134 297.813937 
L 405.529734 297.931382 
L 406.037906 299.103281 
L 406.285477 299.480635 
L 406.546078 298.655626 
L 407.04122 298.8371 
L 407.301821 298.93697 
L 407.809993 297.108992 
L 408.057563 296.686011 
L 408.826336 294.531751 
L 409.073907 294.344212 
L 410.845993 294.447872 
L 414.650767 294.763333 
L 416.435883 294.992571 
L 417.452227 294.915653 
L 418.207969 294.889807 
L 422.012743 295.117184 
L 422.768486 295.305895 
L 423.029086 295.517765 
L 424.04543 295.457457 
L 425.556915 295.474481 
L 427.850204 295.724948 
L 428.097774 295.114151 
L 428.605946 294.907106 
L 429.361689 295.006907 
L 429.62229 295.059426 
L 430.130462 295.504325 
L 430.378032 295.996022 
L 430.886204 296.397706 
L 431.394376 296.695591 
L 431.902548 297.558026 
L 432.41072 296.918213 
L 433.166462 296.662164 
L 433.427063 296.6144 
L 433.674634 296.865004 
L 434.182806 296.769408 
L 434.690978 296.771614 
L 434.951579 297.38365 
L 435.45975 296.474624 
L 435.707321 296.446779 
L 436.463064 296.034343 
L 436.971236 296.004362 
L 437.231837 296.126149 
L 437.479408 295.625492 
L 437.740009 294.739554 
L 441.792353 294.71233 
L 446.61347 294.755407 
L 458.275361 294.790144 
L 458.535962 295.04385 
L 459.799877 294.77181 
L 460.81622 294.572416 
L 461.076821 295.882644 
L 461.324392 293.705846 
L 468.425767 293.815916 
L 478.576173 294.10243 
L 480.100689 294.282801 
L 481.104002 294.516726 
L 482.889119 294.542641 
L 484.661205 294.552222 
L 486.18572 294.558218 
L 486.693892 294.469721 
L 489.729893 294.388322 
L 493.534666 294.199129 
L 493.795267 294.633895 
L 494.303439 294.675042 
L 494.811611 295.181076 
L 495.567353 295.331742 
L 497.091869 295.268263 
L 497.33944 295.362619 
L 497.847612 295.274604 
L 504.948987 295.118562 
L 511.54219 295.05922 
L 512.050362 295.183419 
L 512.819135 295.719778 
L 513.066705 296.024143 
L 513.574877 296.06143 
L 514.083049 296.012426 
L 514.838792 296.117602 
L 515.346964 296.431616 
L 515.607564 296.755554 
L 515.855135 296.704069 
L 516.363307 296.228913 
L 517.11905 295.322299 
L 517.379651 295.373785 
L 517.887823 294.843215 
L 518.135393 294.72384 
L 518.395994 296.797804 
L 518.643565 294.644096 
L 518.904166 294.310508 
L 519.412338 294.182794 
L 520.428682 294.195269 
L 520.923823 294.043569 
L 526.513713 293.873605 
L 540.716463 293.705846 
L 564.053276 293.807301 
L 564.548418 293.83742 
L 573.68248 294.136202 
L 573.943081 294.223527 
L 574.451253 294.177969 
L 585.096801 294.675111 
L 587.129488 294.954043 
L 589.162175 295.42272 
L 589.917918 295.144615 
L 590.934261 295.072246 
L 591.181832 295.428647 
L 591.442433 295.474206 
L 592.198176 295.903941 
L 592.458777 295.968798 
L 592.706348 295.877199 
L 592.966949 295.972657 
L 593.214519 295.931166 
L 594.478434 294.881467 
L 594.986606 294.636652 
L 596.26355 294.367783 
L 596.511121 294.941775 
L 596.771722 294.926405 
L 597.019293 294.300239 
L 597.527465 294.165908 
L 597.775036 293.828805 
L 598.283207 293.709361 
L 622.128192 293.705846 
L 622.636364 293.705846 
L 622.636364 293.705846 
" clip-path="url(#p3f99d82139)" style="fill: none; stroke: #ffa500; stroke-width: 2; stroke-linecap: square"/>
   </g>
   <g id="line2d_24">
    <path d="M 90 293.705846 
L 648 293.705846 
" clip-path="url(#p3f99d82139)" style="fill: none; stroke: #000000; stroke-opacity: 0.3; stroke-width: 1.5; stroke-linecap: square"/>
   </g>
   <g id="line2d_25">
    <path d="M 405.457939 512.64 
L 405.457939 69.12 
" clip-path="url(#p3f99d82139)" style="fill: none; stroke-dasharray: 9.6,2.4,1.5,2.4; stroke-dashoffset: 0; stroke: #000000; stroke-opacity: 0.3; stroke-width: 1.5"/>
   </g>
   <g id="patch_3">
    <path d="M 90 512.64 
L 90 69.12 
" style="fill: none; stroke: #000000; stroke-width: 0.8; stroke-linejoin: miter; stroke-linecap: square"/>
   </g>
   <g id="patch_4">
    <path d="M 648 512.64 
L 648 69.12 
" style="fill: none; stroke: #000000; stroke-width: 0.8; stroke-linejoin: miter; stroke-linecap: square"/>
   </g>
   <g id="patch_5">
    <path d="M 90 512.64 
L 648 512.64 
" style="fill: none; stroke: #000000; stroke-width: 0.8; stroke-linejoin: miter; stroke-linecap: square"/>
   </g>
   <g id="patch_6">
    <path d="M 90 69.12 
L 648 69.12 
" style="fill: none; stroke: #000000; stroke-width: 0.8; stroke-linejoin: miter; stroke-linecap: square"/>
   </g>
   <g id="text_18">
    <!-- InCoO3 -->
    <g transform="translate(295.753125 60.80125)scale(0.4 -0.4)">
     <defs>
      <path id="DejaVuSans-49" d="M 628 4666 
L 1259 4666 
L 1259 0 
L 628 0 
L 628 4666 
z
" transform="scale(0.015625)"/>
      <path id="DejaVuSans-43" d="M 4122 4306 
L 4122 3641 
Q 3803 3938 3442 4084 
Q 3081 4231 2675 4231 
Q 1875 4231 1450 3742 
Q 1025 3253 1025 2328 
Q 1025 1406 1450 917 
Q 1875 428 2675 428 
Q 3081 428 3442 575 
Q 3803 722 4122 1019 
L 4122 359 
Q 3791 134 3420 21 
Q 3050 -91 2638 -91 
Q 1578 -91 968 557 
Q 359 1206 359 2328 
Q 359 3453 968 4101 
Q 1578 4750 2638 4750 
Q 3056 4750 3426 4639 
Q 3797 4528 4122 4306 
z
" transform="scale(0.015625)"/>
      <path id="DejaVuSans-4f" d="M 2522 4238 
Q 1834 4238 1429 3725 
Q 1025 3213 1025 2328 
Q 1025 1447 1429 934 
Q 1834 422 2522 422 
Q 3209 422 3611 934 
Q 4013 1447 4013 2328 
Q 4013 3213 3611 3725 
Q 3209 4238 2522 4238 
z
M 2522 4750 
Q 3503 4750 4090 4092 
Q 4678 3434 4678 2328 
Q 4678 1225 4090 567 
Q 3503 -91 2522 -91 
Q 1538 -91 948 565 
Q 359 1222 359 2328 
Q 359 3434 948 4092 
Q 1538 4750 2522 4750 
z
" transform="scale(0.015625)"/>
     </defs>
     <use xlink:href="#DejaVuSans-49"/>
     <use xlink:href="#DejaVuSans-6e" x="29.492188"/>
     <use xlink:href="#DejaVuSans-43" x="92.871094"/>
     <use xlink:href="#DejaVuSans-6f" x="162.695312"/>
     <use xlink:href="#DejaVuSans-4f" x="223.876953"/>
     <use xlink:href="#DejaVuSans-33" x="302.587891"/>
    </g>
   </g>
   <g id="legend_1">
    <g id="patch_7">
     <path d="M 572.376562 135.8325 
L 641 135.8325 
Q 643 135.8325 643 133.8325 
L 643 76.12 
Q 643 74.12 641 74.12 
L 572.376562 74.12 
Q 570.376562 74.12 570.376562 76.12 
L 570.376562 133.8325 
Q 570.376562 135.8325 572.376562 135.8325 
z
" style="fill: #ffffff; opacity: 0.8; stroke: #cccccc; stroke-linejoin: miter"/>
    </g>
    <g id="line2d_26">
     <path d="M 574.376562 82.218437 
L 584.376562 82.218437 
L 594.376562 82.218437 
" style="fill: none; stroke: #006400; stroke-width: 2; stroke-linecap: square"/>
    </g>
    <g id="text_19">
     <!-- InCoO3 -->
     <g transform="translate(602.376562 85.718437)scale(0.1 -0.1)">
      <use xlink:href="#DejaVuSans-49"/>
      <use xlink:href="#DejaVuSans-6e" x="29.492188"/>
      <use xlink:href="#DejaVuSans-43" x="92.871094"/>
      <use xlink:href="#DejaVuSans-6f" x="162.695312"/>
      <use xlink:href="#DejaVuSans-4f" x="223.876953"/>
      <use xlink:href="#DejaVuSans-33" x="302.587891"/>
     </g>
    </g>
    <g id="line2d_27">
     <path d="M 574.376562 96.896563 
L 584.376562 96.896563 
L 594.376562 96.896563 
" style="fill: none; stroke: #800080; stroke-width: 2; stroke-linecap: square"/>
    </g>
    <g id="text_20">
     <!-- In -->
     <g transform="translate(602.376562 100.396563)scale(0.1 -0.1)">
      <use xlink:href="#DejaVuSans-49"/>
      <use xlink:href="#DejaVuSans-6e" x="29.492188"/>
     </g>
    </g>
    <g id="line2d_28">
     <path d="M 574.376562 111.574687 
L 584.376562 111.574687 
L 594.376562 111.574687 
" style="fill: none; stroke: #6495ed; stroke-width: 2; stroke-linecap: square"/>
    </g>
    <g id="text_21">
     <!-- Co -->
     <g transform="translate(602.376562 115.074687)scale(0.1 -0.1)">
      <use xlink:href="#DejaVuSans-43"/>
      <use xlink:href="#DejaVuSans-6f" x="69.824219"/>
     </g>
    </g>
    <g id="line2d_29">
     <path d="M 574.376562 126.252813 
L 584.376562 126.252813 
L 594.376562 126.252813 
" style="fill: none; stroke: #ffa500; stroke-width: 2; stroke-linecap: square"/>
    </g>
    <g id="text_22">
     <!-- O -->
     <g transform="translate(602.376562 129.752813)scale(0.1 -0.1)">
      <use xlink:href="#DejaVuSans-4f"/>
     </g>
    </g>
   </g>
  </g>
 </g>
 <defs>
  <clipPath id="p3f99d82139">
   <rect x="90" y="69.12" width="558" height="443.52"/>
  </clipPath>
 </defs>
</svg>
