<?xml version="1.0" encoding="utf-8" standalone="no"?>
<!DOCTYPE svg PUBLIC "-//W3C//DTD SVG 1.1//EN"
  "http://www.w3.org/Graphics/SVG/1.1/DTD/svg11.dtd">
<svg xmlns:xlink="http://www.w3.org/1999/xlink" width="720pt" height="576pt" viewBox="0 0 720 576" xmlns="http://www.w3.org/2000/svg" version="1.1">
 <metadata>
  <rdf:RDF xmlns:dc="http://purl.org/dc/elements/1.1/" xmlns:cc="http://creativecommons.org/ns#" xmlns:rdf="http://www.w3.org/1999/02/22-rdf-syntax-ns#">
   <cc:Work>
    <dc:type rdf:resource="http://purl.org/dc/dcmitype/StillImage"/>
    <dc:date>2022-03-18T19:48:38.319042</dc:date>
    <dc:format>image/svg+xml</dc:format>
    <dc:creator>
     <cc:Agent>
      <dc:title>Matplotlib v3.5.1, https://matplotlib.org/</dc:title>
     </cc:Agent>
    </dc:creator>
   </cc:Work>
  </rdf:RDF>
 </metadata>
 <defs>
  <style type="text/css">*{stroke-linejoin: round; stroke-linecap: butt}</style>
 </defs>
 <g id="figure_1">
  <g id="patch_1">
   <path d="M 0 576 
L 720 576 
L 720 0 
L 0 0 
z
" style="fill: #ffffff"/>
  </g>
  <g id="axes_1">
   <g id="patch_2">
    <path d="M 90 512.64 
L 648 512.64 
L 648 69.12 
L 90 69.12 
z
" style="fill: #ffffff"/>
   </g>
   <g id="matplotlib.axis_1">
    <g id="xtick_1">
     <g id="line2d_1">
      <defs>
       <path id="m3bb34c7236" d="M 0 0 
L 0 3.5 
" style="stroke: #000000; stroke-width: 0.8"/>
      </defs>
      <g>
       <use xlink:href="#m3bb34c7236" x="147.858351" y="512.64" style="stroke: #000000; stroke-width: 0.8"/>
      </g>
     </g>
     <g id="text_1">
      <!-- −20 -->
      <g transform="translate(137.306007 527.238438)scale(0.1 -0.1)">
       <defs>
        <path id="DejaVuSans-2212" d="M 678 2272 
L 4684 2272 
L 4684 1741 
L 678 1741 
L 678 2272 
z
" transform="scale(0.015625)"/>
        <path id="DejaVuSans-32" d="M 1228 531 
L 3431 531 
L 3431 0 
L 469 0 
L 469 531 
Q 828 903 1448 1529 
Q 2069 2156 2228 2338 
Q 2531 2678 2651 2914 
Q 2772 3150 2772 3378 
Q 2772 3750 2511 3984 
Q 2250 4219 1831 4219 
Q 1534 4219 1204 4116 
Q 875 4013 500 3803 
L 500 4441 
Q 881 4594 1212 4672 
Q 1544 4750 1819 4750 
Q 2544 4750 2975 4387 
Q 3406 4025 3406 3419 
Q 3406 3131 3298 2873 
Q 3191 2616 2906 2266 
Q 2828 2175 2409 1742 
Q 1991 1309 1228 531 
z
" transform="scale(0.015625)"/>
        <path id="DejaVuSans-30" d="M 2034 4250 
Q 1547 4250 1301 3770 
Q 1056 3291 1056 2328 
Q 1056 1369 1301 889 
Q 1547 409 2034 409 
Q 2525 409 2770 889 
Q 3016 1369 3016 2328 
Q 3016 3291 2770 3770 
Q 2525 4250 2034 4250 
z
M 2034 4750 
Q 2819 4750 3233 4129 
Q 3647 3509 3647 2328 
Q 3647 1150 3233 529 
Q 2819 -91 2034 -91 
Q 1250 -91 836 529 
Q 422 1150 422 2328 
Q 422 3509 836 4129 
Q 1250 4750 2034 4750 
z
" transform="scale(0.015625)"/>
       </defs>
       <use xlink:href="#DejaVuSans-2212"/>
       <use xlink:href="#DejaVuSans-32" x="83.789062"/>
       <use xlink:href="#DejaVuSans-30" x="147.412109"/>
      </g>
     </g>
    </g>
    <g id="xtick_2">
     <g id="line2d_2">
      <g>
       <use xlink:href="#m3bb34c7236" x="223.505213" y="512.64" style="stroke: #000000; stroke-width: 0.8"/>
      </g>
     </g>
     <g id="text_2">
      <!-- −15 -->
      <g transform="translate(212.952869 527.238438)scale(0.1 -0.1)">
       <defs>
        <path id="DejaVuSans-31" d="M 794 531 
L 1825 531 
L 1825 4091 
L 703 3866 
L 703 4441 
L 1819 4666 
L 2450 4666 
L 2450 531 
L 3481 531 
L 3481 0 
L 794 0 
L 794 531 
z
" transform="scale(0.015625)"/>
        <path id="DejaVuSans-35" d="M 691 4666 
L 3169 4666 
L 3169 4134 
L 1269 4134 
L 1269 2991 
Q 1406 3038 1543 3061 
Q 1681 3084 1819 3084 
Q 2600 3084 3056 2656 
Q 3513 2228 3513 1497 
Q 3513 744 3044 326 
Q 2575 -91 1722 -91 
Q 1428 -91 1123 -41 
Q 819 9 494 109 
L 494 744 
Q 775 591 1075 516 
Q 1375 441 1709 441 
Q 2250 441 2565 725 
Q 2881 1009 2881 1497 
Q 2881 1984 2565 2268 
Q 2250 2553 1709 2553 
Q 1456 2553 1204 2497 
Q 953 2441 691 2322 
L 691 4666 
z
" transform="scale(0.015625)"/>
       </defs>
       <use xlink:href="#DejaVuSans-2212"/>
       <use xlink:href="#DejaVuSans-31" x="83.789062"/>
       <use xlink:href="#DejaVuSans-35" x="147.412109"/>
      </g>
     </g>
    </g>
    <g id="xtick_3">
     <g id="line2d_3">
      <g>
       <use xlink:href="#m3bb34c7236" x="299.152075" y="512.64" style="stroke: #000000; stroke-width: 0.8"/>
      </g>
     </g>
     <g id="text_3">
      <!-- −10 -->
      <g transform="translate(288.599731 527.238438)scale(0.1 -0.1)">
       <use xlink:href="#DejaVuSans-2212"/>
       <use xlink:href="#DejaVuSans-31" x="83.789062"/>
       <use xlink:href="#DejaVuSans-30" x="147.412109"/>
      </g>
     </g>
    </g>
    <g id="xtick_4">
     <g id="line2d_4">
      <g>
       <use xlink:href="#m3bb34c7236" x="374.798937" y="512.64" style="stroke: #000000; stroke-width: 0.8"/>
      </g>
     </g>
     <g id="text_4">
      <!-- −5 -->
      <g transform="translate(367.427843 527.238438)scale(0.1 -0.1)">
       <use xlink:href="#DejaVuSans-2212"/>
       <use xlink:href="#DejaVuSans-35" x="83.789062"/>
      </g>
     </g>
    </g>
    <g id="xtick_5">
     <g id="line2d_5">
      <g>
       <use xlink:href="#m3bb34c7236" x="450.445799" y="512.64" style="stroke: #000000; stroke-width: 0.8"/>
      </g>
     </g>
     <g id="text_5">
      <!-- 0 -->
      <g transform="translate(447.264549 527.238438)scale(0.1 -0.1)">
       <use xlink:href="#DejaVuSans-30"/>
      </g>
     </g>
    </g>
    <g id="xtick_6">
     <g id="line2d_6">
      <g>
       <use xlink:href="#m3bb34c7236" x="526.092661" y="512.64" style="stroke: #000000; stroke-width: 0.8"/>
      </g>
     </g>
     <g id="text_6">
      <!-- 5 -->
      <g transform="translate(522.911411 527.238438)scale(0.1 -0.1)">
       <use xlink:href="#DejaVuSans-35"/>
      </g>
     </g>
    </g>
    <g id="xtick_7">
     <g id="line2d_7">
      <g>
       <use xlink:href="#m3bb34c7236" x="601.739523" y="512.64" style="stroke: #000000; stroke-width: 0.8"/>
      </g>
     </g>
     <g id="text_7">
      <!-- 10 -->
      <g transform="translate(595.377023 527.238438)scale(0.1 -0.1)">
       <use xlink:href="#DejaVuSans-31"/>
       <use xlink:href="#DejaVuSans-30" x="63.623047"/>
      </g>
     </g>
    </g>
    <g id="text_8">
     <!-- Energy (ev) -->
     <g transform="translate(310.934375 548.515)scale(0.2 -0.2)">
      <defs>
       <path id="DejaVuSans-45" d="M 628 4666 
L 3578 4666 
L 3578 4134 
L 1259 4134 
L 1259 2753 
L 3481 2753 
L 3481 2222 
L 1259 2222 
L 1259 531 
L 3634 531 
L 3634 0 
L 628 0 
L 628 4666 
z
" transform="scale(0.015625)"/>
       <path id="DejaVuSans-6e" d="M 3513 2113 
L 3513 0 
L 2938 0 
L 2938 2094 
Q 2938 2591 2744 2837 
Q 2550 3084 2163 3084 
Q 1697 3084 1428 2787 
Q 1159 2491 1159 1978 
L 1159 0 
L 581 0 
L 581 3500 
L 1159 3500 
L 1159 2956 
Q 1366 3272 1645 3428 
Q 1925 3584 2291 3584 
Q 2894 3584 3203 3211 
Q 3513 2838 3513 2113 
z
" transform="scale(0.015625)"/>
       <path id="DejaVuSans-65" d="M 3597 1894 
L 3597 1613 
L 953 1613 
Q 991 1019 1311 708 
Q 1631 397 2203 397 
Q 2534 397 2845 478 
Q 3156 559 3463 722 
L 3463 178 
Q 3153 47 2828 -22 
Q 2503 -91 2169 -91 
Q 1331 -91 842 396 
Q 353 884 353 1716 
Q 353 2575 817 3079 
Q 1281 3584 2069 3584 
Q 2775 3584 3186 3129 
Q 3597 2675 3597 1894 
z
M 3022 2063 
Q 3016 2534 2758 2815 
Q 2500 3097 2075 3097 
Q 1594 3097 1305 2825 
Q 1016 2553 972 2059 
L 3022 2063 
z
" transform="scale(0.015625)"/>
       <path id="DejaVuSans-72" d="M 2631 2963 
Q 2534 3019 2420 3045 
Q 2306 3072 2169 3072 
Q 1681 3072 1420 2755 
Q 1159 2438 1159 1844 
L 1159 0 
L 581 0 
L 581 3500 
L 1159 3500 
L 1159 2956 
Q 1341 3275 1631 3429 
Q 1922 3584 2338 3584 
Q 2397 3584 2469 3576 
Q 2541 3569 2628 3553 
L 2631 2963 
z
" transform="scale(0.015625)"/>
       <path id="DejaVuSans-67" d="M 2906 1791 
Q 2906 2416 2648 2759 
Q 2391 3103 1925 3103 
Q 1463 3103 1205 2759 
Q 947 2416 947 1791 
Q 947 1169 1205 825 
Q 1463 481 1925 481 
Q 2391 481 2648 825 
Q 2906 1169 2906 1791 
z
M 3481 434 
Q 3481 -459 3084 -895 
Q 2688 -1331 1869 -1331 
Q 1566 -1331 1297 -1286 
Q 1028 -1241 775 -1147 
L 775 -588 
Q 1028 -725 1275 -790 
Q 1522 -856 1778 -856 
Q 2344 -856 2625 -561 
Q 2906 -266 2906 331 
L 2906 616 
Q 2728 306 2450 153 
Q 2172 0 1784 0 
Q 1141 0 747 490 
Q 353 981 353 1791 
Q 353 2603 747 3093 
Q 1141 3584 1784 3584 
Q 2172 3584 2450 3431 
Q 2728 3278 2906 2969 
L 2906 3500 
L 3481 3500 
L 3481 434 
z
" transform="scale(0.015625)"/>
       <path id="DejaVuSans-79" d="M 2059 -325 
Q 1816 -950 1584 -1140 
Q 1353 -1331 966 -1331 
L 506 -1331 
L 506 -850 
L 844 -850 
Q 1081 -850 1212 -737 
Q 1344 -625 1503 -206 
L 1606 56 
L 191 3500 
L 800 3500 
L 1894 763 
L 2988 3500 
L 3597 3500 
L 2059 -325 
z
" transform="scale(0.015625)"/>
       <path id="DejaVuSans-20" transform="scale(0.015625)"/>
       <path id="DejaVuSans-28" d="M 1984 4856 
Q 1566 4138 1362 3434 
Q 1159 2731 1159 2009 
Q 1159 1288 1364 580 
Q 1569 -128 1984 -844 
L 1484 -844 
Q 1016 -109 783 600 
Q 550 1309 550 2009 
Q 550 2706 781 3412 
Q 1013 4119 1484 4856 
L 1984 4856 
z
" transform="scale(0.015625)"/>
       <path id="DejaVuSans-76" d="M 191 3500 
L 800 3500 
L 1894 563 
L 2988 3500 
L 3597 3500 
L 2284 0 
L 1503 0 
L 191 3500 
z
" transform="scale(0.015625)"/>
       <path id="DejaVuSans-29" d="M 513 4856 
L 1013 4856 
Q 1481 4119 1714 3412 
Q 1947 2706 1947 2009 
Q 1947 1309 1714 600 
Q 1481 -109 1013 -844 
L 513 -844 
Q 928 -128 1133 580 
Q 1338 1288 1338 2009 
Q 1338 2731 1133 3434 
Q 928 4138 513 4856 
z
" transform="scale(0.015625)"/>
      </defs>
      <use xlink:href="#DejaVuSans-45"/>
      <use xlink:href="#DejaVuSans-6e" x="63.183594"/>
      <use xlink:href="#DejaVuSans-65" x="126.5625"/>
      <use xlink:href="#DejaVuSans-72" x="188.085938"/>
      <use xlink:href="#DejaVuSans-67" x="227.449219"/>
      <use xlink:href="#DejaVuSans-79" x="290.925781"/>
      <use xlink:href="#DejaVuSans-20" x="350.105469"/>
      <use xlink:href="#DejaVuSans-28" x="381.892578"/>
      <use xlink:href="#DejaVuSans-65" x="420.90625"/>
      <use xlink:href="#DejaVuSans-76" x="482.429688"/>
      <use xlink:href="#DejaVuSans-29" x="541.609375"/>
     </g>
    </g>
   </g>
   <g id="matplotlib.axis_2">
    <g id="ytick_1">
     <g id="line2d_8">
      <defs>
       <path id="m791c80a31c" d="M 0 0 
L -3.5 0 
" style="stroke: #000000; stroke-width: 0.8"/>
      </defs>
      <g>
       <use xlink:href="#m791c80a31c" x="90" y="490.747812" style="stroke: #000000; stroke-width: 0.8"/>
      </g>
     </g>
     <g id="text_9">
      <!-- −30 -->
      <g transform="translate(61.895313 494.547031)scale(0.1 -0.1)">
       <defs>
        <path id="DejaVuSans-33" d="M 2597 2516 
Q 3050 2419 3304 2112 
Q 3559 1806 3559 1356 
Q 3559 666 3084 287 
Q 2609 -91 1734 -91 
Q 1441 -91 1130 -33 
Q 819 25 488 141 
L 488 750 
Q 750 597 1062 519 
Q 1375 441 1716 441 
Q 2309 441 2620 675 
Q 2931 909 2931 1356 
Q 2931 1769 2642 2001 
Q 2353 2234 1838 2234 
L 1294 2234 
L 1294 2753 
L 1863 2753 
Q 2328 2753 2575 2939 
Q 2822 3125 2822 3475 
Q 2822 3834 2567 4026 
Q 2313 4219 1838 4219 
Q 1578 4219 1281 4162 
Q 984 4106 628 3988 
L 628 4550 
Q 988 4650 1302 4700 
Q 1616 4750 1894 4750 
Q 2613 4750 3031 4423 
Q 3450 4097 3450 3541 
Q 3450 3153 3228 2886 
Q 3006 2619 2597 2516 
z
" transform="scale(0.015625)"/>
       </defs>
       <use xlink:href="#DejaVuSans-2212"/>
       <use xlink:href="#DejaVuSans-33" x="83.789062"/>
       <use xlink:href="#DejaVuSans-30" x="147.412109"/>
      </g>
     </g>
    </g>
    <g id="ytick_2">
     <g id="line2d_9">
      <g>
       <use xlink:href="#m791c80a31c" x="90" y="424.125208" style="stroke: #000000; stroke-width: 0.8"/>
      </g>
     </g>
     <g id="text_10">
      <!-- −20 -->
      <g transform="translate(61.895313 427.924427)scale(0.1 -0.1)">
       <use xlink:href="#DejaVuSans-2212"/>
       <use xlink:href="#DejaVuSans-32" x="83.789062"/>
       <use xlink:href="#DejaVuSans-30" x="147.412109"/>
      </g>
     </g>
    </g>
    <g id="ytick_3">
     <g id="line2d_10">
      <g>
       <use xlink:href="#m791c80a31c" x="90" y="357.502604" style="stroke: #000000; stroke-width: 0.8"/>
      </g>
     </g>
     <g id="text_11">
      <!-- −10 -->
      <g transform="translate(61.895313 361.301823)scale(0.1 -0.1)">
       <use xlink:href="#DejaVuSans-2212"/>
       <use xlink:href="#DejaVuSans-31" x="83.789062"/>
       <use xlink:href="#DejaVuSans-30" x="147.412109"/>
      </g>
     </g>
    </g>
    <g id="ytick_4">
     <g id="line2d_11">
      <g>
       <use xlink:href="#m791c80a31c" x="90" y="290.88" style="stroke: #000000; stroke-width: 0.8"/>
      </g>
     </g>
     <g id="text_12">
      <!-- 0 -->
      <g transform="translate(76.6375 294.679219)scale(0.1 -0.1)">
       <use xlink:href="#DejaVuSans-30"/>
      </g>
     </g>
    </g>
    <g id="ytick_5">
     <g id="line2d_12">
      <g>
       <use xlink:href="#m791c80a31c" x="90" y="224.257396" style="stroke: #000000; stroke-width: 0.8"/>
      </g>
     </g>
     <g id="text_13">
      <!-- 10 -->
      <g transform="translate(70.275 228.056615)scale(0.1 -0.1)">
       <use xlink:href="#DejaVuSans-31"/>
       <use xlink:href="#DejaVuSans-30" x="63.623047"/>
      </g>
     </g>
    </g>
    <g id="ytick_6">
     <g id="line2d_13">
      <g>
       <use xlink:href="#m791c80a31c" x="90" y="157.634792" style="stroke: #000000; stroke-width: 0.8"/>
      </g>
     </g>
     <g id="text_14">
      <!-- 20 -->
      <g transform="translate(70.275 161.434011)scale(0.1 -0.1)">
       <use xlink:href="#DejaVuSans-32"/>
       <use xlink:href="#DejaVuSans-30" x="63.623047"/>
      </g>
     </g>
    </g>
    <g id="ytick_7">
     <g id="line2d_14">
      <g>
       <use xlink:href="#m791c80a31c" x="90" y="91.012188" style="stroke: #000000; stroke-width: 0.8"/>
      </g>
     </g>
     <g id="text_15">
      <!-- 30 -->
      <g transform="translate(70.275 94.811406)scale(0.1 -0.1)">
       <use xlink:href="#DejaVuSans-33"/>
       <use xlink:href="#DejaVuSans-30" x="63.623047"/>
      </g>
     </g>
    </g>
    <g id="text_16">
     <!-- Density of States (arbitrary) -->
     <g transform="translate(53.735937 431.108125)rotate(-90)scale(0.2 -0.2)">
      <defs>
       <path id="DejaVuSans-44" d="M 1259 4147 
L 1259 519 
L 2022 519 
Q 2988 519 3436 956 
Q 3884 1394 3884 2338 
Q 3884 3275 3436 3711 
Q 2988 4147 2022 4147 
L 1259 4147 
z
M 628 4666 
L 1925 4666 
Q 3281 4666 3915 4102 
Q 4550 3538 4550 2338 
Q 4550 1131 3912 565 
Q 3275 0 1925 0 
L 628 0 
L 628 4666 
z
" transform="scale(0.015625)"/>
       <path id="DejaVuSans-73" d="M 2834 3397 
L 2834 2853 
Q 2591 2978 2328 3040 
Q 2066 3103 1784 3103 
Q 1356 3103 1142 2972 
Q 928 2841 928 2578 
Q 928 2378 1081 2264 
Q 1234 2150 1697 2047 
L 1894 2003 
Q 2506 1872 2764 1633 
Q 3022 1394 3022 966 
Q 3022 478 2636 193 
Q 2250 -91 1575 -91 
Q 1294 -91 989 -36 
Q 684 19 347 128 
L 347 722 
Q 666 556 975 473 
Q 1284 391 1588 391 
Q 1994 391 2212 530 
Q 2431 669 2431 922 
Q 2431 1156 2273 1281 
Q 2116 1406 1581 1522 
L 1381 1569 
Q 847 1681 609 1914 
Q 372 2147 372 2553 
Q 372 3047 722 3315 
Q 1072 3584 1716 3584 
Q 2034 3584 2315 3537 
Q 2597 3491 2834 3397 
z
" transform="scale(0.015625)"/>
       <path id="DejaVuSans-69" d="M 603 3500 
L 1178 3500 
L 1178 0 
L 603 0 
L 603 3500 
z
M 603 4863 
L 1178 4863 
L 1178 4134 
L 603 4134 
L 603 4863 
z
" transform="scale(0.015625)"/>
       <path id="DejaVuSans-74" d="M 1172 4494 
L 1172 3500 
L 2356 3500 
L 2356 3053 
L 1172 3053 
L 1172 1153 
Q 1172 725 1289 603 
Q 1406 481 1766 481 
L 2356 481 
L 2356 0 
L 1766 0 
Q 1100 0 847 248 
Q 594 497 594 1153 
L 594 3053 
L 172 3053 
L 172 3500 
L 594 3500 
L 594 4494 
L 1172 4494 
z
" transform="scale(0.015625)"/>
       <path id="DejaVuSans-6f" d="M 1959 3097 
Q 1497 3097 1228 2736 
Q 959 2375 959 1747 
Q 959 1119 1226 758 
Q 1494 397 1959 397 
Q 2419 397 2687 759 
Q 2956 1122 2956 1747 
Q 2956 2369 2687 2733 
Q 2419 3097 1959 3097 
z
M 1959 3584 
Q 2709 3584 3137 3096 
Q 3566 2609 3566 1747 
Q 3566 888 3137 398 
Q 2709 -91 1959 -91 
Q 1206 -91 779 398 
Q 353 888 353 1747 
Q 353 2609 779 3096 
Q 1206 3584 1959 3584 
z
" transform="scale(0.015625)"/>
       <path id="DejaVuSans-66" d="M 2375 4863 
L 2375 4384 
L 1825 4384 
Q 1516 4384 1395 4259 
Q 1275 4134 1275 3809 
L 1275 3500 
L 2222 3500 
L 2222 3053 
L 1275 3053 
L 1275 0 
L 697 0 
L 697 3053 
L 147 3053 
L 147 3500 
L 697 3500 
L 697 3744 
Q 697 4328 969 4595 
Q 1241 4863 1831 4863 
L 2375 4863 
z
" transform="scale(0.015625)"/>
       <path id="DejaVuSans-53" d="M 3425 4513 
L 3425 3897 
Q 3066 4069 2747 4153 
Q 2428 4238 2131 4238 
Q 1616 4238 1336 4038 
Q 1056 3838 1056 3469 
Q 1056 3159 1242 3001 
Q 1428 2844 1947 2747 
L 2328 2669 
Q 3034 2534 3370 2195 
Q 3706 1856 3706 1288 
Q 3706 609 3251 259 
Q 2797 -91 1919 -91 
Q 1588 -91 1214 -16 
Q 841 59 441 206 
L 441 856 
Q 825 641 1194 531 
Q 1563 422 1919 422 
Q 2459 422 2753 634 
Q 3047 847 3047 1241 
Q 3047 1584 2836 1778 
Q 2625 1972 2144 2069 
L 1759 2144 
Q 1053 2284 737 2584 
Q 422 2884 422 3419 
Q 422 4038 858 4394 
Q 1294 4750 2059 4750 
Q 2388 4750 2728 4690 
Q 3069 4631 3425 4513 
z
" transform="scale(0.015625)"/>
       <path id="DejaVuSans-61" d="M 2194 1759 
Q 1497 1759 1228 1600 
Q 959 1441 959 1056 
Q 959 750 1161 570 
Q 1363 391 1709 391 
Q 2188 391 2477 730 
Q 2766 1069 2766 1631 
L 2766 1759 
L 2194 1759 
z
M 3341 1997 
L 3341 0 
L 2766 0 
L 2766 531 
Q 2569 213 2275 61 
Q 1981 -91 1556 -91 
Q 1019 -91 701 211 
Q 384 513 384 1019 
Q 384 1609 779 1909 
Q 1175 2209 1959 2209 
L 2766 2209 
L 2766 2266 
Q 2766 2663 2505 2880 
Q 2244 3097 1772 3097 
Q 1472 3097 1187 3025 
Q 903 2953 641 2809 
L 641 3341 
Q 956 3463 1253 3523 
Q 1550 3584 1831 3584 
Q 2591 3584 2966 3190 
Q 3341 2797 3341 1997 
z
" transform="scale(0.015625)"/>
       <path id="DejaVuSans-62" d="M 3116 1747 
Q 3116 2381 2855 2742 
Q 2594 3103 2138 3103 
Q 1681 3103 1420 2742 
Q 1159 2381 1159 1747 
Q 1159 1113 1420 752 
Q 1681 391 2138 391 
Q 2594 391 2855 752 
Q 3116 1113 3116 1747 
z
M 1159 2969 
Q 1341 3281 1617 3432 
Q 1894 3584 2278 3584 
Q 2916 3584 3314 3078 
Q 3713 2572 3713 1747 
Q 3713 922 3314 415 
Q 2916 -91 2278 -91 
Q 1894 -91 1617 61 
Q 1341 213 1159 525 
L 1159 0 
L 581 0 
L 581 4863 
L 1159 4863 
L 1159 2969 
z
" transform="scale(0.015625)"/>
      </defs>
      <use xlink:href="#DejaVuSans-44"/>
      <use xlink:href="#DejaVuSans-65" x="77.001953"/>
      <use xlink:href="#DejaVuSans-6e" x="138.525391"/>
      <use xlink:href="#DejaVuSans-73" x="201.904297"/>
      <use xlink:href="#DejaVuSans-69" x="254.003906"/>
      <use xlink:href="#DejaVuSans-74" x="281.787109"/>
      <use xlink:href="#DejaVuSans-79" x="320.996094"/>
      <use xlink:href="#DejaVuSans-20" x="380.175781"/>
      <use xlink:href="#DejaVuSans-6f" x="411.962891"/>
      <use xlink:href="#DejaVuSans-66" x="473.144531"/>
      <use xlink:href="#DejaVuSans-20" x="508.349609"/>
      <use xlink:href="#DejaVuSans-53" x="540.136719"/>
      <use xlink:href="#DejaVuSans-74" x="603.613281"/>
      <use xlink:href="#DejaVuSans-61" x="642.822266"/>
      <use xlink:href="#DejaVuSans-74" x="704.101562"/>
      <use xlink:href="#DejaVuSans-65" x="743.310547"/>
      <use xlink:href="#DejaVuSans-73" x="804.833984"/>
      <use xlink:href="#DejaVuSans-20" x="856.933594"/>
      <use xlink:href="#DejaVuSans-28" x="888.720703"/>
      <use xlink:href="#DejaVuSans-61" x="927.734375"/>
      <use xlink:href="#DejaVuSans-72" x="989.013672"/>
      <use xlink:href="#DejaVuSans-62" x="1030.126953"/>
      <use xlink:href="#DejaVuSans-69" x="1093.603516"/>
      <use xlink:href="#DejaVuSans-74" x="1121.386719"/>
      <use xlink:href="#DejaVuSans-72" x="1160.595703"/>
      <use xlink:href="#DejaVuSans-61" x="1201.708984"/>
      <use xlink:href="#DejaVuSans-72" x="1262.988281"/>
      <use xlink:href="#DejaVuSans-79" x="1304.101562"/>
      <use xlink:href="#DejaVuSans-29" x="1363.28125"/>
     </g>
    </g>
   </g>
   <g id="line2d_15">
    <path d="M 115.363636 290.88 
L 138.193859 290.88 
L 138.451059 290.476001 
L 138.708258 290.465008 
L 139.464727 290.029229 
L 141.991332 289.241084 
L 146.061133 287.974588 
L 148.587738 286.886641 
L 150.115805 285.55219 
L 150.373004 284.426935 
L 150.615074 284.640793 
L 150.872273 284.47357 
L 151.129473 284.672772 
L 154.427676 285.000555 
L 158.225148 285.472243 
L 158.482348 285.364981 
L 158.996746 285.488233 
L 159.496016 285.824677 
L 159.753215 285.732071 
L 160.010414 286.522882 
L 160.766883 287.423619 
L 162.03775 288.280386 
L 165.593153 289.743418 
L 165.835223 285.924611 
L 166.092422 285.292362 
L 167.10609 278.801322 
L 167.620489 273.471514 
L 167.862559 269.820595 
L 168.119758 254.737237 
L 168.376957 217.661758 
L 169.133426 250.047006 
L 169.390625 245.569967 
L 169.647825 254.917118 
L 169.905024 253.3315 
L 170.147094 256.416127 
L 170.404293 251.965737 
L 170.661492 259.427469 
L 170.918692 258.654646 
L 171.160762 250.040344 
L 171.417961 246.849121 
L 171.67516 262.23228 
L 172.17443 272.039128 
L 172.946028 281.732716 
L 173.188098 287.578184 
L 173.445297 290.445487 
L 173.702496 290.88 
L 231.526958 290.88 
L 231.784157 283.198414 
L 232.298556 257.708605 
L 232.797825 186.149266 
L 233.055024 131.985089 
L 233.312224 169.160502 
L 233.554294 89.28 
L 233.811493 107.134858 
L 234.068692 97.741071 
L 234.325892 193.544375 
L 234.567962 168.827389 
L 234.825161 209.400555 
L 235.08236 229.480608 
L 235.581629 179.020648 
L 235.838829 119.526662 
L 236.096028 129.120317 
L 236.353227 226.769068 
L 236.610427 253.238229 
L 236.852497 262.79191 
L 237.624095 270.560106 
L 238.123364 285.768714 
L 238.380563 289.141816 
L 238.637763 290.88 
L 325.374455 290.88 
L 325.631654 289.702112 
L 325.888853 289.869335 
L 326.130923 289.570866 
L 326.388123 289.448946 
L 327.401791 288.588182 
L 327.65899 288.482252 
L 327.916189 288.064529 
L 328.158259 288.039212 
L 328.929857 287.387643 
L 329.686326 286.537539 
L 331.214392 284.442924 
L 331.456462 283.791355 
L 332.22806 282.59881 
L 332.47013 281.932584 
L 332.72733 281.766028 
L 332.984529 281.366292 
L 333.241728 279.967217 
L 333.498928 280.513523 
L 333.740998 281.639445 
L 333.998197 280.833311 
L 334.512596 280.227046 
L 334.754666 281.366292 
L 335.011865 281.546173 
L 335.269064 281.426252 
L 335.768334 281.699405 
L 336.282732 281.459564 
L 336.782001 280.420251 
L 337.039201 280.680079 
L 337.2964 280.406927 
L 337.553599 279.88727 
L 337.810799 279.667416 
L 338.567267 279.647429 
L 339.066537 279.460886 
L 339.838135 278.121771 
L 340.080205 278.0285 
L 340.337404 277.648751 
L 340.851803 278.981203 
L 341.093873 278.035162 
L 341.351072 281.1531 
L 341.608271 281.519524 
L 341.865471 281.29967 
L 342.879139 281.83265 
L 343.378408 282.985221 
L 344.906474 283.371633 
L 346.177342 283.538189 
L 346.93381 283.324997 
L 347.19101 280.493536 
L 347.448209 280.340304 
L 347.690279 274.650734 
L 347.947478 271.646054 
L 348.461877 276.08312 
L 348.703947 277.05581 
L 349.475545 276.549478 
L 349.974814 276.382921 
L 350.232014 276.662736 
L 350.731283 277.535492 
L 350.988482 279.014514 
L 351.245681 278.574805 
L 351.502881 279.007852 
L 352.516549 278.881269 
L 352.773748 278.774673 
L 353.015818 278.155083 
L 353.273017 277.861943 
L 353.530217 278.035162 
L 354.029486 277.73536 
L 354.286685 274.131077 
L 354.801084 272.032465 
L 355.557553 275.416894 
L 356.071951 276.716034 
L 356.314021 276.902578 
L 356.82842 278.288328 
L 357.584889 278.827971 
L 360.883092 280.586808 
L 361.63956 280.500198 
L 362.153959 280.147098 
L 362.411158 280.120449 
L 362.910428 280.706728 
L 363.167627 281.239709 
L 363.424826 281.399603 
L 364.438494 281.186411 
L 365.951431 280.979881 
L 366.46583 280.59347 
L 366.723029 280.400264 
L 366.965099 278.041824 
L 367.479498 279.340965 
L 367.736697 281.146438 
L 369.249635 282.025856 
L 369.506834 280.540172 
L 370.263303 282.785354 
L 370.520502 283.285023 
L 371.791369 283.524865 
L 373.319436 283.538189 
L 373.561506 281.599471 
L 374.075904 282.792016 
L 374.333104 283.30501 
L 374.575174 283.218401 
L 375.089572 283.504878 
L 375.346772 283.005208 
L 375.588842 283.171765 
L 375.846041 283.518202 
L 376.10324 279.600793 
L 376.36044 284.044521 
L 377.374108 284.431598 
L 377.873377 284.596822 
L 378.387776 284.622805 
L 378.644975 284.887297 
L 380.157912 284.748722 
L 381.428779 284.527535 
L 382.185248 284.164442 
L 382.442447 283.36497 
L 382.699647 283.578163 
L 383.456115 282.931923 
L 383.713315 283.118467 
L 384.469783 282.292346 
L 384.726983 282.358969 
L 384.984182 282.712069 
L 385.226252 283.551514 
L 386.23992 284.608148 
L 386.497119 282.432254 
L 386.754319 283.318334 
L 387.011518 283.704746 
L 387.268717 283.524865 
L 387.510787 283.971236 
L 387.767986 284.124468 
L 388.025186 284.13113 
L 388.282385 283.897951 
L 388.524455 284.422271 
L 389.296053 284.279699 
L 389.795322 284.592159 
L 390.052522 284.535529 
L 390.551791 285.418279 
L 391.06619 285.59283 
L 391.580588 285.522876 
L 392.836326 284.29702 
L 394.107194 283.731395 
L 394.364393 284.024534 
L 394.863662 284.184428 
L 396.134529 283.911276 
L 397.405397 283.591487 
L 398.419065 283.078493 
L 398.676264 283.291685 
L 398.933463 283.265036 
L 399.432733 283.524865 
L 400.204331 283.438255 
L 403.744604 283.025195 
L 404.001803 281.266358 
L 404.259002 281.706067 
L 404.516202 281.392941 
L 404.758272 280.620119 
L 405.015471 277.435558 
L 405.27267 277.355611 
L 405.77194 279.181071 
L 406.543538 280.380278 
L 406.785608 280.440238 
L 407.042807 280.293668 
L 407.300006 279.480872 
L 407.557206 280.586808 
L 407.799276 280.720053 
L 408.056475 280.247032 
L 408.313674 279.281005 
L 408.570874 278.821309 
L 409.070143 278.541494 
L 409.327342 279.387601 
L 409.584541 280.700066 
L 409.841741 278.241692 
L 410.34101 277.708711 
L 410.598209 277.762009 
L 410.855409 276.729359 
L 411.354678 275.983186 
L 411.611877 269.987151 
L 412.368346 274.417555 
L 412.625545 274.144402 
L 412.882745 278.141758 
L 413.382014 280.100463 
L 413.639213 279.354289 
L 413.896413 280.839974 
L 414.652881 282.592148 
L 415.40935 283.025195 
L 415.666549 282.878625 
L 416.423018 283.484891 
L 416.937416 283.857978 
L 417.451815 284.051183 
L 418.465483 284.231064 
L 418.964752 284.421605 
L 419.479151 284.674771 
L 419.721221 284.577502 
L 419.97842 284.797356 
L 420.492819 284.841327 
L 422.520155 284.48956 
L 422.777354 284.722073 
L 424.290291 284.197753 
L 424.80469 284.239059 
L 425.04676 281.552835 
L 425.303959 282.005869 
L 425.561159 281.586147 
L 425.818358 282.998546 
L 426.060428 282.785354 
L 426.317627 282.732056 
L 426.574827 283.065169 
L 426.832026 283.205076 
L 427.089225 282.672095 
L 427.331295 282.505539 
L 427.588495 282.612135 
L 428.102893 283.165102 
L 428.344963 279.56082 
L 428.602163 283.031857 
L 428.859362 284.674104 
L 429.116561 285.125806 
L 429.615831 287.143804 
L 429.87303 286.94327 
L 430.130229 286.590171 
L 430.629498 286.283707 
L 430.886698 286.104492 
L 431.401096 286.097829 
L 432.157565 285.807355 
L 432.656834 285.518879 
L 433.428432 285.218411 
L 434.94137 284.21774 
L 435.455768 283.71807 
L 435.955038 283.01187 
L 436.212237 282.099141 
L 436.469436 281.806001 
L 436.726636 281.706067 
L 437.225905 281.679418 
L 437.740304 281.386279 
L 438.496772 280.666755 
L 438.753971 280.726715 
L 439.253241 280.38694 
L 440.524108 279.747363 
L 440.781307 279.387601 
L 441.280577 277.908579 
L 441.537776 277.788658 
L 441.794975 277.835294 
L 442.052175 277.755347 
L 442.294245 277.049147 
L 443.065843 270.799947 
L 443.565112 277.622102 
L 444.33671 280.926583 
L 444.57878 281.246371 
L 444.835979 280.047165 
L 445.093178 278.201718 
L 445.350378 274.604098 
L 445.592448 273.671381 
L 445.849647 273.424878 
L 446.106846 272.905221 
L 446.606116 272.45885 
L 446.863315 272.838599 
L 447.120514 270.700013 
L 447.876983 274.5508 
L 448.134182 275.043807 
L 448.648581 275.150403 
L 448.890651 275.037145 
L 449.40505 273.185036 
L 449.662249 273.171712 
L 449.904319 271.452849 
L 450.418718 263.125023 
L 450.675917 267.255625 
L 450.917987 261.652664 
L 451.175186 260.513417 
L 451.432386 239.927032 
L 451.689585 261.492769 
L 451.931655 264.210972 
L 452.446053 275.250337 
L 453.716921 287.345005 
L 454.473389 287.025216 
L 454.730589 287.253732 
L 454.987788 287.157129 
L 455.487057 287.11449 
L 456.243526 286.989906 
L 457.015124 286.935276 
L 459.798928 286.260389 
L 462.839932 285.43227 
L 463.354331 285.24506 
L 464.367999 285.013213 
L 464.867268 284.659447 
L 465.124468 284.446255 
L 465.638866 284.44359 
L 465.880936 284.256381 
L 466.138136 283.897951 
L 466.909734 285.335667 
L 469.436339 285.113814 
L 470.192807 284.846657 
L 470.964405 284.310345 
L 471.221605 284.051183 
L 471.720874 282.352307 
L 471.978073 282.059167 
L 472.235273 281.97922 
L 472.477343 282.099141 
L 473.248941 283.951249 
L 475.019077 285.281703 
L 476.547144 287.101832 
L 476.789214 287.157795 
L 477.046413 287.369655 
L 478.060081 286.680111 
L 478.31728 286.485573 
L 478.81655 284.608148 
L 479.073749 284.699421 
L 479.845347 282.632122 
L 480.344616 280.53351 
L 480.601816 280.067151 
L 480.859015 280.113787 
L 481.101085 279.300991 
L 481.615483 280.253695 
L 481.872683 280.493536 
L 483.128421 284.536196 
L 483.642819 285.156452 
L 483.900019 285.343662 
L 484.157218 285.384968 
L 484.399288 285.6881 
L 484.656487 285.777375 
L 484.913687 285.370311 
L 485.170886 285.862652 
L 485.412956 285.542863 
L 485.670155 288.137814 
L 486.426624 287.934615 
L 487.440292 287.671455 
L 487.697491 287.101832 
L 487.954691 287.486911 
L 489.982026 287.43761 
L 490.496425 287.541541 
L 493.537429 287.674787 
L 497.092831 287.786712 
L 500.633105 287.833348 
L 502.91764 287.839344 
L 507.229511 287.973922 
L 510.784913 287.933282 
L 511.541382 288.019225 
L 512.055781 287.943942 
L 513.311519 287.969925 
L 513.568718 287.383646 
L 513.825917 287.848672 
L 514.839585 287.839344 
L 515.096785 287.390974 
L 515.353984 287.283046 
L 516.110453 287.605499 
L 517.38132 288.081851 
L 517.880589 288.280386 
L 518.137788 284.07117 
L 518.394988 290.426766 
L 526.247132 289.849348 
L 531.073402 289.295048 
L 533.357937 288.780722 
L 534.371605 288.428954 
L 534.628804 288.247741 
L 535.385273 286.570184 
L 535.884542 286.111154 
L 536.398941 285.963918 
L 537.15541 285.964584 
L 537.927008 286.195765 
L 538.426277 286.356991 
L 539.182745 286.172447 
L 539.697144 286.46492 
L 540.196413 286.455593 
L 540.453613 286.283707 
L 541.210081 286.506226 
L 541.467281 286.009221 
L 541.72448 286.895968 
L 541.981679 287.153132 
L 544.009015 287.772722 
L 545.779152 287.917959 
L 548.578086 288.433618 
L 548.820156 288.066527 
L 549.077355 288.569528 
L 549.591754 288.702107 
L 549.833824 287.72009 
L 550.091023 287.901303 
L 550.862621 287.045869 
L 551.36189 285.482237 
L 551.61909 285.066512 
L 551.876289 284.913946 
L 552.118359 284.07117 
L 552.375558 284.164442 
L 553.389226 284.104481 
L 553.646425 284.397621 
L 553.903625 284.291691 
L 554.145695 283.991223 
L 554.660093 284.197753 
L 555.673761 284.233729 
L 556.18816 284.223069 
L 556.944629 284.259046 
L 558.714765 284.295022 
L 560.500031 284.399619 
L 563.283836 284.628801 
L 566.32484 284.784698 
L 567.081308 285.019876 
L 567.595707 285.005885 
L 567.852906 284.893293 
L 569.365843 285.051188 
L 570.137441 284.877303 
L 570.89391 284.490892 
L 571.393179 284.064508 
L 571.650379 283.678096 
L 572.664047 280.913258 
L 572.921246 280.633443 
L 573.178445 280.646768 
L 573.435645 280.899934 
L 573.934914 280.813325 
L 574.948582 280.560159 
L 575.205781 279.947231 
L 575.46298 279.700727 
L 575.70505 278.161745 
L 575.96225 278.135096 
L 576.219449 278.474871 
L 576.476648 279.007852 
L 577.747516 284.714744 
L 578.246785 285.778707 
L 578.503984 286.151794 
L 578.761184 285.265047 
L 579.003254 287.209761 
L 579.260453 287.692775 
L 580.016922 288.003236 
L 580.274121 287.958599 
L 580.78852 288.156468 
L 581.287789 288.057866 
L 581.544988 288.644145 
L 582.059387 288.89931 
L 583.829523 289.309705 
L 587.127727 289.800714 
L 591.439598 290.197118 
L 592.453266 290.255746 
L 594.480602 290.40065 
L 594.737801 290.017237 
L 596.507937 290.65295 
L 599.548941 290.812978 
L 599.806141 290.735162 
L 600.06334 290.88 
L 622.636364 290.88 
L 622.636364 290.88 
" clip-path="url(#p41160cb443)" style="fill: none; stroke: #006400; stroke-width: 2; stroke-linecap: square"/>
   </g>
   <g id="line2d_16">
    <path d="M 115.363636 290.88 
L 138.193859 290.88 
L 138.451059 291.283933 
L 138.708258 291.294992 
L 139.464727 291.730771 
L 141.991332 292.518916 
L 146.061133 293.785412 
L 148.587738 294.873359 
L 150.115805 296.20781 
L 150.373004 297.333065 
L 150.615074 297.119207 
L 150.872273 297.28643 
L 151.129473 297.087228 
L 154.427676 296.759445 
L 158.225148 296.287757 
L 158.482348 296.395019 
L 158.996746 296.271767 
L 159.496016 295.935323 
L 159.753215 296.027929 
L 160.010414 295.237118 
L 160.766883 294.336381 
L 162.03775 293.479614 
L 165.593153 292.016582 
L 165.835223 295.835389 
L 166.092422 296.467638 
L 167.10609 302.958678 
L 167.620489 308.288486 
L 167.862559 311.939405 
L 168.119758 327.0161 
L 168.376957 364.098242 
L 169.133426 331.712994 
L 169.390625 336.176709 
L 169.647825 326.842882 
L 169.905024 328.4285 
L 170.147094 325.343873 
L 170.404293 329.807588 
L 170.661492 322.332531 
L 170.918692 323.112016 
L 171.160762 331.712994 
L 171.417961 334.910879 
L 171.67516 319.52772 
L 172.17443 309.720872 
L 172.946028 300.027284 
L 173.188098 294.182482 
L 173.445297 291.314513 
L 173.702496 290.88 
L 231.526958 290.88 
L 231.784157 298.561586 
L 232.298556 324.051395 
L 232.797825 395.610734 
L 233.055024 449.774911 
L 233.312224 412.599498 
L 233.554294 492.48 
L 233.811493 474.625142 
L 234.068692 484.018929 
L 234.325892 388.215625 
L 234.567962 412.932611 
L 234.825161 372.359445 
L 235.08236 352.279392 
L 235.581629 402.739352 
L 235.838829 462.233338 
L 236.096028 452.639683 
L 236.353227 354.990932 
L 236.610427 328.521771 
L 236.852497 318.96809 
L 237.624095 311.199894 
L 238.123364 295.991286 
L 238.380563 292.618184 
L 238.637763 290.88 
L 325.374455 290.88 
L 325.631654 292.057888 
L 325.888853 291.890665 
L 326.130923 292.189134 
L 326.388123 292.311054 
L 327.401791 293.171818 
L 327.65899 293.277748 
L 327.916189 293.695471 
L 328.158259 293.720788 
L 328.929857 294.372357 
L 329.686326 295.222461 
L 331.214392 297.317076 
L 331.456462 297.968645 
L 332.22806 299.16119 
L 332.47013 299.827416 
L 332.72733 299.993972 
L 332.984529 300.393708 
L 333.241728 301.792783 
L 333.498928 301.246477 
L 333.740998 300.120555 
L 333.998197 300.926689 
L 334.512596 301.532954 
L 334.754666 300.393708 
L 335.011865 300.213827 
L 335.269064 300.333748 
L 335.768334 300.060595 
L 336.282732 300.300436 
L 336.782001 301.339749 
L 337.039201 301.079921 
L 337.2964 301.353073 
L 337.553599 301.87273 
L 337.810799 302.092584 
L 338.567267 302.112571 
L 339.066537 302.299114 
L 339.838135 303.638229 
L 340.080205 303.7315 
L 340.337404 304.111249 
L 340.851803 302.778797 
L 341.093873 303.724838 
L 341.351072 300.6069 
L 341.608271 300.240476 
L 341.865471 300.46033 
L 342.879139 299.92735 
L 343.378408 298.774779 
L 344.906474 298.388367 
L 346.177342 298.221811 
L 346.93381 298.435003 
L 347.19101 301.266464 
L 347.448209 301.419696 
L 347.690279 307.109266 
L 347.947478 310.113946 
L 348.461877 305.67688 
L 348.703947 304.70419 
L 349.475545 305.210522 
L 349.974814 305.377079 
L 350.232014 305.097264 
L 350.731283 304.224508 
L 350.988482 302.745486 
L 351.245681 303.185195 
L 351.502881 302.752148 
L 352.516549 302.878731 
L 352.773748 302.985327 
L 353.015818 303.604917 
L 353.273017 303.898057 
L 353.530217 303.724838 
L 354.029486 304.02464 
L 354.286685 307.628923 
L 354.801084 309.727535 
L 355.557553 306.343106 
L 356.071951 305.043966 
L 356.314021 304.857422 
L 356.82842 303.471672 
L 357.584889 302.932029 
L 360.883092 301.173192 
L 361.63956 301.259802 
L 362.153959 301.612902 
L 362.411158 301.639551 
L 362.910428 301.053272 
L 363.167627 300.520291 
L 363.424826 300.360397 
L 364.438494 300.573589 
L 365.951431 300.780119 
L 366.46583 301.16653 
L 366.723029 301.359736 
L 366.965099 303.718176 
L 367.479498 302.419035 
L 367.736697 300.613562 
L 369.249635 299.734144 
L 369.506834 301.219828 
L 370.263303 298.974646 
L 370.520502 298.474977 
L 371.791369 298.235135 
L 373.319436 298.221811 
L 373.561506 300.160529 
L 374.075904 298.967984 
L 374.333104 298.45499 
L 374.575174 298.541599 
L 375.089572 298.255122 
L 375.346772 298.754792 
L 375.588842 298.588235 
L 375.846041 298.241798 
L 376.10324 302.159207 
L 376.36044 297.715479 
L 377.374108 297.328402 
L 377.873377 297.163178 
L 378.387776 297.137195 
L 378.644975 296.872703 
L 380.157912 297.011278 
L 381.428779 297.232465 
L 382.185248 297.595558 
L 382.442447 298.39503 
L 382.699647 298.181837 
L 383.456115 298.828077 
L 383.713315 298.641533 
L 384.469783 299.467654 
L 384.726983 299.401031 
L 384.984182 299.047931 
L 385.226252 298.208486 
L 386.23992 297.151852 
L 386.497119 299.327746 
L 386.754319 298.441666 
L 387.011518 298.055254 
L 387.268717 298.235135 
L 387.510787 297.788764 
L 387.767986 297.635532 
L 388.025186 297.62887 
L 388.282385 297.862049 
L 388.524455 297.337729 
L 389.296053 297.480301 
L 389.795322 297.167841 
L 390.052522 297.224471 
L 390.551791 296.341721 
L 391.06619 296.16717 
L 391.580588 296.237124 
L 392.836326 297.46298 
L 394.107194 298.028605 
L 394.364393 297.735466 
L 394.863662 297.575572 
L 396.134529 297.848724 
L 397.405397 298.168513 
L 398.419065 298.681507 
L 398.676264 298.468315 
L 398.933463 298.494964 
L 399.432733 298.235135 
L 400.204331 298.321745 
L 403.744604 298.734805 
L 404.001803 300.493642 
L 404.259002 300.053933 
L 404.516202 300.367059 
L 404.758272 301.139881 
L 405.015471 304.324442 
L 405.27267 304.404389 
L 405.77194 302.578929 
L 406.543538 301.379722 
L 406.785608 301.319762 
L 407.042807 301.466332 
L 407.300006 302.279128 
L 407.557206 301.173192 
L 407.799276 301.039947 
L 408.056475 301.512968 
L 408.313674 302.478995 
L 408.570874 302.938691 
L 409.070143 303.218506 
L 409.327342 302.372399 
L 409.584541 301.059934 
L 409.841741 303.518308 
L 410.34101 304.051289 
L 410.598209 303.997991 
L 410.855409 305.030641 
L 411.354678 305.776814 
L 411.611877 311.772849 
L 412.368346 307.342445 
L 412.625545 307.615598 
L 412.882745 303.618242 
L 413.382014 301.659537 
L 413.639213 302.405711 
L 413.896413 300.920026 
L 414.652881 299.167852 
L 415.40935 298.734805 
L 415.666549 298.881375 
L 416.423018 298.275109 
L 416.937416 297.902022 
L 417.451815 297.708817 
L 418.465483 297.528936 
L 418.964752 297.338395 
L 419.479151 297.085229 
L 419.721221 297.182498 
L 419.97842 296.962644 
L 420.492819 296.918673 
L 422.520155 297.27044 
L 422.777354 297.037927 
L 424.290291 297.562247 
L 424.80469 297.520941 
L 425.04676 300.207165 
L 425.303959 299.754131 
L 425.561159 300.173853 
L 425.818358 298.761454 
L 426.060428 298.974646 
L 426.317627 299.027944 
L 426.574827 298.694831 
L 426.832026 298.554924 
L 427.089225 299.087905 
L 427.331295 299.254461 
L 427.588495 299.147865 
L 428.102893 298.594898 
L 428.344963 302.19918 
L 428.602163 298.728143 
L 428.859362 297.085896 
L 429.116561 296.634194 
L 429.615831 294.616196 
L 429.87303 294.81673 
L 430.130229 295.169829 
L 430.629498 295.476293 
L 430.886698 295.656174 
L 431.401096 295.661504 
L 432.157565 295.952645 
L 432.656834 296.241121 
L 433.428432 296.541589 
L 434.94137 297.54226 
L 435.455768 298.04193 
L 435.955038 298.74813 
L 436.212237 299.660859 
L 436.469436 299.953999 
L 436.726636 300.053933 
L 437.225905 300.080582 
L 437.740304 300.373721 
L 438.496772 301.093245 
L 438.753971 301.033285 
L 439.253241 301.37306 
L 440.524108 302.012637 
L 440.781307 302.372399 
L 441.280577 303.851421 
L 441.537776 303.971342 
L 441.794975 303.924706 
L 442.052175 304.004653 
L 442.294245 304.710853 
L 443.065843 310.960053 
L 443.565112 304.137898 
L 444.33671 300.833417 
L 444.57878 300.506966 
L 444.835979 301.712835 
L 445.093178 303.558282 
L 445.350378 307.155902 
L 445.592448 308.088619 
L 445.849647 308.32846 
L 446.106846 308.854779 
L 446.606116 309.30115 
L 446.863315 308.921401 
L 447.120514 311.059987 
L 447.876983 307.2092 
L 448.134182 306.716193 
L 448.648581 306.609597 
L 448.890651 306.722855 
L 449.40505 308.574964 
L 449.662249 308.588288 
L 449.904319 310.307151 
L 450.418718 318.634977 
L 450.675917 314.504375 
L 450.917987 320.107336 
L 451.175186 321.246583 
L 451.432386 341.886266 
L 451.689585 320.273893 
L 451.931655 317.555691 
L 452.446053 306.509663 
L 453.716921 294.414995 
L 454.473389 294.734784 
L 454.730589 294.506268 
L 454.987788 294.602871 
L 455.487057 294.64551 
L 456.243526 294.770094 
L 457.015124 294.824724 
L 459.798928 295.499611 
L 462.839932 296.32773 
L 463.354331 296.51494 
L 464.367999 296.746787 
L 464.867268 297.100553 
L 465.124468 297.313745 
L 465.638866 297.31641 
L 465.880936 297.503619 
L 466.138136 297.862049 
L 466.909734 296.424333 
L 469.436339 296.646186 
L 470.192807 296.913343 
L 470.964405 297.449655 
L 471.221605 297.708817 
L 471.720874 299.407693 
L 471.978073 299.700833 
L 472.235273 299.78078 
L 472.477343 299.660859 
L 473.248941 297.808751 
L 475.019077 296.478297 
L 476.547144 294.658168 
L 476.789214 294.602205 
L 477.046413 294.390345 
L 478.060081 295.079889 
L 478.31728 295.274427 
L 478.81655 297.151852 
L 479.073749 297.060579 
L 479.845347 299.127878 
L 480.344616 301.22649 
L 480.601816 301.692849 
L 480.859015 301.646213 
L 481.101085 302.459009 
L 481.615483 301.506305 
L 481.872683 301.266464 
L 483.128421 297.223804 
L 483.642819 296.603548 
L 483.900019 296.416338 
L 484.157218 296.375032 
L 484.399288 296.0719 
L 484.656487 295.982625 
L 484.913687 296.389689 
L 485.170886 295.897348 
L 485.412956 296.217137 
L 485.670155 293.622186 
L 486.426624 293.825385 
L 487.440292 294.088545 
L 487.697491 294.658168 
L 487.954691 294.273089 
L 489.982026 294.32239 
L 490.496425 294.218459 
L 493.537429 294.085213 
L 497.092831 293.973288 
L 500.633105 293.926652 
L 502.91764 293.920656 
L 507.229511 293.786078 
L 510.784913 293.826718 
L 511.541382 293.740775 
L 512.055781 293.816058 
L 513.311519 293.790075 
L 513.568718 294.376354 
L 513.825917 293.911328 
L 514.839585 293.920656 
L 515.096785 294.369026 
L 515.353984 294.476954 
L 516.110453 294.154501 
L 517.38132 293.678149 
L 517.880589 293.479614 
L 518.137788 297.68883 
L 518.394988 291.333234 
L 526.247132 291.910652 
L 531.073402 292.464952 
L 533.357937 292.979278 
L 534.371605 293.331046 
L 534.628804 293.512259 
L 535.385273 295.189816 
L 535.884542 295.648846 
L 536.398941 295.796082 
L 537.15541 295.795416 
L 537.927008 295.564235 
L 538.426277 295.403009 
L 539.182745 295.587553 
L 539.697144 295.29508 
L 540.196413 295.304407 
L 540.453613 295.476293 
L 541.210081 295.253774 
L 541.467281 295.750779 
L 541.72448 294.864032 
L 541.981679 294.606868 
L 544.009015 293.987278 
L 545.779152 293.842041 
L 548.578086 293.326382 
L 548.820156 293.693473 
L 549.077355 293.190472 
L 549.591754 293.057893 
L 549.833824 294.03991 
L 550.091023 293.858697 
L 550.862621 294.714131 
L 551.36189 296.277763 
L 551.61909 296.693488 
L 551.876289 296.846054 
L 552.118359 297.68883 
L 552.375558 297.595558 
L 553.389226 297.655519 
L 553.646425 297.362379 
L 553.903625 297.468309 
L 554.145695 297.768777 
L 554.660093 297.562247 
L 555.673761 297.526271 
L 556.18816 297.536931 
L 556.944629 297.500954 
L 558.714765 297.464978 
L 560.500031 297.360381 
L 563.283836 297.131199 
L 566.32484 296.975302 
L 567.081308 296.740124 
L 567.595707 296.754115 
L 567.852906 296.866707 
L 569.365843 296.708812 
L 570.137441 296.882697 
L 570.89391 297.269108 
L 571.393179 297.695492 
L 571.650379 298.081904 
L 572.664047 300.846742 
L 572.921246 301.126557 
L 573.178445 301.113232 
L 573.435645 300.860066 
L 573.934914 300.946675 
L 574.948582 301.199841 
L 575.205781 301.812769 
L 575.46298 302.059273 
L 575.70505 303.598255 
L 575.96225 303.624904 
L 576.219449 303.285129 
L 576.476648 302.752148 
L 577.747516 297.045256 
L 578.246785 295.981293 
L 578.503984 295.608206 
L 578.761184 296.494953 
L 579.003254 294.550239 
L 579.260453 294.067225 
L 580.016922 293.756764 
L 580.274121 293.801401 
L 580.78852 293.603532 
L 581.287789 293.702134 
L 581.544988 293.115855 
L 582.059387 292.86069 
L 583.829523 292.450295 
L 587.127727 291.959286 
L 591.439598 291.562882 
L 592.453266 291.504254 
L 594.480602 291.35935 
L 594.737801 291.742763 
L 596.507937 291.10705 
L 599.548941 290.947022 
L 599.806141 291.024838 
L 600.06334 290.88 
L 622.636364 290.88 
L 622.636364 290.88 
" clip-path="url(#p41160cb443)" style="fill: none; stroke: #006400; stroke-width: 2; stroke-linecap: square"/>
   </g>
   <g id="line2d_17">
    <path d="M 115.363636 290.88 
L 150.115805 290.770872 
L 151.885941 290.754017 
L 164.322285 290.816242 
L 165.593153 290.831432 
L 166.092422 290.702984 
L 167.862559 290.394921 
L 168.119758 289.898716 
L 168.376957 288.72296 
L 168.876227 289.663072 
L 169.133426 289.880728 
L 169.390625 289.791986 
L 169.647825 290.013773 
L 170.404293 289.98779 
L 170.661492 290.183061 
L 170.918692 290.200116 
L 171.160762 290.057877 
L 171.417961 290.039822 
L 171.67516 290.408712 
L 172.431629 290.729233 
L 173.445297 290.879467 
L 227.215087 290.88 
L 231.526958 290.88 
L 231.784157 283.48136 
L 232.298556 258.899484 
L 232.797825 189.814842 
L 233.055024 137.363465 
L 233.312224 173.187972 
L 233.554294 95.531066 
L 233.811493 112.57959 
L 234.068692 103.54843 
L 234.325892 196.514078 
L 234.567962 172.207754 
L 234.825161 212.319558 
L 235.08236 231.849242 
L 235.581629 182.647249 
L 235.838829 124.29251 
L 236.096028 134.195161 
L 236.353227 229.350427 
L 236.610427 255.031176 
L 236.852497 264.269599 
L 237.624095 271.734263 
L 238.123364 286.075378 
L 238.380563 289.24748 
L 238.637763 290.88 
L 325.374455 290.88 
L 325.631654 290.629233 
L 326.130923 290.604849 
L 329.187057 290.232362 
L 332.22806 289.643085 
L 333.498928 289.295515 
L 333.740998 289.467601 
L 334.255396 289.389719 
L 334.754666 289.512571 
L 337.039201 289.827496 
L 339.323736 289.900914 
L 340.594603 290.0732 
L 341.351072 290.333628 
L 344.906474 290.3754 
L 350.988482 290.351816 
L 351.245681 290.267405 
L 351.76008 290.378598 
L 354.029486 290.343288 
L 354.543885 290.127431 
L 355.043154 290.115506 
L 357.085619 290.325433 
L 361.89676 290.411443 
L 364.181295 290.458612 
L 366.723029 290.412109 
L 366.965099 290.252548 
L 367.479498 290.29532 
L 367.736697 290.452816 
L 373.319436 290.562543 
L 373.818705 290.518839 
L 375.846041 290.557147 
L 376.10324 290.344687 
L 376.36044 290.580998 
L 381.428779 290.583863 
L 387.268717 290.492856 
L 388.781654 290.543089 
L 390.309721 290.590392 
L 391.822658 290.613176 
L 395.378061 290.5774 
L 411.354678 290.555814 
L 411.611877 290.431696 
L 413.382014 290.667541 
L 414.395682 290.709979 
L 417.451815 290.772071 
L 423.791022 290.758747 
L 424.80469 290.704716 
L 425.303959 290.664609 
L 425.561159 290.397786 
L 426.060428 290.552483 
L 427.089225 290.707647 
L 428.102893 290.690925 
L 428.344963 290.313774 
L 428.602163 290.500984 
L 432.914034 290.278065 
L 435.455768 290.018636 
L 437.225905 289.70531 
L 442.294245 289.503044 
L 443.065843 288.660201 
L 443.565112 289.810974 
L 444.57878 290.423902 
L 445.093178 290.201982 
L 445.350378 289.928496 
L 445.849647 289.868935 
L 446.606116 289.945618 
L 447.876983 290.307512 
L 449.14785 290.392123 
L 450.161518 290.289391 
L 451.175186 290.194453 
L 451.432386 289.726163 
L 451.689585 290.278331 
L 452.188854 290.51724 
L 453.202522 290.594722 
L 453.97412 290.611378 
L 469.693538 289.900914 
L 470.964405 289.630959 
L 471.221605 289.556142 
L 471.720874 289.211504 
L 472.477343 289.054474 
L 475.276276 289.48832 
L 476.547144 289.961674 
L 477.560812 289.975065 
L 478.31728 289.827696 
L 478.81655 289.498447 
L 479.073749 289.478927 
L 479.845347 288.87939 
L 480.344616 288.236082 
L 480.601816 288.110232 
L 480.859015 288.135015 
L 481.101085 287.789111 
L 481.615483 288.113763 
L 481.872683 288.01776 
L 483.128421 289.45381 
L 484.399288 289.880594 
L 484.656487 289.921567 
L 484.913687 289.769401 
L 485.170886 289.965671 
L 485.412956 289.848815 
L 485.670155 290.858481 
L 513.311519 290.8796 
L 513.568718 290.625835 
L 513.825917 290.803517 
L 531.073402 290.211242 
L 534.114406 289.864871 
L 534.628804 289.735424 
L 535.385273 288.929423 
L 535.884542 288.715498 
L 536.91334 288.641081 
L 538.169078 288.808836 
L 538.683476 288.804906 
L 539.182745 288.765932 
L 539.954343 288.917764 
L 541.210081 288.938084 
L 541.467281 288.70244 
L 541.72448 289.116233 
L 542.238879 289.278126 
L 544.266215 289.530959 
L 547.050019 289.695583 
L 548.578086 289.827163 
L 548.820156 289.680926 
L 549.077355 289.883059 
L 549.591754 289.938356 
L 549.833824 289.560739 
L 550.091023 289.622498 
L 550.862621 289.261737 
L 551.36189 288.584518 
L 551.876289 288.308834 
L 552.118359 287.850204 
L 552.632758 287.925154 
L 553.389226 287.903036 
L 553.646425 288.037746 
L 554.660093 287.935614 
L 565.568371 287.992177 
L 566.32484 288.02189 
L 567.338508 288.095175 
L 570.636711 287.859997 
L 571.393179 287.567124 
L 571.650379 287.388842 
L 572.664047 286.122546 
L 572.921246 285.987969 
L 573.178445 285.986836 
L 573.677715 286.0919 
L 574.948582 285.928408 
L 575.46298 285.516614 
L 575.70505 284.662579 
L 575.96225 284.660713 
L 576.476648 285.084167 
L 577.747516 287.868658 
L 578.246785 288.362199 
L 578.503984 288.537483 
L 578.761184 288.19944 
L 579.003254 289.011369 
L 579.260453 289.230291 
L 580.53132 289.426561 
L 581.03059 289.446415 
L 581.287789 289.452411 
L 581.544988 289.715104 
L 582.301457 289.879062 
L 585.59966 290.209377 
L 590.925199 290.501717 
L 594.480602 290.628566 
L 594.737801 290.448819 
L 596.765137 290.762944 
L 603.618743 290.88 
L 622.636364 290.88 
L 622.636364 290.88 
" clip-path="url(#p41160cb443)" style="fill: none; stroke: #800080; stroke-width: 2; stroke-linecap: square"/>
   </g>
   <g id="line2d_18">
    <path d="M 115.363636 290.88 
L 150.115805 290.989128 
L 151.885941 291.005983 
L 164.322285 290.943758 
L 165.593153 290.928568 
L 166.092422 291.057016 
L 167.862559 291.365079 
L 168.119758 291.861084 
L 168.376957 293.03704 
L 168.876227 292.096928 
L 169.133426 291.879272 
L 169.390625 291.967747 
L 169.647825 291.746227 
L 170.404293 291.772543 
L 170.661492 291.576939 
L 170.918692 291.559884 
L 171.160762 291.702123 
L 171.417961 291.720178 
L 171.67516 291.351288 
L 172.431629 291.030767 
L 173.445297 290.880533 
L 227.215087 290.88 
L 231.526958 290.88 
L 231.784157 298.27864 
L 232.298556 322.860516 
L 232.797825 391.945158 
L 233.055024 444.396535 
L 233.312224 408.572028 
L 233.554294 486.228934 
L 233.811493 469.18041 
L 234.068692 478.21157 
L 234.325892 385.245922 
L 234.567962 409.552246 
L 234.825161 369.440442 
L 235.08236 349.910758 
L 235.581629 399.112751 
L 235.838829 457.46749 
L 236.096028 447.564839 
L 236.353227 352.409573 
L 236.610427 326.728824 
L 236.852497 317.490401 
L 237.624095 310.025737 
L 238.123364 295.684622 
L 238.380563 292.51252 
L 238.637763 290.88 
L 325.374455 290.88 
L 325.631654 291.130767 
L 326.130923 291.155151 
L 329.187057 291.527638 
L 332.22806 292.116915 
L 333.498928 292.464485 
L 333.740998 292.292399 
L 334.255396 292.370281 
L 334.754666 292.247429 
L 337.039201 291.932504 
L 339.323736 291.859086 
L 340.594603 291.6868 
L 341.351072 291.426372 
L 344.906474 291.3846 
L 350.988482 291.408184 
L 351.245681 291.492595 
L 351.76008 291.381402 
L 354.029486 291.416712 
L 354.543885 291.632569 
L 355.043154 291.644494 
L 357.085619 291.434567 
L 361.89676 291.348557 
L 364.181295 291.301388 
L 366.723029 291.347891 
L 366.965099 291.507452 
L 367.479498 291.46468 
L 367.736697 291.307184 
L 373.319436 291.197457 
L 373.818705 291.241161 
L 375.846041 291.202853 
L 376.10324 291.415313 
L 376.36044 291.179002 
L 381.428779 291.176137 
L 387.268717 291.267144 
L 388.781654 291.216911 
L 390.309721 291.169608 
L 391.822658 291.146824 
L 395.378061 291.1826 
L 411.354678 291.204186 
L 411.611877 291.328304 
L 413.382014 291.092459 
L 414.395682 291.050021 
L 417.451815 290.987929 
L 423.791022 291.001253 
L 424.80469 291.055284 
L 425.303959 291.095391 
L 425.561159 291.362214 
L 426.060428 291.207517 
L 427.089225 291.052353 
L 428.102893 291.069075 
L 428.344963 291.446092 
L 428.602163 291.259016 
L 432.914034 291.481935 
L 435.455768 291.741364 
L 437.225905 292.05469 
L 442.294245 292.256956 
L 443.065843 293.099799 
L 443.565112 291.949026 
L 444.57878 291.336098 
L 445.093178 291.558018 
L 445.350378 291.831504 
L 445.849647 291.890998 
L 446.606116 291.815048 
L 447.876983 291.452488 
L 449.14785 291.367877 
L 450.161518 291.470609 
L 451.175186 291.565547 
L 451.432386 292.034969 
L 451.689585 291.481669 
L 452.188854 291.24276 
L 453.202522 291.165211 
L 453.97412 291.148622 
L 469.693538 291.859086 
L 470.964405 292.129041 
L 471.221605 292.203858 
L 471.720874 292.548496 
L 472.477343 292.705526 
L 475.276276 292.27168 
L 476.547144 291.798326 
L 477.560812 291.784935 
L 478.31728 291.932304 
L 478.81655 292.261553 
L 479.073749 292.281073 
L 479.845347 292.88061 
L 480.344616 293.523918 
L 480.601816 293.649768 
L 480.859015 293.624985 
L 481.101085 293.970889 
L 481.615483 293.646237 
L 481.872683 293.74224 
L 483.128421 292.30619 
L 484.399288 291.879406 
L 484.656487 291.838433 
L 484.913687 291.990599 
L 485.170886 291.794329 
L 485.412956 291.911185 
L 485.670155 290.901519 
L 513.311519 290.8804 
L 513.568718 291.134165 
L 513.825917 290.956483 
L 531.073402 291.548758 
L 534.114406 291.895129 
L 534.628804 292.024576 
L 535.385273 292.830577 
L 535.884542 293.044502 
L 536.91334 293.118919 
L 538.169078 292.951363 
L 538.683476 292.955094 
L 539.182745 292.994068 
L 539.954343 292.842236 
L 541.210081 292.821916 
L 541.467281 293.05756 
L 541.72448 292.643767 
L 542.238879 292.481874 
L 544.266215 292.229041 
L 547.050019 292.064417 
L 548.578086 291.932837 
L 548.820156 292.079074 
L 549.077355 291.876941 
L 549.591754 291.821644 
L 549.833824 292.199261 
L 550.091023 292.137502 
L 550.862621 292.498263 
L 551.36189 293.175482 
L 551.876289 293.451166 
L 552.118359 293.909796 
L 552.632758 293.834846 
L 553.389226 293.856964 
L 553.646425 293.722254 
L 554.660093 293.824386 
L 565.568371 293.767823 
L 566.32484 293.73811 
L 567.338508 293.664825 
L 570.636711 293.900003 
L 571.393179 294.192876 
L 571.650379 294.371158 
L 572.664047 295.637454 
L 572.921246 295.772031 
L 573.178445 295.773164 
L 573.677715 295.6681 
L 574.948582 295.831592 
L 575.46298 296.243386 
L 575.70505 297.097421 
L 575.96225 297.099287 
L 576.476648 296.675833 
L 577.747516 293.891342 
L 578.246785 293.397801 
L 578.503984 293.222517 
L 578.761184 293.56056 
L 579.003254 292.748631 
L 579.260453 292.529709 
L 580.53132 292.333439 
L 581.03059 292.313585 
L 581.287789 292.307589 
L 581.544988 292.044896 
L 582.301457 291.880938 
L 585.59966 291.550623 
L 590.925199 291.258283 
L 594.480602 291.131434 
L 594.737801 291.311181 
L 596.765137 290.997056 
L 603.618743 290.88 
L 622.636364 290.88 
L 622.636364 290.88 
" clip-path="url(#p41160cb443)" style="fill: none; stroke: #800080; stroke-width: 2; stroke-linecap: square"/>
   </g>
   <g id="line2d_19">
    <path d="M 115.363636 290.88 
L 139.721926 290.76954 
L 150.115805 290.282462 
L 150.373004 290.150549 
L 151.643871 290.194254 
L 159.753215 290.354015 
L 160.509684 290.52217 
L 164.322285 290.743823 
L 165.593153 290.788194 
L 165.835223 290.499385 
L 166.349621 290.332096 
L 167.363289 289.746483 
L 167.862559 289.216633 
L 168.119758 288.076388 
L 168.376957 285.271376 
L 168.876227 286.589371 
L 169.133426 287.472787 
L 169.390625 286.995036 
L 169.647825 287.708498 
L 169.905024 287.473986 
L 170.147094 287.708498 
L 170.404293 287.173918 
L 170.661492 287.847939 
L 170.918692 287.717558 
L 171.160762 286.75233 
L 171.417961 286.330609 
L 171.67516 287.906433 
L 172.17443 288.877724 
L 172.946028 289.868536 
L 173.188098 290.511311 
L 173.445297 290.831166 
L 174.216895 290.88 
L 232.797825 290.78886 
L 233.055024 290.63343 
L 233.312224 290.686528 
L 233.554294 290.587194 
L 234.825161 290.670872 
L 235.08236 290.696921 
L 235.581629 290.62337 
L 236.096028 290.538959 
L 236.610427 290.727434 
L 239.137032 290.88 
L 325.374455 290.88 
L 325.631654 290.715709 
L 326.388123 290.679266 
L 329.943525 290.074733 
L 332.22806 289.359939 
L 332.47013 289.210837 
L 332.984529 289.134221 
L 333.241728 288.883654 
L 333.740998 289.192183 
L 334.512596 288.821295 
L 334.754666 289.010703 
L 335.768334 288.85374 
L 336.282732 288.688316 
L 336.782001 288.184383 
L 337.039201 288.283584 
L 338.310068 287.803368 
L 338.824467 287.728551 
L 339.323736 287.436611 
L 340.080205 286.91882 
L 340.337404 286.705761 
L 340.851803 286.954196 
L 341.093873 286.433541 
L 341.351072 287.74041 
L 341.608271 287.897439 
L 342.12267 287.871123 
L 342.879139 288.009698 
L 343.378408 288.478788 
L 345.662943 288.69791 
L 346.676611 288.683453 
L 346.93381 288.658669 
L 347.19101 287.34627 
L 347.448209 287.231213 
L 347.690279 284.134994 
L 347.947478 282.53392 
L 348.461877 284.969309 
L 348.703947 285.515548 
L 349.717615 285.275307 
L 349.974814 285.261849 
L 350.489213 285.662184 
L 350.731283 285.929274 
L 350.988482 286.65113 
L 351.502881 286.625147 
L 352.773748 286.612023 
L 353.273017 286.37991 
L 353.787416 286.438604 
L 354.029486 286.426279 
L 354.286685 285.684303 
L 354.543885 285.682704 
L 354.801084 285.548526 
L 356.071951 286.901098 
L 356.314021 286.984909 
L 356.82842 287.395771 
L 358.855756 287.777452 
L 361.140291 288.057533 
L 362.910428 288.165462 
L 363.424826 288.358601 
L 366.723029 288.22449 
L 366.965099 287.770457 
L 367.479498 288.05307 
L 367.736697 288.381719 
L 369.249635 288.595511 
L 369.506834 288.249673 
L 370.520502 288.910569 
L 372.805037 289.008238 
L 373.319436 289.016899 
L 373.561506 288.567063 
L 374.333104 288.989117 
L 375.588842 288.984987 
L 375.846041 289.061536 
L 376.10324 288.255536 
L 376.36044 289.183788 
L 379.144244 289.412504 
L 382.185248 289.350612 
L 382.442447 289.203775 
L 382.956846 289.238352 
L 384.726983 289.128692 
L 386.23992 289.527761 
L 386.497119 289.229492 
L 387.011518 289.409706 
L 387.510787 289.447348 
L 388.781654 289.527428 
L 389.296053 289.522098 
L 391.580588 289.820634 
L 393.350725 289.55421 
L 395.378061 289.552811 
L 400.446401 289.499113 
L 404.516202 289.435689 
L 404.758272 289.335955 
L 405.015471 288.915033 
L 405.52987 289.132422 
L 406.543538 289.641886 
L 407.300006 289.725097 
L 408.056475 289.74082 
L 408.828073 289.663671 
L 409.327342 289.721633 
L 409.584541 289.825231 
L 409.841741 289.431758 
L 410.598209 289.511438 
L 410.855409 289.38852 
L 411.354678 289.467134 
L 411.611877 289.109904 
L 412.882745 289.956611 
L 413.382014 290.210176 
L 413.639213 290.151682 
L 414.153612 290.349151 
L 415.40935 290.525168 
L 423.276623 290.653217 
L 423.791022 290.593123 
L 424.033092 290.334161 
L 424.80469 290.089923 
L 425.04676 287.847606 
L 425.303959 288.378521 
L 425.561159 288.413032 
L 425.818358 289.330825 
L 426.060428 289.246014 
L 426.317627 289.365069 
L 426.574827 289.227226 
L 427.089225 289.181057 
L 429.116561 288.671594 
L 429.87303 288.410233 
L 430.130229 288.168993 
L 431.643166 287.854601 
L 433.428432 287.369055 
L 434.94137 286.735341 
L 435.455768 286.419417 
L 435.955038 285.989235 
L 436.212237 285.405754 
L 436.726636 285.165579 
L 437.225905 285.143994 
L 437.740304 284.957384 
L 438.496772 284.479433 
L 438.753971 284.502551 
L 439.253241 284.248586 
L 440.524108 283.749849 
L 440.781307 283.498415 
L 441.280577 282.424059 
L 441.794975 282.305671 
L 442.052175 282.218995 
L 442.294245 281.690811 
L 443.065843 277.047482 
L 443.565112 281.871958 
L 444.33671 284.150784 
L 444.57878 284.390892 
L 444.835979 283.567636 
L 445.093178 282.305604 
L 445.350378 279.877077 
L 445.592448 279.218046 
L 445.849647 279.021776 
L 446.364046 278.389994 
L 446.606116 278.225303 
L 446.863315 278.450287 
L 447.120514 276.845349 
L 447.619784 278.715112 
L 447.876983 279.49453 
L 448.134182 279.81172 
L 448.648581 279.836637 
L 448.890651 279.722446 
L 449.40505 278.31964 
L 449.662249 278.246755 
L 449.904319 276.913371 
L 450.418718 270.160104 
L 450.675917 273.704693 
L 450.917987 269.504937 
L 451.175186 268.722921 
L 451.432386 252.687326 
L 451.689585 269.699741 
L 451.931655 272.168109 
L 452.446053 280.138571 
L 453.202522 284.843792 
L 453.459721 286.096031 
L 453.716921 288.418495 
L 454.473389 288.200372 
L 454.730589 288.398708 
L 455.229858 288.389714 
L 456.243526 288.303171 
L 457.015124 288.301505 
L 460.056128 287.924755 
L 461.069796 287.849271 
L 462.597862 287.619157 
L 463.097132 287.397903 
L 464.367999 287.274718 
L 464.867268 287.036209 
L 465.124468 286.884443 
L 465.638866 286.935942 
L 466.138136 286.548465 
L 466.909734 287.834414 
L 469.950737 288.076521 
L 471.221605 287.869325 
L 471.720874 287.112358 
L 472.235273 287.062325 
L 472.477343 287.197635 
L 473.248941 288.528022 
L 474.262608 288.969397 
L 476.547144 289.686989 
L 477.303612 289.708908 
L 478.31728 289.488387 
L 478.81655 288.664465 
L 479.073749 288.75354 
L 480.601816 287.49797 
L 481.358284 287.552667 
L 481.615483 287.657798 
L 481.872683 288.013762 
L 483.128421 288.614099 
L 483.900019 288.747677 
L 485.412956 288.668929 
L 485.670155 288.981256 
L 486.683823 288.794846 
L 487.440292 288.649608 
L 487.697491 288.247874 
L 487.954691 288.52116 
L 489.982026 288.497776 
L 490.738495 288.588449 
L 496.064034 288.780189 
L 497.334901 288.801708 
L 507.98598 288.97053 
L 514.839585 289.095713 
L 515.096785 288.827891 
L 515.353984 288.773993 
L 516.367652 289.083855 
L 517.880589 289.499113 
L 518.137788 286.848 
L 518.394988 290.878201 
L 622.636364 290.88 
L 622.636364 290.88 
" clip-path="url(#p41160cb443)" style="fill: none; stroke: #6495ed; stroke-width: 2; stroke-linecap: square"/>
   </g>
   <g id="line2d_20">
    <path d="M 115.363636 290.88 
L 139.721926 290.99046 
L 150.115805 291.477538 
L 150.373004 291.609451 
L 151.643871 291.565746 
L 159.753215 291.405985 
L 160.509684 291.23783 
L 164.322285 291.016177 
L 165.593153 290.971806 
L 165.835223 291.260615 
L 166.349621 291.427904 
L 167.363289 292.013517 
L 167.862559 292.543233 
L 168.119758 293.683612 
L 168.376957 296.488491 
L 168.876227 295.170629 
L 169.133426 294.287213 
L 169.390625 294.761633 
L 169.647825 294.051502 
L 169.905024 294.286014 
L 170.147094 294.051502 
L 170.404293 294.587615 
L 170.661492 293.912061 
L 170.918692 294.042442 
L 171.160762 295.00767 
L 171.417961 295.429391 
L 171.67516 293.853567 
L 172.17443 292.882276 
L 172.946028 291.891464 
L 173.188098 291.248689 
L 173.445297 290.928834 
L 174.216895 290.88 
L 232.797825 290.97114 
L 233.055024 291.12657 
L 233.312224 291.073472 
L 233.554294 291.172806 
L 234.825161 291.089128 
L 235.08236 291.063079 
L 235.581629 291.13663 
L 236.096028 291.221041 
L 236.610427 291.032566 
L 239.137032 290.88 
L 325.374455 290.88 
L 325.631654 291.044291 
L 326.388123 291.080667 
L 329.943525 291.685267 
L 332.22806 292.400061 
L 332.47013 292.549163 
L 332.984529 292.625779 
L 333.241728 292.876346 
L 333.740998 292.567817 
L 334.512596 292.938705 
L 334.754666 292.749297 
L 335.768334 292.90626 
L 336.282732 293.071684 
L 336.782001 293.575617 
L 337.039201 293.476416 
L 338.310068 293.956632 
L 338.824467 294.031449 
L 339.323736 294.323389 
L 340.080205 294.84118 
L 340.337404 295.054239 
L 340.851803 294.805804 
L 341.093873 295.326459 
L 341.351072 294.01959 
L 341.608271 293.862561 
L 342.12267 293.888877 
L 342.879139 293.750302 
L 343.378408 293.281212 
L 345.662943 293.06209 
L 346.676611 293.076547 
L 346.93381 293.101331 
L 347.19101 294.41373 
L 347.448209 294.528787 
L 347.690279 297.625006 
L 347.947478 299.22608 
L 348.461877 296.790691 
L 348.703947 296.244452 
L 349.717615 296.484693 
L 349.974814 296.498151 
L 350.489213 296.097816 
L 350.731283 295.830726 
L 350.988482 295.10887 
L 351.502881 295.134853 
L 352.773748 295.147977 
L 353.273017 295.38009 
L 353.787416 295.321396 
L 354.029486 295.333721 
L 354.286685 296.075697 
L 354.543885 296.077296 
L 354.801084 296.211474 
L 356.071951 294.858902 
L 356.314021 294.775091 
L 356.82842 294.364229 
L 358.855756 293.982548 
L 361.140291 293.702467 
L 362.910428 293.594538 
L 363.424826 293.401399 
L 366.723029 293.53551 
L 366.965099 293.989543 
L 367.479498 293.70693 
L 367.736697 293.378281 
L 369.249635 293.164489 
L 369.506834 293.510527 
L 370.520502 292.849431 
L 372.805037 292.751762 
L 373.319436 292.743101 
L 373.561506 293.192937 
L 374.333104 292.770883 
L 375.588842 292.775013 
L 375.846041 292.698464 
L 376.10324 293.504464 
L 376.36044 292.576212 
L 379.144244 292.347496 
L 382.185248 292.409388 
L 382.442447 292.556225 
L 382.956846 292.521648 
L 384.726983 292.631308 
L 386.23992 292.232239 
L 386.497119 292.530508 
L 387.011518 292.350294 
L 387.510787 292.312652 
L 388.781654 292.232572 
L 389.296053 292.237902 
L 391.580588 291.939366 
L 393.350725 292.20579 
L 395.378061 292.207189 
L 400.446401 292.260887 
L 404.516202 292.324311 
L 404.758272 292.424045 
L 405.015471 292.844967 
L 405.52987 292.627578 
L 406.543538 292.118114 
L 407.300006 292.034903 
L 408.056475 292.01918 
L 408.828073 292.096329 
L 409.327342 292.038367 
L 409.584541 291.934769 
L 409.841741 292.328242 
L 410.598209 292.248562 
L 410.855409 292.37148 
L 411.354678 292.292866 
L 411.611877 292.649896 
L 412.882745 291.803389 
L 413.382014 291.549957 
L 413.639213 291.608318 
L 414.153612 291.410849 
L 415.40935 291.234832 
L 423.276623 291.106783 
L 423.791022 291.166877 
L 424.033092 291.425839 
L 424.80469 291.670077 
L 425.04676 293.912394 
L 425.303959 293.381479 
L 425.561159 293.346968 
L 425.818358 292.429175 
L 426.060428 292.513986 
L 426.317627 292.394931 
L 426.574827 292.532774 
L 427.089225 292.578743 
L 429.116561 293.088406 
L 429.87303 293.349767 
L 430.130229 293.591007 
L 431.643166 293.905399 
L 433.428432 294.390945 
L 434.94137 295.024659 
L 435.455768 295.340583 
L 435.955038 295.770765 
L 436.212237 296.354246 
L 436.726636 296.594421 
L 437.225905 296.616006 
L 437.740304 296.802616 
L 438.496772 297.280567 
L 438.753971 297.257449 
L 439.253241 297.511414 
L 440.524108 298.010151 
L 440.781307 298.261585 
L 441.280577 299.335941 
L 441.794975 299.454329 
L 442.052175 299.541005 
L 442.294245 300.069189 
L 443.065843 304.712518 
L 443.565112 299.888042 
L 444.33671 297.609216 
L 444.57878 297.369108 
L 444.835979 298.192364 
L 445.093178 299.452397 
L 445.350378 301.880924 
L 445.592448 302.541954 
L 445.849647 302.738224 
L 446.364046 303.370006 
L 446.606116 303.534697 
L 446.863315 303.309713 
L 447.120514 304.914651 
L 447.619784 303.044888 
L 447.876983 302.26547 
L 448.134182 301.94828 
L 448.648581 301.923363 
L 448.890651 302.037554 
L 449.40505 303.44036 
L 449.662249 303.513378 
L 449.904319 304.844498 
L 450.418718 311.599896 
L 450.675917 308.055174 
L 450.917987 312.255063 
L 451.175186 313.037079 
L 451.432386 329.112647 
L 451.689585 312.064256 
L 451.931655 309.59389 
L 452.446053 301.623428 
L 453.202522 296.916208 
L 453.459721 295.663969 
L 453.716921 293.341505 
L 454.473389 293.559628 
L 454.730589 293.361292 
L 455.229858 293.370286 
L 456.243526 293.456829 
L 457.015124 293.458495 
L 460.056128 293.835245 
L 461.069796 293.910729 
L 462.597862 294.140843 
L 463.097132 294.362097 
L 464.367999 294.485282 
L 464.867268 294.723791 
L 465.124468 294.875557 
L 465.638866 294.824058 
L 466.138136 295.211535 
L 466.909734 293.925586 
L 469.950737 293.683479 
L 471.221605 293.890675 
L 471.720874 294.647642 
L 472.235273 294.697675 
L 472.477343 294.562365 
L 473.248941 293.231978 
L 474.262608 292.790603 
L 476.547144 292.073011 
L 477.303612 292.051092 
L 478.31728 292.271613 
L 478.81655 293.095535 
L 479.073749 293.00646 
L 480.601816 294.26203 
L 481.358284 294.207333 
L 481.615483 294.102202 
L 481.872683 293.746238 
L 483.128421 293.145901 
L 483.900019 293.012323 
L 485.412956 293.091071 
L 485.670155 292.778744 
L 486.683823 292.965154 
L 487.440292 293.110392 
L 487.697491 293.512126 
L 487.954691 293.23884 
L 489.982026 293.262224 
L 490.738495 293.171551 
L 496.064034 292.979811 
L 497.334901 292.958292 
L 507.98598 292.78947 
L 514.839585 292.664287 
L 515.096785 292.932109 
L 515.353984 292.986007 
L 516.367652 292.676145 
L 517.880589 292.260887 
L 518.137788 294.912 
L 518.394988 290.881799 
L 622.636364 290.88 
L 622.636364 290.88 
" clip-path="url(#p41160cb443)" style="fill: none; stroke: #6495ed; stroke-width: 2; stroke-linecap: square"/>
   </g>
   <g id="line2d_21">
    <path d="M 115.363636 290.88 
L 138.193859 290.88 
L 138.451059 290.606514 
L 138.708258 290.598453 
L 139.464727 290.301116 
L 143.519398 289.422431 
L 146.560402 288.696644 
L 148.587738 288.046141 
L 150.115805 287.069187 
L 150.373004 286.253393 
L 150.615074 286.403427 
L 150.872273 286.278976 
L 151.129473 286.417018 
L 154.684875 286.629744 
L 159.238816 287.026082 
L 159.496016 287.164657 
L 159.753215 287.094637 
L 160.010414 287.672388 
L 160.766883 288.328687 
L 162.29495 289.039284 
L 164.065086 289.616969 
L 165.593153 290.031361 
L 165.835223 287.163991 
L 166.092422 286.674648 
L 167.10609 281.692743 
L 167.620489 277.563674 
L 167.862559 274.737543 
L 168.119758 263.21523 
L 168.376957 234.822142 
L 168.876227 249.927885 
L 169.133426 259.38503 
L 169.390625 255.865158 
L 169.647825 263.055802 
L 169.905024 261.797701 
L 170.147094 264.14295 
L 170.404293 260.64533 
L 170.661492 266.391063 
L 170.918692 265.733298 
L 171.160762 258.956713 
L 171.417961 256.381816 
L 171.67516 268.341906 
L 172.17443 275.953672 
L 172.946028 283.549781 
L 173.188098 288.225556 
L 173.445297 290.530031 
L 173.702496 290.88 
L 232.041356 290.770006 
L 232.298556 290.681065 
L 232.797825 290.23949 
L 233.055024 289.788988 
L 233.312224 289.996851 
L 233.554294 289.531225 
L 233.811493 289.6698 
L 234.068692 289.414902 
L 234.325892 290.004712 
L 234.567962 289.880794 
L 234.825161 289.622032 
L 235.08236 289.732492 
L 235.33956 289.067732 
L 235.581629 289.026226 
L 236.096028 288.045008 
L 236.353227 289.243616 
L 236.610427 289.667735 
L 237.109696 289.885791 
L 237.624095 289.981528 
L 238.123364 290.630831 
L 238.637763 290.88 
L 325.374455 290.88 
L 325.631654 290.506514 
L 325.888853 290.557547 
L 326.902521 290.245753 
L 327.65899 290.094053 
L 327.916189 289.892453 
L 328.415459 289.824831 
L 329.686326 289.306774 
L 331.214392 288.449408 
L 331.713662 288.03275 
L 332.984529 287.223818 
L 333.241728 286.68211 
L 333.498928 286.902364 
L 333.740998 287.320821 
L 334.255396 286.850732 
L 334.512596 286.665054 
L 334.754666 287.098767 
L 335.011865 287.134744 
L 335.526264 287.05966 
L 336.025533 286.979313 
L 336.282732 286.896301 
L 336.782001 286.322614 
L 337.039201 286.443867 
L 338.310068 285.866849 
L 338.824467 285.818214 
L 339.066537 285.749327 
L 340.080205 285.010149 
L 340.337404 284.810881 
L 340.851803 285.357786 
L 341.093873 284.890695 
L 341.351072 286.334406 
L 341.608271 286.508958 
L 341.865471 286.434274 
L 342.879139 286.706893 
L 343.378408 287.258329 
L 345.662943 287.534812 
L 346.434541 287.541142 
L 346.93381 287.474719 
L 347.19101 286.221215 
L 347.448209 286.144199 
L 347.690279 283.575165 
L 347.947478 282.212199 
L 348.461877 284.175101 
L 348.703947 284.605417 
L 349.974814 284.228866 
L 350.489213 284.519673 
L 350.731283 284.685031 
L 350.988482 285.370844 
L 351.245681 285.190296 
L 351.502881 285.35632 
L 352.773748 285.20935 
L 353.273017 284.733665 
L 353.530217 284.808615 
L 354.029486 284.628601 
L 354.286685 282.708937 
L 354.801084 281.508731 
L 355.557553 283.283224 
L 356.071951 283.88396 
L 356.314021 283.963108 
L 356.82842 284.633731 
L 358.598556 285.207818 
L 361.140291 285.713084 
L 361.63956 285.66818 
L 362.153959 285.469778 
L 362.411158 285.453123 
L 362.910428 285.751992 
L 363.167627 286.027143 
L 363.666896 286.051127 
L 366.208631 285.71415 
L 366.723029 285.457386 
L 366.965099 284.175035 
L 367.479498 284.890961 
L 367.736697 285.861652 
L 369.249635 286.31915 
L 369.506834 285.558919 
L 370.520502 286.970919 
L 372.290638 287.086242 
L 373.319436 287.067255 
L 373.561506 286.019148 
L 374.075904 286.670517 
L 374.333104 286.943137 
L 374.575174 286.905895 
L 375.089572 287.053997 
L 375.346772 286.818953 
L 375.846041 287.070719 
L 376.10324 285.181369 
L 376.36044 287.343206 
L 377.873377 287.614093 
L 378.387776 287.628084 
L 378.644975 287.756066 
L 381.17158 287.607964 
L 382.185248 287.369189 
L 382.442447 286.836807 
L 382.699647 286.992638 
L 383.456115 286.670051 
L 383.713315 286.821018 
L 384.726983 286.453461 
L 384.984182 286.647133 
L 385.226252 287.092105 
L 386.23992 287.652734 
L 386.497119 286.489237 
L 386.754319 286.9484 
L 387.011518 287.143005 
L 387.268717 287.056262 
L 387.510787 287.288442 
L 388.025186 287.358529 
L 388.282385 287.224351 
L 388.524455 287.511694 
L 389.296053 287.42262 
L 389.795322 287.57352 
L 390.052522 287.532681 
L 390.551791 287.98165 
L 391.323389 288.045142 
L 391.822658 287.864195 
L 392.836326 287.318422 
L 394.107194 286.993904 
L 394.621592 287.205031 
L 395.120861 287.177715 
L 397.919795 286.660258 
L 398.419065 286.525347 
L 398.676264 286.637473 
L 399.175533 286.685441 
L 399.689932 286.722883 
L 402.988135 286.342601 
L 403.744604 286.261988 
L 404.001803 285.105153 
L 404.259002 285.390364 
L 404.516202 285.172575 
L 404.758272 284.673372 
L 405.015471 282.638384 
L 405.27267 282.540649 
L 405.77194 283.642587 
L 406.543538 284.258912 
L 406.785608 284.253249 
L 407.042807 284.121603 
L 407.300006 283.593619 
L 407.557206 284.355449 
L 407.799276 284.423737 
L 408.056475 284.086093 
L 408.313674 283.377895 
L 408.570874 283.039652 
L 409.070143 282.804274 
L 409.327342 283.34978 
L 409.584541 284.226267 
L 409.841741 282.619796 
L 410.34101 282.169494 
L 410.598209 282.159834 
L 410.855409 281.441975 
L 411.354678 280.823118 
L 411.611877 276.676327 
L 412.368346 279.532905 
L 412.625545 279.289666 
L 412.882745 282.076556 
L 413.382014 283.359774 
L 413.639213 282.782289 
L 413.896413 283.829996 
L 414.652881 285.034733 
L 415.40935 285.303755 
L 415.666549 285.172308 
L 416.423018 285.576241 
L 417.194616 285.905423 
L 418.465483 286.025344 
L 418.964752 286.14813 
L 419.97842 286.426012 
L 420.734889 286.430143 
L 422.005756 286.282041 
L 422.262956 286.274646 
L 422.520155 286.154126 
L 422.777354 286.326345 
L 423.791022 286.072913 
L 424.80469 286.462921 
L 425.04676 286.241468 
L 425.561159 286.087303 
L 425.818358 286.286838 
L 426.317627 285.951393 
L 426.574827 286.221015 
L 426.832026 286.29803 
L 427.089225 285.926276 
L 427.331295 285.85026 
L 427.845694 286.281708 
L 428.102893 286.562322 
L 428.344963 284.128932 
L 428.602163 286.748999 
L 428.859362 288.132217 
L 429.116561 288.537083 
L 429.615831 290.295853 
L 432.656834 290.019436 
L 435.198569 289.823632 
L 442.052175 288.948211 
L 443.065843 288.422758 
L 444.079511 288.990716 
L 444.57878 289.02516 
L 445.093178 288.53102 
L 445.350378 287.92129 
L 445.849647 287.744607 
L 446.606116 287.543607 
L 446.863315 287.574719 
L 447.120514 287.171986 
L 448.134182 287.908099 
L 448.890651 287.920757 
L 449.904319 287.427284 
L 450.418718 286.333873 
L 450.675917 286.699765 
L 450.917987 285.849594 
L 451.175186 285.569912 
L 451.432386 282.925328 
L 451.689585 285.382702 
L 451.931655 285.286899 
L 452.446053 287.424152 
L 453.459721 289.47433 
L 453.716921 290.313308 
L 465.880936 289.479726 
L 466.395335 289.464936 
L 467.151803 289.562671 
L 470.192807 289.28712 
L 471.221605 289.029757 
L 471.720874 288.595178 
L 472.235273 288.452605 
L 472.734542 288.555604 
L 473.248941 288.759269 
L 474.761878 288.931689 
L 477.046413 289.651413 
L 478.31728 289.333556 
L 478.81655 288.73855 
L 479.073749 288.758536 
L 479.845347 288.080585 
L 480.601816 287.218488 
L 480.859015 287.233012 
L 481.101085 286.865189 
L 481.615483 287.201433 
L 481.872683 287.180447 
L 483.128421 288.73222 
L 483.900019 289.032755 
L 484.399288 289.17586 
L 484.656487 289.216367 
L 484.913687 289.068798 
L 485.170886 289.265868 
L 485.412956 289.157339 
L 485.670155 290.133893 
L 488.711159 289.930628 
L 493.28023 289.945751 
L 504.445706 289.890321 
L 506.473042 289.895918 
L 513.311519 289.823898 
L 513.568718 289.744418 
L 514.083117 289.815238 
L 514.839585 289.818769 
L 515.096785 289.645616 
L 515.596054 289.658408 
L 517.880589 289.990122 
L 518.137788 288.382585 
L 518.394988 290.806049 
L 531.82987 290.540624 
L 534.870874 290.317439 
L 536.398941 290.056478 
L 539.697144 290.044819 
L 541.72448 290.079529 
L 542.738148 290.163541 
L 545.521953 290.210843 
L 549.591754 290.380464 
L 549.833824 290.077664 
L 550.091023 290.142754 
L 550.862621 289.924898 
L 551.36189 289.55401 
L 552.375558 289.349745 
L 556.18816 289.395515 
L 569.880242 289.70611 
L 571.393179 289.496515 
L 571.907578 289.211903 
L 572.921246 288.630421 
L 574.948582 288.568795 
L 575.205781 288.378721 
L 575.46298 288.345343 
L 575.70505 288.131951 
L 575.96225 288.09724 
L 576.476648 288.27972 
L 577.233117 289.093581 
L 578.503984 289.9223 
L 578.761184 289.565336 
L 579.003254 290.225433 
L 579.517652 290.379797 
L 585.59966 290.66401 
L 594.480602 290.790193 
L 594.995 290.739826 
L 597.778805 290.848554 
L 610.971618 290.88 
L 622.636364 290.88 
L 622.636364 290.88 
" clip-path="url(#p41160cb443)" style="fill: none; stroke: #ffa500; stroke-width: 2; stroke-linecap: square"/>
   </g>
   <g id="line2d_22">
    <path d="M 115.363636 290.88 
L 138.193859 290.88 
L 138.451059 291.153486 
L 138.708258 291.161547 
L 139.464727 291.458884 
L 143.519398 292.337569 
L 146.560402 293.063356 
L 148.587738 293.713859 
L 150.115805 294.690813 
L 150.373004 295.506607 
L 150.615074 295.356573 
L 150.872273 295.481024 
L 151.129473 295.342982 
L 154.684875 295.130256 
L 159.238816 294.733918 
L 159.496016 294.595343 
L 159.753215 294.665363 
L 160.010414 294.087612 
L 160.766883 293.431313 
L 162.29495 292.720716 
L 164.065086 292.143031 
L 165.593153 291.728639 
L 165.835223 294.595942 
L 166.092422 295.085352 
L 167.10609 300.067257 
L 167.620489 304.196326 
L 167.862559 307.022457 
L 168.119758 318.54477 
L 168.376957 346.937858 
L 168.876227 331.832115 
L 169.133426 322.37497 
L 169.390625 325.894842 
L 169.647825 318.704198 
L 169.905024 319.962299 
L 170.147094 317.61705 
L 170.404293 321.134657 
L 170.661492 315.368937 
L 170.918692 316.026702 
L 171.160762 322.803287 
L 171.417961 325.378184 
L 171.67516 313.418094 
L 172.17443 305.806328 
L 172.946028 298.210219 
L 173.188098 293.534444 
L 173.445297 291.229969 
L 173.702496 290.88 
L 232.041356 290.989994 
L 232.298556 291.078935 
L 232.797825 291.52051 
L 233.055024 291.971012 
L 233.312224 291.763149 
L 233.554294 292.228775 
L 233.811493 292.0902 
L 234.068692 292.345098 
L 234.325892 291.755288 
L 234.567962 291.879206 
L 234.825161 292.137968 
L 235.08236 292.027508 
L 235.33956 292.692268 
L 235.581629 292.733774 
L 236.096028 293.714992 
L 236.353227 292.516384 
L 236.610427 292.092265 
L 237.109696 291.874209 
L 237.624095 291.778472 
L 238.123364 291.129169 
L 238.637763 290.88 
L 325.374455 290.88 
L 325.631654 291.253486 
L 325.888853 291.202453 
L 326.902521 291.514247 
L 327.65899 291.665947 
L 327.916189 291.867547 
L 328.415459 291.935169 
L 329.686326 292.453226 
L 331.214392 293.310592 
L 331.713662 293.72725 
L 332.984529 294.536182 
L 333.241728 295.07809 
L 333.498928 294.857636 
L 333.740998 294.439179 
L 334.255396 294.909268 
L 334.512596 295.095146 
L 334.754666 294.661233 
L 335.011865 294.625256 
L 335.526264 294.70034 
L 336.025533 294.780687 
L 336.282732 294.863699 
L 336.782001 295.437386 
L 337.039201 295.316133 
L 338.310068 295.893151 
L 338.824467 295.941786 
L 339.066537 296.010673 
L 340.080205 296.749851 
L 340.337404 296.949119 
L 340.851803 296.402214 
L 341.093873 296.869305 
L 341.351072 295.425594 
L 341.608271 295.251042 
L 341.865471 295.325726 
L 342.879139 295.053107 
L 343.378408 294.501671 
L 345.662943 294.225188 
L 346.434541 294.218858 
L 346.93381 294.285281 
L 347.19101 295.538785 
L 347.448209 295.615801 
L 347.690279 298.184835 
L 347.947478 299.547801 
L 348.461877 297.584899 
L 348.703947 297.154583 
L 349.974814 297.531134 
L 350.489213 297.240327 
L 350.731283 297.074969 
L 350.988482 296.389156 
L 351.245681 296.569704 
L 351.502881 296.40368 
L 352.773748 296.55065 
L 353.273017 297.026335 
L 353.530217 296.951385 
L 354.029486 297.131399 
L 354.286685 299.051063 
L 354.801084 300.251269 
L 355.557553 298.476776 
L 356.071951 297.87604 
L 356.314021 297.796892 
L 356.82842 297.126269 
L 358.598556 296.552182 
L 361.140291 296.046916 
L 361.63956 296.09182 
L 362.153959 296.290222 
L 362.411158 296.306877 
L 362.910428 296.008008 
L 363.167627 295.732857 
L 363.666896 295.708873 
L 366.208631 296.04585 
L 366.723029 296.302614 
L 366.965099 297.584965 
L 367.479498 296.869039 
L 367.736697 295.898348 
L 369.249635 295.44085 
L 369.506834 296.201081 
L 370.520502 294.789081 
L 372.290638 294.673758 
L 373.319436 294.692745 
L 373.561506 295.740852 
L 374.075904 295.089483 
L 374.333104 294.816863 
L 374.575174 294.854105 
L 375.089572 294.706003 
L 375.346772 294.941047 
L 375.846041 294.689281 
L 376.10324 296.578631 
L 376.36044 294.416794 
L 377.873377 294.145907 
L 378.387776 294.131916 
L 378.644975 294.003934 
L 381.17158 294.151836 
L 382.185248 294.390811 
L 382.442447 294.923193 
L 382.699647 294.767362 
L 383.456115 295.089949 
L 383.713315 294.938982 
L 384.726983 295.306539 
L 384.984182 295.112867 
L 385.226252 294.667895 
L 386.23992 294.107266 
L 386.497119 295.270763 
L 386.754319 294.8116 
L 387.011518 294.616995 
L 387.268717 294.703738 
L 387.510787 294.471558 
L 388.025186 294.401471 
L 388.282385 294.535649 
L 388.524455 294.248306 
L 389.296053 294.33738 
L 389.795322 294.18648 
L 390.052522 294.227319 
L 390.551791 293.77835 
L 391.323389 293.714858 
L 391.822658 293.895805 
L 392.836326 294.441578 
L 394.107194 294.766496 
L 394.621592 294.554969 
L 395.120861 294.582285 
L 397.919795 295.099742 
L 398.419065 295.234653 
L 398.676264 295.122527 
L 399.175533 295.074559 
L 399.689932 295.037117 
L 402.988135 295.417399 
L 403.744604 295.498012 
L 404.001803 296.654847 
L 404.259002 296.369636 
L 404.516202 296.587425 
L 404.758272 297.086628 
L 405.015471 299.121616 
L 405.27267 299.219351 
L 405.77194 298.117413 
L 406.543538 297.501088 
L 406.785608 297.506751 
L 407.042807 297.638397 
L 407.300006 298.166381 
L 407.557206 297.404551 
L 407.799276 297.336263 
L 408.056475 297.673907 
L 408.313674 298.382105 
L 408.570874 298.720348 
L 409.070143 298.955726 
L 409.327342 298.41022 
L 409.584541 297.533733 
L 409.841741 299.140204 
L 410.34101 299.590506 
L 410.598209 299.600166 
L 410.855409 300.318025 
L 411.354678 300.936882 
L 411.611877 305.083673 
L 412.368346 302.227095 
L 412.625545 302.470334 
L 412.882745 299.683444 
L 413.382014 298.400226 
L 413.639213 298.977711 
L 413.896413 297.930004 
L 414.652881 296.725467 
L 415.40935 296.456245 
L 415.666549 296.587692 
L 416.423018 296.183759 
L 417.194616 295.854577 
L 418.465483 295.734656 
L 418.964752 295.61187 
L 419.97842 295.333988 
L 420.734889 295.329857 
L 422.005756 295.477959 
L 422.262956 295.485354 
L 422.520155 295.605874 
L 422.777354 295.433655 
L 423.791022 295.687087 
L 424.80469 295.297079 
L 425.04676 295.518532 
L 425.561159 295.672697 
L 425.818358 295.473162 
L 426.317627 295.808607 
L 426.574827 295.538985 
L 426.832026 295.461903 
L 427.089225 295.833724 
L 427.331295 295.90974 
L 427.845694 295.478292 
L 428.102893 295.197678 
L 428.344963 297.631068 
L 428.602163 295.011001 
L 428.859362 293.627783 
L 429.116561 293.223317 
L 429.615831 291.464147 
L 432.656834 291.740564 
L 435.198569 291.936368 
L 442.052175 292.811789 
L 443.065843 293.337242 
L 444.079511 292.769284 
L 444.57878 292.73444 
L 445.093178 293.22858 
L 445.350378 293.83871 
L 445.849647 294.015393 
L 446.606116 294.216393 
L 446.863315 294.185281 
L 447.120514 294.588014 
L 448.134182 293.851901 
L 448.890651 293.839243 
L 449.904319 294.331917 
L 450.418718 295.426127 
L 450.675917 295.060235 
L 450.917987 295.910406 
L 451.175186 296.190088 
L 451.432386 298.842667 
L 451.689585 296.377298 
L 451.931655 296.473101 
L 452.446053 294.336247 
L 453.459721 292.28567 
L 453.716921 291.446692 
L 465.880936 292.280274 
L 466.395335 292.295064 
L 467.151803 292.197329 
L 470.192807 292.47288 
L 471.221605 292.730243 
L 471.720874 293.164822 
L 472.235273 293.307395 
L 472.734542 293.204396 
L 473.248941 293.000731 
L 474.761878 292.828311 
L 477.046413 292.108587 
L 478.31728 292.426444 
L 478.81655 293.02145 
L 479.073749 293.001464 
L 479.845347 293.679082 
L 480.601816 294.541512 
L 480.859015 294.526988 
L 481.101085 294.894811 
L 481.615483 294.558567 
L 481.872683 294.579553 
L 483.128421 293.02778 
L 483.900019 292.727245 
L 484.399288 292.58414 
L 484.656487 292.543633 
L 484.913687 292.691202 
L 485.170886 292.494132 
L 485.412956 292.602661 
L 485.670155 291.626107 
L 488.711159 291.829372 
L 493.28023 291.814249 
L 504.445706 291.869679 
L 506.473042 291.864082 
L 513.311519 291.936102 
L 513.568718 292.015582 
L 514.083117 291.944762 
L 514.839585 291.941231 
L 515.096785 292.114384 
L 515.596054 292.101592 
L 517.880589 291.769878 
L 518.137788 293.377415 
L 518.394988 290.953951 
L 531.82987 291.219376 
L 534.870874 291.442561 
L 536.398941 291.703522 
L 539.697144 291.715181 
L 541.72448 291.680471 
L 542.738148 291.596459 
L 545.521953 291.549157 
L 549.591754 291.379536 
L 549.833824 291.682336 
L 550.091023 291.617246 
L 550.862621 291.835102 
L 551.36189 292.20599 
L 552.375558 292.410255 
L 556.18816 292.364485 
L 569.880242 292.05389 
L 571.393179 292.263485 
L 571.907578 292.548097 
L 572.921246 293.129579 
L 574.948582 293.191205 
L 575.205781 293.381279 
L 575.46298 293.414657 
L 575.70505 293.628049 
L 575.96225 293.66276 
L 576.476648 293.48028 
L 577.233117 292.666419 
L 578.503984 291.8377 
L 578.761184 292.195064 
L 579.003254 291.534567 
L 579.517652 291.380203 
L 585.59966 291.09599 
L 594.480602 290.969807 
L 594.995 291.020174 
L 597.778805 290.911446 
L 610.971618 290.88 
L 622.636364 290.88 
L 622.636364 290.88 
" clip-path="url(#p41160cb443)" style="fill: none; stroke: #ffa500; stroke-width: 2; stroke-linecap: square"/>
   </g>
   <g id="line2d_23">
    <path d="M 90 290.88 
L 648 290.88 
" clip-path="url(#p41160cb443)" style="fill: none; stroke: #000000; stroke-opacity: 0.3; stroke-width: 1.5; stroke-linecap: square"/>
   </g>
   <g id="line2d_24">
    <path d="M 450.445799 512.64 
L 450.445799 69.12 
" clip-path="url(#p41160cb443)" style="fill: none; stroke-dasharray: 9.6,2.4,1.5,2.4; stroke-dashoffset: 0; stroke: #000000; stroke-opacity: 0.3; stroke-width: 1.5"/>
   </g>
   <g id="patch_3">
    <path d="M 90 512.64 
L 90 69.12 
" style="fill: none; stroke: #000000; stroke-width: 0.8; stroke-linejoin: miter; stroke-linecap: square"/>
   </g>
   <g id="patch_4">
    <path d="M 648 512.64 
L 648 69.12 
" style="fill: none; stroke: #000000; stroke-width: 0.8; stroke-linejoin: miter; stroke-linecap: square"/>
   </g>
   <g id="patch_5">
    <path d="M 90 512.64 
L 648 512.64 
" style="fill: none; stroke: #000000; stroke-width: 0.8; stroke-linejoin: miter; stroke-linecap: square"/>
   </g>
   <g id="patch_6">
    <path d="M 90 69.12 
L 648 69.12 
" style="fill: none; stroke: #000000; stroke-width: 0.8; stroke-linejoin: miter; stroke-linecap: square"/>
   </g>
   <g id="text_17">
    <!-- InFeO3 -->
    <g transform="translate(299.246875 60.80125)scale(0.4 -0.4)">
     <defs>
      <path id="DejaVuSans-49" d="M 628 4666 
L 1259 4666 
L 1259 0 
L 628 0 
L 628 4666 
z
" transform="scale(0.015625)"/>
      <path id="DejaVuSans-46" d="M 628 4666 
L 3309 4666 
L 3309 4134 
L 1259 4134 
L 1259 2759 
L 3109 2759 
L 3109 2228 
L 1259 2228 
L 1259 0 
L 628 0 
L 628 4666 
z
" transform="scale(0.015625)"/>
      <path id="DejaVuSans-4f" d="M 2522 4238 
Q 1834 4238 1429 3725 
Q 1025 3213 1025 2328 
Q 1025 1447 1429 934 
Q 1834 422 2522 422 
Q 3209 422 3611 934 
Q 4013 1447 4013 2328 
Q 4013 3213 3611 3725 
Q 3209 4238 2522 4238 
z
M 2522 4750 
Q 3503 4750 4090 4092 
Q 4678 3434 4678 2328 
Q 4678 1225 4090 567 
Q 3503 -91 2522 -91 
Q 1538 -91 948 565 
Q 359 1222 359 2328 
Q 359 3434 948 4092 
Q 1538 4750 2522 4750 
z
" transform="scale(0.015625)"/>
     </defs>
     <use xlink:href="#DejaVuSans-49"/>
     <use xlink:href="#DejaVuSans-6e" x="29.492188"/>
     <use xlink:href="#DejaVuSans-46" x="92.871094"/>
     <use xlink:href="#DejaVuSans-65" x="144.890625"/>
     <use xlink:href="#DejaVuSans-4f" x="206.414062"/>
     <use xlink:href="#DejaVuSans-33" x="285.125"/>
    </g>
   </g>
   <g id="legend_1">
    <g id="patch_7">
     <path d="M 574.123438 135.8325 
L 641 135.8325 
Q 643 135.8325 643 133.8325 
L 643 76.12 
Q 643 74.12 641 74.12 
L 574.123438 74.12 
Q 572.123438 74.12 572.123438 76.12 
L 572.123438 133.8325 
Q 572.123438 135.8325 574.123438 135.8325 
z
" style="fill: #ffffff; opacity: 0.8; stroke: #cccccc; stroke-linejoin: miter"/>
    </g>
    <g id="line2d_25">
     <path d="M 576.123438 82.218437 
L 586.123438 82.218437 
L 596.123438 82.218437 
" style="fill: none; stroke: #006400; stroke-width: 2; stroke-linecap: square"/>
    </g>
    <g id="text_18">
     <!-- InFeO3 -->
     <g transform="translate(604.123438 85.718437)scale(0.1 -0.1)">
      <use xlink:href="#DejaVuSans-49"/>
      <use xlink:href="#DejaVuSans-6e" x="29.492188"/>
      <use xlink:href="#DejaVuSans-46" x="92.871094"/>
      <use xlink:href="#DejaVuSans-65" x="144.890625"/>
      <use xlink:href="#DejaVuSans-4f" x="206.414062"/>
      <use xlink:href="#DejaVuSans-33" x="285.125"/>
     </g>
    </g>
    <g id="line2d_26">
     <path d="M 576.123438 96.896563 
L 586.123438 96.896563 
L 596.123438 96.896563 
" style="fill: none; stroke: #800080; stroke-width: 2; stroke-linecap: square"/>
    </g>
    <g id="text_19">
     <!-- In -->
     <g transform="translate(604.123438 100.396563)scale(0.1 -0.1)">
      <use xlink:href="#DejaVuSans-49"/>
      <use xlink:href="#DejaVuSans-6e" x="29.492188"/>
     </g>
    </g>
    <g id="line2d_27">
     <path d="M 576.123438 111.574687 
L 586.123438 111.574687 
L 596.123438 111.574687 
" style="fill: none; stroke: #6495ed; stroke-width: 2; stroke-linecap: square"/>
    </g>
    <g id="text_20">
     <!-- Fe -->
     <g transform="translate(604.123438 115.074687)scale(0.1 -0.1)">
      <use xlink:href="#DejaVuSans-46"/>
      <use xlink:href="#DejaVuSans-65" x="52.019531"/>
     </g>
    </g>
    <g id="line2d_28">
     <path d="M 576.123438 126.252813 
L 586.123438 126.252813 
L 596.123438 126.252813 
" style="fill: none; stroke: #ffa500; stroke-width: 2; stroke-linecap: square"/>
    </g>
    <g id="text_21">
     <!-- O -->
     <g transform="translate(604.123438 129.752813)scale(0.1 -0.1)">
      <use xlink:href="#DejaVuSans-4f"/>
     </g>
    </g>
   </g>
  </g>
 </g>
 <defs>
  <clipPath id="p41160cb443">
   <rect x="90" y="69.12" width="558" height="443.52"/>
  </clipPath>
 </defs>
</svg>
