<?xml version="1.0" encoding="utf-8" standalone="no"?>
<!DOCTYPE svg PUBLIC "-//W3C//DTD SVG 1.1//EN"
  "http://www.w3.org/Graphics/SVG/1.1/DTD/svg11.dtd">
<svg xmlns:xlink="http://www.w3.org/1999/xlink" width="720pt" height="576pt" viewBox="0 0 720 576" xmlns="http://www.w3.org/2000/svg" version="1.1">
 <metadata>
  <rdf:RDF xmlns:dc="http://purl.org/dc/elements/1.1/" xmlns:cc="http://creativecommons.org/ns#" xmlns:rdf="http://www.w3.org/1999/02/22-rdf-syntax-ns#">
   <cc:Work>
    <dc:type rdf:resource="http://purl.org/dc/dcmitype/StillImage"/>
    <dc:date>2022-03-19T09:31:34.994818</dc:date>
    <dc:format>image/svg+xml</dc:format>
    <dc:creator>
     <cc:Agent>
      <dc:title>Matplotlib v3.5.1, https://matplotlib.org/</dc:title>
     </cc:Agent>
    </dc:creator>
   </cc:Work>
  </rdf:RDF>
 </metadata>
 <defs>
  <style type="text/css">*{stroke-linejoin: round; stroke-linecap: butt}</style>
 </defs>
 <g id="figure_1">
  <g id="patch_1">
   <path d="M 0 576 
L 720 576 
L 720 0 
L 0 0 
z
" style="fill: #ffffff"/>
  </g>
  <g id="axes_1">
   <g id="patch_2">
    <path d="M 90 512.64 
L 648 512.64 
L 648 69.12 
L 90 69.12 
z
" style="fill: #ffffff"/>
   </g>
   <g id="matplotlib.axis_1">
    <g id="xtick_1">
     <g id="line2d_1">
      <defs>
       <path id="m23eef29866" d="M 0 0 
L 0 3.5 
" style="stroke: #000000; stroke-width: 0.8"/>
      </defs>
      <g>
       <use xlink:href="#m23eef29866" x="90" y="512.64" style="stroke: #000000; stroke-width: 0.8"/>
      </g>
     </g>
     <g id="text_1">
      <!-- 0 -->
      <g transform="translate(86.81875 527.238438)scale(0.1 -0.1)">
       <defs>
        <path id="DejaVuSans-30" d="M 2034 4250 
Q 1547 4250 1301 3770 
Q 1056 3291 1056 2328 
Q 1056 1369 1301 889 
Q 1547 409 2034 409 
Q 2525 409 2770 889 
Q 3016 1369 3016 2328 
Q 3016 3291 2770 3770 
Q 2525 4250 2034 4250 
z
M 2034 4750 
Q 2819 4750 3233 4129 
Q 3647 3509 3647 2328 
Q 3647 1150 3233 529 
Q 2819 -91 2034 -91 
Q 1250 -91 836 529 
Q 422 1150 422 2328 
Q 422 3509 836 4129 
Q 1250 4750 2034 4750 
z
" transform="scale(0.015625)"/>
       </defs>
       <use xlink:href="#DejaVuSans-30"/>
      </g>
     </g>
    </g>
    <g id="xtick_2">
     <g id="line2d_2">
      <g>
       <use xlink:href="#m23eef29866" x="152" y="512.64" style="stroke: #000000; stroke-width: 0.8"/>
      </g>
     </g>
     <g id="text_2">
      <!-- 10 -->
      <g transform="translate(145.6375 527.238438)scale(0.1 -0.1)">
       <defs>
        <path id="DejaVuSans-31" d="M 794 531 
L 1825 531 
L 1825 4091 
L 703 3866 
L 703 4441 
L 1819 4666 
L 2450 4666 
L 2450 531 
L 3481 531 
L 3481 0 
L 794 0 
L 794 531 
z
" transform="scale(0.015625)"/>
       </defs>
       <use xlink:href="#DejaVuSans-31"/>
       <use xlink:href="#DejaVuSans-30" x="63.623047"/>
      </g>
     </g>
    </g>
    <g id="xtick_3">
     <g id="line2d_3">
      <g>
       <use xlink:href="#m23eef29866" x="214" y="512.64" style="stroke: #000000; stroke-width: 0.8"/>
      </g>
     </g>
     <g id="text_3">
      <!-- 20 -->
      <g transform="translate(207.6375 527.238438)scale(0.1 -0.1)">
       <defs>
        <path id="DejaVuSans-32" d="M 1228 531 
L 3431 531 
L 3431 0 
L 469 0 
L 469 531 
Q 828 903 1448 1529 
Q 2069 2156 2228 2338 
Q 2531 2678 2651 2914 
Q 2772 3150 2772 3378 
Q 2772 3750 2511 3984 
Q 2250 4219 1831 4219 
Q 1534 4219 1204 4116 
Q 875 4013 500 3803 
L 500 4441 
Q 881 4594 1212 4672 
Q 1544 4750 1819 4750 
Q 2544 4750 2975 4387 
Q 3406 4025 3406 3419 
Q 3406 3131 3298 2873 
Q 3191 2616 2906 2266 
Q 2828 2175 2409 1742 
Q 1991 1309 1228 531 
z
" transform="scale(0.015625)"/>
       </defs>
       <use xlink:href="#DejaVuSans-32"/>
       <use xlink:href="#DejaVuSans-30" x="63.623047"/>
      </g>
     </g>
    </g>
    <g id="xtick_4">
     <g id="line2d_4">
      <g>
       <use xlink:href="#m23eef29866" x="276" y="512.64" style="stroke: #000000; stroke-width: 0.8"/>
      </g>
     </g>
     <g id="text_4">
      <!-- 30 -->
      <g transform="translate(269.6375 527.238438)scale(0.1 -0.1)">
       <defs>
        <path id="DejaVuSans-33" d="M 2597 2516 
Q 3050 2419 3304 2112 
Q 3559 1806 3559 1356 
Q 3559 666 3084 287 
Q 2609 -91 1734 -91 
Q 1441 -91 1130 -33 
Q 819 25 488 141 
L 488 750 
Q 750 597 1062 519 
Q 1375 441 1716 441 
Q 2309 441 2620 675 
Q 2931 909 2931 1356 
Q 2931 1769 2642 2001 
Q 2353 2234 1838 2234 
L 1294 2234 
L 1294 2753 
L 1863 2753 
Q 2328 2753 2575 2939 
Q 2822 3125 2822 3475 
Q 2822 3834 2567 4026 
Q 2313 4219 1838 4219 
Q 1578 4219 1281 4162 
Q 984 4106 628 3988 
L 628 4550 
Q 988 4650 1302 4700 
Q 1616 4750 1894 4750 
Q 2613 4750 3031 4423 
Q 3450 4097 3450 3541 
Q 3450 3153 3228 2886 
Q 3006 2619 2597 2516 
z
" transform="scale(0.015625)"/>
       </defs>
       <use xlink:href="#DejaVuSans-33"/>
       <use xlink:href="#DejaVuSans-30" x="63.623047"/>
      </g>
     </g>
    </g>
    <g id="xtick_5">
     <g id="line2d_5">
      <g>
       <use xlink:href="#m23eef29866" x="338" y="512.64" style="stroke: #000000; stroke-width: 0.8"/>
      </g>
     </g>
     <g id="text_5">
      <!-- 40 -->
      <g transform="translate(331.6375 527.238438)scale(0.1 -0.1)">
       <defs>
        <path id="DejaVuSans-34" d="M 2419 4116 
L 825 1625 
L 2419 1625 
L 2419 4116 
z
M 2253 4666 
L 3047 4666 
L 3047 1625 
L 3713 1625 
L 3713 1100 
L 3047 1100 
L 3047 0 
L 2419 0 
L 2419 1100 
L 313 1100 
L 313 1709 
L 2253 4666 
z
" transform="scale(0.015625)"/>
       </defs>
       <use xlink:href="#DejaVuSans-34"/>
       <use xlink:href="#DejaVuSans-30" x="63.623047"/>
      </g>
     </g>
    </g>
    <g id="xtick_6">
     <g id="line2d_6">
      <g>
       <use xlink:href="#m23eef29866" x="400" y="512.64" style="stroke: #000000; stroke-width: 0.8"/>
      </g>
     </g>
     <g id="text_6">
      <!-- 50 -->
      <g transform="translate(393.6375 527.238438)scale(0.1 -0.1)">
       <defs>
        <path id="DejaVuSans-35" d="M 691 4666 
L 3169 4666 
L 3169 4134 
L 1269 4134 
L 1269 2991 
Q 1406 3038 1543 3061 
Q 1681 3084 1819 3084 
Q 2600 3084 3056 2656 
Q 3513 2228 3513 1497 
Q 3513 744 3044 326 
Q 2575 -91 1722 -91 
Q 1428 -91 1123 -41 
Q 819 9 494 109 
L 494 744 
Q 775 591 1075 516 
Q 1375 441 1709 441 
Q 2250 441 2565 725 
Q 2881 1009 2881 1497 
Q 2881 1984 2565 2268 
Q 2250 2553 1709 2553 
Q 1456 2553 1204 2497 
Q 953 2441 691 2322 
L 691 4666 
z
" transform="scale(0.015625)"/>
       </defs>
       <use xlink:href="#DejaVuSans-35"/>
       <use xlink:href="#DejaVuSans-30" x="63.623047"/>
      </g>
     </g>
    </g>
    <g id="xtick_7">
     <g id="line2d_7">
      <g>
       <use xlink:href="#m23eef29866" x="462" y="512.64" style="stroke: #000000; stroke-width: 0.8"/>
      </g>
     </g>
     <g id="text_7">
      <!-- 60 -->
      <g transform="translate(455.6375 527.238438)scale(0.1 -0.1)">
       <defs>
        <path id="DejaVuSans-36" d="M 2113 2584 
Q 1688 2584 1439 2293 
Q 1191 2003 1191 1497 
Q 1191 994 1439 701 
Q 1688 409 2113 409 
Q 2538 409 2786 701 
Q 3034 994 3034 1497 
Q 3034 2003 2786 2293 
Q 2538 2584 2113 2584 
z
M 3366 4563 
L 3366 3988 
Q 3128 4100 2886 4159 
Q 2644 4219 2406 4219 
Q 1781 4219 1451 3797 
Q 1122 3375 1075 2522 
Q 1259 2794 1537 2939 
Q 1816 3084 2150 3084 
Q 2853 3084 3261 2657 
Q 3669 2231 3669 1497 
Q 3669 778 3244 343 
Q 2819 -91 2113 -91 
Q 1303 -91 875 529 
Q 447 1150 447 2328 
Q 447 3434 972 4092 
Q 1497 4750 2381 4750 
Q 2619 4750 2861 4703 
Q 3103 4656 3366 4563 
z
" transform="scale(0.015625)"/>
       </defs>
       <use xlink:href="#DejaVuSans-36"/>
       <use xlink:href="#DejaVuSans-30" x="63.623047"/>
      </g>
     </g>
    </g>
    <g id="xtick_8">
     <g id="line2d_8">
      <g>
       <use xlink:href="#m23eef29866" x="524" y="512.64" style="stroke: #000000; stroke-width: 0.8"/>
      </g>
     </g>
     <g id="text_8">
      <!-- 70 -->
      <g transform="translate(517.6375 527.238438)scale(0.1 -0.1)">
       <defs>
        <path id="DejaVuSans-37" d="M 525 4666 
L 3525 4666 
L 3525 4397 
L 1831 0 
L 1172 0 
L 2766 4134 
L 525 4134 
L 525 4666 
z
" transform="scale(0.015625)"/>
       </defs>
       <use xlink:href="#DejaVuSans-37"/>
       <use xlink:href="#DejaVuSans-30" x="63.623047"/>
      </g>
     </g>
    </g>
    <g id="xtick_9">
     <g id="line2d_9">
      <g>
       <use xlink:href="#m23eef29866" x="586" y="512.64" style="stroke: #000000; stroke-width: 0.8"/>
      </g>
     </g>
     <g id="text_9">
      <!-- 80 -->
      <g transform="translate(579.6375 527.238438)scale(0.1 -0.1)">
       <defs>
        <path id="DejaVuSans-38" d="M 2034 2216 
Q 1584 2216 1326 1975 
Q 1069 1734 1069 1313 
Q 1069 891 1326 650 
Q 1584 409 2034 409 
Q 2484 409 2743 651 
Q 3003 894 3003 1313 
Q 3003 1734 2745 1975 
Q 2488 2216 2034 2216 
z
M 1403 2484 
Q 997 2584 770 2862 
Q 544 3141 544 3541 
Q 544 4100 942 4425 
Q 1341 4750 2034 4750 
Q 2731 4750 3128 4425 
Q 3525 4100 3525 3541 
Q 3525 3141 3298 2862 
Q 3072 2584 2669 2484 
Q 3125 2378 3379 2068 
Q 3634 1759 3634 1313 
Q 3634 634 3220 271 
Q 2806 -91 2034 -91 
Q 1263 -91 848 271 
Q 434 634 434 1313 
Q 434 1759 690 2068 
Q 947 2378 1403 2484 
z
M 1172 3481 
Q 1172 3119 1398 2916 
Q 1625 2713 2034 2713 
Q 2441 2713 2670 2916 
Q 2900 3119 2900 3481 
Q 2900 3844 2670 4047 
Q 2441 4250 2034 4250 
Q 1625 4250 1398 4047 
Q 1172 3844 1172 3481 
z
" transform="scale(0.015625)"/>
       </defs>
       <use xlink:href="#DejaVuSans-38"/>
       <use xlink:href="#DejaVuSans-30" x="63.623047"/>
      </g>
     </g>
    </g>
    <g id="xtick_10">
     <g id="line2d_10">
      <g>
       <use xlink:href="#m23eef29866" x="648" y="512.64" style="stroke: #000000; stroke-width: 0.8"/>
      </g>
     </g>
     <g id="text_10">
      <!-- 90 -->
      <g transform="translate(641.6375 527.238438)scale(0.1 -0.1)">
       <defs>
        <path id="DejaVuSans-39" d="M 703 97 
L 703 672 
Q 941 559 1184 500 
Q 1428 441 1663 441 
Q 2288 441 2617 861 
Q 2947 1281 2994 2138 
Q 2813 1869 2534 1725 
Q 2256 1581 1919 1581 
Q 1219 1581 811 2004 
Q 403 2428 403 3163 
Q 403 3881 828 4315 
Q 1253 4750 1959 4750 
Q 2769 4750 3195 4129 
Q 3622 3509 3622 2328 
Q 3622 1225 3098 567 
Q 2575 -91 1691 -91 
Q 1453 -91 1209 -44 
Q 966 3 703 97 
z
M 1959 2075 
Q 2384 2075 2632 2365 
Q 2881 2656 2881 3163 
Q 2881 3666 2632 3958 
Q 2384 4250 1959 4250 
Q 1534 4250 1286 3958 
Q 1038 3666 1038 3163 
Q 1038 2656 1286 2365 
Q 1534 2075 1959 2075 
z
" transform="scale(0.015625)"/>
       </defs>
       <use xlink:href="#DejaVuSans-39"/>
       <use xlink:href="#DejaVuSans-30" x="63.623047"/>
      </g>
     </g>
    </g>
    <g id="text_11">
     <!-- Energy (eV) -->
     <g transform="translate(339.50625 540.916563)scale(0.1 -0.1)">
      <defs>
       <path id="DejaVuSans-45" d="M 628 4666 
L 3578 4666 
L 3578 4134 
L 1259 4134 
L 1259 2753 
L 3481 2753 
L 3481 2222 
L 1259 2222 
L 1259 531 
L 3634 531 
L 3634 0 
L 628 0 
L 628 4666 
z
" transform="scale(0.015625)"/>
       <path id="DejaVuSans-6e" d="M 3513 2113 
L 3513 0 
L 2938 0 
L 2938 2094 
Q 2938 2591 2744 2837 
Q 2550 3084 2163 3084 
Q 1697 3084 1428 2787 
Q 1159 2491 1159 1978 
L 1159 0 
L 581 0 
L 581 3500 
L 1159 3500 
L 1159 2956 
Q 1366 3272 1645 3428 
Q 1925 3584 2291 3584 
Q 2894 3584 3203 3211 
Q 3513 2838 3513 2113 
z
" transform="scale(0.015625)"/>
       <path id="DejaVuSans-65" d="M 3597 1894 
L 3597 1613 
L 953 1613 
Q 991 1019 1311 708 
Q 1631 397 2203 397 
Q 2534 397 2845 478 
Q 3156 559 3463 722 
L 3463 178 
Q 3153 47 2828 -22 
Q 2503 -91 2169 -91 
Q 1331 -91 842 396 
Q 353 884 353 1716 
Q 353 2575 817 3079 
Q 1281 3584 2069 3584 
Q 2775 3584 3186 3129 
Q 3597 2675 3597 1894 
z
M 3022 2063 
Q 3016 2534 2758 2815 
Q 2500 3097 2075 3097 
Q 1594 3097 1305 2825 
Q 1016 2553 972 2059 
L 3022 2063 
z
" transform="scale(0.015625)"/>
       <path id="DejaVuSans-72" d="M 2631 2963 
Q 2534 3019 2420 3045 
Q 2306 3072 2169 3072 
Q 1681 3072 1420 2755 
Q 1159 2438 1159 1844 
L 1159 0 
L 581 0 
L 581 3500 
L 1159 3500 
L 1159 2956 
Q 1341 3275 1631 3429 
Q 1922 3584 2338 3584 
Q 2397 3584 2469 3576 
Q 2541 3569 2628 3553 
L 2631 2963 
z
" transform="scale(0.015625)"/>
       <path id="DejaVuSans-67" d="M 2906 1791 
Q 2906 2416 2648 2759 
Q 2391 3103 1925 3103 
Q 1463 3103 1205 2759 
Q 947 2416 947 1791 
Q 947 1169 1205 825 
Q 1463 481 1925 481 
Q 2391 481 2648 825 
Q 2906 1169 2906 1791 
z
M 3481 434 
Q 3481 -459 3084 -895 
Q 2688 -1331 1869 -1331 
Q 1566 -1331 1297 -1286 
Q 1028 -1241 775 -1147 
L 775 -588 
Q 1028 -725 1275 -790 
Q 1522 -856 1778 -856 
Q 2344 -856 2625 -561 
Q 2906 -266 2906 331 
L 2906 616 
Q 2728 306 2450 153 
Q 2172 0 1784 0 
Q 1141 0 747 490 
Q 353 981 353 1791 
Q 353 2603 747 3093 
Q 1141 3584 1784 3584 
Q 2172 3584 2450 3431 
Q 2728 3278 2906 2969 
L 2906 3500 
L 3481 3500 
L 3481 434 
z
" transform="scale(0.015625)"/>
       <path id="DejaVuSans-79" d="M 2059 -325 
Q 1816 -950 1584 -1140 
Q 1353 -1331 966 -1331 
L 506 -1331 
L 506 -850 
L 844 -850 
Q 1081 -850 1212 -737 
Q 1344 -625 1503 -206 
L 1606 56 
L 191 3500 
L 800 3500 
L 1894 763 
L 2988 3500 
L 3597 3500 
L 2059 -325 
z
" transform="scale(0.015625)"/>
       <path id="DejaVuSans-20" transform="scale(0.015625)"/>
       <path id="DejaVuSans-28" d="M 1984 4856 
Q 1566 4138 1362 3434 
Q 1159 2731 1159 2009 
Q 1159 1288 1364 580 
Q 1569 -128 1984 -844 
L 1484 -844 
Q 1016 -109 783 600 
Q 550 1309 550 2009 
Q 550 2706 781 3412 
Q 1013 4119 1484 4856 
L 1984 4856 
z
" transform="scale(0.015625)"/>
       <path id="DejaVuSans-56" d="M 1831 0 
L 50 4666 
L 709 4666 
L 2188 738 
L 3669 4666 
L 4325 4666 
L 2547 0 
L 1831 0 
z
" transform="scale(0.015625)"/>
       <path id="DejaVuSans-29" d="M 513 4856 
L 1013 4856 
Q 1481 4119 1714 3412 
Q 1947 2706 1947 2009 
Q 1947 1309 1714 600 
Q 1481 -109 1013 -844 
L 513 -844 
Q 928 -128 1133 580 
Q 1338 1288 1338 2009 
Q 1338 2731 1133 3434 
Q 928 4138 513 4856 
z
" transform="scale(0.015625)"/>
      </defs>
      <use xlink:href="#DejaVuSans-45"/>
      <use xlink:href="#DejaVuSans-6e" x="63.183594"/>
      <use xlink:href="#DejaVuSans-65" x="126.5625"/>
      <use xlink:href="#DejaVuSans-72" x="188.085938"/>
      <use xlink:href="#DejaVuSans-67" x="227.449219"/>
      <use xlink:href="#DejaVuSans-79" x="290.925781"/>
      <use xlink:href="#DejaVuSans-20" x="350.105469"/>
      <use xlink:href="#DejaVuSans-28" x="381.892578"/>
      <use xlink:href="#DejaVuSans-65" x="420.90625"/>
      <use xlink:href="#DejaVuSans-56" x="482.429688"/>
      <use xlink:href="#DejaVuSans-29" x="550.837891"/>
     </g>
    </g>
   </g>
   <g id="matplotlib.axis_2">
    <g id="ytick_1">
     <g id="line2d_11">
      <defs>
       <path id="me5b5de2f44" d="M 0 0 
L -3.5 0 
" style="stroke: #000000; stroke-width: 0.8"/>
      </defs>
      <g>
       <use xlink:href="#me5b5de2f44" x="90" y="478.571143" style="stroke: #000000; stroke-width: 0.8"/>
      </g>
     </g>
     <g id="text_12">
      <!-- −1.5 -->
      <g transform="translate(58.717187 482.370362)scale(0.1 -0.1)">
       <defs>
        <path id="DejaVuSans-2212" d="M 678 2272 
L 4684 2272 
L 4684 1741 
L 678 1741 
L 678 2272 
z
" transform="scale(0.015625)"/>
        <path id="DejaVuSans-2e" d="M 684 794 
L 1344 794 
L 1344 0 
L 684 0 
L 684 794 
z
" transform="scale(0.015625)"/>
       </defs>
       <use xlink:href="#DejaVuSans-2212"/>
       <use xlink:href="#DejaVuSans-31" x="83.789062"/>
       <use xlink:href="#DejaVuSans-2e" x="147.412109"/>
       <use xlink:href="#DejaVuSans-35" x="179.199219"/>
      </g>
     </g>
    </g>
    <g id="ytick_2">
     <g id="line2d_12">
      <g>
       <use xlink:href="#me5b5de2f44" x="90" y="429.007958" style="stroke: #000000; stroke-width: 0.8"/>
      </g>
     </g>
     <g id="text_13">
      <!-- −1.0 -->
      <g transform="translate(58.717187 432.807176)scale(0.1 -0.1)">
       <use xlink:href="#DejaVuSans-2212"/>
       <use xlink:href="#DejaVuSans-31" x="83.789062"/>
       <use xlink:href="#DejaVuSans-2e" x="147.412109"/>
       <use xlink:href="#DejaVuSans-30" x="179.199219"/>
      </g>
     </g>
    </g>
    <g id="ytick_3">
     <g id="line2d_13">
      <g>
       <use xlink:href="#me5b5de2f44" x="90" y="379.444773" style="stroke: #000000; stroke-width: 0.8"/>
      </g>
     </g>
     <g id="text_14">
      <!-- −0.5 -->
      <g transform="translate(58.717187 383.243991)scale(0.1 -0.1)">
       <use xlink:href="#DejaVuSans-2212"/>
       <use xlink:href="#DejaVuSans-30" x="83.789062"/>
       <use xlink:href="#DejaVuSans-2e" x="147.412109"/>
       <use xlink:href="#DejaVuSans-35" x="179.199219"/>
      </g>
     </g>
    </g>
    <g id="ytick_4">
     <g id="line2d_14">
      <g>
       <use xlink:href="#me5b5de2f44" x="90" y="329.881588" style="stroke: #000000; stroke-width: 0.8"/>
      </g>
     </g>
     <g id="text_15">
      <!-- 0.0 -->
      <g transform="translate(67.096875 333.680806)scale(0.1 -0.1)">
       <use xlink:href="#DejaVuSans-30"/>
       <use xlink:href="#DejaVuSans-2e" x="63.623047"/>
       <use xlink:href="#DejaVuSans-30" x="95.410156"/>
      </g>
     </g>
    </g>
    <g id="ytick_5">
     <g id="line2d_15">
      <g>
       <use xlink:href="#me5b5de2f44" x="90" y="280.318402" style="stroke: #000000; stroke-width: 0.8"/>
      </g>
     </g>
     <g id="text_16">
      <!-- 0.5 -->
      <g transform="translate(67.096875 284.117621)scale(0.1 -0.1)">
       <use xlink:href="#DejaVuSans-30"/>
       <use xlink:href="#DejaVuSans-2e" x="63.623047"/>
       <use xlink:href="#DejaVuSans-35" x="95.410156"/>
      </g>
     </g>
    </g>
    <g id="ytick_6">
     <g id="line2d_16">
      <g>
       <use xlink:href="#me5b5de2f44" x="90" y="230.755217" style="stroke: #000000; stroke-width: 0.8"/>
      </g>
     </g>
     <g id="text_17">
      <!-- 1.0 -->
      <g transform="translate(67.096875 234.554436)scale(0.1 -0.1)">
       <use xlink:href="#DejaVuSans-31"/>
       <use xlink:href="#DejaVuSans-2e" x="63.623047"/>
       <use xlink:href="#DejaVuSans-30" x="95.410156"/>
      </g>
     </g>
    </g>
    <g id="ytick_7">
     <g id="line2d_17">
      <g>
       <use xlink:href="#me5b5de2f44" x="90" y="181.192032" style="stroke: #000000; stroke-width: 0.8"/>
      </g>
     </g>
     <g id="text_18">
      <!-- 1.5 -->
      <g transform="translate(67.096875 184.991251)scale(0.1 -0.1)">
       <use xlink:href="#DejaVuSans-31"/>
       <use xlink:href="#DejaVuSans-2e" x="63.623047"/>
       <use xlink:href="#DejaVuSans-35" x="95.410156"/>
      </g>
     </g>
    </g>
    <g id="ytick_8">
     <g id="line2d_18">
      <g>
       <use xlink:href="#me5b5de2f44" x="90" y="131.628847" style="stroke: #000000; stroke-width: 0.8"/>
      </g>
     </g>
     <g id="text_19">
      <!-- 2.0 -->
      <g transform="translate(67.096875 135.428066)scale(0.1 -0.1)">
       <use xlink:href="#DejaVuSans-32"/>
       <use xlink:href="#DejaVuSans-2e" x="63.623047"/>
       <use xlink:href="#DejaVuSans-30" x="95.410156"/>
      </g>
     </g>
    </g>
    <g id="ytick_9">
     <g id="line2d_19">
      <g>
       <use xlink:href="#me5b5de2f44" x="90" y="82.065662" style="stroke: #000000; stroke-width: 0.8"/>
      </g>
     </g>
     <g id="text_20">
      <!-- 2.5 -->
      <g transform="translate(67.096875 85.864881)scale(0.1 -0.1)">
       <use xlink:href="#DejaVuSans-32"/>
       <use xlink:href="#DejaVuSans-2e" x="63.623047"/>
       <use xlink:href="#DejaVuSans-35" x="95.410156"/>
      </g>
     </g>
    </g>
    <g id="text_21">
     <!-- Dielectric constant $\epsilon$ -->
     <g transform="translate(52.6375 342.23)rotate(-90)scale(0.1 -0.1)">
      <defs>
       <path id="DejaVuSans-44" d="M 1259 4147 
L 1259 519 
L 2022 519 
Q 2988 519 3436 956 
Q 3884 1394 3884 2338 
Q 3884 3275 3436 3711 
Q 2988 4147 2022 4147 
L 1259 4147 
z
M 628 4666 
L 1925 4666 
Q 3281 4666 3915 4102 
Q 4550 3538 4550 2338 
Q 4550 1131 3912 565 
Q 3275 0 1925 0 
L 628 0 
L 628 4666 
z
" transform="scale(0.015625)"/>
       <path id="DejaVuSans-69" d="M 603 3500 
L 1178 3500 
L 1178 0 
L 603 0 
L 603 3500 
z
M 603 4863 
L 1178 4863 
L 1178 4134 
L 603 4134 
L 603 4863 
z
" transform="scale(0.015625)"/>
       <path id="DejaVuSans-6c" d="M 603 4863 
L 1178 4863 
L 1178 0 
L 603 0 
L 603 4863 
z
" transform="scale(0.015625)"/>
       <path id="DejaVuSans-63" d="M 3122 3366 
L 3122 2828 
Q 2878 2963 2633 3030 
Q 2388 3097 2138 3097 
Q 1578 3097 1268 2742 
Q 959 2388 959 1747 
Q 959 1106 1268 751 
Q 1578 397 2138 397 
Q 2388 397 2633 464 
Q 2878 531 3122 666 
L 3122 134 
Q 2881 22 2623 -34 
Q 2366 -91 2075 -91 
Q 1284 -91 818 406 
Q 353 903 353 1747 
Q 353 2603 823 3093 
Q 1294 3584 2113 3584 
Q 2378 3584 2631 3529 
Q 2884 3475 3122 3366 
z
" transform="scale(0.015625)"/>
       <path id="DejaVuSans-74" d="M 1172 4494 
L 1172 3500 
L 2356 3500 
L 2356 3053 
L 1172 3053 
L 1172 1153 
Q 1172 725 1289 603 
Q 1406 481 1766 481 
L 2356 481 
L 2356 0 
L 1766 0 
Q 1100 0 847 248 
Q 594 497 594 1153 
L 594 3053 
L 172 3053 
L 172 3500 
L 594 3500 
L 594 4494 
L 1172 4494 
z
" transform="scale(0.015625)"/>
       <path id="DejaVuSans-6f" d="M 1959 3097 
Q 1497 3097 1228 2736 
Q 959 2375 959 1747 
Q 959 1119 1226 758 
Q 1494 397 1959 397 
Q 2419 397 2687 759 
Q 2956 1122 2956 1747 
Q 2956 2369 2687 2733 
Q 2419 3097 1959 3097 
z
M 1959 3584 
Q 2709 3584 3137 3096 
Q 3566 2609 3566 1747 
Q 3566 888 3137 398 
Q 2709 -91 1959 -91 
Q 1206 -91 779 398 
Q 353 888 353 1747 
Q 353 2609 779 3096 
Q 1206 3584 1959 3584 
z
" transform="scale(0.015625)"/>
       <path id="DejaVuSans-73" d="M 2834 3397 
L 2834 2853 
Q 2591 2978 2328 3040 
Q 2066 3103 1784 3103 
Q 1356 3103 1142 2972 
Q 928 2841 928 2578 
Q 928 2378 1081 2264 
Q 1234 2150 1697 2047 
L 1894 2003 
Q 2506 1872 2764 1633 
Q 3022 1394 3022 966 
Q 3022 478 2636 193 
Q 2250 -91 1575 -91 
Q 1294 -91 989 -36 
Q 684 19 347 128 
L 347 722 
Q 666 556 975 473 
Q 1284 391 1588 391 
Q 1994 391 2212 530 
Q 2431 669 2431 922 
Q 2431 1156 2273 1281 
Q 2116 1406 1581 1522 
L 1381 1569 
Q 847 1681 609 1914 
Q 372 2147 372 2553 
Q 372 3047 722 3315 
Q 1072 3584 1716 3584 
Q 2034 3584 2315 3537 
Q 2597 3491 2834 3397 
z
" transform="scale(0.015625)"/>
       <path id="DejaVuSans-61" d="M 2194 1759 
Q 1497 1759 1228 1600 
Q 959 1441 959 1056 
Q 959 750 1161 570 
Q 1363 391 1709 391 
Q 2188 391 2477 730 
Q 2766 1069 2766 1631 
L 2766 1759 
L 2194 1759 
z
M 3341 1997 
L 3341 0 
L 2766 0 
L 2766 531 
Q 2569 213 2275 61 
Q 1981 -91 1556 -91 
Q 1019 -91 701 211 
Q 384 513 384 1019 
Q 384 1609 779 1909 
Q 1175 2209 1959 2209 
L 2766 2209 
L 2766 2266 
Q 2766 2663 2505 2880 
Q 2244 3097 1772 3097 
Q 1472 3097 1187 3025 
Q 903 2953 641 2809 
L 641 3341 
Q 956 3463 1253 3523 
Q 1550 3584 1831 3584 
Q 2591 3584 2966 3190 
Q 3341 2797 3341 1997 
z
" transform="scale(0.015625)"/>
       <path id="DejaVuSans-Oblique-3b5" d="M 1263 1888 
Q 925 1963 778 2166 
Q 669 2309 669 2503 
Q 669 3034 1175 3344 
Q 1575 3588 2188 3588 
Q 2425 3588 2684 3550 
Q 2944 3513 3234 3438 
L 3134 2916 
Q 2847 3006 2606 3047 
Q 2359 3088 2138 3088 
Q 1766 3088 1522 2944 
Q 1228 2772 1228 2522 
Q 1228 2356 1381 2241 
Q 1563 2103 1925 2103 
L 2409 2103 
L 2319 1628 
L 1856 1628 
Q 1425 1628 1172 1469 
Q 828 1253 828 916 
Q 828 703 1013 563 
Q 1244 388 1716 388 
Q 2006 388 2284 444 
Q 2563 503 2806 619 
L 2700 84 
Q 2403 -3 2131 -47 
Q 1859 -91 1609 -91 
Q 866 -91 516 194 
Q 250 413 250 781 
Q 250 1278 600 1584 
Q 859 1813 1263 1888 
z
" transform="scale(0.015625)"/>
      </defs>
      <use xlink:href="#DejaVuSans-44" transform="translate(0 0.015625)"/>
      <use xlink:href="#DejaVuSans-69" transform="translate(77.001953 0.015625)"/>
      <use xlink:href="#DejaVuSans-65" transform="translate(104.785156 0.015625)"/>
      <use xlink:href="#DejaVuSans-6c" transform="translate(166.308594 0.015625)"/>
      <use xlink:href="#DejaVuSans-65" transform="translate(194.091797 0.015625)"/>
      <use xlink:href="#DejaVuSans-63" transform="translate(255.615234 0.015625)"/>
      <use xlink:href="#DejaVuSans-74" transform="translate(310.595703 0.015625)"/>
      <use xlink:href="#DejaVuSans-72" transform="translate(349.804688 0.015625)"/>
      <use xlink:href="#DejaVuSans-69" transform="translate(390.917969 0.015625)"/>
      <use xlink:href="#DejaVuSans-63" transform="translate(418.701172 0.015625)"/>
      <use xlink:href="#DejaVuSans-20" transform="translate(473.681641 0.015625)"/>
      <use xlink:href="#DejaVuSans-63" transform="translate(505.46875 0.015625)"/>
      <use xlink:href="#DejaVuSans-6f" transform="translate(560.449219 0.015625)"/>
      <use xlink:href="#DejaVuSans-6e" transform="translate(621.630859 0.015625)"/>
      <use xlink:href="#DejaVuSans-73" transform="translate(685.009766 0.015625)"/>
      <use xlink:href="#DejaVuSans-74" transform="translate(737.109375 0.015625)"/>
      <use xlink:href="#DejaVuSans-61" transform="translate(776.318359 0.015625)"/>
      <use xlink:href="#DejaVuSans-6e" transform="translate(837.597656 0.015625)"/>
      <use xlink:href="#DejaVuSans-74" transform="translate(900.976562 0.015625)"/>
      <use xlink:href="#DejaVuSans-20" transform="translate(940.185547 0.015625)"/>
      <use xlink:href="#DejaVuSans-Oblique-3b5" transform="translate(971.972656 0.015625)"/>
     </g>
    </g>
   </g>
   <g id="line2d_20">
    <path d="M 90 329.881588 
L 90.3813 367.082609 
L 90.7626 377.039389 
L 91.14452 381.979387 
L 92.28842 415.037047 
L 92.67034 428.50648 
L 93.43294 465.13944 
L 93.81424 475.835751 
L 94.19616 479.222383 
L 94.57746 475.511072 
L 94.95876 469.149667 
L 95.34006 466.554489 
L 95.72198 462.935712 
L 96.10328 446.279499 
L 96.86588 381.927583 
L 97.2478 369.51817 
L 97.6291 382.630106 
L 98.3917 431.460027 
L 98.77362 437.851695 
L 99.15492 410.115868 
L 100.29944 221.58355 
L 100.68074 193.22754 
L 101.06204 184.113891 
L 101.44334 195.252117 
L 101.82526 213.19169 
L 102.20656 224.375523 
L 102.58786 229.510329 
L 102.96916 238.115688 
L 103.35108 250.179314 
L 103.73238 258.683013 
L 104.11368 263.516691 
L 104.49498 269.947224 
L 104.8769 278.557466 
L 105.2582 283.509608 
L 105.6395 276.86011 
L 106.40272 249.606996 
L 106.78402 247.609209 
L 107.16532 251.512542 
L 107.54662 259.51879 
L 108.69114 291.882407 
L 109.07244 297.653449 
L 109.83566 313.537349 
L 110.21696 316.151718 
L 110.59826 317.233617 
L 110.98018 323.252764 
L 111.74278 342.40997 
L 112.506 354.494739 
L 112.8873 356.978692 
L 113.2686 348.958718 
L 114.03182 310.66101 
L 114.41312 301.031402 
L 114.79442 303.847076 
L 117.84606 382.888965 
L 118.22736 394.018646 
L 118.60928 401.029169 
L 118.99058 397.90102 
L 119.37188 389.288698 
L 119.75318 386.297329 
L 120.1351 389.134344 
L 120.5164 393.126811 
L 120.8977 395.693831 
L 121.279 392.325125 
L 122.04222 373.122712 
L 122.42352 368.932186 
L 122.80482 362.698129 
L 123.18674 352.342727 
L 123.56804 350.575456 
L 123.94934 362.733719 
L 124.71256 394.338906 
L 125.09386 401.710652 
L 125.47516 398.972423 
L 126.61968 363.843213 
L 127.00098 366.21034 
L 127.7642 376.94824 
L 128.1455 378.473627 
L 128.5268 374.34499 
L 129.29002 359.091741 
L 130.05262 334.689001 
L 130.43392 334.152178 
L 131.19714 347.455986 
L 131.57844 346.789562 
L 132.34166 326.978274 
L 132.72296 328.419606 
L 133.10426 335.875975 
L 133.48556 340.437988 
L 133.86748 338.696594 
L 134.24878 329.039103 
L 135.01138 305.723334 
L 135.3933 298.72094 
L 136.1559 290.365479 
L 136.5372 288.260933 
L 136.91912 292.361853 
L 137.68172 317.932362 
L 138.06302 317.929554 
L 138.82624 290.541567 
L 139.20754 284.252128 
L 139.58884 274.814225 
L 139.97076 258.76867 
L 140.35206 247.693419 
L 140.73336 243.442198 
L 141.11466 242.43745 
L 141.49658 244.513528 
L 141.87788 249.167177 
L 142.64048 263.061989 
L 143.0224 271.110468 
L 143.4037 275.105374 
L 143.785 276.326464 
L 144.1663 279.800275 
L 144.92952 292.181781 
L 146.45534 323.21434 
L 146.83664 329.77191 
L 147.21794 332.119302 
L 147.59986 333.371715 
L 147.98116 335.311804 
L 148.36246 334.484079 
L 149.12568 325.19609 
L 149.50698 322.792705 
L 149.88828 321.676365 
L 150.26958 322.321938 
L 150.6515 324.084241 
L 151.0328 326.56033 
L 151.4141 330.197617 
L 151.7954 332.155224 
L 152.17732 330.209543 
L 152.93992 322.529496 
L 153.32122 319.17765 
L 153.70314 316.998728 
L 154.08444 318.859017 
L 155.22896 332.617215 
L 155.61026 334.211589 
L 155.99156 333.795294 
L 156.37286 332.426106 
L 156.75478 332.621092 
L 157.13608 336.868791 
L 157.89868 351.815037 
L 159.0432 378.591489 
L 159.4245 381.772079 
L 159.80642 379.578958 
L 160.18772 366.703577 
L 160.95032 327.709236 
L 161.71354 315.129669 
L 162.09484 311.035258 
L 162.47614 314.674435 
L 165.52778 385.712051 
L 165.9097 386.179913 
L 166.291 384.048314 
L 166.6723 383.845583 
L 167.0536 384.183341 
L 167.43552 383.864742 
L 167.81682 386.583227 
L 168.57942 398.774345 
L 168.96134 400.785276 
L 169.34264 407.456113 
L 169.72394 424.997841 
L 170.48716 469.604043 
L 170.86846 471.961724 
L 171.63106 442.164396 
L 172.01298 425.449874 
L 173.15688 359.857003 
L 174.3014 345.216563 
L 174.6827 343.085304 
L 175.06462 339.87281 
L 175.44592 329.925557 
L 176.59044 258.042432 
L 176.97174 247.801772 
L 177.35304 246.644042 
L 177.73434 252.161099 
L 178.49756 266.330934 
L 178.87886 267.875123 
L 179.26016 266.437839 
L 179.64208 265.820415 
L 180.02338 267.922076 
L 180.40468 272.241968 
L 181.1679 282.31097 
L 181.5492 283.054212 
L 181.9305 283.403198 
L 182.3118 284.706748 
L 182.69372 287.000194 
L 183.45632 292.478489 
L 183.83762 294.172887 
L 184.21954 297.154781 
L 186.12666 321.670308 
L 186.50796 325.287876 
L 186.88926 324.422141 
L 187.27118 313.764041 
L 188.03378 277.732086 
L 188.41508 254.398004 
L 188.797 238.116001 
L 189.1783 236.218002 
L 189.5596 241.096385 
L 189.9409 247.454885 
L 191.08542 271.622265 
L 191.46672 270.74984 
L 191.84864 268.247433 
L 192.22994 271.370333 
L 193.37446 299.108187 
L 194.51836 327.273073 
L 194.90028 331.16362 
L 195.66288 325.327869 
L 196.04418 327.112213 
L 196.4261 334.071148 
L 199.09582 408.238015 
L 199.47774 423.215976 
L 199.85904 433.434158 
L 200.24034 435.637242 
L 200.62164 432.758335 
L 201.00294 428.686083 
L 201.76616 426.115922 
L 202.14746 421.293649 
L 202.52876 411.832837 
L 203.67328 368.561275 
L 204.05458 359.696623 
L 204.4365 359.340082 
L 204.8178 364.888713 
L 205.1991 368.561768 
L 205.5804 367.678701 
L 206.72492 358.097185 
L 207.48814 354.049625 
L 207.86944 343.71072 
L 208.63204 313.59743 
L 209.39526 302.525758 
L 209.77656 290.989605 
L 210.92108 233.200385 
L 211.30238 227.137214 
L 211.68368 225.921964 
L 212.0656 223.020327 
L 212.4469 215.235636 
L 212.8282 203.296162 
L 213.2095 195.501013 
L 213.59142 197.946401 
L 214.35402 212.442156 
L 214.73532 217.393548 
L 215.11724 219.769339 
L 215.49854 220.386321 
L 216.26114 217.057103 
L 216.64306 220.104604 
L 217.40566 237.604048 
L 217.78696 246.320219 
L 218.16888 251.940388 
L 218.55018 255.842906 
L 218.93148 258.459607 
L 219.31278 258.680913 
L 219.6947 256.318285 
L 220.8386 239.29196 
L 221.22052 240.44554 
L 221.98312 247.006102 
L 222.74634 247.414881 
L 223.12764 248.753636 
L 223.50894 250.54798 
L 223.89024 253.163455 
L 224.27216 256.554816 
L 224.65346 262.357575 
L 226.94188 316.932996 
L 227.7051 322.919468 
L 228.0864 327.359047 
L 228.4677 329.543133 
L 228.84962 327.809531 
L 229.23092 318.794302 
L 229.99352 284.587156 
L 230.75674 238.418584 
L 231.51934 188.712215 
L 231.90126 175.936005 
L 232.28256 174.167829 
L 232.66386 181.14689 
L 233.42708 205.297523 
L 233.80838 209.276932 
L 234.18968 208.029684 
L 234.57098 207.651656 
L 234.9529 209.473242 
L 235.3342 213.232401 
L 235.7155 218.437636 
L 236.0968 220.006707 
L 237.24132 209.95902 
L 237.62262 206.381986 
L 238.38584 193.144512 
L 238.76714 186.305218 
L 239.91166 174.014956 
L 240.29296 165.691285 
L 241.05618 142.509661 
L 241.43748 137.029837 
L 241.81878 135.645834 
L 242.20008 135.353798 
L 242.582 135.591949 
L 242.9633 136.405182 
L 243.3446 138.191528 
L 244.48912 146.240966 
L 244.87042 148.258237 
L 245.63364 149.545542 
L 246.01494 151.893568 
L 249.06658 184.75514 
L 249.82918 195.039213 
L 250.9737 212.380162 
L 252.88082 244.535572 
L 253.64404 258.682786 
L 254.40664 276.307666 
L 254.78856 279.108747 
L 255.16986 276.930153 
L 255.55116 273.485484 
L 255.93246 271.925364 
L 256.31438 271.770573 
L 256.69568 269.23552 
L 257.07698 261.423471 
L 257.8402 236.668492 
L 258.2215 229.055458 
L 258.6028 226.289168 
L 258.9841 228.402731 
L 259.36602 233.424377 
L 259.74732 236.417325 
L 260.12862 237.060951 
L 261.27314 237.934805 
L 261.65444 238.790081 
L 262.03574 240.712394 
L 263.18026 252.261268 
L 263.56156 249.031413 
L 264.32478 230.196591 
L 265.08738 212.191465 
L 265.4693 207.939221 
L 265.8506 208.556521 
L 266.2319 211.558167 
L 266.6132 210.688699 
L 267.37642 199.357455 
L 268.13902 193.525375 
L 268.52094 187.721169 
L 269.28354 167.832177 
L 270.42806 137.226246 
L 270.80936 133.004374 
L 271.19066 136.155552 
L 272.71648 155.773493 
L 273.0984 158.141949 
L 273.4797 157.855117 
L 273.861 156.717067 
L 274.2423 156.192035 
L 274.62422 157.565837 
L 275.00552 160.137403 
L 275.38682 163.746554 
L 276.53134 179.926496 
L 276.91264 182.481399 
L 277.29394 183.240875 
L 278.43846 188.114374 
L 280.7275 194.072186 
L 281.4901 197.322896 
L 281.8714 198.021598 
L 282.25332 198.35272 
L 282.63462 199.107914 
L 283.39722 202.695397 
L 284.16044 208.113287 
L 285.30496 219.732038 
L 286.06756 228.811191 
L 287.21208 243.773441 
L 287.59338 246.199769 
L 287.97468 245.758129 
L 288.7379 241.777743 
L 289.1192 240.404752 
L 289.5005 238.385523 
L 290.64502 230.013663 
L 291.02632 229.746299 
L 291.40824 231.447523 
L 292.93406 242.1627 
L 293.31536 244.03804 
L 294.07796 245.790119 
L 294.45988 245.527535 
L 295.60378 239.791994 
L 295.9857 240.260632 
L 296.7483 242.109833 
L 297.1296 242.374303 
L 297.51152 243.360865 
L 298.27412 249.500208 
L 299.03734 256.439593 
L 300.18124 268.367549 
L 300.56316 271.10004 
L 300.94446 272.160499 
L 301.32576 272.056164 
L 301.70706 272.196947 
L 302.08898 273.866381 
L 302.47028 276.171032 
L 302.85158 277.224716 
L 303.23288 277.569294 
L 303.6148 279.426739 
L 304.3774 288.044305 
L 305.14062 296.807398 
L 306.28452 304.477997 
L 306.66644 307.973065 
L 307.04774 308.297502 
L 307.81034 302.477443 
L 308.19226 300.745208 
L 308.57356 299.56954 
L 308.95486 299.375821 
L 309.33616 302.229037 
L 309.71808 306.731716 
L 310.09938 307.824144 
L 310.48068 302.340019 
L 311.24328 277.938011 
L 311.6252 265.559945 
L 312.0065 257.795089 
L 312.3878 255.182255 
L 312.7691 255.741982 
L 313.15102 257.366042 
L 313.53232 260.434129 
L 314.29492 267.930294 
L 315.05814 273.741715 
L 315.43944 277.242855 
L 315.82074 278.60638 
L 316.20266 276.569945 
L 316.58396 271.845341 
L 317.34656 259.336856 
L 317.72848 257.401963 
L 318.10978 259.188069 
L 318.87238 265.223239 
L 319.2543 268.683974 
L 320.0169 272.534362 
L 320.78012 281.072679 
L 321.54272 292.468835 
L 323.44984 309.069018 
L 323.83176 309.215459 
L 324.21306 306.891822 
L 324.97566 299.350439 
L 325.73888 297.128378 
L 326.12018 293.612525 
L 326.50148 286.464896 
L 327.2647 265.141588 
L 328.0273 238.782793 
L 328.79052 223.192311 
L 329.55312 201.06345 
L 329.93504 194.622971 
L 330.31634 195.057254 
L 330.69764 200.788612 
L 332.22346 232.720759 
L 334.13058 270.868566 
L 334.5125 278.828916 
L 334.8938 283.947594 
L 335.2751 285.769305 
L 335.6564 285.100274 
L 336.03832 280.915889 
L 336.41962 271.583286 
L 337.94544 216.645887 
L 338.32674 210.657494 
L 338.70804 208.522709 
L 339.08996 210.194931 
L 339.47126 214.665303 
L 340.23386 229.668584 
L 340.99708 244.280893 
L 341.37838 247.934518 
L 341.75968 248.45798 
L 342.1416 246.745036 
L 342.5229 241.291567 
L 343.2855 227.143092 
L 344.81132 214.133103 
L 345.19324 212.843399 
L 345.57454 214.148071 
L 346.33714 218.419516 
L 346.71906 218.352526 
L 347.10036 217.65767 
L 347.48166 218.584333 
L 347.86296 221.272412 
L 349.00748 231.586183 
L 349.38878 233.043214 
L 349.7707 232.365932 
L 350.152 232.15586 
L 350.9146 236.501474 
L 351.29652 236.80178 
L 351.67782 235.252064 
L 352.05912 234.27135 
L 352.44042 234.807478 
L 352.82234 235.818702 
L 353.20364 237.984737 
L 353.96624 243.389531 
L 354.34816 245.066789 
L 354.72946 245.591527 
L 355.11076 247.03898 
L 357.01788 269.49255 
L 358.1624 276.616325 
L 358.5437 275.020506 
L 358.92562 265.463067 
L 359.68822 237.316611 
L 360.83274 190.793294 
L 361.21404 179.606863 
L 361.59534 174.224499 
L 361.97726 173.62073 
L 362.35856 174.978375 
L 362.73986 179.112311 
L 363.12116 185.120628 
L 363.50308 188.436733 
L 364.64698 190.318419 
L 365.0289 192.211861 
L 365.4102 194.926308 
L 365.7915 196.336054 
L 366.1728 194.481558 
L 366.93602 185.165017 
L 367.31732 183.824135 
L 367.69862 183.73049 
L 368.08054 184.35229 
L 368.46184 186.445433 
L 369.22444 195.463999 
L 369.60636 199.99227 
L 371.51348 214.932636 
L 371.89478 216.590188 
L 372.27608 217.163218 
L 372.658 217.410706 
L 373.0393 216.312267 
L 374.18382 206.16481 
L 374.56512 205.559514 
L 374.94642 205.832816 
L 375.32772 205.850361 
L 375.70964 204.434648 
L 376.85354 195.629263 
L 377.23546 196.041757 
L 377.61676 196.641105 
L 378.37936 196.028127 
L 378.76128 196.148041 
L 379.14258 196.752592 
L 379.52388 198.700079 
L 380.2871 205.038933 
L 380.6684 205.361064 
L 381.0497 204.823293 
L 381.431 204.584468 
L 381.81292 203.406668 
L 382.19422 200.422171 
L 383.33874 187.575047 
L 383.72004 186.672135 
L 384.10134 186.561896 
L 384.48264 186.073005 
L 385.24586 182.965562 
L 385.62716 182.547635 
L 386.00846 184.033143 
L 386.39038 186.399656 
L 387.15298 189.394531 
L 387.53428 191.931909 
L 388.6788 202.813208 
L 389.0601 204.343809 
L 389.44202 206.456301 
L 391.34914 221.603702 
L 391.73044 225.270724 
L 392.11174 227.587069 
L 392.49366 227.885806 
L 392.87496 227.17278 
L 393.25626 228.330904 
L 393.63756 230.937562 
L 394.01948 232.299332 
L 394.40078 232.960148 
L 394.78208 234.563948 
L 395.16338 235.151349 
L 395.5453 229.529758 
L 397.07112 181.268637 
L 397.83372 171.395125 
L 398.21502 167.511285 
L 398.59694 164.888391 
L 399.35954 162.968333 
L 399.74084 162.164894 
L 400.12276 160.481936 
L 400.88536 154.786115 
L 401.26666 155.09192 
L 402.41118 163.291178 
L 403.1744 168.564929 
L 403.5557 171.313187 
L 403.937 173.13971 
L 404.3183 173.677183 
L 404.70022 172.920591 
L 405.08152 171.676525 
L 405.46282 171.850323 
L 406.22604 174.15296 
L 406.60734 174.57614 
L 406.98864 174.266767 
L 407.36994 173.303833 
L 407.75186 173.074534 
L 408.13316 174.932708 
L 408.89576 181.002185 
L 409.65898 183.976839 
L 410.42158 187.379897 
L 410.8035 188.365609 
L 411.1848 188.858515 
L 411.9474 188.937856 
L 412.32932 189.931727 
L 413.47322 193.929355 
L 413.85514 194.685421 
L 414.23644 194.192545 
L 414.61774 193.030714 
L 414.99904 192.995396 
L 415.38096 194.592619 
L 416.52486 201.720152 
L 416.90678 201.10764 
L 418.4326 195.267372 
L 418.8139 194.34967 
L 419.1952 192.625565 
L 419.9578 188.317484 
L 420.33972 187.558671 
L 420.72102 187.990039 
L 421.10232 188.124613 
L 421.48362 186.639393 
L 422.24684 181.52243 
L 422.62814 179.811668 
L 423.00944 179.339757 
L 423.77266 179.767626 
L 424.15396 179.510165 
L 424.53526 178.822139 
L 424.91718 178.994371 
L 425.29848 180.289179 
L 426.06108 183.407596 
L 426.8243 184.981524 
L 427.2056 185.685104 
L 427.5869 185.912916 
L 428.35012 183.933372 
L 428.73142 184.509703 
L 429.49464 187.807171 
L 429.87594 188.041119 
L 431.02046 184.799588 
L 431.40176 184.769136 
L 431.78306 185.486444 
L 432.54628 188.380934 
L 433.30888 189.832541 
L 433.69018 190.517068 
L 434.0721 191.46879 
L 434.4534 192.866353 
L 435.59792 198.368739 
L 436.36052 200.841149 
L 436.74182 200.922125 
L 437.12374 200.333523 
L 437.50504 200.101805 
L 438.26764 201.340319 
L 439.03086 202.989406 
L 439.41216 204.2892 
L 439.79346 205.09714 
L 440.17538 205.141092 
L 440.55668 205.411152 
L 441.7012 208.126689 
L 442.0825 209.53469 
L 442.4638 210.492598 
L 442.8451 210.862755 
L 443.22702 210.643052 
L 443.98962 209.520366 
L 444.75284 209.032675 
L 445.13414 208.994154 
L 445.51544 209.733339 
L 446.27866 211.858777 
L 446.65996 212.4666 
L 447.04126 212.662603 
L 447.42256 212.261528 
L 448.18578 210.489743 
L 448.56708 210.085882 
L 449.7116 210.212536 
L 450.0929 211.382772 
L 451.23742 218.534611 
L 452.00002 221.512883 
L 453.52584 224.47006 
L 454.28906 224.811124 
L 454.67036 225.264112 
L 455.05166 225.154726 
L 455.43358 223.916876 
L 455.81488 221.923871 
L 456.57748 215.096562 
L 457.3407 208.855912 
L 457.722 206.223057 
L 458.1033 204.390041 
L 459.24782 202.859798 
L 459.62912 203.251694 
L 460.39234 204.84857 
L 461.15494 206.978528 
L 461.53686 208.572758 
L 462.29946 212.921699 
L 462.68076 214.575841 
L 463.06268 215.225575 
L 463.44398 214.675998 
L 463.82528 213.596542 
L 464.20658 211.744881 
L 465.3511 203.271222 
L 466.11432 198.65905 
L 466.49562 195.765224 
L 466.87692 193.738516 
L 467.25822 193.212512 
L 467.64014 193.171315 
L 468.02144 192.936019 
L 468.40274 192.311087 
L 469.16596 190.521479 
L 469.54726 190.039547 
L 469.92856 190.19231 
L 470.30986 190.541374 
L 470.69178 191.52787 
L 471.45438 196.059858 
L 471.83568 196.859411 
L 472.2176 196.431334 
L 472.5989 195.510678 
L 472.9802 194.933336 
L 473.3615 195.44012 
L 473.74342 196.737842 
L 474.88732 201.886575 
L 476.41314 202.671646 
L 476.79506 203.590875 
L 477.55766 206.482936 
L 478.32088 207.988388 
L 478.70218 209.168844 
L 479.8467 214.079416 
L 480.9906 215.801915 
L 481.75382 218.300713 
L 482.13512 219.453285 
L 483.66094 222.467341 
L 484.04224 222.616764 
L 484.42416 222.614276 
L 484.80546 223.475595 
L 485.56806 227.035818 
L 485.94998 226.681837 
L 486.71258 223.369886 
L 487.4758 223.164972 
L 487.8571 220.503449 
L 488.6197 212.960597 
L 489.38292 207.393283 
L 489.76422 204.447783 
L 490.14552 202.680855 
L 490.52744 202.817084 
L 491.29004 206.034013 
L 491.67134 206.174703 
L 492.05326 205.591572 
L 492.43456 205.266606 
L 492.81586 204.73397 
L 493.19716 203.941197 
L 493.57908 203.925743 
L 495.1049 208.869542 
L 495.8675 210.521424 
L 496.2488 210.357033 
L 496.63072 208.936869 
L 497.39332 202.787733 
L 498.15654 197.193814 
L 498.53784 195.598266 
L 498.91914 194.683845 
L 499.30044 194.083883 
L 499.68236 194.431499 
L 500.44496 196.55548 
L 500.82626 196.854435 
L 501.20818 196.466266 
L 501.58948 196.501396 
L 502.35208 198.535321 
L 502.734 198.891541 
L 503.1153 198.18592 
L 505.78564 189.846131 
L 506.16694 189.664165 
L 506.54824 190.393101 
L 506.92954 191.713603 
L 507.31146 192.23127 
L 508.45536 190.561962 
L 508.83728 190.327043 
L 509.21858 189.930339 
L 509.59988 188.993347 
L 509.98118 187.730705 
L 510.3631 187.06065 
L 510.7444 187.25587 
L 511.88892 189.473079 
L 512.27022 189.88941 
L 512.65152 190.034868 
L 513.79604 189.601646 
L 514.55864 188.366095 
L 514.94056 188.293455 
L 515.32186 188.877726 
L 515.70316 190.010919 
L 516.08446 190.762663 
L 516.46638 191.076874 
L 516.84768 191.61172 
L 517.61028 193.62013 
L 518.7548 195.516893 
L 519.1361 196.446332 
L 519.51802 196.824885 
L 520.28062 196.201162 
L 521.04384 196.241309 
L 521.42514 196.345094 
L 521.80644 197.00478 
L 522.56966 200.275791 
L 523.33226 203.22487 
L 523.71356 203.615577 
L 525.23938 201.995535 
L 525.6213 201.322903 
L 526.0026 201.098193 
L 526.3839 201.659249 
L 526.7652 202.614787 
L 527.14712 203.065882 
L 527.52842 202.898973 
L 527.90972 203.069995 
L 528.29102 203.861728 
L 529.81684 208.911374 
L 530.58006 209.891714 
L 531.34266 209.967912 
L 532.10588 210.499923 
L 532.48718 210.396961 
L 532.86848 209.895183 
L 534.013 207.471632 
L 535.15752 205.323514 
L 535.92012 204.020181 
L 536.30142 203.682894 
L 536.68334 203.00026 
L 538.20916 198.703578 
L 538.59046 198.13031 
L 538.97176 198.364873 
L 539.35306 199.120295 
L 540.11628 200.924911 
L 540.49758 200.815673 
L 540.87888 200.416412 
L 541.2608 200.713117 
L 542.0234 202.006766 
L 542.4047 201.898897 
L 542.78662 200.917109 
L 543.16792 199.351042 
L 543.54922 198.366003 
L 543.93052 198.547414 
L 544.31244 199.138267 
L 544.69374 199.438005 
L 545.07504 199.445697 
L 545.45634 199.102036 
L 545.83826 198.405951 
L 546.21956 198.413356 
L 547.36408 201.731522 
L 547.74538 202.154672 
L 548.50798 201.705937 
L 549.2712 200.783576 
L 549.6525 200.676401 
L 550.79702 201.599565 
L 551.17832 201.730729 
L 551.55962 201.565396 
L 552.32284 200.817924 
L 553.08544 200.426315 
L 553.46736 200.498419 
L 554.22996 201.00219 
L 555.75578 201.896785 
L 556.13708 201.911942 
L 556.519 201.747075 
L 557.2816 200.635908 
L 557.6629 200.891426 
L 558.42612 201.946408 
L 558.80742 202.204127 
L 559.18872 202.281366 
L 559.57064 201.996268 
L 560.33324 200.638951 
L 560.71454 200.291949 
L 561.09646 200.308017 
L 561.47776 200.506409 
L 562.24036 201.329941 
L 562.62228 201.225967 
L 563.00358 200.513675 
L 563.76618 198.781382 
L 564.1481 198.797698 
L 564.5294 198.936465 
L 565.292 197.992297 
L 565.67392 198.681839 
L 566.43652 201.045765 
L 567.19974 201.883007 
L 567.58104 201.903615 
L 567.96234 201.739947 
L 568.72556 201.596908 
L 569.86946 200.426107 
L 570.25138 200.014167 
L 570.63268 200.220211 
L 571.7772 203.134368 
L 572.1585 203.654335 
L 572.5398 203.802817 
L 572.9211 203.641062 
L 573.68432 202.570408 
L 574.06562 202.594595 
L 574.82884 203.142368 
L 575.59144 204.192403 
L 575.97274 204.156232 
L 576.73596 203.395229 
L 577.11726 203.35881 
L 578.26178 203.878103 
L 578.64308 204.09402 
L 579.02438 204.121686 
L 579.4063 203.897542 
L 579.7876 203.862402 
L 580.1689 204.142642 
L 580.93212 205.020535 
L 582.07602 206.058983 
L 582.83924 206.310744 
L 583.22054 206.468949 
L 583.60184 206.500541 
L 583.98376 206.277973 
L 584.74636 205.450684 
L 585.12766 205.354779 
L 587.798 207.372863 
L 588.56122 208.147109 
L 588.94252 208.182378 
L 589.32382 207.768199 
L 589.70512 207.160663 
L 590.08704 206.938204 
L 590.46834 206.973225 
L 591.23094 207.301799 
L 591.61286 207.272924 
L 591.99416 207.373468 
L 592.37546 207.732811 
L 592.75676 208.286887 
L 593.13868 208.45342 
L 593.90128 208.010077 
L 594.6645 208.409794 
L 595.8084 208.199537 
L 596.57162 208.472105 
L 596.95292 208.38072 
L 598.09744 207.387395 
L 598.47874 207.622542 
L 598.86004 207.989102 
L 600.00456 208.567881 
L 600.38586 209.199435 
L 600.76778 210.160475 
L 601.14908 210.662917 
L 602.2936 211.186829 
L 602.6749 211.230395 
L 603.0562 211.010146 
L 603.4375 210.591536 
L 603.81942 210.370603 
L 604.20072 210.414209 
L 604.96332 211.032014 
L 605.34524 211.142758 
L 605.72654 211.054912 
L 606.10784 211.099846 
L 606.87106 211.8551 
L 607.25236 211.83458 
L 607.63366 211.680964 
L 608.01496 211.79382 
L 608.77818 212.887877 
L 609.15948 213.135832 
L 609.54078 213.116919 
L 609.9227 213.365518 
L 610.304 213.882492 
L 610.6853 214.132399 
L 611.0666 214.248734 
L 611.44852 214.163981 
L 611.82982 213.810843 
L 612.21112 213.726031 
L 613.35564 214.885343 
L 614.50016 214.971236 
L 614.88146 214.887693 
L 615.26276 214.939308 
L 615.64406 215.329221 
L 616.40728 216.855906 
L 616.78858 217.248427 
L 617.5518 217.424584 
L 618.3144 217.126085 
L 619.07762 217.235461 
L 620.22152 217.060116 
L 620.60344 217.047111 
L 622.12926 217.886404 
L 622.89186 218.342901 
L 623.27316 218.4689 
L 624.41768 218.43604 
L 624.79898 218.287727 
L 625.1809 218.345726 
L 626.70672 219.339606 
L 627.08802 219.191978 
L 627.46932 219.251681 
L 627.85062 219.449964 
L 628.99514 220.601773 
L 629.75836 221.071979 
L 630.13966 221.064594 
L 630.90226 220.284697 
L 631.66548 220.13005 
L 632.42808 220.464007 
L 633.5726 221.701639 
L 634.71712 221.824239 
L 635.09842 221.678473 
L 635.47972 221.743134 
L 636.24294 222.505376 
L 636.62424 222.782027 
L 637.76876 223.192004 
L 639.29458 223.248139 
L 640.8204 223.518824 
L 641.2017 223.799748 
L 641.9643 224.505082 
L 644.25334 225.351532 
L 645.01594 225.850316 
L 646.16046 225.564247 
L 646.92368 225.34944 
L 647.30498 225.421267 
L 648.06758 225.924462 
L 648.06758 225.924462 
" clip-path="url(#p70107032b9)" style="fill: none; stroke: #ee82ee; stroke-width: 1.5; stroke-linecap: square"/>
   </g>
   <g id="line2d_21">
    <path d="M 90 329.881588 
L 90.33356 388.416205 
L 90.66774 406.195108 
L 91.0013 393.245312 
L 91.33548 371.531005 
L 91.66904 361.09893 
L 92.0026 363.248647 
L 92.33678 370.128301 
L 92.67034 381.589779 
L 93.67164 433.311727 
L 94.00582 432.825641 
L 94.33938 423.698273 
L 94.67294 421.381331 
L 95.00712 426.904038 
L 95.34068 439.882299 
L 96.00842 474.631018 
L 96.34198 473.250664 
L 96.67616 453.061665 
L 97.00972 405.94659 
L 97.67746 269.246215 
L 98.01102 224.607578 
L 98.3452 208.481889 
L 98.67876 208.934133 
L 99.3465 219.598485 
L 99.68006 220.975073 
L 100.01424 223.404551 
L 100.3478 230.861382 
L 101.01554 256.712766 
L 102.3504 315.141634 
L 102.68458 320.102513 
L 103.01814 320.756829 
L 103.68588 329.682545 
L 104.01944 326.702288 
L 104.68718 312.829093 
L 105.02136 312.63636 
L 105.68848 319.190014 
L 106.02266 316.815529 
L 106.35622 311.678577 
L 106.68978 309.084117 
L 107.02396 308.016942 
L 107.35752 305.539961 
L 107.6917 304.05805 
L 108.02526 307.324831 
L 108.693 321.035169 
L 109.02656 324.352174 
L 109.36074 324.60142 
L 109.6943 325.123859 
L 110.02786 331.709164 
L 110.36204 342.319396 
L 110.6956 348.990423 
L 111.02978 348.803667 
L 111.36334 344.828222 
L 111.6969 345.279409 
L 112.03108 353.512697 
L 112.69882 372.219207 
L 113.03238 373.976716 
L 113.36594 375.120539 
L 113.70012 381.5052 
L 114.03368 390.165948 
L 114.36724 395.289786 
L 115.36916 403.742168 
L 115.70272 402.318266 
L 116.03628 403.244917 
L 116.37046 408.06929 
L 116.70402 408.498066 
L 117.37176 391.221931 
L 117.70532 389.694456 
L 118.0395 395.074901 
L 119.37436 440.196351 
L 119.70854 445.35911 
L 120.0421 447.494709 
L 120.37566 445.473591 
L 120.70984 436.678257 
L 121.0434 420.877627 
L 121.37758 393.802109 
L 122.0447 312.225427 
L 122.37888 296.384686 
L 122.71244 304.316957 
L 123.38018 332.420636 
L 123.71374 338.685664 
L 124.04792 338.111231 
L 124.71566 321.530759 
L 125.04922 325.817173 
L 125.38278 338.424769 
L 126.71826 407.238489 
L 127.05182 412.528759 
L 127.386 406.8601 
L 128.05312 384.950428 
L 128.3873 383.032892 
L 128.72086 387.466641 
L 129.05504 385.344783 
L 129.72216 342.21789 
L 130.05634 335.552576 
L 130.3899 340.267941 
L 130.72408 342.633879 
L 131.05764 343.77934 
L 131.3912 350.194381 
L 132.05894 369.809265 
L 132.3925 370.906148 
L 132.72668 364.427121 
L 133.39442 347.133872 
L 133.72798 344.103548 
L 134.06154 350.38768 
L 134.39572 366.182269 
L 134.72928 387.553952 
L 135.06346 400.228389 
L 135.39702 388.712896 
L 136.06476 326.786777 
L 136.7325 257.392445 
L 137.06606 234.710179 
L 137.39962 224.317505 
L 137.7338 219.180598 
L 138.06736 217.454302 
L 138.40154 222.808742 
L 139.40284 256.569422 
L 139.7364 250.658918 
L 140.40414 221.596308 
L 140.7377 214.982953 
L 141.07188 217.282714 
L 142.40674 256.536455 
L 142.74092 261.404134 
L 143.07448 263.3004 
L 143.40804 267.899881 
L 144.07578 288.192303 
L 144.40996 293.032726 
L 144.74352 294.420302 
L 145.07708 297.93288 
L 145.74482 312.138735 
L 146.41256 332.219491 
L 146.74612 343.378455 
L 147.0803 350.532627 
L 147.41386 347.357615 
L 148.0816 318.219992 
L 148.41516 311.341428 
L 148.74934 308.271325 
L 149.0829 307.198097 
L 149.41646 310.04479 
L 150.0842 323.393495 
L 150.41838 326.13349 
L 150.75194 326.034606 
L 151.0855 326.210034 
L 151.41968 327.367795 
L 151.75324 327.966134 
L 152.0868 326.093915 
L 152.75454 317.330221 
L 153.42228 308.535988 
L 153.75584 310.721315 
L 154.75776 327.456208 
L 155.42488 340.07881 
L 156.09262 354.465196 
L 156.4268 356.906398 
L 156.76036 356.715592 
L 157.09392 356.107027 
L 157.4281 354.215602 
L 157.76166 354.222603 
L 158.09584 360.021888 
L 158.76296 380.964507 
L 159.09714 387.108912 
L 159.4307 390.825557 
L 159.76426 396.469828 
L 160.432 412.408784 
L 160.76618 407.590606 
L 161.09974 390.002866 
L 162.10104 302.265046 
L 162.43522 288.665656 
L 162.76878 286.771302 
L 163.10234 292.651663 
L 166.10686 375.576756 
L 166.44042 376.180396 
L 167.10816 378.32157 
L 167.44172 377.584238 
L 168.44364 371.043284 
L 169.11076 362.249964 
L 169.44494 363.940886 
L 169.7785 370.449972 
L 170.11268 380.961728 
L 170.7798 415.977074 
L 171.7811 480.724277 
L 172.11528 492.48 
L 172.44884 486.911507 
L 172.78302 468.177961 
L 173.11658 436.375248 
L 173.78432 338.950466 
L 174.78562 255.044909 
L 175.11918 227.899178 
L 175.45336 218.260249 
L 175.78692 226.922486 
L 176.45466 256.297866 
L 178.45726 300.223986 
L 179.125 308.465571 
L 179.79274 319.630742 
L 180.79404 332.382313 
L 181.46178 320.864563 
L 181.79534 321.753209 
L 182.12952 326.585199 
L 182.46308 325.894939 
L 183.46438 308.72202 
L 183.79856 305.024666 
L 184.13212 305.396651 
L 184.46568 312.835807 
L 184.79986 324.41545 
L 185.13342 330.506038 
L 185.46698 330.606524 
L 185.80116 331.521487 
L 186.13472 332.826362 
L 186.4689 330.005748 
L 186.80246 325.37145 
L 187.13602 325.168381 
L 187.80376 333.544642 
L 188.13794 337.485345 
L 188.4715 336.091729 
L 189.13924 320.286294 
L 189.4728 305.64621 
L 190.4741 225.2916 
L 190.80828 226.993709 
L 191.14184 236.950064 
L 192.81088 305.243127 
L 193.47862 337.379733 
L 193.81218 343.603467 
L 194.14636 338.098325 
L 194.47992 325.941596 
L 194.81348 319.035627 
L 195.14766 320.611475 
L 195.8154 332.074239 
L 196.14896 331.917208 
L 196.48252 327.784751 
L 196.8167 327.723179 
L 197.48382 342.940587 
L 198.8193 374.559352 
L 199.15286 380.287605 
L 199.48704 383.302502 
L 199.8206 384.624277 
L 200.15478 388.420285 
L 200.48834 397.727032 
L 201.15608 423.602314 
L 201.48964 431.703898 
L 201.82382 432.354514 
L 202.49094 419.834188 
L 202.82512 423.934993 
L 203.15868 431.888322 
L 203.49286 434.628948 
L 203.82642 430.102303 
L 204.15998 427.119466 
L 204.49416 430.366039 
L 205.16128 440.57088 
L 205.49546 438.320474 
L 205.82902 415.944049 
L 207.1645 269.819396 
L 207.83224 221.720691 
L 208.1658 211.909183 
L 208.49936 211.835443 
L 208.83354 215.280273 
L 209.1671 222.611946 
L 209.50128 233.477296 
L 209.83484 240.179547 
L 210.1684 234.795066 
L 210.50258 225.705869 
L 210.83614 227.781436 
L 211.50388 247.515528 
L 211.83744 246.960109 
L 212.50518 236.761641 
L 212.83874 235.701785 
L 213.17292 235.6041 
L 213.84066 235.778379 
L 214.17422 238.705298 
L 215.17552 257.109587 
L 215.5097 257.965298 
L 215.84326 257.498827 
L 216.17682 260.018977 
L 216.84456 276.448204 
L 217.17812 277.518956 
L 217.5123 273.80367 
L 217.84586 271.731813 
L 218.18004 270.490985 
L 218.5136 265.506661 
L 219.5149 241.718229 
L 219.84908 240.254043 
L 220.18264 243.72669 
L 220.85038 253.389424 
L 221.51812 257.163125 
L 221.85168 263.478184 
L 222.85298 289.42578 
L 223.52072 306.132248 
L 223.85428 310.138653 
L 224.18846 311.125606 
L 224.52202 310.992414 
L 224.85558 312.021683 
L 225.52332 317.445081 
L 225.8575 322.257903 
L 226.52462 340.354128 
L 227.52654 370.592345 
L 227.8601 375.588225 
L 228.19366 377.317358 
L 228.52784 356.179659 
L 229.8627 143.49919 
L 230.19688 111.170086 
L 230.53044 91.694599 
L 230.864 89.28 
L 231.19818 103.829045 
L 231.86592 146.252554 
L 232.19948 158.943158 
L 232.53304 160.596794 
L 232.86722 157.00043 
L 233.20078 157.352448 
L 233.53496 163.36018 
L 234.20208 179.660966 
L 234.86982 188.698278 
L 235.204 199.660435 
L 235.87112 224.89561 
L 236.2053 222.641635 
L 236.87242 204.09977 
L 238.54146 162.847597 
L 239.54338 126.691492 
L 240.2105 100.362398 
L 240.54468 99.444884 
L 241.54598 120.498651 
L 241.87954 121.933902 
L 242.21372 122.377532 
L 242.54728 124.396637 
L 242.88146 127.134091 
L 243.54858 129.174221 
L 243.88276 133.847206 
L 245.21762 159.335748 
L 245.5518 163.473124 
L 245.88536 165.96526 
L 246.21892 169.856912 
L 246.5531 176.929469 
L 247.22084 197.888154 
L 248.22214 232.582622 
L 248.5557 238.438343 
L 248.88988 238.511461 
L 249.89118 217.953681 
L 250.22474 217.204633 
L 250.5583 220.937672 
L 252.89508 264.700213 
L 253.22926 265.049686 
L 253.89638 258.920514 
L 254.23056 257.042571 
L 254.56412 253.823504 
L 254.8983 248.893831 
L 255.56542 235.652888 
L 255.8996 237.341678 
L 256.9009 265.653544 
L 257.23446 267.354711 
L 257.56864 262.765419 
L 258.23576 247.059804 
L 258.56994 243.640924 
L 258.9035 243.274626 
L 259.23768 244.824027 
L 259.57124 248.432044 
L 259.9048 250.21804 
L 260.23898 240.88082 
L 260.90672 208.812743 
L 261.57384 196.548174 
L 261.90802 192.859038 
L 262.24158 192.437988 
L 262.57514 188.928974 
L 263.24288 162.117502 
L 263.57706 156.454581 
L 263.91062 158.292473 
L 264.57836 167.632377 
L 265.2461 177.27433 
L 266.58096 194.634272 
L 266.91514 193.809075 
L 267.2487 184.723974 
L 267.91644 158.393195 
L 268.25 156.052822 
L 268.58418 156.807203 
L 269.2513 155.168634 
L 269.58548 157.685879 
L 270.2526 164.377216 
L 270.58678 167.394038 
L 271.25452 176.101229 
L 271.58808 176.005195 
L 272.25582 168.09726 
L 272.58938 170.104173 
L 275.25972 214.334439 
L 275.5939 216.036954 
L 275.92746 209.132009 
L 276.92876 176.33939 
L 277.26294 174.136762 
L 277.5965 176.51525 
L 277.93006 181.297741 
L 279.26554 205.892302 
L 279.5991 208.431245 
L 279.93328 209.268328 
L 280.26684 208.468794 
L 280.60102 206.857267 
L 280.93458 206.469951 
L 281.26814 208.322186 
L 281.60232 212.770571 
L 282.93718 240.412087 
L 283.27136 239.436246 
L 283.60492 236.838197 
L 283.93848 235.305048 
L 284.27266 234.717016 
L 284.60622 231.222403 
L 285.27396 215.929927 
L 285.60752 215.206582 
L 285.9417 219.625685 
L 286.60944 231.168408 
L 288.27848 250.771457 
L 288.61204 252.325485 
L 288.9456 251.990392 
L 289.27978 252.141684 
L 289.61334 251.703267 
L 290.61464 244.442969 
L 291.28238 243.381409 
L 291.61594 239.890649 
L 291.95012 234.387146 
L 292.28368 230.949023 
L 292.61786 231.07244 
L 292.95142 233.156166 
L 293.61916 239.363411 
L 294.2869 247.506529 
L 294.95402 257.023974 
L 295.62176 262.238294 
L 295.95532 264.063606 
L 296.2895 264.48782 
L 296.95724 260.413869 
L 297.2908 261.609192 
L 297.95854 266.314078 
L 298.62628 270.701524 
L 298.95984 273.753519 
L 300.29532 290.283997 
L 301.63018 303.978416 
L 302.63148 310.423866 
L 303.29922 305.695813 
L 303.63278 306.015433 
L 303.96696 307.410106 
L 304.30052 307.402656 
L 304.6347 303.527794 
L 305.636 277.982742 
L 305.96956 276.623831 
L 306.30374 280.522447 
L 306.97086 294.667915 
L 307.6386 310.133735 
L 307.97278 315.181214 
L 308.30634 316.142116 
L 308.97408 310.688951 
L 309.30764 312.014561 
L 309.6412 312.383149 
L 309.97538 309.525337 
L 310.64312 300.376238 
L 310.97668 298.397661 
L 311.31024 298.321653 
L 311.64442 297.104403 
L 312.31216 290.481972 
L 312.64572 288.760833 
L 312.97928 281.352408 
L 313.64702 253.228596 
L 313.9812 246.570226 
L 314.9825 237.539841 
L 315.31606 236.735952 
L 315.64962 241.099598 
L 316.31736 253.012437 
L 318.32058 280.248701 
L 319.32188 296.765945 
L 319.65544 299.082399 
L 319.98962 299.422391 
L 320.32318 297.807099 
L 320.65674 294.791985 
L 320.99092 293.849257 
L 321.32448 296.357667 
L 321.99222 306.144066 
L 322.32578 311.821113 
L 322.65996 312.903079 
L 322.99352 301.903353 
L 323.66126 261.645199 
L 323.99482 254.741514 
L 324.329 256.80567 
L 324.99612 266.880972 
L 325.3303 268.911552 
L 325.66386 257.966607 
L 326.3316 196.533384 
L 326.66516 185.531894 
L 326.99934 191.154133 
L 328.00064 219.54573 
L 328.3342 226.967767 
L 329.00194 235.969162 
L 329.3355 243.415789 
L 330.33742 272.563507 
L 330.67098 277.316136 
L 331.00454 280.376147 
L 331.33872 285.090965 
L 332.00646 296.67846 
L 332.67358 303.020984 
L 333.00776 303.922283 
L 333.34132 301.600348 
L 333.6755 294.222752 
L 334.00906 275.958957 
L 334.6768 218.497617 
L 335.01036 202.925638 
L 335.34392 198.174144 
L 335.6781 202.389919 
L 336.6794 230.602999 
L 337.6807 260.993876 
L 338.01488 263.263063 
L 338.34844 257.06841 
L 339.68392 205.517108 
L 340.68522 192.370731 
L 341.01878 190.120087 
L 341.35234 189.093266 
L 341.68652 188.776508 
L 342.02008 189.076048 
L 342.35426 191.812461 
L 343.35556 211.872932 
L 344.0233 219.146925 
L 346.0259 235.606578 
L 346.69364 238.96181 
L 347.0272 242.581777 
L 347.69494 257.777439 
L 348.0285 265.421924 
L 348.36268 270.093551 
L 348.69624 271.115111 
L 349.0298 268.839005 
L 350.03172 250.597467 
L 350.36528 253.444668 
L 351.03302 266.58633 
L 352.03432 288.163662 
L 352.36788 291.048374 
L 352.70206 287.753054 
L 353.70336 267.364302 
L 354.03692 267.25124 
L 354.3711 269.72391 
L 354.70466 274.281361 
L 355.3724 292.140636 
L 355.70596 301.942116 
L 356.04014 305.947374 
L 356.3737 289.666948 
L 357.375 161.983235 
L 357.70918 133.89891 
L 358.04274 119.510381 
L 358.3763 120.526624 
L 358.71048 129.292449 
L 359.71178 160.79356 
L 360.37952 174.155398 
L 361.71438 207.168524 
L 362.71568 223.002623 
L 363.38342 237.448583 
L 363.7176 241.457361 
L 364.05116 242.407756 
L 364.38472 238.381363 
L 365.38664 212.031654 
L 365.7202 212.918022 
L 366.05376 213.238398 
L 366.7215 207.756413 
L 367.05506 207.252613 
L 367.38924 209.818003 
L 368.7241 235.606985 
L 369.05828 239.193317 
L 369.39184 240.12773 
L 369.72602 238.400281 
L 370.05958 237.281933 
L 370.39314 239.55345 
L 370.72732 243.926033 
L 371.06088 246.102856 
L 371.72862 240.211022 
L 372.06218 239.52401 
L 372.39636 237.817742 
L 372.72992 230.322095 
L 373.73122 183.37307 
L 374.0654 177.423942 
L 374.39896 176.000398 
L 374.73252 179.044806 
L 376.73574 216.659279 
L 377.0693 218.744402 
L 377.40348 215.285903 
L 378.0706 202.747726 
L 378.40478 202.340405 
L 378.73834 204.422614 
L 379.40608 212.625014 
L 379.73964 213.683178 
L 380.40738 202.576098 
L 380.74094 200.783408 
L 381.07512 202.395777 
L 381.40868 206.600341 
L 382.07642 217.595349 
L 383.07772 227.319507 
L 383.4119 231.620891 
L 383.74546 230.753056 
L 384.4132 214.612914 
L 384.74676 212.130324 
L 385.08094 214.845197 
L 385.74806 221.094094 
L 386.08224 223.333824 
L 386.74936 229.28103 
L 387.08354 230.620713 
L 387.4171 233.227073 
L 388.75258 255.09459 
L 389.08614 254.241213 
L 389.42032 246.642014 
L 389.75388 235.901267 
L 390.08744 230.659868 
L 390.42162 233.990623 
L 390.75518 238.722734 
L 391.08936 236.102587 
L 392.09066 196.482503 
L 392.75778 186.446315 
L 393.09196 175.599422 
L 393.7597 149.612978 
L 394.09326 147.418974 
L 394.42682 153.409458 
L 395.09456 168.493637 
L 395.42874 172.680289 
L 395.7623 175.302677 
L 396.09586 176.158346 
L 396.43004 173.150901 
L 396.7636 168.163497 
L 397.09778 165.497255 
L 397.43134 164.883455 
L 397.7649 164.58561 
L 398.09908 166.071583 
L 398.43264 171.094515 
L 399.10038 187.857309 
L 399.76812 205.132577 
L 400.10168 210.506049 
L 400.43524 210.77719 
L 400.76942 203.289421 
L 401.43716 178.526425 
L 401.77072 172.78675 
L 402.10428 171.132411 
L 402.43846 167.986715 
L 402.77202 162.74172 
L 403.1062 159.86315 
L 403.43976 161.779768 
L 404.1075 172.700828 
L 405.44236 197.041813 
L 405.77654 200.030513 
L 406.1101 199.405135 
L 406.44366 197.80125 
L 406.77784 197.743311 
L 407.1114 198.01231 
L 407.77914 196.753039 
L 408.1127 197.350265 
L 409.11462 202.970373 
L 410.11592 210.68865 
L 412.11852 235.647082 
L 412.45208 238.164072 
L 412.78626 237.77821 
L 413.11982 233.399563 
L 413.454 227.471567 
L 413.78756 224.240484 
L 414.12112 224.340234 
L 414.78886 227.466948 
L 415.12304 227.319725 
L 415.4566 223.235164 
L 415.79016 215.494465 
L 416.79208 180.695776 
L 417.12564 177.343699 
L 417.4592 178.958269 
L 418.46112 188.81148 
L 418.79468 188.837491 
L 419.12824 186.068058 
L 419.79598 178.560406 
L 420.12954 177.302641 
L 420.46372 178.254026 
L 420.79728 181.762445 
L 422.46632 206.389589 
L 422.8005 207.164955 
L 423.13406 207.084841 
L 423.46762 210.223718 
L 424.46954 224.887898 
L 424.8031 229.135354 
L 425.13666 230.846601 
L 425.47084 229.409369 
L 426.8057 208.89587 
L 427.13988 206.476077 
L 427.47344 203.183267 
L 428.14118 194.663702 
L 428.47474 193.702613 
L 428.80892 194.919954 
L 429.14248 198.628222 
L 430.14378 216.277305 
L 430.47796 218.400563 
L 430.81152 216.756106 
L 431.47926 209.019015 
L 431.81282 206.569325 
L 432.14638 205.039844 
L 432.48056 204.388961 
L 432.81412 206.075735 
L 433.48186 212.200496 
L 434.1496 213.743467 
L 434.81734 217.290407 
L 435.1509 215.982077 
L 435.48446 210.714006 
L 436.1522 197.029135 
L 436.48638 195.741424 
L 436.81994 197.710252 
L 437.48768 202.330622 
L 437.82124 204.446494 
L 438.15542 208.269193 
L 438.82254 218.900794 
L 439.15672 221.221134 
L 439.49028 220.262681 
L 439.82384 216.601161 
L 440.49158 206.911846 
L 440.82576 205.394856 
L 441.15932 207.355506 
L 442.16062 220.286293 
L 442.4948 220.772072 
L 443.16192 217.338364 
L 443.82966 217.808669 
L 444.16384 217.793988 
L 444.4974 218.235924 
L 444.83096 219.500925 
L 445.4987 224.600719 
L 446.16644 233.571036 
L 446.5 237.747982 
L 446.83418 239.498668 
L 447.16774 240.103718 
L 447.83548 242.054412 
L 448.16904 243.401583 
L 448.83678 248.736256 
L 450.17226 258.168999 
L 450.50582 251.374753 
L 451.17356 223.803317 
L 451.50712 221.658133 
L 451.84068 224.073089 
L 452.17486 222.530346 
L 452.50842 210.720678 
L 452.8426 194.125873 
L 453.17616 184.933022 
L 453.50972 184.051323 
L 453.8439 186.024542 
L 454.17746 190.157953 
L 455.51294 211.89704 
L 455.8465 216.545085 
L 456.18068 219.222181 
L 456.8478 220.909183 
L 457.18198 222.747492 
L 458.18328 230.226804 
L 458.51684 228.239321 
L 460.52006 178.711514 
L 460.85362 174.041016 
L 461.18718 172.563191 
L 461.52136 173.712601 
L 462.52266 182.11367 
L 462.85622 183.70894 
L 463.1904 183.433835 
L 463.52396 180.851147 
L 463.85814 179.178062 
L 464.1917 180.63289 
L 465.86074 196.946841 
L 466.1943 198.281409 
L 466.52848 198.697571 
L 466.86204 199.308923 
L 467.52978 201.50706 
L 467.86334 202.12313 
L 468.19752 203.470416 
L 469.19882 211.530144 
L 469.53238 211.426041 
L 469.86656 211.761752 
L 470.20012 213.713243 
L 471.86916 229.96288 
L 472.20272 232.777895 
L 472.5369 233.874616 
L 472.87046 231.918364 
L 473.20402 225.865274 
L 473.87176 203.105413 
L 474.20594 197.654543 
L 474.5395 198.529581 
L 475.5408 208.409477 
L 475.87498 208.751166 
L 476.5421 205.905 
L 476.87628 206.594503 
L 477.5434 213.265172 
L 477.87758 214.412659 
L 478.54532 210.463306 
L 478.87888 210.510936 
L 479.21244 210.759198 
L 479.54662 206.796413 
L 480.21436 187.802215 
L 480.54792 182.402901 
L 480.88148 180.667079 
L 481.21566 181.244421 
L 481.54922 182.982284 
L 481.8834 183.361274 
L 482.21696 180.056312 
L 482.8847 169.637436 
L 483.21826 167.730076 
L 483.55244 169.061175 
L 484.55374 176.573844 
L 485.22086 179.773574 
L 486.22278 183.370701 
L 486.55634 186.156568 
L 487.22408 192.867513 
L 487.55764 193.775808 
L 488.22538 191.650826 
L 488.55894 192.048005 
L 488.89312 192.702527 
L 489.22668 193.82099 
L 489.89442 199.563747 
L 490.22798 200.691319 
L 490.56216 200.016348 
L 490.89572 198.463484 
L 491.89702 190.8936 
L 492.2312 192.124025 
L 492.56476 193.926827 
L 492.89832 191.895549 
L 493.90024 170.239005 
L 494.2338 171.615939 
L 494.90154 180.786923 
L 495.2351 180.194692 
L 495.56928 173.337616 
L 496.2364 155.983056 
L 496.57058 153.851562 
L 496.90414 153.340546 
L 497.2377 153.562718 
L 497.57188 154.572072 
L 497.90544 156.528579 
L 498.90674 165.418241 
L 499.24092 164.388427 
L 499.57448 161.617826 
L 499.90866 160.003334 
L 500.24222 160.076301 
L 500.57578 159.938228 
L 501.24352 158.867911 
L 501.5777 157.881386 
L 501.91126 156.363603 
L 502.24482 155.851684 
L 502.579 156.347822 
L 502.91256 156.207528 
L 503.24674 154.684104 
L 504.24804 147.755082 
L 504.91516 145.646129 
L 505.24934 145.177073 
L 505.5829 146.312407 
L 505.91708 149.644282 
L 506.5842 157.987421 
L 506.91838 159.566633 
L 507.25194 159.000751 
L 507.58612 157.144034 
L 508.25324 151.646456 
L 508.58742 151.019175 
L 508.92098 152.655909 
L 509.58872 157.557718 
L 510.92358 171.311671 
L 511.59132 175.07542 
L 512.25906 178.417118 
L 513.9281 184.802314 
L 514.26166 184.196721 
L 514.9294 178.990594 
L 515.26358 179.255063 
L 515.59714 181.711415 
L 517.26618 197.517729 
L 517.59974 198.625139 
L 517.93392 198.908105 
L 518.26748 198.916254 
L 518.60104 198.041969 
L 519.26878 194.024387 
L 519.60296 194.029205 
L 519.93652 194.919756 
L 520.27008 195.368828 
L 520.93782 195.271 
L 521.272 195.555166 
L 521.60556 195.173519 
L 522.2733 193.129137 
L 522.60686 192.745221 
L 523.2746 192.477788 
L 523.60816 193.097496 
L 524.60946 197.536226 
L 525.2772 201.478531 
L 525.94494 205.377459 
L 526.2785 206.349066 
L 526.61268 207.884068 
L 526.94624 210.715196 
L 527.61398 218.193022 
L 527.94754 220.813457 
L 528.28172 222.422496 
L 528.61528 223.356851 
L 528.94946 223.671151 
L 529.28302 222.51622 
L 529.61658 219.153011 
L 530.28432 210.711489 
L 530.61788 211.868809 
L 531.28562 218.221461 
L 531.95336 221.579159 
L 532.28692 221.554337 
L 532.6211 218.282315 
L 532.95466 213.523357 
L 533.28884 210.354693 
L 533.95596 207.203565 
L 534.29014 203.280014 
L 534.95788 192.895992 
L 535.29144 195.085743 
L 535.625 198.827496 
L 535.95918 194.654028 
L 536.6263 169.389164 
L 536.96048 162.998745 
L 537.29404 161.204706 
L 537.62822 161.078687 
L 537.96178 162.048341 
L 538.96308 170.398538 
L 539.29726 170.048523 
L 539.63082 168.77247 
L 539.96438 166.452268 
L 540.63212 160.583888 
L 541.29986 157.25455 
L 541.63342 157.010699 
L 541.9676 158.453385 
L 542.63472 165.191103 
L 542.9689 166.410397 
L 543.30246 165.064836 
L 543.63664 164.242712 
L 543.9702 165.406336 
L 544.30376 167.039612 
L 544.63794 167.563485 
L 545.30568 166.270282 
L 545.63924 167.030066 
L 546.30698 170.315143 
L 546.64054 170.844984 
L 546.97472 171.140301 
L 547.64184 172.381086 
L 547.97602 172.501851 
L 548.64376 171.150818 
L 549.31088 172.575175 
L 549.97862 172.760898 
L 550.31218 173.654106 
L 550.64636 175.437885 
L 551.3141 181.507581 
L 551.98122 188.725418 
L 552.3154 191.360415 
L 552.98314 194.25893 
L 553.3167 195.830886 
L 554.65218 204.893365 
L 554.98574 204.384718 
L 555.3193 202.198585 
L 555.65348 201.32777 
L 556.3206 203.424273 
L 556.98834 202.702256 
L 557.32252 203.573597 
L 557.65608 205.108559 
L 557.98964 205.380958 
L 558.65738 202.850896 
L 558.99156 201.130558 
L 559.32512 198.079171 
L 559.65868 193.995977 
L 559.99286 191.419177 
L 560.32642 191.986775 
L 560.99416 195.913111 
L 561.32772 196.364196 
L 561.6619 194.8126 
L 561.99546 192.590901 
L 562.6632 189.659139 
L 563.33094 185.805849 
L 563.6645 185.399501 
L 563.99806 185.968823 
L 564.33224 185.378962 
L 564.99998 178.878661 
L 565.33354 177.426707 
L 565.6671 176.707516 
L 566.33484 171.833194 
L 566.66902 172.213106 
L 567.67032 180.488899 
L 568.00388 181.491959 
L 568.33806 181.388213 
L 568.67162 181.469487 
L 569.00518 182.290828 
L 570.34066 186.701466 
L 570.67422 186.540168 
L 571.0084 185.821432 
L 571.34196 186.093246 
L 571.67552 187.233477 
L 572.0097 187.568772 
L 572.34326 186.911564 
L 572.67744 187.061007 
L 574.0123 193.082389 
L 574.68004 195.13936 
L 575.0136 195.546026 
L 575.34778 196.140596 
L 575.68134 197.236359 
L 576.34908 200.747127 
L 576.68264 201.535499 
L 577.01682 201.071281 
L 578.01812 197.54031 
L 578.35168 197.512713 
L 579.35298 198.752873 
L 579.68716 199.608711 
L 580.02072 200.08758 
L 580.3549 199.935957 
L 580.68846 200.352793 
L 581.68976 203.189334 
L 582.69106 208.701801 
L 583.3588 209.871016 
L 583.69236 209.980501 
L 584.02654 209.772167 
L 584.3601 210.200086 
L 584.69428 211.583583 
L 585.3614 215.504397 
L 585.69558 216.065225 
L 586.02914 214.711803 
L 587.03044 204.819814 
L 587.36462 204.095596 
L 587.69818 205.676702 
L 588.36592 212.309118 
L 589.03366 221.207742 
L 589.70078 231.031122 
L 590.03496 231.286799 
L 590.36852 228.129836 
L 590.7027 223.550881 
L 591.03626 217.418379 
L 591.704 197.509551 
L 592.7053 154.931177 
L 593.03886 147.175351 
L 593.37304 144.527299 
L 593.7066 145.765893 
L 594.37434 152.792347 
L 595.37564 165.384598 
L 595.7092 167.68425 
L 596.04338 168.163239 
L 596.37694 167.079044 
L 597.04468 163.601414 
L 598.04598 154.053344 
L 598.38016 153.414236 
L 598.71372 153.953196 
L 599.04728 154.034391 
L 600.0492 151.39068 
L 600.71632 150.631362 
L 601.0505 150.777177 
L 601.38406 151.581727 
L 602.0518 154.973603 
L 602.71954 158.572901 
L 604.72214 166.449691 
L 606.05762 172.468307 
L 607.39248 177.454998 
L 608.72796 181.067331 
L 610.06282 184.164981 
L 611.73186 187.591997 
L 612.73316 189.606374 
L 613.73508 191.022692 
L 614.4022 191.790723 
L 615.06994 192.49341 
L 615.73768 193.06301 
L 616.73898 194.565072 
L 619.07576 198.595193 
L 620.07706 199.711197 
L 620.41062 199.834084 
L 621.41192 199.451794 
L 621.7461 199.50665 
L 622.7474 200.152518 
L 623.7487 200.801746 
L 624.41644 201.259294 
L 626.41904 202.917549 
L 627.42034 203.787244 
L 629.08938 205.060839 
L 629.75712 205.392516 
L 631.0926 206.546972 
L 631.76034 207.161773 
L 632.42746 207.638968 
L 637.10102 211.37392 
L 638.77006 212.495605 
L 639.77136 213.201275 
L 645.44622 216.715117 
L 646.44752 217.227293 
L 647.44882 217.813784 
L 648.11656 218.182376 
L 648.11656 218.182376 
" clip-path="url(#p70107032b9)" style="fill: none; stroke-dasharray: 5.55,2.4; stroke-dashoffset: 0; stroke: #8b4513; stroke-width: 1.5"/>
   </g>
   <g id="patch_3">
    <path d="M 90 512.64 
L 90 69.12 
" style="fill: none; stroke: #000000; stroke-width: 0.8; stroke-linejoin: miter; stroke-linecap: square"/>
   </g>
   <g id="patch_4">
    <path d="M 648 512.64 
L 648 69.12 
" style="fill: none; stroke: #000000; stroke-width: 0.8; stroke-linejoin: miter; stroke-linecap: square"/>
   </g>
   <g id="patch_5">
    <path d="M 90 512.64 
L 648 512.64 
" style="fill: none; stroke: #000000; stroke-width: 0.8; stroke-linejoin: miter; stroke-linecap: square"/>
   </g>
   <g id="patch_6">
    <path d="M 90 69.12 
L 648 69.12 
" style="fill: none; stroke: #000000; stroke-width: 0.8; stroke-linejoin: miter; stroke-linecap: square"/>
   </g>
   <g id="legend_1">
    <g id="patch_7">
     <path d="M 572.376562 106.47625 
L 641 106.47625 
Q 643 106.47625 643 104.47625 
L 643 76.12 
Q 643 74.12 641 74.12 
L 572.376562 74.12 
Q 570.376562 74.12 570.376562 76.12 
L 570.376562 104.47625 
Q 570.376562 106.47625 572.376562 106.47625 
z
" style="fill: #ffffff; opacity: 0.8; stroke: #cccccc; stroke-linejoin: miter"/>
    </g>
    <g id="line2d_22">
     <path d="M 574.376562 82.218438 
L 584.376562 82.218438 
L 594.376562 82.218438 
" style="fill: none; stroke: #ee82ee; stroke-width: 1.5; stroke-linecap: square"/>
    </g>
    <g id="text_22">
     <!-- InCoO3 -->
     <g transform="translate(602.376562 85.718438)scale(0.1 -0.1)">
      <defs>
       <path id="DejaVuSans-49" d="M 628 4666 
L 1259 4666 
L 1259 0 
L 628 0 
L 628 4666 
z
" transform="scale(0.015625)"/>
       <path id="DejaVuSans-43" d="M 4122 4306 
L 4122 3641 
Q 3803 3938 3442 4084 
Q 3081 4231 2675 4231 
Q 1875 4231 1450 3742 
Q 1025 3253 1025 2328 
Q 1025 1406 1450 917 
Q 1875 428 2675 428 
Q 3081 428 3442 575 
Q 3803 722 4122 1019 
L 4122 359 
Q 3791 134 3420 21 
Q 3050 -91 2638 -91 
Q 1578 -91 968 557 
Q 359 1206 359 2328 
Q 359 3453 968 4101 
Q 1578 4750 2638 4750 
Q 3056 4750 3426 4639 
Q 3797 4528 4122 4306 
z
" transform="scale(0.015625)"/>
       <path id="DejaVuSans-4f" d="M 2522 4238 
Q 1834 4238 1429 3725 
Q 1025 3213 1025 2328 
Q 1025 1447 1429 934 
Q 1834 422 2522 422 
Q 3209 422 3611 934 
Q 4013 1447 4013 2328 
Q 4013 3213 3611 3725 
Q 3209 4238 2522 4238 
z
M 2522 4750 
Q 3503 4750 4090 4092 
Q 4678 3434 4678 2328 
Q 4678 1225 4090 567 
Q 3503 -91 2522 -91 
Q 1538 -91 948 565 
Q 359 1222 359 2328 
Q 359 3434 948 4092 
Q 1538 4750 2522 4750 
z
" transform="scale(0.015625)"/>
      </defs>
      <use xlink:href="#DejaVuSans-49"/>
      <use xlink:href="#DejaVuSans-6e" x="29.492188"/>
      <use xlink:href="#DejaVuSans-43" x="92.871094"/>
      <use xlink:href="#DejaVuSans-6f" x="162.695312"/>
      <use xlink:href="#DejaVuSans-4f" x="223.876953"/>
      <use xlink:href="#DejaVuSans-33" x="302.587891"/>
     </g>
    </g>
    <g id="line2d_23">
     <path d="M 574.376562 96.896563 
L 584.376562 96.896563 
L 594.376562 96.896563 
" style="fill: none; stroke-dasharray: 5.55,2.4; stroke-dashoffset: 0; stroke: #8b4513; stroke-width: 1.5"/>
    </g>
    <g id="text_23">
     <!-- InFeO3 -->
     <g transform="translate(602.376562 100.396563)scale(0.1 -0.1)">
      <defs>
       <path id="DejaVuSans-46" d="M 628 4666 
L 3309 4666 
L 3309 4134 
L 1259 4134 
L 1259 2759 
L 3109 2759 
L 3109 2228 
L 1259 2228 
L 1259 0 
L 628 0 
L 628 4666 
z
" transform="scale(0.015625)"/>
      </defs>
      <use xlink:href="#DejaVuSans-49"/>
      <use xlink:href="#DejaVuSans-6e" x="29.492188"/>
      <use xlink:href="#DejaVuSans-46" x="92.871094"/>
      <use xlink:href="#DejaVuSans-65" x="144.890625"/>
      <use xlink:href="#DejaVuSans-4f" x="206.414062"/>
      <use xlink:href="#DejaVuSans-33" x="285.125"/>
     </g>
    </g>
   </g>
  </g>
 </g>
 <defs>
  <clipPath id="p70107032b9">
   <rect x="90" y="69.12" width="558" height="443.52"/>
  </clipPath>
 </defs>
</svg>
