<?xml version="1.0" encoding="utf-8" standalone="no"?>
<!DOCTYPE svg PUBLIC "-//W3C//DTD SVG 1.1//EN"
  "http://www.w3.org/Graphics/SVG/1.1/DTD/svg11.dtd">
<svg xmlns:xlink="http://www.w3.org/1999/xlink" width="720pt" height="576pt" viewBox="0 0 720 576" xmlns="http://www.w3.org/2000/svg" version="1.1">
 <metadata>
  <rdf:RDF xmlns:dc="http://purl.org/dc/elements/1.1/" xmlns:cc="http://creativecommons.org/ns#" xmlns:rdf="http://www.w3.org/1999/02/22-rdf-syntax-ns#">
   <cc:Work>
    <dc:type rdf:resource="http://purl.org/dc/dcmitype/StillImage"/>
    <dc:date>2022-03-19T09:31:40.361393</dc:date>
    <dc:format>image/svg+xml</dc:format>
    <dc:creator>
     <cc:Agent>
      <dc:title>Matplotlib v3.5.1, https://matplotlib.org/</dc:title>
     </cc:Agent>
    </dc:creator>
   </cc:Work>
  </rdf:RDF>
 </metadata>
 <defs>
  <style type="text/css">*{stroke-linejoin: round; stroke-linecap: butt}</style>
 </defs>
 <g id="figure_1">
  <g id="patch_1">
   <path d="M 0 576 
L 720 576 
L 720 0 
L 0 0 
z
" style="fill: #ffffff"/>
  </g>
  <g id="axes_1">
   <g id="patch_2">
    <path d="M 90 512.64 
L 648 512.64 
L 648 69.12 
L 90 69.12 
z
" style="fill: #ffffff"/>
   </g>
   <g id="matplotlib.axis_1">
    <g id="xtick_1">
     <g id="line2d_1">
      <defs>
       <path id="m21255fbb58" d="M 0 0 
L 0 3.5 
" style="stroke: #000000; stroke-width: 0.8"/>
      </defs>
      <g>
       <use xlink:href="#m21255fbb58" x="90" y="512.64" style="stroke: #000000; stroke-width: 0.8"/>
      </g>
     </g>
     <g id="text_1">
      <!-- 0 -->
      <g transform="translate(86.81875 527.238438)scale(0.1 -0.1)">
       <defs>
        <path id="DejaVuSans-30" d="M 2034 4250 
Q 1547 4250 1301 3770 
Q 1056 3291 1056 2328 
Q 1056 1369 1301 889 
Q 1547 409 2034 409 
Q 2525 409 2770 889 
Q 3016 1369 3016 2328 
Q 3016 3291 2770 3770 
Q 2525 4250 2034 4250 
z
M 2034 4750 
Q 2819 4750 3233 4129 
Q 3647 3509 3647 2328 
Q 3647 1150 3233 529 
Q 2819 -91 2034 -91 
Q 1250 -91 836 529 
Q 422 1150 422 2328 
Q 422 3509 836 4129 
Q 1250 4750 2034 4750 
z
" transform="scale(0.015625)"/>
       </defs>
       <use xlink:href="#DejaVuSans-30"/>
      </g>
     </g>
    </g>
    <g id="xtick_2">
     <g id="line2d_2">
      <g>
       <use xlink:href="#m21255fbb58" x="152" y="512.64" style="stroke: #000000; stroke-width: 0.8"/>
      </g>
     </g>
     <g id="text_2">
      <!-- 10 -->
      <g transform="translate(145.6375 527.238438)scale(0.1 -0.1)">
       <defs>
        <path id="DejaVuSans-31" d="M 794 531 
L 1825 531 
L 1825 4091 
L 703 3866 
L 703 4441 
L 1819 4666 
L 2450 4666 
L 2450 531 
L 3481 531 
L 3481 0 
L 794 0 
L 794 531 
z
" transform="scale(0.015625)"/>
       </defs>
       <use xlink:href="#DejaVuSans-31"/>
       <use xlink:href="#DejaVuSans-30" x="63.623047"/>
      </g>
     </g>
    </g>
    <g id="xtick_3">
     <g id="line2d_3">
      <g>
       <use xlink:href="#m21255fbb58" x="214" y="512.64" style="stroke: #000000; stroke-width: 0.8"/>
      </g>
     </g>
     <g id="text_3">
      <!-- 20 -->
      <g transform="translate(207.6375 527.238438)scale(0.1 -0.1)">
       <defs>
        <path id="DejaVuSans-32" d="M 1228 531 
L 3431 531 
L 3431 0 
L 469 0 
L 469 531 
Q 828 903 1448 1529 
Q 2069 2156 2228 2338 
Q 2531 2678 2651 2914 
Q 2772 3150 2772 3378 
Q 2772 3750 2511 3984 
Q 2250 4219 1831 4219 
Q 1534 4219 1204 4116 
Q 875 4013 500 3803 
L 500 4441 
Q 881 4594 1212 4672 
Q 1544 4750 1819 4750 
Q 2544 4750 2975 4387 
Q 3406 4025 3406 3419 
Q 3406 3131 3298 2873 
Q 3191 2616 2906 2266 
Q 2828 2175 2409 1742 
Q 1991 1309 1228 531 
z
" transform="scale(0.015625)"/>
       </defs>
       <use xlink:href="#DejaVuSans-32"/>
       <use xlink:href="#DejaVuSans-30" x="63.623047"/>
      </g>
     </g>
    </g>
    <g id="xtick_4">
     <g id="line2d_4">
      <g>
       <use xlink:href="#m21255fbb58" x="276" y="512.64" style="stroke: #000000; stroke-width: 0.8"/>
      </g>
     </g>
     <g id="text_4">
      <!-- 30 -->
      <g transform="translate(269.6375 527.238438)scale(0.1 -0.1)">
       <defs>
        <path id="DejaVuSans-33" d="M 2597 2516 
Q 3050 2419 3304 2112 
Q 3559 1806 3559 1356 
Q 3559 666 3084 287 
Q 2609 -91 1734 -91 
Q 1441 -91 1130 -33 
Q 819 25 488 141 
L 488 750 
Q 750 597 1062 519 
Q 1375 441 1716 441 
Q 2309 441 2620 675 
Q 2931 909 2931 1356 
Q 2931 1769 2642 2001 
Q 2353 2234 1838 2234 
L 1294 2234 
L 1294 2753 
L 1863 2753 
Q 2328 2753 2575 2939 
Q 2822 3125 2822 3475 
Q 2822 3834 2567 4026 
Q 2313 4219 1838 4219 
Q 1578 4219 1281 4162 
Q 984 4106 628 3988 
L 628 4550 
Q 988 4650 1302 4700 
Q 1616 4750 1894 4750 
Q 2613 4750 3031 4423 
Q 3450 4097 3450 3541 
Q 3450 3153 3228 2886 
Q 3006 2619 2597 2516 
z
" transform="scale(0.015625)"/>
       </defs>
       <use xlink:href="#DejaVuSans-33"/>
       <use xlink:href="#DejaVuSans-30" x="63.623047"/>
      </g>
     </g>
    </g>
    <g id="xtick_5">
     <g id="line2d_5">
      <g>
       <use xlink:href="#m21255fbb58" x="338" y="512.64" style="stroke: #000000; stroke-width: 0.8"/>
      </g>
     </g>
     <g id="text_5">
      <!-- 40 -->
      <g transform="translate(331.6375 527.238438)scale(0.1 -0.1)">
       <defs>
        <path id="DejaVuSans-34" d="M 2419 4116 
L 825 1625 
L 2419 1625 
L 2419 4116 
z
M 2253 4666 
L 3047 4666 
L 3047 1625 
L 3713 1625 
L 3713 1100 
L 3047 1100 
L 3047 0 
L 2419 0 
L 2419 1100 
L 313 1100 
L 313 1709 
L 2253 4666 
z
" transform="scale(0.015625)"/>
       </defs>
       <use xlink:href="#DejaVuSans-34"/>
       <use xlink:href="#DejaVuSans-30" x="63.623047"/>
      </g>
     </g>
    </g>
    <g id="xtick_6">
     <g id="line2d_6">
      <g>
       <use xlink:href="#m21255fbb58" x="400" y="512.64" style="stroke: #000000; stroke-width: 0.8"/>
      </g>
     </g>
     <g id="text_6">
      <!-- 50 -->
      <g transform="translate(393.6375 527.238438)scale(0.1 -0.1)">
       <defs>
        <path id="DejaVuSans-35" d="M 691 4666 
L 3169 4666 
L 3169 4134 
L 1269 4134 
L 1269 2991 
Q 1406 3038 1543 3061 
Q 1681 3084 1819 3084 
Q 2600 3084 3056 2656 
Q 3513 2228 3513 1497 
Q 3513 744 3044 326 
Q 2575 -91 1722 -91 
Q 1428 -91 1123 -41 
Q 819 9 494 109 
L 494 744 
Q 775 591 1075 516 
Q 1375 441 1709 441 
Q 2250 441 2565 725 
Q 2881 1009 2881 1497 
Q 2881 1984 2565 2268 
Q 2250 2553 1709 2553 
Q 1456 2553 1204 2497 
Q 953 2441 691 2322 
L 691 4666 
z
" transform="scale(0.015625)"/>
       </defs>
       <use xlink:href="#DejaVuSans-35"/>
       <use xlink:href="#DejaVuSans-30" x="63.623047"/>
      </g>
     </g>
    </g>
    <g id="xtick_7">
     <g id="line2d_7">
      <g>
       <use xlink:href="#m21255fbb58" x="462" y="512.64" style="stroke: #000000; stroke-width: 0.8"/>
      </g>
     </g>
     <g id="text_7">
      <!-- 60 -->
      <g transform="translate(455.6375 527.238438)scale(0.1 -0.1)">
       <defs>
        <path id="DejaVuSans-36" d="M 2113 2584 
Q 1688 2584 1439 2293 
Q 1191 2003 1191 1497 
Q 1191 994 1439 701 
Q 1688 409 2113 409 
Q 2538 409 2786 701 
Q 3034 994 3034 1497 
Q 3034 2003 2786 2293 
Q 2538 2584 2113 2584 
z
M 3366 4563 
L 3366 3988 
Q 3128 4100 2886 4159 
Q 2644 4219 2406 4219 
Q 1781 4219 1451 3797 
Q 1122 3375 1075 2522 
Q 1259 2794 1537 2939 
Q 1816 3084 2150 3084 
Q 2853 3084 3261 2657 
Q 3669 2231 3669 1497 
Q 3669 778 3244 343 
Q 2819 -91 2113 -91 
Q 1303 -91 875 529 
Q 447 1150 447 2328 
Q 447 3434 972 4092 
Q 1497 4750 2381 4750 
Q 2619 4750 2861 4703 
Q 3103 4656 3366 4563 
z
" transform="scale(0.015625)"/>
       </defs>
       <use xlink:href="#DejaVuSans-36"/>
       <use xlink:href="#DejaVuSans-30" x="63.623047"/>
      </g>
     </g>
    </g>
    <g id="xtick_8">
     <g id="line2d_8">
      <g>
       <use xlink:href="#m21255fbb58" x="524" y="512.64" style="stroke: #000000; stroke-width: 0.8"/>
      </g>
     </g>
     <g id="text_8">
      <!-- 70 -->
      <g transform="translate(517.6375 527.238438)scale(0.1 -0.1)">
       <defs>
        <path id="DejaVuSans-37" d="M 525 4666 
L 3525 4666 
L 3525 4397 
L 1831 0 
L 1172 0 
L 2766 4134 
L 525 4134 
L 525 4666 
z
" transform="scale(0.015625)"/>
       </defs>
       <use xlink:href="#DejaVuSans-37"/>
       <use xlink:href="#DejaVuSans-30" x="63.623047"/>
      </g>
     </g>
    </g>
    <g id="xtick_9">
     <g id="line2d_9">
      <g>
       <use xlink:href="#m21255fbb58" x="586" y="512.64" style="stroke: #000000; stroke-width: 0.8"/>
      </g>
     </g>
     <g id="text_9">
      <!-- 80 -->
      <g transform="translate(579.6375 527.238438)scale(0.1 -0.1)">
       <defs>
        <path id="DejaVuSans-38" d="M 2034 2216 
Q 1584 2216 1326 1975 
Q 1069 1734 1069 1313 
Q 1069 891 1326 650 
Q 1584 409 2034 409 
Q 2484 409 2743 651 
Q 3003 894 3003 1313 
Q 3003 1734 2745 1975 
Q 2488 2216 2034 2216 
z
M 1403 2484 
Q 997 2584 770 2862 
Q 544 3141 544 3541 
Q 544 4100 942 4425 
Q 1341 4750 2034 4750 
Q 2731 4750 3128 4425 
Q 3525 4100 3525 3541 
Q 3525 3141 3298 2862 
Q 3072 2584 2669 2484 
Q 3125 2378 3379 2068 
Q 3634 1759 3634 1313 
Q 3634 634 3220 271 
Q 2806 -91 2034 -91 
Q 1263 -91 848 271 
Q 434 634 434 1313 
Q 434 1759 690 2068 
Q 947 2378 1403 2484 
z
M 1172 3481 
Q 1172 3119 1398 2916 
Q 1625 2713 2034 2713 
Q 2441 2713 2670 2916 
Q 2900 3119 2900 3481 
Q 2900 3844 2670 4047 
Q 2441 4250 2034 4250 
Q 1625 4250 1398 4047 
Q 1172 3844 1172 3481 
z
" transform="scale(0.015625)"/>
       </defs>
       <use xlink:href="#DejaVuSans-38"/>
       <use xlink:href="#DejaVuSans-30" x="63.623047"/>
      </g>
     </g>
    </g>
    <g id="xtick_10">
     <g id="line2d_10">
      <g>
       <use xlink:href="#m21255fbb58" x="648" y="512.64" style="stroke: #000000; stroke-width: 0.8"/>
      </g>
     </g>
     <g id="text_10">
      <!-- 90 -->
      <g transform="translate(641.6375 527.238438)scale(0.1 -0.1)">
       <defs>
        <path id="DejaVuSans-39" d="M 703 97 
L 703 672 
Q 941 559 1184 500 
Q 1428 441 1663 441 
Q 2288 441 2617 861 
Q 2947 1281 2994 2138 
Q 2813 1869 2534 1725 
Q 2256 1581 1919 1581 
Q 1219 1581 811 2004 
Q 403 2428 403 3163 
Q 403 3881 828 4315 
Q 1253 4750 1959 4750 
Q 2769 4750 3195 4129 
Q 3622 3509 3622 2328 
Q 3622 1225 3098 567 
Q 2575 -91 1691 -91 
Q 1453 -91 1209 -44 
Q 966 3 703 97 
z
M 1959 2075 
Q 2384 2075 2632 2365 
Q 2881 2656 2881 3163 
Q 2881 3666 2632 3958 
Q 2384 4250 1959 4250 
Q 1534 4250 1286 3958 
Q 1038 3666 1038 3163 
Q 1038 2656 1286 2365 
Q 1534 2075 1959 2075 
z
" transform="scale(0.015625)"/>
       </defs>
       <use xlink:href="#DejaVuSans-39"/>
       <use xlink:href="#DejaVuSans-30" x="63.623047"/>
      </g>
     </g>
    </g>
    <g id="text_11">
     <!-- Energy (eV) -->
     <g transform="translate(339.50625 540.916563)scale(0.1 -0.1)">
      <defs>
       <path id="DejaVuSans-45" d="M 628 4666 
L 3578 4666 
L 3578 4134 
L 1259 4134 
L 1259 2753 
L 3481 2753 
L 3481 2222 
L 1259 2222 
L 1259 531 
L 3634 531 
L 3634 0 
L 628 0 
L 628 4666 
z
" transform="scale(0.015625)"/>
       <path id="DejaVuSans-6e" d="M 3513 2113 
L 3513 0 
L 2938 0 
L 2938 2094 
Q 2938 2591 2744 2837 
Q 2550 3084 2163 3084 
Q 1697 3084 1428 2787 
Q 1159 2491 1159 1978 
L 1159 0 
L 581 0 
L 581 3500 
L 1159 3500 
L 1159 2956 
Q 1366 3272 1645 3428 
Q 1925 3584 2291 3584 
Q 2894 3584 3203 3211 
Q 3513 2838 3513 2113 
z
" transform="scale(0.015625)"/>
       <path id="DejaVuSans-65" d="M 3597 1894 
L 3597 1613 
L 953 1613 
Q 991 1019 1311 708 
Q 1631 397 2203 397 
Q 2534 397 2845 478 
Q 3156 559 3463 722 
L 3463 178 
Q 3153 47 2828 -22 
Q 2503 -91 2169 -91 
Q 1331 -91 842 396 
Q 353 884 353 1716 
Q 353 2575 817 3079 
Q 1281 3584 2069 3584 
Q 2775 3584 3186 3129 
Q 3597 2675 3597 1894 
z
M 3022 2063 
Q 3016 2534 2758 2815 
Q 2500 3097 2075 3097 
Q 1594 3097 1305 2825 
Q 1016 2553 972 2059 
L 3022 2063 
z
" transform="scale(0.015625)"/>
       <path id="DejaVuSans-72" d="M 2631 2963 
Q 2534 3019 2420 3045 
Q 2306 3072 2169 3072 
Q 1681 3072 1420 2755 
Q 1159 2438 1159 1844 
L 1159 0 
L 581 0 
L 581 3500 
L 1159 3500 
L 1159 2956 
Q 1341 3275 1631 3429 
Q 1922 3584 2338 3584 
Q 2397 3584 2469 3576 
Q 2541 3569 2628 3553 
L 2631 2963 
z
" transform="scale(0.015625)"/>
       <path id="DejaVuSans-67" d="M 2906 1791 
Q 2906 2416 2648 2759 
Q 2391 3103 1925 3103 
Q 1463 3103 1205 2759 
Q 947 2416 947 1791 
Q 947 1169 1205 825 
Q 1463 481 1925 481 
Q 2391 481 2648 825 
Q 2906 1169 2906 1791 
z
M 3481 434 
Q 3481 -459 3084 -895 
Q 2688 -1331 1869 -1331 
Q 1566 -1331 1297 -1286 
Q 1028 -1241 775 -1147 
L 775 -588 
Q 1028 -725 1275 -790 
Q 1522 -856 1778 -856 
Q 2344 -856 2625 -561 
Q 2906 -266 2906 331 
L 2906 616 
Q 2728 306 2450 153 
Q 2172 0 1784 0 
Q 1141 0 747 490 
Q 353 981 353 1791 
Q 353 2603 747 3093 
Q 1141 3584 1784 3584 
Q 2172 3584 2450 3431 
Q 2728 3278 2906 2969 
L 2906 3500 
L 3481 3500 
L 3481 434 
z
" transform="scale(0.015625)"/>
       <path id="DejaVuSans-79" d="M 2059 -325 
Q 1816 -950 1584 -1140 
Q 1353 -1331 966 -1331 
L 506 -1331 
L 506 -850 
L 844 -850 
Q 1081 -850 1212 -737 
Q 1344 -625 1503 -206 
L 1606 56 
L 191 3500 
L 800 3500 
L 1894 763 
L 2988 3500 
L 3597 3500 
L 2059 -325 
z
" transform="scale(0.015625)"/>
       <path id="DejaVuSans-20" transform="scale(0.015625)"/>
       <path id="DejaVuSans-28" d="M 1984 4856 
Q 1566 4138 1362 3434 
Q 1159 2731 1159 2009 
Q 1159 1288 1364 580 
Q 1569 -128 1984 -844 
L 1484 -844 
Q 1016 -109 783 600 
Q 550 1309 550 2009 
Q 550 2706 781 3412 
Q 1013 4119 1484 4856 
L 1984 4856 
z
" transform="scale(0.015625)"/>
       <path id="DejaVuSans-56" d="M 1831 0 
L 50 4666 
L 709 4666 
L 2188 738 
L 3669 4666 
L 4325 4666 
L 2547 0 
L 1831 0 
z
" transform="scale(0.015625)"/>
       <path id="DejaVuSans-29" d="M 513 4856 
L 1013 4856 
Q 1481 4119 1714 3412 
Q 1947 2706 1947 2009 
Q 1947 1309 1714 600 
Q 1481 -109 1013 -844 
L 513 -844 
Q 928 -128 1133 580 
Q 1338 1288 1338 2009 
Q 1338 2731 1133 3434 
Q 928 4138 513 4856 
z
" transform="scale(0.015625)"/>
      </defs>
      <use xlink:href="#DejaVuSans-45"/>
      <use xlink:href="#DejaVuSans-6e" x="63.183594"/>
      <use xlink:href="#DejaVuSans-65" x="126.5625"/>
      <use xlink:href="#DejaVuSans-72" x="188.085938"/>
      <use xlink:href="#DejaVuSans-67" x="227.449219"/>
      <use xlink:href="#DejaVuSans-79" x="290.925781"/>
      <use xlink:href="#DejaVuSans-20" x="350.105469"/>
      <use xlink:href="#DejaVuSans-28" x="381.892578"/>
      <use xlink:href="#DejaVuSans-65" x="420.90625"/>
      <use xlink:href="#DejaVuSans-56" x="482.429688"/>
      <use xlink:href="#DejaVuSans-29" x="550.837891"/>
     </g>
    </g>
   </g>
   <g id="matplotlib.axis_2">
    <g id="ytick_1">
     <g id="line2d_11">
      <defs>
       <path id="m59e4c5f390" d="M 0 0 
L -3.5 0 
" style="stroke: #000000; stroke-width: 0.8"/>
      </defs>
      <g>
       <use xlink:href="#m59e4c5f390" x="90" y="492.48" style="stroke: #000000; stroke-width: 0.8"/>
      </g>
     </g>
     <g id="text_12">
      <!-- 0 -->
      <g transform="translate(76.6375 496.279219)scale(0.1 -0.1)">
       <use xlink:href="#DejaVuSans-30"/>
      </g>
     </g>
    </g>
    <g id="ytick_2">
     <g id="line2d_12">
      <g>
       <use xlink:href="#m59e4c5f390" x="90" y="405.699696" style="stroke: #000000; stroke-width: 0.8"/>
      </g>
     </g>
     <g id="text_13">
      <!-- 1 -->
      <g transform="translate(76.6375 409.498915)scale(0.1 -0.1)">
       <use xlink:href="#DejaVuSans-31"/>
      </g>
     </g>
    </g>
    <g id="ytick_3">
     <g id="line2d_13">
      <g>
       <use xlink:href="#m59e4c5f390" x="90" y="318.919393" style="stroke: #000000; stroke-width: 0.8"/>
      </g>
     </g>
     <g id="text_14">
      <!-- 2 -->
      <g transform="translate(76.6375 322.718612)scale(0.1 -0.1)">
       <use xlink:href="#DejaVuSans-32"/>
      </g>
     </g>
    </g>
    <g id="ytick_4">
     <g id="line2d_14">
      <g>
       <use xlink:href="#m59e4c5f390" x="90" y="232.139089" style="stroke: #000000; stroke-width: 0.8"/>
      </g>
     </g>
     <g id="text_15">
      <!-- 3 -->
      <g transform="translate(76.6375 235.938308)scale(0.1 -0.1)">
       <use xlink:href="#DejaVuSans-33"/>
      </g>
     </g>
    </g>
    <g id="ytick_5">
     <g id="line2d_15">
      <g>
       <use xlink:href="#m59e4c5f390" x="90" y="145.358786" style="stroke: #000000; stroke-width: 0.8"/>
      </g>
     </g>
     <g id="text_16">
      <!-- 4 -->
      <g transform="translate(76.6375 149.158005)scale(0.1 -0.1)">
       <use xlink:href="#DejaVuSans-34"/>
      </g>
     </g>
    </g>
    <g id="text_17">
     <!-- Dielectric constant $\epsilon$ -->
     <g transform="translate(70.557812 342.23)rotate(-90)scale(0.1 -0.1)">
      <defs>
       <path id="DejaVuSans-44" d="M 1259 4147 
L 1259 519 
L 2022 519 
Q 2988 519 3436 956 
Q 3884 1394 3884 2338 
Q 3884 3275 3436 3711 
Q 2988 4147 2022 4147 
L 1259 4147 
z
M 628 4666 
L 1925 4666 
Q 3281 4666 3915 4102 
Q 4550 3538 4550 2338 
Q 4550 1131 3912 565 
Q 3275 0 1925 0 
L 628 0 
L 628 4666 
z
" transform="scale(0.015625)"/>
       <path id="DejaVuSans-69" d="M 603 3500 
L 1178 3500 
L 1178 0 
L 603 0 
L 603 3500 
z
M 603 4863 
L 1178 4863 
L 1178 4134 
L 603 4134 
L 603 4863 
z
" transform="scale(0.015625)"/>
       <path id="DejaVuSans-6c" d="M 603 4863 
L 1178 4863 
L 1178 0 
L 603 0 
L 603 4863 
z
" transform="scale(0.015625)"/>
       <path id="DejaVuSans-63" d="M 3122 3366 
L 3122 2828 
Q 2878 2963 2633 3030 
Q 2388 3097 2138 3097 
Q 1578 3097 1268 2742 
Q 959 2388 959 1747 
Q 959 1106 1268 751 
Q 1578 397 2138 397 
Q 2388 397 2633 464 
Q 2878 531 3122 666 
L 3122 134 
Q 2881 22 2623 -34 
Q 2366 -91 2075 -91 
Q 1284 -91 818 406 
Q 353 903 353 1747 
Q 353 2603 823 3093 
Q 1294 3584 2113 3584 
Q 2378 3584 2631 3529 
Q 2884 3475 3122 3366 
z
" transform="scale(0.015625)"/>
       <path id="DejaVuSans-74" d="M 1172 4494 
L 1172 3500 
L 2356 3500 
L 2356 3053 
L 1172 3053 
L 1172 1153 
Q 1172 725 1289 603 
Q 1406 481 1766 481 
L 2356 481 
L 2356 0 
L 1766 0 
Q 1100 0 847 248 
Q 594 497 594 1153 
L 594 3053 
L 172 3053 
L 172 3500 
L 594 3500 
L 594 4494 
L 1172 4494 
z
" transform="scale(0.015625)"/>
       <path id="DejaVuSans-6f" d="M 1959 3097 
Q 1497 3097 1228 2736 
Q 959 2375 959 1747 
Q 959 1119 1226 758 
Q 1494 397 1959 397 
Q 2419 397 2687 759 
Q 2956 1122 2956 1747 
Q 2956 2369 2687 2733 
Q 2419 3097 1959 3097 
z
M 1959 3584 
Q 2709 3584 3137 3096 
Q 3566 2609 3566 1747 
Q 3566 888 3137 398 
Q 2709 -91 1959 -91 
Q 1206 -91 779 398 
Q 353 888 353 1747 
Q 353 2609 779 3096 
Q 1206 3584 1959 3584 
z
" transform="scale(0.015625)"/>
       <path id="DejaVuSans-73" d="M 2834 3397 
L 2834 2853 
Q 2591 2978 2328 3040 
Q 2066 3103 1784 3103 
Q 1356 3103 1142 2972 
Q 928 2841 928 2578 
Q 928 2378 1081 2264 
Q 1234 2150 1697 2047 
L 1894 2003 
Q 2506 1872 2764 1633 
Q 3022 1394 3022 966 
Q 3022 478 2636 193 
Q 2250 -91 1575 -91 
Q 1294 -91 989 -36 
Q 684 19 347 128 
L 347 722 
Q 666 556 975 473 
Q 1284 391 1588 391 
Q 1994 391 2212 530 
Q 2431 669 2431 922 
Q 2431 1156 2273 1281 
Q 2116 1406 1581 1522 
L 1381 1569 
Q 847 1681 609 1914 
Q 372 2147 372 2553 
Q 372 3047 722 3315 
Q 1072 3584 1716 3584 
Q 2034 3584 2315 3537 
Q 2597 3491 2834 3397 
z
" transform="scale(0.015625)"/>
       <path id="DejaVuSans-61" d="M 2194 1759 
Q 1497 1759 1228 1600 
Q 959 1441 959 1056 
Q 959 750 1161 570 
Q 1363 391 1709 391 
Q 2188 391 2477 730 
Q 2766 1069 2766 1631 
L 2766 1759 
L 2194 1759 
z
M 3341 1997 
L 3341 0 
L 2766 0 
L 2766 531 
Q 2569 213 2275 61 
Q 1981 -91 1556 -91 
Q 1019 -91 701 211 
Q 384 513 384 1019 
Q 384 1609 779 1909 
Q 1175 2209 1959 2209 
L 2766 2209 
L 2766 2266 
Q 2766 2663 2505 2880 
Q 2244 3097 1772 3097 
Q 1472 3097 1187 3025 
Q 903 2953 641 2809 
L 641 3341 
Q 956 3463 1253 3523 
Q 1550 3584 1831 3584 
Q 2591 3584 2966 3190 
Q 3341 2797 3341 1997 
z
" transform="scale(0.015625)"/>
       <path id="DejaVuSans-Oblique-3b5" d="M 1263 1888 
Q 925 1963 778 2166 
Q 669 2309 669 2503 
Q 669 3034 1175 3344 
Q 1575 3588 2188 3588 
Q 2425 3588 2684 3550 
Q 2944 3513 3234 3438 
L 3134 2916 
Q 2847 3006 2606 3047 
Q 2359 3088 2138 3088 
Q 1766 3088 1522 2944 
Q 1228 2772 1228 2522 
Q 1228 2356 1381 2241 
Q 1563 2103 1925 2103 
L 2409 2103 
L 2319 1628 
L 1856 1628 
Q 1425 1628 1172 1469 
Q 828 1253 828 916 
Q 828 703 1013 563 
Q 1244 388 1716 388 
Q 2006 388 2284 444 
Q 2563 503 2806 619 
L 2700 84 
Q 2403 -3 2131 -47 
Q 1859 -91 1609 -91 
Q 866 -91 516 194 
Q 250 413 250 781 
Q 250 1278 600 1584 
Q 859 1813 1263 1888 
z
" transform="scale(0.015625)"/>
      </defs>
      <use xlink:href="#DejaVuSans-44" transform="translate(0 0.015625)"/>
      <use xlink:href="#DejaVuSans-69" transform="translate(77.001953 0.015625)"/>
      <use xlink:href="#DejaVuSans-65" transform="translate(104.785156 0.015625)"/>
      <use xlink:href="#DejaVuSans-6c" transform="translate(166.308594 0.015625)"/>
      <use xlink:href="#DejaVuSans-65" transform="translate(194.091797 0.015625)"/>
      <use xlink:href="#DejaVuSans-63" transform="translate(255.615234 0.015625)"/>
      <use xlink:href="#DejaVuSans-74" transform="translate(310.595703 0.015625)"/>
      <use xlink:href="#DejaVuSans-72" transform="translate(349.804688 0.015625)"/>
      <use xlink:href="#DejaVuSans-69" transform="translate(390.917969 0.015625)"/>
      <use xlink:href="#DejaVuSans-63" transform="translate(418.701172 0.015625)"/>
      <use xlink:href="#DejaVuSans-20" transform="translate(473.681641 0.015625)"/>
      <use xlink:href="#DejaVuSans-63" transform="translate(505.46875 0.015625)"/>
      <use xlink:href="#DejaVuSans-6f" transform="translate(560.449219 0.015625)"/>
      <use xlink:href="#DejaVuSans-6e" transform="translate(621.630859 0.015625)"/>
      <use xlink:href="#DejaVuSans-73" transform="translate(685.009766 0.015625)"/>
      <use xlink:href="#DejaVuSans-74" transform="translate(737.109375 0.015625)"/>
      <use xlink:href="#DejaVuSans-61" transform="translate(776.318359 0.015625)"/>
      <use xlink:href="#DejaVuSans-6e" transform="translate(837.597656 0.015625)"/>
      <use xlink:href="#DejaVuSans-74" transform="translate(900.976562 0.015625)"/>
      <use xlink:href="#DejaVuSans-20" transform="translate(940.185547 0.015625)"/>
      <use xlink:href="#DejaVuSans-Oblique-3b5" transform="translate(971.972656 0.015625)"/>
     </g>
    </g>
   </g>
   <g id="line2d_16">
    <path d="M 90 492.48 
L 90.7626 459.290154 
L 91.14452 453.277652 
L 91.52582 450.057237 
L 92.28842 438.670157 
L 92.67034 434.693786 
L 93.05164 426.4177 
L 93.43294 410.006894 
L 94.95876 330.815376 
L 95.34006 316.79535 
L 96.48458 259.555651 
L 96.86588 265.885415 
L 97.2478 287.945706 
L 97.6291 303.431929 
L 98.0104 302.07938 
L 98.3917 280.02381 
L 99.53622 157.703423 
L 99.91752 161.930778 
L 100.68074 234.919478 
L 101.44334 310.370769 
L 101.82526 328.305386 
L 102.58786 344.934826 
L 102.96916 355.457519 
L 103.35108 361.107455 
L 103.73238 361.85302 
L 104.11368 363.530257 
L 104.49498 365.944667 
L 104.8769 364.842419 
L 105.6395 348.247421 
L 106.0208 348.456883 
L 106.78402 374.184197 
L 107.54662 397.692999 
L 107.92854 405.241175 
L 108.30984 407.837936 
L 108.69114 406.837312 
L 109.45436 408.625001 
L 110.21696 402.576031 
L 110.59826 403.803434 
L 110.98018 407.107098 
L 111.36148 406.931631 
L 112.12408 396.208118 
L 112.506 388.668203 
L 113.2686 362.170557 
L 113.6499 355.541783 
L 114.03182 362.340517 
L 114.79442 393.767032 
L 115.17572 403.553672 
L 115.55764 409.314302 
L 115.93894 413.025217 
L 116.32024 413.514277 
L 116.70154 413.302547 
L 117.08346 412.014486 
L 117.84606 405.54009 
L 118.22736 397.819785 
L 118.99058 371.1252 
L 119.37188 365.916768 
L 119.75318 366.589237 
L 120.1351 365.750479 
L 120.5164 361.242807 
L 120.8977 353.339325 
L 121.279 342.797705 
L 121.66092 336.523541 
L 122.04222 336.832201 
L 122.42352 337.824656 
L 122.80482 336.652462 
L 123.18674 341.629555 
L 123.94934 365.673305 
L 124.33064 365.996718 
L 124.71256 357.533035 
L 125.85646 315.953919 
L 126.23838 315.314392 
L 127.00098 327.71318 
L 127.38228 327.930851 
L 127.7642 323.591497 
L 128.5268 307.159542 
L 129.29002 296.45258 
L 129.67132 295.00144 
L 130.05262 302.147702 
L 130.43392 312.344197 
L 130.81584 316.200297 
L 131.19714 312.558388 
L 131.57844 304.384135 
L 131.95974 299.445719 
L 132.34166 304.860819 
L 132.72296 312.515432 
L 133.10426 313.181193 
L 133.48556 306.917989 
L 134.24878 289.981537 
L 134.63008 289.075985 
L 135.01138 292.691435 
L 136.1559 309.298486 
L 137.30042 330.683452 
L 137.68172 322.795427 
L 138.06302 307.70559 
L 138.44494 297.965942 
L 138.82624 299.085486 
L 139.20754 301.582033 
L 139.58884 299.421447 
L 139.97076 303.658139 
L 141.87788 360.148845 
L 142.64048 373.576396 
L 143.0224 375.818947 
L 143.4037 375.725806 
L 143.785 378.496388 
L 144.54822 387.378075 
L 144.92952 390.862504 
L 145.31082 392.424592 
L 146.07404 391.726002 
L 146.45534 389.521262 
L 147.59986 374.621908 
L 147.98116 370.16528 
L 148.36246 364.339128 
L 148.74376 360.498301 
L 149.12568 360.479253 
L 149.88828 363.767914 
L 150.26958 365.914685 
L 150.6515 367.03895 
L 151.0328 367.796932 
L 151.4141 366.775893 
L 152.17732 359.296463 
L 152.55862 358.035849 
L 152.93992 358.93892 
L 153.32122 360.9825 
L 154.46574 374.01225 
L 154.84704 374.910973 
L 155.22896 373.696952 
L 155.61026 371.569073 
L 155.99156 370.635993 
L 156.37286 371.57651 
L 157.13608 379.705715 
L 157.51738 382.046007 
L 157.89868 382.324684 
L 158.2806 380.628476 
L 158.6619 375.534203 
L 159.0432 365.973565 
L 159.80642 339.06334 
L 160.18772 324.312858 
L 160.56902 320.220169 
L 162.09484 356.906915 
L 162.47614 369.78053 
L 162.85806 378.36522 
L 163.23936 383.014049 
L 163.62066 385.719269 
L 164.00196 386.049781 
L 164.38388 385.115139 
L 164.76518 382.964906 
L 165.14648 377.870052 
L 165.9097 362.514268 
L 166.291 358.759658 
L 167.0536 355.609281 
L 167.43552 355.593678 
L 167.81682 357.803 
L 168.19812 357.979754 
L 168.57942 354.606994 
L 168.96134 353.643421 
L 169.34264 357.62858 
L 169.72394 359.665193 
L 170.10524 350.612653 
L 170.48716 326.666974 
L 171.24976 269.597105 
L 172.01298 238.805249 
L 172.39428 227.538961 
L 172.77558 227.739224 
L 173.15688 237.055853 
L 173.5388 242.299327 
L 174.3014 245.256392 
L 174.6827 243.15584 
L 175.06462 237.317869 
L 175.44592 226.002333 
L 175.82722 218.182161 
L 176.20852 223.925013 
L 176.97174 258.778638 
L 177.73434 290.91768 
L 178.11626 298.713832 
L 178.49756 301.403656 
L 178.87886 302.47226 
L 179.26016 305.416864 
L 180.40468 322.037765 
L 180.78598 324.682811 
L 181.1679 324.1104 
L 181.5492 323.870192 
L 181.9305 325.50784 
L 182.69372 329.884241 
L 183.07502 331.207067 
L 183.45632 331.73575 
L 183.83762 332.633467 
L 184.21954 334.593287 
L 184.60084 335.094348 
L 185.36344 333.030842 
L 185.74536 329.189651 
L 186.12666 323.429409 
L 186.50796 314.943953 
L 187.27118 289.175869 
L 187.65248 282.450994 
L 188.03378 280.21766 
L 188.41508 286.230832 
L 189.5596 337.810667 
L 190.32282 356.137929 
L 190.70412 359.396512 
L 191.08542 358.323378 
L 191.46672 358.080168 
L 191.84864 363.917532 
L 192.61124 380.61322 
L 192.99254 384.466118 
L 193.37446 386.789904 
L 193.75576 387.346582 
L 194.13706 385.799116 
L 194.51836 381.641688 
L 194.90028 374.738819 
L 195.28158 370.682534 
L 195.66288 373.085558 
L 196.4261 384.736673 
L 196.8074 388.031548 
L 197.1887 388.226057 
L 197.57 386.171221 
L 198.33322 379.035867 
L 199.09582 371.012646 
L 199.47774 361.130443 
L 200.62164 313.773139 
L 202.14746 270.208585 
L 202.91068 248.222439 
L 203.29198 245.815414 
L 203.67328 247.481682 
L 204.4365 259.975182 
L 204.8178 260.75223 
L 205.1991 255.649306 
L 205.96232 243.423176 
L 207.10622 228.555558 
L 208.25074 201.657707 
L 208.63204 203.953263 
L 209.01396 204.766889 
L 209.39526 200.443078 
L 209.77656 192.684633 
L 210.15786 188.64481 
L 210.53978 194.426183 
L 211.30238 220.095892 
L 211.68368 228.312061 
L 212.4469 234.694995 
L 212.8282 242.067789 
L 213.59142 272.651598 
L 213.97272 282.500963 
L 214.35402 287.597283 
L 214.73532 289.891086 
L 215.49854 293.103754 
L 215.87984 295.787079 
L 216.26114 302.230195 
L 217.02436 317.360393 
L 217.40566 320.106278 
L 217.78696 318.856416 
L 218.55018 312.679802 
L 220.076 296.731023 
L 220.4573 299.125127 
L 221.22052 310.659175 
L 221.60182 314.014076 
L 222.36442 314.932784 
L 223.12764 319.831411 
L 223.89024 325.658248 
L 225.03476 335.562293 
L 225.41606 334.478659 
L 226.17928 329.401126 
L 226.56058 323.530751 
L 228.4677 270.95611 
L 229.61222 222.74021 
L 229.99352 212.590845 
L 230.37544 205.503411 
L 230.75674 203.741042 
L 231.13804 208.379241 
L 231.51934 222.864826 
L 232.66386 280.744182 
L 233.04516 289.892796 
L 233.42708 290.288792 
L 233.80838 286.738766 
L 234.18968 285.917182 
L 234.9529 290.439677 
L 235.3342 291.806909 
L 235.7155 289.901891 
L 236.47872 279.48703 
L 237.24132 276.570605 
L 238.00454 271.400911 
L 238.38584 270.965048 
L 238.76714 272.775008 
L 239.14844 275.437046 
L 239.53036 276.464299 
L 239.91166 275.778387 
L 240.29296 274.770191 
L 240.67426 277.306311 
L 241.05618 285.692482 
L 241.81878 305.987375 
L 242.9633 327.872812 
L 243.7259 340.210211 
L 244.48912 348.675786 
L 245.25172 355.519481 
L 246.77754 375.238118 
L 247.54076 381.356424 
L 248.30336 387.878702 
L 249.06658 392.587574 
L 249.82918 397.760852 
L 250.9737 402.104449 
L 251.355 402.32652 
L 252.11822 401.279299 
L 252.49952 400.351045 
L 253.64404 394.596981 
L 254.02534 389.842982 
L 254.78856 369.674155 
L 255.16986 360.349377 
L 256.69568 335.717682 
L 257.07698 327.361936 
L 257.45828 323.156563 
L 257.8402 325.360071 
L 258.9841 344.603994 
L 259.36602 346.654118 
L 260.12862 344.00481 
L 260.89184 342.703592 
L 261.27314 342.350118 
L 262.03574 342.16604 
L 262.41766 341.210953 
L 262.79896 336.6144 
L 263.94348 311.329362 
L 264.32478 308.222887 
L 264.70608 308.488852 
L 265.08738 311.873344 
L 265.8506 321.325247 
L 266.2319 320.954131 
L 266.6132 316.584942 
L 266.99512 313.772635 
L 267.75772 314.884525 
L 268.13902 313.11924 
L 268.52094 310.362222 
L 268.90224 308.784469 
L 269.28354 310.129433 
L 269.66484 314.334859 
L 270.04676 319.897502 
L 270.42806 329.631311 
L 271.19066 355.899882 
L 271.57258 363.812215 
L 272.33518 373.108225 
L 272.71648 375.225092 
L 273.0984 375.578019 
L 273.4797 376.657089 
L 273.861 379.398218 
L 275.76812 401.553229 
L 276.15004 403.378931 
L 276.53134 402.986345 
L 276.91264 401.582457 
L 277.29394 401.607962 
L 277.67586 402.712007 
L 278.43846 403.153701 
L 278.81976 403.759784 
L 279.96428 406.452585 
L 281.4901 410.851265 
L 281.8714 411.509878 
L 282.25332 412.842719 
L 284.54174 425.172283 
L 285.30496 427.195809 
L 285.68626 427.575249 
L 286.06756 427.559191 
L 286.44886 426.747066 
L 286.83078 424.335983 
L 287.21208 420.49477 
L 287.97468 410.517348 
L 288.3566 407.455068 
L 289.5005 403.122617 
L 289.88242 402.501322 
L 290.26372 403.119085 
L 291.02632 409.095468 
L 291.40824 412.067358 
L 291.78954 413.710505 
L 292.17084 414.313049 
L 292.55214 414.667493 
L 292.93406 414.086525 
L 294.07796 409.990168 
L 294.45988 408.131789 
L 294.84118 406.913266 
L 295.22248 407.70162 
L 295.9857 412.072514 
L 297.1296 416.151573 
L 297.89282 421.232062 
L 298.27412 422.649525 
L 299.03734 424.418296 
L 299.41864 424.43566 
L 299.79994 423.508399 
L 300.18124 421.79706 
L 300.94446 416.71764 
L 301.32576 415.271673 
L 301.70706 415.180052 
L 302.08898 415.566101 
L 302.47028 414.805662 
L 302.85158 413.587519 
L 303.23288 413.686343 
L 303.6148 415.036821 
L 303.9961 415.838529 
L 304.3774 415.1708 
L 304.7587 413.316019 
L 306.28452 401.085701 
L 306.66644 396.019545 
L 307.42904 384.268754 
L 307.81034 381.601388 
L 308.57356 378.603501 
L 308.95486 378.108932 
L 309.33616 377.094574 
L 309.71808 372.167267 
L 310.86198 345.696436 
L 311.24328 343.698814 
L 311.6252 347.410668 
L 312.7691 368.364016 
L 313.53232 376.649374 
L 313.91362 378.418798 
L 314.29492 378.67926 
L 314.67684 378.358963 
L 315.05814 377.810433 
L 315.43944 375.407235 
L 316.20266 366.272671 
L 316.58396 363.150793 
L 316.96526 362.728659 
L 317.34656 366.197754 
L 318.10978 376.538182 
L 318.87238 381.563647 
L 319.2543 381.972408 
L 319.6356 382.073099 
L 320.3982 384.924041 
L 320.78012 385.473507 
L 321.16142 384.697926 
L 322.30594 374.771682 
L 322.68724 371.459946 
L 323.06854 366.720535 
L 324.59436 340.004698 
L 325.35758 333.332534 
L 325.73888 327.552332 
L 326.8834 306.849259 
L 327.2647 302.675812 
L 327.646 301.969308 
L 328.40922 310.83573 
L 328.79052 313.342144 
L 329.17182 317.662233 
L 329.55312 326.772377 
L 330.69764 366.372069 
L 331.07894 374.426288 
L 331.46086 379.05265 
L 331.84216 382.060291 
L 332.22346 384.095887 
L 332.60476 385.482689 
L 332.98668 385.943674 
L 333.36798 384.268997 
L 333.74928 382.040548 
L 334.13058 378.815853 
L 334.5125 372.469531 
L 335.6564 343.355945 
L 336.41962 321.77279 
L 336.80092 314.72649 
L 337.18222 314.117804 
L 337.56414 319.808891 
L 338.32674 336.672812 
L 339.08996 355.298373 
L 339.47126 362.64633 
L 339.85256 367.822506 
L 340.23386 369.91504 
L 340.61578 369.191691 
L 340.99708 365.527115 
L 342.5229 342.458299 
L 342.9042 340.978512 
L 344.43002 349.148088 
L 344.81132 352.664009 
L 345.57454 361.599968 
L 345.95584 363.999114 
L 346.71906 365.235117 
L 347.10036 367.391529 
L 347.86296 373.148266 
L 348.24488 374.542088 
L 348.62618 374.775735 
L 349.00748 373.756257 
L 349.38878 371.565758 
L 349.7707 370.480778 
L 350.5333 372.117906 
L 350.9146 370.972033 
L 351.29652 368.910766 
L 351.67782 368.082084 
L 352.82234 371.593206 
L 353.20364 372.811046 
L 353.58494 372.786114 
L 353.96624 371.958924 
L 354.34816 370.653219 
L 354.72946 369.97064 
L 355.11076 371.07807 
L 355.49206 371.770585 
L 355.87398 369.979978 
L 356.63658 362.962028 
L 357.3998 351.057012 
L 357.7811 344.763314 
L 358.1624 335.824743 
L 358.92562 309.725393 
L 359.30692 301.45904 
L 359.68822 296.268094 
L 360.06952 294.713199 
L 360.45144 298.24094 
L 360.83274 304.525075 
L 362.73986 352.318112 
L 363.12116 355.813362 
L 363.50308 355.899483 
L 363.88438 356.757827 
L 364.26568 358.175097 
L 365.0289 361.951993 
L 365.4102 362.205278 
L 365.7915 360.40975 
L 366.1728 357.956593 
L 366.55472 357.770553 
L 367.31732 365.800656 
L 368.84314 382.124855 
L 369.22444 383.955138 
L 369.60636 384.1216 
L 369.98766 383.563898 
L 370.36896 383.573453 
L 370.75026 382.887819 
L 371.51348 379.007203 
L 373.4206 364.512905 
L 373.8019 364.24485 
L 374.56512 367.040781 
L 374.94642 367.354075 
L 375.32772 366.543946 
L 375.70964 365.088267 
L 376.09094 364.434942 
L 376.47224 365.425773 
L 377.23546 370.942553 
L 377.99806 372.69575 
L 378.76128 375.56541 
L 379.52388 379.169526 
L 379.90518 379.608001 
L 382.19422 367.297685 
L 382.57552 366.376452 
L 382.95682 367.861809 
L 383.72004 374.252372 
L 384.10134 376.351249 
L 384.86456 379.171513 
L 385.24586 381.884639 
L 386.00846 389.299972 
L 386.39038 391.637018 
L 386.77168 393.178462 
L 387.9162 399.807973 
L 388.2975 399.857343 
L 388.6788 398.86435 
L 389.0601 398.61011 
L 389.44202 399.097269 
L 389.82332 399.180968 
L 390.58592 397.724942 
L 390.96784 396.994417 
L 391.34914 395.6177 
L 391.73044 392.84454 
L 392.49366 384.893138 
L 392.87496 382.506194 
L 393.25626 381.343129 
L 393.63756 378.330855 
L 394.78208 364.341905 
L 395.9266 336.296984 
L 396.3079 334.411933 
L 396.6892 337.151119 
L 398.59694 360.513696 
L 399.35954 367.81782 
L 400.50406 375.294855 
L 401.64858 391.18399 
L 402.41118 396.073131 
L 403.1744 399.435243 
L 403.5557 399.710415 
L 403.937 399.173314 
L 404.3183 398.422795 
L 404.70022 398.131291 
L 405.08152 399.294468 
L 405.46282 401.420004 
L 405.84412 402.732799 
L 406.60734 403.692633 
L 406.98864 404.121215 
L 407.36994 405.480411 
L 408.13316 411.218873 
L 408.51446 412.879223 
L 408.89576 412.999423 
L 409.27768 412.724442 
L 410.04028 413.074609 
L 410.42158 412.691306 
L 411.1848 411.416063 
L 411.5661 411.138746 
L 411.9474 411.622438 
L 412.32932 412.361465 
L 412.71062 412.484759 
L 413.09192 412.244688 
L 413.47322 411.639966 
L 414.23644 409.367771 
L 414.61774 409.562509 
L 415.38096 412.115986 
L 415.76226 412.31532 
L 416.14356 411.082809 
L 416.90678 405.369697 
L 417.66938 402.62015 
L 418.05068 401.702761 
L 418.4326 401.59708 
L 419.1952 400.273801 
L 419.5765 400.352589 
L 419.9578 401.435156 
L 420.33972 402.929556 
L 420.72102 403.720125 
L 421.10232 403.095723 
L 421.48362 402.17147 
L 421.86554 402.216917 
L 422.24684 403.460296 
L 423.39136 409.611872 
L 424.53526 413.245919 
L 425.29848 417.407856 
L 425.67978 418.418847 
L 426.06108 418.788902 
L 427.2056 419.18355 
L 427.5869 418.834526 
L 427.96882 418.63702 
L 428.35012 419.963643 
L 428.73142 421.941983 
L 429.11272 422.855578 
L 429.49464 422.509518 
L 429.87594 421.550533 
L 430.25724 421.126069 
L 430.63854 422.00521 
L 431.40176 425.269359 
L 432.16436 428.394781 
L 432.54628 429.01767 
L 432.92758 429.333246 
L 433.30888 429.920336 
L 434.0721 431.757547 
L 434.4534 432.737685 
L 434.8347 433.370612 
L 435.216 433.42189 
L 435.97922 432.512011 
L 436.74182 430.427258 
L 437.12374 430.124344 
L 438.26764 431.566236 
L 439.03086 432.179621 
L 439.41216 432.074393 
L 439.79346 431.417548 
L 440.17538 431.074811 
L 440.93798 431.573469 
L 441.31928 431.54686 
L 441.7012 431.678669 
L 442.0825 431.176569 
L 443.60832 427.525792 
L 444.37092 427.585264 
L 444.75284 427.755046 
L 445.51544 429.017294 
L 445.89674 429.069476 
L 446.27866 428.600173 
L 447.04126 427.015831 
L 447.42256 426.140832 
L 447.80448 425.828161 
L 448.18578 426.200877 
L 449.3303 428.214899 
L 449.7116 429.402581 
L 450.0929 431.079588 
L 450.4742 432.029522 
L 450.85612 431.640347 
L 451.61872 429.760515 
L 454.28906 419.861003 
L 454.67036 418.060026 
L 456.19618 408.469089 
L 456.57748 407.59719 
L 456.9594 408.004696 
L 457.3407 408.827089 
L 457.722 410.106931 
L 458.48522 414.12749 
L 458.86652 415.334251 
L 460.01104 419.970521 
L 460.77364 421.741946 
L 461.53686 423.060873 
L 461.91816 422.947743 
L 462.29946 421.87014 
L 462.68076 420.118912 
L 463.82528 413.118316 
L 464.5885 409.496901 
L 464.9698 409.285739 
L 465.3511 409.792969 
L 465.7324 409.962871 
L 466.11432 410.30259 
L 466.49562 411.44895 
L 467.25822 416.043511 
L 468.02144 418.443332 
L 468.40274 419.263614 
L 469.16596 421.93435 
L 471.07308 431.364818 
L 471.45438 431.303666 
L 471.83568 430.468445 
L 472.2176 430.105091 
L 472.5989 430.646124 
L 474.12472 436.499421 
L 474.50602 436.660375 
L 474.88732 436.08485 
L 475.26924 435.725156 
L 476.03184 436.264962 
L 476.41314 436.992785 
L 476.79506 438.157691 
L 477.17636 438.671009 
L 477.55766 438.574369 
L 477.93896 438.608716 
L 479.08348 439.764386 
L 479.46478 439.36182 
L 480.228 437.631612 
L 480.6093 437.270075 
L 481.37252 437.074043 
L 481.75382 436.622975 
L 484.42416 430.200893 
L 484.80546 430.007293 
L 485.18676 429.056807 
L 486.33128 421.017117 
L 487.09388 419.224887 
L 487.8571 413.483058 
L 488.2384 412.286069 
L 488.6197 412.523545 
L 489.00162 412.89631 
L 489.38292 413.449978 
L 489.76422 415.175448 
L 490.52744 420.756701 
L 490.90874 422.359043 
L 491.29004 422.292352 
L 491.67134 421.728045 
L 492.05326 421.706053 
L 492.81586 422.161578 
L 493.19716 422.91239 
L 493.96038 425.41945 
L 494.34168 425.492768 
L 494.72298 425.064945 
L 495.1049 424.40821 
L 495.4862 423.430789 
L 495.8675 421.811704 
L 497.01202 415.515796 
L 497.39332 415.030753 
L 497.77462 415.693067 
L 498.15654 417.092132 
L 499.68236 424.331137 
L 500.06366 425.468467 
L 500.44496 425.775964 
L 500.82626 425.57519 
L 501.20818 425.790864 
L 501.58948 426.656122 
L 501.97078 427.244711 
L 502.35208 426.859248 
L 503.1153 424.690617 
L 503.4966 424.208921 
L 503.8779 424.192578 
L 504.25982 424.409497 
L 504.64112 424.76713 
L 505.02242 425.359242 
L 505.40372 426.186479 
L 505.78564 427.530352 
L 506.54824 430.695159 
L 506.92954 431.202078 
L 507.69276 430.337229 
L 508.83728 431.629255 
L 509.21858 431.762715 
L 509.59988 432.038288 
L 509.98118 432.929362 
L 511.1257 437.320247 
L 511.507 437.934908 
L 511.88892 438.31312 
L 513.03282 438.880907 
L 513.41474 439.261697 
L 513.79604 439.404691 
L 514.17734 439.930208 
L 514.94056 442.420014 
L 515.32186 443.812138 
L 515.70316 444.727395 
L 516.08446 445.020535 
L 516.46638 445.506329 
L 517.22898 447.010166 
L 517.61028 447.21038 
L 517.9922 447.266352 
L 518.3735 447.467297 
L 518.7548 447.813535 
L 519.1361 447.67715 
L 519.51802 447.250285 
L 519.89932 447.016465 
L 520.28062 447.31536 
L 521.04384 448.400349 
L 521.42514 449.235955 
L 522.18774 451.301202 
L 522.56966 451.55712 
L 522.95096 451.130962 
L 524.09548 448.039391 
L 524.85808 447.667467 
L 525.23938 447.481118 
L 525.6213 447.834123 
L 526.3839 449.574416 
L 526.7652 449.782877 
L 527.14712 449.548609 
L 527.52842 449.708267 
L 528.67294 451.671396 
L 529.05424 451.586476 
L 531.34266 447.048931 
L 531.72396 446.462444 
L 532.48718 444.588886 
L 533.24978 442.858971 
L 534.3943 441.980102 
L 536.30142 442.064967 
L 536.68334 441.719981 
L 537.06464 441.676651 
L 537.44594 442.086859 
L 537.82724 442.699585 
L 538.20916 443.616234 
L 539.35306 447.28712 
L 539.73498 447.755218 
L 540.49758 447.121275 
L 540.87888 447.438343 
L 541.2608 448.060886 
L 541.6421 448.17595 
L 542.0234 447.680369 
L 542.78662 446.227871 
L 543.16792 446.444109 
L 543.93052 448.820565 
L 544.31244 449.346663 
L 545.45634 449.597126 
L 545.83826 450.228565 
L 546.60086 452.523393 
L 546.98216 452.747362 
L 547.36408 452.456605 
L 547.74538 451.753047 
L 548.12668 451.306353 
L 548.8899 451.031033 
L 549.2712 451.358666 
L 550.0338 452.274792 
L 550.41572 452.448829 
L 550.79702 452.467573 
L 551.55962 452.037476 
L 551.94154 452.056036 
L 553.08544 452.999026 
L 553.84866 453.874285 
L 554.61126 454.281752 
L 554.99318 454.407461 
L 555.75578 454.24011 
L 556.13708 454.156306 
L 556.519 453.914741 
L 556.9003 453.935804 
L 558.04482 455.580852 
L 558.80742 455.309536 
L 559.95194 454.424871 
L 560.33324 454.817761 
L 561.47776 456.425304 
L 561.85906 456.608716 
L 562.24036 456.420172 
L 563.00358 455.669363 
L 563.38488 455.906261 
L 564.1481 457.60951 
L 564.9107 458.302234 
L 565.67392 460.818778 
L 566.05522 461.436781 
L 566.81782 461.064845 
L 567.58104 460.530477 
L 568.72556 460.507826 
L 569.10686 460.590279 
L 569.48816 460.834908 
L 569.86946 461.242102 
L 570.25138 462.028557 
L 570.63268 463.195257 
L 571.01398 463.98463 
L 571.39528 464.233125 
L 571.7772 464.047937 
L 572.9211 462.83827 
L 573.30302 462.760397 
L 573.68432 463.172745 
L 574.06562 463.749333 
L 575.21014 464.719682 
L 575.59144 464.5338 
L 575.97274 464.183462 
L 576.35466 464.106449 
L 577.11726 464.830015 
L 577.49856 465.247603 
L 578.64308 465.789031 
L 579.02438 465.768203 
L 579.4063 465.967817 
L 580.1689 466.975396 
L 580.93212 467.4333 
L 581.69472 467.560524 
L 583.60184 467.130321 
L 583.98376 466.943803 
L 584.36506 467.035447 
L 584.74636 467.405864 
L 585.50958 468.483308 
L 587.4167 469.45535 
L 587.798 469.549828 
L 588.1793 469.476157 
L 588.56122 469.233922 
L 589.32382 468.523534 
L 589.70512 468.674077 
L 590.46834 469.595918 
L 590.84964 469.860521 
L 591.23094 469.956203 
L 592.75676 470.906841 
L 593.13868 470.607125 
L 593.51998 470.477133 
L 593.90128 470.85773 
L 594.28258 471.068546 
L 595.0458 471.03614 
L 596.19032 471.671654 
L 597.33422 471.624631 
L 597.71614 472.009198 
L 598.47874 473.352857 
L 599.62326 474.342928 
L 600.38586 475.350458 
L 600.76778 475.452689 
L 601.53038 474.966382 
L 603.0562 474.336317 
L 603.4375 474.496309 
L 604.58202 475.673261 
L 605.72654 475.984379 
L 606.48914 476.658015 
L 607.25236 476.634635 
L 607.63366 476.856146 
L 608.39688 477.767253 
L 608.77818 477.814858 
L 609.15948 477.68714 
L 609.54078 477.793301 
L 609.9227 478.075283 
L 610.304 478.123317 
L 611.44852 477.680643 
L 611.82982 477.787363 
L 612.59242 478.648737 
L 612.97434 478.756428 
L 613.73694 478.618446 
L 614.88146 479.001954 
L 616.02598 480.275914 
L 616.40728 480.089209 
L 617.16988 479.418167 
L 617.9331 479.101967 
L 619.84022 479.352003 
L 620.60344 479.811162 
L 621.74734 480.442613 
L 622.12926 480.553828 
L 623.27316 480.468132 
L 623.65508 480.399426 
L 624.41768 480.562727 
L 625.1809 481.027902 
L 625.5622 481.321329 
L 625.9435 481.434104 
L 627.08802 481.410515 
L 628.23254 482.235576 
L 628.61384 482.228319 
L 629.75836 481.841797 
L 630.52096 481.339762 
L 631.66548 482.170236 
L 632.81 483.18772 
L 633.1913 483.242369 
L 633.9539 483.045613 
L 634.71712 483.032376 
L 635.09842 483.148545 
L 635.86164 483.75025 
L 636.24294 483.805673 
L 637.00554 483.731957 
L 637.76876 483.658059 
L 638.15006 483.590183 
L 638.91328 483.763267 
L 640.43848 484.296981 
L 641.583 484.901181 
L 642.72752 484.760954 
L 643.10882 484.880216 
L 643.87204 484.932108 
L 644.63464 484.984181 
L 645.39786 484.59856 
L 646.54176 484.770367 
L 648.06758 485.81771 
L 648.06758 485.81771 
" clip-path="url(#pc22359db68)" style="fill: none; stroke: #ee82ee; stroke-width: 1.5; stroke-linecap: square"/>
   </g>
   <g id="line2d_17">
    <path d="M 90 492.48 
L 90.33356 469.346867 
L 91.0013 397.811107 
L 91.33548 390.177807 
L 92.33678 410.215468 
L 92.67034 414.631207 
L 93.00452 414.645351 
L 93.33808 406.015855 
L 94.33938 357.673715 
L 94.67294 356.39919 
L 95.00712 354.579528 
L 95.34068 350.504351 
L 95.67486 335.443829 
L 96.34198 265.136666 
L 97.00972 182.538523 
L 97.3439 167.104594 
L 97.67746 183.24402 
L 98.67876 293.761601 
L 99.3465 329.703173 
L 100.01424 358.924818 
L 100.68136 388.228687 
L 101.01554 397.967103 
L 101.3491 404.129363 
L 101.68328 406.659205 
L 102.01684 405.067433 
L 103.01814 386.48199 
L 103.35232 384.821631 
L 104.01944 369.787968 
L 104.35362 367.253141 
L 104.68718 370.643135 
L 105.02136 375.233458 
L 105.35492 377.332361 
L 105.68848 375.069608 
L 106.02266 371.821239 
L 106.35622 372.517911 
L 107.35752 381.831199 
L 108.35882 399.996018 
L 108.693 400.406159 
L 109.02656 399.423476 
L 109.36074 399.791633 
L 110.02786 409.887157 
L 110.36204 410.174686 
L 111.02978 400.198806 
L 111.36334 400.672826 
L 112.03108 412.518623 
L 112.36464 412.406663 
L 113.03238 402.972634 
L 113.36594 403.284974 
L 113.70012 404.58358 
L 114.03368 401.559235 
L 114.70142 391.359781 
L 115.70272 375.769231 
L 116.03628 374.462892 
L 116.37046 370.268028 
L 117.0382 354.378033 
L 117.37176 356.890297 
L 118.0395 369.755243 
L 118.37306 372.387367 
L 118.70724 369.491474 
L 119.0408 362.450658 
L 119.70854 336.377178 
L 120.37566 302.623119 
L 121.37758 247.391136 
L 121.71114 242.123797 
L 122.0447 261.226363 
L 122.71244 321.289884 
L 123.04662 333.493095 
L 123.38018 335.307185 
L 123.71374 333.170585 
L 124.04792 328.982758 
L 124.38148 329.616263 
L 125.71696 373.168572 
L 126.05052 372.830173 
L 126.38408 366.213279 
L 126.71826 352.4888 
L 127.386 317.203755 
L 127.71956 307.722096 
L 128.05312 306.448412 
L 128.3873 308.045682 
L 128.72086 303.375973 
L 129.3886 277.382921 
L 129.72216 284.015956 
L 130.05634 299.737813 
L 130.3899 307.967345 
L 130.72408 310.510781 
L 131.3912 319.865463 
L 131.72538 319.416809 
L 132.05894 311.75416 
L 132.72668 292.044765 
L 133.06024 289.039017 
L 133.39442 291.14192 
L 134.06154 305.54201 
L 134.39572 307.61579 
L 134.72928 296.988769 
L 135.73058 213.807401 
L 136.06476 203.720762 
L 136.39832 202.638811 
L 136.7325 214.168034 
L 138.06736 291.823354 
L 138.7351 320.621363 
L 139.06866 322.884021 
L 139.7364 307.910982 
L 140.06996 308.275381 
L 140.40414 318.819092 
L 141.40544 365.656236 
L 141.739 372.615921 
L 142.07318 376.429984 
L 142.40674 378.154864 
L 142.74092 378.554939 
L 143.07448 381.338799 
L 143.74222 392.081576 
L 144.07578 391.092853 
L 144.40996 387.719772 
L 144.74352 387.64502 
L 145.41126 392.747094 
L 145.74482 393.773514 
L 146.07838 393.606236 
L 146.41256 390.96395 
L 146.74612 383.4903 
L 147.74742 344.244845 
L 148.0816 345.91967 
L 149.41646 368.901837 
L 149.75064 372.185629 
L 150.0842 370.803236 
L 150.41838 367.260474 
L 150.75194 365.070061 
L 151.0855 364.38428 
L 151.41968 363.337483 
L 152.42098 356.766002 
L 152.75454 357.483232 
L 153.08872 360.411017 
L 154.09002 380.282197 
L 154.75776 384.563763 
L 155.09132 386.288826 
L 155.42488 387.071558 
L 155.75906 385.755162 
L 156.76036 372.402962 
L 157.09392 370.24569 
L 157.4281 370.031942 
L 158.09584 378.049574 
L 158.4294 378.815219 
L 158.76296 373.992091 
L 159.4307 360.637462 
L 159.76426 355.444876 
L 160.09844 346.487317 
L 160.76618 306.416859 
L 161.09974 286.529391 
L 161.4333 274.246663 
L 161.76748 275.384787 
L 162.10104 290.396243 
L 163.10234 348.888016 
L 163.43652 360.030963 
L 163.77008 367.051481 
L 164.43782 374.93246 
L 164.77138 377.447093 
L 165.10556 377.669216 
L 165.43912 375.612297 
L 165.77268 370.433986 
L 166.44042 356.292684 
L 167.10816 348.030878 
L 167.7759 340.260023 
L 168.44364 336.95562 
L 168.7772 336.951134 
L 169.11076 342.059812 
L 170.11268 362.51386 
L 170.44624 366.06071 
L 170.7798 364.708265 
L 171.11398 357.846008 
L 171.44754 344.21501 
L 171.7811 320.875221 
L 173.11658 182.222148 
L 173.45014 163.741839 
L 173.78432 168.929809 
L 174.45206 192.167075 
L 174.78562 204.364967 
L 175.45336 264.276344 
L 175.78692 293.079594 
L 176.1211 309.779162 
L 176.45466 316.952214 
L 177.1224 327.071995 
L 177.79014 336.091653 
L 178.1237 337.364165 
L 178.45726 336.428187 
L 178.79144 336.328867 
L 179.125 337.57997 
L 179.45856 337.262311 
L 180.1263 333.483749 
L 180.46048 329.795655 
L 181.1276 315.730364 
L 181.46178 316.628011 
L 181.79534 320.258352 
L 182.12952 318.344178 
L 182.46308 312.139942 
L 182.79664 309.115891 
L 183.13082 309.819714 
L 183.46438 312.535435 
L 183.79856 317.88452 
L 184.46568 332.597956 
L 184.79986 332.459628 
L 185.46698 321.44811 
L 185.80116 319.111525 
L 186.4689 310.218314 
L 186.80246 309.893512 
L 187.13602 312.21945 
L 187.4702 312.291191 
L 187.80376 309.217086 
L 188.13794 301.945244 
L 188.80506 281.77987 
L 189.13924 273.437784 
L 189.4728 262.086755 
L 189.80698 256.162203 
L 190.14054 270.040725 
L 190.80828 325.111732 
L 191.4754 357.916544 
L 192.14314 371.820085 
L 192.47732 377.556575 
L 192.81088 380.796778 
L 193.14444 377.296547 
L 193.47862 367.350968 
L 194.14636 339.858881 
L 194.47992 336.5565 
L 195.14766 348.722544 
L 195.48122 351.511124 
L 195.8154 349.586094 
L 196.14896 346.097734 
L 196.48252 347.413437 
L 197.15026 360.049794 
L 197.48382 362.265564 
L 197.818 362.565321 
L 198.15156 361.529728 
L 198.48574 359.193767 
L 198.8193 355.510221 
L 199.48704 345.639474 
L 199.8206 343.323637 
L 200.48834 344.919024 
L 200.8219 341.164534 
L 201.15608 331.402549 
L 202.15738 290.434687 
L 202.82512 286.689284 
L 203.15868 278.481793 
L 203.82642 252.786684 
L 204.49416 239.42171 
L 204.82772 226.897776 
L 205.16128 207.674741 
L 206.1632 125.709426 
L 206.49676 120.508361 
L 206.83032 125.669802 
L 207.49806 150.753119 
L 208.83354 232.267585 
L 209.1671 245.138857 
L 209.50128 251.527718 
L 210.1684 246.648669 
L 210.50258 254.668272 
L 210.83614 268.169785 
L 211.1697 274.595424 
L 211.50388 271.80404 
L 211.83744 266.709169 
L 212.17162 266.475357 
L 213.84066 289.383586 
L 214.50778 300.45257 
L 214.84196 300.865558 
L 215.5097 297.266865 
L 215.84326 298.392866 
L 216.17682 302.214592 
L 216.511 304.019918 
L 216.84456 299.035274 
L 217.17812 291.017781 
L 217.5123 286.709773 
L 217.84586 285.119931 
L 218.5136 277.549738 
L 218.84716 276.353099 
L 219.18134 279.809862 
L 220.5162 307.627011 
L 221.18394 311.307762 
L 222.18524 323.672029 
L 222.85298 321.831315 
L 223.18716 318.925936 
L 224.52202 295.375237 
L 226.19106 283.799265 
L 226.52462 277.719559 
L 226.8588 268.21912 
L 227.19236 253.342859 
L 227.8601 209.136 
L 228.19366 174.692629 
L 228.8614 93.377237 
L 229.19558 89.28 
L 229.52914 102.132927 
L 229.8627 124.270929 
L 230.53044 191.376116 
L 231.19818 261.188032 
L 231.53174 279.044546 
L 231.86592 284.854548 
L 232.19948 282.379609 
L 232.53304 279.060236 
L 232.86722 282.358877 
L 233.53496 298.843395 
L 233.86852 303.353775 
L 234.53626 304.641959 
L 235.204 311.038379 
L 235.53756 306.931935 
L 236.53886 268.306942 
L 237.2066 259.921049 
L 237.54016 258.147285 
L 237.87434 259.299355 
L 238.2079 259.858818 
L 238.54146 258.314329 
L 238.87564 258.206877 
L 239.2092 261.582397 
L 239.54338 266.541431 
L 239.87694 274.751343 
L 240.87824 323.855266 
L 241.21242 330.705816 
L 241.87954 337.453366 
L 243.21502 358.221984 
L 244.21632 378.943307 
L 244.88406 386.078019 
L 245.88536 392.398324 
L 246.88666 407.523509 
L 247.22084 409.946624 
L 247.5544 409.363216 
L 247.88796 404.93544 
L 248.5557 387.70042 
L 249.22344 369.157214 
L 249.557 367.94603 
L 249.89118 371.666674 
L 250.5583 382.415127 
L 250.89248 384.959699 
L 251.22604 385.027448 
L 251.89378 383.19608 
L 252.22734 381.197859 
L 252.56152 376.536013 
L 253.56282 353.522267 
L 254.8983 339.548989 
L 255.23186 339.090693 
L 255.56542 344.284278 
L 255.8996 352.303411 
L 256.23316 356.591764 
L 256.56672 354.573679 
L 256.9009 346.304653 
L 257.56864 325.611821 
L 257.9022 320.133866 
L 258.23576 319.582959 
L 258.56994 320.967937 
L 258.9035 321.484957 
L 259.23768 320.612711 
L 259.57124 316.662862 
L 260.57254 288.583229 
L 261.90802 306.395277 
L 262.24158 308.149601 
L 262.57514 304.875901 
L 262.90932 303.148843 
L 263.24288 311.099169 
L 263.91062 335.697653 
L 264.57836 348.727395 
L 264.91192 351.84253 
L 265.2461 353.528671 
L 265.57966 354.609468 
L 265.91322 354.625036 
L 266.2474 352.913477 
L 266.58096 347.794662 
L 267.2487 331.829569 
L 267.58226 331.587269 
L 268.58418 355.69108 
L 268.91774 360.152907 
L 269.58548 372.750942 
L 270.2526 379.536502 
L 270.58678 382.664117 
L 270.92034 384.703645 
L 271.25452 383.830617 
L 271.58808 381.257269 
L 271.92164 381.749895 
L 272.92356 399.669229 
L 273.25712 402.101698 
L 273.59068 402.76463 
L 273.92486 403.015799 
L 274.25842 403.517918 
L 274.5926 403.39817 
L 274.92616 401.403585 
L 275.25972 395.707665 
L 275.92746 376.462562 
L 276.26102 373.148361 
L 276.5952 376.024868 
L 277.93006 409.855223 
L 278.26424 414.544779 
L 278.5978 416.595469 
L 278.93198 416.354567 
L 279.5991 412.79586 
L 279.93328 411.05036 
L 280.26684 410.242767 
L 280.60102 411.429835 
L 281.26814 418.882997 
L 281.60232 423.115338 
L 281.93588 425.870884 
L 282.26944 425.191864 
L 282.60362 420.582686 
L 283.27136 407.920641 
L 283.60492 404.829759 
L 283.93848 403.411335 
L 284.27266 401.025119 
L 284.60622 397.206248 
L 284.9404 396.449584 
L 285.27396 402.071915 
L 285.9417 416.598975 
L 286.27526 419.610169 
L 286.60944 420.084229 
L 287.61074 419.047556 
L 287.9443 417.964562 
L 288.27848 414.934432 
L 288.9456 407.903847 
L 289.27978 405.740936 
L 289.9469 400.268898 
L 290.28108 399.798853 
L 290.61464 400.367828 
L 290.94882 400.667229 
L 291.61594 397.999854 
L 291.95012 399.572608 
L 292.95142 414.04444 
L 293.61916 419.935032 
L 294.2869 423.58717 
L 294.62046 423.889683 
L 294.95402 422.692492 
L 296.62306 412.997944 
L 296.95724 414.734904 
L 297.2908 417.435729 
L 297.62436 418.601644 
L 297.95854 419.068527 
L 298.62628 420.924924 
L 299.2934 422.889248 
L 299.62758 422.164018 
L 300.29532 418.622739 
L 300.62888 417.247765 
L 300.96244 415.01308 
L 301.96374 405.235509 
L 302.29792 401.438098 
L 302.96566 390.545573 
L 303.63278 387.313666 
L 303.96696 383.990927 
L 304.96826 367.908801 
L 305.30182 369.19531 
L 305.636 375.199622 
L 306.30374 389.971452 
L 306.6373 393.792137 
L 306.97086 395.009222 
L 307.30504 393.781767 
L 307.6386 389.584073 
L 308.6399 369.254694 
L 308.97408 367.536635 
L 309.30764 365.023529 
L 310.30894 350.590221 
L 310.64312 349.455134 
L 310.97668 349.238912 
L 311.31024 347.551469 
L 311.97798 340.236072 
L 312.31216 338.303544 
L 312.64572 333.656979 
L 312.97928 326.107909 
L 313.31346 323.392709 
L 313.64702 329.036805 
L 314.31476 343.561936 
L 314.9825 355.337268 
L 315.64962 372.372181 
L 315.9838 376.72666 
L 316.65154 380.59839 
L 316.9851 381.917112 
L 317.31866 382.625482 
L 317.9864 382.636737 
L 318.32058 382.784446 
L 318.65414 381.439065 
L 318.9877 378.232542 
L 320.65674 355.308995 
L 320.99092 355.630794 
L 321.32448 355.563504 
L 321.65804 353.538937 
L 321.99222 349.051597 
L 322.32578 340.416297 
L 322.99352 309.526345 
L 323.32708 302.586741 
L 323.66126 308.738736 
L 323.99482 319.734434 
L 324.329 326.933363 
L 324.66256 328.601428 
L 324.99612 324.979288 
L 325.3303 314.240832 
L 325.66386 297.737527 
L 325.99804 289.882929 
L 326.3316 304.881403 
L 326.99934 352.071144 
L 327.3329 364.254812 
L 327.66646 371.304931 
L 328.00064 375.773839 
L 328.66838 379.426404 
L 329.3355 387.200522 
L 329.66968 389.051876 
L 330.00324 387.447646 
L 331.00454 373.649118 
L 331.33872 371.0098 
L 331.67228 366.485057 
L 332.34002 351.583039 
L 333.00776 331.069885 
L 333.6755 302.181859 
L 334.00906 286.30496 
L 334.34262 280.599459 
L 334.6768 290.758291 
L 335.6781 342.832565 
L 336.01166 352.996413 
L 336.34584 358.580387 
L 336.6794 361.595456 
L 337.01296 361.835959 
L 337.34714 357.841053 
L 337.6807 348.617496 
L 338.682 312.98264 
L 339.01618 311.478824 
L 339.34974 316.434022 
L 340.01748 329.118292 
L 340.68522 340.432282 
L 342.68782 381.241657 
L 343.02138 384.002746 
L 343.35556 384.573144 
L 343.68912 384.745507 
L 344.0233 385.061544 
L 345.69234 387.553683 
L 346.35946 387.539885 
L 346.69364 388.907083 
L 347.0272 391.668545 
L 347.36076 393.39359 
L 347.69494 392.219643 
L 348.0285 387.699795 
L 349.36398 361.411325 
L 349.69754 362.383959 
L 350.36528 373.813428 
L 350.69884 376.775066 
L 351.03302 377.185581 
L 351.36658 375.182934 
L 351.70076 371.170152 
L 352.03432 364.106765 
L 352.70206 343.533298 
L 353.03562 336.853567 
L 353.3698 334.192813 
L 354.03692 338.67092 
L 354.3711 339.310308 
L 354.70466 339.057405 
L 355.03822 336.176385 
L 355.3724 328.175207 
L 355.70596 312.999501 
L 356.70726 229.381862 
L 357.04144 231.038064 
L 357.375 246.768886 
L 358.04274 300.669252 
L 358.71048 348.755563 
L 359.04404 362.673388 
L 359.37822 370.737578 
L 360.71308 390.815026 
L 361.04664 392.919188 
L 361.38082 393.102216 
L 361.71438 392.12284 
L 362.04856 390.650681 
L 362.38212 390.188229 
L 362.71568 390.185877 
L 363.04986 387.753087 
L 363.7176 375.037187 
L 364.7189 351.670722 
L 365.05246 352.739413 
L 365.7202 363.304585 
L 366.05376 363.708192 
L 366.38794 364.642277 
L 366.7215 368.291892 
L 367.7228 383.77034 
L 368.05698 384.579436 
L 368.39054 382.505204 
L 368.7241 379.389939 
L 369.72602 366.975036 
L 370.05958 366.572931 
L 370.39314 366.549344 
L 370.72732 363.678999 
L 371.39506 350.880414 
L 372.06218 344.06133 
L 373.0641 321.527141 
L 373.39766 324.742395 
L 375.0667 375.467452 
L 375.40026 379.382363 
L 375.73444 380.666521 
L 376.068 381.083951 
L 376.40156 380.566819 
L 376.73574 377.076211 
L 377.40348 365.181921 
L 377.73704 363.73735 
L 378.73834 375.619543 
L 379.07252 377.536277 
L 379.40608 376.425385 
L 379.73964 371.851716 
L 380.07382 368.836395 
L 380.40738 371.60644 
L 381.40868 386.129332 
L 381.74286 387.848207 
L 382.07642 387.037479 
L 382.40998 385.137911 
L 383.07772 382.911432 
L 383.4119 378.058903 
L 383.74546 370.415641 
L 384.07902 365.704364 
L 384.4132 368.147794 
L 385.08094 378.771204 
L 385.4145 380.273675 
L 385.74806 380.546859 
L 386.08224 381.020879 
L 386.4158 381.162496 
L 386.74936 379.967271 
L 387.08354 379.271519 
L 387.4171 380.216773 
L 387.75128 380.258376 
L 388.08484 376.841167 
L 388.4184 370.592152 
L 389.42032 342.585961 
L 389.75388 340.156069 
L 390.08744 343.739731 
L 390.42162 345.19889 
L 390.75518 338.800058 
L 391.42292 317.401935 
L 391.75648 315.780176 
L 392.42422 323.97622 
L 393.09196 322.40889 
L 393.42552 327.247421 
L 394.761 372.396922 
L 395.09456 374.087446 
L 395.42874 373.923353 
L 395.7623 373.173744 
L 396.43004 369.495032 
L 396.7636 371.400467 
L 397.7649 385.500383 
L 398.43264 398.022477 
L 398.76682 402.094955 
L 399.10038 403.390429 
L 399.43394 401.551017 
L 399.76812 396.461682 
L 400.43524 377.541545 
L 400.76942 367.543334 
L 401.10298 363.518299 
L 401.43716 366.748522 
L 402.10428 377.415913 
L 402.43846 379.651373 
L 402.77202 384.253281 
L 403.77332 407.169965 
L 404.1075 411.255363 
L 404.44106 413.720038 
L 404.77524 415.303293 
L 405.1088 415.470045 
L 405.44236 413.078269 
L 406.1101 405.501716 
L 406.44366 404.839452 
L 406.77784 405.246608 
L 407.1114 405.04756 
L 407.44558 405.170024 
L 407.77914 406.510513 
L 408.44688 410.169129 
L 409.44818 413.293731 
L 409.78174 414.003736 
L 410.44948 416.006263 
L 410.78366 415.275916 
L 411.45078 410.298178 
L 412.11852 403.050007 
L 413.11982 384.604698 
L 413.454 382.670868 
L 413.78756 383.65211 
L 414.12112 384.197368 
L 414.4553 382.915866 
L 414.78886 379.47304 
L 415.79016 361.357808 
L 416.12434 358.099902 
L 416.4579 359.801637 
L 417.79338 390.024935 
L 418.12694 392.028067 
L 418.46112 391.7037 
L 418.79468 390.452909 
L 419.12824 389.718965 
L 419.46242 391.470738 
L 420.12954 401.049088 
L 420.79728 412.232272 
L 421.13146 415.84491 
L 421.46502 418.083274 
L 421.79858 418.943041 
L 422.13276 418.270208 
L 422.8005 414.033705 
L 423.13406 414.818403 
L 423.46762 416.957473 
L 423.8018 416.881789 
L 424.13536 415.112057 
L 424.46954 412.472011 
L 424.8031 407.714461 
L 425.8044 388.769623 
L 426.13796 386.924387 
L 426.47214 387.615601 
L 427.13988 389.230878 
L 427.47344 389.242801 
L 427.807 390.929689 
L 428.47474 400.339624 
L 429.14248 409.902117 
L 429.47604 412.421925 
L 429.81022 412.228252 
L 430.14378 409.006775 
L 430.81152 399.319496 
L 431.14508 396.883564 
L 431.47926 397.020781 
L 432.14638 400.342453 
L 432.81412 405.917988 
L 433.1483 406.838875 
L 433.81542 404.348015 
L 434.1496 403.952141 
L 434.48316 402.895972 
L 434.81734 399.81745 
L 435.48446 391.696983 
L 435.81864 391.794324 
L 437.1535 409.672592 
L 437.82124 413.628336 
L 438.15542 415.788592 
L 438.48898 416.107775 
L 438.82254 413.440644 
L 439.82384 401.191781 
L 440.15802 400.670578 
L 440.49158 403.387027 
L 441.15932 412.47592 
L 441.49288 415.053419 
L 441.82706 415.098732 
L 442.16062 412.723951 
L 442.4948 409.431167 
L 442.82836 407.921404 
L 444.16384 410.873582 
L 445.83226 417.385197 
L 446.16644 416.712707 
L 447.16774 408.008258 
L 448.16904 403.453284 
L 448.50322 402.077608 
L 448.83678 399.486721 
L 449.50452 391.819855 
L 449.83808 386.171846 
L 450.83938 358.269583 
L 451.50712 368.530269 
L 451.84068 368.293593 
L 452.50842 355.44314 
L 452.8426 359.037181 
L 453.50972 380.950318 
L 454.17746 395.517555 
L 454.51164 399.576773 
L 454.8452 401.506099 
L 455.17876 402.657318 
L 455.51294 402.410385 
L 455.8465 400.225881 
L 456.51424 394.6476 
L 457.18198 391.862916 
L 457.51554 389.576801 
L 457.8491 385.794595 
L 458.18328 379.516413 
L 458.85102 363.352418 
L 459.18458 361.322141 
L 459.51814 362.286166 
L 459.85232 362.58515 
L 460.18588 363.927876 
L 460.52006 369.030358 
L 461.52136 389.417985 
L 461.85492 393.850514 
L 462.1891 396.319995 
L 462.52266 397.535006 
L 462.85622 397.744069 
L 463.1904 397.364813 
L 463.52396 398.500316 
L 464.52526 410.40186 
L 464.85944 412.187061 
L 465.193 413.003385 
L 465.52656 413.228914 
L 465.86074 412.480788 
L 466.1943 411.434877 
L 466.52848 411.065907 
L 467.1956 411.89917 
L 467.52978 411.997931 
L 467.86334 412.522882 
L 468.53108 414.770037 
L 468.86464 414.061232 
L 469.19882 412.069386 
L 469.53238 411.05785 
L 469.86656 411.713782 
L 470.20012 412.799513 
L 470.53368 413.244126 
L 470.86786 412.187515 
L 471.86916 403.414051 
L 472.20272 398.943659 
L 473.5382 373.811363 
L 473.87176 376.952107 
L 474.5395 391.092688 
L 474.87306 394.517351 
L 475.20724 395.256945 
L 475.5408 393.912979 
L 475.87498 391.784058 
L 476.20854 390.739666 
L 476.5421 391.522867 
L 476.87628 393.266413 
L 477.20984 393.878935 
L 477.5434 391.698007 
L 478.21114 383.913319 
L 478.87888 381.141383 
L 479.21244 377.011282 
L 479.54662 370.76724 
L 479.88018 367.32437 
L 480.21436 369.635295 
L 480.88148 379.643138 
L 481.21566 383.117162 
L 481.54922 384.435684 
L 482.21696 381.467269 
L 482.55052 382.39016 
L 482.8847 386.413381 
L 483.55244 397.318975 
L 483.886 400.70004 
L 484.21956 402.754408 
L 484.55374 404.056494 
L 485.8886 407.147444 
L 486.55634 409.863157 
L 486.8899 409.704226 
L 487.22408 407.754729 
L 487.55764 405.085492 
L 487.89182 403.353226 
L 488.22538 403.547727 
L 488.55894 403.967223 
L 488.89312 404.072791 
L 489.22668 404.538654 
L 489.56086 404.51006 
L 489.89442 402.363957 
L 490.89572 392.923458 
L 491.22928 390.625411 
L 491.56346 389.952378 
L 491.89702 390.999304 
L 492.2312 391.277496 
L 492.56476 388.335956 
L 493.2325 378.622046 
L 493.56606 380.98333 
L 494.2338 392.73215 
L 494.56736 394.746738 
L 494.90154 391.746187 
L 495.56928 380.566975 
L 495.90284 380.840819 
L 496.90414 396.703859 
L 497.90544 407.131049 
L 498.23962 409.223047 
L 498.57318 409.431236 
L 499.24092 405.099394 
L 499.57448 404.889724 
L 500.24222 407.843931 
L 500.90996 408.724754 
L 501.24352 409.212806 
L 501.5777 409.469763 
L 501.91126 410.516376 
L 502.24482 412.261538 
L 502.579 413.172742 
L 503.24674 412.71845 
L 503.5803 413.35307 
L 504.24804 417.566121 
L 504.91516 423.476289 
L 505.91708 435.025505 
L 506.25064 436.620961 
L 506.5842 435.872121 
L 507.25194 432.49042 
L 507.58612 431.924807 
L 507.91968 432.724039 
L 508.25324 435.503941 
L 508.92098 443.767705 
L 509.58872 449.410586 
L 509.92228 451.505506 
L 510.25646 452.609354 
L 510.59002 452.814658 
L 510.92358 452.40378 
L 511.25776 451.754916 
L 512.9268 449.78274 
L 513.26036 449.272157 
L 513.59454 448.42666 
L 513.9281 446.911224 
L 514.26166 444.867618 
L 514.59584 444.25602 
L 514.9294 446.420562 
L 515.59714 452.486304 
L 515.9307 453.942701 
L 516.26488 454.296699 
L 516.59844 453.690017 
L 516.932 452.07224 
L 518.60104 441.483083 
L 518.93522 440.331726 
L 519.26878 441.01669 
L 519.60296 442.186761 
L 519.93652 442.389927 
L 520.60426 441.53584 
L 520.93782 441.496376 
L 521.272 441.165279 
L 521.60556 440.444756 
L 521.93912 440.307204 
L 522.2733 440.948728 
L 522.94042 442.722896 
L 524.2759 447.56047 
L 525.2772 449.173468 
L 525.61138 448.796643 
L 525.94494 448.075513 
L 526.2785 447.795749 
L 526.94624 448.761248 
L 527.28042 448.038025 
L 527.61398 445.883877 
L 528.61528 436.140188 
L 529.61658 424.668352 
L 529.95076 423.674949 
L 530.61788 429.031734 
L 530.95206 429.331402 
L 531.28562 427.344484 
L 531.95336 421.071094 
L 532.6211 411.138372 
L 532.95466 408.881041 
L 533.28884 408.568233 
L 533.6224 407.555376 
L 534.29014 402.271336 
L 534.6237 401.652532 
L 535.29144 407.536903 
L 535.625 403.305784 
L 535.95918 394.696692 
L 536.29274 390.650959 
L 536.6263 394.852358 
L 537.29404 409.422834 
L 537.96178 419.444118 
L 538.29534 423.026569 
L 538.62952 424.137427 
L 539.63082 421.401128 
L 539.96438 421.094899 
L 540.29856 422.056629 
L 540.9663 426.982641 
L 542.30116 440.752615 
L 542.63472 441.071471 
L 542.9689 439.808599 
L 543.30246 439.616586 
L 543.9702 443.528493 
L 544.30376 444.157977 
L 544.63794 444.019979 
L 544.9715 444.394536 
L 545.9728 449.374997 
L 546.64054 449.672036 
L 547.30828 450.794561 
L 547.64184 451.125109 
L 547.97602 451.146514 
L 548.30958 451.632808 
L 549.31088 455.839046 
L 549.64506 456.899985 
L 550.31218 460.997592 
L 550.97992 465.314952 
L 551.3141 466.698677 
L 551.64766 467.096164 
L 551.98122 466.557287 
L 552.64896 464.17402 
L 552.98314 463.475409 
L 553.3167 463.2979 
L 553.65026 462.911198 
L 553.98444 461.844299 
L 554.318 459.938866 
L 554.98574 453.657399 
L 555.3193 452.213946 
L 555.65348 452.709702 
L 555.98704 452.681214 
L 556.65478 449.890011 
L 556.98834 449.491244 
L 557.32252 449.302515 
L 557.65608 447.79629 
L 558.32382 442.930575 
L 559.32512 437.906692 
L 559.65868 438.238336 
L 560.32642 443.566599 
L 560.6606 444.38035 
L 560.99416 443.391016 
L 561.6619 439.388735 
L 561.99546 438.819369 
L 562.32902 438.834667 
L 562.6632 438.477168 
L 562.99676 438.652238 
L 563.6645 441.08464 
L 563.99806 441.262077 
L 564.33224 439.889835 
L 564.6658 438.997127 
L 564.99998 440.351007 
L 565.33354 442.670957 
L 566.00128 444.853587 
L 567.00258 455.932605 
L 567.33614 457.359209 
L 567.67032 457.2808 
L 568.00388 456.663771 
L 568.33806 456.746525 
L 569.33936 459.318188 
L 569.67292 459.673441 
L 570.00648 459.704713 
L 570.67422 458.630081 
L 571.0084 459.094325 
L 571.34196 460.264346 
L 571.67552 460.730476 
L 572.0097 460.491207 
L 572.34326 460.958201 
L 573.011 464.016684 
L 573.34456 464.378253 
L 574.34648 463.992559 
L 574.68004 463.481439 
L 575.0136 463.242887 
L 575.68134 463.695151 
L 576.0149 463.565859 
L 576.34908 462.449993 
L 577.01682 458.951667 
L 577.35038 457.995198 
L 577.68394 457.861696 
L 579.01942 460.191304 
L 579.35298 460.610381 
L 579.68716 460.754144 
L 580.02072 460.401256 
L 580.3549 460.54513 
L 580.68846 461.242154 
L 581.02202 461.608199 
L 581.3562 461.75328 
L 582.02332 462.543141 
L 582.3575 461.968045 
L 583.3588 458.125934 
L 583.69236 456.990174 
L 584.02654 456.465172 
L 584.3601 456.496557 
L 584.69428 456.360753 
L 585.02784 455.388187 
L 585.3614 453.186419 
L 586.36332 444.21445 
L 586.69688 444.070084 
L 587.03044 445.829664 
L 587.69818 451.038327 
L 588.03174 452.357328 
L 588.36592 452.386559 
L 588.69948 451.797815 
L 589.03366 450.02747 
L 589.36722 445.947935 
L 590.03496 429.71575 
L 591.03626 407.516491 
L 591.704 396.040849 
L 592.03756 393.940323 
L 592.37174 396.987987 
L 592.7053 404.741208 
L 593.7066 434.873635 
L 594.37434 446.276985 
L 594.7079 449.487897 
L 595.04208 450.99588 
L 595.37564 450.740709 
L 595.7092 449.288644 
L 596.37694 445.92237 
L 597.04468 444.832616 
L 597.37824 444.686933 
L 597.71242 446.200027 
L 598.71372 454.993233 
L 599.38146 457.354595 
L 600.38276 463.898884 
L 601.38406 472.024866 
L 602.0518 476.729174 
L 602.71954 479.25054 
L 603.38666 481.315773 
L 604.38858 484.771502 
L 605.0557 486.444485 
L 605.72344 487.424514 
L 606.72474 488.40447 
L 607.39248 488.632392 
L 608.39378 488.858585 
L 609.39508 489.144204 
L 610.06282 489.139916 
L 611.73186 489.65827 
L 612.3996 489.595798 
L 613.73508 489.175342 
L 614.4022 489.23022 
L 615.06994 489.226082 
L 615.4035 489.342414 
L 616.40542 489.929557 
L 617.07254 490.163876 
L 617.40672 490.281259 
L 618.07446 490.218974 
L 618.40802 490.158008 
L 619.7435 489.316497 
L 620.7448 488.353692 
L 621.07836 488.29126 
L 622.7474 489.118477 
L 623.7487 489.352719 
L 627.08678 490.422451 
L 628.75582 490.658874 
L 629.08938 490.657746 
L 630.75842 491.200473 
L 634.0965 491.744328 
L 635.43198 491.803979 
L 636.09972 491.864683 
L 638.43588 491.923846 
L 639.10362 491.985039 
L 646.78108 492.040854 
L 647.44882 492.103137 
L 648.11656 492.102686 
L 648.11656 492.102686 
" clip-path="url(#pc22359db68)" style="fill: none; stroke-dasharray: 5.55,2.4; stroke-dashoffset: 0; stroke: #8b4513; stroke-width: 1.5"/>
   </g>
   <g id="patch_3">
    <path d="M 90 512.64 
L 90 69.12 
" style="fill: none; stroke: #000000; stroke-width: 0.8; stroke-linejoin: miter; stroke-linecap: square"/>
   </g>
   <g id="patch_4">
    <path d="M 648 512.64 
L 648 69.12 
" style="fill: none; stroke: #000000; stroke-width: 0.8; stroke-linejoin: miter; stroke-linecap: square"/>
   </g>
   <g id="patch_5">
    <path d="M 90 512.64 
L 648 512.64 
" style="fill: none; stroke: #000000; stroke-width: 0.8; stroke-linejoin: miter; stroke-linecap: square"/>
   </g>
   <g id="patch_6">
    <path d="M 90 69.12 
L 648 69.12 
" style="fill: none; stroke: #000000; stroke-width: 0.8; stroke-linejoin: miter; stroke-linecap: square"/>
   </g>
   <g id="legend_1">
    <g id="patch_7">
     <path d="M 572.376562 106.47625 
L 641 106.47625 
Q 643 106.47625 643 104.47625 
L 643 76.12 
Q 643 74.12 641 74.12 
L 572.376562 74.12 
Q 570.376562 74.12 570.376562 76.12 
L 570.376562 104.47625 
Q 570.376562 106.47625 572.376562 106.47625 
z
" style="fill: #ffffff; opacity: 0.8; stroke: #cccccc; stroke-linejoin: miter"/>
    </g>
    <g id="line2d_18">
     <path d="M 574.376562 82.218438 
L 584.376562 82.218438 
L 594.376562 82.218438 
" style="fill: none; stroke: #ee82ee; stroke-width: 1.5; stroke-linecap: square"/>
    </g>
    <g id="text_18">
     <!-- InCoO3 -->
     <g transform="translate(602.376562 85.718438)scale(0.1 -0.1)">
      <defs>
       <path id="DejaVuSans-49" d="M 628 4666 
L 1259 4666 
L 1259 0 
L 628 0 
L 628 4666 
z
" transform="scale(0.015625)"/>
       <path id="DejaVuSans-43" d="M 4122 4306 
L 4122 3641 
Q 3803 3938 3442 4084 
Q 3081 4231 2675 4231 
Q 1875 4231 1450 3742 
Q 1025 3253 1025 2328 
Q 1025 1406 1450 917 
Q 1875 428 2675 428 
Q 3081 428 3442 575 
Q 3803 722 4122 1019 
L 4122 359 
Q 3791 134 3420 21 
Q 3050 -91 2638 -91 
Q 1578 -91 968 557 
Q 359 1206 359 2328 
Q 359 3453 968 4101 
Q 1578 4750 2638 4750 
Q 3056 4750 3426 4639 
Q 3797 4528 4122 4306 
z
" transform="scale(0.015625)"/>
       <path id="DejaVuSans-4f" d="M 2522 4238 
Q 1834 4238 1429 3725 
Q 1025 3213 1025 2328 
Q 1025 1447 1429 934 
Q 1834 422 2522 422 
Q 3209 422 3611 934 
Q 4013 1447 4013 2328 
Q 4013 3213 3611 3725 
Q 3209 4238 2522 4238 
z
M 2522 4750 
Q 3503 4750 4090 4092 
Q 4678 3434 4678 2328 
Q 4678 1225 4090 567 
Q 3503 -91 2522 -91 
Q 1538 -91 948 565 
Q 359 1222 359 2328 
Q 359 3434 948 4092 
Q 1538 4750 2522 4750 
z
" transform="scale(0.015625)"/>
      </defs>
      <use xlink:href="#DejaVuSans-49"/>
      <use xlink:href="#DejaVuSans-6e" x="29.492188"/>
      <use xlink:href="#DejaVuSans-43" x="92.871094"/>
      <use xlink:href="#DejaVuSans-6f" x="162.695312"/>
      <use xlink:href="#DejaVuSans-4f" x="223.876953"/>
      <use xlink:href="#DejaVuSans-33" x="302.587891"/>
     </g>
    </g>
    <g id="line2d_19">
     <path d="M 574.376562 96.896563 
L 584.376562 96.896563 
L 594.376562 96.896563 
" style="fill: none; stroke-dasharray: 5.55,2.4; stroke-dashoffset: 0; stroke: #8b4513; stroke-width: 1.5"/>
    </g>
    <g id="text_19">
     <!-- InFeO3 -->
     <g transform="translate(602.376562 100.396563)scale(0.1 -0.1)">
      <defs>
       <path id="DejaVuSans-46" d="M 628 4666 
L 3309 4666 
L 3309 4134 
L 1259 4134 
L 1259 2759 
L 3109 2759 
L 3109 2228 
L 1259 2228 
L 1259 0 
L 628 0 
L 628 4666 
z
" transform="scale(0.015625)"/>
      </defs>
      <use xlink:href="#DejaVuSans-49"/>
      <use xlink:href="#DejaVuSans-6e" x="29.492188"/>
      <use xlink:href="#DejaVuSans-46" x="92.871094"/>
      <use xlink:href="#DejaVuSans-65" x="144.890625"/>
      <use xlink:href="#DejaVuSans-4f" x="206.414062"/>
      <use xlink:href="#DejaVuSans-33" x="285.125"/>
     </g>
    </g>
   </g>
  </g>
 </g>
 <defs>
  <clipPath id="pc22359db68">
   <rect x="90" y="69.12" width="558" height="443.52"/>
  </clipPath>
 </defs>
</svg>
