<?xml version="1.0" encoding="utf-8" standalone="no"?>
<!DOCTYPE svg PUBLIC "-//W3C//DTD SVG 1.1//EN"
  "http://www.w3.org/Graphics/SVG/1.1/DTD/svg11.dtd">
<svg xmlns:xlink="http://www.w3.org/1999/xlink" width="720pt" height="576pt" viewBox="0 0 720 576" xmlns="http://www.w3.org/2000/svg" version="1.1">
 <metadata>
  <rdf:RDF xmlns:dc="http://purl.org/dc/elements/1.1/" xmlns:cc="http://creativecommons.org/ns#" xmlns:rdf="http://www.w3.org/1999/02/22-rdf-syntax-ns#">
   <cc:Work>
    <dc:type rdf:resource="http://purl.org/dc/dcmitype/StillImage"/>
    <dc:date>2022-03-18T20:56:04.014632</dc:date>
    <dc:format>image/svg+xml</dc:format>
    <dc:creator>
     <cc:Agent>
      <dc:title>Matplotlib v3.5.1, https://matplotlib.org/</dc:title>
     </cc:Agent>
    </dc:creator>
   </cc:Work>
  </rdf:RDF>
 </metadata>
 <defs>
  <style type="text/css">*{stroke-linejoin: round; stroke-linecap: butt}</style>
 </defs>
 <g id="figure_1">
  <g id="patch_1">
   <path d="M 0 576 
L 720 576 
L 720 0 
L 0 0 
z
" style="fill: #ffffff"/>
  </g>
  <g id="axes_1">
   <g id="patch_2">
    <path d="M 90 512.64 
L 648 512.64 
L 648 69.12 
L 90 69.12 
z
" style="fill: #ffffff"/>
   </g>
   <g id="matplotlib.axis_1">
    <g id="xtick_1">
     <g id="line2d_1">
      <defs>
       <path id="m52283bf70c" d="M 0 0 
L 0 3.5 
" style="stroke: #000000; stroke-width: 0.8"/>
      </defs>
      <g>
       <use xlink:href="#m52283bf70c" x="115.363636" y="512.64" style="stroke: #000000; stroke-width: 0.8"/>
      </g>
     </g>
     <g id="text_1">
      <!-- 0 -->
      <g transform="translate(112.182386 527.238438)scale(0.1 -0.1)">
       <defs>
        <path id="DejaVuSans-30" d="M 2034 4250 
Q 1547 4250 1301 3770 
Q 1056 3291 1056 2328 
Q 1056 1369 1301 889 
Q 1547 409 2034 409 
Q 2525 409 2770 889 
Q 3016 1369 3016 2328 
Q 3016 3291 2770 3770 
Q 2525 4250 2034 4250 
z
M 2034 4750 
Q 2819 4750 3233 4129 
Q 3647 3509 3647 2328 
Q 3647 1150 3233 529 
Q 2819 -91 2034 -91 
Q 1250 -91 836 529 
Q 422 1150 422 2328 
Q 422 3509 836 4129 
Q 1250 4750 2034 4750 
z
" transform="scale(0.015625)"/>
       </defs>
       <use xlink:href="#DejaVuSans-30"/>
      </g>
     </g>
    </g>
    <g id="xtick_2">
     <g id="line2d_2">
      <g>
       <use xlink:href="#m52283bf70c" x="197.813624" y="512.64" style="stroke: #000000; stroke-width: 0.8"/>
      </g>
     </g>
     <g id="text_2">
      <!-- 20 -->
      <g transform="translate(191.451124 527.238438)scale(0.1 -0.1)">
       <defs>
        <path id="DejaVuSans-32" d="M 1228 531 
L 3431 531 
L 3431 0 
L 469 0 
L 469 531 
Q 828 903 1448 1529 
Q 2069 2156 2228 2338 
Q 2531 2678 2651 2914 
Q 2772 3150 2772 3378 
Q 2772 3750 2511 3984 
Q 2250 4219 1831 4219 
Q 1534 4219 1204 4116 
Q 875 4013 500 3803 
L 500 4441 
Q 881 4594 1212 4672 
Q 1544 4750 1819 4750 
Q 2544 4750 2975 4387 
Q 3406 4025 3406 3419 
Q 3406 3131 3298 2873 
Q 3191 2616 2906 2266 
Q 2828 2175 2409 1742 
Q 1991 1309 1228 531 
z
" transform="scale(0.015625)"/>
       </defs>
       <use xlink:href="#DejaVuSans-32"/>
       <use xlink:href="#DejaVuSans-30" x="63.623047"/>
      </g>
     </g>
    </g>
    <g id="xtick_3">
     <g id="line2d_3">
      <g>
       <use xlink:href="#m52283bf70c" x="280.263613" y="512.64" style="stroke: #000000; stroke-width: 0.8"/>
      </g>
     </g>
     <g id="text_3">
      <!-- 40 -->
      <g transform="translate(273.901113 527.238438)scale(0.1 -0.1)">
       <defs>
        <path id="DejaVuSans-34" d="M 2419 4116 
L 825 1625 
L 2419 1625 
L 2419 4116 
z
M 2253 4666 
L 3047 4666 
L 3047 1625 
L 3713 1625 
L 3713 1100 
L 3047 1100 
L 3047 0 
L 2419 0 
L 2419 1100 
L 313 1100 
L 313 1709 
L 2253 4666 
z
" transform="scale(0.015625)"/>
       </defs>
       <use xlink:href="#DejaVuSans-34"/>
       <use xlink:href="#DejaVuSans-30" x="63.623047"/>
      </g>
     </g>
    </g>
    <g id="xtick_4">
     <g id="line2d_4">
      <g>
       <use xlink:href="#m52283bf70c" x="362.713601" y="512.64" style="stroke: #000000; stroke-width: 0.8"/>
      </g>
     </g>
     <g id="text_4">
      <!-- 60 -->
      <g transform="translate(356.351101 527.238438)scale(0.1 -0.1)">
       <defs>
        <path id="DejaVuSans-36" d="M 2113 2584 
Q 1688 2584 1439 2293 
Q 1191 2003 1191 1497 
Q 1191 994 1439 701 
Q 1688 409 2113 409 
Q 2538 409 2786 701 
Q 3034 994 3034 1497 
Q 3034 2003 2786 2293 
Q 2538 2584 2113 2584 
z
M 3366 4563 
L 3366 3988 
Q 3128 4100 2886 4159 
Q 2644 4219 2406 4219 
Q 1781 4219 1451 3797 
Q 1122 3375 1075 2522 
Q 1259 2794 1537 2939 
Q 1816 3084 2150 3084 
Q 2853 3084 3261 2657 
Q 3669 2231 3669 1497 
Q 3669 778 3244 343 
Q 2819 -91 2113 -91 
Q 1303 -91 875 529 
Q 447 1150 447 2328 
Q 447 3434 972 4092 
Q 1497 4750 2381 4750 
Q 2619 4750 2861 4703 
Q 3103 4656 3366 4563 
z
" transform="scale(0.015625)"/>
       </defs>
       <use xlink:href="#DejaVuSans-36"/>
       <use xlink:href="#DejaVuSans-30" x="63.623047"/>
      </g>
     </g>
    </g>
    <g id="xtick_5">
     <g id="line2d_5">
      <g>
       <use xlink:href="#m52283bf70c" x="445.163589" y="512.64" style="stroke: #000000; stroke-width: 0.8"/>
      </g>
     </g>
     <g id="text_5">
      <!-- 80 -->
      <g transform="translate(438.801089 527.238438)scale(0.1 -0.1)">
       <defs>
        <path id="DejaVuSans-38" d="M 2034 2216 
Q 1584 2216 1326 1975 
Q 1069 1734 1069 1313 
Q 1069 891 1326 650 
Q 1584 409 2034 409 
Q 2484 409 2743 651 
Q 3003 894 3003 1313 
Q 3003 1734 2745 1975 
Q 2488 2216 2034 2216 
z
M 1403 2484 
Q 997 2584 770 2862 
Q 544 3141 544 3541 
Q 544 4100 942 4425 
Q 1341 4750 2034 4750 
Q 2731 4750 3128 4425 
Q 3525 4100 3525 3541 
Q 3525 3141 3298 2862 
Q 3072 2584 2669 2484 
Q 3125 2378 3379 2068 
Q 3634 1759 3634 1313 
Q 3634 634 3220 271 
Q 2806 -91 2034 -91 
Q 1263 -91 848 271 
Q 434 634 434 1313 
Q 434 1759 690 2068 
Q 947 2378 1403 2484 
z
M 1172 3481 
Q 1172 3119 1398 2916 
Q 1625 2713 2034 2713 
Q 2441 2713 2670 2916 
Q 2900 3119 2900 3481 
Q 2900 3844 2670 4047 
Q 2441 4250 2034 4250 
Q 1625 4250 1398 4047 
Q 1172 3844 1172 3481 
z
" transform="scale(0.015625)"/>
       </defs>
       <use xlink:href="#DejaVuSans-38"/>
       <use xlink:href="#DejaVuSans-30" x="63.623047"/>
      </g>
     </g>
    </g>
    <g id="xtick_6">
     <g id="line2d_6">
      <g>
       <use xlink:href="#m52283bf70c" x="527.613577" y="512.64" style="stroke: #000000; stroke-width: 0.8"/>
      </g>
     </g>
     <g id="text_6">
      <!-- 100 -->
      <g transform="translate(518.069827 527.238438)scale(0.1 -0.1)">
       <defs>
        <path id="DejaVuSans-31" d="M 794 531 
L 1825 531 
L 1825 4091 
L 703 3866 
L 703 4441 
L 1819 4666 
L 2450 4666 
L 2450 531 
L 3481 531 
L 3481 0 
L 794 0 
L 794 531 
z
" transform="scale(0.015625)"/>
       </defs>
       <use xlink:href="#DejaVuSans-31"/>
       <use xlink:href="#DejaVuSans-30" x="63.623047"/>
       <use xlink:href="#DejaVuSans-30" x="127.246094"/>
      </g>
     </g>
    </g>
    <g id="xtick_7">
     <g id="line2d_7">
      <g>
       <use xlink:href="#m52283bf70c" x="610.063565" y="512.64" style="stroke: #000000; stroke-width: 0.8"/>
      </g>
     </g>
     <g id="text_7">
      <!-- 120 -->
      <g transform="translate(600.519815 527.238438)scale(0.1 -0.1)">
       <use xlink:href="#DejaVuSans-31"/>
       <use xlink:href="#DejaVuSans-32" x="63.623047"/>
       <use xlink:href="#DejaVuSans-30" x="127.246094"/>
      </g>
     </g>
    </g>
    <g id="text_8">
     <!-- Energy (eV) -->
     <g transform="translate(339.50625 540.916563)scale(0.1 -0.1)">
      <defs>
       <path id="DejaVuSans-45" d="M 628 4666 
L 3578 4666 
L 3578 4134 
L 1259 4134 
L 1259 2753 
L 3481 2753 
L 3481 2222 
L 1259 2222 
L 1259 531 
L 3634 531 
L 3634 0 
L 628 0 
L 628 4666 
z
" transform="scale(0.015625)"/>
       <path id="DejaVuSans-6e" d="M 3513 2113 
L 3513 0 
L 2938 0 
L 2938 2094 
Q 2938 2591 2744 2837 
Q 2550 3084 2163 3084 
Q 1697 3084 1428 2787 
Q 1159 2491 1159 1978 
L 1159 0 
L 581 0 
L 581 3500 
L 1159 3500 
L 1159 2956 
Q 1366 3272 1645 3428 
Q 1925 3584 2291 3584 
Q 2894 3584 3203 3211 
Q 3513 2838 3513 2113 
z
" transform="scale(0.015625)"/>
       <path id="DejaVuSans-65" d="M 3597 1894 
L 3597 1613 
L 953 1613 
Q 991 1019 1311 708 
Q 1631 397 2203 397 
Q 2534 397 2845 478 
Q 3156 559 3463 722 
L 3463 178 
Q 3153 47 2828 -22 
Q 2503 -91 2169 -91 
Q 1331 -91 842 396 
Q 353 884 353 1716 
Q 353 2575 817 3079 
Q 1281 3584 2069 3584 
Q 2775 3584 3186 3129 
Q 3597 2675 3597 1894 
z
M 3022 2063 
Q 3016 2534 2758 2815 
Q 2500 3097 2075 3097 
Q 1594 3097 1305 2825 
Q 1016 2553 972 2059 
L 3022 2063 
z
" transform="scale(0.015625)"/>
       <path id="DejaVuSans-72" d="M 2631 2963 
Q 2534 3019 2420 3045 
Q 2306 3072 2169 3072 
Q 1681 3072 1420 2755 
Q 1159 2438 1159 1844 
L 1159 0 
L 581 0 
L 581 3500 
L 1159 3500 
L 1159 2956 
Q 1341 3275 1631 3429 
Q 1922 3584 2338 3584 
Q 2397 3584 2469 3576 
Q 2541 3569 2628 3553 
L 2631 2963 
z
" transform="scale(0.015625)"/>
       <path id="DejaVuSans-67" d="M 2906 1791 
Q 2906 2416 2648 2759 
Q 2391 3103 1925 3103 
Q 1463 3103 1205 2759 
Q 947 2416 947 1791 
Q 947 1169 1205 825 
Q 1463 481 1925 481 
Q 2391 481 2648 825 
Q 2906 1169 2906 1791 
z
M 3481 434 
Q 3481 -459 3084 -895 
Q 2688 -1331 1869 -1331 
Q 1566 -1331 1297 -1286 
Q 1028 -1241 775 -1147 
L 775 -588 
Q 1028 -725 1275 -790 
Q 1522 -856 1778 -856 
Q 2344 -856 2625 -561 
Q 2906 -266 2906 331 
L 2906 616 
Q 2728 306 2450 153 
Q 2172 0 1784 0 
Q 1141 0 747 490 
Q 353 981 353 1791 
Q 353 2603 747 3093 
Q 1141 3584 1784 3584 
Q 2172 3584 2450 3431 
Q 2728 3278 2906 2969 
L 2906 3500 
L 3481 3500 
L 3481 434 
z
" transform="scale(0.015625)"/>
       <path id="DejaVuSans-79" d="M 2059 -325 
Q 1816 -950 1584 -1140 
Q 1353 -1331 966 -1331 
L 506 -1331 
L 506 -850 
L 844 -850 
Q 1081 -850 1212 -737 
Q 1344 -625 1503 -206 
L 1606 56 
L 191 3500 
L 800 3500 
L 1894 763 
L 2988 3500 
L 3597 3500 
L 2059 -325 
z
" transform="scale(0.015625)"/>
       <path id="DejaVuSans-20" transform="scale(0.015625)"/>
       <path id="DejaVuSans-28" d="M 1984 4856 
Q 1566 4138 1362 3434 
Q 1159 2731 1159 2009 
Q 1159 1288 1364 580 
Q 1569 -128 1984 -844 
L 1484 -844 
Q 1016 -109 783 600 
Q 550 1309 550 2009 
Q 550 2706 781 3412 
Q 1013 4119 1484 4856 
L 1984 4856 
z
" transform="scale(0.015625)"/>
       <path id="DejaVuSans-56" d="M 1831 0 
L 50 4666 
L 709 4666 
L 2188 738 
L 3669 4666 
L 4325 4666 
L 2547 0 
L 1831 0 
z
" transform="scale(0.015625)"/>
       <path id="DejaVuSans-29" d="M 513 4856 
L 1013 4856 
Q 1481 4119 1714 3412 
Q 1947 2706 1947 2009 
Q 1947 1309 1714 600 
Q 1481 -109 1013 -844 
L 513 -844 
Q 928 -128 1133 580 
Q 1338 1288 1338 2009 
Q 1338 2731 1133 3434 
Q 928 4138 513 4856 
z
" transform="scale(0.015625)"/>
      </defs>
      <use xlink:href="#DejaVuSans-45"/>
      <use xlink:href="#DejaVuSans-6e" x="63.183594"/>
      <use xlink:href="#DejaVuSans-65" x="126.5625"/>
      <use xlink:href="#DejaVuSans-72" x="188.085938"/>
      <use xlink:href="#DejaVuSans-67" x="227.449219"/>
      <use xlink:href="#DejaVuSans-79" x="290.925781"/>
      <use xlink:href="#DejaVuSans-20" x="350.105469"/>
      <use xlink:href="#DejaVuSans-28" x="381.892578"/>
      <use xlink:href="#DejaVuSans-65" x="420.90625"/>
      <use xlink:href="#DejaVuSans-56" x="482.429688"/>
      <use xlink:href="#DejaVuSans-29" x="550.837891"/>
     </g>
    </g>
   </g>
   <g id="matplotlib.axis_2">
    <g id="ytick_1">
     <g id="line2d_8">
      <defs>
       <path id="m387b25dbfa" d="M 0 0 
L -3.5 0 
" style="stroke: #000000; stroke-width: 0.8"/>
      </defs>
      <g>
       <use xlink:href="#m387b25dbfa" x="90" y="492.622871" style="stroke: #000000; stroke-width: 0.8"/>
      </g>
     </g>
     <g id="text_9">
      <!-- 0.0 -->
      <g transform="translate(67.096875 496.42209)scale(0.1 -0.1)">
       <defs>
        <path id="DejaVuSans-2e" d="M 684 794 
L 1344 794 
L 1344 0 
L 684 0 
L 684 794 
z
" transform="scale(0.015625)"/>
       </defs>
       <use xlink:href="#DejaVuSans-30"/>
       <use xlink:href="#DejaVuSans-2e" x="63.623047"/>
       <use xlink:href="#DejaVuSans-30" x="95.410156"/>
      </g>
     </g>
    </g>
    <g id="ytick_2">
     <g id="line2d_9">
      <g>
       <use xlink:href="#m387b25dbfa" x="90" y="437.367214" style="stroke: #000000; stroke-width: 0.8"/>
      </g>
     </g>
     <g id="text_10">
      <!-- 0.1 -->
      <g transform="translate(67.096875 441.166433)scale(0.1 -0.1)">
       <use xlink:href="#DejaVuSans-30"/>
       <use xlink:href="#DejaVuSans-2e" x="63.623047"/>
       <use xlink:href="#DejaVuSans-31" x="95.410156"/>
      </g>
     </g>
    </g>
    <g id="ytick_3">
     <g id="line2d_10">
      <g>
       <use xlink:href="#m387b25dbfa" x="90" y="382.111556" style="stroke: #000000; stroke-width: 0.8"/>
      </g>
     </g>
     <g id="text_11">
      <!-- 0.2 -->
      <g transform="translate(67.096875 385.910775)scale(0.1 -0.1)">
       <use xlink:href="#DejaVuSans-30"/>
       <use xlink:href="#DejaVuSans-2e" x="63.623047"/>
       <use xlink:href="#DejaVuSans-32" x="95.410156"/>
      </g>
     </g>
    </g>
    <g id="ytick_4">
     <g id="line2d_11">
      <g>
       <use xlink:href="#m387b25dbfa" x="90" y="326.855899" style="stroke: #000000; stroke-width: 0.8"/>
      </g>
     </g>
     <g id="text_12">
      <!-- 0.3 -->
      <g transform="translate(67.096875 330.655118)scale(0.1 -0.1)">
       <defs>
        <path id="DejaVuSans-33" d="M 2597 2516 
Q 3050 2419 3304 2112 
Q 3559 1806 3559 1356 
Q 3559 666 3084 287 
Q 2609 -91 1734 -91 
Q 1441 -91 1130 -33 
Q 819 25 488 141 
L 488 750 
Q 750 597 1062 519 
Q 1375 441 1716 441 
Q 2309 441 2620 675 
Q 2931 909 2931 1356 
Q 2931 1769 2642 2001 
Q 2353 2234 1838 2234 
L 1294 2234 
L 1294 2753 
L 1863 2753 
Q 2328 2753 2575 2939 
Q 2822 3125 2822 3475 
Q 2822 3834 2567 4026 
Q 2313 4219 1838 4219 
Q 1578 4219 1281 4162 
Q 984 4106 628 3988 
L 628 4550 
Q 988 4650 1302 4700 
Q 1616 4750 1894 4750 
Q 2613 4750 3031 4423 
Q 3450 4097 3450 3541 
Q 3450 3153 3228 2886 
Q 3006 2619 2597 2516 
z
" transform="scale(0.015625)"/>
       </defs>
       <use xlink:href="#DejaVuSans-30"/>
       <use xlink:href="#DejaVuSans-2e" x="63.623047"/>
       <use xlink:href="#DejaVuSans-33" x="95.410156"/>
      </g>
     </g>
    </g>
    <g id="ytick_5">
     <g id="line2d_12">
      <g>
       <use xlink:href="#m387b25dbfa" x="90" y="271.600241" style="stroke: #000000; stroke-width: 0.8"/>
      </g>
     </g>
     <g id="text_13">
      <!-- 0.4 -->
      <g transform="translate(67.096875 275.39946)scale(0.1 -0.1)">
       <use xlink:href="#DejaVuSans-30"/>
       <use xlink:href="#DejaVuSans-2e" x="63.623047"/>
       <use xlink:href="#DejaVuSans-34" x="95.410156"/>
      </g>
     </g>
    </g>
    <g id="ytick_6">
     <g id="line2d_13">
      <g>
       <use xlink:href="#m387b25dbfa" x="90" y="216.344584" style="stroke: #000000; stroke-width: 0.8"/>
      </g>
     </g>
     <g id="text_14">
      <!-- 0.5 -->
      <g transform="translate(67.096875 220.143803)scale(0.1 -0.1)">
       <defs>
        <path id="DejaVuSans-35" d="M 691 4666 
L 3169 4666 
L 3169 4134 
L 1269 4134 
L 1269 2991 
Q 1406 3038 1543 3061 
Q 1681 3084 1819 3084 
Q 2600 3084 3056 2656 
Q 3513 2228 3513 1497 
Q 3513 744 3044 326 
Q 2575 -91 1722 -91 
Q 1428 -91 1123 -41 
Q 819 9 494 109 
L 494 744 
Q 775 591 1075 516 
Q 1375 441 1709 441 
Q 2250 441 2565 725 
Q 2881 1009 2881 1497 
Q 2881 1984 2565 2268 
Q 2250 2553 1709 2553 
Q 1456 2553 1204 2497 
Q 953 2441 691 2322 
L 691 4666 
z
" transform="scale(0.015625)"/>
       </defs>
       <use xlink:href="#DejaVuSans-30"/>
       <use xlink:href="#DejaVuSans-2e" x="63.623047"/>
       <use xlink:href="#DejaVuSans-35" x="95.410156"/>
      </g>
     </g>
    </g>
    <g id="ytick_7">
     <g id="line2d_14">
      <g>
       <use xlink:href="#m387b25dbfa" x="90" y="161.088926" style="stroke: #000000; stroke-width: 0.8"/>
      </g>
     </g>
     <g id="text_15">
      <!-- 0.6 -->
      <g transform="translate(67.096875 164.888145)scale(0.1 -0.1)">
       <use xlink:href="#DejaVuSans-30"/>
       <use xlink:href="#DejaVuSans-2e" x="63.623047"/>
       <use xlink:href="#DejaVuSans-36" x="95.410156"/>
      </g>
     </g>
    </g>
    <g id="ytick_8">
     <g id="line2d_15">
      <g>
       <use xlink:href="#m387b25dbfa" x="90" y="105.833269" style="stroke: #000000; stroke-width: 0.8"/>
      </g>
     </g>
     <g id="text_16">
      <!-- 0.7 -->
      <g transform="translate(67.096875 109.632488)scale(0.1 -0.1)">
       <defs>
        <path id="DejaVuSans-37" d="M 525 4666 
L 3525 4666 
L 3525 4397 
L 1831 0 
L 1172 0 
L 2766 4134 
L 525 4134 
L 525 4666 
z
" transform="scale(0.015625)"/>
       </defs>
       <use xlink:href="#DejaVuSans-30"/>
       <use xlink:href="#DejaVuSans-2e" x="63.623047"/>
       <use xlink:href="#DejaVuSans-37" x="95.410156"/>
      </g>
     </g>
    </g>
    <g id="text_17">
     <!-- Reflectivity R -->
     <g transform="translate(61.017187 323.86125)rotate(-90)scale(0.1 -0.1)">
      <defs>
       <path id="DejaVuSans-52" d="M 2841 2188 
Q 3044 2119 3236 1894 
Q 3428 1669 3622 1275 
L 4263 0 
L 3584 0 
L 2988 1197 
Q 2756 1666 2539 1819 
Q 2322 1972 1947 1972 
L 1259 1972 
L 1259 0 
L 628 0 
L 628 4666 
L 2053 4666 
Q 2853 4666 3247 4331 
Q 3641 3997 3641 3322 
Q 3641 2881 3436 2590 
Q 3231 2300 2841 2188 
z
M 1259 4147 
L 1259 2491 
L 2053 2491 
Q 2509 2491 2742 2702 
Q 2975 2913 2975 3322 
Q 2975 3731 2742 3939 
Q 2509 4147 2053 4147 
L 1259 4147 
z
" transform="scale(0.015625)"/>
       <path id="DejaVuSans-66" d="M 2375 4863 
L 2375 4384 
L 1825 4384 
Q 1516 4384 1395 4259 
Q 1275 4134 1275 3809 
L 1275 3500 
L 2222 3500 
L 2222 3053 
L 1275 3053 
L 1275 0 
L 697 0 
L 697 3053 
L 147 3053 
L 147 3500 
L 697 3500 
L 697 3744 
Q 697 4328 969 4595 
Q 1241 4863 1831 4863 
L 2375 4863 
z
" transform="scale(0.015625)"/>
       <path id="DejaVuSans-6c" d="M 603 4863 
L 1178 4863 
L 1178 0 
L 603 0 
L 603 4863 
z
" transform="scale(0.015625)"/>
       <path id="DejaVuSans-63" d="M 3122 3366 
L 3122 2828 
Q 2878 2963 2633 3030 
Q 2388 3097 2138 3097 
Q 1578 3097 1268 2742 
Q 959 2388 959 1747 
Q 959 1106 1268 751 
Q 1578 397 2138 397 
Q 2388 397 2633 464 
Q 2878 531 3122 666 
L 3122 134 
Q 2881 22 2623 -34 
Q 2366 -91 2075 -91 
Q 1284 -91 818 406 
Q 353 903 353 1747 
Q 353 2603 823 3093 
Q 1294 3584 2113 3584 
Q 2378 3584 2631 3529 
Q 2884 3475 3122 3366 
z
" transform="scale(0.015625)"/>
       <path id="DejaVuSans-74" d="M 1172 4494 
L 1172 3500 
L 2356 3500 
L 2356 3053 
L 1172 3053 
L 1172 1153 
Q 1172 725 1289 603 
Q 1406 481 1766 481 
L 2356 481 
L 2356 0 
L 1766 0 
Q 1100 0 847 248 
Q 594 497 594 1153 
L 594 3053 
L 172 3053 
L 172 3500 
L 594 3500 
L 594 4494 
L 1172 4494 
z
" transform="scale(0.015625)"/>
       <path id="DejaVuSans-69" d="M 603 3500 
L 1178 3500 
L 1178 0 
L 603 0 
L 603 3500 
z
M 603 4863 
L 1178 4863 
L 1178 4134 
L 603 4134 
L 603 4863 
z
" transform="scale(0.015625)"/>
       <path id="DejaVuSans-76" d="M 191 3500 
L 800 3500 
L 1894 563 
L 2988 3500 
L 3597 3500 
L 2284 0 
L 1503 0 
L 191 3500 
z
" transform="scale(0.015625)"/>
      </defs>
      <use xlink:href="#DejaVuSans-52"/>
      <use xlink:href="#DejaVuSans-65" x="64.982422"/>
      <use xlink:href="#DejaVuSans-66" x="126.505859"/>
      <use xlink:href="#DejaVuSans-6c" x="161.710938"/>
      <use xlink:href="#DejaVuSans-65" x="189.494141"/>
      <use xlink:href="#DejaVuSans-63" x="251.017578"/>
      <use xlink:href="#DejaVuSans-74" x="305.998047"/>
      <use xlink:href="#DejaVuSans-69" x="345.207031"/>
      <use xlink:href="#DejaVuSans-76" x="372.990234"/>
      <use xlink:href="#DejaVuSans-69" x="432.169922"/>
      <use xlink:href="#DejaVuSans-74" x="459.953125"/>
      <use xlink:href="#DejaVuSans-79" x="499.162109"/>
      <use xlink:href="#DejaVuSans-20" x="558.341797"/>
      <use xlink:href="#DejaVuSans-52" x="590.128906"/>
     </g>
    </g>
   </g>
   <g id="line2d_16">
    <path d="M 115.363636 126.851427 
L 115.61717 132.433254 
L 116.378183 187.607034 
L 116.885251 199.922453 
L 117.139197 203.90296 
L 117.392731 201.692414 
L 117.899798 191.617942 
L 118.153744 188.527007 
L 118.407278 186.960592 
L 118.660811 187.542401 
L 118.914345 187.671069 
L 119.168291 184.665957 
L 119.675358 176.766244 
L 119.928892 179.480794 
L 120.689906 216.044772 
L 120.943439 211.429588 
L 122.211932 143.678537 
L 122.465466 139.816139 
L 122.719 140.041549 
L 122.972534 149.226111 
L 123.480013 176.879849 
L 123.733547 184.482265 
L 124.241027 211.851039 
L 125.001628 242.860404 
L 125.255574 254.396846 
L 125.509107 258.665881 
L 125.762641 251.238487 
L 126.270121 232.394081 
L 126.523655 233.83668 
L 126.777188 241.654709 
L 127.030722 256.0982 
L 127.791735 318.113896 
L 128.552749 352.79922 
L 128.806282 354.213411 
L 129.059816 358.472313 
L 129.567296 379.119474 
L 129.82083 380.506534 
L 130.074363 378.566851 
L 130.328309 374.742236 
L 130.835377 352.14475 
L 131.08891 339.696087 
L 131.342856 333.985409 
L 131.59639 338.47628 
L 132.610937 403.860537 
L 132.864471 410.67225 
L 133.118005 414.369527 
L 133.371951 415.744062 
L 133.625484 414.55974 
L 133.879018 412.272614 
L 134.132552 406.325359 
L 134.640031 388.526064 
L 134.893565 385.633806 
L 135.147099 387.045284 
L 135.401045 387.751452 
L 135.654578 385.899647 
L 135.908112 381.756738 
L 136.415592 371.440816 
L 136.669126 371.208742 
L 136.922659 372.120842 
L 137.176193 371.014447 
L 137.430139 372.592471 
L 137.937206 394.462108 
L 138.19074 398.322378 
L 138.444686 394.580001 
L 139.205287 371.121764 
L 139.459233 369.079233 
L 140.219834 379.635893 
L 140.47378 378.912503 
L 141.741861 360.306713 
L 141.995395 361.412931 
L 142.502874 373.152807 
L 142.756408 373.891542 
L 143.263476 365.221537 
L 143.517422 365.607321 
L 144.024489 374.952948 
L 144.278023 373.87811 
L 145.29257 357.226779 
L 145.546516 357.350844 
L 145.800049 358.410095 
L 146.053583 360.120424 
L 146.307117 363.335065 
L 147.06813 383.150037 
L 147.829144 361.505307 
L 148.082677 360.212491 
L 148.843691 345.389807 
L 149.097224 346.670406 
L 149.350758 349.858183 
L 149.858238 363.279716 
L 150.872785 396.349403 
L 151.126319 399.450704 
L 151.633798 412.913651 
L 152.140866 428.084186 
L 152.648345 436.514393 
L 152.901879 439.035205 
L 153.155413 438.311376 
L 153.662893 434.519553 
L 153.916426 432.879543 
L 154.423494 426.654899 
L 154.67744 425.631288 
L 154.930973 426.118389 
L 155.184507 427.255434 
L 155.945521 432.584063 
L 156.199054 433.549661 
L 156.452588 432.488874 
L 156.960068 428.822882 
L 157.213601 428.618541 
L 157.467135 429.037998 
L 157.721081 431.18899 
L 158.228148 438.913759 
L 158.481682 441.284489 
L 158.735628 442.09318 
L 159.242696 441.473876 
L 159.496229 442.014545 
L 160.003709 448.061131 
L 160.257243 450.882134 
L 160.510776 452.429195 
L 160.764722 452.737588 
L 161.018256 451.180894 
L 161.525323 442.26622 
L 162.286337 423.544044 
L 162.539871 424.105143 
L 163.04735 429.068444 
L 163.300884 433.701432 
L 163.808364 449.116479 
L 164.315431 457.163609 
L 164.568965 458.639171 
L 164.822911 459.054197 
L 165.076444 458.672078 
L 165.329978 456.867077 
L 165.837458 451.152895 
L 166.090992 449.869554 
L 166.598059 449.131235 
L 166.852005 449.384063 
L 167.105539 450.572977 
L 167.359072 450.918747 
L 167.612606 449.845227 
L 167.866552 449.71208 
L 168.120086 451.243015 
L 168.373619 451.265182 
L 168.627153 446.708408 
L 169.388167 421.93175 
L 170.14918 407.376576 
L 170.402714 405.043925 
L 170.910193 407.84989 
L 171.163727 407.806548 
L 171.417261 408.061492 
L 171.670794 407.324846 
L 171.92474 405.097634 
L 172.939288 385.013959 
L 173.192821 387.040643 
L 173.699889 399.445798 
L 174.207368 409.961491 
L 174.968382 414.220956 
L 175.982929 427.138944 
L 176.236463 427.665177 
L 176.489996 428.744232 
L 178.772624 442.867013 
L 179.02657 443.014562 
L 179.280104 442.043085 
L 179.533638 439.864197 
L 179.787171 435.302459 
L 180.801718 409.982129 
L 181.055664 408.452426 
L 181.309198 413.28445 
L 182.323745 441.004679 
L 182.577279 443.46145 
L 182.830813 443.280088 
L 183.084759 444.544155 
L 184.352839 467.375772 
L 184.606373 468.720543 
L 184.859907 468.663803 
L 185.367387 465.363387 
L 185.62092 465.908167 
L 186.381934 473.046369 
L 186.635467 473.685354 
L 186.889001 473.348733 
L 187.396481 471.366722 
L 187.903548 468.682992 
L 188.411028 461.241598 
L 188.918095 453.773551 
L 189.679109 446.350206 
L 190.440122 436.478703 
L 190.693656 434.977296 
L 190.947189 434.593794 
L 191.200723 435.576361 
L 191.454669 437.786553 
L 191.708203 438.781084 
L 191.961737 437.847471 
L 192.72275 432.913879 
L 193.229817 429.934704 
L 193.483763 427.245588 
L 193.990831 419.148352 
L 194.244364 417.879041 
L 194.49831 417.322865 
L 194.751844 415.420142 
L 195.512858 402.118879 
L 195.766391 401.069855 
L 196.273459 404.246862 
L 196.527405 404.340394 
L 196.780938 402.536628 
L 197.034472 399.850225 
L 197.288006 399.949597 
L 198.302553 417.724634 
L 198.810033 420.345471 
L 199.063566 420.563565 
L 199.3171 421.579291 
L 199.571046 425.258086 
L 200.078113 435.619041 
L 200.331647 438.868888 
L 200.585593 440.244141 
L 200.839127 440.889644 
L 201.09266 440.791495 
L 201.346194 439.796507 
L 201.60014 438.066489 
L 202.107208 433.887251 
L 202.360741 434.517608 
L 203.121755 440.407727 
L 203.375288 440.837251 
L 203.629234 441.741389 
L 204.136302 444.664446 
L 204.643781 448.778722 
L 205.404383 457.446766 
L 205.911862 459.791531 
L 206.165396 460.051068 
L 206.926409 454.657137 
L 207.179943 452.575601 
L 207.687423 445.008738 
L 209.462571 404.952046 
L 209.716517 403.96823 
L 209.970051 406.804072 
L 210.731064 425.877353 
L 210.984598 426.966348 
L 211.238132 426.545178 
L 211.491665 427.109416 
L 211.999145 430.531332 
L 212.252679 432.274825 
L 212.506212 431.743083 
L 213.013692 428.117146 
L 213.267226 427.192183 
L 213.520759 425.482346 
L 214.281773 418.153225 
L 215.042786 414.109041 
L 215.549854 405.081615 
L 215.8038 400.431244 
L 216.057333 398.346138 
L 216.310867 398.240937 
L 216.564401 398.594562 
L 216.818347 399.183477 
L 217.07188 400.088288 
L 217.325414 401.64205 
L 218.339961 410.268309 
L 218.847441 411.823861 
L 219.100975 413.905043 
L 221.637136 449.898114 
L 222.651683 463.910376 
L 223.412697 470.958756 
L 224.17371 475.593387 
L 224.427244 476.660219 
L 224.680778 476.330829 
L 226.202804 465.883032 
L 226.963818 456.549036 
L 227.217351 455.872293 
L 227.470885 456.660922 
L 227.978365 460.7803 
L 228.231899 461.449441 
L 228.992912 461.591679 
L 229.246446 461.744602 
L 229.499979 462.066023 
L 229.753513 462.6659 
L 230.007459 463.598832 
L 230.260993 463.921479 
L 230.514526 462.72078 
L 231.022006 456.681756 
L 231.529074 451.003153 
L 231.782607 449.41782 
L 232.036553 449.228217 
L 232.543621 451.480274 
L 232.797154 450.50286 
L 233.304634 446.634536 
L 233.558168 445.902605 
L 233.811702 444.703372 
L 234.065647 442.264673 
L 235.080195 426.598146 
L 235.333728 421.938552 
L 235.587262 420.200359 
L 235.840796 422.766216 
L 236.855343 437.423454 
L 237.109289 439.168295 
L 237.362823 439.30281 
L 237.616356 439.005377 
L 237.86989 439.163779 
L 238.123836 440.577898 
L 238.630903 445.594039 
L 239.391917 456.075958 
L 239.64545 457.414298 
L 239.898984 457.967223 
L 240.659998 460.960617 
L 242.182024 465.153685 
L 242.689092 466.957314 
L 243.450105 468.515333 
L 244.211119 471.796464 
L 245.986267 480.913985 
L 246.240213 481.755791 
L 246.493746 482.139165 
L 246.74728 481.993017 
L 247.508294 480.12806 
L 248.015361 479.223621 
L 248.522841 478.163831 
L 248.776374 478.071291 
L 249.029908 478.516503 
L 249.790921 480.75701 
L 250.298401 481.778874 
L 250.551935 481.97206 
L 251.059002 482.007526 
L 251.312948 481.779188 
L 251.820016 481.055634 
L 252.073549 481.196734 
L 253.342042 483.031959 
L 254.102644 484.996644 
L 254.863657 486.459178 
L 255.117191 486.672567 
L 255.371137 486.703489 
L 255.878204 486.422407 
L 256.131738 486.449129 
L 256.639217 486.793401 
L 257.146285 486.834252 
L 258.160832 487.8791 
L 258.414778 487.791284 
L 258.921845 487.409899 
L 259.175379 487.28358 
L 259.429325 486.911423 
L 260.189926 485.103091 
L 260.697406 484.644431 
L 261.204473 484.653935 
L 261.458419 484.299569 
L 261.711953 483.20624 
L 262.472554 478.643237 
L 262.7265 478.020665 
L 262.980034 478.264923 
L 264.248115 482.407189 
L 264.755594 483.047468 
L 265.009128 483.277569 
L 265.262662 483.297894 
L 265.516195 482.870357 
L 266.277209 480.751737 
L 266.530743 480.646376 
L 267.038222 482.033772 
L 267.54529 483.302065 
L 268.052769 483.888425 
L 269.067316 485.460236 
L 269.32085 485.468757 
L 270.335397 484.551664 
L 270.842877 483.045587 
L 271.603478 480.664496 
L 271.857424 480.192462 
L 272.110958 479.403659 
L 272.618025 476.681228 
L 273.632572 471.072985 
L 273.886518 470.763821 
L 274.140052 470.007796 
L 274.647119 468.232755 
L 274.901065 468.895848 
L 275.408133 473.708029 
L 275.915612 478.409684 
L 276.42268 481.227129 
L 276.93016 483.278037 
L 277.437227 484.297382 
L 277.690761 484.59683 
L 277.944707 484.485582 
L 278.19824 483.837771 
L 278.705308 481.613909 
L 279.212787 477.946388 
L 279.719855 473.792677 
L 279.973801 472.807046 
L 280.227335 472.596387 
L 280.480868 472.914543 
L 280.734402 473.8948 
L 282.002895 480.978632 
L 282.256429 481.330265 
L 282.509962 481.077465 
L 283.017442 479.62002 
L 283.52451 477.31296 
L 283.778043 476.877414 
L 284.79259 476.44735 
L 285.046536 476.866543 
L 285.553604 478.292484 
L 285.807138 478.669949 
L 286.314617 478.952651 
L 286.821685 480.153859 
L 287.329164 481.283421 
L 287.582698 481.588322 
L 287.836232 481.555436 
L 288.090178 481.39964 
L 288.343711 481.500794 
L 288.850779 482.00136 
L 289.358258 481.631944 
L 289.611792 481.676027 
L 290.119272 482.157594 
L 290.626339 482.853077 
L 291.133819 483.081616 
L 291.387353 483.088691 
L 291.640886 483.356619 
L 292.148366 484.105911 
L 292.655434 484.066107 
L 292.908967 483.816586 
L 293.416447 482.793136 
L 293.669981 482.032133 
L 294.17746 478.317367 
L 295.192007 470.487897 
L 295.445541 469.254979 
L 295.699075 468.632863 
L 295.952609 469.141478 
L 296.460088 471.567356 
L 296.967156 474.705149 
L 297.221102 475.328579 
L 297.981703 476.234713 
L 298.489182 477.271892 
L 298.742716 477.345098 
L 298.99625 476.857768 
L 299.250196 476.094373 
L 299.50373 475.835495 
L 299.757263 476.106092 
L 300.264743 477.099731 
L 301.532824 480.982238 
L 302.293837 482.038868 
L 302.547371 482.155647 
L 302.800905 482.125046 
L 303.308384 481.771282 
L 303.815452 480.7371 
L 304.068985 480.257758 
L 304.322931 480.120662 
L 304.829999 480.312361 
L 305.083532 480.274327 
L 305.591012 479.597901 
L 305.844546 479.250357 
L 306.09808 479.279915 
L 306.605559 479.809878 
L 307.112627 479.997875 
L 307.620106 480.459535 
L 308.38112 481.619918 
L 309.141721 481.167288 
L 309.395667 480.854303 
L 310.156268 479.189835 
L 310.410214 479.094026 
L 311.170815 479.564065 
L 311.678295 479.551331 
L 311.931828 479.834006 
L 312.692842 481.294756 
L 313.199909 482.22301 
L 313.707389 483.405142 
L 315.736483 485.449807 
L 315.990017 485.58761 
L 316.243551 485.510701 
L 316.75103 485.057539 
L 317.258098 485.081901 
L 318.019111 484.316113 
L 318.272645 483.64414 
L 318.780124 480.418522 
L 319.287192 477.664373 
L 319.541138 477.034524 
L 320.048205 476.611541 
L 320.301739 476.45944 
L 320.555685 476.521633 
L 321.062752 476.928288 
L 321.316286 477.062189 
L 321.570232 476.992937 
L 321.823766 476.761819 
L 322.0773 476.771343 
L 322.330833 477.325481 
L 322.838313 478.881577 
L 323.85286 480.957129 
L 324.106394 481.207931 
L 324.359927 481.265366 
L 324.867407 481.115931 
L 325.881954 481.908815 
L 326.389022 481.911602 
L 326.642968 482.074679 
L 327.657515 483.635461 
L 328.672062 484.326222 
L 329.686609 484.606808 
L 330.44721 485.041352 
L 330.701156 485.075467 
L 331.208223 484.904327 
L 331.461757 484.994966 
L 332.222771 485.728844 
L 332.476304 485.751074 
L 333.744797 484.890407 
L 334.251865 484.604085 
L 334.758932 484.287986 
L 335.519946 484.42879 
L 336.534493 483.794274 
L 338.056519 484.349787 
L 338.817121 485.026632 
L 339.578134 485.330103 
L 340.085614 485.279135 
L 340.339147 485.252886 
L 341.353694 485.789905 
L 341.860762 485.602828 
L 342.368242 485.711756 
L 345.158349 487.351439 
L 345.665417 487.516106 
L 346.679964 487.543013 
L 348.709058 488.05662 
L 349.977139 488.33186 
L 351.245632 488.221009 
L 352.006233 488.416136 
L 352.767246 488.486351 
L 353.781793 488.362741 
L 354.542807 488.487028 
L 355.810888 489.113976 
L 356.825435 489.17534 
L 357.839982 489.04855 
L 358.347462 488.80299 
L 359.869076 487.753452 
L 360.376556 487.785771 
L 361.137157 487.956588 
L 363.166251 488.746366 
L 363.673731 488.595689 
L 364.180798 488.296294 
L 364.941812 487.784945 
L 365.956359 487.374722 
L 366.970906 487.526279 
L 367.731919 487.564829 
L 368.492933 487.884677 
L 369 488.241465 
L 369.50748 488.249935 
L 370.014547 488.23534 
L 370.77556 488.605615 
L 371.282628 488.805231 
L 372.297175 488.907076 
L 374.580215 489.600163 
L 375.848296 489.785957 
L 377.116377 489.881241 
L 377.87739 489.89184 
L 378.384458 489.952236 
L 379.906484 489.332855 
L 380.413552 488.975627 
L 381.428099 488.669419 
L 382.442646 488.996493 
L 383.711139 488.998386 
L 384.47174 489.233994 
L 385.232754 489.287506 
L 385.740233 489.096326 
L 386.500834 488.617238 
L 387.008314 488.519287 
L 387.769328 488.636633 
L 388.529929 488.822554 
L 389.037408 488.849042 
L 389.798422 488.970717 
L 391.827516 488.610968 
L 393.34913 488.796751 
L 395.631758 488.924422 
L 396.900251 489.041249 
L 398.168332 489.11454 
L 399.182879 489.325226 
L 400.45096 489.568458 
L 401.211974 489.620842 
L 402.226521 489.672075 
L 404.002081 489.990746 
L 405.523696 489.980881 
L 407.806324 490.317868 
L 409.581884 490.321304 
L 413.640073 489.93061 
L 415.9227 490.169131 
L 418.712808 490.136978 
L 419.727355 490.298554 
L 421.756449 490.321931 
L 430.12636 490.42361 
L 431.394441 490.428051 
L 432.916468 490.594143 
L 435.452629 490.674984 
L 436.467176 490.719953 
L 437.735669 490.734591 
L 439.510818 490.77466 
L 447.120127 491.025784 
L 449.149221 491.035393 
L 452.192862 491.102447 
L 455.490038 491.21189 
L 477.55654 491.645871 
L 482.882809 491.733011 
L 509.514568 492.052754 
L 622.636364 492.48 
L 622.636364 492.48 
" clip-path="url(#p77543cd33b)" style="fill: none; stroke: #8fbc8f; stroke-width: 1.5; stroke-linecap: square"/>
   </g>
   <g id="line2d_17">
    <path d="M 115.363636 89.28 
L 115.585427 91.153239 
L 116.02942 103.984431 
L 116.251623 116.658957 
L 117.139197 199.4194 
L 117.3614 208.352411 
L 117.58319 205.711616 
L 118.027183 192.036725 
L 118.248974 193.470035 
L 118.692967 204.60805 
L 118.914757 207.430808 
L 119.13696 203.053333 
L 119.802744 168.108522 
L 120.468527 133.42953 
L 120.690318 128.560109 
L 120.912521 129.536288 
L 121.356514 142.563235 
L 121.800095 153.183643 
L 122.022297 157.199718 
L 122.244088 165.651939 
L 122.688081 201.947601 
L 123.353865 284.485767 
L 123.575655 296.817968 
L 123.797858 296.915184 
L 124.019648 296.501408 
L 124.241851 301.104094 
L 124.463642 301.221738 
L 124.907635 288.655574 
L 125.129425 289.237311 
L 125.795209 305.002739 
L 126.239202 301.204206 
L 126.904986 309.036027 
L 127.127188 314.405644 
L 127.792972 348.668086 
L 128.458756 361.650138 
L 128.902749 383.709893 
L 129.124539 382.328148 
L 129.346742 378.280958 
L 129.568533 378.536057 
L 130.234316 401.144207 
L 130.678309 394.733148 
L 130.9001 396.30074 
L 131.122303 398.746532 
L 131.344093 396.75766 
L 131.788086 390.031239 
L 132.45387 381.361931 
L 132.67566 381.514154 
L 132.897863 379.473894 
L 133.341856 370.621888 
L 133.563647 372.96606 
L 134.00764 384.635823 
L 134.22943 387.446855 
L 134.451633 385.758518 
L 134.673424 381.334656 
L 135.560998 351.875965 
L 136.670775 310.224344 
L 136.892977 318.940824 
L 137.33697 354.045948 
L 137.558761 361.771557 
L 137.780551 363.905265 
L 138.224545 359.649435 
L 138.446747 364.485145 
L 139.112531 402.735178 
L 139.334321 406.615087 
L 139.556112 404.093517 
L 140.444098 372.410182 
L 140.665889 371.181252 
L 140.888091 372.584735 
L 141.109882 371.510134 
L 141.775666 353.71658 
L 142.219659 367.281695 
L 142.663652 373.844354 
L 143.107645 382.538296 
L 143.329436 380.793538 
L 143.995219 367.763165 
L 144.217422 367.460966 
L 144.439212 370.881573 
L 144.883206 382.789903 
L 145.104996 381.499755 
L 145.548989 354.883442 
L 146.214773 320.266292 
L 146.436976 311.86347 
L 146.658766 307.984351 
L 146.880557 308.224404 
L 147.102759 309.735282 
L 147.32455 312.812734 
L 147.546752 320.728632 
L 147.990333 345.758848 
L 148.212536 349.782482 
L 148.434327 343.725401 
L 148.87832 326.245689 
L 149.10011 323.352447 
L 149.322313 327.571753 
L 150.209887 377.361907 
L 150.875671 394.899412 
L 151.319664 416.576604 
L 151.763657 420.321031 
L 152.873434 442.877742 
L 153.095224 441.36765 
L 153.317427 435.36812 
L 153.761008 417.157197 
L 153.983211 413.6397 
L 154.205001 414.514027 
L 154.427204 416.492864 
L 154.648994 419.727188 
L 155.092988 430.098349 
L 155.314778 432.165104 
L 155.758771 430.570917 
L 156.202764 430.815899 
L 156.424555 430.058454 
L 156.868548 426.673283 
L 157.090339 425.827711 
L 157.312541 425.841359 
L 157.534332 428.37913 
L 158.200115 443.40654 
L 158.865899 451.199084 
L 159.088102 452.015702 
L 159.309892 450.845008 
L 159.753885 447.085793 
L 159.975676 446.222853 
L 160.197879 446.176474 
L 160.863662 452.5461 
L 161.085453 450.839739 
L 161.529446 445.591616 
L 161.751236 443.663769 
L 161.973439 440.186179 
L 162.417432 424.745114 
L 163.083216 402.227798 
L 163.305006 400.896894 
L 163.527209 404.936823 
L 164.636986 446.035491 
L 165.080567 453.494204 
L 165.30277 455.258785 
L 165.52456 455.476528 
L 165.746351 453.98557 
L 166.190344 448.735875 
L 166.634337 445.897543 
L 167.07833 443.020267 
L 167.744114 441.695488 
L 167.965904 443.706857 
L 168.6321 453.854667 
L 168.853891 455.322572 
L 169.075681 454.190501 
L 169.297884 450.650928 
L 169.741465 436.597619 
L 170.851242 386.97254 
L 171.073444 381.756014 
L 171.295235 380.064787 
L 171.517438 377.187266 
L 171.961018 368.84501 
L 172.183221 372.968607 
L 172.849005 408.448248 
L 173.736991 430.048878 
L 173.958782 433.967427 
L 174.846356 441.142572 
L 175.290349 442.297324 
L 175.512552 442.199996 
L 176.178335 435.945994 
L 176.400126 437.797722 
L 176.622329 438.319521 
L 177.065909 433.85496 
L 177.288112 432.997431 
L 177.509903 433.016046 
L 177.732105 434.321102 
L 178.397889 445.166804 
L 179.285463 441.016137 
L 179.507666 439.016079 
L 179.729456 438.257068 
L 180.17345 440.246217 
L 180.39524 440.1808 
L 180.617443 438.449148 
L 181.283226 426.089518 
L 181.72722 409.660723 
L 181.94901 401.994211 
L 182.1708 402.128173 
L 182.614794 421.407319 
L 183.058787 443.314028 
L 183.72457 463.796791 
L 183.946361 466.099929 
L 184.168564 464.569617 
L 184.834347 452.689446 
L 185.056138 453.648741 
L 185.500131 458.559002 
L 185.722334 458.820036 
L 185.944124 457.753721 
L 186.165915 457.775204 
L 186.831698 464.996408 
L 187.053901 465.850448 
L 187.275691 466.101844 
L 187.497894 465.810161 
L 187.719685 465.013812 
L 188.163678 462.518161 
L 188.385468 461.993512 
L 188.829462 462.697611 
L 189.051252 461.57348 
L 189.495245 455.13111 
L 189.939238 448.495611 
L 190.383232 447.82137 
L 190.605022 445.823013 
L 191.049015 439.423832 
L 191.493008 436.30173 
L 191.714799 433.375501 
L 191.936589 428.810964 
L 193.046366 394.160207 
L 193.490359 388.323364 
L 193.712562 387.116111 
L 193.934353 389.497193 
L 194.600136 405.009308 
L 194.822339 410.762101 
L 195.044129 412.792907 
L 195.26592 410.532608 
L 195.488123 409.496106 
L 196.153906 422.351274 
L 196.597899 419.163243 
L 196.81969 419.13966 
L 197.485474 422.845447 
L 197.707676 424.473516 
L 198.59525 435.406948 
L 198.817453 435.445091 
L 199.039244 435.82094 
L 199.261034 437.89378 
L 199.483237 441.028435 
L 199.705027 442.020004 
L 200.370811 437.370023 
L 200.593014 436.308621 
L 201.258797 429.761256 
L 201.480588 429.82291 
L 201.70279 431.831691 
L 202.368574 440.515167 
L 202.590365 441.800368 
L 202.812567 443.917395 
L 203.478351 453.018339 
L 203.922344 455.694919 
L 204.144135 455.431159 
L 204.809918 451.742222 
L 205.031709 451.399471 
L 205.475702 451.208969 
L 205.919695 451.9125 
L 206.141486 451.532981 
L 206.363688 450.252747 
L 206.585479 447.532994 
L 207.029472 437.850812 
L 207.251262 429.93624 
L 208.361039 372.542813 
L 208.805032 360.078623 
L 209.026823 360.37629 
L 209.249026 368.853414 
L 209.693019 394.946153 
L 209.914809 401.92276 
L 210.1366 402.651913 
L 210.358802 401.43189 
L 210.580593 402.82987 
L 212.134363 434.482349 
L 212.356153 435.538268 
L 213.688133 411.235206 
L 214.131714 405.52655 
L 214.79791 389.269302 
L 215.241491 374.223275 
L 215.463693 372.272408 
L 216.129477 386.660191 
L 216.351268 387.775405 
L 216.57347 387.873158 
L 216.795261 389.115858 
L 217.017463 391.151526 
L 217.239254 391.61443 
L 217.461044 391.776202 
L 217.683247 395.120048 
L 218.793024 422.65203 
L 219.236605 428.680234 
L 219.680598 443.102923 
L 220.346382 464.697678 
L 220.568584 467.230452 
L 220.790375 467.375058 
L 221.012578 465.230766 
L 221.456159 458.281405 
L 221.678361 457.048491 
L 221.900152 457.995669 
L 222.788138 467.841976 
L 223.453922 471.80929 
L 223.675712 471.313775 
L 224.341496 466.25071 
L 224.785489 463.6012 
L 225.229482 460.013508 
L 225.451273 459.600741 
L 226.117056 467.648354 
L 226.339259 467.634995 
L 226.783252 462.645553 
L 227.226833 458.077783 
L 227.449036 457.672949 
L 227.670826 457.813446 
L 227.893029 458.115854 
L 228.11482 458.209131 
L 228.33661 456.45477 
L 229.002806 442.847668 
L 229.446387 440.702281 
L 229.66859 440.318434 
L 229.89038 440.643043 
L 230.112171 438.892184 
L 230.556164 428.755133 
L 230.778366 427.738369 
L 231.221947 433.420081 
L 231.888143 442.960666 
L 232.553927 449.633921 
L 232.775717 450.550887 
L 232.99792 448.960848 
L 233.663704 433.098775 
L 233.885494 432.931439 
L 234.107697 434.067749 
L 234.329487 434.042172 
L 234.551278 434.298751 
L 235.439264 443.876349 
L 235.883257 449.335757 
L 236.105048 449.168138 
L 236.549041 445.697819 
L 236.770832 447.701312 
L 237.436615 458.417626 
L 238.546392 469.065129 
L 238.768595 468.127223 
L 239.656169 452.376719 
L 239.878372 452.49883 
L 240.321953 458.198355 
L 240.988148 468.455826 
L 241.209939 470.037847 
L 241.431729 470.771617 
L 241.653932 470.91656 
L 242.097925 470.325022 
L 242.319716 470.712265 
L 242.541506 471.965925 
L 243.429493 480.234971 
L 243.651283 480.09509 
L 244.317067 477.771966 
L 244.539269 477.358268 
L 244.76106 476.085854 
L 245.205053 473.066749 
L 245.426844 474.072032 
L 246.093039 479.526369 
L 246.758823 481.764703 
L 247.202816 482.755771 
L 247.8686 481.902805 
L 248.09039 481.468366 
L 248.534384 480.276613 
L 248.756174 480.106881 
L 248.978377 480.116066 
L 249.200167 479.896107 
L 249.64416 478.35018 
L 249.865951 478.373386 
L 250.309944 480.140394 
L 251.419721 484.660857 
L 251.641511 485.152852 
L 252.085505 485.435742 
L 252.307295 485.456372 
L 252.973491 484.862022 
L 253.639275 486.054346 
L 254.305058 487.122525 
L 254.749051 487.902655 
L 255.414835 488.136893 
L 255.636626 488.142969 
L 256.080619 487.814948 
L 256.524612 487.308401 
L 257.190396 485.802167 
L 257.412186 485.683268 
L 257.634389 485.374502 
L 257.856179 484.734723 
L 258.521963 482.210808 
L 258.744166 482.480564 
L 259.63174 486.191426 
L 259.853943 486.484494 
L 260.075733 486.353089 
L 260.297936 485.803435 
L 260.741517 484.141695 
L 261.18551 483.624906 
L 262.073496 481.082774 
L 262.517077 480.759119 
L 263.405063 478.253341 
L 263.849057 474.737679 
L 264.070847 474.107229 
L 264.51484 475.114017 
L 264.958834 476.094379 
L 265.180624 477.250982 
L 265.624617 480.55957 
L 266.290401 482.894395 
L 266.734394 483.857955 
L 267.400178 484.908328 
L 267.621968 484.912337 
L 267.844171 484.633885 
L 268.731745 482.427915 
L 268.953948 482.440643 
L 269.175738 482.606011 
L 269.397529 482.618841 
L 269.619731 482.357536 
L 269.841522 481.555422 
L 270.063725 479.715404 
L 270.507305 474.347025 
L 270.729508 473.517182 
L 271.395292 476.577739 
L 271.617082 476.619124 
L 271.839285 475.305264 
L 272.505069 463.450218 
L 272.726859 464.925087 
L 273.392643 475.765764 
L 273.836636 479.295743 
L 274.280629 481.215 
L 274.946413 484.712493 
L 275.168616 484.890129 
L 275.612196 484.486172 
L 275.834399 484.510049 
L 276.05619 484.388661 
L 276.500183 483.189883 
L 276.944176 480.93765 
L 277.388169 476.648434 
L 278.053953 467.049356 
L 278.275743 467.091992 
L 278.497534 468.897587 
L 279.16373 477.062322 
L 279.607311 480.193501 
L 279.829513 480.914066 
L 280.051304 480.629771 
L 280.273507 479.209258 
L 281.161081 470.775898 
L 281.383283 470.51123 
L 282.049067 470.564156 
L 282.492648 471.669309 
L 282.936641 473.359177 
L 284.046418 480.212336 
L 284.934404 482.029465 
L 285.600188 483.185964 
L 286.044181 483.727813 
L 286.709965 485.775176 
L 286.931755 485.934349 
L 287.153958 485.617516 
L 287.597539 484.148633 
L 288.041532 482.647764 
L 288.263735 483.016872 
L 288.929519 485.199018 
L 289.151309 485.493792 
L 289.373512 485.535623 
L 289.595302 485.214765 
L 290.039295 483.112603 
L 290.483289 481.233301 
L 290.705079 481.105902 
L 291.592653 482.176569 
L 291.814856 481.842493 
L 292.036646 480.613954 
L 292.258849 477.723234 
L 293.368626 452.561936 
L 293.590416 452.130086 
L 293.812207 455.275783 
L 294.478403 468.770382 
L 295.144186 475.337858 
L 295.587767 479.25527 
L 296.031761 481.511552 
L 297.141537 484.142039 
L 297.36374 483.866876 
L 297.585531 483.15465 
L 298.251314 479.295564 
L 298.473517 479.320729 
L 298.695307 479.90423 
L 298.917098 480.017651 
L 299.139301 479.79546 
L 299.361091 479.850551 
L 299.582882 480.322454 
L 300.470868 483.886904 
L 300.692658 484.080843 
L 300.914861 484.039958 
L 301.580645 483.152137 
L 302.024638 483.486146 
L 302.246428 483.06303 
L 302.690422 481.685723 
L 302.912212 481.277339 
L 303.134415 480.406609 
L 303.578408 476.374877 
L 303.800198 474.396573 
L 304.021989 473.701739 
L 304.244192 474.004693 
L 304.465982 474.967478 
L 305.353968 480.814477 
L 305.797549 482.251099 
L 306.019752 482.600284 
L 306.241543 482.303231 
L 306.685536 480.510631 
L 306.907326 480.257775 
L 307.351319 481.25211 
L 307.795313 482.318159 
L 308.017103 482.059276 
L 308.461096 480.822053 
L 308.682887 481.105972 
L 309.792664 484.084861 
L 310.458859 484.54482 
L 310.68065 483.857146 
L 311.124643 482.19808 
L 311.346434 482.50044 
L 311.790427 483.674253 
L 312.678001 484.698927 
L 312.900204 484.773647 
L 313.565987 485.788574 
L 313.787778 485.663332 
L 314.00998 485.197729 
L 314.897555 481.895539 
L 315.119757 482.329013 
L 315.341548 482.125138 
L 315.56375 480.806723 
L 316.007331 477.050776 
L 316.229534 476.275669 
L 316.451325 476.085186 
L 316.673115 475.389929 
L 317.339311 471.37417 
L 317.561101 472.421386 
L 318.005095 476.578318 
L 318.449088 478.482204 
L 318.670878 478.837426 
L 318.892669 478.833134 
L 319.336662 477.744972 
L 319.558865 477.746064 
L 320.002446 478.407053 
L 320.224648 479.138901 
L 321.112222 483.949636 
L 321.334425 484.468399 
L 321.556216 484.446348 
L 321.778006 483.711849 
L 322.444202 479.326054 
L 322.665992 479.094977 
L 322.887783 479.228574 
L 323.331776 478.573503 
L 323.553979 478.733676 
L 323.99756 480.806747 
L 324.663756 483.683443 
L 325.107337 484.991604 
L 325.329539 485.075065 
L 325.77312 484.657304 
L 326.882897 484.919388 
L 328.436667 487.000404 
L 328.88066 487.612117 
L 329.324653 487.808121 
L 329.546444 487.806912 
L 329.768234 487.651172 
L 330.212228 486.608637 
L 330.43443 486.106132 
L 330.656221 485.95951 
L 331.100214 486.057997 
L 331.322004 485.954097 
L 331.544207 485.561892 
L 331.987788 483.833633 
L 332.431781 481.535601 
L 332.653984 481.034267 
L 332.875774 481.391261 
L 333.541558 483.418307 
L 333.763761 483.676104 
L 333.985551 483.621545 
L 334.429544 482.977655 
L 334.651335 482.912407 
L 334.873125 483.105168 
L 335.317119 484.24715 
L 335.982902 486.162071 
L 336.426895 486.805396 
L 336.870889 486.827 
L 337.536672 487.826512 
L 337.758875 488.015569 
L 337.980665 488.057483 
L 338.202456 487.843695 
L 338.646449 486.764028 
L 339.090442 485.901141 
L 340.200219 484.998299 
L 340.42201 485.212125 
L 340.866003 486.159522 
L 341.309996 487.243562 
L 341.531786 487.478172 
L 341.753989 487.381757 
L 342.419773 486.411382 
L 342.863354 486.316975 
L 343.085556 486.417547 
L 343.75134 487.149673 
L 344.195333 487.202466 
L 344.417124 487.293784 
L 344.639327 487.254482 
L 344.861117 486.944942 
L 345.30511 485.862442 
L 345.526901 485.656772 
L 345.749103 485.884126 
L 346.414887 486.863749 
L 346.85888 487.508154 
L 347.302461 488.118901 
L 347.524664 488.069989 
L 347.968245 487.448295 
L 348.412238 486.933898 
L 348.634441 487.056156 
L 349.522015 488.265582 
L 350.187798 487.944882 
L 351.297575 488.344361 
L 352.407352 489.310282 
L 353.517129 489.165177 
L 353.961122 489.221277 
L 354.626906 488.916671 
L 354.849109 488.472427 
L 355.514892 486.171688 
L 355.958473 486.53898 
L 356.180676 486.074165 
L 356.624669 484.040495 
L 356.84646 484.028169 
L 358.40023 487.711517 
L 358.62202 487.89403 
L 359.066013 487.861171 
L 359.510006 487.884993 
L 359.953587 487.885529 
L 360.17579 487.681166 
L 360.619783 486.277219 
L 361.063364 485.126503 
L 361.72956 483.816079 
L 361.951351 483.835798 
L 362.395344 484.553863 
L 362.839337 485.421699 
L 363.282918 485.837892 
L 363.949114 485.741481 
L 365.280681 487.51033 
L 366.612248 487.897077 
L 367.500235 488.455002 
L 367.944228 488.470811 
L 368.831802 489.08602 
L 369.497586 489.02897 
L 369.719788 488.81416 
L 370.163369 487.811058 
L 370.607363 486.57773 
L 370.829565 486.627259 
L 371.495349 487.628184 
L 371.717139 487.726156 
L 372.382923 487.512039 
L 373.048707 487.943986 
L 373.270909 487.825966 
L 373.714903 487.415338 
L 373.936693 487.361994 
L 374.158484 487.188705 
L 375.04647 485.368142 
L 375.490463 485.725044 
L 375.712254 485.922394 
L 375.934456 485.897229 
L 376.60024 485.084786 
L 376.82203 485.210263 
L 377.710017 486.424533 
L 378.3758 486.839552 
L 378.819794 487.119617 
L 379.485577 487.714268 
L 380.595354 487.616974 
L 381.482928 487.908652 
L 382.148712 487.342353 
L 382.370915 487.132078 
L 382.592705 487.084137 
L 383.036698 487.171659 
L 383.258489 486.812053 
L 383.702482 485.641246 
L 383.924685 485.632766 
L 384.590468 486.583331 
L 384.812259 486.29427 
L 385.478042 484.602669 
L 385.922036 484.846833 
L 386.587819 485.54503 
L 387.031812 486.167278 
L 387.253603 486.269408 
L 387.919799 485.875043 
L 388.36338 485.954581 
L 390.139352 485.807392 
L 390.805136 485.448763 
L 391.248717 485.478944 
L 391.47092 485.555747 
L 391.914913 486.14841 
L 392.358494 486.828613 
L 392.580697 486.909895 
L 393.02469 486.70565 
L 393.468271 486.402263 
L 393.690473 486.464843 
L 394.578048 487.463048 
L 395.243831 488.179526 
L 396.131818 488.60731 
L 397.241594 488.934065 
L 397.685588 488.715354 
L 397.907378 488.627265 
L 398.351371 488.892874 
L 399.238945 489.605067 
L 399.682939 489.690874 
L 400.348722 489.573332 
L 400.792715 489.38965 
L 402.124695 489.497532 
L 403.456262 489.438798 
L 404.566039 489.848649 
L 405.231823 490.106358 
L 405.675816 490.217123 
L 406.56339 490.608837 
L 407.229586 490.519725 
L 407.673167 490.212358 
L 408.11716 489.951145 
L 408.782944 490.259805 
L 409.226937 490.23873 
L 409.67093 489.887566 
L 410.114923 489.541838 
L 410.558504 489.333752 
L 411.2247 488.747857 
L 411.668281 488.970926 
L 411.890484 488.531705 
L 412.334065 487.286231 
L 412.556267 487.174347 
L 413.000261 487.427828 
L 413.887835 488.204119 
L 414.331828 488.089906 
L 415.219814 487.677463 
L 415.663395 487.749807 
L 416.551382 488.424778 
L 416.995375 488.351825 
L 417.661158 488.59434 
L 418.105152 488.571814 
L 419.658509 489.007737 
L 421.212279 489.162298 
L 421.878063 489.498995 
L 422.766049 490.087933 
L 424.54161 490.482743 
L 424.985603 490.371143 
L 425.651387 490.408586 
L 427.205157 490.21497 
L 427.870941 489.889611 
L 428.758515 490.099938 
L 430.090494 489.695014 
L 430.756278 489.693469 
L 431.422061 489.418458 
L 431.866055 489.322737 
L 432.087845 489.266818 
L 432.531838 489.505658 
L 432.975832 489.768976 
L 434.973182 490.062338 
L 435.417176 490.069096 
L 436.082959 490.118667 
L 436.748743 490.29372 
L 438.080723 490.503463 
L 439.190499 490.642185 
L 440.078073 490.542785 
L 442.74162 490.899115 
L 443.629194 490.946703 
L 444.29539 490.992764 
L 444.961174 491.05274 
L 446.070951 490.716892 
L 447.624309 491.297306 
L 448.068302 490.970054 
L 448.512295 490.438652 
L 448.956288 489.601112 
L 449.622072 488.15023 
L 449.843862 488.018367 
L 450.066065 488.103289 
L 451.619423 489.544623 
L 452.063416 489.489021 
L 452.7292 489.212708 
L 453.173193 488.99658 
L 455.614537 489.218139 
L 456.724314 489.602918 
L 460.275847 490.430796 
L 463.605178 490.788036 
L 475.59052 491.330564 
L 495.343888 491.797542 
L 516.873229 492.047821 
L 553.939034 492.275087 
L 559.265715 492.296908 
L 559.265715 492.296908 
" clip-path="url(#p77543cd33b)" style="fill: none; stroke-dasharray: 5.55,2.4; stroke-dashoffset: 0; stroke: #2f4f4f; stroke-width: 1.5"/>
   </g>
   <g id="patch_3">
    <path d="M 90 512.64 
L 90 69.12 
" style="fill: none; stroke: #000000; stroke-width: 0.8; stroke-linejoin: miter; stroke-linecap: square"/>
   </g>
   <g id="patch_4">
    <path d="M 648 512.64 
L 648 69.12 
" style="fill: none; stroke: #000000; stroke-width: 0.8; stroke-linejoin: miter; stroke-linecap: square"/>
   </g>
   <g id="patch_5">
    <path d="M 90 512.64 
L 648 512.64 
" style="fill: none; stroke: #000000; stroke-width: 0.8; stroke-linejoin: miter; stroke-linecap: square"/>
   </g>
   <g id="patch_6">
    <path d="M 90 69.12 
L 648 69.12 
" style="fill: none; stroke: #000000; stroke-width: 0.8; stroke-linejoin: miter; stroke-linecap: square"/>
   </g>
   <g id="legend_1">
    <g id="patch_7">
     <path d="M 572.376562 106.47625 
L 641 106.47625 
Q 643 106.47625 643 104.47625 
L 643 76.12 
Q 643 74.12 641 74.12 
L 572.376562 74.12 
Q 570.376562 74.12 570.376562 76.12 
L 570.376562 104.47625 
Q 570.376562 106.47625 572.376562 106.47625 
z
" style="fill: #ffffff; opacity: 0.8; stroke: #cccccc; stroke-linejoin: miter"/>
    </g>
    <g id="line2d_18">
     <path d="M 574.376562 82.218438 
L 584.376562 82.218438 
L 594.376562 82.218438 
" style="fill: none; stroke: #8fbc8f; stroke-width: 1.5; stroke-linecap: square"/>
    </g>
    <g id="text_18">
     <!-- InCoO3 -->
     <g transform="translate(602.376562 85.718438)scale(0.1 -0.1)">
      <defs>
       <path id="DejaVuSans-49" d="M 628 4666 
L 1259 4666 
L 1259 0 
L 628 0 
L 628 4666 
z
" transform="scale(0.015625)"/>
       <path id="DejaVuSans-43" d="M 4122 4306 
L 4122 3641 
Q 3803 3938 3442 4084 
Q 3081 4231 2675 4231 
Q 1875 4231 1450 3742 
Q 1025 3253 1025 2328 
Q 1025 1406 1450 917 
Q 1875 428 2675 428 
Q 3081 428 3442 575 
Q 3803 722 4122 1019 
L 4122 359 
Q 3791 134 3420 21 
Q 3050 -91 2638 -91 
Q 1578 -91 968 557 
Q 359 1206 359 2328 
Q 359 3453 968 4101 
Q 1578 4750 2638 4750 
Q 3056 4750 3426 4639 
Q 3797 4528 4122 4306 
z
" transform="scale(0.015625)"/>
       <path id="DejaVuSans-6f" d="M 1959 3097 
Q 1497 3097 1228 2736 
Q 959 2375 959 1747 
Q 959 1119 1226 758 
Q 1494 397 1959 397 
Q 2419 397 2687 759 
Q 2956 1122 2956 1747 
Q 2956 2369 2687 2733 
Q 2419 3097 1959 3097 
z
M 1959 3584 
Q 2709 3584 3137 3096 
Q 3566 2609 3566 1747 
Q 3566 888 3137 398 
Q 2709 -91 1959 -91 
Q 1206 -91 779 398 
Q 353 888 353 1747 
Q 353 2609 779 3096 
Q 1206 3584 1959 3584 
z
" transform="scale(0.015625)"/>
       <path id="DejaVuSans-4f" d="M 2522 4238 
Q 1834 4238 1429 3725 
Q 1025 3213 1025 2328 
Q 1025 1447 1429 934 
Q 1834 422 2522 422 
Q 3209 422 3611 934 
Q 4013 1447 4013 2328 
Q 4013 3213 3611 3725 
Q 3209 4238 2522 4238 
z
M 2522 4750 
Q 3503 4750 4090 4092 
Q 4678 3434 4678 2328 
Q 4678 1225 4090 567 
Q 3503 -91 2522 -91 
Q 1538 -91 948 565 
Q 359 1222 359 2328 
Q 359 3434 948 4092 
Q 1538 4750 2522 4750 
z
" transform="scale(0.015625)"/>
      </defs>
      <use xlink:href="#DejaVuSans-49"/>
      <use xlink:href="#DejaVuSans-6e" x="29.492188"/>
      <use xlink:href="#DejaVuSans-43" x="92.871094"/>
      <use xlink:href="#DejaVuSans-6f" x="162.695312"/>
      <use xlink:href="#DejaVuSans-4f" x="223.876953"/>
      <use xlink:href="#DejaVuSans-33" x="302.587891"/>
     </g>
    </g>
    <g id="line2d_19">
     <path d="M 574.376562 96.896563 
L 584.376562 96.896563 
L 594.376562 96.896563 
" style="fill: none; stroke-dasharray: 5.55,2.4; stroke-dashoffset: 0; stroke: #2f4f4f; stroke-width: 1.5"/>
    </g>
    <g id="text_19">
     <!-- InFeO3 -->
     <g transform="translate(602.376562 100.396563)scale(0.1 -0.1)">
      <defs>
       <path id="DejaVuSans-46" d="M 628 4666 
L 3309 4666 
L 3309 4134 
L 1259 4134 
L 1259 2759 
L 3109 2759 
L 3109 2228 
L 1259 2228 
L 1259 0 
L 628 0 
L 628 4666 
z
" transform="scale(0.015625)"/>
      </defs>
      <use xlink:href="#DejaVuSans-49"/>
      <use xlink:href="#DejaVuSans-6e" x="29.492188"/>
      <use xlink:href="#DejaVuSans-46" x="92.871094"/>
      <use xlink:href="#DejaVuSans-65" x="144.890625"/>
      <use xlink:href="#DejaVuSans-4f" x="206.414062"/>
      <use xlink:href="#DejaVuSans-33" x="285.125"/>
     </g>
    </g>
   </g>
  </g>
 </g>
 <defs>
  <clipPath id="p77543cd33b">
   <rect x="90" y="69.12" width="558" height="443.52"/>
  </clipPath>
 </defs>
</svg>
