<?xml version="1.0" encoding="utf-8" standalone="no"?>
<!DOCTYPE svg PUBLIC "-//W3C//DTD SVG 1.1//EN"
  "http://www.w3.org/Graphics/SVG/1.1/DTD/svg11.dtd">
<svg xmlns:xlink="http://www.w3.org/1999/xlink" width="460.8pt" height="345.6pt" viewBox="0 0 460.8 345.6" xmlns="http://www.w3.org/2000/svg" version="1.1">
 <metadata>
  <rdf:RDF xmlns:dc="http://purl.org/dc/elements/1.1/" xmlns:cc="http://creativecommons.org/ns#" xmlns:rdf="http://www.w3.org/1999/02/22-rdf-syntax-ns#">
   <cc:Work>
    <dc:type rdf:resource="http://purl.org/dc/dcmitype/StillImage"/>
    <dc:date>2022-03-11T21:11:10.638142</dc:date>
    <dc:format>image/svg+xml</dc:format>
    <dc:creator>
     <cc:Agent>
      <dc:title>Matplotlib v3.5.1, https://matplotlib.org/</dc:title>
     </cc:Agent>
    </dc:creator>
   </cc:Work>
  </rdf:RDF>
 </metadata>
 <defs>
  <style type="text/css">*{stroke-linejoin: round; stroke-linecap: butt}</style>
 </defs>
 <g id="figure_1">
  <g id="patch_1">
   <path d="M 0 345.6 
L 460.8 345.6 
L 460.8 0 
L 0 0 
z
" style="fill: #ffffff"/>
  </g>
  <g id="axes_1">
   <g id="patch_2">
    <path d="M 57.6 307.584 
L 414.72 307.584 
L 414.72 41.472 
L 57.6 41.472 
z
" style="fill: #ffffff"/>
   </g>
   <g id="matplotlib.axis_1">
    <g id="xtick_1">
     <g id="line2d_1">
      <defs>
       <path id="mb1e45a728f" d="M 0 0 
L 0 3.5 
" style="stroke: #000000; stroke-width: 0.8"/>
      </defs>
      <g>
       <use xlink:href="#mb1e45a728f" x="73.832727" y="307.584" style="stroke: #000000; stroke-width: 0.8"/>
      </g>
     </g>
     <g id="text_1">
      <!-- 0 -->
      <g transform="translate(70.651477 322.182437)scale(0.1 -0.1)">
       <defs>
        <path id="DejaVuSans-30" d="M 2034 4250 
Q 1547 4250 1301 3770 
Q 1056 3291 1056 2328 
Q 1056 1369 1301 889 
Q 1547 409 2034 409 
Q 2525 409 2770 889 
Q 3016 1369 3016 2328 
Q 3016 3291 2770 3770 
Q 2525 4250 2034 4250 
z
M 2034 4750 
Q 2819 4750 3233 4129 
Q 3647 3509 3647 2328 
Q 3647 1150 3233 529 
Q 2819 -91 2034 -91 
Q 1250 -91 836 529 
Q 422 1150 422 2328 
Q 422 3509 836 4129 
Q 1250 4750 2034 4750 
z
" transform="scale(0.015625)"/>
       </defs>
       <use xlink:href="#DejaVuSans-30"/>
      </g>
     </g>
    </g>
    <g id="xtick_2">
     <g id="line2d_2">
      <g>
       <use xlink:href="#mb1e45a728f" x="122.131694" y="307.584" style="stroke: #000000; stroke-width: 0.8"/>
      </g>
     </g>
     <g id="text_2">
      <!-- 10 -->
      <g transform="translate(115.769194 322.182437)scale(0.1 -0.1)">
       <defs>
        <path id="DejaVuSans-31" d="M 794 531 
L 1825 531 
L 1825 4091 
L 703 3866 
L 703 4441 
L 1819 4666 
L 2450 4666 
L 2450 531 
L 3481 531 
L 3481 0 
L 794 0 
L 794 531 
z
" transform="scale(0.015625)"/>
       </defs>
       <use xlink:href="#DejaVuSans-31"/>
       <use xlink:href="#DejaVuSans-30" x="63.623047"/>
      </g>
     </g>
    </g>
    <g id="xtick_3">
     <g id="line2d_3">
      <g>
       <use xlink:href="#mb1e45a728f" x="170.430661" y="307.584" style="stroke: #000000; stroke-width: 0.8"/>
      </g>
     </g>
     <g id="text_3">
      <!-- 20 -->
      <g transform="translate(164.068161 322.182437)scale(0.1 -0.1)">
       <defs>
        <path id="DejaVuSans-32" d="M 1228 531 
L 3431 531 
L 3431 0 
L 469 0 
L 469 531 
Q 828 903 1448 1529 
Q 2069 2156 2228 2338 
Q 2531 2678 2651 2914 
Q 2772 3150 2772 3378 
Q 2772 3750 2511 3984 
Q 2250 4219 1831 4219 
Q 1534 4219 1204 4116 
Q 875 4013 500 3803 
L 500 4441 
Q 881 4594 1212 4672 
Q 1544 4750 1819 4750 
Q 2544 4750 2975 4387 
Q 3406 4025 3406 3419 
Q 3406 3131 3298 2873 
Q 3191 2616 2906 2266 
Q 2828 2175 2409 1742 
Q 1991 1309 1228 531 
z
" transform="scale(0.015625)"/>
       </defs>
       <use xlink:href="#DejaVuSans-32"/>
       <use xlink:href="#DejaVuSans-30" x="63.623047"/>
      </g>
     </g>
    </g>
    <g id="xtick_4">
     <g id="line2d_4">
      <g>
       <use xlink:href="#mb1e45a728f" x="218.729627" y="307.584" style="stroke: #000000; stroke-width: 0.8"/>
      </g>
     </g>
     <g id="text_4">
      <!-- 30 -->
      <g transform="translate(212.367127 322.182437)scale(0.1 -0.1)">
       <defs>
        <path id="DejaVuSans-33" d="M 2597 2516 
Q 3050 2419 3304 2112 
Q 3559 1806 3559 1356 
Q 3559 666 3084 287 
Q 2609 -91 1734 -91 
Q 1441 -91 1130 -33 
Q 819 25 488 141 
L 488 750 
Q 750 597 1062 519 
Q 1375 441 1716 441 
Q 2309 441 2620 675 
Q 2931 909 2931 1356 
Q 2931 1769 2642 2001 
Q 2353 2234 1838 2234 
L 1294 2234 
L 1294 2753 
L 1863 2753 
Q 2328 2753 2575 2939 
Q 2822 3125 2822 3475 
Q 2822 3834 2567 4026 
Q 2313 4219 1838 4219 
Q 1578 4219 1281 4162 
Q 984 4106 628 3988 
L 628 4550 
Q 988 4650 1302 4700 
Q 1616 4750 1894 4750 
Q 2613 4750 3031 4423 
Q 3450 4097 3450 3541 
Q 3450 3153 3228 2886 
Q 3006 2619 2597 2516 
z
" transform="scale(0.015625)"/>
       </defs>
       <use xlink:href="#DejaVuSans-33"/>
       <use xlink:href="#DejaVuSans-30" x="63.623047"/>
      </g>
     </g>
    </g>
    <g id="xtick_5">
     <g id="line2d_5">
      <g>
       <use xlink:href="#mb1e45a728f" x="267.028594" y="307.584" style="stroke: #000000; stroke-width: 0.8"/>
      </g>
     </g>
     <g id="text_5">
      <!-- 40 -->
      <g transform="translate(260.666094 322.182437)scale(0.1 -0.1)">
       <defs>
        <path id="DejaVuSans-34" d="M 2419 4116 
L 825 1625 
L 2419 1625 
L 2419 4116 
z
M 2253 4666 
L 3047 4666 
L 3047 1625 
L 3713 1625 
L 3713 1100 
L 3047 1100 
L 3047 0 
L 2419 0 
L 2419 1100 
L 313 1100 
L 313 1709 
L 2253 4666 
z
" transform="scale(0.015625)"/>
       </defs>
       <use xlink:href="#DejaVuSans-34"/>
       <use xlink:href="#DejaVuSans-30" x="63.623047"/>
      </g>
     </g>
    </g>
    <g id="xtick_6">
     <g id="line2d_6">
      <g>
       <use xlink:href="#mb1e45a728f" x="315.327561" y="307.584" style="stroke: #000000; stroke-width: 0.8"/>
      </g>
     </g>
     <g id="text_6">
      <!-- 50 -->
      <g transform="translate(308.965061 322.182437)scale(0.1 -0.1)">
       <defs>
        <path id="DejaVuSans-35" d="M 691 4666 
L 3169 4666 
L 3169 4134 
L 1269 4134 
L 1269 2991 
Q 1406 3038 1543 3061 
Q 1681 3084 1819 3084 
Q 2600 3084 3056 2656 
Q 3513 2228 3513 1497 
Q 3513 744 3044 326 
Q 2575 -91 1722 -91 
Q 1428 -91 1123 -41 
Q 819 9 494 109 
L 494 744 
Q 775 591 1075 516 
Q 1375 441 1709 441 
Q 2250 441 2565 725 
Q 2881 1009 2881 1497 
Q 2881 1984 2565 2268 
Q 2250 2553 1709 2553 
Q 1456 2553 1204 2497 
Q 953 2441 691 2322 
L 691 4666 
z
" transform="scale(0.015625)"/>
       </defs>
       <use xlink:href="#DejaVuSans-35"/>
       <use xlink:href="#DejaVuSans-30" x="63.623047"/>
      </g>
     </g>
    </g>
    <g id="xtick_7">
     <g id="line2d_7">
      <g>
       <use xlink:href="#mb1e45a728f" x="363.626528" y="307.584" style="stroke: #000000; stroke-width: 0.8"/>
      </g>
     </g>
     <g id="text_7">
      <!-- 60 -->
      <g transform="translate(357.264028 322.182437)scale(0.1 -0.1)">
       <defs>
        <path id="DejaVuSans-36" d="M 2113 2584 
Q 1688 2584 1439 2293 
Q 1191 2003 1191 1497 
Q 1191 994 1439 701 
Q 1688 409 2113 409 
Q 2538 409 2786 701 
Q 3034 994 3034 1497 
Q 3034 2003 2786 2293 
Q 2538 2584 2113 2584 
z
M 3366 4563 
L 3366 3988 
Q 3128 4100 2886 4159 
Q 2644 4219 2406 4219 
Q 1781 4219 1451 3797 
Q 1122 3375 1075 2522 
Q 1259 2794 1537 2939 
Q 1816 3084 2150 3084 
Q 2853 3084 3261 2657 
Q 3669 2231 3669 1497 
Q 3669 778 3244 343 
Q 2819 -91 2113 -91 
Q 1303 -91 875 529 
Q 447 1150 447 2328 
Q 447 3434 972 4092 
Q 1497 4750 2381 4750 
Q 2619 4750 2861 4703 
Q 3103 4656 3366 4563 
z
" transform="scale(0.015625)"/>
       </defs>
       <use xlink:href="#DejaVuSans-36"/>
       <use xlink:href="#DejaVuSans-30" x="63.623047"/>
      </g>
     </g>
    </g>
    <g id="xtick_8">
     <g id="line2d_8">
      <g>
       <use xlink:href="#mb1e45a728f" x="411.925494" y="307.584" style="stroke: #000000; stroke-width: 0.8"/>
      </g>
     </g>
     <g id="text_8">
      <!-- 70 -->
      <g transform="translate(405.562994 322.182437)scale(0.1 -0.1)">
       <defs>
        <path id="DejaVuSans-37" d="M 525 4666 
L 3525 4666 
L 3525 4397 
L 1831 0 
L 1172 0 
L 2766 4134 
L 525 4134 
L 525 4666 
z
" transform="scale(0.015625)"/>
       </defs>
       <use xlink:href="#DejaVuSans-37"/>
       <use xlink:href="#DejaVuSans-30" x="63.623047"/>
      </g>
     </g>
    </g>
    <g id="text_9">
     <!-- Energy (eV) -->
     <g transform="translate(206.66625 335.860562)scale(0.1 -0.1)">
      <defs>
       <path id="DejaVuSans-45" d="M 628 4666 
L 3578 4666 
L 3578 4134 
L 1259 4134 
L 1259 2753 
L 3481 2753 
L 3481 2222 
L 1259 2222 
L 1259 531 
L 3634 531 
L 3634 0 
L 628 0 
L 628 4666 
z
" transform="scale(0.015625)"/>
       <path id="DejaVuSans-6e" d="M 3513 2113 
L 3513 0 
L 2938 0 
L 2938 2094 
Q 2938 2591 2744 2837 
Q 2550 3084 2163 3084 
Q 1697 3084 1428 2787 
Q 1159 2491 1159 1978 
L 1159 0 
L 581 0 
L 581 3500 
L 1159 3500 
L 1159 2956 
Q 1366 3272 1645 3428 
Q 1925 3584 2291 3584 
Q 2894 3584 3203 3211 
Q 3513 2838 3513 2113 
z
" transform="scale(0.015625)"/>
       <path id="DejaVuSans-65" d="M 3597 1894 
L 3597 1613 
L 953 1613 
Q 991 1019 1311 708 
Q 1631 397 2203 397 
Q 2534 397 2845 478 
Q 3156 559 3463 722 
L 3463 178 
Q 3153 47 2828 -22 
Q 2503 -91 2169 -91 
Q 1331 -91 842 396 
Q 353 884 353 1716 
Q 353 2575 817 3079 
Q 1281 3584 2069 3584 
Q 2775 3584 3186 3129 
Q 3597 2675 3597 1894 
z
M 3022 2063 
Q 3016 2534 2758 2815 
Q 2500 3097 2075 3097 
Q 1594 3097 1305 2825 
Q 1016 2553 972 2059 
L 3022 2063 
z
" transform="scale(0.015625)"/>
       <path id="DejaVuSans-72" d="M 2631 2963 
Q 2534 3019 2420 3045 
Q 2306 3072 2169 3072 
Q 1681 3072 1420 2755 
Q 1159 2438 1159 1844 
L 1159 0 
L 581 0 
L 581 3500 
L 1159 3500 
L 1159 2956 
Q 1341 3275 1631 3429 
Q 1922 3584 2338 3584 
Q 2397 3584 2469 3576 
Q 2541 3569 2628 3553 
L 2631 2963 
z
" transform="scale(0.015625)"/>
       <path id="DejaVuSans-67" d="M 2906 1791 
Q 2906 2416 2648 2759 
Q 2391 3103 1925 3103 
Q 1463 3103 1205 2759 
Q 947 2416 947 1791 
Q 947 1169 1205 825 
Q 1463 481 1925 481 
Q 2391 481 2648 825 
Q 2906 1169 2906 1791 
z
M 3481 434 
Q 3481 -459 3084 -895 
Q 2688 -1331 1869 -1331 
Q 1566 -1331 1297 -1286 
Q 1028 -1241 775 -1147 
L 775 -588 
Q 1028 -725 1275 -790 
Q 1522 -856 1778 -856 
Q 2344 -856 2625 -561 
Q 2906 -266 2906 331 
L 2906 616 
Q 2728 306 2450 153 
Q 2172 0 1784 0 
Q 1141 0 747 490 
Q 353 981 353 1791 
Q 353 2603 747 3093 
Q 1141 3584 1784 3584 
Q 2172 3584 2450 3431 
Q 2728 3278 2906 2969 
L 2906 3500 
L 3481 3500 
L 3481 434 
z
" transform="scale(0.015625)"/>
       <path id="DejaVuSans-79" d="M 2059 -325 
Q 1816 -950 1584 -1140 
Q 1353 -1331 966 -1331 
L 506 -1331 
L 506 -850 
L 844 -850 
Q 1081 -850 1212 -737 
Q 1344 -625 1503 -206 
L 1606 56 
L 191 3500 
L 800 3500 
L 1894 763 
L 2988 3500 
L 3597 3500 
L 2059 -325 
z
" transform="scale(0.015625)"/>
       <path id="DejaVuSans-20" transform="scale(0.015625)"/>
       <path id="DejaVuSans-28" d="M 1984 4856 
Q 1566 4138 1362 3434 
Q 1159 2731 1159 2009 
Q 1159 1288 1364 580 
Q 1569 -128 1984 -844 
L 1484 -844 
Q 1016 -109 783 600 
Q 550 1309 550 2009 
Q 550 2706 781 3412 
Q 1013 4119 1484 4856 
L 1984 4856 
z
" transform="scale(0.015625)"/>
       <path id="DejaVuSans-56" d="M 1831 0 
L 50 4666 
L 709 4666 
L 2188 738 
L 3669 4666 
L 4325 4666 
L 2547 0 
L 1831 0 
z
" transform="scale(0.015625)"/>
       <path id="DejaVuSans-29" d="M 513 4856 
L 1013 4856 
Q 1481 4119 1714 3412 
Q 1947 2706 1947 2009 
Q 1947 1309 1714 600 
Q 1481 -109 1013 -844 
L 513 -844 
Q 928 -128 1133 580 
Q 1338 1288 1338 2009 
Q 1338 2731 1133 3434 
Q 928 4138 513 4856 
z
" transform="scale(0.015625)"/>
      </defs>
      <use xlink:href="#DejaVuSans-45"/>
      <use xlink:href="#DejaVuSans-6e" x="63.183594"/>
      <use xlink:href="#DejaVuSans-65" x="126.5625"/>
      <use xlink:href="#DejaVuSans-72" x="188.085938"/>
      <use xlink:href="#DejaVuSans-67" x="227.449219"/>
      <use xlink:href="#DejaVuSans-79" x="290.925781"/>
      <use xlink:href="#DejaVuSans-20" x="350.105469"/>
      <use xlink:href="#DejaVuSans-28" x="381.892578"/>
      <use xlink:href="#DejaVuSans-65" x="420.90625"/>
      <use xlink:href="#DejaVuSans-56" x="482.429688"/>
      <use xlink:href="#DejaVuSans-29" x="550.837891"/>
     </g>
    </g>
   </g>
   <g id="matplotlib.axis_2">
    <g id="ytick_1">
     <g id="line2d_9">
      <defs>
       <path id="m454e1ad7a5" d="M 0 0 
L -3.5 0 
" style="stroke: #000000; stroke-width: 0.8"/>
      </defs>
      <g>
       <use xlink:href="#m454e1ad7a5" x="57.6" y="295.488" style="stroke: #000000; stroke-width: 0.8"/>
      </g>
     </g>
     <g id="text_10">
      <!-- 0 -->
      <g transform="translate(44.2375 299.287219)scale(0.1 -0.1)">
       <use xlink:href="#DejaVuSans-30"/>
      </g>
     </g>
    </g>
    <g id="ytick_2">
     <g id="line2d_10">
      <g>
       <use xlink:href="#m454e1ad7a5" x="57.6" y="240.015703" style="stroke: #000000; stroke-width: 0.8"/>
      </g>
     </g>
     <g id="text_11">
      <!-- 1 -->
      <g transform="translate(44.2375 243.814922)scale(0.1 -0.1)">
       <use xlink:href="#DejaVuSans-31"/>
      </g>
     </g>
    </g>
    <g id="ytick_3">
     <g id="line2d_11">
      <g>
       <use xlink:href="#m454e1ad7a5" x="57.6" y="184.543407" style="stroke: #000000; stroke-width: 0.8"/>
      </g>
     </g>
     <g id="text_12">
      <!-- 2 -->
      <g transform="translate(44.2375 188.342625)scale(0.1 -0.1)">
       <use xlink:href="#DejaVuSans-32"/>
      </g>
     </g>
    </g>
    <g id="ytick_4">
     <g id="line2d_12">
      <g>
       <use xlink:href="#m454e1ad7a5" x="57.6" y="129.07111" style="stroke: #000000; stroke-width: 0.8"/>
      </g>
     </g>
     <g id="text_13">
      <!-- 3 -->
      <g transform="translate(44.2375 132.870329)scale(0.1 -0.1)">
       <use xlink:href="#DejaVuSans-33"/>
      </g>
     </g>
    </g>
    <g id="ytick_5">
     <g id="line2d_13">
      <g>
       <use xlink:href="#m454e1ad7a5" x="57.6" y="73.598813" style="stroke: #000000; stroke-width: 0.8"/>
      </g>
     </g>
     <g id="text_14">
      <!-- 4 -->
      <g transform="translate(44.2375 77.398032)scale(0.1 -0.1)">
       <use xlink:href="#DejaVuSans-34"/>
      </g>
     </g>
    </g>
    <g id="text_15">
     <!-- Absoption (cm^-1) -->
     <g transform="translate(38.157812 221.823312)rotate(-90)scale(0.1 -0.1)">
      <defs>
       <path id="DejaVuSans-41" d="M 2188 4044 
L 1331 1722 
L 3047 1722 
L 2188 4044 
z
M 1831 4666 
L 2547 4666 
L 4325 0 
L 3669 0 
L 3244 1197 
L 1141 1197 
L 716 0 
L 50 0 
L 1831 4666 
z
" transform="scale(0.015625)"/>
       <path id="DejaVuSans-62" d="M 3116 1747 
Q 3116 2381 2855 2742 
Q 2594 3103 2138 3103 
Q 1681 3103 1420 2742 
Q 1159 2381 1159 1747 
Q 1159 1113 1420 752 
Q 1681 391 2138 391 
Q 2594 391 2855 752 
Q 3116 1113 3116 1747 
z
M 1159 2969 
Q 1341 3281 1617 3432 
Q 1894 3584 2278 3584 
Q 2916 3584 3314 3078 
Q 3713 2572 3713 1747 
Q 3713 922 3314 415 
Q 2916 -91 2278 -91 
Q 1894 -91 1617 61 
Q 1341 213 1159 525 
L 1159 0 
L 581 0 
L 581 4863 
L 1159 4863 
L 1159 2969 
z
" transform="scale(0.015625)"/>
       <path id="DejaVuSans-73" d="M 2834 3397 
L 2834 2853 
Q 2591 2978 2328 3040 
Q 2066 3103 1784 3103 
Q 1356 3103 1142 2972 
Q 928 2841 928 2578 
Q 928 2378 1081 2264 
Q 1234 2150 1697 2047 
L 1894 2003 
Q 2506 1872 2764 1633 
Q 3022 1394 3022 966 
Q 3022 478 2636 193 
Q 2250 -91 1575 -91 
Q 1294 -91 989 -36 
Q 684 19 347 128 
L 347 722 
Q 666 556 975 473 
Q 1284 391 1588 391 
Q 1994 391 2212 530 
Q 2431 669 2431 922 
Q 2431 1156 2273 1281 
Q 2116 1406 1581 1522 
L 1381 1569 
Q 847 1681 609 1914 
Q 372 2147 372 2553 
Q 372 3047 722 3315 
Q 1072 3584 1716 3584 
Q 2034 3584 2315 3537 
Q 2597 3491 2834 3397 
z
" transform="scale(0.015625)"/>
       <path id="DejaVuSans-6f" d="M 1959 3097 
Q 1497 3097 1228 2736 
Q 959 2375 959 1747 
Q 959 1119 1226 758 
Q 1494 397 1959 397 
Q 2419 397 2687 759 
Q 2956 1122 2956 1747 
Q 2956 2369 2687 2733 
Q 2419 3097 1959 3097 
z
M 1959 3584 
Q 2709 3584 3137 3096 
Q 3566 2609 3566 1747 
Q 3566 888 3137 398 
Q 2709 -91 1959 -91 
Q 1206 -91 779 398 
Q 353 888 353 1747 
Q 353 2609 779 3096 
Q 1206 3584 1959 3584 
z
" transform="scale(0.015625)"/>
       <path id="DejaVuSans-70" d="M 1159 525 
L 1159 -1331 
L 581 -1331 
L 581 3500 
L 1159 3500 
L 1159 2969 
Q 1341 3281 1617 3432 
Q 1894 3584 2278 3584 
Q 2916 3584 3314 3078 
Q 3713 2572 3713 1747 
Q 3713 922 3314 415 
Q 2916 -91 2278 -91 
Q 1894 -91 1617 61 
Q 1341 213 1159 525 
z
M 3116 1747 
Q 3116 2381 2855 2742 
Q 2594 3103 2138 3103 
Q 1681 3103 1420 2742 
Q 1159 2381 1159 1747 
Q 1159 1113 1420 752 
Q 1681 391 2138 391 
Q 2594 391 2855 752 
Q 3116 1113 3116 1747 
z
" transform="scale(0.015625)"/>
       <path id="DejaVuSans-74" d="M 1172 4494 
L 1172 3500 
L 2356 3500 
L 2356 3053 
L 1172 3053 
L 1172 1153 
Q 1172 725 1289 603 
Q 1406 481 1766 481 
L 2356 481 
L 2356 0 
L 1766 0 
Q 1100 0 847 248 
Q 594 497 594 1153 
L 594 3053 
L 172 3053 
L 172 3500 
L 594 3500 
L 594 4494 
L 1172 4494 
z
" transform="scale(0.015625)"/>
       <path id="DejaVuSans-69" d="M 603 3500 
L 1178 3500 
L 1178 0 
L 603 0 
L 603 3500 
z
M 603 4863 
L 1178 4863 
L 1178 4134 
L 603 4134 
L 603 4863 
z
" transform="scale(0.015625)"/>
       <path id="DejaVuSans-63" d="M 3122 3366 
L 3122 2828 
Q 2878 2963 2633 3030 
Q 2388 3097 2138 3097 
Q 1578 3097 1268 2742 
Q 959 2388 959 1747 
Q 959 1106 1268 751 
Q 1578 397 2138 397 
Q 2388 397 2633 464 
Q 2878 531 3122 666 
L 3122 134 
Q 2881 22 2623 -34 
Q 2366 -91 2075 -91 
Q 1284 -91 818 406 
Q 353 903 353 1747 
Q 353 2603 823 3093 
Q 1294 3584 2113 3584 
Q 2378 3584 2631 3529 
Q 2884 3475 3122 3366 
z
" transform="scale(0.015625)"/>
       <path id="DejaVuSans-6d" d="M 3328 2828 
Q 3544 3216 3844 3400 
Q 4144 3584 4550 3584 
Q 5097 3584 5394 3201 
Q 5691 2819 5691 2113 
L 5691 0 
L 5113 0 
L 5113 2094 
Q 5113 2597 4934 2840 
Q 4756 3084 4391 3084 
Q 3944 3084 3684 2787 
Q 3425 2491 3425 1978 
L 3425 0 
L 2847 0 
L 2847 2094 
Q 2847 2600 2669 2842 
Q 2491 3084 2119 3084 
Q 1678 3084 1418 2786 
Q 1159 2488 1159 1978 
L 1159 0 
L 581 0 
L 581 3500 
L 1159 3500 
L 1159 2956 
Q 1356 3278 1631 3431 
Q 1906 3584 2284 3584 
Q 2666 3584 2933 3390 
Q 3200 3197 3328 2828 
z
" transform="scale(0.015625)"/>
       <path id="DejaVuSans-5e" d="M 2988 4666 
L 4684 2925 
L 4056 2925 
L 2681 4159 
L 1306 2925 
L 678 2925 
L 2375 4666 
L 2988 4666 
z
" transform="scale(0.015625)"/>
       <path id="DejaVuSans-2d" d="M 313 2009 
L 1997 2009 
L 1997 1497 
L 313 1497 
L 313 2009 
z
" transform="scale(0.015625)"/>
      </defs>
      <use xlink:href="#DejaVuSans-41"/>
      <use xlink:href="#DejaVuSans-62" x="68.408203"/>
      <use xlink:href="#DejaVuSans-73" x="131.884766"/>
      <use xlink:href="#DejaVuSans-6f" x="183.984375"/>
      <use xlink:href="#DejaVuSans-70" x="245.166016"/>
      <use xlink:href="#DejaVuSans-74" x="308.642578"/>
      <use xlink:href="#DejaVuSans-69" x="347.851562"/>
      <use xlink:href="#DejaVuSans-6f" x="375.634766"/>
      <use xlink:href="#DejaVuSans-6e" x="436.816406"/>
      <use xlink:href="#DejaVuSans-20" x="500.195312"/>
      <use xlink:href="#DejaVuSans-28" x="531.982422"/>
      <use xlink:href="#DejaVuSans-63" x="570.996094"/>
      <use xlink:href="#DejaVuSans-6d" x="625.976562"/>
      <use xlink:href="#DejaVuSans-5e" x="723.388672"/>
      <use xlink:href="#DejaVuSans-2d" x="807.177734"/>
      <use xlink:href="#DejaVuSans-31" x="843.261719"/>
      <use xlink:href="#DejaVuSans-29" x="906.884766"/>
     </g>
    </g>
   </g>
   <g id="line2d_14">
    <path d="M 73.832727 295.488 
L 74.157779 130.401313 
L 74.482831 131.848491 
L 74.807883 134.644412 
L 75.132452 139.194671 
L 75.782557 152.851862 
L 76.432661 165.690098 
L 76.757713 167.68385 
L 77.082282 165.574011 
L 78.057438 150.549279 
L 78.38249 150.560695 
L 78.707542 154.603222 
L 79.357163 170.321386 
L 80.332319 195.141589 
L 80.657371 200.59821 
L 80.982423 204.001053 
L 81.307475 205.324333 
L 81.632044 204.752425 
L 81.957096 202.595046 
L 82.607201 195.342753 
L 84.231978 174.806022 
L 84.55703 171.60213 
L 84.882082 169.642327 
L 85.207134 169.02755 
L 85.532186 169.044086 
L 85.856755 168.424206 
L 86.181807 165.90679 
L 86.506859 160.629006 
L 86.831911 151.983937 
L 87.482015 122.850241 
L 88.456688 66.001316 
L 88.78174 55.467166 
L 89.106793 53.568 
L 89.431845 60.134799 
L 90.081466 89.030025 
L 91.381674 149.92212 
L 93.006451 219.63015 
L 93.656555 236.498582 
L 94.306659 244.958598 
L 94.631228 246.935867 
L 94.95628 247.736955 
L 95.281332 247.592822 
L 95.931437 246.224871 
L 96.256489 246.262005 
L 96.581058 247.388562 
L 97.556214 253.387947 
L 97.881266 253.620595 
L 98.206318 252.17149 
L 98.855939 245.260413 
L 100.806251 219.317059 
L 101.455872 214.627553 
L 102.431028 208.963976 
L 102.75608 208.781627 
L 103.08065 210.596426 
L 104.055806 221.752742 
L 104.380858 223.533952 
L 104.70591 223.621393 
L 105.030962 222.584766 
L 105.680583 219.331521 
L 106.330687 214.635303 
L 106.980791 208.613946 
L 107.305843 206.519084 
L 107.630412 205.982601 
L 107.955464 207.224015 
L 108.605568 212.291731 
L 108.93062 213.130345 
L 109.255672 210.996098 
L 109.905294 199.066065 
L 110.230346 193.115935 
L 110.555398 189.804976 
L 110.88045 189.227609 
L 111.205502 189.642637 
L 111.530554 188.631931 
L 111.855123 184.701608 
L 112.830279 165.659245 
L 113.805435 152.622439 
L 114.455056 141.042586 
L 114.780108 139.923017 
L 115.10516 144.864622 
L 115.755264 168.849983 
L 116.404885 192.375218 
L 116.729938 198.804119 
L 117.05499 201.556738 
L 117.380042 201.765663 
L 118.030146 199.703187 
L 118.354715 199.294101 
L 118.679767 199.959946 
L 119.004819 201.790942 
L 120.305027 212.862996 
L 120.629596 214.177129 
L 120.954648 214.220925 
L 121.2797 212.364306 
L 121.604752 208.033811 
L 122.904477 182.623194 
L 123.229529 183.770994 
L 123.554582 189.276386 
L 124.529738 212.960799 
L 124.854307 217.24229 
L 125.179359 217.867335 
L 125.504411 214.075448 
L 125.829463 205.321742 
L 126.479567 175.08036 
L 127.129188 145.040414 
L 127.45424 137.682674 
L 127.779292 136.434553 
L 128.104344 139.504034 
L 130.054173 169.42978 
L 131.02933 192.159132 
L 131.353899 196.195008 
L 131.678951 196.77532 
L 132.004003 193.354937 
L 132.329055 185.714488 
L 133.62878 139.684558 
L 133.953832 136.933165 
L 134.278884 138.957544 
L 134.928988 145.619345 
L 135.25404 144.99988 
L 135.578609 140.763516 
L 136.228713 127.981701 
L 136.553765 124.062489 
L 136.878817 123.661324 
L 137.20387 126.618325 
L 138.178543 142.373966 
L 138.503595 145.232376 
L 138.828647 146.056716 
L 139.153699 145.883077 
L 139.478751 146.326583 
L 139.80332 148.832322 
L 140.128372 153.97831 
L 141.42858 183.370345 
L 141.753632 187.627067 
L 142.078201 190.017674 
L 142.403253 190.842824 
L 142.728305 190.434986 
L 143.053357 189.094742 
L 144.353083 181.926246 
L 144.678135 180.31963 
L 145.003187 176.874523 
L 145.328239 169.699464 
L 145.653291 157.532126 
L 146.953016 93.014572 
L 147.278068 92.21302 
L 147.60312 101.566914 
L 149.227897 182.615373 
L 149.552949 189.620731 
L 149.878001 193.736309 
L 150.203053 195.876597 
L 150.528105 196.827103 
L 150.852675 197.081211 
L 151.177727 196.984439 
L 151.502779 196.510578 
L 152.152883 194.45847 
L 152.802504 192.456291 
L 153.77766 191.207926 
L 154.427764 189.196806 
L 155.077385 187.052568 
L 155.402437 186.650788 
L 155.727489 186.953256 
L 156.377593 188.451086 
L 156.702645 188.370374 
L 157.027697 187.075983 
L 157.677319 182.93339 
L 158.002371 182.024693 
L 158.327423 182.635276 
L 160.277252 192.346218 
L 161.252408 200.026978 
L 162.227081 207.467977 
L 162.877185 210.483822 
L 163.527289 213.426778 
L 164.827015 221.061574 
L 165.152067 221.064098 
L 165.477119 219.526212 
L 165.801688 216.487872 
L 167.101896 199.576177 
L 167.426948 197.820057 
L 167.752 197.459959 
L 168.401621 198.127346 
L 168.726673 197.82591 
L 169.376777 196.399234 
L 170.35145 195.101416 
L 170.676502 193.322364 
L 171.001554 190.000971 
L 172.30128 170.802325 
L 172.626332 168.346938 
L 173.276436 165.267549 
L 173.601488 162.669521 
L 174.576161 151.186766 
L 174.901213 150.105833 
L 175.226265 151.859063 
L 175.551317 156.190994 
L 176.851042 180.365794 
L 177.176094 183.231531 
L 177.501146 183.923753 
L 177.826198 182.926056 
L 178.476303 179.5141 
L 178.800872 178.562406 
L 179.125924 178.298574 
L 179.450976 178.578432 
L 179.776028 179.346601 
L 180.10108 180.607969 
L 180.751184 185.059698 
L 182.050909 195.573024 
L 182.701013 201.124448 
L 184.32579 219.794864 
L 184.650842 221.568724 
L 184.975895 222.709872 
L 185.625516 223.815862 
L 185.950568 224.196402 
L 186.27562 224.809183 
L 186.600672 225.853038 
L 187.900397 231.73258 
L 188.225449 231.786122 
L 188.550501 230.804922 
L 189.200605 226.983758 
L 191.475486 212.343404 
L 191.800056 211.332748 
L 192.125108 211.241297 
L 192.45016 211.527911 
L 192.775212 211.576516 
L 193.100264 211.109234 
L 193.750368 209.651072 
L 194.074937 209.45713 
L 194.725041 209.767853 
L 195.050093 209.330714 
L 195.375145 208.120015 
L 196.024766 203.781305 
L 196.67487 199.868056 
L 196.999922 199.335821 
L 197.324974 199.868855 
L 197.975078 202.163699 
L 198.299647 202.748937 
L 198.6247 202.654657 
L 198.949752 201.912005 
L 199.599856 198.970863 
L 202.84941 178.327115 
L 203.499514 172.717867 
L 203.824566 170.824559 
L 204.149618 170.780231 
L 204.47467 173.008237 
L 205.774396 188.374679 
L 206.099448 189.557137 
L 206.4245 189.22554 
L 206.749552 187.712195 
L 208.374329 176.531909 
L 208.699381 176.481967 
L 209.02395 177.591524 
L 209.674054 181.073615 
L 209.999106 181.545168 
L 210.324158 179.912685 
L 210.64921 175.657444 
L 211.948935 151.517786 
L 212.273988 148.450041 
L 212.59904 146.861497 
L 212.924092 147.113386 
L 213.249144 149.810027 
L 213.573713 155.569766 
L 215.198973 198.001574 
L 215.523542 201.616071 
L 215.848594 203.737193 
L 217.798423 211.267263 
L 218.123475 212.290006 
L 218.448527 212.858248 
L 218.773579 212.842771 
L 219.098632 212.239654 
L 219.423684 210.919047 
L 219.748736 208.877223 
L 220.398357 202.660526 
L 221.698565 187.571606 
L 222.348186 181.962142 
L 222.673238 179.846889 
L 222.99829 179.003721 
L 223.323342 180.294301 
L 223.648394 184.250091 
L 224.298015 198.202256 
L 224.948119 211.695188 
L 225.273171 216.032117 
L 225.598223 218.678623 
L 225.923276 220.104067 
L 226.248328 220.740855 
L 226.572897 220.893826 
L 226.897949 220.648139 
L 227.223001 220.135087 
L 227.873105 218.300746 
L 228.522726 215.245237 
L 229.17283 210.193519 
L 230.797607 194.839514 
L 231.122659 193.821631 
L 231.447711 193.932742 
L 231.772763 194.862158 
L 232.097815 196.297132 
L 232.747437 200.699902 
L 233.722593 208.244644 
L 234.047645 209.50487 
L 234.372697 209.79692 
L 234.697749 209.393503 
L 235.34737 207.558108 
L 235.672422 207.010125 
L 235.997474 207.116227 
L 237.297199 209.865922 
L 237.622251 209.840172 
L 237.947303 209.482947 
L 238.272355 208.744899 
L 238.597407 207.386172 
L 238.922459 205.070597 
L 239.247028 201.699973 
L 239.897133 191.546407 
L 240.872289 172.743734 
L 241.197341 168.315957 
L 241.52191 166.167792 
L 241.846962 166.497298 
L 242.172014 168.984515 
L 243.472222 182.309859 
L 244.446895 188.46466 
L 245.096999 191.553052 
L 245.422051 192.295361 
L 245.74662 192.350472 
L 246.071672 191.763365 
L 247.046829 189.000473 
L 248.346554 186.66652 
L 249.32171 183.7593 
L 249.646762 183.355551 
L 249.971814 183.556028 
L 250.296383 184.16239 
L 251.921643 188.566147 
L 252.246212 188.886699 
L 252.896316 189.122162 
L 253.221368 189.396007 
L 253.546421 190.187169 
L 254.196525 193.230901 
L 254.846146 195.938187 
L 255.171198 196.023082 
L 255.49625 195.221031 
L 256.146354 191.72622 
L 256.795975 188.10931 
L 257.446079 185.736083 
L 258.421235 183.526683 
L 258.745804 181.693645 
L 259.070856 178.26797 
L 260.046012 162.869754 
L 260.371065 160.103966 
L 260.696117 159.981777 
L 261.020686 162.357167 
L 261.67079 171.899201 
L 262.970998 193.245956 
L 263.945671 205.643349 
L 264.270723 208.46057 
L 264.595775 210.187839 
L 264.920827 210.817438 
L 265.245396 210.17721 
L 265.570448 208.31657 
L 265.8955 205.287494 
L 266.545604 196.272086 
L 267.195709 185.955265 
L 267.520278 182.283243 
L 267.84533 180.822608 
L 268.170382 182.303502 
L 268.495434 186.633542 
L 269.47059 203.924257 
L 269.795159 206.487959 
L 270.120211 206.68214 
L 270.445263 205.232194 
L 271.095367 201.583781 
L 271.420419 201.204672 
L 271.744988 202.250713 
L 272.395092 207.907933 
L 273.370248 217.991382 
L 274.01987 222.039517 
L 274.995026 226.18646 
L 275.64513 230.604523 
L 277.269907 243.210282 
L 278.894684 252.952733 
L 279.544788 255.90067 
L 279.86984 256.807553 
L 281.494618 259.314092 
L 281.81967 259.992376 
L 282.144722 260.366444 
L 282.469291 260.373388 
L 282.794343 260.072848 
L 283.769499 258.672755 
L 284.094551 258.678006 
L 284.419603 259.117248 
L 285.069224 261.306791 
L 286.04438 265.027481 
L 286.369432 265.733278 
L 286.694484 266.001899 
L 287.019053 265.705491 
L 287.669158 263.84926 
L 288.644314 260.73097 
L 289.944039 257.532713 
L 290.594143 256.590651 
L 292.543972 254.829058 
L 292.869024 254.89784 
L 293.194076 255.353803 
L 293.518645 256.069766 
L 295.143906 260.989298 
L 295.468475 261.395867 
L 295.793527 261.280695 
L 296.118579 260.510717 
L 296.443631 258.952587 
L 297.093735 253.726567 
L 297.743356 248.349894 
L 298.068408 247.296435 
L 298.39346 247.753888 
L 298.718512 249.465682 
L 299.368616 253.834972 
L 299.693668 255.102484 
L 300.018237 255.31066 
L 300.343289 254.654195 
L 300.993393 251.869388 
L 301.643498 249.406415 
L 301.968067 249.073868 
L 302.293119 249.745447 
L 302.618171 251.359086 
L 303.268275 256.424105 
L 303.918379 261.798862 
L 304.242948 263.788535 
L 304.568 264.90054 
L 304.893052 265.266449 
L 305.218104 264.882805 
L 305.543156 263.815067 
L 306.19326 259.756311 
L 306.842881 253.080097 
L 307.818037 241.6594 
L 308.14309 239.873323 
L 308.467659 240.071833 
L 308.792711 242.331979 
L 310.417971 261.410774 
L 310.74254 263.039409 
L 311.067592 263.904107 
L 311.392644 264.351258 
L 311.717696 264.378929 
L 312.042748 264.125843 
L 312.3678 263.520601 
L 312.692852 262.421224 
L 313.017421 260.615057 
L 313.342473 257.818652 
L 313.992577 249.252598 
L 314.967251 234.962183 
L 315.292303 232.769895 
L 315.617355 233.039585 
L 315.942407 235.640437 
L 316.592511 245.913977 
L 317.242132 257.140481 
L 317.892236 264.368875 
L 318.217288 266.273771 
L 318.54234 267.31828 
L 319.192444 268.112888 
L 320.492169 269.716804 
L 320.817221 269.901863 
L 321.142273 269.649097 
L 321.466842 269.103234 
L 322.116947 266.615254 
L 323.092103 262.092859 
L 323.417155 261.608574 
L 323.741724 262.006667 
L 324.391828 265.022319 
L 325.041932 269.615311 
L 326.016605 278.768686 
L 326.666709 284.35187 
L 327.316813 288.01468 
L 327.966434 290.036901 
L 328.291486 290.711591 
L 328.941591 291.382956 
L 329.266643 291.605909 
L 329.916747 291.672281 
L 331.541524 291.72481 
L 332.191145 291.792263 
L 332.841249 291.782961 
L 333.816405 291.227075 
L 335.11613 290.039054 
L 335.441183 290.032283 
L 335.766235 290.259398 
L 337.06596 291.722547 
L 337.716064 291.791837 
L 338.690737 291.620436 
L 339.015789 291.773641 
L 339.665893 292.477156 
L 340.315997 293.343147 
L 340.965618 293.895186 
L 341.940774 294.528712 
L 342.915931 294.926338 
L 343.890604 295.004824 
L 344.540708 295.084378 
L 347.790262 295.16122 
L 348.440366 295.24233 
L 364.364536 295.314718 
L 365.014157 295.401164 
L 398.487273 295.39118 
L 398.487273 295.39118 
" clip-path="url(#p17a017a7ab)" style="fill: none; stroke: #ffa500; stroke-linecap: square"/>
   </g>
   <g id="line2d_15">
    <path d="M 73.832727 295.488 
L 74.157779 130.401313 
L 74.482831 131.848491 
L 74.807883 134.644412 
L 75.132452 139.194671 
L 75.782557 152.851862 
L 76.432661 165.690098 
L 76.757713 167.68385 
L 77.082282 165.574011 
L 78.057438 150.549279 
L 78.38249 150.560695 
L 78.707542 154.603222 
L 79.357163 170.321386 
L 80.332319 195.141589 
L 80.657371 200.59821 
L 80.982423 204.001053 
L 81.307475 205.324333 
L 81.632044 204.752425 
L 81.957096 202.595046 
L 82.607201 195.342753 
L 84.231978 174.806022 
L 84.55703 171.60213 
L 84.882082 169.642327 
L 85.207134 169.02755 
L 85.532186 169.044086 
L 85.856755 168.424206 
L 86.181807 165.90679 
L 86.506859 160.629006 
L 86.831911 151.983937 
L 87.482015 122.850241 
L 88.456688 66.001316 
L 88.78174 55.467166 
L 89.106793 53.568 
L 89.431845 60.134799 
L 90.081466 89.030025 
L 91.381674 149.92212 
L 93.006451 219.63015 
L 93.656555 236.498582 
L 94.306659 244.958598 
L 94.631228 246.935867 
L 94.95628 247.736955 
L 95.281332 247.592822 
L 95.931437 246.224871 
L 96.256489 246.262005 
L 96.581058 247.388562 
L 97.556214 253.387947 
L 97.881266 253.620595 
L 98.206318 252.17149 
L 98.855939 245.260413 
L 100.806251 219.317059 
L 101.455872 214.627553 
L 102.431028 208.963976 
L 102.75608 208.781627 
L 103.08065 210.596426 
L 104.055806 221.752742 
L 104.380858 223.533952 
L 104.70591 223.621393 
L 105.030962 222.584766 
L 105.680583 219.331521 
L 106.330687 214.635303 
L 106.980791 208.613946 
L 107.305843 206.519084 
L 107.630412 205.982601 
L 107.955464 207.224015 
L 108.605568 212.291731 
L 108.93062 213.130345 
L 109.255672 210.996098 
L 109.905294 199.066065 
L 110.230346 193.115935 
L 110.555398 189.804976 
L 110.88045 189.227609 
L 111.205502 189.642637 
L 111.530554 188.631931 
L 111.855123 184.701608 
L 112.830279 165.659245 
L 113.805435 152.622439 
L 114.455056 141.042586 
L 114.780108 139.923017 
L 115.10516 144.864622 
L 115.755264 168.849983 
L 116.404885 192.375218 
L 116.729938 198.804119 
L 117.05499 201.556738 
L 117.380042 201.765663 
L 118.030146 199.703187 
L 118.354715 199.294101 
L 118.679767 199.959946 
L 119.004819 201.790942 
L 120.305027 212.862996 
L 120.629596 214.177129 
L 120.954648 214.220925 
L 121.2797 212.364306 
L 121.604752 208.033811 
L 122.904477 182.623194 
L 123.229529 183.770994 
L 123.554582 189.276386 
L 124.529738 212.960799 
L 124.854307 217.24229 
L 125.179359 217.867335 
L 125.504411 214.075448 
L 125.829463 205.321742 
L 126.479567 175.08036 
L 127.129188 145.040414 
L 127.45424 137.682674 
L 127.779292 136.434553 
L 128.104344 139.504034 
L 130.054173 169.42978 
L 131.02933 192.159132 
L 131.353899 196.195008 
L 131.678951 196.77532 
L 132.004003 193.354937 
L 132.329055 185.714488 
L 133.62878 139.684558 
L 133.953832 136.933165 
L 134.278884 138.957544 
L 134.928988 145.619345 
L 135.25404 144.99988 
L 135.578609 140.763516 
L 136.228713 127.981701 
L 136.553765 124.062489 
L 136.878817 123.661324 
L 137.20387 126.618325 
L 138.178543 142.373966 
L 138.503595 145.232376 
L 138.828647 146.056716 
L 139.153699 145.883077 
L 139.478751 146.326583 
L 139.80332 148.832322 
L 140.128372 153.97831 
L 141.42858 183.370345 
L 141.753632 187.627067 
L 142.078201 190.017674 
L 142.403253 190.842824 
L 142.728305 190.434986 
L 143.053357 189.094742 
L 144.353083 181.926246 
L 144.678135 180.31963 
L 145.003187 176.874523 
L 145.328239 169.699464 
L 145.653291 157.532126 
L 146.953016 93.014572 
L 147.278068 92.21302 
L 147.60312 101.566914 
L 149.227897 182.615373 
L 149.552949 189.620731 
L 149.878001 193.736309 
L 150.203053 195.876597 
L 150.528105 196.827103 
L 150.852675 197.081211 
L 151.177727 196.984439 
L 151.502779 196.510578 
L 152.152883 194.45847 
L 152.802504 192.456291 
L 153.77766 191.207926 
L 154.427764 189.196806 
L 155.077385 187.052568 
L 155.402437 186.650788 
L 155.727489 186.953256 
L 156.377593 188.451086 
L 156.702645 188.370374 
L 157.027697 187.075983 
L 157.677319 182.93339 
L 158.002371 182.024693 
L 158.327423 182.635276 
L 160.277252 192.346218 
L 161.252408 200.026978 
L 162.227081 207.467977 
L 162.877185 210.483822 
L 163.527289 213.426778 
L 164.827015 221.061574 
L 165.152067 221.064098 
L 165.477119 219.526212 
L 165.801688 216.487872 
L 167.101896 199.576177 
L 167.426948 197.820057 
L 167.752 197.459959 
L 168.401621 198.127346 
L 168.726673 197.82591 
L 169.376777 196.399234 
L 170.35145 195.101416 
L 170.676502 193.322364 
L 171.001554 190.000971 
L 172.30128 170.802325 
L 172.626332 168.346938 
L 173.276436 165.267549 
L 173.601488 162.669521 
L 174.576161 151.186766 
L 174.901213 150.105833 
L 175.226265 151.859063 
L 175.551317 156.190994 
L 176.851042 180.365794 
L 177.176094 183.231531 
L 177.501146 183.923753 
L 177.826198 182.926056 
L 178.476303 179.5141 
L 178.800872 178.562406 
L 179.125924 178.298574 
L 179.450976 178.578432 
L 179.776028 179.346601 
L 180.10108 180.607969 
L 180.751184 185.059698 
L 182.050909 195.573024 
L 182.701013 201.124448 
L 184.32579 219.794864 
L 184.650842 221.568724 
L 184.975895 222.709872 
L 185.625516 223.815862 
L 185.950568 224.196402 
L 186.27562 224.809183 
L 186.600672 225.853038 
L 187.900397 231.73258 
L 188.225449 231.786122 
L 188.550501 230.804922 
L 189.200605 226.983758 
L 191.475486 212.343404 
L 191.800056 211.332748 
L 192.125108 211.241297 
L 192.45016 211.527911 
L 192.775212 211.576516 
L 193.100264 211.109234 
L 193.750368 209.651072 
L 194.074937 209.45713 
L 194.725041 209.767853 
L 195.050093 209.330714 
L 195.375145 208.120015 
L 196.024766 203.781305 
L 196.67487 199.868056 
L 196.999922 199.335821 
L 197.324974 199.868855 
L 197.975078 202.163699 
L 198.299647 202.748937 
L 198.6247 202.654657 
L 198.949752 201.912005 
L 199.599856 198.970863 
L 202.84941 178.327115 
L 203.499514 172.717867 
L 203.824566 170.824559 
L 204.149618 170.780231 
L 204.47467 173.008237 
L 205.774396 188.374679 
L 206.099448 189.557137 
L 206.4245 189.22554 
L 206.749552 187.712195 
L 208.374329 176.531909 
L 208.699381 176.481967 
L 209.02395 177.591524 
L 209.674054 181.073615 
L 209.999106 181.545168 
L 210.324158 179.912685 
L 210.64921 175.657444 
L 211.948935 151.517786 
L 212.273988 148.450041 
L 212.59904 146.861497 
L 212.924092 147.113386 
L 213.249144 149.810027 
L 213.573713 155.569766 
L 215.198973 198.001574 
L 215.523542 201.616071 
L 215.848594 203.737193 
L 217.798423 211.267263 
L 218.123475 212.290006 
L 218.448527 212.858248 
L 218.773579 212.842771 
L 219.098632 212.239654 
L 219.423684 210.919047 
L 219.748736 208.877223 
L 220.398357 202.660526 
L 221.698565 187.571606 
L 222.348186 181.962142 
L 222.673238 179.846889 
L 222.99829 179.003721 
L 223.323342 180.294301 
L 223.648394 184.250091 
L 224.298015 198.202256 
L 224.948119 211.695188 
L 225.273171 216.032117 
L 225.598223 218.678623 
L 225.923276 220.104067 
L 226.248328 220.740855 
L 226.572897 220.893826 
L 226.897949 220.648139 
L 227.223001 220.135087 
L 227.873105 218.300746 
L 228.522726 215.245237 
L 229.17283 210.193519 
L 230.797607 194.839514 
L 231.122659 193.821631 
L 231.447711 193.932742 
L 231.772763 194.862158 
L 232.097815 196.297132 
L 232.747437 200.699902 
L 233.722593 208.244644 
L 234.047645 209.50487 
L 234.372697 209.79692 
L 234.697749 209.393503 
L 235.34737 207.558108 
L 235.672422 207.010125 
L 235.997474 207.116227 
L 237.297199 209.865922 
L 237.622251 209.840172 
L 237.947303 209.482947 
L 238.272355 208.744899 
L 238.597407 207.386172 
L 238.922459 205.070597 
L 239.247028 201.699973 
L 239.897133 191.546407 
L 240.872289 172.743734 
L 241.197341 168.315957 
L 241.52191 166.167792 
L 241.846962 166.497298 
L 242.172014 168.984515 
L 243.472222 182.309859 
L 244.446895 188.46466 
L 245.096999 191.553052 
L 245.422051 192.295361 
L 245.74662 192.350472 
L 246.071672 191.763365 
L 247.046829 189.000473 
L 248.346554 186.66652 
L 249.32171 183.7593 
L 249.646762 183.355551 
L 249.971814 183.556028 
L 250.296383 184.16239 
L 251.921643 188.566147 
L 252.246212 188.886699 
L 252.896316 189.122162 
L 253.221368 189.396007 
L 253.546421 190.187169 
L 254.196525 193.230901 
L 254.846146 195.938187 
L 255.171198 196.023082 
L 255.49625 195.221031 
L 256.146354 191.72622 
L 256.795975 188.10931 
L 257.446079 185.736083 
L 258.421235 183.526683 
L 258.745804 181.693645 
L 259.070856 178.26797 
L 260.046012 162.869754 
L 260.371065 160.103966 
L 260.696117 159.981777 
L 261.020686 162.357167 
L 261.67079 171.899201 
L 262.970998 193.245956 
L 263.945671 205.643349 
L 264.270723 208.46057 
L 264.595775 210.187839 
L 264.920827 210.817438 
L 265.245396 210.17721 
L 265.570448 208.31657 
L 265.8955 205.287494 
L 266.545604 196.272086 
L 267.195709 185.955265 
L 267.520278 182.283243 
L 267.84533 180.822608 
L 268.170382 182.303502 
L 268.495434 186.633542 
L 269.47059 203.924257 
L 269.795159 206.487959 
L 270.120211 206.68214 
L 270.445263 205.232194 
L 271.095367 201.583781 
L 271.420419 201.204672 
L 271.744988 202.250713 
L 272.395092 207.907933 
L 273.370248 217.991382 
L 274.01987 222.039517 
L 274.995026 226.18646 
L 275.64513 230.604523 
L 277.269907 243.210282 
L 278.894684 252.952733 
L 279.544788 255.90067 
L 279.86984 256.807553 
L 281.494618 259.314092 
L 281.81967 259.992376 
L 282.144722 260.366444 
L 282.469291 260.373388 
L 282.794343 260.072848 
L 283.769499 258.672755 
L 284.094551 258.678006 
L 284.419603 259.117248 
L 285.069224 261.306791 
L 286.04438 265.027481 
L 286.369432 265.733278 
L 286.694484 266.001899 
L 287.019053 265.705491 
L 287.669158 263.84926 
L 288.644314 260.73097 
L 289.944039 257.532713 
L 290.594143 256.590651 
L 292.543972 254.829058 
L 292.869024 254.89784 
L 293.194076 255.353803 
L 293.518645 256.069766 
L 295.143906 260.989298 
L 295.468475 261.395867 
L 295.793527 261.280695 
L 296.118579 260.510717 
L 296.443631 258.952587 
L 297.093735 253.726567 
L 297.743356 248.349894 
L 298.068408 247.296435 
L 298.39346 247.753888 
L 298.718512 249.465682 
L 299.368616 253.834972 
L 299.693668 255.102484 
L 300.018237 255.31066 
L 300.343289 254.654195 
L 300.993393 251.869388 
L 301.643498 249.406415 
L 301.968067 249.073868 
L 302.293119 249.745447 
L 302.618171 251.359086 
L 303.268275 256.424105 
L 303.918379 261.798862 
L 304.242948 263.788535 
L 304.568 264.90054 
L 304.893052 265.266449 
L 305.218104 264.882805 
L 305.543156 263.815067 
L 306.19326 259.756311 
L 306.842881 253.080097 
L 307.818037 241.6594 
L 308.14309 239.873323 
L 308.467659 240.071833 
L 308.792711 242.331979 
L 310.417971 261.410774 
L 310.74254 263.039409 
L 311.067592 263.904107 
L 311.392644 264.351258 
L 311.717696 264.378929 
L 312.042748 264.125843 
L 312.3678 263.520601 
L 312.692852 262.421224 
L 313.017421 260.615057 
L 313.342473 257.818652 
L 313.992577 249.252598 
L 314.967251 234.962183 
L 315.292303 232.769895 
L 315.617355 233.039585 
L 315.942407 235.640437 
L 316.592511 245.913977 
L 317.242132 257.140481 
L 317.892236 264.368875 
L 318.217288 266.273771 
L 318.54234 267.31828 
L 319.192444 268.112888 
L 320.492169 269.716804 
L 320.817221 269.901863 
L 321.142273 269.649097 
L 321.466842 269.103234 
L 322.116947 266.615254 
L 323.092103 262.092859 
L 323.417155 261.608574 
L 323.741724 262.006667 
L 324.391828 265.022319 
L 325.041932 269.615311 
L 326.016605 278.768686 
L 326.666709 284.35187 
L 327.316813 288.01468 
L 327.966434 290.036901 
L 328.291486 290.711591 
L 328.941591 291.382956 
L 329.266643 291.605909 
L 329.916747 291.672281 
L 331.541524 291.72481 
L 332.191145 291.792263 
L 332.841249 291.782961 
L 333.816405 291.227075 
L 335.11613 290.039054 
L 335.441183 290.032283 
L 335.766235 290.259398 
L 337.06596 291.722547 
L 337.716064 291.791837 
L 338.690737 291.620436 
L 339.015789 291.773641 
L 339.665893 292.477156 
L 340.315997 293.343147 
L 340.965618 293.895186 
L 341.940774 294.528712 
L 342.915931 294.926338 
L 343.890604 295.004824 
L 344.540708 295.084378 
L 347.790262 295.16122 
L 348.440366 295.24233 
L 364.364536 295.314718 
L 365.014157 295.401164 
L 398.487273 295.39118 
L 398.487273 295.39118 
" clip-path="url(#p17a017a7ab)" style="fill: none; stroke-dasharray: 6.4,1.6,1,1.6; stroke-dashoffset: 0; stroke: #0000ff"/>
   </g>
   <g id="patch_3">
    <path d="M 57.6 307.584 
L 57.6 41.472 
" style="fill: none; stroke: #000000; stroke-width: 0.8; stroke-linejoin: miter; stroke-linecap: square"/>
   </g>
   <g id="patch_4">
    <path d="M 414.72 307.584 
L 414.72 41.472 
" style="fill: none; stroke: #000000; stroke-width: 0.8; stroke-linejoin: miter; stroke-linecap: square"/>
   </g>
   <g id="patch_5">
    <path d="M 57.6 307.584 
L 414.72 307.584 
" style="fill: none; stroke: #000000; stroke-width: 0.8; stroke-linejoin: miter; stroke-linecap: square"/>
   </g>
   <g id="patch_6">
    <path d="M 57.6 41.472 
L 414.72 41.472 
" style="fill: none; stroke: #000000; stroke-width: 0.8; stroke-linejoin: miter; stroke-linecap: square"/>
   </g>
   <g id="legend_1">
    <g id="patch_7">
     <path d="M 363.8825 78.82825 
L 407.72 78.82825 
Q 409.72 78.82825 409.72 76.82825 
L 409.72 48.472 
Q 409.72 46.472 407.72 46.472 
L 363.8825 46.472 
Q 361.8825 46.472 361.8825 48.472 
L 361.8825 76.82825 
Q 361.8825 78.82825 363.8825 78.82825 
z
" style="fill: #ffffff; opacity: 0.8; stroke: #cccccc; stroke-linejoin: miter"/>
    </g>
    <g id="line2d_16">
     <path d="M 365.8825 54.570437 
L 375.8825 54.570437 
L 385.8825 54.570437 
" style="fill: none; stroke: #ffa500; stroke-linecap: square"/>
    </g>
    <g id="text_16">
     <!-- xx -->
     <g transform="translate(393.8825 58.070437)scale(0.1 -0.1)">
      <defs>
       <path id="DejaVuSans-78" d="M 3513 3500 
L 2247 1797 
L 3578 0 
L 2900 0 
L 1881 1375 
L 863 0 
L 184 0 
L 1544 1831 
L 300 3500 
L 978 3500 
L 1906 2253 
L 2834 3500 
L 3513 3500 
z
" transform="scale(0.015625)"/>
      </defs>
      <use xlink:href="#DejaVuSans-78"/>
      <use xlink:href="#DejaVuSans-78" x="59.179688"/>
     </g>
    </g>
    <g id="line2d_17">
     <path d="M 365.8825 69.248562 
L 375.8825 69.248562 
L 385.8825 69.248562 
" style="fill: none; stroke-dasharray: 6.4,1.6,1,1.6; stroke-dashoffset: 0; stroke: #0000ff"/>
    </g>
    <g id="text_17">
     <!-- yy -->
     <g transform="translate(393.8825 72.748562)scale(0.1 -0.1)">
      <use xlink:href="#DejaVuSans-79"/>
      <use xlink:href="#DejaVuSans-79" x="59.179688"/>
     </g>
    </g>
   </g>
  </g>
 </g>
 <defs>
  <clipPath id="p17a017a7ab">
   <rect x="57.6" y="41.472" width="357.12" height="266.112"/>
  </clipPath>
 </defs>
</svg>
