<?xml version="1.0" encoding="utf-8" standalone="no"?>
<!DOCTYPE svg PUBLIC "-//W3C//DTD SVG 1.1//EN"
  "http://www.w3.org/Graphics/SVG/1.1/DTD/svg11.dtd">
<svg xmlns:xlink="http://www.w3.org/1999/xlink" width="720pt" height="576pt" viewBox="0 0 720 576" xmlns="http://www.w3.org/2000/svg" version="1.1">
 <metadata>
  <rdf:RDF xmlns:dc="http://purl.org/dc/elements/1.1/" xmlns:cc="http://creativecommons.org/ns#" xmlns:rdf="http://www.w3.org/1999/02/22-rdf-syntax-ns#">
   <cc:Work>
    <dc:type rdf:resource="http://purl.org/dc/dcmitype/StillImage"/>
    <dc:date>2022-03-10T11:56:35.461986</dc:date>
    <dc:format>image/svg+xml</dc:format>
    <dc:creator>
     <cc:Agent>
      <dc:title>Matplotlib v3.5.1, https://matplotlib.org/</dc:title>
     </cc:Agent>
    </dc:creator>
   </cc:Work>
  </rdf:RDF>
 </metadata>
 <defs>
  <style type="text/css">*{stroke-linejoin: round; stroke-linecap: butt}</style>
 </defs>
 <g id="figure_1">
  <g id="patch_1">
   <path d="M 0 576 
L 720 576 
L 720 0 
L 0 0 
z
" style="fill: #ffffff"/>
  </g>
  <g id="axes_1">
   <g id="patch_2">
    <path d="M 54.61 270.56 
L 356.04 270.56 
L 356.04 41.76 
L 54.61 41.76 
z
" style="fill: #ffffff"/>
   </g>
   <g id="matplotlib.axis_1">
    <g id="xtick_1">
     <g id="line2d_1">
      <defs>
       <path id="m7004c6d6a0" d="M 0 0 
L 0 3.5 
" style="stroke: #000000; stroke-width: 0.8"/>
      </defs>
      <g>
       <use xlink:href="#m7004c6d6a0" x="68.311364" y="270.56" style="stroke: #000000; stroke-width: 0.8"/>
      </g>
     </g>
     <g id="text_1">
      <!-- 0 -->
      <g transform="translate(65.130114 285.158437)scale(0.1 -0.1)">
       <defs>
        <path id="DejaVuSans-30" d="M 2034 4250 
Q 1547 4250 1301 3770 
Q 1056 3291 1056 2328 
Q 1056 1369 1301 889 
Q 1547 409 2034 409 
Q 2525 409 2770 889 
Q 3016 1369 3016 2328 
Q 3016 3291 2770 3770 
Q 2525 4250 2034 4250 
z
M 2034 4750 
Q 2819 4750 3233 4129 
Q 3647 3509 3647 2328 
Q 3647 1150 3233 529 
Q 2819 -91 2034 -91 
Q 1250 -91 836 529 
Q 422 1150 422 2328 
Q 422 3509 836 4129 
Q 1250 4750 2034 4750 
z
" transform="scale(0.015625)"/>
       </defs>
       <use xlink:href="#DejaVuSans-30"/>
      </g>
     </g>
    </g>
    <g id="xtick_2">
     <g id="line2d_2">
      <g>
       <use xlink:href="#m7004c6d6a0" x="134.178" y="270.56" style="stroke: #000000; stroke-width: 0.8"/>
      </g>
     </g>
     <g id="text_2">
      <!-- 20 -->
      <g transform="translate(127.8155 285.158437)scale(0.1 -0.1)">
       <defs>
        <path id="DejaVuSans-32" d="M 1228 531 
L 3431 531 
L 3431 0 
L 469 0 
L 469 531 
Q 828 903 1448 1529 
Q 2069 2156 2228 2338 
Q 2531 2678 2651 2914 
Q 2772 3150 2772 3378 
Q 2772 3750 2511 3984 
Q 2250 4219 1831 4219 
Q 1534 4219 1204 4116 
Q 875 4013 500 3803 
L 500 4441 
Q 881 4594 1212 4672 
Q 1544 4750 1819 4750 
Q 2544 4750 2975 4387 
Q 3406 4025 3406 3419 
Q 3406 3131 3298 2873 
Q 3191 2616 2906 2266 
Q 2828 2175 2409 1742 
Q 1991 1309 1228 531 
z
" transform="scale(0.015625)"/>
       </defs>
       <use xlink:href="#DejaVuSans-32"/>
       <use xlink:href="#DejaVuSans-30" x="63.623047"/>
      </g>
     </g>
    </g>
    <g id="xtick_3">
     <g id="line2d_3">
      <g>
       <use xlink:href="#m7004c6d6a0" x="200.044636" y="270.56" style="stroke: #000000; stroke-width: 0.8"/>
      </g>
     </g>
     <g id="text_3">
      <!-- 40 -->
      <g transform="translate(193.682136 285.158437)scale(0.1 -0.1)">
       <defs>
        <path id="DejaVuSans-34" d="M 2419 4116 
L 825 1625 
L 2419 1625 
L 2419 4116 
z
M 2253 4666 
L 3047 4666 
L 3047 1625 
L 3713 1625 
L 3713 1100 
L 3047 1100 
L 3047 0 
L 2419 0 
L 2419 1100 
L 313 1100 
L 313 1709 
L 2253 4666 
z
" transform="scale(0.015625)"/>
       </defs>
       <use xlink:href="#DejaVuSans-34"/>
       <use xlink:href="#DejaVuSans-30" x="63.623047"/>
      </g>
     </g>
    </g>
    <g id="xtick_4">
     <g id="line2d_4">
      <g>
       <use xlink:href="#m7004c6d6a0" x="265.911273" y="270.56" style="stroke: #000000; stroke-width: 0.8"/>
      </g>
     </g>
     <g id="text_4">
      <!-- 60 -->
      <g transform="translate(259.548773 285.158437)scale(0.1 -0.1)">
       <defs>
        <path id="DejaVuSans-36" d="M 2113 2584 
Q 1688 2584 1439 2293 
Q 1191 2003 1191 1497 
Q 1191 994 1439 701 
Q 1688 409 2113 409 
Q 2538 409 2786 701 
Q 3034 994 3034 1497 
Q 3034 2003 2786 2293 
Q 2538 2584 2113 2584 
z
M 3366 4563 
L 3366 3988 
Q 3128 4100 2886 4159 
Q 2644 4219 2406 4219 
Q 1781 4219 1451 3797 
Q 1122 3375 1075 2522 
Q 1259 2794 1537 2939 
Q 1816 3084 2150 3084 
Q 2853 3084 3261 2657 
Q 3669 2231 3669 1497 
Q 3669 778 3244 343 
Q 2819 -91 2113 -91 
Q 1303 -91 875 529 
Q 447 1150 447 2328 
Q 447 3434 972 4092 
Q 1497 4750 2381 4750 
Q 2619 4750 2861 4703 
Q 3103 4656 3366 4563 
z
" transform="scale(0.015625)"/>
       </defs>
       <use xlink:href="#DejaVuSans-36"/>
       <use xlink:href="#DejaVuSans-30" x="63.623047"/>
      </g>
     </g>
    </g>
    <g id="xtick_5">
     <g id="line2d_5">
      <g>
       <use xlink:href="#m7004c6d6a0" x="331.777909" y="270.56" style="stroke: #000000; stroke-width: 0.8"/>
      </g>
     </g>
     <g id="text_5">
      <!-- 80 -->
      <g transform="translate(325.415409 285.158437)scale(0.1 -0.1)">
       <defs>
        <path id="DejaVuSans-38" d="M 2034 2216 
Q 1584 2216 1326 1975 
Q 1069 1734 1069 1313 
Q 1069 891 1326 650 
Q 1584 409 2034 409 
Q 2484 409 2743 651 
Q 3003 894 3003 1313 
Q 3003 1734 2745 1975 
Q 2488 2216 2034 2216 
z
M 1403 2484 
Q 997 2584 770 2862 
Q 544 3141 544 3541 
Q 544 4100 942 4425 
Q 1341 4750 2034 4750 
Q 2731 4750 3128 4425 
Q 3525 4100 3525 3541 
Q 3525 3141 3298 2862 
Q 3072 2584 2669 2484 
Q 3125 2378 3379 2068 
Q 3634 1759 3634 1313 
Q 3634 634 3220 271 
Q 2806 -91 2034 -91 
Q 1263 -91 848 271 
Q 434 634 434 1313 
Q 434 1759 690 2068 
Q 947 2378 1403 2484 
z
M 1172 3481 
Q 1172 3119 1398 2916 
Q 1625 2713 2034 2713 
Q 2441 2713 2670 2916 
Q 2900 3119 2900 3481 
Q 2900 3844 2670 4047 
Q 2441 4250 2034 4250 
Q 1625 4250 1398 4047 
Q 1172 3844 1172 3481 
z
" transform="scale(0.015625)"/>
       </defs>
       <use xlink:href="#DejaVuSans-38"/>
       <use xlink:href="#DejaVuSans-30" x="63.623047"/>
      </g>
     </g>
    </g>
   </g>
   <g id="matplotlib.axis_2">
    <g id="ytick_1">
     <g id="line2d_6">
      <defs>
       <path id="m89f28bf961" d="M 0 0 
L -3.5 0 
" style="stroke: #000000; stroke-width: 0.8"/>
      </defs>
      <g>
       <use xlink:href="#m89f28bf961" x="54.61" y="260.16" style="stroke: #000000; stroke-width: 0.8"/>
      </g>
     </g>
     <g id="text_6">
      <!-- 0.0 -->
      <g transform="translate(31.706875 263.959219)scale(0.1 -0.1)">
       <defs>
        <path id="DejaVuSans-2e" d="M 684 794 
L 1344 794 
L 1344 0 
L 684 0 
L 684 794 
z
" transform="scale(0.015625)"/>
       </defs>
       <use xlink:href="#DejaVuSans-30"/>
       <use xlink:href="#DejaVuSans-2e" x="63.623047"/>
       <use xlink:href="#DejaVuSans-30" x="95.410156"/>
      </g>
     </g>
    </g>
    <g id="ytick_2">
     <g id="line2d_7">
      <g>
       <use xlink:href="#m89f28bf961" x="54.61" y="211.392409" style="stroke: #000000; stroke-width: 0.8"/>
      </g>
     </g>
     <g id="text_7">
      <!-- 0.5 -->
      <g transform="translate(31.706875 215.191627)scale(0.1 -0.1)">
       <defs>
        <path id="DejaVuSans-35" d="M 691 4666 
L 3169 4666 
L 3169 4134 
L 1269 4134 
L 1269 2991 
Q 1406 3038 1543 3061 
Q 1681 3084 1819 3084 
Q 2600 3084 3056 2656 
Q 3513 2228 3513 1497 
Q 3513 744 3044 326 
Q 2575 -91 1722 -91 
Q 1428 -91 1123 -41 
Q 819 9 494 109 
L 494 744 
Q 775 591 1075 516 
Q 1375 441 1709 441 
Q 2250 441 2565 725 
Q 2881 1009 2881 1497 
Q 2881 1984 2565 2268 
Q 2250 2553 1709 2553 
Q 1456 2553 1204 2497 
Q 953 2441 691 2322 
L 691 4666 
z
" transform="scale(0.015625)"/>
       </defs>
       <use xlink:href="#DejaVuSans-30"/>
       <use xlink:href="#DejaVuSans-2e" x="63.623047"/>
       <use xlink:href="#DejaVuSans-35" x="95.410156"/>
      </g>
     </g>
    </g>
    <g id="ytick_3">
     <g id="line2d_8">
      <g>
       <use xlink:href="#m89f28bf961" x="54.61" y="162.624817" style="stroke: #000000; stroke-width: 0.8"/>
      </g>
     </g>
     <g id="text_8">
      <!-- 1.0 -->
      <g transform="translate(31.706875 166.424036)scale(0.1 -0.1)">
       <defs>
        <path id="DejaVuSans-31" d="M 794 531 
L 1825 531 
L 1825 4091 
L 703 3866 
L 703 4441 
L 1819 4666 
L 2450 4666 
L 2450 531 
L 3481 531 
L 3481 0 
L 794 0 
L 794 531 
z
" transform="scale(0.015625)"/>
       </defs>
       <use xlink:href="#DejaVuSans-31"/>
       <use xlink:href="#DejaVuSans-2e" x="63.623047"/>
       <use xlink:href="#DejaVuSans-30" x="95.410156"/>
      </g>
     </g>
    </g>
    <g id="ytick_4">
     <g id="line2d_9">
      <g>
       <use xlink:href="#m89f28bf961" x="54.61" y="113.857226" style="stroke: #000000; stroke-width: 0.8"/>
      </g>
     </g>
     <g id="text_9">
      <!-- 1.5 -->
      <g transform="translate(31.706875 117.656445)scale(0.1 -0.1)">
       <use xlink:href="#DejaVuSans-31"/>
       <use xlink:href="#DejaVuSans-2e" x="63.623047"/>
       <use xlink:href="#DejaVuSans-35" x="95.410156"/>
      </g>
     </g>
    </g>
    <g id="ytick_5">
     <g id="line2d_10">
      <g>
       <use xlink:href="#m89f28bf961" x="54.61" y="65.089634" style="stroke: #000000; stroke-width: 0.8"/>
      </g>
     </g>
     <g id="text_10">
      <!-- 2.0 -->
      <g transform="translate(31.706875 68.888853)scale(0.1 -0.1)">
       <use xlink:href="#DejaVuSans-32"/>
       <use xlink:href="#DejaVuSans-2e" x="63.623047"/>
       <use xlink:href="#DejaVuSans-30" x="95.410156"/>
      </g>
     </g>
    </g>
   </g>
   <g id="line2d_11">
    <path d="M 68.311364 257.211202 
L 68.585698 257.211202 
L 69.134367 252.145087 
L 69.408702 250.883551 
L 69.682707 250.500735 
L 69.957042 250.591274 
L 70.505711 251.060566 
L 71.05438 251.179499 
L 71.328714 251.034752 
L 71.603049 250.675906 
L 71.877383 250.027717 
L 72.425723 247.754842 
L 73.523061 241.814355 
L 74.346065 240.046074 
L 74.620399 238.490891 
L 74.894734 235.677305 
L 75.168739 230.639916 
L 75.443074 221.194097 
L 75.717408 203.07153 
L 75.991743 174.339097 
L 76.266077 158.13025 
L 77.089081 213.491743 
L 77.363415 221.820427 
L 77.63775 226.214251 
L 77.911755 227.669623 
L 78.18609 226.598958 
L 78.460424 223.311828 
L 79.283428 209.985952 
L 79.557762 213.356339 
L 80.106432 226.019792 
L 80.654771 233.593793 
L 81.20344 237.979453 
L 82.300779 244.006457 
L 82.849448 246.032107 
L 83.397787 246.861575 
L 83.672122 247.261967 
L 84.220791 248.753849 
L 84.495126 249.506819 
L 84.76946 249.820576 
L 85.043795 249.441716 
L 85.318129 248.337366 
L 86.140803 243.299946 
L 86.415138 242.55161 
L 86.689473 242.716399 
L 86.963807 243.105028 
L 87.238142 242.952928 
L 87.512476 242.054941 
L 88.061145 238.327672 
L 88.33548 235.336498 
L 88.609814 231.053855 
L 88.88382 224.658781 
L 89.432489 202.245172 
L 90.255492 154.214037 
L 90.529827 147.35664 
L 90.804161 147.371124 
L 91.078496 152.484991 
L 92.449839 195.775655 
L 92.724174 199.928634 
L 93.547177 208.027184 
L 94.095846 222.149833 
L 94.644186 235.41809 
L 94.918521 238.495275 
L 95.46719 241.12246 
L 96.290193 243.589923 
L 96.564528 243.605375 
L 96.838863 242.696262 
L 97.387202 238.545227 
L 97.935871 232.210612 
L 98.48454 221.860265 
L 99.03321 203.633015 
L 99.855884 167.505245 
L 100.404553 127.155358 
L 101.227557 52.16 
L 101.501891 53.609558 
L 102.05056 111.234378 
L 102.5989 158.067652 
L 103.147569 180.632177 
L 103.696238 193.049711 
L 103.970573 196.141458 
L 104.244907 197.261067 
L 104.519242 196.658641 
L 104.793576 194.536307 
L 105.341916 186.569611 
L 106.16492 171.521096 
L 106.439254 168.972868 
L 106.713589 168.617467 
L 107.810927 172.856915 
L 108.084932 173.023608 
L 108.359267 173.471966 
L 108.633601 174.631719 
L 108.907936 176.610142 
L 109.456605 183.623713 
L 110.279608 199.617332 
L 111.102283 216.740566 
L 111.376617 219.442518 
L 111.650952 220.690251 
L 111.925286 221.155541 
L 112.199621 221.394292 
L 112.473955 221.898465 
L 112.74829 223.204962 
L 113.845299 232.985537 
L 114.393968 234.645169 
L 114.668302 234.928263 
L 114.942637 234.735177 
L 115.216971 233.949702 
L 115.76564 230.88612 
L 116.31398 227.619919 
L 116.588315 226.615834 
L 116.862649 226.179568 
L 117.136984 226.261215 
L 117.959987 227.466349 
L 118.234322 227.541317 
L 118.508657 227.36943 
L 119.056996 226.663244 
L 119.331331 226.713652 
L 119.605665 227.564991 
L 120.154334 231.352291 
L 120.703004 235.179728 
L 121.251673 237.692527 
L 121.800012 238.995881 
L 122.074347 239.352233 
L 122.348681 239.429477 
L 122.623016 239.13134 
L 122.897351 238.358452 
L 124.543028 230.577325 
L 124.817363 227.833589 
L 125.366032 218.740662 
L 125.914701 208.62887 
L 126.189036 206.996191 
L 126.46337 209.529842 
L 127.560379 229.667581 
L 128.109048 235.182854 
L 128.383383 236.247836 
L 128.657717 236.561353 
L 128.932052 236.62651 
L 129.206386 236.820863 
L 129.754726 237.914787 
L 130.303395 238.856468 
L 131.126399 239.458218 
L 131.400733 240.085527 
L 132.497742 243.866066 
L 132.772077 244.146111 
L 133.046411 243.973419 
L 133.320746 243.215199 
L 133.59508 241.703052 
L 134.143749 235.984785 
L 134.966753 225.627391 
L 135.240758 225.092906 
L 135.515093 227.259765 
L 136.338096 237.207703 
L 136.886765 240.395811 
L 137.435435 242.346835 
L 137.983774 243.597683 
L 138.532443 244.491054 
L 138.806778 244.762619 
L 139.081112 244.744076 
L 139.355447 244.370978 
L 139.904116 243.164059 
L 140.178451 242.855103 
L 140.452785 242.97015 
L 141.275459 244.324076 
L 141.549794 244.211063 
L 141.824129 243.499775 
L 142.921467 238.65559 
L 143.195801 238.880696 
L 144.567145 242.281678 
L 145.390148 244.389396 
L 145.664483 244.785957 
L 145.938817 244.957503 
L 146.212823 244.863621 
L 146.487157 244.487962 
L 146.761492 243.80704 
L 147.310161 241.223965 
L 148.133164 236.445601 
L 148.407499 236.041843 
L 148.681833 236.229466 
L 148.955839 236.277948 
L 149.230173 235.500566 
L 150.053177 230.92393 
L 150.327511 231.29119 
L 151.150515 236.102648 
L 151.424849 236.659598 
L 151.973189 237.066313 
L 153.070527 238.627028 
L 154.716205 240.28953 
L 155.813543 242.574408 
L 156.636547 243.174554 
L 157.184887 243.288352 
L 158.556559 242.793162 
L 158.830894 242.41961 
L 159.105229 241.650508 
L 159.653898 238.777697 
L 160.750906 231.413578 
L 161.299576 229.888942 
L 161.848245 228.585108 
L 162.670919 226.095955 
L 162.945253 225.960934 
L 163.219588 226.569861 
L 164.042592 230.520483 
L 164.591261 233.551179 
L 165.962604 242.280945 
L 166.511273 244.256108 
L 167.059942 245.429588 
L 167.608611 246.218267 
L 167.882946 246.465007 
L 168.156951 246.552193 
L 169.528624 246.326923 
L 169.802958 246.323608 
L 170.077293 246.096999 
L 170.625962 244.846463 
L 171.174302 243.70059 
L 171.448636 243.6699 
L 171.997305 243.983567 
L 172.545974 243.77504 
L 172.820309 244.151701 
L 173.917318 247.86084 
L 174.191652 247.911652 
L 174.465987 247.636003 
L 175.014656 246.536774 
L 175.563325 245.311653 
L 175.83766 244.957042 
L 176.385999 244.769818 
L 176.660334 244.674305 
L 176.934668 244.452816 
L 177.483337 243.704385 
L 177.757672 243.546329 
L 178.032007 243.789259 
L 179.40335 246.621463 
L 180.500688 247.98562 
L 180.775023 248.173742 
L 181.049357 248.212482 
L 182.146366 247.702056 
L 182.96937 247.987519 
L 183.243704 247.823939 
L 183.792373 247.015756 
L 184.341042 246.277218 
L 184.889382 245.877268 
L 185.438051 245.635246 
L 185.98672 245.627108 
L 186.535389 245.682059 
L 186.809724 245.567186 
L 187.358064 244.893025 
L 187.906733 244.251198 
L 189.004071 243.710216 
L 189.55274 243.203156 
L 189.826745 243.208616 
L 190.10108 243.490431 
L 192.021421 247.011831 
L 193.11843 248.5059 
L 193.392765 248.773457 
L 193.667099 248.884845 
L 193.941434 248.747469 
L 194.490103 247.752986 
L 194.764438 247.271456 
L 195.038772 247.069261 
L 195.312777 247.146077 
L 196.410115 248.006203 
L 197.233119 248.300967 
L 197.781788 248.300083 
L 198.055793 248.10465 
L 198.604462 247.197358 
L 199.427466 245.510538 
L 199.701801 245.300087 
L 199.976135 245.394069 
L 201.073144 246.582275 
L 201.347478 246.569839 
L 202.170482 246.286314 
L 203.26782 246.627537 
L 203.541825 246.486188 
L 203.81616 246.030996 
L 204.364829 244.131963 
L 204.639164 243.206299 
L 204.913498 242.955819 
L 205.187833 243.579514 
L 206.010836 246.819626 
L 206.559176 247.826786 
L 208.205183 250.066321 
L 209.027858 250.692079 
L 209.576527 250.838311 
L 210.125196 250.577871 
L 211.222534 249.584168 
L 211.496868 249.586696 
L 212.045208 250.01817 
L 212.868212 250.832144 
L 213.691215 251.254548 
L 214.239885 251.297681 
L 214.51389 251.145856 
L 215.062559 250.383416 
L 215.611228 249.634967 
L 215.885562 249.538497 
L 216.708566 249.764274 
L 217.53124 249.556265 
L 218.628579 250.207296 
L 219.451582 249.514225 
L 219.725917 249.638731 
L 220.274256 250.892892 
L 220.822926 251.897208 
L 221.09726 251.91551 
L 221.371595 251.571457 
L 221.920264 250.284785 
L 222.194598 249.978882 
L 222.468933 250.26982 
L 223.565942 253.025956 
L 224.114611 253.269856 
L 225.211949 253.532628 
L 225.760289 253.678861 
L 226.034623 253.659032 
L 226.308958 253.498339 
L 226.583292 253.131266 
L 227.131961 251.822904 
L 227.68063 250.440528 
L 228.22897 249.856146 
L 228.777639 249.594278 
L 229.051974 249.615316 
L 229.326308 249.93379 
L 229.874977 251.397991 
L 230.423646 252.856654 
L 230.971986 253.740737 
L 231.520655 254.180961 
L 232.343659 254.347299 
L 233.440997 254.536092 
L 234.81234 255.138396 
L 235.36101 255.029275 
L 236.732353 254.348065 
L 237.281022 254.314402 
L 238.104026 254.015809 
L 238.37836 254.0646 
L 239.475369 254.625215 
L 240.572707 254.552283 
L 241.670045 254.251367 
L 242.218385 254.788298 
L 243.041389 255.617968 
L 243.590058 255.866924 
L 243.864392 255.786409 
L 244.413061 255.254212 
L 244.961401 254.757366 
L 245.235736 254.683319 
L 245.784405 254.872088 
L 246.881743 255.577658 
L 247.978752 256.012837 
L 248.527421 256.231044 
L 249.07609 256.248261 
L 249.898764 256.205739 
L 250.721768 256.287847 
L 252.367775 256.139061 
L 253.190449 256.148993 
L 253.739118 256.158364 
L 254.836457 256.512994 
L 255.659131 256.490793 
L 256.482134 256.710688 
L 257.305138 256.754666 
L 257.853807 257.037021 
L 258.950816 257.801644 
L 260.870828 258.700417 
L 263.065505 258.919599 
L 264.162514 259.381207 
L 264.985517 259.420763 
L 266.356861 259.457554 
L 268.002868 259.817358 
L 269.374211 259.717352 
L 270.197215 259.751577 
L 273.4889 260.070305 
L 277.05492 260.115639 
L 342.338636 260.16 
L 342.338636 260.16 
" clip-path="url(#p8ee06d6a1c)" style="fill: none; stroke: #ffa500; stroke-width: 1.5; stroke-linecap: square"/>
   </g>
   <g id="patch_3">
    <path d="M 54.61 270.56 
L 54.61 41.76 
" style="fill: none; stroke: #000000; stroke-width: 0.8; stroke-linejoin: miter; stroke-linecap: square"/>
   </g>
   <g id="patch_4">
    <path d="M 356.04 270.56 
L 356.04 41.76 
" style="fill: none; stroke: #000000; stroke-width: 0.8; stroke-linejoin: miter; stroke-linecap: square"/>
   </g>
   <g id="patch_5">
    <path d="M 54.61 270.56 
L 356.04 270.56 
" style="fill: none; stroke: #000000; stroke-width: 0.8; stroke-linejoin: miter; stroke-linecap: square"/>
   </g>
   <g id="patch_6">
    <path d="M 54.61 41.76 
L 356.04 41.76 
" style="fill: none; stroke: #000000; stroke-width: 0.8; stroke-linejoin: miter; stroke-linecap: square"/>
   </g>
   <g id="legend_1">
    <g id="patch_7">
     <path d="M 305.2025 64.438125 
L 349.04 64.438125 
Q 351.04 64.438125 351.04 62.438125 
L 351.04 48.76 
Q 351.04 46.76 349.04 46.76 
L 305.2025 46.76 
Q 303.2025 46.76 303.2025 48.76 
L 303.2025 62.438125 
Q 303.2025 64.438125 305.2025 64.438125 
z
" style="fill: #ffffff; opacity: 0.8; stroke: #cccccc; stroke-linejoin: miter"/>
    </g>
    <g id="line2d_12">
     <path d="M 307.2025 54.858438 
L 317.2025 54.858438 
L 327.2025 54.858438 
" style="fill: none; stroke: #ffa500; stroke-width: 1.5; stroke-linecap: square"/>
    </g>
    <g id="text_11">
     <!-- xx -->
     <g transform="translate(335.2025 58.358438)scale(0.1 -0.1)">
      <defs>
       <path id="DejaVuSans-78" d="M 3513 3500 
L 2247 1797 
L 3578 0 
L 2900 0 
L 1881 1375 
L 863 0 
L 184 0 
L 1544 1831 
L 300 3500 
L 978 3500 
L 1906 2253 
L 2834 3500 
L 3513 3500 
z
" transform="scale(0.015625)"/>
      </defs>
      <use xlink:href="#DejaVuSans-78"/>
      <use xlink:href="#DejaVuSans-78" x="59.179688"/>
     </g>
    </g>
   </g>
  </g>
  <g id="axes_2">
   <g id="patch_8">
    <path d="M 407.77 270.56 
L 709.2 270.56 
L 709.2 41.76 
L 407.77 41.76 
z
" style="fill: #ffffff"/>
   </g>
   <g id="matplotlib.axis_3">
    <g id="xtick_6">
     <g id="line2d_13">
      <g>
       <use xlink:href="#m7004c6d6a0" x="421.471364" y="270.56" style="stroke: #000000; stroke-width: 0.8"/>
      </g>
     </g>
     <g id="text_12">
      <!-- 0 -->
      <g transform="translate(418.290114 285.158437)scale(0.1 -0.1)">
       <use xlink:href="#DejaVuSans-30"/>
      </g>
     </g>
    </g>
    <g id="xtick_7">
     <g id="line2d_14">
      <g>
       <use xlink:href="#m7004c6d6a0" x="487.338" y="270.56" style="stroke: #000000; stroke-width: 0.8"/>
      </g>
     </g>
     <g id="text_13">
      <!-- 20 -->
      <g transform="translate(480.9755 285.158437)scale(0.1 -0.1)">
       <use xlink:href="#DejaVuSans-32"/>
       <use xlink:href="#DejaVuSans-30" x="63.623047"/>
      </g>
     </g>
    </g>
    <g id="xtick_8">
     <g id="line2d_15">
      <g>
       <use xlink:href="#m7004c6d6a0" x="553.204636" y="270.56" style="stroke: #000000; stroke-width: 0.8"/>
      </g>
     </g>
     <g id="text_14">
      <!-- 40 -->
      <g transform="translate(546.842136 285.158437)scale(0.1 -0.1)">
       <use xlink:href="#DejaVuSans-34"/>
       <use xlink:href="#DejaVuSans-30" x="63.623047"/>
      </g>
     </g>
    </g>
    <g id="xtick_9">
     <g id="line2d_16">
      <g>
       <use xlink:href="#m7004c6d6a0" x="619.071273" y="270.56" style="stroke: #000000; stroke-width: 0.8"/>
      </g>
     </g>
     <g id="text_15">
      <!-- 60 -->
      <g transform="translate(612.708773 285.158437)scale(0.1 -0.1)">
       <use xlink:href="#DejaVuSans-36"/>
       <use xlink:href="#DejaVuSans-30" x="63.623047"/>
      </g>
     </g>
    </g>
    <g id="xtick_10">
     <g id="line2d_17">
      <g>
       <use xlink:href="#m7004c6d6a0" x="684.937909" y="270.56" style="stroke: #000000; stroke-width: 0.8"/>
      </g>
     </g>
     <g id="text_16">
      <!-- 80 -->
      <g transform="translate(678.575409 285.158437)scale(0.1 -0.1)">
       <use xlink:href="#DejaVuSans-38"/>
       <use xlink:href="#DejaVuSans-30" x="63.623047"/>
      </g>
     </g>
    </g>
   </g>
   <g id="matplotlib.axis_4">
    <g id="ytick_6">
     <g id="line2d_18">
      <g>
       <use xlink:href="#m89f28bf961" x="407.77" y="260.16" style="stroke: #000000; stroke-width: 0.8"/>
      </g>
     </g>
     <g id="text_17">
      <!-- 0.0 -->
      <g transform="translate(384.866875 263.959219)scale(0.1 -0.1)">
       <use xlink:href="#DejaVuSans-30"/>
       <use xlink:href="#DejaVuSans-2e" x="63.623047"/>
       <use xlink:href="#DejaVuSans-30" x="95.410156"/>
      </g>
     </g>
    </g>
    <g id="ytick_7">
     <g id="line2d_19">
      <g>
       <use xlink:href="#m89f28bf961" x="407.77" y="227.82651" style="stroke: #000000; stroke-width: 0.8"/>
      </g>
     </g>
     <g id="text_18">
      <!-- 0.2 -->
      <g transform="translate(384.866875 231.625729)scale(0.1 -0.1)">
       <use xlink:href="#DejaVuSans-30"/>
       <use xlink:href="#DejaVuSans-2e" x="63.623047"/>
       <use xlink:href="#DejaVuSans-32" x="95.410156"/>
      </g>
     </g>
    </g>
    <g id="ytick_8">
     <g id="line2d_20">
      <g>
       <use xlink:href="#m89f28bf961" x="407.77" y="195.49302" style="stroke: #000000; stroke-width: 0.8"/>
      </g>
     </g>
     <g id="text_19">
      <!-- 0.4 -->
      <g transform="translate(384.866875 199.292239)scale(0.1 -0.1)">
       <use xlink:href="#DejaVuSans-30"/>
       <use xlink:href="#DejaVuSans-2e" x="63.623047"/>
       <use xlink:href="#DejaVuSans-34" x="95.410156"/>
      </g>
     </g>
    </g>
    <g id="ytick_9">
     <g id="line2d_21">
      <g>
       <use xlink:href="#m89f28bf961" x="407.77" y="163.15953" style="stroke: #000000; stroke-width: 0.8"/>
      </g>
     </g>
     <g id="text_20">
      <!-- 0.6 -->
      <g transform="translate(384.866875 166.958748)scale(0.1 -0.1)">
       <use xlink:href="#DejaVuSans-30"/>
       <use xlink:href="#DejaVuSans-2e" x="63.623047"/>
       <use xlink:href="#DejaVuSans-36" x="95.410156"/>
      </g>
     </g>
    </g>
    <g id="ytick_10">
     <g id="line2d_22">
      <g>
       <use xlink:href="#m89f28bf961" x="407.77" y="130.82604" style="stroke: #000000; stroke-width: 0.8"/>
      </g>
     </g>
     <g id="text_21">
      <!-- 0.8 -->
      <g transform="translate(384.866875 134.625258)scale(0.1 -0.1)">
       <use xlink:href="#DejaVuSans-30"/>
       <use xlink:href="#DejaVuSans-2e" x="63.623047"/>
       <use xlink:href="#DejaVuSans-38" x="95.410156"/>
      </g>
     </g>
    </g>
    <g id="ytick_11">
     <g id="line2d_23">
      <g>
       <use xlink:href="#m89f28bf961" x="407.77" y="98.492549" style="stroke: #000000; stroke-width: 0.8"/>
      </g>
     </g>
     <g id="text_22">
      <!-- 1.0 -->
      <g transform="translate(384.866875 102.291768)scale(0.1 -0.1)">
       <use xlink:href="#DejaVuSans-31"/>
       <use xlink:href="#DejaVuSans-2e" x="63.623047"/>
       <use xlink:href="#DejaVuSans-30" x="95.410156"/>
      </g>
     </g>
    </g>
    <g id="ytick_12">
     <g id="line2d_24">
      <g>
       <use xlink:href="#m89f28bf961" x="407.77" y="66.159059" style="stroke: #000000; stroke-width: 0.8"/>
      </g>
     </g>
     <g id="text_23">
      <!-- 1.2 -->
      <g transform="translate(384.866875 69.958278)scale(0.1 -0.1)">
       <use xlink:href="#DejaVuSans-31"/>
       <use xlink:href="#DejaVuSans-2e" x="63.623047"/>
       <use xlink:href="#DejaVuSans-32" x="95.410156"/>
      </g>
     </g>
    </g>
   </g>
   <g id="line2d_25">
    <path d="M 421.471364 257.357802 
L 421.745698 257.357802 
L 422.568702 248.903578 
L 423.117042 245.441872 
L 423.940045 241.396392 
L 424.763049 235.866543 
L 425.037383 235.898187 
L 426.957396 241.278613 
L 427.23173 241.266256 
L 427.506065 240.673244 
L 427.780399 239.554594 
L 428.054734 237.864094 
L 428.328739 235.409389 
L 428.877408 226.977478 
L 429.700412 206.202179 
L 430.249081 187.138371 
L 430.79775 155.639413 
L 431.34609 120.885832 
L 431.620424 109.873325 
L 431.894759 106.490015 
L 432.443428 112.659628 
L 432.717762 112.837631 
L 433.266432 107.687601 
L 433.540766 112.579941 
L 434.36344 153.452246 
L 435.186444 195.759181 
L 435.735113 211.370353 
L 437.106456 233.071749 
L 437.380791 235.557218 
L 437.655126 236.786367 
L 437.92946 236.650631 
L 438.203795 234.889458 
L 438.752464 226.760724 
L 439.300803 214.33599 
L 440.123807 189.471714 
L 440.672476 168.982287 
L 441.221145 139.930544 
L 442.592489 54.139392 
L 442.866823 52.16 
L 443.141158 57.221468 
L 443.689827 88.134613 
L 445.06117 172.816654 
L 445.609839 194.143835 
L 446.158508 208.309424 
L 446.707177 217.031192 
L 447.255846 220.846298 
L 447.529852 221.530145 
L 448.078521 221.484194 
L 448.352855 221.990333 
L 448.901524 225.106769 
L 449.175859 226.557967 
L 449.450193 226.861903 
L 449.724528 225.455996 
L 450.272868 218.154507 
L 450.547202 214.211677 
L 450.821537 211.982681 
L 451.095871 211.902146 
L 451.370206 212.4048 
L 451.64454 211.215713 
L 451.918875 207.240637 
L 452.467544 191.822884 
L 453.290218 164.934685 
L 453.564553 162.150435 
L 453.838887 163.319306 
L 454.387557 169.056979 
L 454.661891 170.695267 
L 454.936226 170.570173 
L 455.21056 168.169593 
L 456.033234 153.361903 
L 456.307569 152.499778 
L 456.856238 155.944201 
L 457.130573 153.512404 
L 458.227911 130.926062 
L 458.501916 129.533932 
L 458.77625 126.978574 
L 459.32492 120.225848 
L 459.599254 121.453678 
L 459.873589 128.127166 
L 460.696592 154.627619 
L 461.519267 173.702954 
L 462.34227 193.441904 
L 463.165274 205.581559 
L 463.713943 210.800645 
L 463.987948 211.718988 
L 464.262283 211.865118 
L 464.810952 211.438201 
L 465.085286 211.45693 
L 465.359621 211.955193 
L 465.633955 212.985735 
L 466.456959 217.980218 
L 467.553968 224.837309 
L 467.828302 225.136954 
L 468.102637 224.345313 
L 468.651306 220.495911 
L 469.199975 215.252378 
L 469.47398 214.14902 
L 469.748315 215.683372 
L 470.571318 227.177719 
L 470.845653 229.033053 
L 471.119987 229.841043 
L 471.394322 229.881066 
L 471.668657 229.10168 
L 471.942991 227.180108 
L 472.216996 223.669033 
L 472.765665 211.885267 
L 473.04 205.601295 
L 473.314334 201.980568 
L 473.588669 203.054721 
L 474.411673 218.051349 
L 474.960012 222.205986 
L 475.508681 224.603487 
L 475.783016 224.743023 
L 476.057351 223.170549 
L 476.331685 219.604318 
L 477.154689 205.586048 
L 477.429023 204.498141 
L 477.977363 206.717107 
L 478.251698 205.801399 
L 478.526032 202.098477 
L 479.349036 182.217893 
L 480.446045 158.067589 
L 480.720379 154.907562 
L 480.994714 157.064481 
L 481.543383 176.117949 
L 482.092052 191.424539 
L 483.73773 216.402108 
L 484.012064 218.402158 
L 484.560733 220.200082 
L 484.835068 220.547878 
L 485.109402 220.333337 
L 485.383737 218.842612 
L 485.657742 215.116626 
L 485.932077 208.464036 
L 487.029415 174.082397 
L 487.303749 178.011427 
L 488.400758 212.407197 
L 488.949427 220.587872 
L 489.223762 222.322592 
L 490.046765 224.850309 
L 490.869769 227.392299 
L 491.966778 231.555976 
L 492.515447 232.363762 
L 492.789782 232.526904 
L 493.064116 232.281989 
L 493.338451 231.341828 
L 493.88679 227.220302 
L 494.161125 225.181918 
L 494.435459 224.29321 
L 494.709794 224.805349 
L 495.532798 228.487329 
L 496.081467 229.849995 
L 496.355801 230.339456 
L 496.629806 230.372885 
L 496.904141 229.540093 
L 497.178476 227.624581 
L 497.727145 222.366961 
L 498.001479 221.037392 
L 498.275814 221.248067 
L 498.824483 223.32982 
L 499.372823 224.25395 
L 499.647157 224.491346 
L 499.921492 224.45548 
L 500.195826 223.912787 
L 500.470161 222.784054 
L 501.01883 219.058206 
L 501.567499 215.631577 
L 501.841833 215.70099 
L 502.664508 220.1379 
L 503.487511 222.12197 
L 503.761846 222.261108 
L 504.03618 220.58521 
L 504.858855 207.645497 
L 505.133189 207.356289 
L 505.407524 211.196041 
L 505.956193 221.489437 
L 506.230527 224.38871 
L 506.504862 225.920401 
L 506.779196 226.657902 
L 507.327866 227.245147 
L 507.876205 227.760711 
L 509.247878 229.561525 
L 509.796547 229.643602 
L 510.344887 229.505129 
L 511.16789 229.001984 
L 511.990894 228.46162 
L 512.539563 228.453637 
L 512.813898 228.113424 
L 513.087903 227.237518 
L 514.185241 221.391216 
L 514.459576 220.849552 
L 514.73391 220.904812 
L 515.008245 221.340632 
L 515.556914 223.059507 
L 516.928257 229.022524 
L 517.202592 229.454569 
L 517.476926 229.593498 
L 518.29993 229.458753 
L 518.84827 230.038103 
L 520.219942 232.072363 
L 520.768611 232.445439 
L 521.042946 232.371354 
L 521.316951 231.807125 
L 521.591286 230.620765 
L 522.139955 227.305415 
L 522.414289 226.467385 
L 522.688624 226.788094 
L 523.511627 230.156422 
L 523.785962 229.806222 
L 524.059967 227.759361 
L 524.608636 217.993705 
L 525.157305 207.541505 
L 525.43164 206.699828 
L 525.705974 209.906457 
L 526.528978 225.738405 
L 526.802983 228.582124 
L 527.077318 230.15251 
L 527.351652 230.822901 
L 527.625987 230.909017 
L 528.174656 230.501856 
L 528.44899 230.517539 
L 528.99766 230.928118 
L 529.271994 230.816611 
L 529.820334 229.739425 
L 530.094668 229.237125 
L 530.369003 229.090033 
L 530.643337 229.314736 
L 531.192007 230.145065 
L 531.466341 230.336277 
L 531.740676 230.240477 
L 532.01501 229.96108 
L 532.289015 229.873446 
L 532.56335 230.221471 
L 533.112019 231.962091 
L 533.660688 233.716466 
L 534.209357 234.88487 
L 534.758026 235.4404 
L 536.12937 236.236774 
L 536.403704 236.1669 
L 536.678039 235.786908 
L 537.226708 234.683924 
L 537.501042 234.439692 
L 538.323717 234.468415 
L 538.872386 234.174302 
L 539.14672 234.210819 
L 539.695389 234.916035 
L 540.243729 235.65762 
L 540.518064 235.743666 
L 541.615402 235.485979 
L 542.164071 235.255839 
L 542.986745 234.816611 
L 543.535414 234.711511 
L 544.084083 234.864955 
L 544.632752 235.123894 
L 545.181421 234.90277 
L 545.729761 234.739244 
L 546.27843 234.834435 
L 546.827099 235.144022 
L 547.375768 235.50568 
L 547.650103 235.566142 
L 548.198772 235.239802 
L 548.747112 234.461782 
L 549.570115 233.077507 
L 549.84445 233.127629 
L 550.118785 233.59931 
L 551.215793 236.256659 
L 552.313132 237.874911 
L 552.587466 237.982606 
L 552.861801 237.880774 
L 553.41047 237.102476 
L 553.958809 236.3639 
L 554.781813 236.223208 
L 555.056148 235.916858 
L 555.604817 234.710239 
L 556.153486 232.603975 
L 556.42782 230.80419 
L 557.524829 220.68454 
L 557.799164 220.820247 
L 558.347833 224.388745 
L 559.170836 229.95536 
L 559.719176 232.386877 
L 559.993511 232.879216 
L 560.267845 232.937943 
L 561.090849 232.09319 
L 561.365183 232.159406 
L 561.913852 233.182785 
L 562.462192 234.218629 
L 563.285196 235.429771 
L 563.833865 236.368116 
L 564.382534 236.766296 
L 564.656868 236.975091 
L 564.930874 237.420707 
L 566.028212 239.940643 
L 566.302546 239.879239 
L 566.851215 238.844341 
L 567.12555 238.33445 
L 567.399885 238.149455 
L 567.67389 238.371631 
L 568.222559 239.272224 
L 568.496893 239.482824 
L 568.771228 239.462717 
L 569.319897 238.970567 
L 570.142901 237.944104 
L 570.965575 237.503228 
L 571.514244 237.23907 
L 571.788579 237.27485 
L 572.062913 237.555057 
L 572.611582 238.860839 
L 573.159922 240.237685 
L 573.434256 240.495897 
L 573.708591 240.275018 
L 574.25726 239.491038 
L 574.531595 239.871236 
L 575.080264 242.533079 
L 575.628933 244.910779 
L 575.902938 245.480815 
L 576.177273 245.690038 
L 576.725942 245.471779 
L 577.000276 245.372592 
L 577.274611 245.482338 
L 577.82328 246.302405 
L 578.371949 247.268141 
L 578.645954 247.577625 
L 578.920289 247.690423 
L 579.194623 247.596649 
L 580.017627 246.722265 
L 581.114965 246.06389 
L 581.663305 245.090042 
L 581.937639 244.114927 
L 582.760643 239.258432 
L 583.034977 239.001346 
L 583.309312 240.174668 
L 584.131986 245.690075 
L 584.680655 247.627423 
L 585.229324 248.751455 
L 585.777993 249.534688 
L 586.326663 249.8365 
L 586.875002 249.976378 
L 587.423671 250.573124 
L 587.97234 251.407439 
L 588.246675 251.648138 
L 588.52101 251.666753 
L 589.069679 251.182914 
L 589.892353 250.538989 
L 590.989691 250.00181 
L 591.53836 250.197887 
L 592.087029 250.46884 
L 592.361034 250.373795 
L 593.184038 249.531794 
L 593.458373 249.537154 
L 594.007042 250.191291 
L 594.555711 250.903426 
L 595.65272 252.033822 
L 596.750058 253.108577 
L 597.024392 253.185476 
L 597.298727 253.06205 
L 597.847067 252.415542 
L 598.395736 251.782707 
L 598.67007 251.694157 
L 598.944405 251.766473 
L 599.767408 252.554869 
L 600.315748 253.058214 
L 600.864417 253.251163 
L 601.961755 253.182746 
L 603.607433 252.744531 
L 605.80178 252.91094 
L 606.350449 252.382439 
L 606.899118 251.811748 
L 607.173453 251.753636 
L 607.722122 252.090747 
L 609.3678 253.215988 
L 609.916469 253.200881 
L 610.465138 253.141311 
L 611.013807 253.322494 
L 612.385151 254.54078 
L 612.93382 255.251175 
L 613.756823 256.580815 
L 614.030828 256.794112 
L 614.579498 256.874271 
L 615.128167 256.801843 
L 615.676836 256.996458 
L 617.322514 258.19979 
L 617.871183 258.365673 
L 619.242855 258.380557 
L 620.06553 258.422276 
L 623.08288 258.975817 
L 624.728888 259.07579 
L 627.745909 259.614069 
L 628.843247 259.69109 
L 630.21492 259.786241 
L 632.957936 259.882195 
L 636.249292 259.994453 
L 639.266642 260.086985 
L 644.204005 259.979311 
L 645.575678 259.906929 
L 646.947021 260.087862 
L 648.867363 260.106079 
L 695.498636 260.16 
L 695.498636 260.16 
" clip-path="url(#pe044110cac)" style="fill: none; stroke: #0000ff; stroke-width: 1.5; stroke-linecap: square"/>
   </g>
   <g id="patch_9">
    <path d="M 407.77 270.56 
L 407.77 41.76 
" style="fill: none; stroke: #000000; stroke-width: 0.8; stroke-linejoin: miter; stroke-linecap: square"/>
   </g>
   <g id="patch_10">
    <path d="M 709.2 270.56 
L 709.2 41.76 
" style="fill: none; stroke: #000000; stroke-width: 0.8; stroke-linejoin: miter; stroke-linecap: square"/>
   </g>
   <g id="patch_11">
    <path d="M 407.77 270.56 
L 709.2 270.56 
" style="fill: none; stroke: #000000; stroke-width: 0.8; stroke-linejoin: miter; stroke-linecap: square"/>
   </g>
   <g id="patch_12">
    <path d="M 407.77 41.76 
L 709.2 41.76 
" style="fill: none; stroke: #000000; stroke-width: 0.8; stroke-linejoin: miter; stroke-linecap: square"/>
   </g>
   <g id="legend_2">
    <g id="patch_13">
     <path d="M 658.3625 64.438125 
L 702.2 64.438125 
Q 704.2 64.438125 704.2 62.438125 
L 704.2 48.76 
Q 704.2 46.76 702.2 46.76 
L 658.3625 46.76 
Q 656.3625 46.76 656.3625 48.76 
L 656.3625 62.438125 
Q 656.3625 64.438125 658.3625 64.438125 
z
" style="fill: #ffffff; opacity: 0.8; stroke: #cccccc; stroke-linejoin: miter"/>
    </g>
    <g id="line2d_26">
     <path d="M 660.3625 54.858438 
L 670.3625 54.858438 
L 680.3625 54.858438 
" style="fill: none; stroke: #0000ff; stroke-width: 1.5; stroke-linecap: square"/>
    </g>
    <g id="text_24">
     <!-- yy -->
     <g transform="translate(688.3625 58.358438)scale(0.1 -0.1)">
      <defs>
       <path id="DejaVuSans-79" d="M 2059 -325 
Q 1816 -950 1584 -1140 
Q 1353 -1331 966 -1331 
L 506 -1331 
L 506 -850 
L 844 -850 
Q 1081 -850 1212 -737 
Q 1344 -625 1503 -206 
L 1606 56 
L 191 3500 
L 800 3500 
L 1894 763 
L 2988 3500 
L 3597 3500 
L 2059 -325 
z
" transform="scale(0.015625)"/>
      </defs>
      <use xlink:href="#DejaVuSans-79"/>
      <use xlink:href="#DejaVuSans-79" x="59.179688"/>
     </g>
    </g>
   </g>
  </g>
  <g id="axes_3">
   <g id="patch_14">
    <path d="M 54.61 527.24 
L 356.04 527.24 
L 356.04 298.44 
L 54.61 298.44 
z
" style="fill: #ffffff"/>
   </g>
   <g id="matplotlib.axis_5">
    <g id="xtick_11">
     <g id="line2d_27">
      <g>
       <use xlink:href="#m7004c6d6a0" x="68.311364" y="527.24" style="stroke: #000000; stroke-width: 0.8"/>
      </g>
     </g>
     <g id="text_25">
      <!-- 0 -->
      <g transform="translate(65.130114 541.838437)scale(0.1 -0.1)">
       <use xlink:href="#DejaVuSans-30"/>
      </g>
     </g>
    </g>
    <g id="xtick_12">
     <g id="line2d_28">
      <g>
       <use xlink:href="#m7004c6d6a0" x="134.178" y="527.24" style="stroke: #000000; stroke-width: 0.8"/>
      </g>
     </g>
     <g id="text_26">
      <!-- 20 -->
      <g transform="translate(127.8155 541.838437)scale(0.1 -0.1)">
       <use xlink:href="#DejaVuSans-32"/>
       <use xlink:href="#DejaVuSans-30" x="63.623047"/>
      </g>
     </g>
    </g>
    <g id="xtick_13">
     <g id="line2d_29">
      <g>
       <use xlink:href="#m7004c6d6a0" x="200.044636" y="527.24" style="stroke: #000000; stroke-width: 0.8"/>
      </g>
     </g>
     <g id="text_27">
      <!-- 40 -->
      <g transform="translate(193.682136 541.838437)scale(0.1 -0.1)">
       <use xlink:href="#DejaVuSans-34"/>
       <use xlink:href="#DejaVuSans-30" x="63.623047"/>
      </g>
     </g>
    </g>
    <g id="xtick_14">
     <g id="line2d_30">
      <g>
       <use xlink:href="#m7004c6d6a0" x="265.911273" y="527.24" style="stroke: #000000; stroke-width: 0.8"/>
      </g>
     </g>
     <g id="text_28">
      <!-- 60 -->
      <g transform="translate(259.548773 541.838437)scale(0.1 -0.1)">
       <use xlink:href="#DejaVuSans-36"/>
       <use xlink:href="#DejaVuSans-30" x="63.623047"/>
      </g>
     </g>
    </g>
    <g id="xtick_15">
     <g id="line2d_31">
      <g>
       <use xlink:href="#m7004c6d6a0" x="331.777909" y="527.24" style="stroke: #000000; stroke-width: 0.8"/>
      </g>
     </g>
     <g id="text_29">
      <!-- 80 -->
      <g transform="translate(325.415409 541.838437)scale(0.1 -0.1)">
       <use xlink:href="#DejaVuSans-38"/>
       <use xlink:href="#DejaVuSans-30" x="63.623047"/>
      </g>
     </g>
    </g>
   </g>
   <g id="matplotlib.axis_6">
    <g id="ytick_13">
     <g id="line2d_32">
      <g>
       <use xlink:href="#m89f28bf961" x="54.61" y="516.84" style="stroke: #000000; stroke-width: 0.8"/>
      </g>
     </g>
     <g id="text_30">
      <!-- 0.0 -->
      <g transform="translate(31.706875 520.639219)scale(0.1 -0.1)">
       <use xlink:href="#DejaVuSans-30"/>
       <use xlink:href="#DejaVuSans-2e" x="63.623047"/>
       <use xlink:href="#DejaVuSans-30" x="95.410156"/>
      </g>
     </g>
    </g>
    <g id="ytick_14">
     <g id="line2d_33">
      <g>
       <use xlink:href="#m89f28bf961" x="54.61" y="482.198858" style="stroke: #000000; stroke-width: 0.8"/>
      </g>
     </g>
     <g id="text_31">
      <!-- 0.2 -->
      <g transform="translate(31.706875 485.998077)scale(0.1 -0.1)">
       <use xlink:href="#DejaVuSans-30"/>
       <use xlink:href="#DejaVuSans-2e" x="63.623047"/>
       <use xlink:href="#DejaVuSans-32" x="95.410156"/>
      </g>
     </g>
    </g>
    <g id="ytick_15">
     <g id="line2d_34">
      <g>
       <use xlink:href="#m89f28bf961" x="54.61" y="447.557716" style="stroke: #000000; stroke-width: 0.8"/>
      </g>
     </g>
     <g id="text_32">
      <!-- 0.4 -->
      <g transform="translate(31.706875 451.356935)scale(0.1 -0.1)">
       <use xlink:href="#DejaVuSans-30"/>
       <use xlink:href="#DejaVuSans-2e" x="63.623047"/>
       <use xlink:href="#DejaVuSans-34" x="95.410156"/>
      </g>
     </g>
    </g>
    <g id="ytick_16">
     <g id="line2d_35">
      <g>
       <use xlink:href="#m89f28bf961" x="54.61" y="412.916574" style="stroke: #000000; stroke-width: 0.8"/>
      </g>
     </g>
     <g id="text_33">
      <!-- 0.6 -->
      <g transform="translate(31.706875 416.715793)scale(0.1 -0.1)">
       <use xlink:href="#DejaVuSans-30"/>
       <use xlink:href="#DejaVuSans-2e" x="63.623047"/>
       <use xlink:href="#DejaVuSans-36" x="95.410156"/>
      </g>
     </g>
    </g>
    <g id="ytick_17">
     <g id="line2d_36">
      <g>
       <use xlink:href="#m89f28bf961" x="54.61" y="378.275432" style="stroke: #000000; stroke-width: 0.8"/>
      </g>
     </g>
     <g id="text_34">
      <!-- 0.8 -->
      <g transform="translate(31.706875 382.074651)scale(0.1 -0.1)">
       <use xlink:href="#DejaVuSans-30"/>
       <use xlink:href="#DejaVuSans-2e" x="63.623047"/>
       <use xlink:href="#DejaVuSans-38" x="95.410156"/>
      </g>
     </g>
    </g>
    <g id="ytick_18">
     <g id="line2d_37">
      <g>
       <use xlink:href="#m89f28bf961" x="54.61" y="343.63429" style="stroke: #000000; stroke-width: 0.8"/>
      </g>
     </g>
     <g id="text_35">
      <!-- 1.0 -->
      <g transform="translate(31.706875 347.433509)scale(0.1 -0.1)">
       <use xlink:href="#DejaVuSans-31"/>
       <use xlink:href="#DejaVuSans-2e" x="63.623047"/>
       <use xlink:href="#DejaVuSans-30" x="95.410156"/>
      </g>
     </g>
    </g>
    <g id="ytick_19">
     <g id="line2d_38">
      <g>
       <use xlink:href="#m89f28bf961" x="54.61" y="308.993148" style="stroke: #000000; stroke-width: 0.8"/>
      </g>
     </g>
     <g id="text_36">
      <!-- 1.2 -->
      <g transform="translate(31.706875 312.792367)scale(0.1 -0.1)">
       <use xlink:href="#DejaVuSans-31"/>
       <use xlink:href="#DejaVuSans-2e" x="63.623047"/>
       <use xlink:href="#DejaVuSans-32" x="95.410156"/>
      </g>
     </g>
    </g>
   </g>
   <g id="line2d_39">
    <path d="M 68.311364 512.01646 
L 68.585698 512.01646 
L 69.408702 498.60541 
L 69.957042 483.939603 
L 70.505711 466.271677 
L 70.780045 465.097713 
L 72.974392 486.558725 
L 73.523061 489.481318 
L 74.346065 494.524601 
L 74.620399 494.725417 
L 74.894734 493.828269 
L 75.443074 489.568815 
L 76.266077 481.714249 
L 76.540412 480.19559 
L 77.363415 477.694169 
L 77.911755 474.11401 
L 78.460424 468.071773 
L 79.283428 455.952101 
L 79.557762 455.773693 
L 79.832097 459.245244 
L 80.654771 475.745658 
L 80.929106 477.499138 
L 81.20344 476.600538 
L 81.477775 473.567902 
L 82.026444 462.675585 
L 82.849448 444.448196 
L 83.123782 441.086647 
L 83.397787 439.323512 
L 83.672122 439.031305 
L 83.946456 439.018088 
L 84.220791 437.561668 
L 84.495126 433.677832 
L 84.76946 427.116342 
L 85.318129 404.75218 
L 85.866798 362.343654 
L 86.415138 308.84 
L 86.689473 309.662259 
L 87.512476 403.487979 
L 87.786811 416.130446 
L 88.061145 420.676649 
L 88.33548 421.207816 
L 88.609814 421.07082 
L 88.88382 423.207075 
L 89.432489 437.57231 
L 89.706823 444.96483 
L 89.981158 448.895593 
L 90.255492 448.754815 
L 90.529827 444.958794 
L 91.626836 419.080789 
L 91.90117 419.004466 
L 92.175505 422.320027 
L 92.724174 433.643357 
L 94.369852 473.847047 
L 94.918521 480.519975 
L 95.46719 483.910494 
L 96.015859 486.046259 
L 96.564528 489.310314 
L 97.112868 493.008315 
L 97.661537 495.212052 
L 97.935871 495.665853 
L 98.210206 495.758901 
L 98.758875 495.316606 
L 99.03321 494.966707 
L 99.307544 494.310946 
L 99.581879 492.801126 
L 99.855884 489.728982 
L 100.404553 477.601578 
L 100.953222 456.816332 
L 101.501891 420.83485 
L 102.05056 372.299451 
L 102.324895 362.481661 
L 102.5989 368.881622 
L 103.147569 395.789445 
L 103.421904 404.301506 
L 103.696238 407.913285 
L 103.970573 407.465271 
L 104.519242 402.048879 
L 104.793576 401.965974 
L 105.890585 413.246878 
L 106.16492 413.242734 
L 106.439254 415.169451 
L 106.713589 421.039473 
L 107.536592 445.184244 
L 107.810927 447.210579 
L 108.084932 445.282295 
L 108.359267 440.066297 
L 109.456605 410.339299 
L 109.730939 409.175463 
L 110.005274 411.496229 
L 110.827948 423.081326 
L 111.376617 426.826434 
L 111.650952 428.638004 
L 111.925286 432.107265 
L 112.473955 445.621288 
L 113.022624 459.675404 
L 113.570964 466.594797 
L 113.845299 468.045094 
L 114.119633 468.500138 
L 114.393968 467.94579 
L 114.668302 466.396776 
L 115.216971 460.684781 
L 116.039975 446.996145 
L 116.588315 439.790776 
L 116.862649 438.687654 
L 117.136984 438.856443 
L 117.411318 439.39918 
L 117.685653 439.460325 
L 117.959987 438.63959 
L 118.508657 436.242928 
L 118.782991 435.974567 
L 119.056996 436.185769 
L 119.331331 436.566168 
L 119.605665 437.673398 
L 119.88 440.401126 
L 120.428669 450.513621 
L 121.251673 465.446035 
L 121.526007 467.819251 
L 121.800012 468.471185 
L 122.074347 467.817467 
L 122.623016 464.654614 
L 123.171685 459.981252 
L 123.720354 452.590198 
L 124.543028 439.956963 
L 125.091698 434.496734 
L 125.914701 422.58523 
L 126.189036 424.232924 
L 127.560379 452.704054 
L 128.383383 460.911475 
L 128.657717 462.395636 
L 128.932052 462.416197 
L 129.206386 460.628077 
L 129.754726 454.37511 
L 130.029061 453.045819 
L 130.303395 454.384314 
L 131.400733 466.678438 
L 131.949402 470.227737 
L 132.223737 471.472086 
L 132.497742 472.162105 
L 132.772077 471.99356 
L 133.046411 470.664783 
L 133.869415 463.197303 
L 134.143749 462.793131 
L 134.692418 465.126713 
L 134.966753 465.320142 
L 135.240758 463.753266 
L 136.338096 450.587356 
L 136.612431 450.1113 
L 136.886765 450.93393 
L 137.1611 452.633248 
L 137.709769 458.85016 
L 138.532443 469.960425 
L 139.081112 473.48636 
L 139.355447 474.13832 
L 139.629782 473.760537 
L 139.904116 471.8974 
L 140.452785 463.94145 
L 140.72679 459.852744 
L 141.001125 457.77045 
L 141.275459 458.207318 
L 141.824129 461.183052 
L 142.647132 462.998118 
L 143.195801 465.046936 
L 143.469806 466.836466 
L 144.567145 477.496732 
L 144.841479 477.822783 
L 145.115814 477.765727 
L 145.390148 477.973938 
L 145.664483 478.432199 
L 145.938817 478.479331 
L 146.212823 477.317485 
L 146.487157 474.319694 
L 146.761492 469.203516 
L 147.85883 438.732444 
L 148.133164 438.379218 
L 148.407499 444.664824 
L 148.955839 463.267893 
L 149.504508 473.442603 
L 150.053177 478.811315 
L 150.327511 480.732712 
L 150.601846 481.72499 
L 150.87618 481.368503 
L 151.150515 479.45718 
L 152.247524 467.000294 
L 152.521858 467.418286 
L 153.893531 475.835445 
L 154.441871 476.85188 
L 154.716205 477.092283 
L 154.99054 477.144137 
L 155.813543 476.568968 
L 156.087878 476.945198 
L 156.910882 478.902759 
L 157.184887 478.977499 
L 158.00789 478.23027 
L 158.282225 477.705365 
L 158.830894 475.185556 
L 159.105229 473.848252 
L 159.379563 473.277804 
L 159.653898 473.782309 
L 160.202237 476.70433 
L 160.750906 479.459031 
L 161.025241 480.102004 
L 161.299576 480.062482 
L 161.57391 479.334642 
L 162.396914 475.624046 
L 162.670919 475.531187 
L 162.945253 476.472275 
L 163.493923 479.196741 
L 163.768257 479.667491 
L 164.042592 479.412962 
L 164.591261 478.325637 
L 164.865595 478.337176 
L 165.13993 479.061763 
L 166.511273 485.23075 
L 166.785608 485.5423 
L 167.059942 485.524789 
L 167.334277 484.904472 
L 167.608611 483.053114 
L 168.156951 474.461397 
L 168.70562 465.652525 
L 168.979955 464.008148 
L 169.528624 462.136546 
L 169.802958 461.146984 
L 170.077293 461.708162 
L 170.351627 464.505403 
L 171.174302 475.159695 
L 171.722971 478.397066 
L 171.997305 478.864082 
L 172.27164 478.253196 
L 172.820309 474.921691 
L 173.094643 474.150391 
L 173.368978 474.950113 
L 174.465987 482.368927 
L 174.740321 482.696204 
L 175.014656 482.622873 
L 175.28899 482.688646 
L 175.563325 483.33759 
L 176.660334 488.434657 
L 176.934668 488.71675 
L 177.209003 488.642635 
L 177.483337 488.367167 
L 178.032007 487.204874 
L 178.580676 486.117145 
L 178.85501 486.179799 
L 179.40335 487.193411 
L 179.952019 488.188583 
L 180.226354 488.475906 
L 180.500688 488.546446 
L 180.775023 488.300213 
L 181.323692 487.426951 
L 181.598026 487.313377 
L 182.420701 487.879413 
L 182.695035 487.780857 
L 183.518039 486.568568 
L 184.066708 485.700308 
L 184.889382 483.858122 
L 185.163717 483.617932 
L 185.438051 483.717746 
L 185.98672 484.15799 
L 186.261055 484.152889 
L 186.809724 483.607867 
L 187.358064 483.092163 
L 187.632398 483.191303 
L 188.729736 484.573902 
L 189.004071 484.529031 
L 189.55274 483.942364 
L 190.10108 483.210192 
L 190.375414 483.173727 
L 190.649749 483.650963 
L 190.924083 484.746454 
L 192.021421 491.18793 
L 192.569761 492.906196 
L 193.11843 493.962844 
L 193.392765 494.134564 
L 193.667099 493.962155 
L 194.764438 491.984376 
L 195.038772 491.885271 
L 195.587112 492.074509 
L 196.135781 492.263975 
L 196.68445 491.987101 
L 197.781788 491.043634 
L 199.153132 489.429093 
L 199.427466 489.475509 
L 200.524804 490.056877 
L 200.798809 490.074702 
L 201.073144 489.858364 
L 201.347478 489.339303 
L 201.896148 487.691192 
L 202.444817 485.556409 
L 202.719151 483.975607 
L 203.81616 475.078425 
L 204.090495 475.17108 
L 204.639164 476.825014 
L 204.913498 476.706302 
L 205.462167 475.944885 
L 205.736502 475.73538 
L 206.559176 474.470286 
L 206.833511 474.979403 
L 207.656514 478.250438 
L 207.930849 478.383486 
L 208.205183 478.288718 
L 208.479518 478.518249 
L 208.753852 479.343006 
L 209.302192 482.740484 
L 209.850861 486.327805 
L 210.125196 487.470372 
L 210.39953 488.015371 
L 210.673865 488.149311 
L 210.948199 488.158589 
L 211.222534 488.458173 
L 211.496868 489.316873 
L 212.045208 492.533428 
L 212.593877 495.726548 
L 213.142546 497.504723 
L 213.416881 497.850161 
L 213.691215 497.849934 
L 213.96555 497.521006 
L 214.51389 496.249866 
L 215.062559 494.989364 
L 215.611228 494.320182 
L 216.159897 493.994016 
L 216.708566 493.875247 
L 216.982901 493.986807 
L 217.256906 494.27247 
L 217.53124 494.808535 
L 218.079909 496.650268 
L 218.902913 499.501653 
L 219.451582 500.340716 
L 220.548591 501.473306 
L 221.371595 502.010856 
L 222.742938 503.406653 
L 223.840276 505.075409 
L 224.114611 505.233046 
L 224.66328 505.219028 
L 225.485954 504.915949 
L 226.034623 504.469088 
L 227.406296 502.941979 
L 227.954965 503.154678 
L 230.149312 504.769976 
L 230.697981 505.164449 
L 231.520655 505.404151 
L 232.069324 505.533146 
L 232.617993 505.418812 
L 233.166663 505.285537 
L 233.715002 505.596063 
L 234.263671 506.178718 
L 234.538006 506.353317 
L 234.81234 506.322112 
L 235.086675 506.116206 
L 237.281022 503.232552 
L 237.555357 503.220667 
L 238.104026 503.622904 
L 239.749704 505.262425 
L 240.298373 506.175473 
L 241.395711 508.230773 
L 241.670045 508.429509 
L 241.944051 508.452966 
L 242.49272 508.038698 
L 243.041389 507.609276 
L 243.315723 507.575678 
L 244.138727 507.947694 
L 244.687067 507.880466 
L 245.51007 507.736903 
L 246.058739 507.85595 
L 246.607408 508.386815 
L 247.430083 509.499845 
L 247.978752 509.740882 
L 249.07609 509.641617 
L 249.624759 509.380736 
L 250.173099 508.879696 
L 250.996102 507.736065 
L 251.270437 507.662693 
L 251.544771 507.848674 
L 252.916115 509.620107 
L 253.190449 509.661947 
L 253.739118 509.434811 
L 255.110791 508.601832 
L 255.384796 508.671734 
L 255.933465 509.366432 
L 257.030804 511.103852 
L 257.305138 511.292736 
L 257.579473 511.327607 
L 258.127812 511.156974 
L 258.402147 511.20721 
L 258.676481 511.448237 
L 259.225151 512.404874 
L 259.77382 513.455697 
L 260.322489 514.040432 
L 260.596823 514.097417 
L 260.870828 513.984772 
L 261.968167 513.046532 
L 262.242501 513.163297 
L 263.339839 514.332165 
L 263.888179 514.49441 
L 264.436848 514.369211 
L 264.711183 514.112958 
L 265.259852 513.040242 
L 265.808521 511.911848 
L 266.082855 511.828117 
L 266.356861 512.145279 
L 267.454199 514.529937 
L 268.002868 515.045721 
L 268.551537 515.263683 
L 269.374211 515.232426 
L 270.471549 515.030707 
L 271.020218 515.152577 
L 273.214565 516.023062 
L 275.134578 516.354272 
L 280.071941 516.420627 
L 281.443614 516.621221 
L 286.106642 516.721935 
L 288.300989 516.781268 
L 342.338636 516.84 
L 342.338636 516.84 
" clip-path="url(#p2c56d4724e)" style="fill: none; stroke: #ff0000; stroke-width: 1.5; stroke-linecap: square"/>
   </g>
   <g id="patch_15">
    <path d="M 54.61 527.24 
L 54.61 298.44 
" style="fill: none; stroke: #000000; stroke-width: 0.8; stroke-linejoin: miter; stroke-linecap: square"/>
   </g>
   <g id="patch_16">
    <path d="M 356.04 527.24 
L 356.04 298.44 
" style="fill: none; stroke: #000000; stroke-width: 0.8; stroke-linejoin: miter; stroke-linecap: square"/>
   </g>
   <g id="patch_17">
    <path d="M 54.61 527.24 
L 356.04 527.24 
" style="fill: none; stroke: #000000; stroke-width: 0.8; stroke-linejoin: miter; stroke-linecap: square"/>
   </g>
   <g id="patch_18">
    <path d="M 54.61 298.44 
L 356.04 298.44 
" style="fill: none; stroke: #000000; stroke-width: 0.8; stroke-linejoin: miter; stroke-linecap: square"/>
   </g>
   <g id="legend_3">
    <g id="patch_19">
     <path d="M 306.543125 321.118125 
L 349.04 321.118125 
Q 351.04 321.118125 351.04 319.118125 
L 351.04 305.44 
Q 351.04 303.44 349.04 303.44 
L 306.543125 303.44 
Q 304.543125 303.44 304.543125 305.44 
L 304.543125 319.118125 
Q 304.543125 321.118125 306.543125 321.118125 
z
" style="fill: #ffffff; opacity: 0.8; stroke: #cccccc; stroke-linejoin: miter"/>
    </g>
    <g id="line2d_40">
     <path d="M 308.543125 311.538437 
L 318.543125 311.538437 
L 328.543125 311.538437 
" style="fill: none; stroke: #ff0000; stroke-width: 1.5; stroke-linecap: square"/>
    </g>
    <g id="text_37">
     <!-- zz -->
     <g transform="translate(336.543125 315.038437)scale(0.1 -0.1)">
      <defs>
       <path id="DejaVuSans-7a" d="M 353 3500 
L 3084 3500 
L 3084 2975 
L 922 459 
L 3084 459 
L 3084 0 
L 275 0 
L 275 525 
L 2438 3041 
L 353 3041 
L 353 3500 
z
" transform="scale(0.015625)"/>
      </defs>
      <use xlink:href="#DejaVuSans-7a"/>
      <use xlink:href="#DejaVuSans-7a" x="52.490234"/>
     </g>
    </g>
   </g>
  </g>
  <g id="axes_4">
   <g id="patch_20">
    <path d="M 407.77 527.24 
L 709.2 527.24 
L 709.2 298.44 
L 407.77 298.44 
z
" style="fill: #ffffff"/>
   </g>
   <g id="matplotlib.axis_7">
    <g id="xtick_16">
     <g id="line2d_41">
      <g>
       <use xlink:href="#m7004c6d6a0" x="421.471364" y="527.24" style="stroke: #000000; stroke-width: 0.8"/>
      </g>
     </g>
     <g id="text_38">
      <!-- 0 -->
      <g transform="translate(418.290114 541.838437)scale(0.1 -0.1)">
       <use xlink:href="#DejaVuSans-30"/>
      </g>
     </g>
    </g>
    <g id="xtick_17">
     <g id="line2d_42">
      <g>
       <use xlink:href="#m7004c6d6a0" x="487.338" y="527.24" style="stroke: #000000; stroke-width: 0.8"/>
      </g>
     </g>
     <g id="text_39">
      <!-- 20 -->
      <g transform="translate(480.9755 541.838437)scale(0.1 -0.1)">
       <use xlink:href="#DejaVuSans-32"/>
       <use xlink:href="#DejaVuSans-30" x="63.623047"/>
      </g>
     </g>
    </g>
    <g id="xtick_18">
     <g id="line2d_43">
      <g>
       <use xlink:href="#m7004c6d6a0" x="553.204636" y="527.24" style="stroke: #000000; stroke-width: 0.8"/>
      </g>
     </g>
     <g id="text_40">
      <!-- 40 -->
      <g transform="translate(546.842136 541.838437)scale(0.1 -0.1)">
       <use xlink:href="#DejaVuSans-34"/>
       <use xlink:href="#DejaVuSans-30" x="63.623047"/>
      </g>
     </g>
    </g>
    <g id="xtick_19">
     <g id="line2d_44">
      <g>
       <use xlink:href="#m7004c6d6a0" x="619.071273" y="527.24" style="stroke: #000000; stroke-width: 0.8"/>
      </g>
     </g>
     <g id="text_41">
      <!-- 60 -->
      <g transform="translate(612.708773 541.838437)scale(0.1 -0.1)">
       <use xlink:href="#DejaVuSans-36"/>
       <use xlink:href="#DejaVuSans-30" x="63.623047"/>
      </g>
     </g>
    </g>
    <g id="xtick_20">
     <g id="line2d_45">
      <g>
       <use xlink:href="#m7004c6d6a0" x="684.937909" y="527.24" style="stroke: #000000; stroke-width: 0.8"/>
      </g>
     </g>
     <g id="text_42">
      <!-- 80 -->
      <g transform="translate(678.575409 541.838437)scale(0.1 -0.1)">
       <use xlink:href="#DejaVuSans-38"/>
       <use xlink:href="#DejaVuSans-30" x="63.623047"/>
      </g>
     </g>
    </g>
   </g>
   <g id="matplotlib.axis_8">
    <g id="ytick_20">
     <g id="line2d_46">
      <g>
       <use xlink:href="#m89f28bf961" x="407.77" y="516.84" style="stroke: #000000; stroke-width: 0.8"/>
      </g>
     </g>
     <g id="text_43">
      <!-- 3000 -->
      <g transform="translate(366.940312 520.639219)scale(0.1 -0.1)">
       <defs>
        <path id="DejaVuSans-2212" d="M 678 2272 
L 4684 2272 
L 4684 1741 
L 678 1741 
L 678 2272 
z
" transform="scale(0.015625)"/>
        <path id="DejaVuSans-33" d="M 2597 2516 
Q 3050 2419 3304 2112 
Q 3559 1806 3559 1356 
Q 3559 666 3084 287 
Q 2609 -91 1734 -91 
Q 1441 -91 1130 -33 
Q 819 25 488 141 
L 488 750 
Q 750 597 1062 519 
Q 1375 441 1716 441 
Q 2309 441 2620 675 
Q 2931 909 2931 1356 
Q 2931 1769 2642 2001 
Q 2353 2234 1838 2234 
L 1294 2234 
L 1294 2753 
L 1863 2753 
Q 2328 2753 2575 2939 
Q 2822 3125 2822 3475 
Q 2822 3834 2567 4026 
Q 2313 4219 1838 4219 
Q 1578 4219 1281 4162 
Q 984 4106 628 3988 
L 628 4550 
Q 988 4650 1302 4700 
Q 1616 4750 1894 4750 
Q 2613 4750 3031 4423 
Q 3450 4097 3450 3541 
Q 3450 3153 3228 2886 
Q 3006 2619 2597 2516 
z
" transform="scale(0.015625)"/>
       </defs>
       <use xlink:href="#DejaVuSans-2212"/>
       <use xlink:href="#DejaVuSans-33" x="83.789062"/>
       <use xlink:href="#DejaVuSans-30" x="147.412109"/>
       <use xlink:href="#DejaVuSans-30" x="211.035156"/>
       <use xlink:href="#DejaVuSans-30" x="274.658203"/>
      </g>
     </g>
    </g>
    <g id="ytick_21">
     <g id="line2d_47">
      <g>
       <use xlink:href="#m89f28bf961" x="407.77" y="482.173333" style="stroke: #000000; stroke-width: 0.8"/>
      </g>
     </g>
     <g id="text_44">
      <!-- 2000 -->
      <g transform="translate(366.940312 485.972552)scale(0.1 -0.1)">
       <use xlink:href="#DejaVuSans-2212"/>
       <use xlink:href="#DejaVuSans-32" x="83.789062"/>
       <use xlink:href="#DejaVuSans-30" x="147.412109"/>
       <use xlink:href="#DejaVuSans-30" x="211.035156"/>
       <use xlink:href="#DejaVuSans-30" x="274.658203"/>
      </g>
     </g>
    </g>
    <g id="ytick_22">
     <g id="line2d_48">
      <g>
       <use xlink:href="#m89f28bf961" x="407.77" y="447.506667" style="stroke: #000000; stroke-width: 0.8"/>
      </g>
     </g>
     <g id="text_45">
      <!-- 1000 -->
      <g transform="translate(366.940312 451.305885)scale(0.1 -0.1)">
       <use xlink:href="#DejaVuSans-2212"/>
       <use xlink:href="#DejaVuSans-31" x="83.789062"/>
       <use xlink:href="#DejaVuSans-30" x="147.412109"/>
       <use xlink:href="#DejaVuSans-30" x="211.035156"/>
       <use xlink:href="#DejaVuSans-30" x="274.658203"/>
      </g>
     </g>
    </g>
    <g id="ytick_23">
     <g id="line2d_49">
      <g>
       <use xlink:href="#m89f28bf961" x="407.77" y="412.84" style="stroke: #000000; stroke-width: 0.8"/>
      </g>
     </g>
     <g id="text_46">
      <!-- 0 -->
      <g transform="translate(394.4075 416.639219)scale(0.1 -0.1)">
       <use xlink:href="#DejaVuSans-30"/>
      </g>
     </g>
    </g>
    <g id="ytick_24">
     <g id="line2d_50">
      <g>
       <use xlink:href="#m89f28bf961" x="407.77" y="378.173333" style="stroke: #000000; stroke-width: 0.8"/>
      </g>
     </g>
     <g id="text_47">
      <!-- 1000 -->
      <g transform="translate(375.32 381.972552)scale(0.1 -0.1)">
       <use xlink:href="#DejaVuSans-31"/>
       <use xlink:href="#DejaVuSans-30" x="63.623047"/>
       <use xlink:href="#DejaVuSans-30" x="127.246094"/>
       <use xlink:href="#DejaVuSans-30" x="190.869141"/>
      </g>
     </g>
    </g>
    <g id="ytick_25">
     <g id="line2d_51">
      <g>
       <use xlink:href="#m89f28bf961" x="407.77" y="343.506667" style="stroke: #000000; stroke-width: 0.8"/>
      </g>
     </g>
     <g id="text_48">
      <!-- 2000 -->
      <g transform="translate(375.32 347.305885)scale(0.1 -0.1)">
       <use xlink:href="#DejaVuSans-32"/>
       <use xlink:href="#DejaVuSans-30" x="63.623047"/>
       <use xlink:href="#DejaVuSans-30" x="127.246094"/>
       <use xlink:href="#DejaVuSans-30" x="190.869141"/>
      </g>
     </g>
    </g>
    <g id="ytick_26">
     <g id="line2d_52">
      <g>
       <use xlink:href="#m89f28bf961" x="407.77" y="308.84" style="stroke: #000000; stroke-width: 0.8"/>
      </g>
     </g>
     <g id="text_49">
      <!-- 3000 -->
      <g transform="translate(375.32 312.639219)scale(0.1 -0.1)">
       <use xlink:href="#DejaVuSans-33"/>
       <use xlink:href="#DejaVuSans-30" x="63.623047"/>
       <use xlink:href="#DejaVuSans-30" x="127.246094"/>
       <use xlink:href="#DejaVuSans-30" x="190.869141"/>
      </g>
     </g>
    </g>
   </g>
   <g id="line2d_53">
    <path d="M 421.471364 412.833436 
L 424.21438 412.911484 
L 424.763049 413.023603 
L 425.037383 413.172488 
L 425.311718 412.752196 
L 427.780399 412.887374 
L 431.071755 412.808961 
L 431.894759 412.782891 
L 432.443428 412.876869 
L 432.717762 412.795331 
L 432.992097 412.595605 
L 433.266432 412.130653 
L 433.540766 410.226225 
L 433.814771 415.937421 
L 434.089106 414.666333 
L 434.36344 414.242299 
L 434.637775 414.119703 
L 434.912109 414.17307 
L 435.186444 414.443296 
L 435.460779 415.287059 
L 435.735113 419.773333 
L 436.009448 409.160064 
L 436.283782 411.764942 
L 436.557787 412.389008 
L 437.106456 412.775569 
L 438.203795 412.909824 
L 440.123807 412.935088 
L 441.769814 412.76127 
L 443.415492 412.380985 
L 444.51283 412.139973 
L 445.06117 412.12149 
L 445.609839 412.338151 
L 446.432843 412.83236 
L 447.529852 413.135149 
L 448.901524 413.308434 
L 449.998863 413.170695 
L 452.467544 412.952114 
L 452.741879 413.017869 
L 453.290218 413.343692 
L 454.113222 413.144403 
L 456.307569 412.512732 
L 456.856238 411.933235 
L 457.404907 415.02017 
L 457.679242 414.326237 
L 458.227911 413.716628 
L 459.050585 413.287194 
L 460.422258 412.940009 
L 462.067936 412.444995 
L 463.165274 411.95065 
L 463.713943 411.719303 
L 464.536617 412.272402 
L 465.085286 412.173633 
L 467.553968 411.40605 
L 468.376971 411.257984 
L 468.92564 410.830531 
L 469.47398 410.319736 
L 470.022649 410.281784 
L 470.571318 410.46594 
L 470.845653 411.038466 
L 471.119987 412.990398 
L 471.394322 418.882814 
L 471.668657 427.912464 
L 472.216996 409.158584 
L 472.491331 396.086592 
L 472.765665 388.931954 
L 473.04 428.281722 
L 473.314334 421.250256 
L 473.863004 417.101463 
L 474.411673 415.241992 
L 474.960012 414.094902 
L 475.508681 413.479991 
L 477.703028 411.917811 
L 478.251698 411.825159 
L 479.62337 411.925343 
L 480.446045 412.210206 
L 480.994714 412.543689 
L 482.092052 413.505022 
L 482.366386 413.500066 
L 482.640721 413.374704 
L 482.914726 412.84 
L 483.463395 410.574205 
L 483.73773 411.069285 
L 484.560733 413.698086 
L 484.835068 413.841203 
L 485.109402 412.84 
L 485.383737 412.482612 
L 485.657742 412.963369 
L 486.480746 414.916716 
L 487.029415 415.800688 
L 487.852418 416.547129 
L 488.126753 416.652747 
L 488.400758 415.904457 
L 488.675093 384.29098 
L 488.949427 413.167044 
L 489.223762 414.635195 
L 489.498096 414.928204 
L 490.046765 414.899557 
L 490.869769 414.442818 
L 493.88679 412.360185 
L 494.709794 412.155499 
L 497.727145 410.332167 
L 498.824483 409.232929 
L 499.098817 408.701738 
L 499.372823 408.637665 
L 499.921492 410.671839 
L 500.470161 411.579411 
L 502.115839 413.446781 
L 502.938842 414.549776 
L 503.213177 414.600533 
L 503.487511 413.588309 
L 504.03618 404.80748 
L 504.310515 405.42467 
L 504.858855 410.208876 
L 505.407524 413.060222 
L 506.504862 416.835991 
L 507.327866 419.496 
L 507.601871 419.773333 
L 508.424874 419.511698 
L 508.699209 420.062222 
L 508.973543 420.928889 
L 509.247878 423.178614 
L 509.522213 427.79935 
L 509.796547 427.556981 
L 510.070882 420.034969 
L 510.344887 417.919868 
L 510.619221 417.548982 
L 510.893556 417.418616 
L 511.16789 417.458938 
L 511.442225 417.691927 
L 511.716559 418.255182 
L 512.265229 420.564138 
L 512.539563 420.509617 
L 513.087903 418.431398 
L 513.910906 416.316385 
L 514.73391 414.901038 
L 516.105253 413.187318 
L 516.653923 412.739415 
L 517.476926 411.878639 
L 518.29993 411.530176 
L 519.122604 410.178703 
L 520.494277 406.979446 
L 520.768611 405.915506 
L 521.042946 403.937276 
L 521.316951 398.425585 
L 521.591286 386.330196 
L 521.86562 397.811098 
L 522.139955 403.401056 
L 522.414289 404.710903 
L 523.511627 407.424961 
L 523.785962 408.612358 
L 524.334302 412.484444 
L 525.157305 419.812248 
L 525.43164 420.702543 
L 525.705974 420.023847 
L 525.980309 418.208732 
L 527.625987 401.828235 
L 527.900321 400.809152 
L 528.174656 400.599563 
L 528.44899 401.486288 
L 528.723325 402.886205 
L 528.99766 405.645031 
L 529.271994 409.659572 
L 530.094668 428.093333 
L 530.369003 428.767928 
L 530.643337 420.796284 
L 531.192007 395.846536 
L 531.466341 394.644788 
L 531.740676 398.127356 
L 532.837684 426.706667 
L 533.386354 433.770817 
L 533.660688 432.616286 
L 533.935023 430.173333 
L 535.032031 415.384342 
L 535.306366 408.349499 
L 535.580701 397.849009 
L 536.12937 343.506667 
L 536.403704 463.820391 
L 536.678039 444.355152 
L 536.952373 433.232157 
L 537.501042 421.458784 
L 538.323717 409.88065 
L 538.872386 405.096586 
L 539.14672 404.508621 
L 539.421055 405.906667 
L 540.518064 420.027399 
L 540.792398 420.288233 
L 541.066733 419.730928 
L 541.889736 416.585107 
L 542.986745 410.492943 
L 543.535414 408.599629 
L 543.809749 407.949267 
L 544.358418 407.414713 
L 544.907087 407.589814 
L 545.181421 407.782529 
L 545.455756 407.593153 
L 545.729761 406.054709 
L 546.004096 402.44 
L 546.27843 400.488456 
L 546.827099 404.184722 
L 547.650103 409.926835 
L 548.198772 410.836146 
L 548.472777 412.019487 
L 548.747112 413.912165 
L 549.295781 420.335496 
L 549.570115 424.991203 
L 549.84445 434.800784 
L 550.118785 455.506666 
L 550.393119 378.173333 
L 550.941788 398.996406 
L 551.215793 404.476835 
L 551.764462 409.715794 
L 552.313132 412.757968 
L 553.136135 415.655884 
L 553.684804 416.683844 
L 554.507478 417.831877 
L 555.056148 419.181463 
L 555.330482 420.25533 
L 555.879151 424.13588 
L 556.153486 426.618484 
L 556.42782 427.062222 
L 556.97616 421.932896 
L 557.250495 420.412367 
L 557.524829 419.731143 
L 557.799164 419.634773 
L 558.896502 420.047207 
L 559.170836 419.828506 
L 559.444842 419.910457 
L 559.719176 420.232739 
L 559.993511 421.059931 
L 560.267845 424.20612 
L 560.54218 429.569223 
L 560.816514 427.184827 
L 561.090849 422.728143 
L 561.365183 420.162847 
L 561.913852 417.834543 
L 563.55953 413.039831 
L 564.108199 410.813048 
L 564.656868 407.506667 
L 565.205208 402.264849 
L 565.479543 399.061516 
L 565.753877 397.432593 
L 566.028212 404.173333 
L 566.302546 417.330501 
L 566.576881 422.973333 
L 566.851215 423.036079 
L 567.67389 418.915601 
L 568.496893 415.171436 
L 569.319897 411.981914 
L 569.868566 408.882618 
L 570.416906 403.226079 
L 570.69124 399.506667 
L 570.965575 397.394456 
L 571.239909 402.58359 
L 571.514244 405.344504 
L 571.788579 406.299119 
L 572.062913 406.299119 
L 572.337248 405.344504 
L 572.611582 402.718346 
L 572.885917 407.293333 
L 573.434256 412.84 
L 573.708591 412.84 
L 573.982926 409.812344 
L 574.25726 409.373333 
L 574.531595 411.080271 
L 574.805929 410.173333 
L 575.080264 408.293552 
L 575.354598 404.883716 
L 575.902938 393.687145 
L 576.177273 386.173333 
L 576.725942 355.062221 
L 577.000276 378.173333 
L 577.274611 433.232157 
L 577.548945 454.44 
L 577.82328 456.173333 
L 578.645954 428.538113 
L 579.194623 418.817011 
L 580.84063 399.506667 
L 581.114965 391.285596 
L 581.38897 376.134119 
L 581.663305 308.84 
L 581.937639 516.84 
L 582.211974 449.545881 
L 582.486308 435.951111 
L 583.034977 425.191544 
L 583.857981 416.429744 
L 584.406321 412.465832 
L 585.229324 408.377351 
L 586.052328 406.241015 
L 586.600997 405.263705 
L 587.698006 403.776819 
L 588.52101 403.276782 
L 588.795344 402.173333 
L 589.069679 397.545882 
L 589.344013 370.563577 
L 589.618018 364.306667 
L 589.892353 387.521648 
L 590.166687 394.794338 
L 590.715357 401.61842 
L 592.087029 413.027387 
L 592.909704 418.407627 
L 593.458373 420.466667 
L 593.732707 420.794465 
L 594.007042 420.58902 
L 594.281376 420.052528 
L 594.830045 417.462222 
L 595.104051 415.716902 
L 597.298727 396.912072 
L 597.847067 395.678284 
L 598.121401 396.173333 
L 598.395736 397.432593 
L 598.944405 406.31451 
L 600.041743 430.83308 
L 600.315748 435.547423 
L 600.590083 437.106667 
L 600.864417 437.455385 
L 601.138752 436.84 
L 601.413086 437.601905 
L 601.687421 437.310588 
L 601.961755 436.263424 
L 602.784759 422.961654 
L 603.058764 417.524685 
L 603.607433 402.693658 
L 604.156102 390.85626 
L 604.430437 386.173333 
L 604.704771 386.721278 
L 604.979106 391.365074 
L 605.253441 402.643921 
L 605.80178 443.428235 
L 606.076115 470.617779 
L 606.350449 466.173332 
L 606.624784 433.232157 
L 606.899118 425.921761 
L 607.173453 429.192201 
L 607.447787 430.077569 
L 608.270791 426.706667 
L 609.093465 418.947081 
L 610.465138 404.407568 
L 611.013807 401.40176 
L 611.562147 396.110777 
L 612.110816 391.909183 
L 612.385151 391.92046 
L 612.93382 396.553646 
L 613.208154 400.885977 
L 614.030828 423.036079 
L 614.305163 430.173333 
L 614.579498 433.64 
L 614.853832 440.573333 
L 615.128167 442.725058 
L 615.402501 447.163432 
L 615.676836 447.163432 
L 615.95117 447.506667 
L 616.499839 452.840002 
L 616.773845 452.840002 
L 617.048179 463.820391 
L 617.322514 463.820391 
L 617.871183 452.840002 
L 618.145517 452.840002 
L 618.419852 447.506667 
L 619.242855 447.506667 
L 619.516861 446.938361 
L 620.339864 432.315655 
L 620.614199 430.173333 
L 620.888533 424.395555 
L 621.162868 420.996863 
L 621.437202 420.996863 
L 621.711537 418.173333 
L 621.985871 412.84 
L 622.534211 412.84 
L 622.808546 403.470631 
L 623.08288 403.470631 
L 623.357215 412.84 
L 624.180218 412.84 
L 624.454553 426.173333 
L 625.277227 426.173333 
L 625.551562 422.209369 
L 625.825896 412.84 
L 626.923235 412.84 
L 627.197569 399.506667 
L 627.471904 399.506667 
L 627.745909 412.84 
L 629.666251 412.84 
L 629.940585 399.506667 
L 630.21492 392.447843 
L 634.329279 392.447843 
L 634.603614 378.173333 
L 636.523626 378.173333 
L 636.797961 412.84 
L 640.912649 412.84 
L 641.186984 447.506667 
L 641.460989 412.84 
L 643.93 412.84 
L 644.204005 392.447843 
L 644.47834 392.447843 
L 644.752674 378.173333 
L 645.301343 378.173333 
L 645.575678 343.506667 
L 645.850013 343.506667 
L 646.124347 412.84 
L 695.498636 412.84 
L 695.498636 412.84 
" clip-path="url(#p8cc4afaee4)" style="fill: none; stroke: #008000; stroke-width: 1.5; stroke-linecap: square"/>
   </g>
   <g id="patch_21">
    <path d="M 407.77 527.24 
L 407.77 298.44 
" style="fill: none; stroke: #000000; stroke-width: 0.8; stroke-linejoin: miter; stroke-linecap: square"/>
   </g>
   <g id="patch_22">
    <path d="M 709.2 527.24 
L 709.2 298.44 
" style="fill: none; stroke: #000000; stroke-width: 0.8; stroke-linejoin: miter; stroke-linecap: square"/>
   </g>
   <g id="patch_23">
    <path d="M 407.77 527.24 
L 709.2 527.24 
" style="fill: none; stroke: #000000; stroke-width: 0.8; stroke-linejoin: miter; stroke-linecap: square"/>
   </g>
   <g id="patch_24">
    <path d="M 407.77 298.44 
L 709.2 298.44 
" style="fill: none; stroke: #000000; stroke-width: 0.8; stroke-linejoin: miter; stroke-linecap: square"/>
   </g>
   <g id="legend_4">
    <g id="patch_25">
     <path d="M 658.3625 321.118125 
L 702.2 321.118125 
Q 704.2 321.118125 704.2 319.118125 
L 704.2 305.44 
Q 704.2 303.44 702.2 303.44 
L 658.3625 303.44 
Q 656.3625 303.44 656.3625 305.44 
L 656.3625 319.118125 
Q 656.3625 321.118125 658.3625 321.118125 
z
" style="fill: #ffffff; opacity: 0.8; stroke: #cccccc; stroke-linejoin: miter"/>
    </g>
    <g id="line2d_54">
     <path d="M 660.3625 311.538437 
L 670.3625 311.538437 
L 680.3625 311.538437 
" style="fill: none; stroke: #008000; stroke-width: 1.5; stroke-linecap: square"/>
    </g>
    <g id="text_50">
     <!-- xy -->
     <g transform="translate(688.3625 315.038437)scale(0.1 -0.1)">
      <use xlink:href="#DejaVuSans-78"/>
      <use xlink:href="#DejaVuSans-79" x="59.179688"/>
     </g>
    </g>
   </g>
  </g>
  <g id="text_51">
   <!-- Energyloss spectra -->
   <g transform="translate(265.125 26.716875)scale(0.2 -0.2)">
    <defs>
     <path id="DejaVuSans-45" d="M 628 4666 
L 3578 4666 
L 3578 4134 
L 1259 4134 
L 1259 2753 
L 3481 2753 
L 3481 2222 
L 1259 2222 
L 1259 531 
L 3634 531 
L 3634 0 
L 628 0 
L 628 4666 
z
" transform="scale(0.015625)"/>
     <path id="DejaVuSans-6e" d="M 3513 2113 
L 3513 0 
L 2938 0 
L 2938 2094 
Q 2938 2591 2744 2837 
Q 2550 3084 2163 3084 
Q 1697 3084 1428 2787 
Q 1159 2491 1159 1978 
L 1159 0 
L 581 0 
L 581 3500 
L 1159 3500 
L 1159 2956 
Q 1366 3272 1645 3428 
Q 1925 3584 2291 3584 
Q 2894 3584 3203 3211 
Q 3513 2838 3513 2113 
z
" transform="scale(0.015625)"/>
     <path id="DejaVuSans-65" d="M 3597 1894 
L 3597 1613 
L 953 1613 
Q 991 1019 1311 708 
Q 1631 397 2203 397 
Q 2534 397 2845 478 
Q 3156 559 3463 722 
L 3463 178 
Q 3153 47 2828 -22 
Q 2503 -91 2169 -91 
Q 1331 -91 842 396 
Q 353 884 353 1716 
Q 353 2575 817 3079 
Q 1281 3584 2069 3584 
Q 2775 3584 3186 3129 
Q 3597 2675 3597 1894 
z
M 3022 2063 
Q 3016 2534 2758 2815 
Q 2500 3097 2075 3097 
Q 1594 3097 1305 2825 
Q 1016 2553 972 2059 
L 3022 2063 
z
" transform="scale(0.015625)"/>
     <path id="DejaVuSans-72" d="M 2631 2963 
Q 2534 3019 2420 3045 
Q 2306 3072 2169 3072 
Q 1681 3072 1420 2755 
Q 1159 2438 1159 1844 
L 1159 0 
L 581 0 
L 581 3500 
L 1159 3500 
L 1159 2956 
Q 1341 3275 1631 3429 
Q 1922 3584 2338 3584 
Q 2397 3584 2469 3576 
Q 2541 3569 2628 3553 
L 2631 2963 
z
" transform="scale(0.015625)"/>
     <path id="DejaVuSans-67" d="M 2906 1791 
Q 2906 2416 2648 2759 
Q 2391 3103 1925 3103 
Q 1463 3103 1205 2759 
Q 947 2416 947 1791 
Q 947 1169 1205 825 
Q 1463 481 1925 481 
Q 2391 481 2648 825 
Q 2906 1169 2906 1791 
z
M 3481 434 
Q 3481 -459 3084 -895 
Q 2688 -1331 1869 -1331 
Q 1566 -1331 1297 -1286 
Q 1028 -1241 775 -1147 
L 775 -588 
Q 1028 -725 1275 -790 
Q 1522 -856 1778 -856 
Q 2344 -856 2625 -561 
Q 2906 -266 2906 331 
L 2906 616 
Q 2728 306 2450 153 
Q 2172 0 1784 0 
Q 1141 0 747 490 
Q 353 981 353 1791 
Q 353 2603 747 3093 
Q 1141 3584 1784 3584 
Q 2172 3584 2450 3431 
Q 2728 3278 2906 2969 
L 2906 3500 
L 3481 3500 
L 3481 434 
z
" transform="scale(0.015625)"/>
     <path id="DejaVuSans-6c" d="M 603 4863 
L 1178 4863 
L 1178 0 
L 603 0 
L 603 4863 
z
" transform="scale(0.015625)"/>
     <path id="DejaVuSans-6f" d="M 1959 3097 
Q 1497 3097 1228 2736 
Q 959 2375 959 1747 
Q 959 1119 1226 758 
Q 1494 397 1959 397 
Q 2419 397 2687 759 
Q 2956 1122 2956 1747 
Q 2956 2369 2687 2733 
Q 2419 3097 1959 3097 
z
M 1959 3584 
Q 2709 3584 3137 3096 
Q 3566 2609 3566 1747 
Q 3566 888 3137 398 
Q 2709 -91 1959 -91 
Q 1206 -91 779 398 
Q 353 888 353 1747 
Q 353 2609 779 3096 
Q 1206 3584 1959 3584 
z
" transform="scale(0.015625)"/>
     <path id="DejaVuSans-73" d="M 2834 3397 
L 2834 2853 
Q 2591 2978 2328 3040 
Q 2066 3103 1784 3103 
Q 1356 3103 1142 2972 
Q 928 2841 928 2578 
Q 928 2378 1081 2264 
Q 1234 2150 1697 2047 
L 1894 2003 
Q 2506 1872 2764 1633 
Q 3022 1394 3022 966 
Q 3022 478 2636 193 
Q 2250 -91 1575 -91 
Q 1294 -91 989 -36 
Q 684 19 347 128 
L 347 722 
Q 666 556 975 473 
Q 1284 391 1588 391 
Q 1994 391 2212 530 
Q 2431 669 2431 922 
Q 2431 1156 2273 1281 
Q 2116 1406 1581 1522 
L 1381 1569 
Q 847 1681 609 1914 
Q 372 2147 372 2553 
Q 372 3047 722 3315 
Q 1072 3584 1716 3584 
Q 2034 3584 2315 3537 
Q 2597 3491 2834 3397 
z
" transform="scale(0.015625)"/>
     <path id="DejaVuSans-20" transform="scale(0.015625)"/>
     <path id="DejaVuSans-70" d="M 1159 525 
L 1159 -1331 
L 581 -1331 
L 581 3500 
L 1159 3500 
L 1159 2969 
Q 1341 3281 1617 3432 
Q 1894 3584 2278 3584 
Q 2916 3584 3314 3078 
Q 3713 2572 3713 1747 
Q 3713 922 3314 415 
Q 2916 -91 2278 -91 
Q 1894 -91 1617 61 
Q 1341 213 1159 525 
z
M 3116 1747 
Q 3116 2381 2855 2742 
Q 2594 3103 2138 3103 
Q 1681 3103 1420 2742 
Q 1159 2381 1159 1747 
Q 1159 1113 1420 752 
Q 1681 391 2138 391 
Q 2594 391 2855 752 
Q 3116 1113 3116 1747 
z
" transform="scale(0.015625)"/>
     <path id="DejaVuSans-63" d="M 3122 3366 
L 3122 2828 
Q 2878 2963 2633 3030 
Q 2388 3097 2138 3097 
Q 1578 3097 1268 2742 
Q 959 2388 959 1747 
Q 959 1106 1268 751 
Q 1578 397 2138 397 
Q 2388 397 2633 464 
Q 2878 531 3122 666 
L 3122 134 
Q 2881 22 2623 -34 
Q 2366 -91 2075 -91 
Q 1284 -91 818 406 
Q 353 903 353 1747 
Q 353 2603 823 3093 
Q 1294 3584 2113 3584 
Q 2378 3584 2631 3529 
Q 2884 3475 3122 3366 
z
" transform="scale(0.015625)"/>
     <path id="DejaVuSans-74" d="M 1172 4494 
L 1172 3500 
L 2356 3500 
L 2356 3053 
L 1172 3053 
L 1172 1153 
Q 1172 725 1289 603 
Q 1406 481 1766 481 
L 2356 481 
L 2356 0 
L 1766 0 
Q 1100 0 847 248 
Q 594 497 594 1153 
L 594 3053 
L 172 3053 
L 172 3500 
L 594 3500 
L 594 4494 
L 1172 4494 
z
" transform="scale(0.015625)"/>
     <path id="DejaVuSans-61" d="M 2194 1759 
Q 1497 1759 1228 1600 
Q 959 1441 959 1056 
Q 959 750 1161 570 
Q 1363 391 1709 391 
Q 2188 391 2477 730 
Q 2766 1069 2766 1631 
L 2766 1759 
L 2194 1759 
z
M 3341 1997 
L 3341 0 
L 2766 0 
L 2766 531 
Q 2569 213 2275 61 
Q 1981 -91 1556 -91 
Q 1019 -91 701 211 
Q 384 513 384 1019 
Q 384 1609 779 1909 
Q 1175 2209 1959 2209 
L 2766 2209 
L 2766 2266 
Q 2766 2663 2505 2880 
Q 2244 3097 1772 3097 
Q 1472 3097 1187 3025 
Q 903 2953 641 2809 
L 641 3341 
Q 956 3463 1253 3523 
Q 1550 3584 1831 3584 
Q 2591 3584 2966 3190 
Q 3341 2797 3341 1997 
z
" transform="scale(0.015625)"/>
    </defs>
    <use xlink:href="#DejaVuSans-45"/>
    <use xlink:href="#DejaVuSans-6e" x="63.183594"/>
    <use xlink:href="#DejaVuSans-65" x="126.5625"/>
    <use xlink:href="#DejaVuSans-72" x="188.085938"/>
    <use xlink:href="#DejaVuSans-67" x="227.449219"/>
    <use xlink:href="#DejaVuSans-79" x="290.925781"/>
    <use xlink:href="#DejaVuSans-6c" x="350.105469"/>
    <use xlink:href="#DejaVuSans-6f" x="377.888672"/>
    <use xlink:href="#DejaVuSans-73" x="439.070312"/>
    <use xlink:href="#DejaVuSans-73" x="491.169922"/>
    <use xlink:href="#DejaVuSans-20" x="543.269531"/>
    <use xlink:href="#DejaVuSans-73" x="575.056641"/>
    <use xlink:href="#DejaVuSans-70" x="627.15625"/>
    <use xlink:href="#DejaVuSans-65" x="690.632812"/>
    <use xlink:href="#DejaVuSans-63" x="752.15625"/>
    <use xlink:href="#DejaVuSans-74" x="807.136719"/>
    <use xlink:href="#DejaVuSans-72" x="846.345703"/>
    <use xlink:href="#DejaVuSans-61" x="887.458984"/>
   </g>
  </g>
  <g id="text_52">
   <!-- cm^-1 -->
   <g transform="translate(21.998438 304.794531)rotate(-90)scale(0.1 -0.1)">
    <defs>
     <path id="DejaVuSans-6d" d="M 3328 2828 
Q 3544 3216 3844 3400 
Q 4144 3584 4550 3584 
Q 5097 3584 5394 3201 
Q 5691 2819 5691 2113 
L 5691 0 
L 5113 0 
L 5113 2094 
Q 5113 2597 4934 2840 
Q 4756 3084 4391 3084 
Q 3944 3084 3684 2787 
Q 3425 2491 3425 1978 
L 3425 0 
L 2847 0 
L 2847 2094 
Q 2847 2600 2669 2842 
Q 2491 3084 2119 3084 
Q 1678 3084 1418 2786 
Q 1159 2488 1159 1978 
L 1159 0 
L 581 0 
L 581 3500 
L 1159 3500 
L 1159 2956 
Q 1356 3278 1631 3431 
Q 1906 3584 2284 3584 
Q 2666 3584 2933 3390 
Q 3200 3197 3328 2828 
z
" transform="scale(0.015625)"/>
     <path id="DejaVuSans-5e" d="M 2988 4666 
L 4684 2925 
L 4056 2925 
L 2681 4159 
L 1306 2925 
L 678 2925 
L 2375 4666 
L 2988 4666 
z
" transform="scale(0.015625)"/>
     <path id="DejaVuSans-2d" d="M 313 2009 
L 1997 2009 
L 1997 1497 
L 313 1497 
L 313 2009 
z
" transform="scale(0.015625)"/>
    </defs>
    <use xlink:href="#DejaVuSans-63"/>
    <use xlink:href="#DejaVuSans-6d" x="54.980469"/>
    <use xlink:href="#DejaVuSans-5e" x="152.392578"/>
    <use xlink:href="#DejaVuSans-2d" x="236.181641"/>
    <use xlink:href="#DejaVuSans-31" x="272.265625"/>
   </g>
  </g>
  <g id="text_53">
   <!-- Energy (eV) -->
   <g transform="translate(330.50625 568.160313)scale(0.1 -0.1)">
    <defs>
     <path id="DejaVuSans-28" d="M 1984 4856 
Q 1566 4138 1362 3434 
Q 1159 2731 1159 2009 
Q 1159 1288 1364 580 
Q 1569 -128 1984 -844 
L 1484 -844 
Q 1016 -109 783 600 
Q 550 1309 550 2009 
Q 550 2706 781 3412 
Q 1013 4119 1484 4856 
L 1984 4856 
z
" transform="scale(0.015625)"/>
     <path id="DejaVuSans-56" d="M 1831 0 
L 50 4666 
L 709 4666 
L 2188 738 
L 3669 4666 
L 4325 4666 
L 2547 0 
L 1831 0 
z
" transform="scale(0.015625)"/>
     <path id="DejaVuSans-29" d="M 513 4856 
L 1013 4856 
Q 1481 4119 1714 3412 
Q 1947 2706 1947 2009 
Q 1947 1309 1714 600 
Q 1481 -109 1013 -844 
L 513 -844 
Q 928 -128 1133 580 
Q 1338 1288 1338 2009 
Q 1338 2731 1133 3434 
Q 928 4138 513 4856 
z
" transform="scale(0.015625)"/>
    </defs>
    <use xlink:href="#DejaVuSans-45"/>
    <use xlink:href="#DejaVuSans-6e" x="63.183594"/>
    <use xlink:href="#DejaVuSans-65" x="126.5625"/>
    <use xlink:href="#DejaVuSans-72" x="188.085938"/>
    <use xlink:href="#DejaVuSans-67" x="227.449219"/>
    <use xlink:href="#DejaVuSans-79" x="290.925781"/>
    <use xlink:href="#DejaVuSans-20" x="350.105469"/>
    <use xlink:href="#DejaVuSans-28" x="381.892578"/>
    <use xlink:href="#DejaVuSans-65" x="420.90625"/>
    <use xlink:href="#DejaVuSans-56" x="482.429688"/>
    <use xlink:href="#DejaVuSans-29" x="550.837891"/>
   </g>
  </g>
 </g>
 <defs>
  <clipPath id="p8ee06d6a1c">
   <rect x="54.61" y="41.76" width="301.43" height="228.8"/>
  </clipPath>
  <clipPath id="pe044110cac">
   <rect x="407.77" y="41.76" width="301.43" height="228.8"/>
  </clipPath>
  <clipPath id="p2c56d4724e">
   <rect x="54.61" y="298.44" width="301.43" height="228.8"/>
  </clipPath>
  <clipPath id="p8cc4afaee4">
   <rect x="407.77" y="298.44" width="301.43" height="228.8"/>
  </clipPath>
 </defs>
</svg>
