<?xml version="1.0" encoding="utf-8" standalone="no"?>
<!DOCTYPE svg PUBLIC "-//W3C//DTD SVG 1.1//EN"
  "http://www.w3.org/Graphics/SVG/1.1/DTD/svg11.dtd">
<svg xmlns:xlink="http://www.w3.org/1999/xlink" width="720pt" height="576pt" viewBox="0 0 720 576" xmlns="http://www.w3.org/2000/svg" version="1.1">
 <metadata>
  <rdf:RDF xmlns:dc="http://purl.org/dc/elements/1.1/" xmlns:cc="http://creativecommons.org/ns#" xmlns:rdf="http://www.w3.org/1999/02/22-rdf-syntax-ns#">
   <cc:Work>
    <dc:type rdf:resource="http://purl.org/dc/dcmitype/StillImage"/>
    <dc:date>2022-03-10T11:47:57.163985</dc:date>
    <dc:format>image/svg+xml</dc:format>
    <dc:creator>
     <cc:Agent>
      <dc:title>Matplotlib v3.5.1, https://matplotlib.org/</dc:title>
     </cc:Agent>
    </dc:creator>
   </cc:Work>
  </rdf:RDF>
 </metadata>
 <defs>
  <style type="text/css">*{stroke-linejoin: round; stroke-linecap: butt}</style>
 </defs>
 <g id="figure_1">
  <g id="patch_1">
   <path d="M 0 576 
L 720 576 
L 720 0 
L 0 0 
z
" style="fill: #ffffff"/>
  </g>
  <g id="axes_1">
   <g id="patch_2">
    <path d="M 55.33 254.72 
L 356.4 254.72 
L 356.4 10.8 
L 55.33 10.8 
z
" style="fill: #ffffff"/>
   </g>
   <g id="matplotlib.axis_1">
    <g id="xtick_1">
     <g id="line2d_1">
      <defs>
       <path id="m62128f4b42" d="M 0 0 
L 0 3.5 
" style="stroke: #000000; stroke-width: 0.8"/>
      </defs>
      <g>
       <use xlink:href="#m62128f4b42" x="69.015" y="254.72" style="stroke: #000000; stroke-width: 0.8"/>
      </g>
     </g>
     <g id="text_1">
      <!-- 0 -->
      <g transform="translate(65.83375 269.318438)scale(0.1 -0.1)">
       <defs>
        <path id="DejaVuSans-30" d="M 2034 4250 
Q 1547 4250 1301 3770 
Q 1056 3291 1056 2328 
Q 1056 1369 1301 889 
Q 1547 409 2034 409 
Q 2525 409 2770 889 
Q 3016 1369 3016 2328 
Q 3016 3291 2770 3770 
Q 2525 4250 2034 4250 
z
M 2034 4750 
Q 2819 4750 3233 4129 
Q 3647 3509 3647 2328 
Q 3647 1150 3233 529 
Q 2819 -91 2034 -91 
Q 1250 -91 836 529 
Q 422 1150 422 2328 
Q 422 3509 836 4129 
Q 1250 4750 2034 4750 
z
" transform="scale(0.015625)"/>
       </defs>
       <use xlink:href="#DejaVuSans-30"/>
      </g>
     </g>
    </g>
    <g id="xtick_2">
     <g id="line2d_2">
      <g>
       <use xlink:href="#m62128f4b42" x="134.802971" y="254.72" style="stroke: #000000; stroke-width: 0.8"/>
      </g>
     </g>
     <g id="text_2">
      <!-- 20 -->
      <g transform="translate(128.440471 269.318438)scale(0.1 -0.1)">
       <defs>
        <path id="DejaVuSans-32" d="M 1228 531 
L 3431 531 
L 3431 0 
L 469 0 
L 469 531 
Q 828 903 1448 1529 
Q 2069 2156 2228 2338 
Q 2531 2678 2651 2914 
Q 2772 3150 2772 3378 
Q 2772 3750 2511 3984 
Q 2250 4219 1831 4219 
Q 1534 4219 1204 4116 
Q 875 4013 500 3803 
L 500 4441 
Q 881 4594 1212 4672 
Q 1544 4750 1819 4750 
Q 2544 4750 2975 4387 
Q 3406 4025 3406 3419 
Q 3406 3131 3298 2873 
Q 3191 2616 2906 2266 
Q 2828 2175 2409 1742 
Q 1991 1309 1228 531 
z
" transform="scale(0.015625)"/>
       </defs>
       <use xlink:href="#DejaVuSans-32"/>
       <use xlink:href="#DejaVuSans-30" x="63.623047"/>
      </g>
     </g>
    </g>
    <g id="xtick_3">
     <g id="line2d_3">
      <g>
       <use xlink:href="#m62128f4b42" x="200.590943" y="254.72" style="stroke: #000000; stroke-width: 0.8"/>
      </g>
     </g>
     <g id="text_3">
      <!-- 40 -->
      <g transform="translate(194.228443 269.318438)scale(0.1 -0.1)">
       <defs>
        <path id="DejaVuSans-34" d="M 2419 4116 
L 825 1625 
L 2419 1625 
L 2419 4116 
z
M 2253 4666 
L 3047 4666 
L 3047 1625 
L 3713 1625 
L 3713 1100 
L 3047 1100 
L 3047 0 
L 2419 0 
L 2419 1100 
L 313 1100 
L 313 1709 
L 2253 4666 
z
" transform="scale(0.015625)"/>
       </defs>
       <use xlink:href="#DejaVuSans-34"/>
       <use xlink:href="#DejaVuSans-30" x="63.623047"/>
      </g>
     </g>
    </g>
    <g id="xtick_4">
     <g id="line2d_4">
      <g>
       <use xlink:href="#m62128f4b42" x="266.378914" y="254.72" style="stroke: #000000; stroke-width: 0.8"/>
      </g>
     </g>
     <g id="text_4">
      <!-- 60 -->
      <g transform="translate(260.016414 269.318438)scale(0.1 -0.1)">
       <defs>
        <path id="DejaVuSans-36" d="M 2113 2584 
Q 1688 2584 1439 2293 
Q 1191 2003 1191 1497 
Q 1191 994 1439 701 
Q 1688 409 2113 409 
Q 2538 409 2786 701 
Q 3034 994 3034 1497 
Q 3034 2003 2786 2293 
Q 2538 2584 2113 2584 
z
M 3366 4563 
L 3366 3988 
Q 3128 4100 2886 4159 
Q 2644 4219 2406 4219 
Q 1781 4219 1451 3797 
Q 1122 3375 1075 2522 
Q 1259 2794 1537 2939 
Q 1816 3084 2150 3084 
Q 2853 3084 3261 2657 
Q 3669 2231 3669 1497 
Q 3669 778 3244 343 
Q 2819 -91 2113 -91 
Q 1303 -91 875 529 
Q 447 1150 447 2328 
Q 447 3434 972 4092 
Q 1497 4750 2381 4750 
Q 2619 4750 2861 4703 
Q 3103 4656 3366 4563 
z
" transform="scale(0.015625)"/>
       </defs>
       <use xlink:href="#DejaVuSans-36"/>
       <use xlink:href="#DejaVuSans-30" x="63.623047"/>
      </g>
     </g>
    </g>
    <g id="xtick_5">
     <g id="line2d_5">
      <g>
       <use xlink:href="#m62128f4b42" x="332.166886" y="254.72" style="stroke: #000000; stroke-width: 0.8"/>
      </g>
     </g>
     <g id="text_5">
      <!-- 80 -->
      <g transform="translate(325.804386 269.318438)scale(0.1 -0.1)">
       <defs>
        <path id="DejaVuSans-38" d="M 2034 2216 
Q 1584 2216 1326 1975 
Q 1069 1734 1069 1313 
Q 1069 891 1326 650 
Q 1584 409 2034 409 
Q 2484 409 2743 651 
Q 3003 894 3003 1313 
Q 3003 1734 2745 1975 
Q 2488 2216 2034 2216 
z
M 1403 2484 
Q 997 2584 770 2862 
Q 544 3141 544 3541 
Q 544 4100 942 4425 
Q 1341 4750 2034 4750 
Q 2731 4750 3128 4425 
Q 3525 4100 3525 3541 
Q 3525 3141 3298 2862 
Q 3072 2584 2669 2484 
Q 3125 2378 3379 2068 
Q 3634 1759 3634 1313 
Q 3634 634 3220 271 
Q 2806 -91 2034 -91 
Q 1263 -91 848 271 
Q 434 634 434 1313 
Q 434 1759 690 2068 
Q 947 2378 1403 2484 
z
M 1172 3481 
Q 1172 3119 1398 2916 
Q 1625 2713 2034 2713 
Q 2441 2713 2670 2916 
Q 2900 3119 2900 3481 
Q 2900 3844 2670 4047 
Q 2441 4250 2034 4250 
Q 1625 4250 1398 4047 
Q 1172 3844 1172 3481 
z
" transform="scale(0.015625)"/>
       </defs>
       <use xlink:href="#DejaVuSans-38"/>
       <use xlink:href="#DejaVuSans-30" x="63.623047"/>
      </g>
     </g>
    </g>
   </g>
   <g id="matplotlib.axis_2">
    <g id="ytick_1">
     <g id="line2d_6">
      <defs>
       <path id="mdf4f7c492a" d="M 0 0 
L -3.5 0 
" style="stroke: #000000; stroke-width: 0.8"/>
      </defs>
      <g>
       <use xlink:href="#mdf4f7c492a" x="55.33" y="243.632727" style="stroke: #000000; stroke-width: 0.8"/>
      </g>
     </g>
     <g id="text_6">
      <!-- 0.0 -->
      <g transform="translate(32.426875 247.431946)scale(0.1 -0.1)">
       <defs>
        <path id="DejaVuSans-2e" d="M 684 794 
L 1344 794 
L 1344 0 
L 684 0 
L 684 794 
z
" transform="scale(0.015625)"/>
       </defs>
       <use xlink:href="#DejaVuSans-30"/>
       <use xlink:href="#DejaVuSans-2e" x="63.623047"/>
       <use xlink:href="#DejaVuSans-30" x="95.410156"/>
      </g>
     </g>
    </g>
    <g id="ytick_2">
     <g id="line2d_7">
      <g>
       <use xlink:href="#mdf4f7c492a" x="55.33" y="191.642382" style="stroke: #000000; stroke-width: 0.8"/>
      </g>
     </g>
     <g id="text_7">
      <!-- 0.5 -->
      <g transform="translate(32.426875 195.441601)scale(0.1 -0.1)">
       <defs>
        <path id="DejaVuSans-35" d="M 691 4666 
L 3169 4666 
L 3169 4134 
L 1269 4134 
L 1269 2991 
Q 1406 3038 1543 3061 
Q 1681 3084 1819 3084 
Q 2600 3084 3056 2656 
Q 3513 2228 3513 1497 
Q 3513 744 3044 326 
Q 2575 -91 1722 -91 
Q 1428 -91 1123 -41 
Q 819 9 494 109 
L 494 744 
Q 775 591 1075 516 
Q 1375 441 1709 441 
Q 2250 441 2565 725 
Q 2881 1009 2881 1497 
Q 2881 1984 2565 2268 
Q 2250 2553 1709 2553 
Q 1456 2553 1204 2497 
Q 953 2441 691 2322 
L 691 4666 
z
" transform="scale(0.015625)"/>
       </defs>
       <use xlink:href="#DejaVuSans-30"/>
       <use xlink:href="#DejaVuSans-2e" x="63.623047"/>
       <use xlink:href="#DejaVuSans-35" x="95.410156"/>
      </g>
     </g>
    </g>
    <g id="ytick_3">
     <g id="line2d_8">
      <g>
       <use xlink:href="#mdf4f7c492a" x="55.33" y="139.652038" style="stroke: #000000; stroke-width: 0.8"/>
      </g>
     </g>
     <g id="text_8">
      <!-- 1.0 -->
      <g transform="translate(32.426875 143.451256)scale(0.1 -0.1)">
       <defs>
        <path id="DejaVuSans-31" d="M 794 531 
L 1825 531 
L 1825 4091 
L 703 3866 
L 703 4441 
L 1819 4666 
L 2450 4666 
L 2450 531 
L 3481 531 
L 3481 0 
L 794 0 
L 794 531 
z
" transform="scale(0.015625)"/>
       </defs>
       <use xlink:href="#DejaVuSans-31"/>
       <use xlink:href="#DejaVuSans-2e" x="63.623047"/>
       <use xlink:href="#DejaVuSans-30" x="95.410156"/>
      </g>
     </g>
    </g>
    <g id="ytick_4">
     <g id="line2d_9">
      <g>
       <use xlink:href="#mdf4f7c492a" x="55.33" y="87.661693" style="stroke: #000000; stroke-width: 0.8"/>
      </g>
     </g>
     <g id="text_9">
      <!-- 1.5 -->
      <g transform="translate(32.426875 91.460912)scale(0.1 -0.1)">
       <use xlink:href="#DejaVuSans-31"/>
       <use xlink:href="#DejaVuSans-2e" x="63.623047"/>
       <use xlink:href="#DejaVuSans-35" x="95.410156"/>
      </g>
     </g>
    </g>
    <g id="ytick_5">
     <g id="line2d_10">
      <g>
       <use xlink:href="#mdf4f7c492a" x="55.33" y="35.671348" style="stroke: #000000; stroke-width: 0.8"/>
      </g>
     </g>
     <g id="text_10">
      <!-- 2.0 -->
      <g transform="translate(32.426875 39.470567)scale(0.1 -0.1)">
       <use xlink:href="#DejaVuSans-32"/>
       <use xlink:href="#DejaVuSans-2e" x="63.623047"/>
       <use xlink:href="#DejaVuSans-30" x="95.410156"/>
      </g>
     </g>
    </g>
   </g>
   <g id="line2d_11">
    <path d="M 69.015 240.489061 
L 69.289007 240.489061 
L 69.837021 235.088157 
L 70.111028 233.743254 
L 70.384706 233.335141 
L 70.658712 233.431663 
L 71.206726 233.931967 
L 71.480733 234.059421 
L 71.75474 234.05876 
L 72.028747 233.904447 
L 72.302754 233.521887 
L 72.576761 232.830863 
L 73.124446 230.407788 
L 74.220473 224.07473 
L 75.042494 222.189594 
L 75.316501 220.531639 
L 75.590508 217.532119 
L 75.864186 212.16184 
L 76.138193 202.091804 
L 76.4122 182.771628 
L 76.686206 152.140443 
L 76.960213 134.860452 
L 77.782234 193.880449 
L 78.056241 202.759525 
L 78.330248 207.44371 
L 78.603926 208.995259 
L 78.877933 207.85384 
L 79.15194 204.349484 
L 79.97396 190.142982 
L 80.247967 193.736097 
L 80.795981 207.236401 
L 81.343666 215.310921 
L 81.89168 219.986403 
L 82.987707 226.411695 
L 83.535721 228.571208 
L 84.083406 229.455491 
L 84.357413 229.882342 
L 84.905427 231.472813 
L 85.179434 232.275543 
L 85.45344 232.610034 
L 85.727447 232.206137 
L 86.001454 231.028808 
L 86.823146 225.658495 
L 87.097153 224.860706 
L 87.37116 225.036385 
L 87.645167 225.450696 
L 87.919174 225.288544 
L 88.19318 224.331215 
L 88.741194 220.357634 
L 89.015201 217.168791 
L 89.289208 212.603134 
L 89.562886 205.785449 
L 90.1109 181.890661 
L 90.932921 130.68544 
L 91.206927 123.37488 
L 91.480934 123.390321 
L 91.754941 128.842132 
L 93.124647 174.993612 
L 93.398654 179.421037 
L 94.220674 188.054771 
L 94.768688 203.1107 
L 95.316373 217.255775 
L 95.59038 220.536312 
L 96.138394 223.337112 
L 96.960414 225.967635 
L 97.234421 225.984108 
L 97.508428 225.014917 
L 98.056113 220.589566 
L 98.604127 213.836334 
L 99.152141 202.801996 
L 99.700155 183.370217 
L 100.521846 144.854983 
L 101.06986 101.838618 
L 101.891881 21.887273 
L 102.165888 23.432623 
L 102.713902 84.865517 
L 103.261586 134.793717 
L 103.8096 158.849395 
L 104.357614 172.087528 
L 104.631621 175.38359 
L 104.905628 176.577186 
L 105.179635 175.934949 
L 105.453642 173.672364 
L 106.001326 165.179197 
L 106.823347 149.136217 
L 107.097354 146.419593 
L 107.371361 146.040705 
L 108.467389 150.560313 
L 108.741067 150.738021 
L 109.015073 151.216009 
L 109.28908 152.452403 
L 109.563087 154.561568 
L 110.111101 162.038623 
L 110.933122 179.089163 
L 111.754814 197.343967 
L 112.02882 200.224474 
L 112.302827 201.554663 
L 112.576834 202.050701 
L 112.850841 202.30523 
L 113.124848 202.842721 
L 113.398855 204.235556 
L 114.494554 214.66247 
L 115.042567 216.431776 
L 115.316574 216.733578 
L 115.590581 216.527733 
L 115.864588 215.69035 
L 116.412602 212.424315 
L 116.960287 208.942271 
L 117.234294 207.871831 
L 117.508301 207.406736 
L 117.782307 207.493778 
L 118.604328 208.778552 
L 118.878335 208.858474 
L 119.152342 208.675228 
L 119.700027 207.922375 
L 119.974034 207.976113 
L 120.248041 208.883713 
L 120.796054 212.921292 
L 121.344068 217.001661 
L 121.892082 219.680515 
L 122.439767 221.07 
L 122.713774 221.449902 
L 122.987781 221.53225 
L 123.261788 221.214412 
L 123.535794 220.390448 
L 125.179507 212.095114 
L 125.453514 209.17006 
L 126.001528 199.476238 
L 126.549541 188.696219 
L 126.823548 186.955645 
L 127.097555 189.65673 
L 128.193254 211.125249 
L 128.741268 217.004994 
L 129.015275 218.140353 
L 129.289282 218.474589 
L 129.563288 218.544052 
L 129.837295 218.751248 
L 130.38498 219.917464 
L 130.932994 220.921374 
L 131.755015 221.56289 
L 132.029022 222.231655 
L 133.12472 226.262026 
L 133.398727 226.560578 
L 133.672734 226.376474 
L 133.946741 225.568148 
L 134.220748 223.956071 
L 134.768762 217.85992 
L 135.590782 206.818068 
L 135.86446 206.248262 
L 136.138467 208.558316 
L 136.960488 219.163652 
L 137.508502 222.562443 
L 138.056516 224.642398 
L 138.6042 225.975908 
L 139.152214 226.928316 
L 139.426221 227.217827 
L 139.700228 227.198058 
L 139.974235 226.800305 
L 140.522249 225.513628 
L 140.796256 225.184255 
L 141.070262 225.306904 
L 141.891954 226.750303 
L 142.165961 226.629823 
L 142.439968 225.871529 
L 143.535996 220.707222 
L 143.810003 220.947203 
L 145.179708 224.572936 
L 146.001729 226.81994 
L 146.275736 227.242708 
L 146.549743 227.42559 
L 146.823421 227.325503 
L 147.097427 226.92502 
L 147.371434 226.199099 
L 147.919448 223.445325 
L 148.741469 218.351188 
L 149.015476 217.920748 
L 149.289483 218.12077 
L 149.563161 218.172455 
L 149.837168 217.343701 
L 150.659188 212.464624 
L 150.933195 212.856154 
L 151.755216 217.985571 
L 152.029223 218.579327 
L 152.576908 219.012919 
L 153.672935 220.676772 
L 155.316648 222.449139 
L 156.412675 224.885011 
L 157.234696 225.524817 
L 157.508703 225.647142 
L 157.782381 225.646135 
L 159.152415 225.118221 
L 159.426422 224.719983 
L 159.700429 223.900056 
L 160.248443 220.837398 
L 161.344142 212.98663 
L 161.892155 211.361239 
L 162.440169 209.971243 
L 163.261861 207.317597 
L 163.535868 207.173653 
L 163.809875 207.822821 
L 164.631896 212.034515 
L 165.179909 215.265491 
L 166.549615 224.572154 
L 167.097629 226.677844 
L 167.645642 227.928872 
L 168.193656 228.76967 
L 168.467663 229.032715 
L 168.741341 229.125663 
L 170.111376 228.885507 
L 170.385383 228.881973 
L 170.659389 228.640388 
L 171.207403 227.307212 
L 171.755088 226.085615 
L 172.029095 226.052897 
L 172.577109 226.387292 
L 173.125123 226.164985 
L 173.39913 226.566537 
L 174.494828 230.52079 
L 174.768835 230.57496 
L 175.042842 230.281095 
L 175.590856 229.109225 
L 176.13887 227.803144 
L 176.412876 227.425098 
L 176.960561 227.225502 
L 177.234568 227.123677 
L 177.508575 226.887551 
L 178.056589 226.089661 
L 178.330596 225.92116 
L 178.604603 226.180144 
L 179.974308 229.199511 
L 181.070336 230.653817 
L 181.344343 230.854371 
L 181.61835 230.895671 
L 182.714048 230.351514 
L 183.536069 230.655842 
L 183.810076 230.481451 
L 184.35809 229.61986 
L 184.906104 228.832516 
L 185.453788 228.406136 
L 186.001802 228.148121 
L 186.549816 228.139444 
L 187.09783 228.198027 
L 187.371837 228.075563 
L 187.919522 227.35685 
L 188.467535 226.67261 
L 189.563563 226.095878 
L 190.111577 225.555309 
L 190.385255 225.56113 
L 190.659262 225.861567 
L 192.57731 229.615676 
L 193.673009 231.208479 
L 193.947016 231.493717 
L 194.221022 231.612466 
L 194.495029 231.466011 
L 195.043043 230.40581 
L 195.31705 229.892458 
L 195.591057 229.676901 
L 195.864735 229.758793 
L 196.960763 230.67576 
L 197.782783 230.990003 
L 198.330797 230.98906 
L 198.604475 230.780713 
L 199.152489 229.813463 
L 199.97451 228.015172 
L 200.248516 227.790813 
L 200.522523 227.891005 
L 201.618222 229.157734 
L 201.892229 229.144475 
L 202.71425 228.842213 
L 203.810277 229.205986 
L 204.083955 229.055296 
L 204.357962 228.570023 
L 204.905976 226.545495 
L 205.179983 225.558659 
L 205.45399 225.291626 
L 205.727997 225.956538 
L 206.550017 229.410769 
L 207.097702 230.484487 
L 208.741744 232.872018 
L 209.563435 233.539129 
L 210.111449 233.695024 
L 210.659463 233.417373 
L 211.75549 232.358003 
L 212.029497 232.360697 
L 212.577182 232.820685 
L 213.399203 233.68845 
L 214.221224 234.138769 
L 214.769237 234.184751 
L 215.042915 234.022893 
L 215.590929 233.210068 
L 216.138943 232.412159 
L 216.41295 232.309313 
L 217.234971 232.550011 
L 218.056662 232.328256 
L 219.15269 233.02231 
L 219.974711 232.283438 
L 220.248718 232.416171 
L 220.796402 233.753213 
L 221.344416 234.823897 
L 221.618423 234.843409 
L 221.89243 234.47662 
L 222.440444 233.10492 
L 222.714451 232.778801 
L 222.988458 233.088966 
L 224.084156 236.027238 
L 224.63217 236.287256 
L 225.728198 236.567392 
L 226.275883 236.72329 
L 226.549889 236.70215 
L 226.823896 236.530838 
L 227.097903 236.139507 
L 227.645917 234.744683 
L 228.193931 233.270954 
L 228.741616 232.647955 
L 229.28963 232.368781 
L 229.563636 232.39121 
L 229.837643 232.730729 
L 230.385657 234.291691 
L 230.933671 235.846748 
L 231.481356 236.789254 
L 232.02937 237.25857 
L 232.85139 237.435901 
L 233.947418 237.63717 
L 235.317124 238.279276 
L 235.865137 238.162944 
L 237.234843 237.436717 
L 237.782857 237.400829 
L 238.604877 237.082504 
L 238.878884 237.13452 
L 239.974583 237.732182 
L 241.070611 237.65443 
L 241.892631 237.280512 
L 242.166638 237.333628 
L 242.714323 237.906042 
L 243.536344 238.79054 
L 244.084358 239.055948 
L 244.358364 238.970112 
L 244.906378 238.402746 
L 245.454063 237.873066 
L 245.72807 237.794125 
L 246.276084 237.995369 
L 247.372111 238.747566 
L 248.46781 239.211503 
L 249.015824 239.444131 
L 249.563838 239.462486 
L 250.385529 239.417153 
L 251.20755 239.504688 
L 252.851592 239.346068 
L 253.673283 239.356657 
L 254.221297 239.366647 
L 255.317325 239.744713 
L 256.139016 239.721045 
L 256.961037 239.955472 
L 257.783058 240.002356 
L 258.331072 240.303369 
L 259.42677 241.118522 
L 261.34449 242.07669 
L 262.714524 242.111818 
L 263.262538 242.198427 
L 264.90625 242.841542 
L 267.371984 243.031953 
L 268.468011 243.267443 
L 269.837717 243.160827 
L 270.659738 243.197314 
L 273.947491 243.537105 
L 277.509252 243.585435 
L 342.715 243.632727 
L 342.715 243.632727 
" clip-path="url(#pab5d5f06a1)" style="fill: none; stroke: #ffa500; stroke-width: 1.5; stroke-linecap: square"/>
   </g>
   <g id="patch_3">
    <path d="M 55.33 254.72 
L 55.33 10.8 
" style="fill: none; stroke: #000000; stroke-width: 0.8; stroke-linejoin: miter; stroke-linecap: square"/>
   </g>
   <g id="patch_4">
    <path d="M 356.4 254.72 
L 356.4 10.8 
" style="fill: none; stroke: #000000; stroke-width: 0.8; stroke-linejoin: miter; stroke-linecap: square"/>
   </g>
   <g id="patch_5">
    <path d="M 55.33 254.72 
L 356.4 254.72 
" style="fill: none; stroke: #000000; stroke-width: 0.8; stroke-linejoin: miter; stroke-linecap: square"/>
   </g>
   <g id="patch_6">
    <path d="M 55.33 10.8 
L 356.4 10.8 
" style="fill: none; stroke: #000000; stroke-width: 0.8; stroke-linejoin: miter; stroke-linecap: square"/>
   </g>
   <g id="legend_1">
    <g id="patch_7">
     <path d="M 305.5625 33.478125 
L 349.4 33.478125 
Q 351.4 33.478125 351.4 31.478125 
L 351.4 17.8 
Q 351.4 15.8 349.4 15.8 
L 305.5625 15.8 
Q 303.5625 15.8 303.5625 17.8 
L 303.5625 31.478125 
Q 303.5625 33.478125 305.5625 33.478125 
z
" style="fill: #ffffff; opacity: 0.8; stroke: #cccccc; stroke-linejoin: miter"/>
    </g>
    <g id="line2d_12">
     <path d="M 307.5625 23.898438 
L 317.5625 23.898438 
L 327.5625 23.898438 
" style="fill: none; stroke: #ffa500; stroke-width: 1.5; stroke-linecap: square"/>
    </g>
    <g id="text_11">
     <!-- xx -->
     <g transform="translate(335.5625 27.398438)scale(0.1 -0.1)">
      <defs>
       <path id="DejaVuSans-78" d="M 3513 3500 
L 2247 1797 
L 3578 0 
L 2900 0 
L 1881 1375 
L 863 0 
L 184 0 
L 1544 1831 
L 300 3500 
L 978 3500 
L 1906 2253 
L 2834 3500 
L 3513 3500 
z
" transform="scale(0.015625)"/>
      </defs>
      <use xlink:href="#DejaVuSans-78"/>
      <use xlink:href="#DejaVuSans-78" x="59.179688"/>
     </g>
    </g>
   </g>
  </g>
  <g id="axes_2">
   <g id="patch_8">
    <path d="M 408.13 254.72 
L 709.2 254.72 
L 709.2 10.8 
L 408.13 10.8 
z
" style="fill: #ffffff"/>
   </g>
   <g id="matplotlib.axis_3">
    <g id="xtick_6">
     <g id="line2d_13">
      <g>
       <use xlink:href="#m62128f4b42" x="421.815" y="254.72" style="stroke: #000000; stroke-width: 0.8"/>
      </g>
     </g>
     <g id="text_12">
      <!-- 0 -->
      <g transform="translate(418.63375 269.318438)scale(0.1 -0.1)">
       <use xlink:href="#DejaVuSans-30"/>
      </g>
     </g>
    </g>
    <g id="xtick_7">
     <g id="line2d_14">
      <g>
       <use xlink:href="#m62128f4b42" x="487.602971" y="254.72" style="stroke: #000000; stroke-width: 0.8"/>
      </g>
     </g>
     <g id="text_13">
      <!-- 20 -->
      <g transform="translate(481.240471 269.318438)scale(0.1 -0.1)">
       <use xlink:href="#DejaVuSans-32"/>
       <use xlink:href="#DejaVuSans-30" x="63.623047"/>
      </g>
     </g>
    </g>
    <g id="xtick_8">
     <g id="line2d_15">
      <g>
       <use xlink:href="#m62128f4b42" x="553.390943" y="254.72" style="stroke: #000000; stroke-width: 0.8"/>
      </g>
     </g>
     <g id="text_14">
      <!-- 40 -->
      <g transform="translate(547.028443 269.318438)scale(0.1 -0.1)">
       <use xlink:href="#DejaVuSans-34"/>
       <use xlink:href="#DejaVuSans-30" x="63.623047"/>
      </g>
     </g>
    </g>
    <g id="xtick_9">
     <g id="line2d_16">
      <g>
       <use xlink:href="#m62128f4b42" x="619.178914" y="254.72" style="stroke: #000000; stroke-width: 0.8"/>
      </g>
     </g>
     <g id="text_15">
      <!-- 60 -->
      <g transform="translate(612.816414 269.318438)scale(0.1 -0.1)">
       <use xlink:href="#DejaVuSans-36"/>
       <use xlink:href="#DejaVuSans-30" x="63.623047"/>
      </g>
     </g>
    </g>
    <g id="xtick_10">
     <g id="line2d_17">
      <g>
       <use xlink:href="#m62128f4b42" x="684.966886" y="254.72" style="stroke: #000000; stroke-width: 0.8"/>
      </g>
     </g>
     <g id="text_16">
      <!-- 80 -->
      <g transform="translate(678.604386 269.318438)scale(0.1 -0.1)">
       <use xlink:href="#DejaVuSans-38"/>
       <use xlink:href="#DejaVuSans-30" x="63.623047"/>
      </g>
     </g>
    </g>
   </g>
   <g id="matplotlib.axis_4">
    <g id="ytick_6">
     <g id="line2d_18">
      <g>
       <use xlink:href="#mdf4f7c492a" x="408.13" y="243.632727" style="stroke: #000000; stroke-width: 0.8"/>
      </g>
     </g>
     <g id="text_17">
      <!-- 0.0 -->
      <g transform="translate(385.226875 247.431946)scale(0.1 -0.1)">
       <use xlink:href="#DejaVuSans-30"/>
       <use xlink:href="#DejaVuSans-2e" x="63.623047"/>
       <use xlink:href="#DejaVuSans-30" x="95.410156"/>
      </g>
     </g>
    </g>
    <g id="ytick_7">
     <g id="line2d_19">
      <g>
       <use xlink:href="#mdf4f7c492a" x="408.13" y="209.162514" style="stroke: #000000; stroke-width: 0.8"/>
      </g>
     </g>
     <g id="text_18">
      <!-- 0.2 -->
      <g transform="translate(385.226875 212.961732)scale(0.1 -0.1)">
       <use xlink:href="#DejaVuSans-30"/>
       <use xlink:href="#DejaVuSans-2e" x="63.623047"/>
       <use xlink:href="#DejaVuSans-32" x="95.410156"/>
      </g>
     </g>
    </g>
    <g id="ytick_8">
     <g id="line2d_20">
      <g>
       <use xlink:href="#mdf4f7c492a" x="408.13" y="174.6923" style="stroke: #000000; stroke-width: 0.8"/>
      </g>
     </g>
     <g id="text_19">
      <!-- 0.4 -->
      <g transform="translate(385.226875 178.491519)scale(0.1 -0.1)">
       <use xlink:href="#DejaVuSans-30"/>
       <use xlink:href="#DejaVuSans-2e" x="63.623047"/>
       <use xlink:href="#DejaVuSans-34" x="95.410156"/>
      </g>
     </g>
    </g>
    <g id="ytick_9">
     <g id="line2d_21">
      <g>
       <use xlink:href="#mdf4f7c492a" x="408.13" y="140.222086" style="stroke: #000000; stroke-width: 0.8"/>
      </g>
     </g>
     <g id="text_20">
      <!-- 0.6 -->
      <g transform="translate(385.226875 144.021305)scale(0.1 -0.1)">
       <use xlink:href="#DejaVuSans-30"/>
       <use xlink:href="#DejaVuSans-2e" x="63.623047"/>
       <use xlink:href="#DejaVuSans-36" x="95.410156"/>
      </g>
     </g>
    </g>
    <g id="ytick_10">
     <g id="line2d_22">
      <g>
       <use xlink:href="#mdf4f7c492a" x="408.13" y="105.751872" style="stroke: #000000; stroke-width: 0.8"/>
      </g>
     </g>
     <g id="text_21">
      <!-- 0.8 -->
      <g transform="translate(385.226875 109.551091)scale(0.1 -0.1)">
       <use xlink:href="#DejaVuSans-30"/>
       <use xlink:href="#DejaVuSans-2e" x="63.623047"/>
       <use xlink:href="#DejaVuSans-38" x="95.410156"/>
      </g>
     </g>
    </g>
    <g id="ytick_11">
     <g id="line2d_23">
      <g>
       <use xlink:href="#mdf4f7c492a" x="408.13" y="71.281659" style="stroke: #000000; stroke-width: 0.8"/>
      </g>
     </g>
     <g id="text_22">
      <!-- 1.0 -->
      <g transform="translate(385.226875 75.080877)scale(0.1 -0.1)">
       <use xlink:href="#DejaVuSans-31"/>
       <use xlink:href="#DejaVuSans-2e" x="63.623047"/>
       <use xlink:href="#DejaVuSans-30" x="95.410156"/>
      </g>
     </g>
    </g>
    <g id="ytick_12">
     <g id="line2d_24">
      <g>
       <use xlink:href="#mdf4f7c492a" x="408.13" y="36.811445" style="stroke: #000000; stroke-width: 0.8"/>
      </g>
     </g>
     <g id="text_23">
      <!-- 1.2 -->
      <g transform="translate(385.226875 40.610664)scale(0.1 -0.1)">
       <use xlink:href="#DejaVuSans-31"/>
       <use xlink:href="#DejaVuSans-2e" x="63.623047"/>
       <use xlink:href="#DejaVuSans-32" x="95.410156"/>
      </g>
     </g>
    </g>
   </g>
   <g id="line2d_25">
    <path d="M 421.815 240.645349 
L 422.089007 240.645349 
L 422.911028 231.632437 
L 423.458712 227.941968 
L 424.280733 223.629147 
L 425.102754 217.733863 
L 425.376761 217.767599 
L 427.29448 223.503584 
L 427.568487 223.490411 
L 427.842494 222.85821 
L 428.116501 221.665636 
L 428.390508 219.863421 
L 428.664186 217.246499 
L 429.2122 208.257374 
L 430.03422 186.109162 
L 430.582234 165.785543 
L 431.130248 132.205011 
L 431.677933 95.154777 
L 431.95194 83.414521 
L 432.225946 79.807628 
L 432.77396 86.384953 
L 433.047967 86.574719 
L 433.595981 81.084355 
L 433.869988 86.3 
L 434.69168 129.873307 
L 435.5137 174.97605 
L 436.061714 191.618869 
L 437.43142 214.754378 
L 437.705427 217.404097 
L 437.979434 218.714473 
L 438.25344 218.569767 
L 438.527447 216.692209 
L 439.075461 208.026296 
L 439.623146 194.780487 
L 440.445167 168.273082 
L 440.99318 146.429634 
L 441.541194 115.458038 
L 442.9109 23.99747 
L 443.184907 21.887273 
L 443.458914 27.283223 
L 444.006927 60.239229 
L 445.376633 150.517391 
L 445.924647 173.253956 
L 446.472661 188.355662 
L 447.020674 197.653798 
L 447.568688 201.721022 
L 447.842366 202.45006 
L 448.39038 202.401073 
L 448.664387 202.940659 
L 449.212401 206.263041 
L 449.486408 207.81014 
L 449.760414 208.134162 
L 450.034421 206.635347 
L 450.582106 198.851347 
L 450.856113 194.64796 
L 451.13012 192.271662 
L 451.404127 192.185806 
L 451.678134 192.721676 
L 451.952141 191.45401 
L 452.226148 187.216245 
L 452.774161 170.779627 
L 453.595853 142.114551 
L 453.86986 139.146307 
L 454.143867 140.392421 
L 454.691881 146.509262 
L 454.965888 148.255814 
L 455.239895 148.122454 
L 455.513902 145.563234 
L 456.335593 129.776994 
L 456.6096 128.857896 
L 457.157614 132.529941 
L 457.431621 129.937441 
L 458.527649 105.858504 
L 458.801326 104.374377 
L 459.075333 101.650151 
L 459.623347 94.451178 
L 459.897354 95.760148 
L 460.171361 102.874647 
L 460.993382 131.126353 
L 461.815073 151.462261 
L 462.637094 172.505639 
L 463.459115 185.447529 
L 464.007129 191.011512 
L 464.280807 191.990544 
L 464.554814 192.14633 
L 465.102827 191.691201 
L 465.376834 191.711168 
L 465.650841 192.242358 
L 465.924848 193.341003 
L 466.746869 198.665541 
L 467.842567 205.975775 
L 468.116574 206.295221 
L 468.390581 205.451266 
L 468.938595 201.34748 
L 469.486609 195.757433 
L 469.760287 194.581162 
L 470.034294 196.216909 
L 470.856314 208.470848 
L 471.130321 210.44879 
L 471.404328 211.310175 
L 471.678335 211.352842 
L 471.952342 210.521952 
L 472.226349 208.473395 
L 472.500027 204.730294 
L 473.048041 192.167811 
L 473.322048 185.468569 
L 473.596054 181.608571 
L 473.870061 182.753707 
L 474.692082 198.741372 
L 475.239767 203.170563 
L 475.787781 205.7265 
L 476.061788 205.875258 
L 476.335794 204.198868 
L 476.609801 200.396967 
L 477.431822 185.452315 
L 477.705829 184.292515 
L 478.253514 186.658119 
L 478.527521 185.681897 
L 478.801528 181.734271 
L 479.623548 160.5399 
L 480.719247 134.79365 
L 480.993254 131.424796 
L 481.267261 133.724253 
L 481.815275 154.036848 
L 482.363288 170.354958 
L 484.007001 196.983143 
L 484.281008 199.115363 
L 484.829022 201.032102 
L 485.103028 201.402881 
L 485.377035 201.174162 
L 485.651042 199.584925 
L 485.92472 195.61271 
L 486.198727 188.520491 
L 487.294755 151.866779 
L 487.568762 156.055455 
L 488.66446 192.724232 
L 489.212474 201.445519 
L 489.486481 203.294875 
L 490.308502 205.989634 
L 491.130522 208.699608 
L 492.226221 213.138437 
L 492.774235 213.999605 
L 493.048242 214.173528 
L 493.322249 213.912428 
L 493.596256 212.910138 
L 494.14394 208.516245 
L 494.417947 206.343157 
L 494.691954 205.395719 
L 494.965961 205.941703 
L 495.787982 209.867002 
L 496.335996 211.319718 
L 496.610003 211.841525 
L 496.883681 211.877164 
L 497.157687 210.989337 
L 497.431694 208.94724 
L 497.979708 203.342177 
L 498.253715 201.924744 
L 498.527722 202.149342 
L 499.075736 204.368665 
L 499.623421 205.353865 
L 499.897427 205.606949 
L 500.171434 205.568713 
L 500.445441 204.990156 
L 500.719448 203.786832 
L 501.267462 199.814765 
L 501.815476 196.161692 
L 502.089483 196.235692 
L 502.911174 200.96581 
L 503.733195 203.080996 
L 504.007202 203.229328 
L 504.281209 201.44268 
L 505.102901 187.647861 
L 505.376908 187.33954 
L 505.650915 191.433038 
L 506.198928 202.406662 
L 506.472935 205.49753 
L 506.746942 207.130441 
L 507.020949 207.916679 
L 507.568963 208.542732 
L 508.116648 209.092367 
L 508.664662 209.973699 
L 509.212675 210.82111 
L 509.760689 211.078315 
L 510.308703 211.061728 
L 511.130395 210.622312 
L 512.226422 209.839595 
L 512.774436 209.831084 
L 513.048443 209.468388 
L 513.322121 208.534599 
L 514.418149 202.30195 
L 514.692155 201.724491 
L 514.966162 201.783402 
L 515.240169 202.248023 
L 515.788183 204.080489 
L 517.157889 210.437565 
L 517.431896 210.898161 
L 517.705902 211.046271 
L 518.527923 210.902622 
L 519.075608 211.520257 
L 520.445642 213.688949 
L 520.993656 214.08668 
L 521.267663 214.007698 
L 521.541341 213.406183 
L 521.815348 212.141424 
L 522.363362 208.606983 
L 522.637369 207.713572 
L 522.911376 208.055475 
L 523.733396 211.646396 
L 524.007403 211.273052 
L 524.281081 209.090928 
L 524.829095 198.679918 
L 525.377109 187.536996 
L 525.651116 186.639698 
L 525.925123 190.058233 
L 526.747143 206.936419 
L 527.020821 209.968062 
L 527.294828 211.642225 
L 527.568835 212.356918 
L 527.842842 212.448724 
L 528.390856 212.014657 
L 528.664863 212.031376 
L 529.212876 212.469088 
L 529.486883 212.350212 
L 530.034568 211.201842 
L 530.308575 210.666347 
L 530.582582 210.509535 
L 530.856589 210.749088 
L 531.404603 211.634288 
L 531.67861 211.838136 
L 531.952617 211.736005 
L 532.226623 211.438144 
L 532.500301 211.344719 
L 532.774308 211.715743 
L 533.322322 213.57139 
L 533.870336 215.441701 
L 534.41835 216.687318 
L 534.966364 217.279559 
L 536.336069 218.128561 
L 536.610076 218.054069 
L 536.884083 217.648966 
L 537.432097 216.473093 
L 537.706104 216.21272 
L 538.527795 216.243342 
L 539.075809 215.929792 
L 539.349816 215.968723 
L 539.623823 216.261022 
L 540.445515 217.511134 
L 540.719522 217.602866 
L 541.541542 217.370285 
L 542.089556 217.254088 
L 543.185255 216.614548 
L 543.733269 216.502503 
L 544.281282 216.666086 
L 544.829296 216.942137 
L 545.37731 216.706401 
L 545.924995 216.532068 
L 546.473009 216.63355 
L 547.021022 216.963595 
L 547.569036 217.349153 
L 547.843043 217.413611 
L 548.391057 217.065705 
L 548.938742 216.23627 
L 549.486756 215.091327 
L 549.760763 214.760518 
L 550.034769 214.813952 
L 550.308776 215.316803 
L 551.404475 218.14976 
L 552.500503 219.874953 
L 552.77451 219.989765 
L 553.048516 219.881202 
L 553.59653 219.051471 
L 554.144215 218.264087 
L 554.966236 218.114099 
L 555.240243 217.787504 
L 555.788256 216.501146 
L 556.33627 214.255693 
L 556.610277 212.33697 
L 557.705976 201.548574 
L 557.979983 201.693249 
L 558.527997 205.497568 
L 559.350017 211.432046 
L 559.897702 214.024248 
L 560.171709 214.549122 
L 560.445716 214.61173 
L 561.267737 213.711153 
L 561.541744 213.781744 
L 561.81575 214.221984 
L 562.637442 215.977049 
L 563.459463 217.268227 
L 564.007477 218.268582 
L 564.55549 218.693076 
L 564.829497 218.915669 
L 565.103175 219.390733 
L 566.199203 222.077196 
L 566.47321 222.011734 
L 567.021224 220.908446 
L 567.295231 220.364859 
L 567.569237 220.167639 
L 567.842915 220.404498 
L 568.390929 221.364606 
L 568.664936 221.589122 
L 568.938943 221.567687 
L 569.486957 221.043014 
L 570.308978 219.948717 
L 571.130669 219.478707 
L 571.678683 219.197093 
L 571.95269 219.235237 
L 572.226697 219.533961 
L 572.774711 220.926034 
L 573.322396 222.393867 
L 573.596402 222.669143 
L 573.870409 222.433668 
L 574.418423 221.597879 
L 574.69243 222.003202 
L 575.240444 224.840951 
L 575.788458 227.375778 
L 576.062136 227.983484 
L 576.336143 228.206534 
L 576.610149 228.147079 
L 577.158163 227.868109 
L 577.43217 227.985108 
L 577.980184 228.859368 
L 578.528198 229.888924 
L 578.801876 230.21886 
L 579.075883 230.339112 
L 579.349889 230.23914 
L 580.17191 229.306974 
L 581.267938 228.605091 
L 581.815623 227.566887 
L 582.08963 226.527333 
L 582.91165 221.349902 
L 583.185657 221.075826 
L 583.459664 222.326686 
L 584.281356 228.206573 
L 584.82937 230.271949 
L 585.377383 231.470261 
L 585.925397 232.305253 
L 586.473411 232.62701 
L 587.021096 232.776132 
L 587.56911 233.412313 
L 588.117124 234.301763 
L 588.39113 234.558368 
L 588.665137 234.578213 
L 589.213151 234.0624 
L 590.034843 233.375922 
L 591.13087 232.803244 
L 591.404877 232.849928 
L 592.226898 233.301137 
L 592.500576 233.199811 
L 593.322597 232.302168 
L 593.596604 232.307882 
L 594.144617 233.005247 
L 594.692631 233.764443 
L 595.78833 234.96954 
L 596.884358 236.115319 
L 597.158364 236.197299 
L 597.432371 236.065717 
L 597.980056 235.376485 
L 598.52807 234.70183 
L 598.802077 234.607428 
L 599.076084 234.684523 
L 599.898104 235.525019 
L 600.445789 236.061627 
L 600.993803 236.267327 
L 602.089831 236.194389 
L 603.733543 235.727215 
L 605.925269 235.904621 
L 606.473283 235.341195 
L 607.021297 234.73279 
L 607.295304 234.670838 
L 607.843318 235.030226 
L 609.48703 236.229828 
L 610.035044 236.213722 
L 610.583058 236.150216 
L 611.131072 236.343372 
L 612.500777 237.642167 
L 613.048791 238.399508 
L 613.870812 239.817016 
L 614.14449 240.044408 
L 614.692503 240.129865 
L 615.240517 240.05265 
L 615.788531 240.260126 
L 617.432244 241.542979 
L 617.980257 241.719824 
L 619.350292 241.735692 
L 620.171984 241.780167 
L 623.185731 242.370289 
L 624.829772 242.476869 
L 627.84319 243.050719 
L 628.939218 243.13283 
L 630.309252 243.234269 
L 633.048992 243.336564 
L 635.788732 243.436379 
L 638.80215 243.554771 
L 644.007952 243.478558 
L 645.377658 243.324455 
L 647.843391 243.575145 
L 695.515 243.632727 
L 695.515 243.632727 
" clip-path="url(#pe514eb2e23)" style="fill: none; stroke: #0000ff; stroke-width: 1.5; stroke-linecap: square"/>
   </g>
   <g id="patch_9">
    <path d="M 408.13 254.72 
L 408.13 10.8 
" style="fill: none; stroke: #000000; stroke-width: 0.8; stroke-linejoin: miter; stroke-linecap: square"/>
   </g>
   <g id="patch_10">
    <path d="M 709.2 254.72 
L 709.2 10.8 
" style="fill: none; stroke: #000000; stroke-width: 0.8; stroke-linejoin: miter; stroke-linecap: square"/>
   </g>
   <g id="patch_11">
    <path d="M 408.13 254.72 
L 709.2 254.72 
" style="fill: none; stroke: #000000; stroke-width: 0.8; stroke-linejoin: miter; stroke-linecap: square"/>
   </g>
   <g id="patch_12">
    <path d="M 408.13 10.8 
L 709.2 10.8 
" style="fill: none; stroke: #000000; stroke-width: 0.8; stroke-linejoin: miter; stroke-linecap: square"/>
   </g>
   <g id="legend_2">
    <g id="patch_13">
     <path d="M 658.3625 33.478125 
L 702.2 33.478125 
Q 704.2 33.478125 704.2 31.478125 
L 704.2 17.8 
Q 704.2 15.8 702.2 15.8 
L 658.3625 15.8 
Q 656.3625 15.8 656.3625 17.8 
L 656.3625 31.478125 
Q 656.3625 33.478125 658.3625 33.478125 
z
" style="fill: #ffffff; opacity: 0.8; stroke: #cccccc; stroke-linejoin: miter"/>
    </g>
    <g id="line2d_26">
     <path d="M 660.3625 23.898438 
L 670.3625 23.898438 
L 680.3625 23.898438 
" style="fill: none; stroke: #0000ff; stroke-width: 1.5; stroke-linecap: square"/>
    </g>
    <g id="text_24">
     <!-- yy -->
     <g transform="translate(688.3625 27.398438)scale(0.1 -0.1)">
      <defs>
       <path id="DejaVuSans-79" d="M 2059 -325 
Q 1816 -950 1584 -1140 
Q 1353 -1331 966 -1331 
L 506 -1331 
L 506 -850 
L 844 -850 
Q 1081 -850 1212 -737 
Q 1344 -625 1503 -206 
L 1606 56 
L 191 3500 
L 800 3500 
L 1894 763 
L 2988 3500 
L 3597 3500 
L 2059 -325 
z
" transform="scale(0.015625)"/>
      </defs>
      <use xlink:href="#DejaVuSans-79"/>
      <use xlink:href="#DejaVuSans-79" x="59.179688"/>
     </g>
    </g>
   </g>
  </g>
  <g id="axes_3">
   <g id="patch_14">
    <path d="M 55.33 526.52 
L 356.4 526.52 
L 356.4 282.6 
L 55.33 282.6 
z
" style="fill: #ffffff"/>
   </g>
   <g id="matplotlib.axis_5">
    <g id="xtick_11">
     <g id="line2d_27">
      <g>
       <use xlink:href="#m62128f4b42" x="69.015" y="526.52" style="stroke: #000000; stroke-width: 0.8"/>
      </g>
     </g>
     <g id="text_25">
      <!-- 0 -->
      <g transform="translate(65.83375 541.118437)scale(0.1 -0.1)">
       <use xlink:href="#DejaVuSans-30"/>
      </g>
     </g>
    </g>
    <g id="xtick_12">
     <g id="line2d_28">
      <g>
       <use xlink:href="#m62128f4b42" x="134.802971" y="526.52" style="stroke: #000000; stroke-width: 0.8"/>
      </g>
     </g>
     <g id="text_26">
      <!-- 20 -->
      <g transform="translate(128.440471 541.118437)scale(0.1 -0.1)">
       <use xlink:href="#DejaVuSans-32"/>
       <use xlink:href="#DejaVuSans-30" x="63.623047"/>
      </g>
     </g>
    </g>
    <g id="xtick_13">
     <g id="line2d_29">
      <g>
       <use xlink:href="#m62128f4b42" x="200.590943" y="526.52" style="stroke: #000000; stroke-width: 0.8"/>
      </g>
     </g>
     <g id="text_27">
      <!-- 40 -->
      <g transform="translate(194.228443 541.118437)scale(0.1 -0.1)">
       <use xlink:href="#DejaVuSans-34"/>
       <use xlink:href="#DejaVuSans-30" x="63.623047"/>
      </g>
     </g>
    </g>
    <g id="xtick_14">
     <g id="line2d_30">
      <g>
       <use xlink:href="#m62128f4b42" x="266.378914" y="526.52" style="stroke: #000000; stroke-width: 0.8"/>
      </g>
     </g>
     <g id="text_28">
      <!-- 60 -->
      <g transform="translate(260.016414 541.118437)scale(0.1 -0.1)">
       <use xlink:href="#DejaVuSans-36"/>
       <use xlink:href="#DejaVuSans-30" x="63.623047"/>
      </g>
     </g>
    </g>
    <g id="xtick_15">
     <g id="line2d_31">
      <g>
       <use xlink:href="#m62128f4b42" x="332.166886" y="526.52" style="stroke: #000000; stroke-width: 0.8"/>
      </g>
     </g>
     <g id="text_29">
      <!-- 80 -->
      <g transform="translate(325.804386 541.118437)scale(0.1 -0.1)">
       <use xlink:href="#DejaVuSans-38"/>
       <use xlink:href="#DejaVuSans-30" x="63.623047"/>
      </g>
     </g>
    </g>
   </g>
   <g id="matplotlib.axis_6">
    <g id="ytick_13">
     <g id="line2d_32">
      <g>
       <use xlink:href="#mdf4f7c492a" x="55.33" y="515.432727" style="stroke: #000000; stroke-width: 0.8"/>
      </g>
     </g>
     <g id="text_30">
      <!-- 0.0 -->
      <g transform="translate(32.426875 519.231946)scale(0.1 -0.1)">
       <use xlink:href="#DejaVuSans-30"/>
       <use xlink:href="#DejaVuSans-2e" x="63.623047"/>
       <use xlink:href="#DejaVuSans-30" x="95.410156"/>
      </g>
     </g>
    </g>
    <g id="ytick_14">
     <g id="line2d_33">
      <g>
       <use xlink:href="#mdf4f7c492a" x="55.33" y="478.502363" style="stroke: #000000; stroke-width: 0.8"/>
      </g>
     </g>
     <g id="text_31">
      <!-- 0.2 -->
      <g transform="translate(32.426875 482.301582)scale(0.1 -0.1)">
       <use xlink:href="#DejaVuSans-30"/>
       <use xlink:href="#DejaVuSans-2e" x="63.623047"/>
       <use xlink:href="#DejaVuSans-32" x="95.410156"/>
      </g>
     </g>
    </g>
    <g id="ytick_15">
     <g id="line2d_34">
      <g>
       <use xlink:href="#mdf4f7c492a" x="55.33" y="441.571999" style="stroke: #000000; stroke-width: 0.8"/>
      </g>
     </g>
     <g id="text_32">
      <!-- 0.4 -->
      <g transform="translate(32.426875 445.371218)scale(0.1 -0.1)">
       <use xlink:href="#DejaVuSans-30"/>
       <use xlink:href="#DejaVuSans-2e" x="63.623047"/>
       <use xlink:href="#DejaVuSans-34" x="95.410156"/>
      </g>
     </g>
    </g>
    <g id="ytick_16">
     <g id="line2d_35">
      <g>
       <use xlink:href="#mdf4f7c492a" x="55.33" y="404.641635" style="stroke: #000000; stroke-width: 0.8"/>
      </g>
     </g>
     <g id="text_33">
      <!-- 0.6 -->
      <g transform="translate(32.426875 408.440853)scale(0.1 -0.1)">
       <use xlink:href="#DejaVuSans-30"/>
       <use xlink:href="#DejaVuSans-2e" x="63.623047"/>
       <use xlink:href="#DejaVuSans-36" x="95.410156"/>
      </g>
     </g>
    </g>
    <g id="ytick_17">
     <g id="line2d_36">
      <g>
       <use xlink:href="#mdf4f7c492a" x="55.33" y="367.71127" style="stroke: #000000; stroke-width: 0.8"/>
      </g>
     </g>
     <g id="text_34">
      <!-- 0.8 -->
      <g transform="translate(32.426875 371.510489)scale(0.1 -0.1)">
       <use xlink:href="#DejaVuSans-30"/>
       <use xlink:href="#DejaVuSans-2e" x="63.623047"/>
       <use xlink:href="#DejaVuSans-38" x="95.410156"/>
      </g>
     </g>
    </g>
    <g id="ytick_18">
     <g id="line2d_37">
      <g>
       <use xlink:href="#mdf4f7c492a" x="55.33" y="330.780906" style="stroke: #000000; stroke-width: 0.8"/>
      </g>
     </g>
     <g id="text_35">
      <!-- 1.0 -->
      <g transform="translate(32.426875 334.580125)scale(0.1 -0.1)">
       <use xlink:href="#DejaVuSans-31"/>
       <use xlink:href="#DejaVuSans-2e" x="63.623047"/>
       <use xlink:href="#DejaVuSans-30" x="95.410156"/>
      </g>
     </g>
    </g>
    <g id="ytick_19">
     <g id="line2d_38">
      <g>
       <use xlink:href="#mdf4f7c492a" x="55.33" y="293.850542" style="stroke: #000000; stroke-width: 0.8"/>
      </g>
     </g>
     <g id="text_36">
      <!-- 1.2 -->
      <g transform="translate(32.426875 297.649761)scale(0.1 -0.1)">
       <use xlink:href="#DejaVuSans-31"/>
       <use xlink:href="#DejaVuSans-2e" x="63.623047"/>
       <use xlink:href="#DejaVuSans-32" x="95.410156"/>
      </g>
     </g>
    </g>
   </g>
   <g id="line2d_39">
    <path d="M 69.015 510.290429 
L 69.289007 510.290429 
L 70.111028 495.993125 
L 70.658712 480.358143 
L 71.206726 461.522651 
L 71.480733 460.271107 
L 73.672459 483.150347 
L 74.220473 486.266077 
L 75.042494 491.642639 
L 75.316501 491.856726 
L 75.590508 490.900291 
L 76.138193 486.359355 
L 76.960213 477.985729 
L 77.23422 476.366711 
L 78.056241 473.699986 
L 78.603926 469.883237 
L 79.15194 463.441704 
L 79.97396 450.521118 
L 80.247967 450.330919 
L 80.521974 454.031885 
L 81.343666 471.622711 
L 81.617673 473.492067 
L 81.89168 472.534084 
L 82.165687 469.301039 
L 82.7137 457.688916 
L 83.535721 438.256989 
L 83.809728 434.673296 
L 84.083406 432.793646 
L 84.357413 432.482129 
L 84.63142 432.468038 
L 84.905427 430.915373 
L 85.179434 426.774877 
L 85.45344 419.779779 
L 86.001454 395.937705 
L 86.549468 350.726658 
L 87.097153 293.687273 
L 87.37116 294.56387 
L 88.19318 394.589961 
L 88.467187 408.067892 
L 88.741194 412.914525 
L 89.015201 413.480794 
L 89.289208 413.334745 
L 89.562886 415.612172 
L 90.1109 430.926718 
L 90.384907 438.807765 
L 90.658914 442.998288 
L 90.932921 442.848207 
L 91.206927 438.80133 
L 92.302626 411.213205 
L 92.576633 411.131838 
L 92.85064 414.666504 
L 93.398654 426.738124 
L 95.042366 469.598631 
L 95.59038 476.712533 
L 96.138394 480.327111 
L 96.686408 482.604015 
L 97.234421 486.083772 
L 97.782106 490.026151 
L 98.33012 492.37552 
L 98.604127 492.85931 
L 98.878134 492.958507 
L 99.426148 492.486983 
L 99.700155 492.113961 
L 99.974161 491.414865 
L 100.248168 489.80527 
L 100.521846 486.530107 
L 101.06986 473.601277 
L 101.617874 451.44246 
L 102.165888 413.083181 
L 102.713902 361.340373 
L 102.987908 350.873785 
L 103.261586 357.696681 
L 103.8096 386.382677 
L 104.083607 395.457249 
L 104.357614 399.307708 
L 104.631621 398.830088 
L 105.179635 393.055759 
L 105.453642 392.967376 
L 106.54934 404.993766 
L 106.823347 404.989349 
L 107.097354 407.04339 
L 107.371361 413.301327 
L 108.193382 439.041678 
L 108.467389 441.201921 
L 108.741067 439.146209 
L 109.015073 433.585518 
L 110.111101 401.894043 
L 110.385108 400.653296 
L 110.659115 403.127427 
L 111.480807 415.478113 
L 112.02882 419.470712 
L 112.302827 421.401998 
L 112.576834 425.100521 
L 113.124848 439.507604 
L 113.672862 454.490471 
L 114.220547 461.867125 
L 114.494554 463.413262 
L 114.76856 463.898378 
L 115.042567 463.307396 
L 115.316574 461.656018 
L 115.864588 455.566552 
L 116.686609 440.973317 
L 117.234294 433.291788 
L 117.508301 432.115769 
L 117.782307 432.295712 
L 118.056314 432.874315 
L 118.330321 432.9395 
L 118.604328 432.064528 
L 119.152342 429.509486 
L 119.426349 429.22339 
L 119.700027 429.448549 
L 119.974034 429.854087 
L 120.248041 431.034486 
L 120.522048 433.942474 
L 121.070061 444.723241 
L 121.892082 460.642447 
L 122.166089 463.172495 
L 122.439767 463.867512 
L 122.713774 463.170593 
L 123.261788 459.798727 
L 123.809801 454.816531 
L 124.357815 446.937046 
L 125.179507 433.468958 
L 125.727521 427.647896 
L 126.549541 414.949233 
L 126.823548 416.705813 
L 128.193254 447.058427 
L 129.015275 455.808226 
L 129.289282 457.390467 
L 129.563288 457.412387 
L 129.837295 455.5061 
L 130.38498 448.839913 
L 130.658987 447.422777 
L 130.932994 448.849725 
L 132.029022 461.956293 
L 132.577035 465.740143 
L 132.851042 467.066724 
L 133.12472 467.802342 
L 133.398727 467.622659 
L 133.672734 466.206071 
L 134.494755 458.245111 
L 134.768762 457.81423 
L 135.316775 460.302023 
L 135.590782 460.508235 
L 135.86446 458.837814 
L 136.960488 444.801849 
L 137.234495 444.294334 
L 137.508502 445.171326 
L 137.782509 446.982942 
L 138.330522 453.610692 
L 139.152214 465.455166 
L 139.700228 469.214109 
L 139.974235 469.909153 
L 140.248242 469.506405 
L 140.522249 467.520144 
L 141.070262 459.038434 
L 141.34394 454.67953 
L 141.617947 452.45963 
L 141.891954 452.925368 
L 142.439968 456.097751 
L 143.261989 458.032763 
L 143.810003 460.216975 
L 144.083681 462.124764 
L 145.179708 473.489502 
L 145.453715 473.8371 
L 145.727722 473.776274 
L 146.001729 473.998243 
L 146.275736 474.486788 
L 146.549743 474.537035 
L 146.823421 473.298409 
L 147.097427 470.102513 
L 147.371434 464.648238 
L 148.467462 432.163518 
L 148.741469 431.78695 
L 149.015476 438.487933 
L 149.563161 458.320366 
L 150.111174 469.16746 
L 150.659188 474.890957 
L 150.933195 476.939328 
L 151.207202 477.99718 
L 151.481209 477.617135 
L 151.755216 475.579504 
L 152.850915 462.299419 
L 153.124921 462.745033 
L 154.494956 471.718431 
L 155.042641 472.802036 
L 155.316648 473.058325 
L 155.590655 473.113606 
L 156.412675 472.500427 
L 156.686682 472.901521 
L 157.508703 474.988444 
L 157.782381 475.068124 
L 158.604402 474.271515 
L 158.878408 473.711922 
L 159.426422 471.025595 
L 159.700429 469.599917 
L 159.974436 468.991771 
L 160.248443 469.529616 
L 160.796128 472.644735 
L 161.344142 475.581478 
L 161.618149 476.26694 
L 161.892155 476.224807 
L 162.166162 475.448868 
L 162.988183 471.493061 
L 163.261861 471.394066 
L 163.535868 472.397345 
L 164.083882 475.301854 
L 164.357889 475.803714 
L 164.631896 475.532364 
L 165.179909 474.373185 
L 165.453916 474.385486 
L 165.727923 475.157957 
L 167.097629 481.734614 
L 167.371636 482.066753 
L 167.645642 482.048084 
L 167.919649 481.386774 
L 168.193656 479.413071 
L 168.741341 470.25358 
L 169.289355 460.862584 
L 169.563362 459.10954 
L 170.111376 457.114255 
L 170.385383 456.059299 
L 170.659389 456.657561 
L 170.933396 459.639655 
L 171.755088 470.998024 
L 172.303102 474.449333 
L 172.577109 474.947212 
L 172.851116 474.295956 
L 173.39913 470.744292 
L 173.673136 469.922021 
L 173.947143 470.774592 
L 175.042842 478.683671 
L 175.316849 479.032576 
L 175.590856 478.954398 
L 175.864863 479.024518 
L 176.13887 479.716347 
L 177.234568 485.150248 
L 177.508575 485.450983 
L 177.782582 485.37197 
L 178.056589 485.078298 
L 178.604603 483.839196 
L 179.152617 482.679586 
L 179.426623 482.74638 
L 179.974308 483.826976 
L 180.522322 484.887913 
L 180.796329 485.194223 
L 181.070336 485.269424 
L 181.344343 485.006919 
L 181.892357 484.075949 
L 182.166364 483.954869 
L 182.988055 484.558311 
L 183.262062 484.453243 
L 184.084083 483.16084 
L 184.632097 482.235203 
L 185.453788 480.271278 
L 185.727795 480.015215 
L 186.001802 480.121625 
L 186.549816 480.590962 
L 186.823823 480.585524 
L 187.371837 480.004485 
L 187.919522 479.454701 
L 188.193529 479.560392 
L 189.289556 481.034359 
L 189.563563 480.986523 
L 190.111577 480.361087 
L 190.659262 479.58053 
L 190.933269 479.541656 
L 191.207276 480.050429 
L 191.481282 481.218314 
L 192.57731 488.085468 
L 193.124995 489.917284 
L 193.673009 491.04376 
L 193.947016 491.226827 
L 194.221022 491.043025 
L 195.31705 488.934546 
L 195.591057 488.828892 
L 196.138742 489.030636 
L 196.686756 489.232623 
L 197.234769 488.937451 
L 198.330797 487.931636 
L 199.700503 486.2104 
L 199.97451 486.259883 
L 201.070537 486.879671 
L 201.344215 486.898673 
L 201.618222 486.66804 
L 201.892229 486.114677 
L 202.440243 484.357652 
L 202.988256 482.081794 
L 203.262263 480.396527 
L 204.357962 470.911384 
L 204.631969 471.010162 
L 205.179983 472.773394 
L 205.45399 472.646838 
L 206.002003 471.835103 
L 206.27601 471.611753 
L 207.097702 470.263057 
L 207.371709 470.805818 
L 208.19373 474.293016 
L 208.467737 474.434856 
L 208.741744 474.333826 
L 209.01575 474.578525 
L 209.289757 475.457785 
L 209.837442 479.079782 
L 210.385456 482.904167 
L 210.659463 484.122239 
L 210.93347 484.703254 
L 211.207477 484.846045 
L 211.481484 484.855937 
L 211.75549 485.175318 
L 212.029497 486.090764 
L 212.577182 489.519882 
L 213.125196 492.924016 
L 213.67321 494.819699 
L 213.947217 495.187965 
L 214.221224 495.187723 
L 214.495231 494.837058 
L 215.042915 493.481917 
L 215.590929 492.138115 
L 216.138943 491.424711 
L 216.686957 491.076991 
L 217.234971 490.950374 
L 217.508978 491.069306 
L 217.782655 491.373847 
L 218.056662 491.945337 
L 218.604676 493.908779 
L 219.426697 496.948594 
L 219.974711 497.843106 
L 221.070409 499.050542 
L 221.89243 499.623615 
L 223.262136 501.111653 
L 224.358163 502.890686 
L 224.63217 503.05874 
L 225.180184 503.043796 
L 226.001876 502.720688 
L 226.549889 502.244296 
L 227.919924 500.616271 
L 228.467938 500.843026 
L 230.659664 502.565068 
L 231.207678 502.98561 
L 232.02937 503.241152 
L 232.577383 503.378672 
L 233.125397 503.256782 
L 233.673411 503.1147 
L 233.947418 503.217713 
L 234.495103 503.780719 
L 235.043117 504.253044 
L 235.317124 504.219776 
L 235.59113 504.000263 
L 237.782857 500.926046 
L 238.056864 500.913375 
L 238.604877 501.342194 
L 240.24859 503.090061 
L 240.796604 504.063446 
L 241.892631 506.254568 
L 242.166638 506.466438 
L 242.440316 506.491445 
L 242.98833 506.049801 
L 243.536344 505.592001 
L 243.810351 505.556183 
L 244.632371 505.952783 
L 245.180056 505.881112 
L 245.72807 505.73882 
L 246.276084 505.7584 
L 246.550091 505.854977 
L 247.098104 506.420922 
L 247.919796 507.607507 
L 248.46781 507.864472 
L 249.563838 507.758647 
L 250.111851 507.480526 
L 250.659536 506.946375 
L 251.481557 505.727169 
L 251.755564 505.648948 
L 252.029571 505.847219 
L 253.399276 507.735716 
L 253.673283 507.78032 
L 254.221297 507.538175 
L 255.591332 506.650148 
L 255.86501 506.72467 
L 256.413023 507.465277 
L 257.509051 509.317512 
L 257.783058 509.518879 
L 258.057065 509.556054 
L 258.60475 509.374145 
L 258.878757 509.4277 
L 259.152763 509.684656 
L 259.700777 510.704511 
L 260.248791 511.824777 
L 260.796805 512.448153 
L 261.070812 512.508904 
L 261.34449 512.388815 
L 262.440517 511.388572 
L 262.714524 511.513053 
L 263.810552 512.759165 
L 264.358237 512.932131 
L 264.90625 512.798659 
L 265.180257 512.525471 
L 265.728271 511.381866 
L 266.276285 510.178904 
L 266.550292 510.089639 
L 266.82397 510.42776 
L 267.919997 512.970006 
L 268.468011 513.519876 
L 269.016025 513.752241 
L 269.837717 513.718919 
L 270.933744 513.503869 
L 271.481758 513.633793 
L 273.399478 514.495265 
L 275.591204 514.9149 
L 280.52267 514.985641 
L 281.892705 515.199491 
L 286.550164 515.30686 
L 288.74189 515.370114 
L 342.715 515.432727 
L 342.715 515.432727 
" clip-path="url(#p4154a2a76e)" style="fill: none; stroke: #ff0000; stroke-width: 1.5; stroke-linecap: square"/>
   </g>
   <g id="patch_15">
    <path d="M 55.33 526.52 
L 55.33 282.6 
" style="fill: none; stroke: #000000; stroke-width: 0.8; stroke-linejoin: miter; stroke-linecap: square"/>
   </g>
   <g id="patch_16">
    <path d="M 356.4 526.52 
L 356.4 282.6 
" style="fill: none; stroke: #000000; stroke-width: 0.8; stroke-linejoin: miter; stroke-linecap: square"/>
   </g>
   <g id="patch_17">
    <path d="M 55.33 526.52 
L 356.4 526.52 
" style="fill: none; stroke: #000000; stroke-width: 0.8; stroke-linejoin: miter; stroke-linecap: square"/>
   </g>
   <g id="patch_18">
    <path d="M 55.33 282.6 
L 356.4 282.6 
" style="fill: none; stroke: #000000; stroke-width: 0.8; stroke-linejoin: miter; stroke-linecap: square"/>
   </g>
   <g id="legend_3">
    <g id="patch_19">
     <path d="M 306.903125 305.278125 
L 349.4 305.278125 
Q 351.4 305.278125 351.4 303.278125 
L 351.4 289.6 
Q 351.4 287.6 349.4 287.6 
L 306.903125 287.6 
Q 304.903125 287.6 304.903125 289.6 
L 304.903125 303.278125 
Q 304.903125 305.278125 306.903125 305.278125 
z
" style="fill: #ffffff; opacity: 0.8; stroke: #cccccc; stroke-linejoin: miter"/>
    </g>
    <g id="line2d_40">
     <path d="M 308.903125 295.698438 
L 318.903125 295.698438 
L 328.903125 295.698438 
" style="fill: none; stroke: #ff0000; stroke-width: 1.5; stroke-linecap: square"/>
    </g>
    <g id="text_37">
     <!-- zz -->
     <g transform="translate(336.903125 299.198438)scale(0.1 -0.1)">
      <defs>
       <path id="DejaVuSans-7a" d="M 353 3500 
L 3084 3500 
L 3084 2975 
L 922 459 
L 3084 459 
L 3084 0 
L 275 0 
L 275 525 
L 2438 3041 
L 353 3041 
L 353 3500 
z
" transform="scale(0.015625)"/>
      </defs>
      <use xlink:href="#DejaVuSans-7a"/>
      <use xlink:href="#DejaVuSans-7a" x="52.490234"/>
     </g>
    </g>
   </g>
  </g>
  <g id="axes_4">
   <g id="patch_20">
    <path d="M 408.13 526.52 
L 709.2 526.52 
L 709.2 282.6 
L 408.13 282.6 
z
" style="fill: #ffffff"/>
   </g>
   <g id="matplotlib.axis_7">
    <g id="xtick_16">
     <g id="line2d_41">
      <g>
       <use xlink:href="#m62128f4b42" x="421.815" y="526.52" style="stroke: #000000; stroke-width: 0.8"/>
      </g>
     </g>
     <g id="text_38">
      <!-- 0 -->
      <g transform="translate(418.63375 541.118437)scale(0.1 -0.1)">
       <use xlink:href="#DejaVuSans-30"/>
      </g>
     </g>
    </g>
    <g id="xtick_17">
     <g id="line2d_42">
      <g>
       <use xlink:href="#m62128f4b42" x="487.602971" y="526.52" style="stroke: #000000; stroke-width: 0.8"/>
      </g>
     </g>
     <g id="text_39">
      <!-- 20 -->
      <g transform="translate(481.240471 541.118437)scale(0.1 -0.1)">
       <use xlink:href="#DejaVuSans-32"/>
       <use xlink:href="#DejaVuSans-30" x="63.623047"/>
      </g>
     </g>
    </g>
    <g id="xtick_18">
     <g id="line2d_43">
      <g>
       <use xlink:href="#m62128f4b42" x="553.390943" y="526.52" style="stroke: #000000; stroke-width: 0.8"/>
      </g>
     </g>
     <g id="text_40">
      <!-- 40 -->
      <g transform="translate(547.028443 541.118437)scale(0.1 -0.1)">
       <use xlink:href="#DejaVuSans-34"/>
       <use xlink:href="#DejaVuSans-30" x="63.623047"/>
      </g>
     </g>
    </g>
    <g id="xtick_19">
     <g id="line2d_44">
      <g>
       <use xlink:href="#m62128f4b42" x="619.178914" y="526.52" style="stroke: #000000; stroke-width: 0.8"/>
      </g>
     </g>
     <g id="text_41">
      <!-- 60 -->
      <g transform="translate(612.816414 541.118437)scale(0.1 -0.1)">
       <use xlink:href="#DejaVuSans-36"/>
       <use xlink:href="#DejaVuSans-30" x="63.623047"/>
      </g>
     </g>
    </g>
    <g id="xtick_20">
     <g id="line2d_45">
      <g>
       <use xlink:href="#m62128f4b42" x="684.966886" y="526.52" style="stroke: #000000; stroke-width: 0.8"/>
      </g>
     </g>
     <g id="text_42">
      <!-- 80 -->
      <g transform="translate(678.604386 541.118437)scale(0.1 -0.1)">
       <use xlink:href="#DejaVuSans-38"/>
       <use xlink:href="#DejaVuSans-30" x="63.623047"/>
      </g>
     </g>
    </g>
   </g>
   <g id="matplotlib.axis_8">
    <g id="ytick_20">
     <g id="line2d_46">
      <g>
       <use xlink:href="#mdf4f7c492a" x="408.13" y="515.432727" style="stroke: #000000; stroke-width: 0.8"/>
      </g>
     </g>
     <g id="text_43">
      <!-- 3000 -->
      <g transform="translate(367.300313 519.231946)scale(0.1 -0.1)">
       <defs>
        <path id="DejaVuSans-2212" d="M 678 2272 
L 4684 2272 
L 4684 1741 
L 678 1741 
L 678 2272 
z
" transform="scale(0.015625)"/>
        <path id="DejaVuSans-33" d="M 2597 2516 
Q 3050 2419 3304 2112 
Q 3559 1806 3559 1356 
Q 3559 666 3084 287 
Q 2609 -91 1734 -91 
Q 1441 -91 1130 -33 
Q 819 25 488 141 
L 488 750 
Q 750 597 1062 519 
Q 1375 441 1716 441 
Q 2309 441 2620 675 
Q 2931 909 2931 1356 
Q 2931 1769 2642 2001 
Q 2353 2234 1838 2234 
L 1294 2234 
L 1294 2753 
L 1863 2753 
Q 2328 2753 2575 2939 
Q 2822 3125 2822 3475 
Q 2822 3834 2567 4026 
Q 2313 4219 1838 4219 
Q 1578 4219 1281 4162 
Q 984 4106 628 3988 
L 628 4550 
Q 988 4650 1302 4700 
Q 1616 4750 1894 4750 
Q 2613 4750 3031 4423 
Q 3450 4097 3450 3541 
Q 3450 3153 3228 2886 
Q 3006 2619 2597 2516 
z
" transform="scale(0.015625)"/>
       </defs>
       <use xlink:href="#DejaVuSans-2212"/>
       <use xlink:href="#DejaVuSans-33" x="83.789062"/>
       <use xlink:href="#DejaVuSans-30" x="147.412109"/>
       <use xlink:href="#DejaVuSans-30" x="211.035156"/>
       <use xlink:href="#DejaVuSans-30" x="274.658203"/>
      </g>
     </g>
    </g>
    <g id="ytick_21">
     <g id="line2d_47">
      <g>
       <use xlink:href="#mdf4f7c492a" x="408.13" y="478.475152" style="stroke: #000000; stroke-width: 0.8"/>
      </g>
     </g>
     <g id="text_44">
      <!-- 2000 -->
      <g transform="translate(367.300313 482.27437)scale(0.1 -0.1)">
       <use xlink:href="#DejaVuSans-2212"/>
       <use xlink:href="#DejaVuSans-32" x="83.789062"/>
       <use xlink:href="#DejaVuSans-30" x="147.412109"/>
       <use xlink:href="#DejaVuSans-30" x="211.035156"/>
       <use xlink:href="#DejaVuSans-30" x="274.658203"/>
      </g>
     </g>
    </g>
    <g id="ytick_22">
     <g id="line2d_48">
      <g>
       <use xlink:href="#mdf4f7c492a" x="408.13" y="441.517576" style="stroke: #000000; stroke-width: 0.8"/>
      </g>
     </g>
     <g id="text_45">
      <!-- 1000 -->
      <g transform="translate(367.300313 445.316795)scale(0.1 -0.1)">
       <use xlink:href="#DejaVuSans-2212"/>
       <use xlink:href="#DejaVuSans-31" x="83.789062"/>
       <use xlink:href="#DejaVuSans-30" x="147.412109"/>
       <use xlink:href="#DejaVuSans-30" x="211.035156"/>
       <use xlink:href="#DejaVuSans-30" x="274.658203"/>
      </g>
     </g>
    </g>
    <g id="ytick_23">
     <g id="line2d_49">
      <g>
       <use xlink:href="#mdf4f7c492a" x="408.13" y="404.56" style="stroke: #000000; stroke-width: 0.8"/>
      </g>
     </g>
     <g id="text_46">
      <!-- 0 -->
      <g transform="translate(394.7675 408.359219)scale(0.1 -0.1)">
       <use xlink:href="#DejaVuSans-30"/>
      </g>
     </g>
    </g>
    <g id="ytick_24">
     <g id="line2d_50">
      <g>
       <use xlink:href="#mdf4f7c492a" x="408.13" y="367.602424" style="stroke: #000000; stroke-width: 0.8"/>
      </g>
     </g>
     <g id="text_47">
      <!-- 1000 -->
      <g transform="translate(375.68 371.401643)scale(0.1 -0.1)">
       <use xlink:href="#DejaVuSans-31"/>
       <use xlink:href="#DejaVuSans-30" x="63.623047"/>
       <use xlink:href="#DejaVuSans-30" x="127.246094"/>
       <use xlink:href="#DejaVuSans-30" x="190.869141"/>
      </g>
     </g>
    </g>
    <g id="ytick_25">
     <g id="line2d_51">
      <g>
       <use xlink:href="#mdf4f7c492a" x="408.13" y="330.644848" style="stroke: #000000; stroke-width: 0.8"/>
      </g>
     </g>
     <g id="text_48">
      <!-- 2000 -->
      <g transform="translate(375.68 334.444067)scale(0.1 -0.1)">
       <use xlink:href="#DejaVuSans-32"/>
       <use xlink:href="#DejaVuSans-30" x="63.623047"/>
       <use xlink:href="#DejaVuSans-30" x="127.246094"/>
       <use xlink:href="#DejaVuSans-30" x="190.869141"/>
      </g>
     </g>
    </g>
    <g id="ytick_26">
     <g id="line2d_52">
      <g>
       <use xlink:href="#mdf4f7c492a" x="408.13" y="293.687273" style="stroke: #000000; stroke-width: 0.8"/>
      </g>
     </g>
     <g id="text_49">
      <!-- 3000 -->
      <g transform="translate(375.68 297.486491)scale(0.1 -0.1)">
       <use xlink:href="#DejaVuSans-33"/>
       <use xlink:href="#DejaVuSans-30" x="63.623047"/>
       <use xlink:href="#DejaVuSans-30" x="127.246094"/>
       <use xlink:href="#DejaVuSans-30" x="190.869141"/>
      </g>
     </g>
    </g>
   </g>
   <g id="line2d_53">
    <path d="M 421.815 404.553002 
L 424.55474 404.636207 
L 425.102754 404.755736 
L 425.376761 404.91446 
L 425.650768 404.466394 
L 428.116501 404.610505 
L 431.403926 404.52691 
L 432.225946 404.499117 
L 432.77396 404.599306 
L 433.047967 404.512379 
L 433.321974 404.299454 
L 433.595981 403.803777 
L 433.869988 401.773496 
L 434.143666 407.862111 
L 434.417673 406.507025 
L 434.69168 406.054968 
L 434.965687 405.924271 
L 435.239693 405.981164 
L 435.5137 406.269248 
L 435.787707 407.16877 
L 436.061714 411.951515 
L 436.335721 400.63688 
L 436.609728 403.413898 
L 436.883406 404.079204 
L 437.43142 404.491311 
L 438.25344 404.61298 
L 440.17116 404.673336 
L 441.815201 404.523 
L 443.458914 404.171704 
L 444.554941 403.853323 
L 445.376633 403.794008 
L 445.924647 404.024987 
L 446.746668 404.551855 
L 447.842366 404.874654 
L 449.212401 405.05939 
L 450.308428 404.912549 
L 452.774161 404.679523 
L 453.048168 404.749623 
L 453.595853 405.096978 
L 454.143867 404.972746 
L 455.239895 404.720852 
L 456.061586 404.525134 
L 456.6096 404.211105 
L 457.157614 403.593312 
L 457.705628 406.884244 
L 457.979635 406.144453 
L 458.527649 405.494559 
L 459.34934 405.036746 
L 460.445368 404.733348 
L 462.08908 404.244624 
L 463.459115 403.611878 
L 464.007129 403.365243 
L 464.82882 403.954893 
L 465.376834 403.849596 
L 467.842567 403.031289 
L 468.664588 402.873438 
L 469.212602 402.417737 
L 469.760287 401.873187 
L 470.308301 401.832727 
L 470.856314 402.029053 
L 471.130321 402.639413 
L 471.404328 404.720337 
L 471.678335 411.002146 
L 471.952342 420.628511 
L 472.500027 400.635302 
L 472.774034 386.699461 
L 473.048041 379.072017 
L 473.322048 421.022172 
L 473.596054 413.526039 
L 474.144068 409.103078 
L 474.692082 407.120725 
L 475.239767 405.897831 
L 475.787781 405.242285 
L 477.979507 403.576869 
L 478.527521 403.478095 
L 479.897555 403.584899 
L 480.719247 403.888587 
L 481.267261 404.244107 
L 482.363288 405.26897 
L 482.637295 405.263686 
L 482.911302 405.13004 
L 483.18498 404.56 
L 483.732994 402.144472 
L 484.007001 402.672269 
L 484.829022 405.474791 
L 485.103028 405.627367 
L 485.377035 404.56 
L 485.651042 404.178994 
L 485.92472 404.691522 
L 486.746741 406.773953 
L 487.294755 407.716342 
L 488.116775 408.512111 
L 488.390782 408.624708 
L 488.66446 407.826968 
L 488.938467 374.124349 
L 489.212474 404.908656 
L 489.486481 406.473828 
L 489.760488 406.7862 
L 490.308502 406.755661 
L 491.130522 406.268739 
L 492.774235 404.900743 
L 493.870262 404.144666 
L 495.513975 403.47246 
L 496.610003 402.759508 
L 497.705701 402.128686 
L 498.801729 401.070855 
L 499.075736 400.71456 
L 499.349743 400.148266 
L 499.623421 400.079959 
L 500.171434 402.248558 
L 500.719448 403.216106 
L 502.363161 405.20688 
L 503.185181 406.382765 
L 503.459188 406.436875 
L 503.733195 405.35776 
L 504.281209 395.996659 
L 504.555216 396.654636 
L 505.102901 401.755001 
L 505.650915 404.794775 
L 506.746942 408.820061 
L 507.568963 411.655855 
L 507.842641 411.951515 
L 508.664662 411.67259 
L 508.938668 412.259495 
L 509.212675 413.183434 
L 509.486682 415.58183 
L 509.760689 420.507922 
L 510.034696 420.249537 
L 510.308703 412.23044 
L 510.582381 409.975565 
L 510.856388 409.58017 
L 511.130395 409.441189 
L 511.404402 409.484175 
L 511.678408 409.732561 
L 511.952415 410.333039 
L 512.500429 412.794579 
L 512.774436 412.736455 
L 513.322121 410.520899 
L 514.144142 408.266119 
L 514.966162 406.75724 
L 516.061861 405.197131 
L 517.979909 403.443668 
L 518.527923 403.163618 
L 519.075608 402.279841 
L 519.897629 400.453603 
L 520.719649 398.312158 
L 520.993656 397.177909 
L 521.267663 395.068949 
L 521.541341 389.193024 
L 521.815348 376.298325 
L 522.089355 388.53793 
L 522.363362 394.497294 
L 522.637369 395.8937 
L 523.733396 398.787114 
L 524.007403 400.052979 
L 524.555088 404.180948 
L 525.377109 411.993002 
L 525.651116 412.94213 
L 525.925123 412.218584 
L 526.19913 410.283518 
L 527.842842 392.820535 
L 528.116849 391.734106 
L 528.390856 391.510667 
L 528.664863 392.45599 
L 528.93887 393.948419 
L 529.212876 396.88956 
L 529.486883 401.169397 
L 530.308575 420.821333 
L 530.582582 421.540508 
L 530.856589 413.042067 
L 531.404603 386.443541 
L 531.67861 385.162377 
L 531.952617 388.875087 
L 533.048315 419.34303 
L 533.596329 426.874008 
L 533.870336 425.643181 
L 534.144343 423.038788 
L 535.240041 407.272483 
L 535.514048 399.772749 
L 535.788055 388.578346 
L 536.336069 330.644848 
L 536.610076 458.909375 
L 536.884083 438.157796 
L 537.15809 426.29975 
L 537.706104 413.748347 
L 538.527795 401.405085 
L 539.075809 396.304871 
L 539.349816 395.67805 
L 539.623823 397.168485 
L 540.719522 412.222371 
L 540.993529 412.500441 
L 541.267535 411.906307 
L 542.089556 408.552599 
L 543.185255 402.05784 
L 543.733269 400.039408 
L 544.007276 399.346068 
L 544.555289 398.776189 
L 545.103303 398.962862 
L 545.37731 399.168311 
L 545.651317 398.966421 
L 545.924995 397.326311 
L 546.199002 393.472727 
L 546.473009 391.392218 
L 547.021022 395.332747 
L 547.843043 401.454321 
L 548.391057 402.423724 
L 548.664735 403.685264 
L 548.938742 405.703018 
L 549.486756 412.550827 
L 549.760763 417.514202 
L 550.034769 427.972039 
L 550.308776 450.046246 
L 550.582783 367.602424 
L 551.130797 389.801567 
L 551.404475 395.644164 
L 551.952489 401.229335 
L 552.500503 404.472547 
L 553.322523 407.561969 
L 553.870537 408.65786 
L 554.692229 409.88176 
L 555.240243 411.320532 
L 555.51425 412.465364 
L 556.062263 416.602356 
L 556.33627 419.249021 
L 556.610277 419.722082 
L 557.157962 414.25379 
L 557.431969 412.632779 
L 557.705976 411.906536 
L 557.979983 411.803798 
L 559.07601 412.243488 
L 559.350017 412.010334 
L 559.623695 412.097701 
L 559.897702 412.44128 
L 560.171709 413.323136 
L 560.445716 416.677238 
L 560.719723 422.394755 
L 560.99373 419.85279 
L 561.267737 415.10159 
L 561.541744 412.366769 
L 562.089757 409.884602 
L 563.73347 404.773037 
L 564.281484 402.399099 
L 564.829497 398.874219 
L 565.377182 393.286002 
L 565.651189 389.870979 
L 565.925196 388.134411 
L 566.199203 395.320606 
L 566.47321 409.347251 
L 566.747217 415.362984 
L 567.021224 415.429875 
L 567.842915 411.037101 
L 568.664936 407.045507 
L 569.486957 403.645209 
L 570.034971 400.341099 
L 570.582655 394.310754 
L 570.856662 390.345548 
L 571.130669 388.093754 
L 571.404676 393.625806 
L 571.678683 396.569173 
L 571.95269 397.586872 
L 572.226697 397.586872 
L 572.500704 396.569173 
L 572.774711 393.769467 
L 573.048718 398.646788 
L 573.596402 404.56 
L 573.870409 404.56 
L 574.144416 401.332264 
L 574.418423 400.864242 
L 574.69243 402.683981 
L 574.966437 401.71711 
L 575.240444 399.713105 
L 575.514451 396.077933 
L 576.062136 384.14145 
L 576.336143 376.131096 
L 576.884156 342.964039 
L 577.158163 367.602424 
L 577.43217 426.29975 
L 577.706177 448.909091 
L 577.980184 450.75697 
L 578.801876 421.295506 
L 579.349889 410.931996 
L 580.993931 390.345548 
L 581.267938 381.581196 
L 581.541616 365.42845 
L 581.815623 293.687273 
L 582.08963 515.432727 
L 582.363636 443.69155 
L 582.637643 429.198384 
L 583.185657 417.727782 
L 584.007678 408.386968 
L 584.555363 404.161106 
L 585.377383 399.802442 
L 586.199404 397.524928 
L 586.747418 396.483034 
L 587.843117 394.897889 
L 588.665137 394.364807 
L 588.939144 393.188438 
L 589.213151 388.255187 
L 589.487158 359.489785 
L 589.760836 352.819394 
L 590.034843 377.568512 
L 590.30885 385.32181 
L 590.856864 392.596854 
L 592.226898 404.759771 
L 593.04859 410.495558 
L 593.596604 412.690667 
L 593.870611 413.040127 
L 594.144617 412.821105 
L 594.418624 412.24916 
L 594.966638 409.487677 
L 595.240316 407.627019 
L 597.432371 387.579492 
L 597.980056 386.264171 
L 598.254063 386.791935 
L 598.52807 388.134411 
L 599.076084 397.60328 
L 600.172111 423.742133 
L 600.445789 428.768019 
L 600.719796 430.430303 
L 600.993803 430.802066 
L 601.26781 430.146014 
L 601.541817 430.958268 
L 601.815824 430.6477 
L 602.089831 429.531335 
L 602.911851 415.350533 
L 603.185529 409.554267 
L 603.733543 393.743148 
L 604.281557 381.123489 
L 604.555564 376.131096 
L 604.829571 376.715251 
L 605.103578 381.665926 
L 605.377585 393.690125 
L 605.925269 437.169626 
L 606.199276 466.155961 
L 606.473283 461.417807 
L 606.74729 426.29975 
L 607.021297 418.506255 
L 607.295304 421.992819 
L 607.569311 422.936695 
L 608.391332 419.34303 
L 609.213023 411.070661 
L 610.583058 395.57032 
L 611.131072 392.365876 
L 611.678757 386.725245 
L 612.22677 382.245992 
L 612.500777 382.258014 
L 613.048791 387.19738 
L 613.322798 391.816008 
L 614.14449 415.429875 
L 614.418497 423.038788 
L 614.692503 426.734545 
L 614.96651 434.126061 
L 615.240517 436.419979 
L 615.514524 441.151659 
L 615.788531 441.151659 
L 616.062538 441.517576 
L 616.610552 447.203358 
L 616.88423 447.203358 
L 617.158237 458.909375 
L 617.432244 458.909375 
L 617.980257 447.203358 
L 618.254264 447.203358 
L 618.528271 441.517576 
L 619.350292 441.517576 
L 619.62397 440.911714 
L 620.445991 425.322683 
L 620.719997 423.038788 
L 620.994004 416.879192 
L 621.268011 413.2559 
L 621.542018 413.2559 
L 621.816025 410.245781 
L 622.090032 404.56 
L 622.637717 404.56 
L 622.911724 394.571466 
L 623.185731 394.571466 
L 623.459738 404.56 
L 624.281758 404.56 
L 624.555765 418.774452 
L 625.377457 418.774452 
L 625.651464 414.548534 
L 625.925471 404.56 
L 627.021498 404.56 
L 627.295505 390.345548 
L 627.569512 390.345548 
L 627.84319 404.56 
L 629.761238 404.56 
L 630.035245 390.345548 
L 630.309252 382.82025 
L 634.418698 382.82025 
L 634.692705 367.602424 
L 636.610424 367.602424 
L 636.884431 404.56 
L 640.994206 404.56 
L 641.268212 441.517576 
L 641.54189 404.56 
L 644.007952 404.56 
L 644.28163 382.82025 
L 644.555637 382.82025 
L 644.829644 367.602424 
L 645.377658 367.602424 
L 645.651665 330.644848 
L 645.925672 330.644848 
L 646.199679 404.56 
L 695.515 404.56 
L 695.515 404.56 
" clip-path="url(#p536a48c726)" style="fill: none; stroke: #008000; stroke-width: 1.5; stroke-linecap: square"/>
   </g>
   <g id="patch_21">
    <path d="M 408.13 526.52 
L 408.13 282.6 
" style="fill: none; stroke: #000000; stroke-width: 0.8; stroke-linejoin: miter; stroke-linecap: square"/>
   </g>
   <g id="patch_22">
    <path d="M 709.2 526.52 
L 709.2 282.6 
" style="fill: none; stroke: #000000; stroke-width: 0.8; stroke-linejoin: miter; stroke-linecap: square"/>
   </g>
   <g id="patch_23">
    <path d="M 408.13 526.52 
L 709.2 526.52 
" style="fill: none; stroke: #000000; stroke-width: 0.8; stroke-linejoin: miter; stroke-linecap: square"/>
   </g>
   <g id="patch_24">
    <path d="M 408.13 282.6 
L 709.2 282.6 
" style="fill: none; stroke: #000000; stroke-width: 0.8; stroke-linejoin: miter; stroke-linecap: square"/>
   </g>
   <g id="legend_4">
    <g id="patch_25">
     <path d="M 658.3625 305.278125 
L 702.2 305.278125 
Q 704.2 305.278125 704.2 303.278125 
L 704.2 289.6 
Q 704.2 287.6 702.2 287.6 
L 658.3625 287.6 
Q 656.3625 287.6 656.3625 289.6 
L 656.3625 303.278125 
Q 656.3625 305.278125 658.3625 305.278125 
z
" style="fill: #ffffff; opacity: 0.8; stroke: #cccccc; stroke-linejoin: miter"/>
    </g>
    <g id="line2d_54">
     <path d="M 660.3625 295.698438 
L 670.3625 295.698438 
L 680.3625 295.698438 
" style="fill: none; stroke: #008000; stroke-width: 1.5; stroke-linecap: square"/>
    </g>
    <g id="text_50">
     <!-- xy -->
     <g transform="translate(688.3625 299.198438)scale(0.1 -0.1)">
      <use xlink:href="#DejaVuSans-78"/>
      <use xlink:href="#DejaVuSans-79" x="59.179688"/>
     </g>
    </g>
   </g>
  </g>
  <g id="text_51">
   <!-- cm^-1 -->
   <g transform="translate(23.518125 308.153437)rotate(-90)scale(0.12 -0.12)">
    <defs>
     <path id="DejaVuSans-63" d="M 3122 3366 
L 3122 2828 
Q 2878 2963 2633 3030 
Q 2388 3097 2138 3097 
Q 1578 3097 1268 2742 
Q 959 2388 959 1747 
Q 959 1106 1268 751 
Q 1578 397 2138 397 
Q 2388 397 2633 464 
Q 2878 531 3122 666 
L 3122 134 
Q 2881 22 2623 -34 
Q 2366 -91 2075 -91 
Q 1284 -91 818 406 
Q 353 903 353 1747 
Q 353 2603 823 3093 
Q 1294 3584 2113 3584 
Q 2378 3584 2631 3529 
Q 2884 3475 3122 3366 
z
" transform="scale(0.015625)"/>
     <path id="DejaVuSans-6d" d="M 3328 2828 
Q 3544 3216 3844 3400 
Q 4144 3584 4550 3584 
Q 5097 3584 5394 3201 
Q 5691 2819 5691 2113 
L 5691 0 
L 5113 0 
L 5113 2094 
Q 5113 2597 4934 2840 
Q 4756 3084 4391 3084 
Q 3944 3084 3684 2787 
Q 3425 2491 3425 1978 
L 3425 0 
L 2847 0 
L 2847 2094 
Q 2847 2600 2669 2842 
Q 2491 3084 2119 3084 
Q 1678 3084 1418 2786 
Q 1159 2488 1159 1978 
L 1159 0 
L 581 0 
L 581 3500 
L 1159 3500 
L 1159 2956 
Q 1356 3278 1631 3431 
Q 1906 3584 2284 3584 
Q 2666 3584 2933 3390 
Q 3200 3197 3328 2828 
z
" transform="scale(0.015625)"/>
     <path id="DejaVuSans-5e" d="M 2988 4666 
L 4684 2925 
L 4056 2925 
L 2681 4159 
L 1306 2925 
L 678 2925 
L 2375 4666 
L 2988 4666 
z
" transform="scale(0.015625)"/>
     <path id="DejaVuSans-2d" d="M 313 2009 
L 1997 2009 
L 1997 1497 
L 313 1497 
L 313 2009 
z
" transform="scale(0.015625)"/>
    </defs>
    <use xlink:href="#DejaVuSans-63"/>
    <use xlink:href="#DejaVuSans-6d" x="54.980469"/>
    <use xlink:href="#DejaVuSans-5e" x="152.392578"/>
    <use xlink:href="#DejaVuSans-2d" x="236.181641"/>
    <use xlink:href="#DejaVuSans-31" x="272.265625"/>
   </g>
  </g>
  <g id="text_52">
   <!-- Energy (eV) -->
   <g transform="translate(324.6075 567.744375)scale(0.12 -0.12)">
    <defs>
     <path id="DejaVuSans-45" d="M 628 4666 
L 3578 4666 
L 3578 4134 
L 1259 4134 
L 1259 2753 
L 3481 2753 
L 3481 2222 
L 1259 2222 
L 1259 531 
L 3634 531 
L 3634 0 
L 628 0 
L 628 4666 
z
" transform="scale(0.015625)"/>
     <path id="DejaVuSans-6e" d="M 3513 2113 
L 3513 0 
L 2938 0 
L 2938 2094 
Q 2938 2591 2744 2837 
Q 2550 3084 2163 3084 
Q 1697 3084 1428 2787 
Q 1159 2491 1159 1978 
L 1159 0 
L 581 0 
L 581 3500 
L 1159 3500 
L 1159 2956 
Q 1366 3272 1645 3428 
Q 1925 3584 2291 3584 
Q 2894 3584 3203 3211 
Q 3513 2838 3513 2113 
z
" transform="scale(0.015625)"/>
     <path id="DejaVuSans-65" d="M 3597 1894 
L 3597 1613 
L 953 1613 
Q 991 1019 1311 708 
Q 1631 397 2203 397 
Q 2534 397 2845 478 
Q 3156 559 3463 722 
L 3463 178 
Q 3153 47 2828 -22 
Q 2503 -91 2169 -91 
Q 1331 -91 842 396 
Q 353 884 353 1716 
Q 353 2575 817 3079 
Q 1281 3584 2069 3584 
Q 2775 3584 3186 3129 
Q 3597 2675 3597 1894 
z
M 3022 2063 
Q 3016 2534 2758 2815 
Q 2500 3097 2075 3097 
Q 1594 3097 1305 2825 
Q 1016 2553 972 2059 
L 3022 2063 
z
" transform="scale(0.015625)"/>
     <path id="DejaVuSans-72" d="M 2631 2963 
Q 2534 3019 2420 3045 
Q 2306 3072 2169 3072 
Q 1681 3072 1420 2755 
Q 1159 2438 1159 1844 
L 1159 0 
L 581 0 
L 581 3500 
L 1159 3500 
L 1159 2956 
Q 1341 3275 1631 3429 
Q 1922 3584 2338 3584 
Q 2397 3584 2469 3576 
Q 2541 3569 2628 3553 
L 2631 2963 
z
" transform="scale(0.015625)"/>
     <path id="DejaVuSans-67" d="M 2906 1791 
Q 2906 2416 2648 2759 
Q 2391 3103 1925 3103 
Q 1463 3103 1205 2759 
Q 947 2416 947 1791 
Q 947 1169 1205 825 
Q 1463 481 1925 481 
Q 2391 481 2648 825 
Q 2906 1169 2906 1791 
z
M 3481 434 
Q 3481 -459 3084 -895 
Q 2688 -1331 1869 -1331 
Q 1566 -1331 1297 -1286 
Q 1028 -1241 775 -1147 
L 775 -588 
Q 1028 -725 1275 -790 
Q 1522 -856 1778 -856 
Q 2344 -856 2625 -561 
Q 2906 -266 2906 331 
L 2906 616 
Q 2728 306 2450 153 
Q 2172 0 1784 0 
Q 1141 0 747 490 
Q 353 981 353 1791 
Q 353 2603 747 3093 
Q 1141 3584 1784 3584 
Q 2172 3584 2450 3431 
Q 2728 3278 2906 2969 
L 2906 3500 
L 3481 3500 
L 3481 434 
z
" transform="scale(0.015625)"/>
     <path id="DejaVuSans-20" transform="scale(0.015625)"/>
     <path id="DejaVuSans-28" d="M 1984 4856 
Q 1566 4138 1362 3434 
Q 1159 2731 1159 2009 
Q 1159 1288 1364 580 
Q 1569 -128 1984 -844 
L 1484 -844 
Q 1016 -109 783 600 
Q 550 1309 550 2009 
Q 550 2706 781 3412 
Q 1013 4119 1484 4856 
L 1984 4856 
z
" transform="scale(0.015625)"/>
     <path id="DejaVuSans-56" d="M 1831 0 
L 50 4666 
L 709 4666 
L 2188 738 
L 3669 4666 
L 4325 4666 
L 2547 0 
L 1831 0 
z
" transform="scale(0.015625)"/>
     <path id="DejaVuSans-29" d="M 513 4856 
L 1013 4856 
Q 1481 4119 1714 3412 
Q 1947 2706 1947 2009 
Q 1947 1309 1714 600 
Q 1481 -109 1013 -844 
L 513 -844 
Q 928 -128 1133 580 
Q 1338 1288 1338 2009 
Q 1338 2731 1133 3434 
Q 928 4138 513 4856 
z
" transform="scale(0.015625)"/>
    </defs>
    <use xlink:href="#DejaVuSans-45"/>
    <use xlink:href="#DejaVuSans-6e" x="63.183594"/>
    <use xlink:href="#DejaVuSans-65" x="126.5625"/>
    <use xlink:href="#DejaVuSans-72" x="188.085938"/>
    <use xlink:href="#DejaVuSans-67" x="227.449219"/>
    <use xlink:href="#DejaVuSans-79" x="290.925781"/>
    <use xlink:href="#DejaVuSans-20" x="350.105469"/>
    <use xlink:href="#DejaVuSans-28" x="381.892578"/>
    <use xlink:href="#DejaVuSans-65" x="420.90625"/>
    <use xlink:href="#DejaVuSans-56" x="482.429688"/>
    <use xlink:href="#DejaVuSans-29" x="550.837891"/>
   </g>
  </g>
 </g>
 <defs>
  <clipPath id="pab5d5f06a1">
   <rect x="55.33" y="10.8" width="301.07" height="243.92"/>
  </clipPath>
  <clipPath id="pe514eb2e23">
   <rect x="408.13" y="10.8" width="301.07" height="243.92"/>
  </clipPath>
  <clipPath id="p4154a2a76e">
   <rect x="55.33" y="282.6" width="301.07" height="243.92"/>
  </clipPath>
  <clipPath id="p536a48c726">
   <rect x="408.13" y="282.6" width="301.07" height="243.92"/>
  </clipPath>
 </defs>
</svg>
