<?xml version="1.0" encoding="utf-8" standalone="no"?>
<!DOCTYPE svg PUBLIC "-//W3C//DTD SVG 1.1//EN"
  "http://www.w3.org/Graphics/SVG/1.1/DTD/svg11.dtd">
<svg xmlns:xlink="http://www.w3.org/1999/xlink" width="720pt" height="576pt" viewBox="0 0 720 576" xmlns="http://www.w3.org/2000/svg" version="1.1">
 <metadata>
  <rdf:RDF xmlns:dc="http://purl.org/dc/elements/1.1/" xmlns:cc="http://creativecommons.org/ns#" xmlns:rdf="http://www.w3.org/1999/02/22-rdf-syntax-ns#">
   <cc:Work>
    <dc:type rdf:resource="http://purl.org/dc/dcmitype/StillImage"/>
    <dc:date>2022-03-10T12:01:42.314075</dc:date>
    <dc:format>image/svg+xml</dc:format>
    <dc:creator>
     <cc:Agent>
      <dc:title>Matplotlib v3.5.1, https://matplotlib.org/</dc:title>
     </cc:Agent>
    </dc:creator>
   </cc:Work>
  </rdf:RDF>
 </metadata>
 <defs>
  <style type="text/css">*{stroke-linejoin: round; stroke-linecap: butt}</style>
 </defs>
 <g id="figure_1">
  <g id="patch_1">
   <path d="M 0 576 
L 720 576 
L 720 0 
L 0 0 
z
" style="fill: #ffffff"/>
  </g>
  <g id="axes_1">
   <g id="patch_2">
    <path d="M 61 185 
L 365.04 185 
L 365.04 41.76 
L 61 41.76 
z
" style="fill: #ffffff"/>
   </g>
   <g id="matplotlib.axis_1">
    <g id="xtick_1">
     <g id="line2d_1">
      <defs>
       <path id="me21c959bca" d="M 0 0 
L 0 3.5 
" style="stroke: #000000; stroke-width: 0.8"/>
      </defs>
      <g>
       <use xlink:href="#me21c959bca" x="74.82" y="185" style="stroke: #000000; stroke-width: 0.8"/>
      </g>
     </g>
     <g id="text_1">
      <!-- 0 -->
      <g transform="translate(71.63875 199.598437)scale(0.1 -0.1)">
       <defs>
        <path id="DejaVuSans-30" d="M 2034 4250 
Q 1547 4250 1301 3770 
Q 1056 3291 1056 2328 
Q 1056 1369 1301 889 
Q 1547 409 2034 409 
Q 2525 409 2770 889 
Q 3016 1369 3016 2328 
Q 3016 3291 2770 3770 
Q 2525 4250 2034 4250 
z
M 2034 4750 
Q 2819 4750 3233 4129 
Q 3647 3509 3647 2328 
Q 3647 1150 3233 529 
Q 2819 -91 2034 -91 
Q 1250 -91 836 529 
Q 422 1150 422 2328 
Q 422 3509 836 4129 
Q 1250 4750 2034 4750 
z
" transform="scale(0.015625)"/>
       </defs>
       <use xlink:href="#DejaVuSans-30"/>
      </g>
     </g>
    </g>
    <g id="xtick_2">
     <g id="line2d_2">
      <g>
       <use xlink:href="#me21c959bca" x="141.256958" y="185" style="stroke: #000000; stroke-width: 0.8"/>
      </g>
     </g>
     <g id="text_2">
      <!-- 20 -->
      <g transform="translate(134.894458 199.598437)scale(0.1 -0.1)">
       <defs>
        <path id="DejaVuSans-32" d="M 1228 531 
L 3431 531 
L 3431 0 
L 469 0 
L 469 531 
Q 828 903 1448 1529 
Q 2069 2156 2228 2338 
Q 2531 2678 2651 2914 
Q 2772 3150 2772 3378 
Q 2772 3750 2511 3984 
Q 2250 4219 1831 4219 
Q 1534 4219 1204 4116 
Q 875 4013 500 3803 
L 500 4441 
Q 881 4594 1212 4672 
Q 1544 4750 1819 4750 
Q 2544 4750 2975 4387 
Q 3406 4025 3406 3419 
Q 3406 3131 3298 2873 
Q 3191 2616 2906 2266 
Q 2828 2175 2409 1742 
Q 1991 1309 1228 531 
z
" transform="scale(0.015625)"/>
       </defs>
       <use xlink:href="#DejaVuSans-32"/>
       <use xlink:href="#DejaVuSans-30" x="63.623047"/>
      </g>
     </g>
    </g>
    <g id="xtick_3">
     <g id="line2d_3">
      <g>
       <use xlink:href="#me21c959bca" x="207.693915" y="185" style="stroke: #000000; stroke-width: 0.8"/>
      </g>
     </g>
     <g id="text_3">
      <!-- 40 -->
      <g transform="translate(201.331415 199.598437)scale(0.1 -0.1)">
       <defs>
        <path id="DejaVuSans-34" d="M 2419 4116 
L 825 1625 
L 2419 1625 
L 2419 4116 
z
M 2253 4666 
L 3047 4666 
L 3047 1625 
L 3713 1625 
L 3713 1100 
L 3047 1100 
L 3047 0 
L 2419 0 
L 2419 1100 
L 313 1100 
L 313 1709 
L 2253 4666 
z
" transform="scale(0.015625)"/>
       </defs>
       <use xlink:href="#DejaVuSans-34"/>
       <use xlink:href="#DejaVuSans-30" x="63.623047"/>
      </g>
     </g>
    </g>
    <g id="xtick_4">
     <g id="line2d_4">
      <g>
       <use xlink:href="#me21c959bca" x="274.130873" y="185" style="stroke: #000000; stroke-width: 0.8"/>
      </g>
     </g>
     <g id="text_4">
      <!-- 60 -->
      <g transform="translate(267.768373 199.598437)scale(0.1 -0.1)">
       <defs>
        <path id="DejaVuSans-36" d="M 2113 2584 
Q 1688 2584 1439 2293 
Q 1191 2003 1191 1497 
Q 1191 994 1439 701 
Q 1688 409 2113 409 
Q 2538 409 2786 701 
Q 3034 994 3034 1497 
Q 3034 2003 2786 2293 
Q 2538 2584 2113 2584 
z
M 3366 4563 
L 3366 3988 
Q 3128 4100 2886 4159 
Q 2644 4219 2406 4219 
Q 1781 4219 1451 3797 
Q 1122 3375 1075 2522 
Q 1259 2794 1537 2939 
Q 1816 3084 2150 3084 
Q 2853 3084 3261 2657 
Q 3669 2231 3669 1497 
Q 3669 778 3244 343 
Q 2819 -91 2113 -91 
Q 1303 -91 875 529 
Q 447 1150 447 2328 
Q 447 3434 972 4092 
Q 1497 4750 2381 4750 
Q 2619 4750 2861 4703 
Q 3103 4656 3366 4563 
z
" transform="scale(0.015625)"/>
       </defs>
       <use xlink:href="#DejaVuSans-36"/>
       <use xlink:href="#DejaVuSans-30" x="63.623047"/>
      </g>
     </g>
    </g>
    <g id="xtick_5">
     <g id="line2d_5">
      <g>
       <use xlink:href="#me21c959bca" x="340.56783" y="185" style="stroke: #000000; stroke-width: 0.8"/>
      </g>
     </g>
     <g id="text_5">
      <!-- 80 -->
      <g transform="translate(334.20533 199.598437)scale(0.1 -0.1)">
       <defs>
        <path id="DejaVuSans-38" d="M 2034 2216 
Q 1584 2216 1326 1975 
Q 1069 1734 1069 1313 
Q 1069 891 1326 650 
Q 1584 409 2034 409 
Q 2484 409 2743 651 
Q 3003 894 3003 1313 
Q 3003 1734 2745 1975 
Q 2488 2216 2034 2216 
z
M 1403 2484 
Q 997 2584 770 2862 
Q 544 3141 544 3541 
Q 544 4100 942 4425 
Q 1341 4750 2034 4750 
Q 2731 4750 3128 4425 
Q 3525 4100 3525 3541 
Q 3525 3141 3298 2862 
Q 3072 2584 2669 2484 
Q 3125 2378 3379 2068 
Q 3634 1759 3634 1313 
Q 3634 634 3220 271 
Q 2806 -91 2034 -91 
Q 1263 -91 848 271 
Q 434 634 434 1313 
Q 434 1759 690 2068 
Q 947 2378 1403 2484 
z
M 1172 3481 
Q 1172 3119 1398 2916 
Q 1625 2713 2034 2713 
Q 2441 2713 2670 2916 
Q 2900 3119 2900 3481 
Q 2900 3844 2670 4047 
Q 2441 4250 2034 4250 
Q 1625 4250 1398 4047 
Q 1172 3844 1172 3481 
z
" transform="scale(0.015625)"/>
       </defs>
       <use xlink:href="#DejaVuSans-38"/>
       <use xlink:href="#DejaVuSans-30" x="63.623047"/>
      </g>
     </g>
    </g>
   </g>
   <g id="matplotlib.axis_2">
    <g id="ytick_1">
     <g id="line2d_6">
      <defs>
       <path id="m07f0144f33" d="M 0 0 
L -3.5 0 
" style="stroke: #000000; stroke-width: 0.8"/>
      </defs>
      <g>
       <use xlink:href="#m07f0144f33" x="61" y="178.500394" style="stroke: #000000; stroke-width: 0.8"/>
      </g>
     </g>
     <g id="text_6">
      <!-- 0.0 -->
      <g transform="translate(38.096875 182.299613)scale(0.1 -0.1)">
       <defs>
        <path id="DejaVuSans-2e" d="M 684 794 
L 1344 794 
L 1344 0 
L 684 0 
L 684 794 
z
" transform="scale(0.015625)"/>
       </defs>
       <use xlink:href="#DejaVuSans-30"/>
       <use xlink:href="#DejaVuSans-2e" x="63.623047"/>
       <use xlink:href="#DejaVuSans-30" x="95.410156"/>
      </g>
     </g>
    </g>
    <g id="ytick_2">
     <g id="line2d_7">
      <g>
       <use xlink:href="#m07f0144f33" x="61" y="156.712196" style="stroke: #000000; stroke-width: 0.8"/>
      </g>
     </g>
     <g id="text_7">
      <!-- 0.1 -->
      <g transform="translate(38.096875 160.511414)scale(0.1 -0.1)">
       <defs>
        <path id="DejaVuSans-31" d="M 794 531 
L 1825 531 
L 1825 4091 
L 703 3866 
L 703 4441 
L 1819 4666 
L 2450 4666 
L 2450 531 
L 3481 531 
L 3481 0 
L 794 0 
L 794 531 
z
" transform="scale(0.015625)"/>
       </defs>
       <use xlink:href="#DejaVuSans-30"/>
       <use xlink:href="#DejaVuSans-2e" x="63.623047"/>
       <use xlink:href="#DejaVuSans-31" x="95.410156"/>
      </g>
     </g>
    </g>
    <g id="ytick_3">
     <g id="line2d_8">
      <g>
       <use xlink:href="#m07f0144f33" x="61" y="134.923997" style="stroke: #000000; stroke-width: 0.8"/>
      </g>
     </g>
     <g id="text_8">
      <!-- 0.2 -->
      <g transform="translate(38.096875 138.723216)scale(0.1 -0.1)">
       <use xlink:href="#DejaVuSans-30"/>
       <use xlink:href="#DejaVuSans-2e" x="63.623047"/>
       <use xlink:href="#DejaVuSans-32" x="95.410156"/>
      </g>
     </g>
    </g>
    <g id="ytick_4">
     <g id="line2d_9">
      <g>
       <use xlink:href="#m07f0144f33" x="61" y="113.135799" style="stroke: #000000; stroke-width: 0.8"/>
      </g>
     </g>
     <g id="text_9">
      <!-- 0.3 -->
      <g transform="translate(38.096875 116.935018)scale(0.1 -0.1)">
       <defs>
        <path id="DejaVuSans-33" d="M 2597 2516 
Q 3050 2419 3304 2112 
Q 3559 1806 3559 1356 
Q 3559 666 3084 287 
Q 2609 -91 1734 -91 
Q 1441 -91 1130 -33 
Q 819 25 488 141 
L 488 750 
Q 750 597 1062 519 
Q 1375 441 1716 441 
Q 2309 441 2620 675 
Q 2931 909 2931 1356 
Q 2931 1769 2642 2001 
Q 2353 2234 1838 2234 
L 1294 2234 
L 1294 2753 
L 1863 2753 
Q 2328 2753 2575 2939 
Q 2822 3125 2822 3475 
Q 2822 3834 2567 4026 
Q 2313 4219 1838 4219 
Q 1578 4219 1281 4162 
Q 984 4106 628 3988 
L 628 4550 
Q 988 4650 1302 4700 
Q 1616 4750 1894 4750 
Q 2613 4750 3031 4423 
Q 3450 4097 3450 3541 
Q 3450 3153 3228 2886 
Q 3006 2619 2597 2516 
z
" transform="scale(0.015625)"/>
       </defs>
       <use xlink:href="#DejaVuSans-30"/>
       <use xlink:href="#DejaVuSans-2e" x="63.623047"/>
       <use xlink:href="#DejaVuSans-33" x="95.410156"/>
      </g>
     </g>
    </g>
    <g id="ytick_5">
     <g id="line2d_10">
      <g>
       <use xlink:href="#m07f0144f33" x="61" y="91.3476" style="stroke: #000000; stroke-width: 0.8"/>
      </g>
     </g>
     <g id="text_10">
      <!-- 0.4 -->
      <g transform="translate(38.096875 95.146819)scale(0.1 -0.1)">
       <use xlink:href="#DejaVuSans-30"/>
       <use xlink:href="#DejaVuSans-2e" x="63.623047"/>
       <use xlink:href="#DejaVuSans-34" x="95.410156"/>
      </g>
     </g>
    </g>
    <g id="ytick_6">
     <g id="line2d_11">
      <g>
       <use xlink:href="#m07f0144f33" x="61" y="69.559402" style="stroke: #000000; stroke-width: 0.8"/>
      </g>
     </g>
     <g id="text_11">
      <!-- 0.5 -->
      <g transform="translate(38.096875 73.358621)scale(0.1 -0.1)">
       <defs>
        <path id="DejaVuSans-35" d="M 691 4666 
L 3169 4666 
L 3169 4134 
L 1269 4134 
L 1269 2991 
Q 1406 3038 1543 3061 
Q 1681 3084 1819 3084 
Q 2600 3084 3056 2656 
Q 3513 2228 3513 1497 
Q 3513 744 3044 326 
Q 2575 -91 1722 -91 
Q 1428 -91 1123 -41 
Q 819 9 494 109 
L 494 744 
Q 775 591 1075 516 
Q 1375 441 1709 441 
Q 2250 441 2565 725 
Q 2881 1009 2881 1497 
Q 2881 1984 2565 2268 
Q 2250 2553 1709 2553 
Q 1456 2553 1204 2497 
Q 953 2441 691 2322 
L 691 4666 
z
" transform="scale(0.015625)"/>
       </defs>
       <use xlink:href="#DejaVuSans-30"/>
       <use xlink:href="#DejaVuSans-2e" x="63.623047"/>
       <use xlink:href="#DejaVuSans-35" x="95.410156"/>
      </g>
     </g>
    </g>
    <g id="ytick_7">
     <g id="line2d_12">
      <g>
       <use xlink:href="#m07f0144f33" x="61" y="47.771203" style="stroke: #000000; stroke-width: 0.8"/>
      </g>
     </g>
     <g id="text_12">
      <!-- 0.6 -->
      <g transform="translate(38.096875 51.570422)scale(0.1 -0.1)">
       <use xlink:href="#DejaVuSans-30"/>
       <use xlink:href="#DejaVuSans-2e" x="63.623047"/>
       <use xlink:href="#DejaVuSans-36" x="95.410156"/>
      </g>
     </g>
    </g>
   </g>
   <g id="line2d_13">
    <path d="M 74.82 48.270909 
L 75.09671 48.270909 
L 75.65013 96.328502 
L 76.203217 116.676198 
L 76.479927 120.964087 
L 76.756637 123.078623 
L 77.033347 123.76591 
L 77.310057 123.492446 
L 77.586767 122.477925 
L 78.140187 118.45625 
L 78.693607 113.92247 
L 78.969985 112.887239 
L 79.246694 113.213877 
L 79.800114 117.100534 
L 80.076824 118.772035 
L 80.353534 118.60297 
L 80.630244 116.133894 
L 81.736752 100.13251 
L 82.013462 102.4551 
L 82.290172 112.297578 
L 83.120301 163.797337 
L 83.397011 169.31785 
L 83.673721 170.847942 
L 83.950431 170.539559 
L 84.227141 169.207396 
L 85.056939 163.065018 
L 85.333649 162.497987 
L 85.610358 163.860771 
L 86.440488 171.964791 
L 86.717198 172.812733 
L 86.993908 173.066486 
L 87.270286 173.048968 
L 87.823706 172.667426 
L 88.653835 171.814995 
L 89.207255 170.793821 
L 90.590473 167.182497 
L 90.867183 166.192529 
L 91.420603 162.703959 
L 92.527442 153.320401 
L 93.35724 150.524341 
L 93.63395 147.36395 
L 94.18737 136.055746 
L 95.294209 110.653217 
L 95.570587 108.561597 
L 95.847297 110.302777 
L 96.124007 115.515937 
L 96.954137 140.831793 
L 97.507557 154.901664 
L 98.060977 163.876746 
L 98.614064 169.024074 
L 99.167484 171.533565 
L 99.997614 172.811671 
L 100.551034 174.679946 
L 100.827744 175.674322 
L 101.104121 176.167913 
L 101.380831 176.014596 
L 101.657541 175.365302 
L 102.210961 173.315457 
L 102.764381 170.388642 
L 103.041091 168.06415 
L 103.594511 160.144467 
L 104.147598 147.577949 
L 105.254438 119.418156 
L 105.531148 116.909587 
L 105.807858 117.442038 
L 106.361278 120.474249 
L 106.637656 121.569015 
L 106.914365 123.232759 
L 107.191075 126.01128 
L 107.744495 135.471539 
L 109.128045 165.912749 
L 109.681133 170.419442 
L 110.234552 172.676046 
L 110.511262 173.311187 
L 110.787972 173.598938 
L 111.064682 173.536131 
L 111.341392 173.151672 
L 111.894812 171.625314 
L 112.72461 169.051634 
L 113.00132 168.720112 
L 113.278029 168.782094 
L 114.661579 170.406505 
L 115.214667 170.665751 
L 115.768087 171.177672 
L 116.321506 171.995886 
L 117.428346 174.17915 
L 117.981434 175.342899 
L 118.534854 175.958532 
L 119.088274 176.144656 
L 119.641693 176.285763 
L 120.195113 176.700519 
L 121.024911 177.314446 
L 121.855041 177.544068 
L 122.408461 177.453593 
L 123.791678 176.956676 
L 126.558445 177.025858 
L 129.048502 177.893426 
L 129.878632 177.816649 
L 131.262182 177.267238 
L 131.815269 176.757298 
L 132.922109 174.983418 
L 133.198819 174.985202 
L 133.752239 175.772696 
L 134.582036 176.928511 
L 135.135456 177.402231 
L 135.688876 177.585441 
L 139.009063 177.991031 
L 139.838861 178.131878 
L 140.392281 178.091438 
L 140.9457 177.829834 
L 142.05254 176.885313 
L 142.328918 176.864384 
L 142.882338 177.235159 
L 143.435758 177.624041 
L 144.265887 177.904572 
L 145.649105 178.115211 
L 146.755945 178.117931 
L 147.862452 178.10246 
L 148.969292 178.104405 
L 150.352841 177.870454 
L 153.395986 178.160089 
L 154.226116 178.010502 
L 155.332956 177.647507 
L 156.439463 177.607313 
L 157.269593 177.321075 
L 157.823013 177.4825 
L 158.376433 177.693021 
L 160.31307 177.844621 
L 165.846604 178.063819 
L 166.676734 177.88882 
L 168.336662 177.246908 
L 169.443501 177.072412 
L 170.273299 176.931145 
L 171.103429 177.093747 
L 173.040066 177.68288 
L 174.423616 177.995324 
L 176.083543 178.134894 
L 178.5736 178.072042 
L 180.51057 178.073196 
L 181.893787 178.232325 
L 187.427321 178.188148 
L 190.470798 178.259442 
L 194.897493 178.151781 
L 197.94097 178.048314 
L 202.091287 178.23768 
L 203.751214 178.222963 
L 206.517981 178.213348 
L 208.178241 178.157825 
L 211.221385 178.180347 
L 212.328225 178.032452 
L 213.158355 178.004454 
L 215.094992 178.157626 
L 218.691889 178.247882 
L 220.905236 178.267367 
L 223.948713 178.249696 
L 315.252028 178.477003 
L 351.22 178.489091 
L 351.22 178.489091 
" clip-path="url(#p4165e3ad20)" style="fill: none; stroke: #ffa500; stroke-width: 1.5; stroke-linecap: square"/>
   </g>
   <g id="patch_3">
    <path d="M 61 185 
L 61 41.76 
" style="fill: none; stroke: #000000; stroke-width: 0.8; stroke-linejoin: miter; stroke-linecap: square"/>
   </g>
   <g id="patch_4">
    <path d="M 365.04 185 
L 365.04 41.76 
" style="fill: none; stroke: #000000; stroke-width: 0.8; stroke-linejoin: miter; stroke-linecap: square"/>
   </g>
   <g id="patch_5">
    <path d="M 61 185 
L 365.04 185 
" style="fill: none; stroke: #000000; stroke-width: 0.8; stroke-linejoin: miter; stroke-linecap: square"/>
   </g>
   <g id="patch_6">
    <path d="M 61 41.76 
L 365.04 41.76 
" style="fill: none; stroke: #000000; stroke-width: 0.8; stroke-linejoin: miter; stroke-linecap: square"/>
   </g>
   <g id="legend_1">
    <g id="patch_7">
     <path d="M 314.2025 64.438125 
L 358.04 64.438125 
Q 360.04 64.438125 360.04 62.438125 
L 360.04 48.76 
Q 360.04 46.76 358.04 46.76 
L 314.2025 46.76 
Q 312.2025 46.76 312.2025 48.76 
L 312.2025 62.438125 
Q 312.2025 64.438125 314.2025 64.438125 
z
" style="fill: #ffffff; opacity: 0.8; stroke: #cccccc; stroke-linejoin: miter"/>
    </g>
    <g id="line2d_14">
     <path d="M 316.2025 54.858438 
L 326.2025 54.858438 
L 336.2025 54.858438 
" style="fill: none; stroke: #ffa500; stroke-width: 1.5; stroke-linecap: square"/>
    </g>
    <g id="text_13">
     <!-- xx -->
     <g transform="translate(344.2025 58.358438)scale(0.1 -0.1)">
      <defs>
       <path id="DejaVuSans-78" d="M 3513 3500 
L 2247 1797 
L 3578 0 
L 2900 0 
L 1881 1375 
L 863 0 
L 184 0 
L 1544 1831 
L 300 3500 
L 978 3500 
L 1906 2253 
L 2834 3500 
L 3513 3500 
z
" transform="scale(0.015625)"/>
      </defs>
      <use xlink:href="#DejaVuSans-78"/>
      <use xlink:href="#DejaVuSans-78" x="59.179688"/>
     </g>
    </g>
   </g>
  </g>
  <g id="axes_2">
   <g id="patch_8">
    <path d="M 405.16 185 
L 709.2 185 
L 709.2 41.76 
L 405.16 41.76 
z
" style="fill: #ffffff"/>
   </g>
   <g id="matplotlib.axis_3">
    <g id="xtick_6">
     <g id="line2d_15">
      <g>
       <use xlink:href="#me21c959bca" x="418.98" y="185" style="stroke: #000000; stroke-width: 0.8"/>
      </g>
     </g>
     <g id="text_14">
      <!-- 0 -->
      <g transform="translate(415.79875 199.598437)scale(0.1 -0.1)">
       <use xlink:href="#DejaVuSans-30"/>
      </g>
     </g>
    </g>
    <g id="xtick_7">
     <g id="line2d_16">
      <g>
       <use xlink:href="#me21c959bca" x="485.416958" y="185" style="stroke: #000000; stroke-width: 0.8"/>
      </g>
     </g>
     <g id="text_15">
      <!-- 20 -->
      <g transform="translate(479.054458 199.598437)scale(0.1 -0.1)">
       <use xlink:href="#DejaVuSans-32"/>
       <use xlink:href="#DejaVuSans-30" x="63.623047"/>
      </g>
     </g>
    </g>
    <g id="xtick_8">
     <g id="line2d_17">
      <g>
       <use xlink:href="#me21c959bca" x="551.853915" y="185" style="stroke: #000000; stroke-width: 0.8"/>
      </g>
     </g>
     <g id="text_16">
      <!-- 40 -->
      <g transform="translate(545.491415 199.598437)scale(0.1 -0.1)">
       <use xlink:href="#DejaVuSans-34"/>
       <use xlink:href="#DejaVuSans-30" x="63.623047"/>
      </g>
     </g>
    </g>
    <g id="xtick_9">
     <g id="line2d_18">
      <g>
       <use xlink:href="#me21c959bca" x="618.290873" y="185" style="stroke: #000000; stroke-width: 0.8"/>
      </g>
     </g>
     <g id="text_17">
      <!-- 60 -->
      <g transform="translate(611.928373 199.598437)scale(0.1 -0.1)">
       <use xlink:href="#DejaVuSans-36"/>
       <use xlink:href="#DejaVuSans-30" x="63.623047"/>
      </g>
     </g>
    </g>
    <g id="xtick_10">
     <g id="line2d_19">
      <g>
       <use xlink:href="#me21c959bca" x="684.72783" y="185" style="stroke: #000000; stroke-width: 0.8"/>
      </g>
     </g>
     <g id="text_18">
      <!-- 80 -->
      <g transform="translate(678.36533 199.598437)scale(0.1 -0.1)">
       <use xlink:href="#DejaVuSans-38"/>
       <use xlink:href="#DejaVuSans-30" x="63.623047"/>
      </g>
     </g>
    </g>
   </g>
   <g id="matplotlib.axis_4">
    <g id="ytick_8">
     <g id="line2d_20">
      <g>
       <use xlink:href="#m07f0144f33" x="405.16" y="178.500748" style="stroke: #000000; stroke-width: 0.8"/>
      </g>
     </g>
     <g id="text_19">
      <!-- 0.0 -->
      <g transform="translate(382.256875 182.299967)scale(0.1 -0.1)">
       <use xlink:href="#DejaVuSans-30"/>
       <use xlink:href="#DejaVuSans-2e" x="63.623047"/>
       <use xlink:href="#DejaVuSans-30" x="95.410156"/>
      </g>
     </g>
    </g>
    <g id="ytick_9">
     <g id="line2d_21">
      <g>
       <use xlink:href="#m07f0144f33" x="405.16" y="140.635081" style="stroke: #000000; stroke-width: 0.8"/>
      </g>
     </g>
     <g id="text_20">
      <!-- 0.2 -->
      <g transform="translate(382.256875 144.434299)scale(0.1 -0.1)">
       <use xlink:href="#DejaVuSans-30"/>
       <use xlink:href="#DejaVuSans-2e" x="63.623047"/>
       <use xlink:href="#DejaVuSans-32" x="95.410156"/>
      </g>
     </g>
    </g>
    <g id="ytick_10">
     <g id="line2d_22">
      <g>
       <use xlink:href="#m07f0144f33" x="405.16" y="102.769413" style="stroke: #000000; stroke-width: 0.8"/>
      </g>
     </g>
     <g id="text_21">
      <!-- 0.4 -->
      <g transform="translate(382.256875 106.568632)scale(0.1 -0.1)">
       <use xlink:href="#DejaVuSans-30"/>
       <use xlink:href="#DejaVuSans-2e" x="63.623047"/>
       <use xlink:href="#DejaVuSans-34" x="95.410156"/>
      </g>
     </g>
    </g>
    <g id="ytick_11">
     <g id="line2d_23">
      <g>
       <use xlink:href="#m07f0144f33" x="405.16" y="64.903746" style="stroke: #000000; stroke-width: 0.8"/>
      </g>
     </g>
     <g id="text_22">
      <!-- 0.6 -->
      <g transform="translate(382.256875 68.702965)scale(0.1 -0.1)">
       <use xlink:href="#DejaVuSans-30"/>
       <use xlink:href="#DejaVuSans-2e" x="63.623047"/>
       <use xlink:href="#DejaVuSans-36" x="95.410156"/>
      </g>
     </g>
    </g>
   </g>
   <g id="line2d_24">
    <path d="M 418.98 48.270909 
L 419.25671 48.270909 
L 419.81013 83.743461 
L 420.363217 103.435794 
L 420.916637 112.970985 
L 421.746767 121.278297 
L 422.576897 132.958078 
L 422.853607 134.199286 
L 423.129985 134.352968 
L 423.406694 134.079065 
L 423.683404 133.386929 
L 423.960114 131.736804 
L 424.236824 128.580159 
L 424.790244 118.270792 
L 425.620374 101.483158 
L 425.896752 97.767726 
L 426.173462 96.112777 
L 426.450172 96.931891 
L 427.003591 103.543755 
L 428.110431 119.007433 
L 429.770358 155.70462 
L 430.323778 159.719559 
L 430.600488 161.360265 
L 431.983706 172.774856 
L 432.537126 175.139616 
L 432.813835 175.721225 
L 433.090545 175.893285 
L 433.643965 175.581365 
L 434.197053 175.026559 
L 434.473763 174.494774 
L 434.750473 173.613104 
L 435.303893 170.518492 
L 435.857313 164.953627 
L 437.24053 147.522162 
L 437.51724 146.03485 
L 438.07066 144.636757 
L 438.34737 144.285075 
L 438.62408 144.449575 
L 438.90079 145.313889 
L 439.454209 148.771396 
L 440.007297 154.885024 
L 440.837427 164.073581 
L 441.390847 168.94707 
L 441.944267 172.141989 
L 442.774064 175.511921 
L 443.327484 176.697608 
L 443.880904 177.346497 
L 444.434324 177.58886 
L 444.987744 177.496041 
L 446.924381 176.490584 
L 447.477801 175.46402 
L 448.030888 174.170151 
L 448.307598 173.794975 
L 448.861018 173.555539 
L 449.137728 173.117964 
L 449.691148 170.871765 
L 450.244568 168.307767 
L 450.521278 167.71827 
L 450.797656 167.856686 
L 451.351075 169.728493 
L 451.904495 171.433763 
L 452.181205 171.788379 
L 452.457915 171.831072 
L 452.734625 171.592612 
L 453.564423 170.36951 
L 453.841133 170.530109 
L 454.394552 171.513279 
L 454.671262 171.527097 
L 455.501392 170.08154 
L 455.778102 170.130376 
L 456.33119 170.737213 
L 457.16132 171.108937 
L 457.438029 171.64618 
L 458.268159 173.915562 
L 458.821579 174.756056 
L 460.481506 176.758186 
L 461.588346 177.416193 
L 462.418144 177.48797 
L 463.524984 177.54169 
L 465.738331 177.928743 
L 466.568461 177.687622 
L 467.12188 177.49892 
L 467.674968 177.597909 
L 468.505098 177.978906 
L 469.058518 177.966419 
L 469.611938 177.780799 
L 470.165025 177.341994 
L 470.995155 176.554779 
L 471.271865 176.608517 
L 472.378705 177.616277 
L 473.208502 177.670573 
L 473.761922 177.497896 
L 474.315342 176.937605 
L 474.868762 176.341411 
L 475.145472 176.265653 
L 475.975269 176.435739 
L 476.251979 176.197773 
L 477.635529 174.195688 
L 478.188949 173.869019 
L 478.465327 173.823471 
L 478.742036 173.987104 
L 479.295456 175.066105 
L 479.848876 176.206207 
L 480.402296 176.724481 
L 482.062223 177.724169 
L 482.892353 177.809951 
L 483.445773 177.678656 
L 483.722151 177.448304 
L 484.275571 176.513758 
L 484.828991 175.581671 
L 485.1057 175.545132 
L 485.65912 176.255279 
L 486.488918 177.282123 
L 487.042338 177.645244 
L 487.872468 177.835356 
L 491.192655 178.154971 
L 493.406002 178.029657 
L 494.789219 178.09669 
L 495.619349 177.90613 
L 496.172769 177.802425 
L 498.386116 177.89549 
L 500.322753 177.694436 
L 501.429593 177.840054 
L 501.983013 177.860825 
L 502.536433 177.635343 
L 503.089521 177.311094 
L 503.36623 177.313361 
L 504.74978 177.948289 
L 506.409707 178.034809 
L 509.176475 178.076047 
L 511.943242 177.922641 
L 513.050081 177.826986 
L 514.710009 177.998844 
L 516.093558 178.07712 
L 522.45689 178.009028 
L 523.84044 177.284684 
L 524.39386 177.548895 
L 525.223657 177.958032 
L 526.053787 178.070753 
L 548.187924 178.149409 
L 550.124561 178.213825 
L 553.444748 178.234491 
L 555.105008 178.118331 
L 556.764935 177.818742 
L 559.254992 178.076741 
L 562.021759 178.098499 
L 567.832004 178.202976 
L 575.302175 178.23584 
L 581.665839 178.194155 
L 582.495969 178.140175 
L 586.092533 178.289157 
L 597.713022 178.356592 
L 604.906483 178.380725 
L 695.38 178.489091 
L 695.38 178.489091 
" clip-path="url(#p9282677e7d)" style="fill: none; stroke: #0000ff; stroke-width: 1.5; stroke-linecap: square"/>
   </g>
   <g id="patch_9">
    <path d="M 405.16 185 
L 405.16 41.76 
" style="fill: none; stroke: #000000; stroke-width: 0.8; stroke-linejoin: miter; stroke-linecap: square"/>
   </g>
   <g id="patch_10">
    <path d="M 709.2 185 
L 709.2 41.76 
" style="fill: none; stroke: #000000; stroke-width: 0.8; stroke-linejoin: miter; stroke-linecap: square"/>
   </g>
   <g id="patch_11">
    <path d="M 405.16 185 
L 709.2 185 
" style="fill: none; stroke: #000000; stroke-width: 0.8; stroke-linejoin: miter; stroke-linecap: square"/>
   </g>
   <g id="patch_12">
    <path d="M 405.16 41.76 
L 709.2 41.76 
" style="fill: none; stroke: #000000; stroke-width: 0.8; stroke-linejoin: miter; stroke-linecap: square"/>
   </g>
   <g id="legend_2">
    <g id="patch_13">
     <path d="M 658.3625 64.438125 
L 702.2 64.438125 
Q 704.2 64.438125 704.2 62.438125 
L 704.2 48.76 
Q 704.2 46.76 702.2 46.76 
L 658.3625 46.76 
Q 656.3625 46.76 656.3625 48.76 
L 656.3625 62.438125 
Q 656.3625 64.438125 658.3625 64.438125 
z
" style="fill: #ffffff; opacity: 0.8; stroke: #cccccc; stroke-linejoin: miter"/>
    </g>
    <g id="line2d_25">
     <path d="M 660.3625 54.858438 
L 670.3625 54.858438 
L 680.3625 54.858438 
" style="fill: none; stroke: #0000ff; stroke-width: 1.5; stroke-linecap: square"/>
    </g>
    <g id="text_23">
     <!-- yy -->
     <g transform="translate(688.3625 58.358438)scale(0.1 -0.1)">
      <defs>
       <path id="DejaVuSans-79" d="M 2059 -325 
Q 1816 -950 1584 -1140 
Q 1353 -1331 966 -1331 
L 506 -1331 
L 506 -850 
L 844 -850 
Q 1081 -850 1212 -737 
Q 1344 -625 1503 -206 
L 1606 56 
L 191 3500 
L 800 3500 
L 1894 763 
L 2988 3500 
L 3597 3500 
L 2059 -325 
z
" transform="scale(0.015625)"/>
      </defs>
      <use xlink:href="#DejaVuSans-79"/>
      <use xlink:href="#DejaVuSans-79" x="59.179688"/>
     </g>
    </g>
   </g>
  </g>
  <g id="axes_3">
   <g id="patch_14">
    <path d="M 61 356.12 
L 365.04 356.12 
L 365.04 212.88 
L 61 212.88 
z
" style="fill: #ffffff"/>
   </g>
   <g id="matplotlib.axis_5">
    <g id="xtick_11">
     <g id="line2d_26">
      <g>
       <use xlink:href="#me21c959bca" x="74.82" y="356.12" style="stroke: #000000; stroke-width: 0.8"/>
      </g>
     </g>
     <g id="text_24">
      <!-- 0 -->
      <g transform="translate(71.63875 370.718437)scale(0.1 -0.1)">
       <use xlink:href="#DejaVuSans-30"/>
      </g>
     </g>
    </g>
    <g id="xtick_12">
     <g id="line2d_27">
      <g>
       <use xlink:href="#me21c959bca" x="141.256958" y="356.12" style="stroke: #000000; stroke-width: 0.8"/>
      </g>
     </g>
     <g id="text_25">
      <!-- 20 -->
      <g transform="translate(134.894458 370.718437)scale(0.1 -0.1)">
       <use xlink:href="#DejaVuSans-32"/>
       <use xlink:href="#DejaVuSans-30" x="63.623047"/>
      </g>
     </g>
    </g>
    <g id="xtick_13">
     <g id="line2d_28">
      <g>
       <use xlink:href="#me21c959bca" x="207.693915" y="356.12" style="stroke: #000000; stroke-width: 0.8"/>
      </g>
     </g>
     <g id="text_26">
      <!-- 40 -->
      <g transform="translate(201.331415 370.718437)scale(0.1 -0.1)">
       <use xlink:href="#DejaVuSans-34"/>
       <use xlink:href="#DejaVuSans-30" x="63.623047"/>
      </g>
     </g>
    </g>
    <g id="xtick_14">
     <g id="line2d_29">
      <g>
       <use xlink:href="#me21c959bca" x="274.130873" y="356.12" style="stroke: #000000; stroke-width: 0.8"/>
      </g>
     </g>
     <g id="text_27">
      <!-- 60 -->
      <g transform="translate(267.768373 370.718437)scale(0.1 -0.1)">
       <use xlink:href="#DejaVuSans-36"/>
       <use xlink:href="#DejaVuSans-30" x="63.623047"/>
      </g>
     </g>
    </g>
    <g id="xtick_15">
     <g id="line2d_30">
      <g>
       <use xlink:href="#me21c959bca" x="340.56783" y="356.12" style="stroke: #000000; stroke-width: 0.8"/>
      </g>
     </g>
     <g id="text_28">
      <!-- 80 -->
      <g transform="translate(334.20533 370.718437)scale(0.1 -0.1)">
       <use xlink:href="#DejaVuSans-38"/>
       <use xlink:href="#DejaVuSans-30" x="63.623047"/>
      </g>
     </g>
    </g>
   </g>
   <g id="matplotlib.axis_6">
    <g id="ytick_12">
     <g id="line2d_31">
      <g>
       <use xlink:href="#m07f0144f33" x="61" y="349.623136" style="stroke: #000000; stroke-width: 0.8"/>
      </g>
     </g>
     <g id="text_29">
      <!-- 0.0 -->
      <g transform="translate(38.096875 353.422354)scale(0.1 -0.1)">
       <use xlink:href="#DejaVuSans-30"/>
       <use xlink:href="#DejaVuSans-2e" x="63.623047"/>
       <use xlink:href="#DejaVuSans-30" x="95.410156"/>
      </g>
     </g>
    </g>
    <g id="ytick_13">
     <g id="line2d_32">
      <g>
       <use xlink:href="#m07f0144f33" x="61" y="328.511909" style="stroke: #000000; stroke-width: 0.8"/>
      </g>
     </g>
     <g id="text_30">
      <!-- 0.1 -->
      <g transform="translate(38.096875 332.311128)scale(0.1 -0.1)">
       <use xlink:href="#DejaVuSans-30"/>
       <use xlink:href="#DejaVuSans-2e" x="63.623047"/>
       <use xlink:href="#DejaVuSans-31" x="95.410156"/>
      </g>
     </g>
    </g>
    <g id="ytick_14">
     <g id="line2d_33">
      <g>
       <use xlink:href="#m07f0144f33" x="61" y="307.400683" style="stroke: #000000; stroke-width: 0.8"/>
      </g>
     </g>
     <g id="text_31">
      <!-- 0.2 -->
      <g transform="translate(38.096875 311.199902)scale(0.1 -0.1)">
       <use xlink:href="#DejaVuSans-30"/>
       <use xlink:href="#DejaVuSans-2e" x="63.623047"/>
       <use xlink:href="#DejaVuSans-32" x="95.410156"/>
      </g>
     </g>
    </g>
    <g id="ytick_15">
     <g id="line2d_34">
      <g>
       <use xlink:href="#m07f0144f33" x="61" y="286.289457" style="stroke: #000000; stroke-width: 0.8"/>
      </g>
     </g>
     <g id="text_32">
      <!-- 0.3 -->
      <g transform="translate(38.096875 290.088676)scale(0.1 -0.1)">
       <use xlink:href="#DejaVuSans-30"/>
       <use xlink:href="#DejaVuSans-2e" x="63.623047"/>
       <use xlink:href="#DejaVuSans-33" x="95.410156"/>
      </g>
     </g>
    </g>
    <g id="ytick_16">
     <g id="line2d_35">
      <g>
       <use xlink:href="#m07f0144f33" x="61" y="265.178231" style="stroke: #000000; stroke-width: 0.8"/>
      </g>
     </g>
     <g id="text_33">
      <!-- 0.4 -->
      <g transform="translate(38.096875 268.977449)scale(0.1 -0.1)">
       <use xlink:href="#DejaVuSans-30"/>
       <use xlink:href="#DejaVuSans-2e" x="63.623047"/>
       <use xlink:href="#DejaVuSans-34" x="95.410156"/>
      </g>
     </g>
    </g>
    <g id="ytick_17">
     <g id="line2d_36">
      <g>
       <use xlink:href="#m07f0144f33" x="61" y="244.067004" style="stroke: #000000; stroke-width: 0.8"/>
      </g>
     </g>
     <g id="text_34">
      <!-- 0.5 -->
      <g transform="translate(38.096875 247.866223)scale(0.1 -0.1)">
       <use xlink:href="#DejaVuSans-30"/>
       <use xlink:href="#DejaVuSans-2e" x="63.623047"/>
       <use xlink:href="#DejaVuSans-35" x="95.410156"/>
      </g>
     </g>
    </g>
    <g id="ytick_18">
     <g id="line2d_37">
      <g>
       <use xlink:href="#m07f0144f33" x="61" y="222.955778" style="stroke: #000000; stroke-width: 0.8"/>
      </g>
     </g>
     <g id="text_35">
      <!-- 0.6 -->
      <g transform="translate(38.096875 226.754997)scale(0.1 -0.1)">
       <use xlink:href="#DejaVuSans-30"/>
       <use xlink:href="#DejaVuSans-2e" x="63.623047"/>
       <use xlink:href="#DejaVuSans-36" x="95.410156"/>
      </g>
     </g>
    </g>
   </g>
   <g id="line2d_38">
    <path d="M 74.82 219.390909 
L 75.09671 219.390909 
L 75.37342 241.864204 
L 75.92684 264.159517 
L 76.479927 284.341155 
L 77.310057 318.933159 
L 77.586767 323.835855 
L 78.140187 328.381573 
L 78.693607 330.888084 
L 78.969985 331.476644 
L 79.246694 331.607073 
L 79.800114 331.546857 
L 80.076824 331.566917 
L 80.353534 331.325364 
L 80.630244 330.569833 
L 81.183664 327.565164 
L 81.736752 324.232003 
L 82.013462 323.173636 
L 82.290172 322.743712 
L 82.566881 322.949758 
L 83.397011 324.79425 
L 83.673721 324.778045 
L 84.780229 323.498711 
L 85.056939 323.607453 
L 85.333649 324.351056 
L 85.610358 326.046374 
L 86.440488 333.510814 
L 86.717198 334.549149 
L 86.993908 334.21409 
L 87.270286 332.447806 
L 88.653835 318.853718 
L 88.930545 319.005917 
L 89.483965 321.927396 
L 90.037053 324.672052 
L 90.313763 325.170678 
L 90.590473 324.570296 
L 91.143893 320.902695 
L 91.697313 317.272413 
L 91.974022 316.225176 
L 92.250732 316.103558 
L 92.527442 317.486726 
L 92.80382 320.919956 
L 93.91066 342.365974 
L 94.18737 344.200766 
L 94.46408 344.721845 
L 95.294209 344.386646 
L 95.570587 344.76411 
L 96.124007 345.989098 
L 96.400717 346.228361 
L 96.677427 346.010667 
L 97.230847 344.541892 
L 97.784267 343.152346 
L 98.060977 343.089565 
L 98.337354 343.508785 
L 99.720904 346.868362 
L 100.274324 347.819302 
L 100.827744 348.35643 
L 101.380831 348.489292 
L 101.934251 348.361583 
L 103.594511 347.662586 
L 104.147598 347.106896 
L 104.701018 346.22203 
L 105.254438 344.997136 
L 105.807858 343.247997 
L 106.361278 340.076908 
L 106.914365 334.31461 
L 107.744495 323.494227 
L 108.021205 321.26922 
L 108.297915 321.005853 
L 108.574625 323.308085 
L 109.681133 339.944291 
L 109.957843 341.54282 
L 110.234552 342.222304 
L 110.511262 342.307359 
L 111.064682 341.973448 
L 111.341392 342.133696 
L 112.4479 344.175195 
L 113.00132 344.476116 
L 113.278029 344.893919 
L 114.108159 346.774594 
L 114.384869 346.933529 
L 114.661579 346.703719 
L 115.214667 345.365361 
L 115.768087 343.909265 
L 116.044797 343.613252 
L 116.321506 343.734746 
L 117.981434 346.117308 
L 118.534854 346.457009 
L 119.088274 347.138615 
L 119.918403 348.253736 
L 120.471491 348.465947 
L 121.024911 348.358917 
L 121.578331 347.978985 
L 122.408461 347.035509 
L 122.96188 346.408918 
L 123.238258 346.250279 
L 123.791678 346.336527 
L 124.345098 346.572527 
L 124.898518 346.583087 
L 125.451938 346.565388 
L 126.281735 346.829461 
L 126.835155 347.207181 
L 127.941995 348.325877 
L 128.495415 348.521653 
L 129.048502 348.358191 
L 129.878632 347.841596 
L 130.708762 347.050107 
L 131.262182 346.541477 
L 132.922109 345.91926 
L 133.475529 346.706714 
L 134.028949 347.52224 
L 134.582036 347.948869 
L 135.412166 348.325755 
L 135.965586 348.365456 
L 137.072094 347.929962 
L 137.625513 348.181185 
L 138.455643 348.569406 
L 139.562151 348.754719 
L 140.115571 348.642907 
L 140.9457 348.308599 
L 142.328918 348.292572 
L 143.159048 347.770974 
L 143.712468 347.749762 
L 144.542597 348.070587 
L 145.925815 348.776288 
L 146.479235 348.841003 
L 147.032655 348.708842 
L 148.139162 348.125111 
L 151.182639 348.803686 
L 151.736059 348.962263 
L 153.119609 348.95182 
L 153.672696 348.692098 
L 154.226116 348.030052 
L 154.779536 347.258073 
L 155.056246 347.091993 
L 155.332956 347.189787 
L 156.716173 348.719759 
L 157.546303 349.025191 
L 158.099723 349.080846 
L 158.653143 348.911979 
L 159.48294 348.58157 
L 160.31307 348.737016 
L 161.41991 348.916762 
L 164.739765 349.002765 
L 166.123314 348.885473 
L 166.953444 348.832849 
L 168.890081 349.020942 
L 170.273299 348.920965 
L 171.380139 349.019459 
L 172.763356 349.038386 
L 174.146906 349.200558 
L 174.977035 349.105555 
L 176.360253 348.438138 
L 177.743803 348.434851 
L 178.85031 348.869345 
L 179.68044 348.948408 
L 180.78728 348.800792 
L 182.723917 349.031667 
L 184.107134 349.189058 
L 185.490684 349.203414 
L 187.150611 349.206981 
L 189.640669 349.227693 
L 191.854348 349.173926 
L 194.067695 349.130137 
L 198.49439 349.072774 
L 201.814577 349.328209 
L 205.687851 349.305517 
L 210.668298 349.094201 
L 211.774805 348.871966 
L 212.881645 348.888264 
L 215.371702 348.835836 
L 217.585049 348.927999 
L 218.691889 348.9934 
L 219.798397 349.029219 
L 222.012076 349.253033 
L 228.652118 349.282144 
L 244.699301 349.428903 
L 248.849617 349.408026 
L 253.276312 349.449682 
L 267.940277 349.4703 
L 273.750521 349.522772 
L 277.070708 349.517988 
L 294.777818 349.569984 
L 351.22 349.609091 
L 351.22 349.609091 
" clip-path="url(#pa573b714e9)" style="fill: none; stroke: #ff0000; stroke-width: 1.5; stroke-linecap: square"/>
   </g>
   <g id="patch_15">
    <path d="M 61 356.12 
L 61 212.88 
" style="fill: none; stroke: #000000; stroke-width: 0.8; stroke-linejoin: miter; stroke-linecap: square"/>
   </g>
   <g id="patch_16">
    <path d="M 365.04 356.12 
L 365.04 212.88 
" style="fill: none; stroke: #000000; stroke-width: 0.8; stroke-linejoin: miter; stroke-linecap: square"/>
   </g>
   <g id="patch_17">
    <path d="M 61 356.12 
L 365.04 356.12 
" style="fill: none; stroke: #000000; stroke-width: 0.8; stroke-linejoin: miter; stroke-linecap: square"/>
   </g>
   <g id="patch_18">
    <path d="M 61 212.88 
L 365.04 212.88 
" style="fill: none; stroke: #000000; stroke-width: 0.8; stroke-linejoin: miter; stroke-linecap: square"/>
   </g>
   <g id="legend_3">
    <g id="patch_19">
     <path d="M 315.543125 235.558125 
L 358.04 235.558125 
Q 360.04 235.558125 360.04 233.558125 
L 360.04 219.88 
Q 360.04 217.88 358.04 217.88 
L 315.543125 217.88 
Q 313.543125 217.88 313.543125 219.88 
L 313.543125 233.558125 
Q 313.543125 235.558125 315.543125 235.558125 
z
" style="fill: #ffffff; opacity: 0.8; stroke: #cccccc; stroke-linejoin: miter"/>
    </g>
    <g id="line2d_39">
     <path d="M 317.543125 225.978438 
L 327.543125 225.978438 
L 337.543125 225.978438 
" style="fill: none; stroke: #ff0000; stroke-width: 1.5; stroke-linecap: square"/>
    </g>
    <g id="text_36">
     <!-- zz -->
     <g transform="translate(345.543125 229.478438)scale(0.1 -0.1)">
      <defs>
       <path id="DejaVuSans-7a" d="M 353 3500 
L 3084 3500 
L 3084 2975 
L 922 459 
L 3084 459 
L 3084 0 
L 275 0 
L 275 525 
L 2438 3041 
L 353 3041 
L 353 3500 
z
" transform="scale(0.015625)"/>
      </defs>
      <use xlink:href="#DejaVuSans-7a"/>
      <use xlink:href="#DejaVuSans-7a" x="52.490234"/>
     </g>
    </g>
   </g>
  </g>
  <g id="axes_4">
   <g id="patch_20">
    <path d="M 405.16 356.12 
L 709.2 356.12 
L 709.2 212.88 
L 405.16 212.88 
z
" style="fill: #ffffff"/>
   </g>
   <g id="matplotlib.axis_7">
    <g id="xtick_16">
     <g id="line2d_40">
      <g>
       <use xlink:href="#me21c959bca" x="418.98" y="356.12" style="stroke: #000000; stroke-width: 0.8"/>
      </g>
     </g>
     <g id="text_37">
      <!-- 0 -->
      <g transform="translate(415.79875 370.718437)scale(0.1 -0.1)">
       <use xlink:href="#DejaVuSans-30"/>
      </g>
     </g>
    </g>
    <g id="xtick_17">
     <g id="line2d_41">
      <g>
       <use xlink:href="#me21c959bca" x="485.416958" y="356.12" style="stroke: #000000; stroke-width: 0.8"/>
      </g>
     </g>
     <g id="text_38">
      <!-- 20 -->
      <g transform="translate(479.054458 370.718437)scale(0.1 -0.1)">
       <use xlink:href="#DejaVuSans-32"/>
       <use xlink:href="#DejaVuSans-30" x="63.623047"/>
      </g>
     </g>
    </g>
    <g id="xtick_18">
     <g id="line2d_42">
      <g>
       <use xlink:href="#me21c959bca" x="551.853915" y="356.12" style="stroke: #000000; stroke-width: 0.8"/>
      </g>
     </g>
     <g id="text_39">
      <!-- 40 -->
      <g transform="translate(545.491415 370.718437)scale(0.1 -0.1)">
       <use xlink:href="#DejaVuSans-34"/>
       <use xlink:href="#DejaVuSans-30" x="63.623047"/>
      </g>
     </g>
    </g>
    <g id="xtick_19">
     <g id="line2d_43">
      <g>
       <use xlink:href="#me21c959bca" x="618.290873" y="356.12" style="stroke: #000000; stroke-width: 0.8"/>
      </g>
     </g>
     <g id="text_40">
      <!-- 60 -->
      <g transform="translate(611.928373 370.718437)scale(0.1 -0.1)">
       <use xlink:href="#DejaVuSans-36"/>
       <use xlink:href="#DejaVuSans-30" x="63.623047"/>
      </g>
     </g>
    </g>
    <g id="xtick_20">
     <g id="line2d_44">
      <g>
       <use xlink:href="#me21c959bca" x="684.72783" y="356.12" style="stroke: #000000; stroke-width: 0.8"/>
      </g>
     </g>
     <g id="text_41">
      <!-- 80 -->
      <g transform="translate(678.36533 370.718437)scale(0.1 -0.1)">
       <use xlink:href="#DejaVuSans-38"/>
       <use xlink:href="#DejaVuSans-30" x="63.623047"/>
      </g>
     </g>
    </g>
   </g>
   <g id="matplotlib.axis_8">
    <g id="ytick_19">
     <g id="line2d_45">
      <g>
       <use xlink:href="#m07f0144f33" x="405.16" y="330.287487" style="stroke: #000000; stroke-width: 0.8"/>
      </g>
     </g>
     <g id="text_42">
      <!-- 0.2 -->
      <g transform="translate(382.256875 334.086706)scale(0.1 -0.1)">
       <use xlink:href="#DejaVuSans-30"/>
       <use xlink:href="#DejaVuSans-2e" x="63.623047"/>
       <use xlink:href="#DejaVuSans-32" x="95.410156"/>
      </g>
     </g>
    </g>
    <g id="ytick_20">
     <g id="line2d_46">
      <g>
       <use xlink:href="#m07f0144f33" x="405.16" y="302.563342" style="stroke: #000000; stroke-width: 0.8"/>
      </g>
     </g>
     <g id="text_43">
      <!-- 0.4 -->
      <g transform="translate(382.256875 306.362561)scale(0.1 -0.1)">
       <use xlink:href="#DejaVuSans-30"/>
       <use xlink:href="#DejaVuSans-2e" x="63.623047"/>
       <use xlink:href="#DejaVuSans-34" x="95.410156"/>
      </g>
     </g>
    </g>
    <g id="ytick_21">
     <g id="line2d_47">
      <g>
       <use xlink:href="#m07f0144f33" x="405.16" y="274.839198" style="stroke: #000000; stroke-width: 0.8"/>
      </g>
     </g>
     <g id="text_44">
      <!-- 0.6 -->
      <g transform="translate(382.256875 278.638417)scale(0.1 -0.1)">
       <use xlink:href="#DejaVuSans-30"/>
       <use xlink:href="#DejaVuSans-2e" x="63.623047"/>
       <use xlink:href="#DejaVuSans-36" x="95.410156"/>
      </g>
     </g>
    </g>
    <g id="ytick_22">
     <g id="line2d_48">
      <g>
       <use xlink:href="#m07f0144f33" x="405.16" y="247.115054" style="stroke: #000000; stroke-width: 0.8"/>
      </g>
     </g>
     <g id="text_45">
      <!-- 0.8 -->
      <g transform="translate(382.256875 250.914272)scale(0.1 -0.1)">
       <use xlink:href="#DejaVuSans-30"/>
       <use xlink:href="#DejaVuSans-2e" x="63.623047"/>
       <use xlink:href="#DejaVuSans-38" x="95.410156"/>
      </g>
     </g>
    </g>
    <g id="ytick_23">
     <g id="line2d_49">
      <g>
       <use xlink:href="#m07f0144f33" x="405.16" y="219.390909" style="stroke: #000000; stroke-width: 0.8"/>
      </g>
     </g>
     <g id="text_46">
      <!-- 1.0 -->
      <g transform="translate(382.256875 223.190128)scale(0.1 -0.1)">
       <use xlink:href="#DejaVuSans-31"/>
       <use xlink:href="#DejaVuSans-2e" x="63.623047"/>
       <use xlink:href="#DejaVuSans-30" x="95.410156"/>
      </g>
     </g>
    </g>
   </g>
   <g id="line2d_50">
    <path d="M 418.98 302.605744 
L 419.25671 302.605744 
L 419.53342 297.330138 
L 420.08684 258.197797 
L 420.363217 230.355008 
L 420.639927 239.593019 
L 421.193347 283.40501 
L 421.746767 306.364956 
L 422.023477 309.905877 
L 422.300187 303.856008 
L 422.853607 241.056229 
L 423.129985 257.450828 
L 423.406694 249.075853 
L 423.683404 226.149746 
L 423.960114 243.63388 
L 424.513534 287.941853 
L 425.066954 312.628617 
L 425.896752 339.395973 
L 426.173462 344.951002 
L 426.450172 348.269534 
L 426.726881 349.609091 
L 427.003591 349.363978 
L 427.280301 347.738274 
L 427.557011 344.755973 
L 428.387141 330.659628 
L 429.216939 314.072583 
L 429.493649 307.955679 
L 429.770358 304.573839 
L 430.047068 304.200448 
L 430.323778 303.260717 
L 430.600488 298.202881 
L 430.877198 286.152974 
L 431.430286 232.368013 
L 431.706996 258.553884 
L 431.983706 270.923813 
L 432.260416 276.020985 
L 432.537126 275.469289 
L 432.813835 270.567308 
L 433.090545 261.375584 
L 433.367255 242.710775 
L 433.643965 234.733787 
L 433.920675 238.392138 
L 434.197053 237.098884 
L 434.750473 225.849511 
L 435.027183 219.876963 
L 435.303893 224.539534 
L 435.580603 232.122294 
L 436.134022 259.058481 
L 436.96382 306.961982 
L 437.51724 327.624379 
L 438.07066 341.227182 
L 438.34737 344.884892 
L 438.62408 345.981505 
L 438.90079 344.412592 
L 439.177499 340.36981 
L 441.944267 281.411615 
L 442.774064 253.824398 
L 443.327484 243.296024 
L 444.157614 219.905289 
L 444.711034 234.543377 
L 445.817541 271.430304 
L 446.094251 277.41575 
L 446.370961 280.93503 
L 447.201091 285.718976 
L 447.477801 290.844114 
L 448.307598 312.812507 
L 448.584308 316.940865 
L 448.861018 318.487268 
L 449.137728 318.074854 
L 449.414438 316.494374 
L 449.691148 313.95904 
L 450.244568 304.763447 
L 450.797656 293.929948 
L 451.074365 293.653977 
L 451.904495 303.250684 
L 452.181205 304.082368 
L 452.457915 303.506609 
L 453.011335 301.936461 
L 453.288045 301.383182 
L 453.564423 300.030635 
L 453.841133 297.180317 
L 454.117843 291.9662 
L 454.671262 272.746502 
L 454.947972 262.532206 
L 455.224682 265.645019 
L 455.778102 279.498751 
L 456.88461 299.613681 
L 457.438029 305.111575 
L 458.544869 311.642957 
L 458.821579 312.111227 
L 459.097957 311.353367 
L 459.374667 309.307802 
L 459.928087 302.000523 
L 461.311636 280.517501 
L 461.588346 278.409986 
L 461.864724 279.730728 
L 462.418144 287.062143 
L 462.694854 289.017924 
L 462.971564 289.016941 
L 463.248274 287.442839 
L 464.355113 278.317423 
L 464.908201 275.312872 
L 465.461621 272.034722 
L 465.738331 270.662215 
L 466.015041 268.129155 
L 466.568461 258.686091 
L 466.84517 253.907382 
L 467.12188 251.070665 
L 467.398258 249.537487 
L 467.674968 247.352103 
L 468.228388 238.48146 
L 469.058518 219.788568 
L 469.888648 243.405807 
L 470.165025 243.787056 
L 470.441735 238.143332 
L 470.718445 221.801755 
L 471.271865 243.105911 
L 471.825285 254.34917 
L 472.931792 269.987229 
L 474.592052 283.13606 
L 474.868762 283.903518 
L 475.145472 283.675599 
L 475.975269 281.008485 
L 476.251979 281.227481 
L 476.528689 281.786486 
L 476.805399 281.564432 
L 477.082109 279.123603 
L 477.358819 273.513151 
L 477.912239 253.705727 
L 478.465327 234.009719 
L 479.018746 223.256948 
L 479.295456 219.646261 
L 479.572166 221.6612 
L 479.848876 222.254604 
L 480.402296 221.306453 
L 480.679006 220.632962 
L 480.955384 219.390909 
L 481.508804 223.442552 
L 481.785513 223.195592 
L 482.338933 219.806385 
L 482.615643 221.124239 
L 482.892353 221.19285 
L 483.169063 219.390909 
L 483.445773 220.220453 
L 483.722151 219.769188 
L 484.275571 226.962302 
L 484.828991 238.351317 
L 485.38241 250.768117 
L 485.65912 255.020098 
L 485.93583 256.471496 
L 486.21254 254.234561 
L 486.488918 246.499856 
L 486.765628 226.245747 
L 487.042338 220.20213 
L 488.149177 257.739057 
L 488.702597 268.244158 
L 489.255685 274.216292 
L 489.809105 277.725175 
L 490.085815 278.560936 
L 490.362525 278.846859 
L 490.639235 278.478771 
L 491.192655 276.737142 
L 492.022452 273.957355 
L 492.299162 274.15277 
L 493.129292 276.831681 
L 493.406002 276.673418 
L 493.682712 275.661345 
L 494.236132 272.397067 
L 494.789219 268.509467 
L 495.342639 263.206143 
L 496.172769 254.030785 
L 496.726189 250.902637 
L 497.002899 249.836971 
L 497.279609 249.486535 
L 497.555986 252.38599 
L 498.386116 269.9858 
L 498.662826 270.98687 
L 498.939536 267.397612 
L 499.216246 258.574917 
L 499.769666 225.700883 
L 500.046376 232.829392 
L 500.599463 259.451505 
L 500.876173 266.709083 
L 501.152883 269.685779 
L 501.429593 267.856905 
L 501.983013 253.266309 
L 502.536433 240.524007 
L 503.089521 232.500264 
L 503.64294 221.052808 
L 504.19636 235.967208 
L 504.47307 240.345321 
L 504.74978 242.596283 
L 505.02649 242.97355 
L 505.57991 240.976132 
L 505.856288 239.96549 
L 506.132998 240.240228 
L 506.409707 241.437136 
L 506.686417 243.173836 
L 506.963127 244.023214 
L 507.239837 244.135145 
L 507.516547 242.02058 
L 507.793257 237.69038 
L 508.069967 231.565407 
L 508.346677 230.370577 
L 508.899765 239.697843 
L 509.453184 249.084864 
L 509.729894 250.874342 
L 510.006604 250.425523 
L 510.836734 244.053038 
L 511.113444 245.146462 
L 511.666532 249.459235 
L 513.050081 265.155426 
L 513.326791 266.00947 
L 513.603501 266.087953 
L 513.880211 265.591559 
L 514.710009 262.250903 
L 515.263429 261.219095 
L 515.816848 259.545886 
L 516.093558 259.339406 
L 516.370268 259.622519 
L 516.923356 261.334914 
L 517.200066 261.390652 
L 517.476776 260.48683 
L 518.030196 255.850866 
L 518.860326 245.7987 
L 519.690123 232.780042 
L 519.966833 233.324766 
L 520.520253 243.694662 
L 520.796963 245.699176 
L 521.073673 246.378639 
L 521.350383 245.669786 
L 521.627093 243.675998 
L 521.903803 240.023126 
L 522.45689 228.061563 
L 522.7336 220.511671 
L 523.28702 232.831251 
L 523.84044 243.569349 
L 524.39386 249.440869 
L 524.67057 250.810963 
L 524.94728 251.092261 
L 525.223657 249.875933 
L 525.777077 244.974363 
L 526.053787 242.131822 
L 526.883917 238.074209 
L 527.160627 235.353202 
L 527.714047 223.811423 
L 527.990424 222.47326 
L 528.543844 235.198002 
L 528.820554 238.733999 
L 529.097264 240.322982 
L 529.373974 240.214564 
L 529.650684 238.171737 
L 529.927394 235.066495 
L 530.757192 219.993148 
L 531.310611 230.033575 
L 531.587321 232.330635 
L 532.140741 233.424393 
L 532.417451 235.851234 
L 532.970871 242.30758 
L 533.247581 244.090262 
L 533.523959 243.686752 
L 533.800669 241.754991 
L 534.077378 237.540193 
L 534.354088 231.084194 
L 534.630798 221.282475 
L 536.290726 247.227767 
L 536.567436 249.37139 
L 536.844146 250.149901 
L 537.120855 248.934609 
L 537.397565 245.990508 
L 537.674275 241.077201 
L 538.504405 222.782182 
L 539.057493 239.403543 
L 539.334203 244.777058 
L 539.610913 247.711074 
L 539.887623 248.881988 
L 540.164333 249.422255 
L 540.441042 251.42774 
L 540.994462 257.191879 
L 541.271172 258.846297 
L 541.54755 258.630083 
L 541.82426 256.913257 
L 542.37768 250.912093 
L 543.20781 238.456103 
L 543.761229 229.237584 
L 544.037939 226.429818 
L 544.314317 225.679984 
L 544.591027 227.001985 
L 544.867737 229.033114 
L 545.144447 230.082448 
L 545.421157 229.757574 
L 545.697867 228.05311 
L 546.251287 222.973204 
L 546.527996 222.063948 
L 546.804706 221.53697 
L 547.081084 220.413181 
L 547.357794 220.870418 
L 547.911214 228.031955 
L 548.187924 230.046026 
L 548.464634 231.165667 
L 549.018054 230.347217 
L 549.294764 234.779456 
L 549.571474 235.655432 
L 549.847851 234.968018 
L 550.401271 229.139309 
L 550.954691 219.732134 
L 551.784821 231.502378 
L 552.891328 241.715203 
L 553.444748 246.419869 
L 553.721458 246.697278 
L 553.998168 245.890522 
L 555.381385 234.983804 
L 555.658095 236.182574 
L 556.488225 244.931589 
L 556.764935 246.153613 
L 557.041645 246.80886 
L 557.318355 247.031608 
L 557.595065 247.033215 
L 557.871775 247.541653 
L 558.148153 247.314265 
L 558.424862 246.516309 
L 558.701572 245.007623 
L 559.254992 238.109087 
L 559.531702 236.628666 
L 559.808412 238.798582 
L 561.19163 257.581453 
L 561.745049 262.67027 
L 562.021759 263.912467 
L 562.298469 263.883674 
L 562.575179 262.438797 
L 562.851889 259.629781 
L 563.405309 251.064599 
L 565.065236 222.502849 
L 565.895366 242.918616 
L 566.172076 246.851615 
L 566.725164 250.671091 
L 567.001874 251.197025 
L 567.278584 251.405039 
L 567.555294 251.179414 
L 568.385423 249.942596 
L 568.662133 248.488334 
L 569.768641 237.748376 
L 570.045351 237.677975 
L 570.598771 238.845607 
L 570.875481 238.845607 
L 571.15219 238.214401 
L 571.4289 236.87461 
L 571.70561 236.685056 
L 571.981988 236.63585 
L 572.258698 238.015802 
L 572.812118 239.334945 
L 573.088828 238.713397 
L 573.365538 238.679547 
L 573.642248 239.9336 
L 573.918958 240.609672 
L 574.195667 240.322982 
L 574.472377 239.106373 
L 575.578885 229.551568 
L 575.855595 228.790872 
L 576.132305 230.12835 
L 576.685725 231.055704 
L 577.239145 235.552472 
L 578.068942 243.080732 
L 578.345652 244.196107 
L 578.622362 244.537526 
L 578.899072 244.153585 
L 579.452492 241.377815 
L 579.729202 239.708891 
L 580.282289 231.918816 
L 580.558999 225.0371 
L 580.835709 225.0371 
L 581.112419 231.918816 
L 581.665839 238.143332 
L 583.049056 250.514319 
L 583.325766 251.420901 
L 583.602476 251.276477 
L 583.879186 250.668852 
L 584.709316 248.166974 
L 584.986026 247.801336 
L 585.539446 246.485903 
L 585.815824 245.339828 
L 586.369243 241.300794 
L 586.922663 235.254324 
L 587.752793 226.037706 
L 588.029503 224.349206 
L 588.306213 225.334802 
L 588.859301 234.364604 
L 589.136011 236.273927 
L 589.41272 236.987311 
L 589.68943 235.994713 
L 590.24285 231.257145 
L 591.07298 219.811221 
L 592.456197 241.18496 
L 593.009617 246.086033 
L 593.563037 247.524118 
L 593.839747 247.393813 
L 594.392835 246.280598 
L 594.669545 245.490244 
L 595.499674 241.035714 
L 596.053094 239.654646 
L 596.882892 236.641155 
L 597.436312 231.855124 
L 597.989732 224.276472 
L 598.266442 219.390909 
L 598.819861 227.617016 
L 599.372949 232.88738 
L 599.649659 234.276708 
L 599.926369 235.064599 
L 600.203079 235.230996 
L 600.479789 234.609065 
L 601.033209 234.046635 
L 601.586629 235.590628 
L 601.863338 236.87461 
L 602.693136 238.44759 
L 603.246556 235.982559 
L 604.076686 225.600512 
L 604.353396 221.321253 
L 604.630106 220.431475 
L 604.906483 222.917444 
L 605.183193 223.691929 
L 605.736613 220.759219 
L 606.013323 221.449098 
L 606.566743 226.481381 
L 607.94996 244.61428 
L 608.22667 246.075307 
L 608.50338 246.499856 
L 608.78009 245.430672 
L 609.61022 241.102355 
L 609.88693 240.721293 
L 610.16364 240.714134 
L 610.716727 238.109087 
L 611.546857 230.796173 
L 612.653697 220.262901 
L 612.930407 220.309739 
L 613.206785 221.321253 
L 614.867044 231.827009 
L 615.143754 232.574347 
L 615.420464 232.360612 
L 615.697174 231.916715 
L 615.973552 231.916715 
L 616.250262 230.566111 
L 616.526972 230.566111 
L 616.803682 231.084194 
L 617.080391 231.916715 
L 617.357101 231.916715 
L 617.633811 232.366351 
L 618.463941 232.366351 
L 618.740319 232.737947 
L 619.570449 234.835223 
L 619.847159 234.62948 
L 620.123868 235.268339 
L 620.677288 235.160091 
L 620.953998 234.250346 
L 621.230708 234.223149 
L 621.507086 233.314627 
L 621.783796 233.314627 
L 622.060506 232.373563 
L 622.337216 232.373563 
L 622.613926 231.253099 
L 624.550563 231.309053 
L 624.827273 232.373563 
L 625.657403 232.331203 
L 625.934113 231.253099 
L 629.2543 231.309053 
L 629.531009 230.12835 
L 633.680994 230.12835 
L 633.957704 228.790872 
L 635.894341 228.790872 
L 636.447761 228.670593 
L 640.321368 228.670593 
L 640.598078 228.790872 
L 641.151166 228.670593 
L 641.427875 230.049942 
L 643.917933 230.12835 
L 644.194643 228.790872 
L 644.748062 228.790872 
L 645.024772 227.230615 
L 645.301482 227.230615 
L 645.578192 227.015305 
L 646.40799 227.015305 
L 646.6847 228.670593 
L 659.135318 228.670593 
L 659.412028 227.015305 
L 695.38 227.015305 
L 695.38 227.015305 
" clip-path="url(#p15b9eee314)" style="fill: none; stroke: #008000; stroke-width: 1.5; stroke-linecap: square"/>
   </g>
   <g id="patch_21">
    <path d="M 405.16 356.12 
L 405.16 212.88 
" style="fill: none; stroke: #000000; stroke-width: 0.8; stroke-linejoin: miter; stroke-linecap: square"/>
   </g>
   <g id="patch_22">
    <path d="M 709.2 356.12 
L 709.2 212.88 
" style="fill: none; stroke: #000000; stroke-width: 0.8; stroke-linejoin: miter; stroke-linecap: square"/>
   </g>
   <g id="patch_23">
    <path d="M 405.16 356.12 
L 709.2 356.12 
" style="fill: none; stroke: #000000; stroke-width: 0.8; stroke-linejoin: miter; stroke-linecap: square"/>
   </g>
   <g id="patch_24">
    <path d="M 405.16 212.88 
L 709.2 212.88 
" style="fill: none; stroke: #000000; stroke-width: 0.8; stroke-linejoin: miter; stroke-linecap: square"/>
   </g>
   <g id="legend_4">
    <g id="patch_25">
     <path d="M 658.3625 351.12 
L 702.2 351.12 
Q 704.2 351.12 704.2 349.12 
L 704.2 335.441875 
Q 704.2 333.441875 702.2 333.441875 
L 658.3625 333.441875 
Q 656.3625 333.441875 656.3625 335.441875 
L 656.3625 349.12 
Q 656.3625 351.12 658.3625 351.12 
z
" style="fill: #ffffff; opacity: 0.8; stroke: #cccccc; stroke-linejoin: miter"/>
    </g>
    <g id="line2d_51">
     <path d="M 660.3625 341.540312 
L 670.3625 341.540312 
L 680.3625 341.540312 
" style="fill: none; stroke: #008000; stroke-width: 1.5; stroke-linecap: square"/>
    </g>
    <g id="text_47">
     <!-- xy -->
     <g transform="translate(688.3625 345.040312)scale(0.1 -0.1)">
      <use xlink:href="#DejaVuSans-78"/>
      <use xlink:href="#DejaVuSans-79" x="59.179688"/>
     </g>
    </g>
   </g>
  </g>
  <g id="axes_5">
   <g id="patch_26">
    <path d="M 61 527.24 
L 365.04 527.24 
L 365.04 384 
L 61 384 
z
" style="fill: #ffffff"/>
   </g>
   <g id="matplotlib.axis_9">
    <g id="xtick_21">
     <g id="line2d_52">
      <g>
       <use xlink:href="#me21c959bca" x="74.82" y="527.24" style="stroke: #000000; stroke-width: 0.8"/>
      </g>
     </g>
     <g id="text_48">
      <!-- 0 -->
      <g transform="translate(71.63875 541.838438)scale(0.1 -0.1)">
       <use xlink:href="#DejaVuSans-30"/>
      </g>
     </g>
    </g>
    <g id="xtick_22">
     <g id="line2d_53">
      <g>
       <use xlink:href="#me21c959bca" x="141.256958" y="527.24" style="stroke: #000000; stroke-width: 0.8"/>
      </g>
     </g>
     <g id="text_49">
      <!-- 20 -->
      <g transform="translate(134.894458 541.838438)scale(0.1 -0.1)">
       <use xlink:href="#DejaVuSans-32"/>
       <use xlink:href="#DejaVuSans-30" x="63.623047"/>
      </g>
     </g>
    </g>
    <g id="xtick_23">
     <g id="line2d_54">
      <g>
       <use xlink:href="#me21c959bca" x="207.693915" y="527.24" style="stroke: #000000; stroke-width: 0.8"/>
      </g>
     </g>
     <g id="text_50">
      <!-- 40 -->
      <g transform="translate(201.331415 541.838438)scale(0.1 -0.1)">
       <use xlink:href="#DejaVuSans-34"/>
       <use xlink:href="#DejaVuSans-30" x="63.623047"/>
      </g>
     </g>
    </g>
    <g id="xtick_24">
     <g id="line2d_55">
      <g>
       <use xlink:href="#me21c959bca" x="274.130873" y="527.24" style="stroke: #000000; stroke-width: 0.8"/>
      </g>
     </g>
     <g id="text_51">
      <!-- 60 -->
      <g transform="translate(267.768373 541.838438)scale(0.1 -0.1)">
       <use xlink:href="#DejaVuSans-36"/>
       <use xlink:href="#DejaVuSans-30" x="63.623047"/>
      </g>
     </g>
    </g>
    <g id="xtick_25">
     <g id="line2d_56">
      <g>
       <use xlink:href="#me21c959bca" x="340.56783" y="527.24" style="stroke: #000000; stroke-width: 0.8"/>
      </g>
     </g>
     <g id="text_52">
      <!-- 80 -->
      <g transform="translate(334.20533 541.838438)scale(0.1 -0.1)">
       <use xlink:href="#DejaVuSans-38"/>
       <use xlink:href="#DejaVuSans-30" x="63.623047"/>
      </g>
     </g>
    </g>
   </g>
   <g id="matplotlib.axis_10">
    <g id="ytick_24">
     <g id="line2d_57">
      <g>
       <use xlink:href="#m07f0144f33" x="61" y="507.707273" style="stroke: #000000; stroke-width: 0.8"/>
      </g>
     </g>
     <g id="text_53">
      <!-- 0.96 -->
      <g transform="translate(31.734375 511.506491)scale(0.1 -0.1)">
       <defs>
        <path id="DejaVuSans-39" d="M 703 97 
L 703 672 
Q 941 559 1184 500 
Q 1428 441 1663 441 
Q 2288 441 2617 861 
Q 2947 1281 2994 2138 
Q 2813 1869 2534 1725 
Q 2256 1581 1919 1581 
Q 1219 1581 811 2004 
Q 403 2428 403 3163 
Q 403 3881 828 4315 
Q 1253 4750 1959 4750 
Q 2769 4750 3195 4129 
Q 3622 3509 3622 2328 
Q 3622 1225 3098 567 
Q 2575 -91 1691 -91 
Q 1453 -91 1209 -44 
Q 966 3 703 97 
z
M 1959 2075 
Q 2384 2075 2632 2365 
Q 2881 2656 2881 3163 
Q 2881 3666 2632 3958 
Q 2384 4250 1959 4250 
Q 1534 4250 1286 3958 
Q 1038 3666 1038 3163 
Q 1038 2656 1286 2365 
Q 1534 2075 1959 2075 
z
" transform="scale(0.015625)"/>
       </defs>
       <use xlink:href="#DejaVuSans-30"/>
       <use xlink:href="#DejaVuSans-2e" x="63.623047"/>
       <use xlink:href="#DejaVuSans-39" x="95.410156"/>
       <use xlink:href="#DejaVuSans-36" x="159.033203"/>
      </g>
     </g>
    </g>
    <g id="ytick_25">
     <g id="line2d_58">
      <g>
       <use xlink:href="#m07f0144f33" x="61" y="481.663636" style="stroke: #000000; stroke-width: 0.8"/>
      </g>
     </g>
     <g id="text_54">
      <!-- 0.98 -->
      <g transform="translate(31.734375 485.462855)scale(0.1 -0.1)">
       <use xlink:href="#DejaVuSans-30"/>
       <use xlink:href="#DejaVuSans-2e" x="63.623047"/>
       <use xlink:href="#DejaVuSans-39" x="95.410156"/>
       <use xlink:href="#DejaVuSans-38" x="159.033203"/>
      </g>
     </g>
    </g>
    <g id="ytick_26">
     <g id="line2d_59">
      <g>
       <use xlink:href="#m07f0144f33" x="61" y="455.62" style="stroke: #000000; stroke-width: 0.8"/>
      </g>
     </g>
     <g id="text_55">
      <!-- 1.00 -->
      <g transform="translate(31.734375 459.419219)scale(0.1 -0.1)">
       <use xlink:href="#DejaVuSans-31"/>
       <use xlink:href="#DejaVuSans-2e" x="63.623047"/>
       <use xlink:href="#DejaVuSans-30" x="95.410156"/>
       <use xlink:href="#DejaVuSans-30" x="159.033203"/>
      </g>
     </g>
    </g>
    <g id="ytick_27">
     <g id="line2d_60">
      <g>
       <use xlink:href="#m07f0144f33" x="61" y="429.576364" style="stroke: #000000; stroke-width: 0.8"/>
      </g>
     </g>
     <g id="text_56">
      <!-- 1.02 -->
      <g transform="translate(31.734375 433.375582)scale(0.1 -0.1)">
       <use xlink:href="#DejaVuSans-31"/>
       <use xlink:href="#DejaVuSans-2e" x="63.623047"/>
       <use xlink:href="#DejaVuSans-30" x="95.410156"/>
       <use xlink:href="#DejaVuSans-32" x="159.033203"/>
      </g>
     </g>
    </g>
    <g id="ytick_28">
     <g id="line2d_61">
      <g>
       <use xlink:href="#m07f0144f33" x="61" y="403.532727" style="stroke: #000000; stroke-width: 0.8"/>
      </g>
     </g>
     <g id="text_57">
      <!-- 1.04 -->
      <g transform="translate(31.734375 407.331946)scale(0.1 -0.1)">
       <use xlink:href="#DejaVuSans-31"/>
       <use xlink:href="#DejaVuSans-2e" x="63.623047"/>
       <use xlink:href="#DejaVuSans-30" x="95.410156"/>
       <use xlink:href="#DejaVuSans-34" x="159.033203"/>
      </g>
     </g>
    </g>
   </g>
   <g id="line2d_62">
    <path d="M 74.82 455.62 
L 351.22 455.62 
L 351.22 455.62 
" clip-path="url(#pbcce5a9a29)" style="fill: none; stroke: #000000; stroke-width: 1.5; stroke-linecap: square"/>
   </g>
   <g id="patch_27">
    <path d="M 61 527.24 
L 61 384 
" style="fill: none; stroke: #000000; stroke-width: 0.8; stroke-linejoin: miter; stroke-linecap: square"/>
   </g>
   <g id="patch_28">
    <path d="M 365.04 527.24 
L 365.04 384 
" style="fill: none; stroke: #000000; stroke-width: 0.8; stroke-linejoin: miter; stroke-linecap: square"/>
   </g>
   <g id="patch_29">
    <path d="M 61 527.24 
L 365.04 527.24 
" style="fill: none; stroke: #000000; stroke-width: 0.8; stroke-linejoin: miter; stroke-linecap: square"/>
   </g>
   <g id="patch_30">
    <path d="M 61 384 
L 365.04 384 
" style="fill: none; stroke: #000000; stroke-width: 0.8; stroke-linejoin: miter; stroke-linecap: square"/>
   </g>
   <g id="legend_5">
    <g id="patch_31">
     <path d="M 314.872813 406.678125 
L 358.04 406.678125 
Q 360.04 406.678125 360.04 404.678125 
L 360.04 391 
Q 360.04 389 358.04 389 
L 314.872813 389 
Q 312.872813 389 312.872813 391 
L 312.872813 404.678125 
Q 312.872813 406.678125 314.872813 406.678125 
z
" style="fill: #ffffff; opacity: 0.8; stroke: #cccccc; stroke-linejoin: miter"/>
    </g>
    <g id="line2d_63">
     <path d="M 316.872813 397.098438 
L 326.872813 397.098438 
L 336.872813 397.098438 
" style="fill: none; stroke: #000000; stroke-width: 1.5; stroke-linecap: square"/>
    </g>
    <g id="text_58">
     <!-- yz -->
     <g transform="translate(344.872813 400.598438)scale(0.1 -0.1)">
      <use xlink:href="#DejaVuSans-79"/>
      <use xlink:href="#DejaVuSans-7a" x="59.179688"/>
     </g>
    </g>
   </g>
  </g>
  <g id="axes_6">
   <g id="patch_32">
    <path d="M 405.16 527.24 
L 709.2 527.24 
L 709.2 384 
L 405.16 384 
z
" style="fill: #ffffff"/>
   </g>
   <g id="matplotlib.axis_11">
    <g id="xtick_26">
     <g id="line2d_64">
      <g>
       <use xlink:href="#me21c959bca" x="418.98" y="527.24" style="stroke: #000000; stroke-width: 0.8"/>
      </g>
     </g>
     <g id="text_59">
      <!-- 0 -->
      <g transform="translate(415.79875 541.838438)scale(0.1 -0.1)">
       <use xlink:href="#DejaVuSans-30"/>
      </g>
     </g>
    </g>
    <g id="xtick_27">
     <g id="line2d_65">
      <g>
       <use xlink:href="#me21c959bca" x="485.416958" y="527.24" style="stroke: #000000; stroke-width: 0.8"/>
      </g>
     </g>
     <g id="text_60">
      <!-- 20 -->
      <g transform="translate(479.054458 541.838438)scale(0.1 -0.1)">
       <use xlink:href="#DejaVuSans-32"/>
       <use xlink:href="#DejaVuSans-30" x="63.623047"/>
      </g>
     </g>
    </g>
    <g id="xtick_28">
     <g id="line2d_66">
      <g>
       <use xlink:href="#me21c959bca" x="551.853915" y="527.24" style="stroke: #000000; stroke-width: 0.8"/>
      </g>
     </g>
     <g id="text_61">
      <!-- 40 -->
      <g transform="translate(545.491415 541.838438)scale(0.1 -0.1)">
       <use xlink:href="#DejaVuSans-34"/>
       <use xlink:href="#DejaVuSans-30" x="63.623047"/>
      </g>
     </g>
    </g>
    <g id="xtick_29">
     <g id="line2d_67">
      <g>
       <use xlink:href="#me21c959bca" x="618.290873" y="527.24" style="stroke: #000000; stroke-width: 0.8"/>
      </g>
     </g>
     <g id="text_62">
      <!-- 60 -->
      <g transform="translate(611.928373 541.838438)scale(0.1 -0.1)">
       <use xlink:href="#DejaVuSans-36"/>
       <use xlink:href="#DejaVuSans-30" x="63.623047"/>
      </g>
     </g>
    </g>
    <g id="xtick_30">
     <g id="line2d_68">
      <g>
       <use xlink:href="#me21c959bca" x="684.72783" y="527.24" style="stroke: #000000; stroke-width: 0.8"/>
      </g>
     </g>
     <g id="text_63">
      <!-- 80 -->
      <g transform="translate(678.36533 541.838438)scale(0.1 -0.1)">
       <use xlink:href="#DejaVuSans-38"/>
       <use xlink:href="#DejaVuSans-30" x="63.623047"/>
      </g>
     </g>
    </g>
   </g>
   <g id="matplotlib.axis_12">
    <g id="ytick_29">
     <g id="line2d_69">
      <g>
       <use xlink:href="#m07f0144f33" x="405.16" y="507.707273" style="stroke: #000000; stroke-width: 0.8"/>
      </g>
     </g>
     <g id="text_64">
      <!-- 0.96 -->
      <g transform="translate(375.894375 511.506491)scale(0.1 -0.1)">
       <use xlink:href="#DejaVuSans-30"/>
       <use xlink:href="#DejaVuSans-2e" x="63.623047"/>
       <use xlink:href="#DejaVuSans-39" x="95.410156"/>
       <use xlink:href="#DejaVuSans-36" x="159.033203"/>
      </g>
     </g>
    </g>
    <g id="ytick_30">
     <g id="line2d_70">
      <g>
       <use xlink:href="#m07f0144f33" x="405.16" y="481.663636" style="stroke: #000000; stroke-width: 0.8"/>
      </g>
     </g>
     <g id="text_65">
      <!-- 0.98 -->
      <g transform="translate(375.894375 485.462855)scale(0.1 -0.1)">
       <use xlink:href="#DejaVuSans-30"/>
       <use xlink:href="#DejaVuSans-2e" x="63.623047"/>
       <use xlink:href="#DejaVuSans-39" x="95.410156"/>
       <use xlink:href="#DejaVuSans-38" x="159.033203"/>
      </g>
     </g>
    </g>
    <g id="ytick_31">
     <g id="line2d_71">
      <g>
       <use xlink:href="#m07f0144f33" x="405.16" y="455.62" style="stroke: #000000; stroke-width: 0.8"/>
      </g>
     </g>
     <g id="text_66">
      <!-- 1.00 -->
      <g transform="translate(375.894375 459.419219)scale(0.1 -0.1)">
       <use xlink:href="#DejaVuSans-31"/>
       <use xlink:href="#DejaVuSans-2e" x="63.623047"/>
       <use xlink:href="#DejaVuSans-30" x="95.410156"/>
       <use xlink:href="#DejaVuSans-30" x="159.033203"/>
      </g>
     </g>
    </g>
    <g id="ytick_32">
     <g id="line2d_72">
      <g>
       <use xlink:href="#m07f0144f33" x="405.16" y="429.576364" style="stroke: #000000; stroke-width: 0.8"/>
      </g>
     </g>
     <g id="text_67">
      <!-- 1.02 -->
      <g transform="translate(375.894375 433.375582)scale(0.1 -0.1)">
       <use xlink:href="#DejaVuSans-31"/>
       <use xlink:href="#DejaVuSans-2e" x="63.623047"/>
       <use xlink:href="#DejaVuSans-30" x="95.410156"/>
       <use xlink:href="#DejaVuSans-32" x="159.033203"/>
      </g>
     </g>
    </g>
    <g id="ytick_33">
     <g id="line2d_73">
      <g>
       <use xlink:href="#m07f0144f33" x="405.16" y="403.532727" style="stroke: #000000; stroke-width: 0.8"/>
      </g>
     </g>
     <g id="text_68">
      <!-- 1.04 -->
      <g transform="translate(375.894375 407.331946)scale(0.1 -0.1)">
       <use xlink:href="#DejaVuSans-31"/>
       <use xlink:href="#DejaVuSans-2e" x="63.623047"/>
       <use xlink:href="#DejaVuSans-30" x="95.410156"/>
       <use xlink:href="#DejaVuSans-34" x="159.033203"/>
      </g>
     </g>
    </g>
   </g>
   <g id="line2d_74">
    <path d="M 418.98 455.62 
L 695.38 455.62 
L 695.38 455.62 
" clip-path="url(#p3cbab44477)" style="fill: none; stroke: #ee82ee; stroke-width: 1.5; stroke-linecap: square"/>
   </g>
   <g id="patch_33">
    <path d="M 405.16 527.24 
L 405.16 384 
" style="fill: none; stroke: #000000; stroke-width: 0.8; stroke-linejoin: miter; stroke-linecap: square"/>
   </g>
   <g id="patch_34">
    <path d="M 709.2 527.24 
L 709.2 384 
" style="fill: none; stroke: #000000; stroke-width: 0.8; stroke-linejoin: miter; stroke-linecap: square"/>
   </g>
   <g id="patch_35">
    <path d="M 405.16 527.24 
L 709.2 527.24 
" style="fill: none; stroke: #000000; stroke-width: 0.8; stroke-linejoin: miter; stroke-linecap: square"/>
   </g>
   <g id="patch_36">
    <path d="M 405.16 384 
L 709.2 384 
" style="fill: none; stroke: #000000; stroke-width: 0.8; stroke-linejoin: miter; stroke-linecap: square"/>
   </g>
   <g id="legend_6">
    <g id="patch_37">
     <path d="M 659.032813 406.678125 
L 702.2 406.678125 
Q 704.2 406.678125 704.2 404.678125 
L 704.2 391 
Q 704.2 389 702.2 389 
L 659.032813 389 
Q 657.032813 389 657.032813 391 
L 657.032813 404.678125 
Q 657.032813 406.678125 659.032813 406.678125 
z
" style="fill: #ffffff; opacity: 0.8; stroke: #cccccc; stroke-linejoin: miter"/>
    </g>
    <g id="line2d_75">
     <path d="M 661.032813 397.098438 
L 671.032813 397.098438 
L 681.032813 397.098438 
" style="fill: none; stroke: #ee82ee; stroke-width: 1.5; stroke-linecap: square"/>
    </g>
    <g id="text_69">
     <!-- zx -->
     <g transform="translate(689.032813 400.598438)scale(0.1 -0.1)">
      <use xlink:href="#DejaVuSans-7a"/>
      <use xlink:href="#DejaVuSans-78" x="52.490234"/>
     </g>
    </g>
   </g>
  </g>
  <g id="text_70">
   <!-- Reflectivity -->
   <g transform="translate(304.164062 26.716875)scale(0.2 -0.2)">
    <defs>
     <path id="DejaVuSans-52" d="M 2841 2188 
Q 3044 2119 3236 1894 
Q 3428 1669 3622 1275 
L 4263 0 
L 3584 0 
L 2988 1197 
Q 2756 1666 2539 1819 
Q 2322 1972 1947 1972 
L 1259 1972 
L 1259 0 
L 628 0 
L 628 4666 
L 2053 4666 
Q 2853 4666 3247 4331 
Q 3641 3997 3641 3322 
Q 3641 2881 3436 2590 
Q 3231 2300 2841 2188 
z
M 1259 4147 
L 1259 2491 
L 2053 2491 
Q 2509 2491 2742 2702 
Q 2975 2913 2975 3322 
Q 2975 3731 2742 3939 
Q 2509 4147 2053 4147 
L 1259 4147 
z
" transform="scale(0.015625)"/>
     <path id="DejaVuSans-65" d="M 3597 1894 
L 3597 1613 
L 953 1613 
Q 991 1019 1311 708 
Q 1631 397 2203 397 
Q 2534 397 2845 478 
Q 3156 559 3463 722 
L 3463 178 
Q 3153 47 2828 -22 
Q 2503 -91 2169 -91 
Q 1331 -91 842 396 
Q 353 884 353 1716 
Q 353 2575 817 3079 
Q 1281 3584 2069 3584 
Q 2775 3584 3186 3129 
Q 3597 2675 3597 1894 
z
M 3022 2063 
Q 3016 2534 2758 2815 
Q 2500 3097 2075 3097 
Q 1594 3097 1305 2825 
Q 1016 2553 972 2059 
L 3022 2063 
z
" transform="scale(0.015625)"/>
     <path id="DejaVuSans-66" d="M 2375 4863 
L 2375 4384 
L 1825 4384 
Q 1516 4384 1395 4259 
Q 1275 4134 1275 3809 
L 1275 3500 
L 2222 3500 
L 2222 3053 
L 1275 3053 
L 1275 0 
L 697 0 
L 697 3053 
L 147 3053 
L 147 3500 
L 697 3500 
L 697 3744 
Q 697 4328 969 4595 
Q 1241 4863 1831 4863 
L 2375 4863 
z
" transform="scale(0.015625)"/>
     <path id="DejaVuSans-6c" d="M 603 4863 
L 1178 4863 
L 1178 0 
L 603 0 
L 603 4863 
z
" transform="scale(0.015625)"/>
     <path id="DejaVuSans-63" d="M 3122 3366 
L 3122 2828 
Q 2878 2963 2633 3030 
Q 2388 3097 2138 3097 
Q 1578 3097 1268 2742 
Q 959 2388 959 1747 
Q 959 1106 1268 751 
Q 1578 397 2138 397 
Q 2388 397 2633 464 
Q 2878 531 3122 666 
L 3122 134 
Q 2881 22 2623 -34 
Q 2366 -91 2075 -91 
Q 1284 -91 818 406 
Q 353 903 353 1747 
Q 353 2603 823 3093 
Q 1294 3584 2113 3584 
Q 2378 3584 2631 3529 
Q 2884 3475 3122 3366 
z
" transform="scale(0.015625)"/>
     <path id="DejaVuSans-74" d="M 1172 4494 
L 1172 3500 
L 2356 3500 
L 2356 3053 
L 1172 3053 
L 1172 1153 
Q 1172 725 1289 603 
Q 1406 481 1766 481 
L 2356 481 
L 2356 0 
L 1766 0 
Q 1100 0 847 248 
Q 594 497 594 1153 
L 594 3053 
L 172 3053 
L 172 3500 
L 594 3500 
L 594 4494 
L 1172 4494 
z
" transform="scale(0.015625)"/>
     <path id="DejaVuSans-69" d="M 603 3500 
L 1178 3500 
L 1178 0 
L 603 0 
L 603 3500 
z
M 603 4863 
L 1178 4863 
L 1178 4134 
L 603 4134 
L 603 4863 
z
" transform="scale(0.015625)"/>
     <path id="DejaVuSans-76" d="M 191 3500 
L 800 3500 
L 1894 563 
L 2988 3500 
L 3597 3500 
L 2284 0 
L 1503 0 
L 191 3500 
z
" transform="scale(0.015625)"/>
    </defs>
    <use xlink:href="#DejaVuSans-52"/>
    <use xlink:href="#DejaVuSans-65" x="64.982422"/>
    <use xlink:href="#DejaVuSans-66" x="126.505859"/>
    <use xlink:href="#DejaVuSans-6c" x="161.710938"/>
    <use xlink:href="#DejaVuSans-65" x="189.494141"/>
    <use xlink:href="#DejaVuSans-63" x="251.017578"/>
    <use xlink:href="#DejaVuSans-74" x="305.998047"/>
    <use xlink:href="#DejaVuSans-69" x="345.207031"/>
    <use xlink:href="#DejaVuSans-76" x="372.990234"/>
    <use xlink:href="#DejaVuSans-69" x="432.169922"/>
    <use xlink:href="#DejaVuSans-74" x="459.953125"/>
    <use xlink:href="#DejaVuSans-79" x="499.162109"/>
   </g>
  </g>
  <g id="text_71">
   <!-- cm^-1 -->
   <g transform="translate(21.998438 304.794531)rotate(-90)scale(0.1 -0.1)">
    <defs>
     <path id="DejaVuSans-6d" d="M 3328 2828 
Q 3544 3216 3844 3400 
Q 4144 3584 4550 3584 
Q 5097 3584 5394 3201 
Q 5691 2819 5691 2113 
L 5691 0 
L 5113 0 
L 5113 2094 
Q 5113 2597 4934 2840 
Q 4756 3084 4391 3084 
Q 3944 3084 3684 2787 
Q 3425 2491 3425 1978 
L 3425 0 
L 2847 0 
L 2847 2094 
Q 2847 2600 2669 2842 
Q 2491 3084 2119 3084 
Q 1678 3084 1418 2786 
Q 1159 2488 1159 1978 
L 1159 0 
L 581 0 
L 581 3500 
L 1159 3500 
L 1159 2956 
Q 1356 3278 1631 3431 
Q 1906 3584 2284 3584 
Q 2666 3584 2933 3390 
Q 3200 3197 3328 2828 
z
" transform="scale(0.015625)"/>
     <path id="DejaVuSans-5e" d="M 2988 4666 
L 4684 2925 
L 4056 2925 
L 2681 4159 
L 1306 2925 
L 678 2925 
L 2375 4666 
L 2988 4666 
z
" transform="scale(0.015625)"/>
     <path id="DejaVuSans-2d" d="M 313 2009 
L 1997 2009 
L 1997 1497 
L 313 1497 
L 313 2009 
z
" transform="scale(0.015625)"/>
    </defs>
    <use xlink:href="#DejaVuSans-63"/>
    <use xlink:href="#DejaVuSans-6d" x="54.980469"/>
    <use xlink:href="#DejaVuSans-5e" x="152.392578"/>
    <use xlink:href="#DejaVuSans-2d" x="236.181641"/>
    <use xlink:href="#DejaVuSans-31" x="272.265625"/>
   </g>
  </g>
  <g id="text_72">
   <!-- Energy (eV) -->
   <g transform="translate(330.50625 568.160313)scale(0.1 -0.1)">
    <defs>
     <path id="DejaVuSans-45" d="M 628 4666 
L 3578 4666 
L 3578 4134 
L 1259 4134 
L 1259 2753 
L 3481 2753 
L 3481 2222 
L 1259 2222 
L 1259 531 
L 3634 531 
L 3634 0 
L 628 0 
L 628 4666 
z
" transform="scale(0.015625)"/>
     <path id="DejaVuSans-6e" d="M 3513 2113 
L 3513 0 
L 2938 0 
L 2938 2094 
Q 2938 2591 2744 2837 
Q 2550 3084 2163 3084 
Q 1697 3084 1428 2787 
Q 1159 2491 1159 1978 
L 1159 0 
L 581 0 
L 581 3500 
L 1159 3500 
L 1159 2956 
Q 1366 3272 1645 3428 
Q 1925 3584 2291 3584 
Q 2894 3584 3203 3211 
Q 3513 2838 3513 2113 
z
" transform="scale(0.015625)"/>
     <path id="DejaVuSans-72" d="M 2631 2963 
Q 2534 3019 2420 3045 
Q 2306 3072 2169 3072 
Q 1681 3072 1420 2755 
Q 1159 2438 1159 1844 
L 1159 0 
L 581 0 
L 581 3500 
L 1159 3500 
L 1159 2956 
Q 1341 3275 1631 3429 
Q 1922 3584 2338 3584 
Q 2397 3584 2469 3576 
Q 2541 3569 2628 3553 
L 2631 2963 
z
" transform="scale(0.015625)"/>
     <path id="DejaVuSans-67" d="M 2906 1791 
Q 2906 2416 2648 2759 
Q 2391 3103 1925 3103 
Q 1463 3103 1205 2759 
Q 947 2416 947 1791 
Q 947 1169 1205 825 
Q 1463 481 1925 481 
Q 2391 481 2648 825 
Q 2906 1169 2906 1791 
z
M 3481 434 
Q 3481 -459 3084 -895 
Q 2688 -1331 1869 -1331 
Q 1566 -1331 1297 -1286 
Q 1028 -1241 775 -1147 
L 775 -588 
Q 1028 -725 1275 -790 
Q 1522 -856 1778 -856 
Q 2344 -856 2625 -561 
Q 2906 -266 2906 331 
L 2906 616 
Q 2728 306 2450 153 
Q 2172 0 1784 0 
Q 1141 0 747 490 
Q 353 981 353 1791 
Q 353 2603 747 3093 
Q 1141 3584 1784 3584 
Q 2172 3584 2450 3431 
Q 2728 3278 2906 2969 
L 2906 3500 
L 3481 3500 
L 3481 434 
z
" transform="scale(0.015625)"/>
     <path id="DejaVuSans-20" transform="scale(0.015625)"/>
     <path id="DejaVuSans-28" d="M 1984 4856 
Q 1566 4138 1362 3434 
Q 1159 2731 1159 2009 
Q 1159 1288 1364 580 
Q 1569 -128 1984 -844 
L 1484 -844 
Q 1016 -109 783 600 
Q 550 1309 550 2009 
Q 550 2706 781 3412 
Q 1013 4119 1484 4856 
L 1984 4856 
z
" transform="scale(0.015625)"/>
     <path id="DejaVuSans-56" d="M 1831 0 
L 50 4666 
L 709 4666 
L 2188 738 
L 3669 4666 
L 4325 4666 
L 2547 0 
L 1831 0 
z
" transform="scale(0.015625)"/>
     <path id="DejaVuSans-29" d="M 513 4856 
L 1013 4856 
Q 1481 4119 1714 3412 
Q 1947 2706 1947 2009 
Q 1947 1309 1714 600 
Q 1481 -109 1013 -844 
L 513 -844 
Q 928 -128 1133 580 
Q 1338 1288 1338 2009 
Q 1338 2731 1133 3434 
Q 928 4138 513 4856 
z
" transform="scale(0.015625)"/>
    </defs>
    <use xlink:href="#DejaVuSans-45"/>
    <use xlink:href="#DejaVuSans-6e" x="63.183594"/>
    <use xlink:href="#DejaVuSans-65" x="126.5625"/>
    <use xlink:href="#DejaVuSans-72" x="188.085938"/>
    <use xlink:href="#DejaVuSans-67" x="227.449219"/>
    <use xlink:href="#DejaVuSans-79" x="290.925781"/>
    <use xlink:href="#DejaVuSans-20" x="350.105469"/>
    <use xlink:href="#DejaVuSans-28" x="381.892578"/>
    <use xlink:href="#DejaVuSans-65" x="420.90625"/>
    <use xlink:href="#DejaVuSans-56" x="482.429688"/>
    <use xlink:href="#DejaVuSans-29" x="550.837891"/>
   </g>
  </g>
 </g>
 <defs>
  <clipPath id="p4165e3ad20">
   <rect x="61" y="41.76" width="304.04" height="143.24"/>
  </clipPath>
  <clipPath id="p9282677e7d">
   <rect x="405.16" y="41.76" width="304.04" height="143.24"/>
  </clipPath>
  <clipPath id="pa573b714e9">
   <rect x="61" y="212.88" width="304.04" height="143.24"/>
  </clipPath>
  <clipPath id="p15b9eee314">
   <rect x="405.16" y="212.88" width="304.04" height="143.24"/>
  </clipPath>
  <clipPath id="pbcce5a9a29">
   <rect x="61" y="384" width="304.04" height="143.24"/>
  </clipPath>
  <clipPath id="p3cbab44477">
   <rect x="405.16" y="384" width="304.04" height="143.24"/>
  </clipPath>
 </defs>
</svg>
