<?xml version="1.0" encoding="utf-8" standalone="no"?>
<!DOCTYPE svg PUBLIC "-//W3C//DTD SVG 1.1//EN"
  "http://www.w3.org/Graphics/SVG/1.1/DTD/svg11.dtd">
<svg xmlns:xlink="http://www.w3.org/1999/xlink" width="720pt" height="576pt" viewBox="0 0 720 576" xmlns="http://www.w3.org/2000/svg" version="1.1">
 <metadata>
  <rdf:RDF xmlns:dc="http://purl.org/dc/elements/1.1/" xmlns:cc="http://creativecommons.org/ns#" xmlns:rdf="http://www.w3.org/1999/02/22-rdf-syntax-ns#">
   <cc:Work>
    <dc:type rdf:resource="http://purl.org/dc/dcmitype/StillImage"/>
    <dc:date>2022-03-12T13:24:18.969283</dc:date>
    <dc:format>image/svg+xml</dc:format>
    <dc:creator>
     <cc:Agent>
      <dc:title>Matplotlib v3.5.1, https://matplotlib.org/</dc:title>
     </cc:Agent>
    </dc:creator>
   </cc:Work>
  </rdf:RDF>
 </metadata>
 <defs>
  <style type="text/css">*{stroke-linejoin: round; stroke-linecap: butt}</style>
 </defs>
 <g id="figure_1">
  <g id="patch_1">
   <path d="M 0 576 
L 720 576 
L 720 0 
L 0 0 
z
" style="fill: #ffffff"/>
  </g>
  <g id="axes_1">
   <g id="patch_2">
    <path d="M 69.91 174.65 
L 709.2 174.65 
L 709.2 60.48 
L 69.91 60.48 
z
" style="fill: #ffffff"/>
   </g>
   <g id="matplotlib.axis_1">
    <g id="xtick_1">
     <g id="line2d_1">
      <defs>
       <path id="m33ef332536" d="M 0 0 
L 0 3.5 
" style="stroke: #000000; stroke-width: 0.8"/>
      </defs>
      <g>
       <use xlink:href="#m33ef332536" x="83.055269" y="174.65" style="stroke: #000000; stroke-width: 0.8"/>
      </g>
     </g>
    </g>
    <g id="xtick_2">
     <g id="line2d_2">
      <g>
       <use xlink:href="#m33ef332536" x="159.252658" y="174.65" style="stroke: #000000; stroke-width: 0.8"/>
      </g>
     </g>
    </g>
    <g id="xtick_3">
     <g id="line2d_3">
      <g>
       <use xlink:href="#m33ef332536" x="235.450047" y="174.65" style="stroke: #000000; stroke-width: 0.8"/>
      </g>
     </g>
    </g>
    <g id="xtick_4">
     <g id="line2d_4">
      <g>
       <use xlink:href="#m33ef332536" x="311.647437" y="174.65" style="stroke: #000000; stroke-width: 0.8"/>
      </g>
     </g>
    </g>
    <g id="xtick_5">
     <g id="line2d_5">
      <g>
       <use xlink:href="#m33ef332536" x="387.844826" y="174.65" style="stroke: #000000; stroke-width: 0.8"/>
      </g>
     </g>
    </g>
    <g id="xtick_6">
     <g id="line2d_6">
      <g>
       <use xlink:href="#m33ef332536" x="464.042215" y="174.65" style="stroke: #000000; stroke-width: 0.8"/>
      </g>
     </g>
    </g>
    <g id="xtick_7">
     <g id="line2d_7">
      <g>
       <use xlink:href="#m33ef332536" x="540.239604" y="174.65" style="stroke: #000000; stroke-width: 0.8"/>
      </g>
     </g>
    </g>
    <g id="xtick_8">
     <g id="line2d_8">
      <g>
       <use xlink:href="#m33ef332536" x="616.436994" y="174.65" style="stroke: #000000; stroke-width: 0.8"/>
      </g>
     </g>
    </g>
    <g id="xtick_9">
     <g id="line2d_9">
      <g>
       <use xlink:href="#m33ef332536" x="692.634383" y="174.65" style="stroke: #000000; stroke-width: 0.8"/>
      </g>
     </g>
    </g>
   </g>
   <g id="matplotlib.axis_2">
    <g id="ytick_1">
     <g id="line2d_10">
      <defs>
       <path id="m9883398608" d="M 0 0 
L -3.5 0 
" style="stroke: #000000; stroke-width: 0.8"/>
      </defs>
      <g>
       <use xlink:href="#m9883398608" x="69.91" y="151.548822" style="stroke: #000000; stroke-width: 0.8"/>
      </g>
     </g>
     <g id="text_1">
      <!-- −5 -->
      <g transform="translate(48.167813 155.34804)scale(0.1 -0.1)">
       <defs>
        <path id="DejaVuSans-2212" d="M 678 2272 
L 4684 2272 
L 4684 1741 
L 678 1741 
L 678 2272 
z
" transform="scale(0.015625)"/>
        <path id="DejaVuSans-35" d="M 691 4666 
L 3169 4666 
L 3169 4134 
L 1269 4134 
L 1269 2991 
Q 1406 3038 1543 3061 
Q 1681 3084 1819 3084 
Q 2600 3084 3056 2656 
Q 3513 2228 3513 1497 
Q 3513 744 3044 326 
Q 2575 -91 1722 -91 
Q 1428 -91 1123 -41 
Q 819 9 494 109 
L 494 744 
Q 775 591 1075 516 
Q 1375 441 1709 441 
Q 2250 441 2565 725 
Q 2881 1009 2881 1497 
Q 2881 1984 2565 2268 
Q 2250 2553 1709 2553 
Q 1456 2553 1204 2497 
Q 953 2441 691 2322 
L 691 4666 
z
" transform="scale(0.015625)"/>
       </defs>
       <use xlink:href="#DejaVuSans-2212"/>
       <use xlink:href="#DejaVuSans-35" x="83.789062"/>
      </g>
     </g>
    </g>
    <g id="ytick_2">
     <g id="line2d_11">
      <g>
       <use xlink:href="#m9883398608" x="69.91" y="117.548" style="stroke: #000000; stroke-width: 0.8"/>
      </g>
     </g>
     <g id="text_2">
      <!-- 0 -->
      <g transform="translate(56.5475 121.347218)scale(0.1 -0.1)">
       <defs>
        <path id="DejaVuSans-30" d="M 2034 4250 
Q 1547 4250 1301 3770 
Q 1056 3291 1056 2328 
Q 1056 1369 1301 889 
Q 1547 409 2034 409 
Q 2525 409 2770 889 
Q 3016 1369 3016 2328 
Q 3016 3291 2770 3770 
Q 2525 4250 2034 4250 
z
M 2034 4750 
Q 2819 4750 3233 4129 
Q 3647 3509 3647 2328 
Q 3647 1150 3233 529 
Q 2819 -91 2034 -91 
Q 1250 -91 836 529 
Q 422 1150 422 2328 
Q 422 3509 836 4129 
Q 1250 4750 2034 4750 
z
" transform="scale(0.015625)"/>
       </defs>
       <use xlink:href="#DejaVuSans-30"/>
      </g>
     </g>
    </g>
    <g id="ytick_3">
     <g id="line2d_12">
      <g>
       <use xlink:href="#m9883398608" x="69.91" y="83.547178" style="stroke: #000000; stroke-width: 0.8"/>
      </g>
     </g>
     <g id="text_3">
      <!-- 5 -->
      <g transform="translate(56.5475 87.346396)scale(0.1 -0.1)">
       <use xlink:href="#DejaVuSans-35"/>
      </g>
     </g>
    </g>
   </g>
   <g id="line2d_13">
    <path d="M 98.968636 117.548 
L 122.231699 117.517467 
L 122.818419 117.394928 
L 123.397519 116.963457 
L 123.984239 115.843878 
L 124.563339 113.741268 
L 125.14244 111.013722 
L 125.729159 108.88459 
L 126.30826 108.612584 
L 126.88736 110.258223 
L 128.05318 114.64909 
L 128.63228 115.780637 
L 129.219 116.285889 
L 130.3772 116.589176 
L 133.28794 116.792501 
L 138.522701 116.887228 
L 140.854341 116.822422 
L 141.433441 116.72858 
L 142.012542 116.468133 
L 142.599261 115.851359 
L 144.344182 112.721243 
L 144.923282 113.089812 
L 146.668202 116.861183 
L 147.247302 117.337603 
L 147.834022 117.499446 
L 149.578942 117.547864 
L 164.704124 117.498902 
L 165.283224 117.336582 
L 165.869944 116.861863 
L 166.449044 115.868359 
L 167.614864 113.188414 
L 168.193964 112.879007 
L 168.773065 113.672586 
L 169.938885 116.041763 
L 170.517985 116.644938 
L 171.104705 116.904704 
L 172.270525 117.044991 
L 178.084386 117.093613 
L 178.663486 116.97937 
L 179.250206 116.545655 
L 179.829306 115.354947 
L 180.408406 113.02249 
L 182.153326 102.982047 
L 182.740046 100.323183 
L 183.319146 96.236284 
L 183.898246 88.742503 
L 185.064066 68.722819 
L 185.650786 65.669545 
L 186.229887 71.728492 
L 187.974807 108.102571 
L 188.553907 113.738547 
L 189.140627 116.128805 
L 189.719727 116.897156 
L 190.298827 117.083752 
L 192.043747 117.156786 
L 194.375387 117.132986 
L 198.444328 116.899468 
L 199.031048 116.691179 
L 199.610148 116.213127 
L 200.189248 115.344066 
L 200.775968 114.26148 
L 201.355068 113.491702 
L 201.934168 113.480141 
L 202.520888 114.149277 
L 203.099989 115.013578 
L 203.679089 115.662314 
L 204.265809 115.980562 
L 204.844909 116.010482 
L 205.424009 115.767717 
L 206.010729 115.235944 
L 206.589829 114.547767 
L 207.168929 114.100316 
L 207.755649 114.302281 
L 209.500569 116.949925 
L 210.079669 117.350183 
L 211.245489 117.538683 
L 219.97009 117.548 
L 239.171833 117.515767 
L 239.750933 117.397648 
L 240.330033 117.005006 
L 240.916753 116.017283 
L 241.495853 114.143837 
L 243.240773 106.40253 
L 243.819873 105.253302 
L 244.406593 105.117299 
L 244.985693 105.647712 
L 245.564794 106.613335 
L 246.151513 108.04137 
L 248.475534 115.713315 
L 249.062254 116.423932 
L 249.641354 116.711579 
L 250.807174 116.853023 
L 251.965374 116.838742 
L 252.552094 116.680979 
L 253.131194 116.230128 
L 253.710294 115.344746 
L 254.876115 113.125173 
L 255.455215 112.812365 
L 256.041935 113.244856 
L 256.621035 113.963633 
L 257.200135 114.481125 
L 257.786855 114.557967 
L 258.365955 114.136357 
L 259.531775 112.561439 
L 260.110875 112.371714 
L 260.697595 112.937488 
L 261.276695 113.84463 
L 261.855795 114.459365 
L 262.442515 114.398843 
L 263.600716 112.973529 
L 264.187435 112.734163 
L 264.766536 113.238735 
L 265.932356 114.927896 
L 266.511456 115.356307 
L 267.090556 115.416148 
L 267.677276 115.180182 
L 269.422196 113.978593 
L 270.001296 113.726987 
L 270.588016 113.316257 
L 271.167116 112.407755 
L 272.332936 109.421803 
L 272.912037 108.986593 
L 273.491137 110.244623 
L 274.656957 115.015618 
L 275.236057 116.541575 
L 275.822777 117.241856 
L 276.401877 117.472926 
L 276.980977 117.509511 
L 277.567697 117.429133 
L 278.146797 117.148694 
L 278.725897 116.517775 
L 279.891717 114.501526 
L 280.470818 113.982673 
L 281.057537 114.215239 
L 282.215738 115.637833 
L 282.802458 116.095484 
L 283.381558 116.269569 
L 283.968278 116.140366 
L 284.547378 115.50251 
L 285.126478 113.962953 
L 285.713198 111.191886 
L 286.871398 102.65564 
L 287.458118 97.480714 
L 288.616318 83.798784 
L 289.203038 77.331827 
L 289.782139 75.502583 
L 290.361239 80.079094 
L 291.527059 95.692271 
L 292.106159 98.54154 
L 292.692879 97.684719 
L 293.271979 95.801074 
L 293.851079 94.631446 
L 294.437799 94.352639 
L 295.016899 94.985054 
L 295.603619 97.154307 
L 296.182719 101.193604 
L 297.348539 110.94912 
L 297.927639 114.127517 
L 298.50674 115.756836 
L 299.093459 116.377011 
L 299.67256 116.559256 
L 301.41748 116.660578 
L 305.48642 116.677579 
L 306.65224 116.690499 
L 307.231341 116.533415 
L 307.818061 116.196127 
L 308.397161 115.572552 
L 308.983881 114.524647 
L 310.728801 110.278624 
L 311.307901 109.469404 
L 312.473721 108.571783 
L 313.052821 108.320177 
L 313.631921 108.224974 
L 314.218641 108.299776 
L 315.376842 108.782588 
L 315.963561 108.666985 
L 316.542662 107.898566 
L 317.708482 105.124099 
L 318.287582 104.212877 
L 318.866682 104.369281 
L 319.453402 105.647712 
L 321.198322 111.085803 
L 321.777422 112.268352 
L 322.364142 113.143533 
L 322.943242 113.771188 
L 323.522342 114.135677 
L 324.109062 114.214559 
L 324.688163 113.993554 
L 325.267263 113.402619 
L 326.433083 111.421051 
L 327.012183 110.96136 
L 327.598903 111.35577 
L 328.178003 112.224151 
L 328.757103 112.880367 
L 329.343823 112.970809 
L 331.088743 111.880063 
L 331.667843 111.76446 
L 333.412764 111.875982 
L 333.999483 111.688978 
L 334.578584 111.277568 
L 335.744404 109.918215 
L 336.902604 108.258975 
L 337.489324 108.082171 
L 338.068424 108.700986 
L 339.234244 110.809717 
L 339.813344 111.268048 
L 340.392444 111.088523 
L 341.558265 110.13582 
L 342.137365 110.10182 
L 342.724085 110.435028 
L 345.048105 112.330233 
L 348.537945 113.932352 
L 349.124665 114.104396 
L 349.703765 114.118677 
L 350.282866 113.871151 
L 350.869585 113.345498 
L 353.193606 110.51663 
L 354.359426 109.238199 
L 355.517626 107.585759 
L 356.104346 107.109747 
L 356.683446 107.164149 
L 357.270166 107.708162 
L 358.428366 109.3062 
L 359.594187 110.305825 
L 361.339107 111.903183 
L 361.918207 111.994985 
L 362.504927 111.639337 
L 363.663127 110.401027 
L 364.249847 109.673409 
L 365.994767 106.79694 
L 366.573867 106.443331 
L 367.152968 106.667737 
L 368.318788 107.64016 
L 369.484608 107.932567 
L 370.063708 108.592183 
L 371.808628 112.666162 
L 372.395348 113.110212 
L 372.974448 112.987809 
L 374.140268 112.18811 
L 374.719368 111.656337 
L 375.298468 110.864798 
L 376.464289 108.850589 
L 377.043389 108.313376 
L 378.209209 107.959768 
L 378.788309 107.327353 
L 379.375029 106.504533 
L 379.954129 106.035321 
L 380.533229 106.144124 
L 381.699049 107.22535 
L 384.609789 109.795812 
L 385.18889 110.054218 
L 385.775609 109.884214 
L 387.52053 108.116172 
L 388.09963 107.918967 
L 388.67873 108.05497 
L 390.42365 109.081795 
L 391.58947 109.2722 
L 393.334391 109.897815 
L 395.079311 109.374202 
L 395.666031 109.129396 
L 396.245131 108.388178 
L 398.569151 103.369657 
L 399.734971 101.744418 
L 400.314071 101.227605 
L 400.900791 101.200404 
L 401.479891 101.751218 
L 402.058992 102.757642 
L 403.224812 105.260103 
L 403.803912 106.110123 
L 404.390632 106.225726 
L 404.969732 105.55931 
L 405.556452 104.525685 
L 406.135552 103.798067 
L 406.714652 103.825268 
L 407.301372 104.593686 
L 409.046292 107.925767 
L 409.625392 108.333777 
L 410.204492 108.218174 
L 410.791212 107.714962 
L 411.949413 106.38213 
L 412.536133 105.946919 
L 413.115233 105.946919 
L 413.694333 106.422931 
L 414.281053 107.082547 
L 414.860153 107.504157 
L 415.439253 107.388554 
L 416.025973 106.708538 
L 416.605073 105.532109 
L 417.770893 102.315631 
L 418.349993 101.227605 
L 418.936713 101.159603 
L 419.515813 101.975623 
L 420.094914 103.07045 
L 420.681634 103.90007 
L 421.839834 104.858893 
L 422.426554 105.192101 
L 423.005654 105.294103 
L 423.584754 105.239702 
L 424.171474 105.328104 
L 425.329674 106.103323 
L 425.916394 106.225726 
L 426.495494 105.953719 
L 427.074594 105.402906 
L 427.661314 104.559686 
L 428.819515 102.138827 
L 429.406235 101.42481 
L 429.985335 101.526812 
L 431.151155 102.567237 
L 431.730255 102.859645 
L 432.316975 103.016048 
L 432.896075 102.927646 
L 433.475175 102.329232 
L 434.640995 100.323183 
L 435.220095 100.057977 
L 437.551735 101.669616 
L 439.296656 104.110875 
L 439.875756 103.90687 
L 441.041576 102.444834 
L 441.620676 102.172828 
L 442.199776 102.492436 
L 443.365596 104.212877 
L 443.952316 105.022097 
L 444.531416 105.606911 
L 445.697236 106.266527 
L 446.276337 106.38893 
L 446.855437 106.266527 
L 447.442157 105.838117 
L 449.187077 103.696065 
L 449.766177 103.607663 
L 450.931997 104.178876 
L 451.511097 104.056473 
L 452.090197 103.478459 
L 454.421837 100.486387 
L 455.000938 99.894773 
L 455.587658 99.75877 
L 456.166758 100.098778 
L 458.490778 102.302031 
L 459.656598 102.805243 
L 460.822418 103.186052 
L 461.980618 103.308455 
L 463.725539 103.356057 
L 466.057179 104.056473 
L 466.636279 103.777667 
L 467.222999 103.118051 
L 468.381199 101.207205 
L 468.967919 100.669992 
L 469.547019 100.724393 
L 470.126119 101.309207 
L 471.87104 104.348881 
L 472.45776 104.920094 
L 473.03686 105.117299 
L 474.78178 105.130899 
L 475.36088 104.960895 
L 476.5267 104.212877 
L 477.1058 104.070074 
L 478.85072 104.274079 
L 480.016541 104.036073 
L 480.60326 104.029273 
L 481.182361 103.90687 
L 481.761461 103.424058 
L 482.927281 101.866821 
L 483.506381 101.554013 
L 484.093101 101.86002 
L 485.838021 104.110875 
L 486.417121 104.478084 
L 486.996221 104.552885 
L 487.582941 104.444083 
L 488.162041 104.199277 
L 488.741142 103.791267 
L 490.486062 102.213629 
L 491.072782 101.989223 
L 491.651882 102.043625 
L 492.238602 102.349632 
L 493.983522 104.036073 
L 494.562622 104.246878 
L 495.141722 104.002072 
L 496.307542 102.812043 
L 496.886642 102.533237 
L 497.473362 102.67604 
L 498.052463 102.961647 
L 498.631563 102.995648 
L 499.218283 102.533237 
L 500.376483 100.867196 
L 500.963203 100.561189 
L 501.542303 100.860396 
L 502.121403 101.404409 
L 502.708123 101.751218 
L 503.287223 101.730817 
L 503.873943 101.377209 
L 505.032143 100.153179 
L 506.197963 98.725145 
L 506.777064 98.187932 
L 507.363784 98.017927 
L 507.942884 98.371536 
L 509.687804 100.873997 
L 510.266904 101.336408 
L 510.853624 101.540413 
L 512.011824 101.730817 
L 513.756744 102.574038 
L 514.343464 102.567237 
L 514.922565 102.342832 
L 515.501665 102.24763 
L 516.088385 102.587638 
L 518.412405 105.423306 
L 518.999125 105.695313 
L 519.578225 105.634112 
L 520.157325 105.1513 
L 521.902245 102.757642 
L 523.068065 101.866821 
L 524.233885 100.574789 
L 524.812986 100.18718 
L 525.392086 100.037576 
L 525.978806 99.745169 
L 527.723726 97.671119 
L 528.302826 97.773122 
L 529.468646 98.473538 
L 530.634466 99.024352 
L 531.213566 99.452762 
L 531.792667 100.119178 
L 532.379386 101.146003 
L 532.958487 102.383633 
L 533.537587 103.342456 
L 534.124307 103.594062 
L 534.703407 103.08405 
L 535.869227 101.390809 
L 536.448327 101.0168 
L 537.614147 101.084802 
L 538.193247 101.091602 
L 538.772347 100.901197 
L 539.359067 100.316383 
L 539.938167 99.139955 
L 541.103987 96.277085 
L 541.683088 95.984678 
L 542.269808 96.916301 
L 543.428008 100.370784 
L 544.014728 101.479211 
L 544.593828 101.703617 
L 545.172928 101.220805 
L 546.338748 99.486763 
L 546.917848 98.95635 
L 547.504568 98.929149 
L 548.083668 99.36436 
L 549.828589 101.812419 
L 550.407689 101.86002 
L 550.994409 101.282006 
L 551.573509 100.554389 
L 552.152609 100.085177 
L 552.739329 99.874372 
L 553.318429 99.547964 
L 553.905149 98.752345 
L 555.063349 96.406288 
L 555.650069 95.964278 
L 556.229169 96.317886 
L 556.808269 96.957102 
L 557.394989 97.28351 
L 557.974089 97.147506 
L 558.55319 96.855099 
L 559.13991 96.834699 
L 559.71901 97.263109 
L 560.88483 98.55514 
L 561.46393 98.786346 
L 562.04303 98.629942 
L 563.20885 97.949926 
L 563.78795 97.439913 
L 564.37467 96.569492 
L 565.54049 94.427441 
L 566.11959 93.842627 
L 566.698691 93.733824 
L 567.28541 94.012631 
L 568.443611 95.270661 
L 569.609431 96.630694 
L 570.775251 98.473538 
L 571.354351 99.051552 
L 571.933451 98.901949 
L 573.678371 96.535492 
L 574.265091 96.256685 
L 574.844191 96.304286 
L 576.589112 97.167907 
L 577.754932 97.385512 
L 578.334032 97.70512 
L 579.499852 98.623142 
L 580.078952 98.772746 
L 580.665672 98.575541 
L 582.410592 97.28351 
L 582.989692 97.385512 
L 585.900433 99.622766 
L 586.479533 99.847172 
L 587.058633 99.853972 
L 588.224453 99.214756 
L 588.803553 99.194356 
L 589.390273 99.745169 
L 590.556093 101.458811 
L 591.135193 101.86002 
L 591.714293 101.669616 
L 592.301013 100.785594 
L 593.459214 98.160731 
L 594.045934 97.514715 
L 594.625034 97.514715 
L 597.535774 98.670743 
L 598.114874 98.691144 
L 599.859794 98.10633 
L 600.438894 98.160731 
L 601.604715 98.772746 
L 603.936355 100.363984 
L 604.515455 100.561189 
L 605.094555 100.561189 
L 605.681275 100.323183 
L 606.260375 99.833571 
L 608.584395 97.120306 
L 609.171115 96.977502 
L 609.750215 97.596317 
L 610.916036 99.955974 
L 611.495136 100.350384 
L 612.074236 99.847172 
L 613.240056 97.637118 
L 613.819156 96.977502 
L 614.405876 97.072705 
L 614.984976 97.813923 
L 616.150796 99.643167 
L 617.316616 100.724393 
L 617.895716 101.044001 
L 618.474817 101.057601 
L 619.640637 100.493187 
L 620.219737 100.812795 
L 621.385557 102.893645 
L 623.130477 105.634112 
L 624.296297 108.578583 
L 625.454497 111.427852 
L 626.041217 112.292833 
L 626.620317 112.840246 
L 627.786137 113.463141 
L 630.696878 114.740212 
L 631.275978 114.562047 
L 633.599998 113.203375 
L 634.186718 113.101372 
L 634.765818 113.199974 
L 635.344918 113.525022 
L 636.510739 114.419244 
L 637.089839 114.68173 
L 638.255659 114.757212 
L 640.000579 114.65249 
L 640.587299 114.439644 
L 641.166399 114.047955 
L 642.332219 112.951088 
L 642.911319 112.767484 
L 643.490419 113.210855 
L 645.23534 116.230808 
L 645.82206 116.74218 
L 646.40116 116.985626 
L 647.56698 117.131082 
L 649.3119 117.006502 
L 652.22264 116.709539 
L 653.380841 117.092729 
L 654.546661 117.456265 
L 656.291581 117.546912 
L 680.141364 117.548 
L 680.141364 117.548 
" clip-path="url(#p4db29ba3d0)" style="fill: none; stroke: #006400; stroke-linecap: square"/>
   </g>
   <g id="line2d_14">
    <path d="M 69.91 117.548 
L 709.2 117.548 
" clip-path="url(#p4db29ba3d0)" style="fill: none; stroke-dasharray: 5.55,2.4; stroke-dashoffset: 0; stroke: #000000; stroke-opacity: 0.3; stroke-width: 1.5"/>
   </g>
   <g id="line2d_15">
    <path d="M 98.968636 117.548 
L 122.231699 117.576832 
L 122.818419 117.693659 
L 123.397519 118.109285 
L 123.984239 119.19976 
L 124.563339 121.26973 
L 125.14244 123.991835 
L 125.729159 126.163808 
L 126.30826 126.503816 
L 126.88736 124.912578 
L 128.05318 120.499271 
L 128.63228 119.341203 
L 129.219 118.82099 
L 130.3772 118.509543 
L 133.28794 118.304178 
L 138.522701 118.2085 
L 140.854341 118.271537 
L 141.433441 118.360619 
L 142.012542 118.610865 
L 142.599261 119.2086 
L 144.344182 122.363196 
L 144.923282 122.044948 
L 146.668202 118.265417 
L 147.247302 117.770365 
L 147.834022 117.599953 
L 149.578942 117.548136 
L 164.704124 117.596077 
L 165.283224 117.755813 
L 165.869944 118.225024 
L 166.449044 119.21132 
L 167.614864 121.896025 
L 168.193964 122.220393 
L 168.773065 121.438374 
L 169.938885 119.065116 
L 170.517985 118.455822 
L 171.104705 118.193267 
L 172.270525 118.051144 
L 178.084386 118.001775 
L 178.663486 118.114725 
L 179.250206 118.542864 
L 179.829306 119.722692 
L 180.408406 122.040868 
L 182.153326 132.073151 
L 182.740046 134.725215 
L 183.319146 138.771313 
L 183.898246 146.210692 
L 185.064066 166.277978 
L 185.650786 169.460455 
L 186.229887 163.523911 
L 187.974807 127.09543 
L 188.553907 121.402333 
L 189.140627 118.982154 
L 189.719727 118.202379 
L 190.298827 118.012927 
L 192.043747 117.938601 
L 194.375387 117.96281 
L 198.444328 118.192587 
L 199.031048 118.39598 
L 199.610148 118.863151 
L 200.189248 119.721332 
L 200.775968 120.803918 
L 201.355068 121.591377 
L 201.934168 121.627418 
L 202.520888 120.971882 
L 203.099989 120.106221 
L 203.679089 119.448646 
L 204.265809 119.120878 
L 204.844909 119.083477 
L 205.424009 119.318762 
L 206.010729 119.843735 
L 206.589829 120.531232 
L 207.168929 120.990923 
L 207.755649 120.808678 
L 208.334749 119.978378 
L 208.913849 118.945433 
L 209.500569 118.161442 
L 210.079669 117.752345 
L 211.245489 117.557792 
L 219.39099 117.548 
L 239.171833 117.577852 
L 239.750933 117.689035 
L 240.330033 118.063248 
L 240.916753 119.016835 
L 241.495853 120.851519 
L 243.240773 128.666268 
L 243.819873 129.869897 
L 244.406593 130.039902 
L 244.985693 129.502689 
L 245.564794 128.530265 
L 246.151513 127.102231 
L 247.317333 122.859608 
L 247.896434 120.805278 
L 248.475534 119.405124 
L 249.062254 118.681587 
L 249.641354 118.38782 
L 250.807174 118.243656 
L 251.965374 118.251817 
L 252.552094 118.39394 
L 253.131194 118.81623 
L 253.710294 119.667611 
L 254.876115 121.912345 
L 255.455215 122.289754 
L 256.041935 121.902145 
L 257.200135 120.641394 
L 257.786855 120.526472 
L 258.365955 120.911361 
L 259.531775 122.491039 
L 260.110875 122.739925 
L 260.697595 122.225833 
L 261.276695 121.328211 
L 261.855795 120.685595 
L 262.442515 120.709396 
L 263.600716 122.11227 
L 264.187435 122.367276 
L 264.766536 121.876984 
L 265.932356 120.183743 
L 266.511456 119.745813 
L 267.090556 119.677131 
L 267.677276 119.906977 
L 269.422196 121.107206 
L 270.001296 121.351332 
L 270.588016 121.739621 
L 271.167116 122.609362 
L 272.332936 125.592594 
L 272.912037 126.123007 
L 273.491137 124.960179 
L 274.656957 120.190543 
L 275.236057 118.611545 
L 275.822777 117.875019 
L 276.401877 117.624569 
L 277.567697 117.549836 
L 282.215738 117.638102 
L 282.802458 117.870803 
L 283.381558 118.423861 
L 285.126478 121.024924 
L 285.713198 120.907961 
L 287.458118 119.033836 
L 288.037218 118.966514 
L 288.616318 119.337803 
L 289.782139 120.907961 
L 290.361239 121.30645 
L 290.947959 121.043284 
L 292.106159 119.655371 
L 292.692879 119.196359 
L 293.271979 118.955634 
L 294.437799 118.774749 
L 297.927639 118.640786 
L 299.67256 118.655746 
L 300.83838 118.845471 
L 301.41748 119.165079 
L 301.99658 119.862096 
L 303.1624 122.012988 
L 303.7415 122.667843 
L 304.32822 122.94325 
L 304.90732 123.530784 
L 305.48642 125.048581 
L 306.65224 129.203481 
L 307.231341 130.345909 
L 307.818061 131.148328 
L 308.397161 132.46756 
L 308.983881 134.310405 
L 309.562981 135.595636 
L 310.142081 135.432432 
L 310.728801 134.269604 
L 311.307901 133.473985 
L 311.887001 133.929596 
L 312.473721 135.439232 
L 313.052821 137.492882 
L 313.631921 140.097345 
L 314.797741 146.92471 
L 315.376842 149.318368 
L 315.963561 149.678776 
L 317.121762 147.706729 
L 318.287582 148.033137 
L 318.866682 146.285494 
L 321.198322 131.019125 
L 322.364142 126.415414 
L 323.522342 123.314539 
L 324.109062 122.138111 
L 324.688163 121.349971 
L 325.267263 121.247289 
L 325.853983 121.855224 
L 326.433083 122.731085 
L 327.012183 123.203696 
L 327.598903 122.92965 
L 328.178003 122.221753 
L 328.757103 121.781102 
L 329.343823 122.157151 
L 329.922923 123.35874 
L 330.502023 124.817375 
L 331.088743 125.810199 
L 331.667843 126.041405 
L 332.254563 125.762598 
L 333.412764 124.939778 
L 333.999483 124.647371 
L 334.578584 124.484167 
L 335.157684 124.538569 
L 335.744404 124.99418 
L 336.902604 126.803023 
L 337.489324 127.027429 
L 338.068424 126.361013 
L 339.234244 124.242081 
L 340.979164 121.645099 
L 341.558265 121.098365 
L 342.137365 120.831799 
L 342.724085 120.838599 
L 343.303185 121.316651 
L 343.882285 122.499879 
L 345.048105 125.599394 
L 345.634825 126.048205 
L 346.213925 125.510992 
L 347.379745 123.742269 
L 347.958845 123.257418 
L 349.124665 122.732445 
L 349.703765 122.558361 
L 350.282866 122.550201 
L 350.869585 122.750805 
L 352.027786 123.590626 
L 353.193606 124.565769 
L 354.359426 125.347788 
L 356.104346 126.837024 
L 356.683446 126.877825 
L 358.428366 126.286211 
L 359.015086 126.299811 
L 359.594187 126.191009 
L 360.173287 125.721797 
L 361.918207 123.009212 
L 362.504927 122.571281 
L 363.084027 122.625002 
L 363.663127 123.083333 
L 364.828947 124.708573 
L 365.994767 126.435814 
L 367.152968 127.700645 
L 368.905508 129.230682 
L 369.484608 129.278283 
L 370.063708 128.598267 
L 370.650428 127.224634 
L 371.808628 124.033316 
L 372.395348 122.841928 
L 372.974448 122.078269 
L 373.553548 121.786542 
L 374.140268 121.908945 
L 375.298468 122.53252 
L 377.043389 122.982691 
L 377.630109 123.611026 
L 378.209209 124.674572 
L 379.375029 127.367437 
L 379.954129 128.271859 
L 380.533229 128.707069 
L 382.285769 129.346285 
L 382.864869 129.359885 
L 383.443969 129.026677 
L 384.030689 128.285459 
L 385.18889 126.463015 
L 385.775609 126.068606 
L 386.35471 126.102606 
L 389.26545 127.190633 
L 389.84455 127.238234 
L 391.01037 126.775823 
L 392.16857 126.034605 
L 393.334391 125.164184 
L 393.92111 124.980579 
L 394.500211 124.99418 
L 395.079311 125.198185 
L 395.666031 125.721797 
L 397.410951 128.387462 
L 398.569151 128.877073 
L 399.155871 129.536689 
L 400.314071 131.467936 
L 400.900791 131.692342 
L 401.479891 131.243531 
L 402.058992 130.549914 
L 402.645711 130.094303 
L 403.803912 129.767895 
L 405.556452 128.836272 
L 407.301372 128.543865 
L 409.625392 127.49664 
L 410.204492 127.523841 
L 410.791212 128.081454 
L 412.536133 131.291132 
L 413.115233 131.62434 
L 413.694333 131.678741 
L 414.281053 131.862346 
L 414.860153 132.202354 
L 415.439253 132.358758 
L 416.025973 132.120752 
L 416.605073 131.753543 
L 417.184173 131.692342 
L 417.770893 132.03235 
L 418.936713 132.963972 
L 419.515813 133.222379 
L 420.094914 133.052374 
L 420.681634 132.209154 
L 421.839834 129.455087 
L 422.426554 128.564266 
L 423.005654 128.31266 
L 423.584754 128.550666 
L 424.750574 129.305484 
L 425.916394 130.073902 
L 426.495494 130.563514 
L 427.074594 130.685917 
L 427.661314 130.237106 
L 428.819515 129.033477 
L 429.406235 128.795471 
L 429.985335 128.836272 
L 430.572055 129.373485 
L 431.151155 130.638316 
L 432.316975 133.956796 
L 432.896075 134.827217 
L 433.475175 134.997221 
L 434.640995 134.657213 
L 435.220095 134.385207 
L 435.806815 133.841193 
L 436.965016 132.426759 
L 438.130836 131.481536 
L 438.709936 131.134728 
L 439.296656 131.039526 
L 440.454856 131.420335 
L 441.041576 131.379534 
L 442.199776 131.012325 
L 442.786496 131.161929 
L 443.365596 131.590339 
L 445.110517 133.453584 
L 445.697236 133.331181 
L 446.276337 132.562763 
L 447.442157 130.209906 
L 448.021257 129.373485 
L 448.600357 129.210282 
L 449.187077 129.740694 
L 449.766177 130.590715 
L 450.345277 131.22313 
L 450.931997 131.331933 
L 452.090197 130.849121 
L 452.676917 131.161929 
L 453.256017 132.079951 
L 454.421837 134.51441 
L 455.000938 135.289628 
L 455.587658 135.514034 
L 456.166758 135.255628 
L 457.332578 133.970397 
L 457.911678 133.317581 
L 458.490778 132.86877 
L 459.077498 132.719166 
L 460.235698 132.984373 
L 460.822418 132.88237 
L 461.401518 132.358758 
L 462.567338 130.81512 
L 463.146439 130.413911 
L 463.725539 130.447911 
L 464.891359 131.243531 
L 466.057179 131.937147 
L 468.381199 132.773568 
L 469.547019 133.786792 
L 470.126119 133.949996 
L 470.712839 133.739191 
L 471.291939 133.195178 
L 473.03686 130.665517 
L 473.61596 130.305108 
L 474.78178 130.196305 
L 475.9476 129.611491 
L 476.5267 129.55029 
L 477.1058 129.883498 
L 478.85072 131.393134 
L 479.43744 131.658341 
L 480.016541 131.671941 
L 480.60326 131.338733 
L 481.182361 130.855921 
L 481.761461 130.740319 
L 482.348181 131.372734 
L 483.506381 133.786792 
L 484.093101 134.215203 
L 484.672201 133.759591 
L 485.838021 131.875946 
L 486.417121 131.21633 
L 486.996221 130.903522 
L 487.582941 130.869522 
L 488.741142 131.236731 
L 492.238602 132.576363 
L 492.817702 132.528762 
L 493.396802 132.243155 
L 495.141722 130.713118 
L 495.728442 130.679117 
L 497.473362 131.909947 
L 498.052463 132.02555 
L 498.631563 132.311156 
L 499.218283 133.052374 
L 499.797383 134.072399 
L 500.376483 134.806817 
L 500.963203 134.813617 
L 501.542303 134.038398 
L 502.708123 131.705942 
L 503.287223 131.250331 
L 503.873943 131.760343 
L 504.453043 133.093175 
L 505.032143 134.752415 
L 505.618863 136.024046 
L 506.197963 136.336854 
L 506.777064 135.677238 
L 507.363784 134.636813 
L 507.942884 133.895595 
L 508.521984 133.657589 
L 509.108704 133.616788 
L 509.687804 133.433184 
L 511.432724 132.107152 
L 512.011824 132.05275 
L 512.598544 132.481161 
L 514.343464 135.099224 
L 514.922565 135.561635 
L 515.501665 135.833642 
L 516.088385 135.894843 
L 516.667485 135.466433 
L 517.254205 134.364806 
L 518.412405 131.338733 
L 518.999125 130.284707 
L 519.578225 129.774695 
L 522.488965 129.12868 
L 523.068065 129.400686 
L 523.647166 129.937899 
L 524.233885 130.706318 
L 524.812986 131.807944 
L 525.978806 134.997221 
L 527.137006 138.213699 
L 527.723726 139.138522 
L 528.302826 139.281325 
L 528.889546 138.798513 
L 530.047746 137.594884 
L 531.213566 136.976069 
L 531.792667 136.472857 
L 532.379386 135.548035 
L 533.537587 132.936772 
L 534.124307 132.005149 
L 534.703407 131.699142 
L 535.282507 131.943948 
L 536.448327 132.834769 
L 537.614147 133.242779 
L 539.359067 133.630388 
L 539.938167 134.038398 
L 540.517268 134.94962 
L 542.269808 139.247324 
L 542.848908 139.328926 
L 543.428008 138.295301 
L 544.593828 135.078823 
L 545.172928 134.215203 
L 545.759648 134.147201 
L 546.338748 134.555211 
L 548.083668 136.214451 
L 548.662768 136.302853 
L 549.249488 135.75204 
L 550.407689 133.902395 
L 550.994409 133.487585 
L 551.573509 133.603188 
L 552.739329 134.548411 
L 553.905149 134.94962 
L 554.484249 135.466433 
L 556.229169 138.757712 
L 556.808269 138.689711 
L 557.974089 137.146073 
L 558.55319 136.846866 
L 559.13991 137.037271 
L 560.88483 138.111697 
L 561.46393 138.098096 
L 562.62975 137.254876 
L 563.20885 137.268476 
L 563.78795 138.084496 
L 564.95377 140.505355 
L 565.54049 141.001767 
L 566.11959 140.954165 
L 567.28541 140.457753 
L 568.443611 140.32175 
L 569.030331 139.974942 
L 570.188531 138.492506 
L 571.933451 135.881243 
L 572.520171 135.568435 
L 573.099271 135.847242 
L 574.844191 137.82609 
L 575.423292 137.928092 
L 576.010011 137.737688 
L 576.589112 137.669686 
L 577.168212 137.962093 
L 577.754932 138.397304 
L 578.334032 138.553707 
L 578.920752 138.281701 
L 581.244772 136.098848 
L 581.823872 136.200851 
L 582.989692 137.397679 
L 583.568793 137.588084 
L 584.155512 137.248076 
L 584.734613 136.751664 
L 585.313713 136.534059 
L 587.058633 136.942068 
L 587.645353 136.466057 
L 588.224453 135.78604 
L 588.803553 135.384831 
L 589.969373 135.507234 
L 590.556093 135.126425 
L 592.301013 132.521962 
L 592.880113 132.657965 
L 593.459214 133.528386 
L 595.204134 137.261676 
L 595.790854 138.002894 
L 596.369954 138.404104 
L 596.949054 138.404104 
L 597.535774 137.900892 
L 598.693974 136.214451 
L 599.280694 135.894843 
L 599.859794 136.153249 
L 601.025614 137.166474 
L 601.604715 137.336478 
L 602.191434 137.139273 
L 603.936355 135.745239 
L 605.094555 135.112824 
L 606.260375 134.371606 
L 606.839475 134.317205 
L 607.426195 134.582411 
L 609.171115 135.690838 
L 610.916036 137.581284 
L 611.495136 137.390879 
L 612.660956 136.200851 
L 613.240056 136.024046 
L 613.819156 136.357254 
L 614.984976 137.622085 
L 615.571696 137.635685 
L 617.316616 135.928844 
L 620.219737 134.92242 
L 620.806457 134.398807 
L 621.964657 132.807568 
L 623.709577 130.121504 
L 624.875397 127.92505 
L 627.207037 123.088774 
L 627.786137 122.452958 
L 630.696878 120.701916 
L 631.275978 120.608074 
L 631.855078 120.737957 
L 633.599998 121.450614 
L 634.765818 121.583217 
L 635.931638 121.498215 
L 637.089839 121.109246 
L 638.255659 120.44283 
L 638.834759 120.277586 
L 640.000579 120.315666 
L 641.745499 120.624394 
L 643.490419 121.125566 
L 644.077139 120.937882 
L 645.23534 119.817214 
L 646.40116 118.79175 
L 646.98026 118.509543 
L 647.56698 118.38918 
L 648.14608 118.449021 
L 648.72518 118.704708 
L 649.891 119.518007 
L 650.4701 119.697532 
L 651.05682 119.518687 
L 652.22264 118.693827 
L 652.80174 118.470102 
L 653.96756 118.247737 
L 655.712481 117.676523 
L 656.870681 117.559492 
L 664.437082 117.548 
L 680.141364 117.548 
L 680.141364 117.548 
" clip-path="url(#p4db29ba3d0)" style="fill: none; stroke: #006400; stroke-linecap: square"/>
   </g>
   <g id="patch_3">
    <path d="M 69.91 174.65 
L 69.91 60.48 
" style="fill: none; stroke: #000000; stroke-width: 0.8; stroke-linejoin: miter; stroke-linecap: square"/>
   </g>
   <g id="patch_4">
    <path d="M 709.2 174.65 
L 709.2 60.48 
" style="fill: none; stroke: #000000; stroke-width: 0.8; stroke-linejoin: miter; stroke-linecap: square"/>
   </g>
   <g id="patch_5">
    <path d="M 69.91 174.65 
L 709.2 174.65 
" style="fill: none; stroke: #000000; stroke-width: 0.8; stroke-linejoin: miter; stroke-linecap: square"/>
   </g>
   <g id="patch_6">
    <path d="M 69.91 60.48 
L 709.2 60.48 
" style="fill: none; stroke: #000000; stroke-width: 0.8; stroke-linejoin: miter; stroke-linecap: square"/>
   </g>
   <g id="legend_1">
    <g id="patch_7">
     <path d="M 76.91 97.83625 
L 167.099063 97.83625 
Q 169.099063 97.83625 169.099063 95.83625 
L 169.099063 67.48 
Q 169.099063 65.48 167.099063 65.48 
L 76.91 65.48 
Q 74.91 65.48 74.91 67.48 
L 74.91 95.83625 
Q 74.91 97.83625 76.91 97.83625 
z
" style="fill: #ffffff; opacity: 0.8; stroke: #cccccc; stroke-linejoin: miter"/>
    </g>
    <g id="line2d_16">
     <path d="M 78.91 73.578438 
L 88.91 73.578438 
L 98.91 73.578438 
" style="fill: none; stroke: #006400; stroke-linecap: square"/>
    </g>
    <g id="text_4">
     <!-- up TDOS -->
     <g transform="translate(106.91 77.078438)scale(0.1 -0.1)">
      <defs>
       <path id="DejaVuSans-75" d="M 544 1381 
L 544 3500 
L 1119 3500 
L 1119 1403 
Q 1119 906 1312 657 
Q 1506 409 1894 409 
Q 2359 409 2629 706 
Q 2900 1003 2900 1516 
L 2900 3500 
L 3475 3500 
L 3475 0 
L 2900 0 
L 2900 538 
Q 2691 219 2414 64 
Q 2138 -91 1772 -91 
Q 1169 -91 856 284 
Q 544 659 544 1381 
z
M 1991 3584 
L 1991 3584 
z
" transform="scale(0.015625)"/>
       <path id="DejaVuSans-70" d="M 1159 525 
L 1159 -1331 
L 581 -1331 
L 581 3500 
L 1159 3500 
L 1159 2969 
Q 1341 3281 1617 3432 
Q 1894 3584 2278 3584 
Q 2916 3584 3314 3078 
Q 3713 2572 3713 1747 
Q 3713 922 3314 415 
Q 2916 -91 2278 -91 
Q 1894 -91 1617 61 
Q 1341 213 1159 525 
z
M 3116 1747 
Q 3116 2381 2855 2742 
Q 2594 3103 2138 3103 
Q 1681 3103 1420 2742 
Q 1159 2381 1159 1747 
Q 1159 1113 1420 752 
Q 1681 391 2138 391 
Q 2594 391 2855 752 
Q 3116 1113 3116 1747 
z
" transform="scale(0.015625)"/>
       <path id="DejaVuSans-20" transform="scale(0.015625)"/>
       <path id="DejaVuSans-54" d="M -19 4666 
L 3928 4666 
L 3928 4134 
L 2272 4134 
L 2272 0 
L 1638 0 
L 1638 4134 
L -19 4134 
L -19 4666 
z
" transform="scale(0.015625)"/>
       <path id="DejaVuSans-44" d="M 1259 4147 
L 1259 519 
L 2022 519 
Q 2988 519 3436 956 
Q 3884 1394 3884 2338 
Q 3884 3275 3436 3711 
Q 2988 4147 2022 4147 
L 1259 4147 
z
M 628 4666 
L 1925 4666 
Q 3281 4666 3915 4102 
Q 4550 3538 4550 2338 
Q 4550 1131 3912 565 
Q 3275 0 1925 0 
L 628 0 
L 628 4666 
z
" transform="scale(0.015625)"/>
       <path id="DejaVuSans-4f" d="M 2522 4238 
Q 1834 4238 1429 3725 
Q 1025 3213 1025 2328 
Q 1025 1447 1429 934 
Q 1834 422 2522 422 
Q 3209 422 3611 934 
Q 4013 1447 4013 2328 
Q 4013 3213 3611 3725 
Q 3209 4238 2522 4238 
z
M 2522 4750 
Q 3503 4750 4090 4092 
Q 4678 3434 4678 2328 
Q 4678 1225 4090 567 
Q 3503 -91 2522 -91 
Q 1538 -91 948 565 
Q 359 1222 359 2328 
Q 359 3434 948 4092 
Q 1538 4750 2522 4750 
z
" transform="scale(0.015625)"/>
       <path id="DejaVuSans-53" d="M 3425 4513 
L 3425 3897 
Q 3066 4069 2747 4153 
Q 2428 4238 2131 4238 
Q 1616 4238 1336 4038 
Q 1056 3838 1056 3469 
Q 1056 3159 1242 3001 
Q 1428 2844 1947 2747 
L 2328 2669 
Q 3034 2534 3370 2195 
Q 3706 1856 3706 1288 
Q 3706 609 3251 259 
Q 2797 -91 1919 -91 
Q 1588 -91 1214 -16 
Q 841 59 441 206 
L 441 856 
Q 825 641 1194 531 
Q 1563 422 1919 422 
Q 2459 422 2753 634 
Q 3047 847 3047 1241 
Q 3047 1584 2836 1778 
Q 2625 1972 2144 2069 
L 1759 2144 
Q 1053 2284 737 2584 
Q 422 2884 422 3419 
Q 422 4038 858 4394 
Q 1294 4750 2059 4750 
Q 2388 4750 2728 4690 
Q 3069 4631 3425 4513 
z
" transform="scale(0.015625)"/>
      </defs>
      <use xlink:href="#DejaVuSans-75"/>
      <use xlink:href="#DejaVuSans-70" x="63.378906"/>
      <use xlink:href="#DejaVuSans-20" x="126.855469"/>
      <use xlink:href="#DejaVuSans-54" x="158.642578"/>
      <use xlink:href="#DejaVuSans-44" x="219.726562"/>
      <use xlink:href="#DejaVuSans-4f" x="296.728516"/>
      <use xlink:href="#DejaVuSans-53" x="375.439453"/>
     </g>
    </g>
    <g id="line2d_17">
     <path d="M 78.91 88.256563 
L 88.91 88.256563 
L 98.91 88.256563 
" style="fill: none; stroke: #006400; stroke-linecap: square"/>
    </g>
    <g id="text_5">
     <!-- down TDOS -->
     <g transform="translate(106.91 91.756563)scale(0.1 -0.1)">
      <defs>
       <path id="DejaVuSans-64" d="M 2906 2969 
L 2906 4863 
L 3481 4863 
L 3481 0 
L 2906 0 
L 2906 525 
Q 2725 213 2448 61 
Q 2172 -91 1784 -91 
Q 1150 -91 751 415 
Q 353 922 353 1747 
Q 353 2572 751 3078 
Q 1150 3584 1784 3584 
Q 2172 3584 2448 3432 
Q 2725 3281 2906 2969 
z
M 947 1747 
Q 947 1113 1208 752 
Q 1469 391 1925 391 
Q 2381 391 2643 752 
Q 2906 1113 2906 1747 
Q 2906 2381 2643 2742 
Q 2381 3103 1925 3103 
Q 1469 3103 1208 2742 
Q 947 2381 947 1747 
z
" transform="scale(0.015625)"/>
       <path id="DejaVuSans-6f" d="M 1959 3097 
Q 1497 3097 1228 2736 
Q 959 2375 959 1747 
Q 959 1119 1226 758 
Q 1494 397 1959 397 
Q 2419 397 2687 759 
Q 2956 1122 2956 1747 
Q 2956 2369 2687 2733 
Q 2419 3097 1959 3097 
z
M 1959 3584 
Q 2709 3584 3137 3096 
Q 3566 2609 3566 1747 
Q 3566 888 3137 398 
Q 2709 -91 1959 -91 
Q 1206 -91 779 398 
Q 353 888 353 1747 
Q 353 2609 779 3096 
Q 1206 3584 1959 3584 
z
" transform="scale(0.015625)"/>
       <path id="DejaVuSans-77" d="M 269 3500 
L 844 3500 
L 1563 769 
L 2278 3500 
L 2956 3500 
L 3675 769 
L 4391 3500 
L 4966 3500 
L 4050 0 
L 3372 0 
L 2619 2869 
L 1863 0 
L 1184 0 
L 269 3500 
z
" transform="scale(0.015625)"/>
       <path id="DejaVuSans-6e" d="M 3513 2113 
L 3513 0 
L 2938 0 
L 2938 2094 
Q 2938 2591 2744 2837 
Q 2550 3084 2163 3084 
Q 1697 3084 1428 2787 
Q 1159 2491 1159 1978 
L 1159 0 
L 581 0 
L 581 3500 
L 1159 3500 
L 1159 2956 
Q 1366 3272 1645 3428 
Q 1925 3584 2291 3584 
Q 2894 3584 3203 3211 
Q 3513 2838 3513 2113 
z
" transform="scale(0.015625)"/>
      </defs>
      <use xlink:href="#DejaVuSans-64"/>
      <use xlink:href="#DejaVuSans-6f" x="63.476562"/>
      <use xlink:href="#DejaVuSans-77" x="124.658203"/>
      <use xlink:href="#DejaVuSans-6e" x="206.445312"/>
      <use xlink:href="#DejaVuSans-20" x="269.824219"/>
      <use xlink:href="#DejaVuSans-54" x="301.611328"/>
      <use xlink:href="#DejaVuSans-44" x="362.695312"/>
      <use xlink:href="#DejaVuSans-4f" x="439.697266"/>
      <use xlink:href="#DejaVuSans-53" x="518.408203"/>
     </g>
    </g>
   </g>
  </g>
  <g id="axes_2">
   <g id="patch_8">
    <path d="M 69.91 288.82 
L 709.2 288.82 
L 709.2 174.65 
L 69.91 174.65 
z
" style="fill: #ffffff"/>
   </g>
   <g id="matplotlib.axis_3">
    <g id="xtick_10">
     <g id="line2d_18">
      <g>
       <use xlink:href="#m33ef332536" x="83.055269" y="288.82" style="stroke: #000000; stroke-width: 0.8"/>
      </g>
     </g>
    </g>
    <g id="xtick_11">
     <g id="line2d_19">
      <g>
       <use xlink:href="#m33ef332536" x="159.252658" y="288.82" style="stroke: #000000; stroke-width: 0.8"/>
      </g>
     </g>
    </g>
    <g id="xtick_12">
     <g id="line2d_20">
      <g>
       <use xlink:href="#m33ef332536" x="235.450047" y="288.82" style="stroke: #000000; stroke-width: 0.8"/>
      </g>
     </g>
    </g>
    <g id="xtick_13">
     <g id="line2d_21">
      <g>
       <use xlink:href="#m33ef332536" x="311.647437" y="288.82" style="stroke: #000000; stroke-width: 0.8"/>
      </g>
     </g>
    </g>
    <g id="xtick_14">
     <g id="line2d_22">
      <g>
       <use xlink:href="#m33ef332536" x="387.844826" y="288.82" style="stroke: #000000; stroke-width: 0.8"/>
      </g>
     </g>
    </g>
    <g id="xtick_15">
     <g id="line2d_23">
      <g>
       <use xlink:href="#m33ef332536" x="464.042215" y="288.82" style="stroke: #000000; stroke-width: 0.8"/>
      </g>
     </g>
    </g>
    <g id="xtick_16">
     <g id="line2d_24">
      <g>
       <use xlink:href="#m33ef332536" x="540.239604" y="288.82" style="stroke: #000000; stroke-width: 0.8"/>
      </g>
     </g>
    </g>
    <g id="xtick_17">
     <g id="line2d_25">
      <g>
       <use xlink:href="#m33ef332536" x="616.436994" y="288.82" style="stroke: #000000; stroke-width: 0.8"/>
      </g>
     </g>
    </g>
    <g id="xtick_18">
     <g id="line2d_26">
      <g>
       <use xlink:href="#m33ef332536" x="692.634383" y="288.82" style="stroke: #000000; stroke-width: 0.8"/>
      </g>
     </g>
    </g>
   </g>
   <g id="matplotlib.axis_4">
    <g id="ytick_4">
     <g id="line2d_27">
      <g>
       <use xlink:href="#m9883398608" x="69.91" y="260.776824" style="stroke: #000000; stroke-width: 0.8"/>
      </g>
     </g>
     <g id="text_6">
      <!-- −20 -->
      <g transform="translate(41.805313 264.576043)scale(0.1 -0.1)">
       <defs>
        <path id="DejaVuSans-32" d="M 1228 531 
L 3431 531 
L 3431 0 
L 469 0 
L 469 531 
Q 828 903 1448 1529 
Q 2069 2156 2228 2338 
Q 2531 2678 2651 2914 
Q 2772 3150 2772 3378 
Q 2772 3750 2511 3984 
Q 2250 4219 1831 4219 
Q 1534 4219 1204 4116 
Q 875 4013 500 3803 
L 500 4441 
Q 881 4594 1212 4672 
Q 1544 4750 1819 4750 
Q 2544 4750 2975 4387 
Q 3406 4025 3406 3419 
Q 3406 3131 3298 2873 
Q 3191 2616 2906 2266 
Q 2828 2175 2409 1742 
Q 1991 1309 1228 531 
z
" transform="scale(0.015625)"/>
       </defs>
       <use xlink:href="#DejaVuSans-2212"/>
       <use xlink:href="#DejaVuSans-32" x="83.789062"/>
       <use xlink:href="#DejaVuSans-30" x="147.412109"/>
      </g>
     </g>
    </g>
    <g id="ytick_5">
     <g id="line2d_28">
      <g>
       <use xlink:href="#m9883398608" x="69.91" y="232.364351" style="stroke: #000000; stroke-width: 0.8"/>
      </g>
     </g>
     <g id="text_7">
      <!-- 0 -->
      <g transform="translate(56.5475 236.163569)scale(0.1 -0.1)">
       <use xlink:href="#DejaVuSans-30"/>
      </g>
     </g>
    </g>
    <g id="ytick_6">
     <g id="line2d_29">
      <g>
       <use xlink:href="#m9883398608" x="69.91" y="203.951877" style="stroke: #000000; stroke-width: 0.8"/>
      </g>
     </g>
     <g id="text_8">
      <!-- 20 -->
      <g transform="translate(50.185 207.751095)scale(0.1 -0.1)">
       <use xlink:href="#DejaVuSans-32"/>
       <use xlink:href="#DejaVuSans-30" x="63.623047"/>
      </g>
     </g>
    </g>
    <g id="ytick_7">
     <g id="line2d_30">
      <g>
       <use xlink:href="#m9883398608" x="69.91" y="175.539403" style="stroke: #000000; stroke-width: 0.8"/>
      </g>
     </g>
     <g id="text_9">
      <!-- 40 -->
      <g transform="translate(50.185 179.338622)scale(0.1 -0.1)">
       <defs>
        <path id="DejaVuSans-34" d="M 2419 4116 
L 825 1625 
L 2419 1625 
L 2419 4116 
z
M 2253 4666 
L 3047 4666 
L 3047 1625 
L 3713 1625 
L 3713 1100 
L 3047 1100 
L 3047 0 
L 2419 0 
L 2419 1100 
L 313 1100 
L 313 1709 
L 2253 4666 
z
" transform="scale(0.015625)"/>
       </defs>
       <use xlink:href="#DejaVuSans-34"/>
       <use xlink:href="#DejaVuSans-30" x="63.623047"/>
      </g>
     </g>
    </g>
   </g>
   <g id="line2d_31">
    <path d="M 176.909269 232.364351 
L 186.708254 232.27711 
L 187.355932 231.993454 
L 187.889313 231.597896 
L 188.216962 232.008356 
L 188.536991 232.309216 
L 189.077993 232.364137 
L 211.472405 232.330923 
L 211.579082 232.244904 
L 211.685758 231.982771 
L 211.792434 231.273013 
L 211.899111 229.575766 
L 212.112463 219.661517 
L 212.546788 179.839545 
L 212.653465 179.955596 
L 212.866817 197.820877 
L 213.194466 221.698393 
L 213.301143 223.427051 
L 213.407819 223.357923 
L 213.94882 218.213404 
L 214.055497 218.566372 
L 214.268849 222.80611 
L 214.588878 230.34249 
L 214.809851 232.021696 
L 215.023204 232.332841 
L 215.670881 232.364351 
L 281.017762 232.284682 
L 281.337791 231.957867 
L 281.66544 231.715239 
L 282.092146 231.92954 
L 282.633147 232.077171 
L 284.355208 232.192839 
L 286.503974 232.213082 
L 287.258329 232.17761 
L 287.692654 232.066048 
L 288.119359 231.771524 
L 288.447008 231.944613 
L 288.873713 232.113 
L 291.677777 232.2482 
L 292.104483 232.161798 
L 292.858837 231.744177 
L 293.719867 232.00614 
L 294.154192 232.158147 
L 297.163989 232.255971 
L 298.672698 232.251652 
L 300.608111 232.279553 
L 302.764497 232.214588 
L 303.297879 232.020403 
L 304.593235 232.277565 
L 305.134236 232.25563 
L 305.560941 232.248896 
L 306.101943 232.329773 
L 306.856297 232.269595 
L 307.389679 232.310026 
L 308.578358 232.281912 
L 310.727124 232.315623 
L 311.374802 232.300493 
L 312.342509 232.324275 
L 315.900927 232.193719 
L 316.327633 231.965084 
L 316.761958 232.063775 
L 317.402016 232.162409 
L 320.099403 232.217188 
L 321.493816 232.138258 
L 321.928141 232.054924 
L 322.461522 231.658826 
L 322.789171 231.930137 
L 323.1092 232.116693 
L 325.798968 232.217245 
L 326.33997 232.211946 
L 326.774295 232.261554 
L 327.635325 232.20605 
L 328.275383 232.23729 
L 328.709708 232.188321 
L 329.25071 232.238995 
L 331.186123 231.995983 
L 331.506153 231.959956 
L 332.260507 232.358043 
L 335.056951 232.364351 
L 344.962611 232.253869 
L 345.396937 232.108269 
L 347.545703 232.260787 
L 348.52103 232.146995 
L 349.161088 232.304528 
L 351.42415 232.317271 
L 353.900565 232.313862 
L 355.51595 232.345115 
L 357.779012 232.340484 
L 359.173425 232.242745 
L 359.714426 232.036755 
L 360.46878 232.360657 
L 361.329811 232.317413 
L 362.190841 232.046259 
L 362.838519 232.198961 
L 363.265224 232.222302 
L 363.699549 232.224163 
L 364.126255 232.224305 
L 364.56058 232.252036 
L 365.314934 232.224092 
L 365.74164 232.226522 
L 366.175965 231.957228 
L 366.495994 231.824173 
L 367.143671 231.837597 
L 368.004702 231.382543 
L 368.65238 232.232659 
L 369.940116 232.313393 
L 370.801146 232.262861 
L 371.5555 232.288901 
L 372.309854 232.269552 
L 373.818563 232.293461 
L 374.679593 232.276627 
L 375.433947 232.311532 
L 375.967329 232.207911 
L 376.721683 232.343567 
L 377.68939 232.266114 
L 378.230392 232.282736 
L 378.878069 232.312299 
L 380.60013 232.307668 
L 381.141132 232.306986 
L 381.887866 232.364279 
L 392.227852 232.364351 
L 392.227852 232.364351 
" clip-path="url(#p170a54b6b4)" style="fill: none; stroke: #800080; stroke-linecap: square"/>
   </g>
   <g id="line2d_32">
    <path d="M 69.91 232.364351 
L 709.2 232.364351 
" clip-path="url(#p170a54b6b4)" style="fill: none; stroke-dasharray: 5.55,2.4; stroke-dashoffset: 0; stroke: #000000; stroke-opacity: 0.3; stroke-width: 1.5"/>
   </g>
   <g id="line2d_33">
    <path d="M 176.909269 232.364351 
L 195.425235 232.426418 
L 195.752884 232.708383 
L 196.072913 233.412799 
L 196.400562 234.090508 
L 196.507238 234.061967 
L 196.827267 233.286946 
L 197.154916 232.705769 
L 197.581621 232.453978 
L 198.122623 232.366467 
L 206.412899 232.364351 
L 211.365729 232.408376 
L 211.472405 232.523688 
L 211.579082 232.877025 
L 211.685758 233.827039 
L 211.899111 240.495233 
L 212.226759 270.314039 
L 212.440112 283.630455 
L 212.546788 280.363702 
L 213.08779 239.511906 
L 213.301143 236.146647 
L 213.407819 235.922018 
L 213.621172 237.06268 
L 213.94882 239.35622 
L 214.268849 240.695172 
L 214.588878 243.739014 
L 214.703175 243.713045 
L 214.916527 240.357035 
L 215.236556 234.035032 
L 215.449909 232.64285 
L 215.670881 232.389453 
L 216.425236 232.364351 
L 282.633147 232.430211 
L 282.953176 232.752323 
L 283.280825 233.060058 
L 283.600854 232.922102 
L 284.141855 232.696606 
L 285.429591 232.570938 
L 289.414715 232.653803 
L 290.062393 232.954989 
L 291.350128 232.559459 
L 291.997806 232.514127 
L 292.645484 232.526358 
L 294.154192 232.479989 
L 295.441928 232.445568 
L 296.409635 232.538036 
L 296.737284 232.891842 
L 297.057313 233.17591 
L 297.704991 233.148393 
L 299.320375 232.425494 
L 300.93576 232.404796 
L 303.084526 232.47506 
L 303.518851 232.649541 
L 304.273206 233.379272 
L 304.486558 233.208045 
L 305.134236 232.438024 
L 305.774294 232.391286 
L 318.049694 232.394042 
L 318.484019 232.419499 
L 319.345049 232.630192 
L 320.20608 232.526685 
L 324.617909 232.580541 
L 325.478939 232.863089 
L 326.659999 232.535791 
L 327.307676 232.530606 
L 327.848678 232.484933 
L 328.496356 232.511968 
L 329.029737 232.486141 
L 329.464062 232.462885 
L 330.218417 232.505049 
L 331.079447 232.518062 
L 331.399476 232.52356 
L 331.940478 232.474705 
L 334.416893 232.667256 
L 334.950275 232.379821 
L 336.24563 232.364351 
L 347.766675 232.468255 
L 348.300057 232.650166 
L 349.38206 232.49448 
L 350.128794 232.619367 
L 350.669796 232.61215 
L 351.530826 232.447656 
L 356.056951 232.409327 
L 358.640043 232.409526 
L 360.034455 232.388416 
L 362.297518 232.494451 
L 363.158548 232.771061 
L 363.806226 232.606496 
L 364.56058 232.52606 
L 367.143671 232.569034 
L 367.898026 232.918394 
L 368.324731 232.883205 
L 368.538084 233.110391 
L 368.865732 233.603319 
L 368.972409 233.592906 
L 369.185762 233.202689 
L 369.51341 232.590585 
L 369.833439 232.458183 
L 370.374441 232.461706 
L 370.907823 232.48651 
L 371.662177 232.418334 
L 372.309854 232.496369 
L 373.064209 232.402579 
L 373.925239 232.468084 
L 374.572917 232.415394 
L 375.327271 232.444403 
L 376.615007 232.413263 
L 377.049332 232.419868 
L 377.68939 232.493414 
L 378.443744 232.389581 
L 379.304775 232.466621 
L 379.845776 232.387336 
L 381.247808 232.479833 
L 382.428868 232.455924 
L 386.086342 232.364351 
L 392.227852 232.364351 
L 392.227852 232.364351 
" clip-path="url(#p170a54b6b4)" style="fill: none; stroke: #800080; stroke-linecap: square"/>
   </g>
   <g id="patch_9">
    <path d="M 69.91 288.82 
L 69.91 174.65 
" style="fill: none; stroke: #000000; stroke-width: 0.8; stroke-linejoin: miter; stroke-linecap: square"/>
   </g>
   <g id="patch_10">
    <path d="M 709.2 288.82 
L 709.2 174.65 
" style="fill: none; stroke: #000000; stroke-width: 0.8; stroke-linejoin: miter; stroke-linecap: square"/>
   </g>
   <g id="patch_11">
    <path d="M 69.91 288.82 
L 709.2 288.82 
" style="fill: none; stroke: #000000; stroke-width: 0.8; stroke-linejoin: miter; stroke-linecap: square"/>
   </g>
   <g id="patch_12">
    <path d="M 69.91 174.65 
L 709.2 174.65 
" style="fill: none; stroke: #000000; stroke-width: 0.8; stroke-linejoin: miter; stroke-linecap: square"/>
   </g>
   <g id="legend_2">
    <g id="patch_13">
     <path d="M 630.185938 212.00625 
L 702.2 212.00625 
Q 704.2 212.00625 704.2 210.00625 
L 704.2 181.65 
Q 704.2 179.65 702.2 179.65 
L 630.185938 179.65 
Q 628.185938 179.65 628.185938 181.65 
L 628.185938 210.00625 
Q 628.185938 212.00625 630.185938 212.00625 
z
" style="fill: #ffffff; opacity: 0.8; stroke: #cccccc; stroke-linejoin: miter"/>
    </g>
    <g id="line2d_34">
     <path d="M 632.185938 187.748438 
L 642.185938 187.748438 
L 652.185938 187.748438 
" style="fill: none; stroke: #800080; stroke-linecap: square"/>
    </g>
    <g id="text_10">
     <!-- up In all -->
     <g transform="translate(660.185938 191.248438)scale(0.1 -0.1)">
      <defs>
       <path id="DejaVuSans-49" d="M 628 4666 
L 1259 4666 
L 1259 0 
L 628 0 
L 628 4666 
z
" transform="scale(0.015625)"/>
       <path id="DejaVuSans-61" d="M 2194 1759 
Q 1497 1759 1228 1600 
Q 959 1441 959 1056 
Q 959 750 1161 570 
Q 1363 391 1709 391 
Q 2188 391 2477 730 
Q 2766 1069 2766 1631 
L 2766 1759 
L 2194 1759 
z
M 3341 1997 
L 3341 0 
L 2766 0 
L 2766 531 
Q 2569 213 2275 61 
Q 1981 -91 1556 -91 
Q 1019 -91 701 211 
Q 384 513 384 1019 
Q 384 1609 779 1909 
Q 1175 2209 1959 2209 
L 2766 2209 
L 2766 2266 
Q 2766 2663 2505 2880 
Q 2244 3097 1772 3097 
Q 1472 3097 1187 3025 
Q 903 2953 641 2809 
L 641 3341 
Q 956 3463 1253 3523 
Q 1550 3584 1831 3584 
Q 2591 3584 2966 3190 
Q 3341 2797 3341 1997 
z
" transform="scale(0.015625)"/>
       <path id="DejaVuSans-6c" d="M 603 4863 
L 1178 4863 
L 1178 0 
L 603 0 
L 603 4863 
z
" transform="scale(0.015625)"/>
      </defs>
      <use xlink:href="#DejaVuSans-75"/>
      <use xlink:href="#DejaVuSans-70" x="63.378906"/>
      <use xlink:href="#DejaVuSans-20" x="126.855469"/>
      <use xlink:href="#DejaVuSans-49" x="158.642578"/>
      <use xlink:href="#DejaVuSans-6e" x="188.134766"/>
      <use xlink:href="#DejaVuSans-20" x="251.513672"/>
      <use xlink:href="#DejaVuSans-61" x="283.300781"/>
      <use xlink:href="#DejaVuSans-6c" x="344.580078"/>
      <use xlink:href="#DejaVuSans-6c" x="372.363281"/>
     </g>
    </g>
    <g id="line2d_35">
     <path d="M 632.185938 202.426563 
L 642.185938 202.426563 
L 652.185938 202.426563 
" style="fill: none; stroke: #800080; stroke-linecap: square"/>
    </g>
    <g id="text_11">
     <!-- up In all -->
     <g transform="translate(660.185938 205.926563)scale(0.1 -0.1)">
      <use xlink:href="#DejaVuSans-75"/>
      <use xlink:href="#DejaVuSans-70" x="63.378906"/>
      <use xlink:href="#DejaVuSans-20" x="126.855469"/>
      <use xlink:href="#DejaVuSans-49" x="158.642578"/>
      <use xlink:href="#DejaVuSans-6e" x="188.134766"/>
      <use xlink:href="#DejaVuSans-20" x="251.513672"/>
      <use xlink:href="#DejaVuSans-61" x="283.300781"/>
      <use xlink:href="#DejaVuSans-6c" x="344.580078"/>
      <use xlink:href="#DejaVuSans-6c" x="372.363281"/>
     </g>
    </g>
   </g>
  </g>
  <g id="axes_3">
   <g id="patch_14">
    <path d="M 69.91 402.99 
L 709.2 402.99 
L 709.2 288.82 
L 69.91 288.82 
z
" style="fill: #ffffff"/>
   </g>
   <g id="matplotlib.axis_5">
    <g id="xtick_19">
     <g id="line2d_36">
      <g>
       <use xlink:href="#m33ef332536" x="83.055269" y="402.99" style="stroke: #000000; stroke-width: 0.8"/>
      </g>
     </g>
    </g>
    <g id="xtick_20">
     <g id="line2d_37">
      <g>
       <use xlink:href="#m33ef332536" x="159.252658" y="402.99" style="stroke: #000000; stroke-width: 0.8"/>
      </g>
     </g>
    </g>
    <g id="xtick_21">
     <g id="line2d_38">
      <g>
       <use xlink:href="#m33ef332536" x="235.450047" y="402.99" style="stroke: #000000; stroke-width: 0.8"/>
      </g>
     </g>
    </g>
    <g id="xtick_22">
     <g id="line2d_39">
      <g>
       <use xlink:href="#m33ef332536" x="311.647437" y="402.99" style="stroke: #000000; stroke-width: 0.8"/>
      </g>
     </g>
    </g>
    <g id="xtick_23">
     <g id="line2d_40">
      <g>
       <use xlink:href="#m33ef332536" x="387.844826" y="402.99" style="stroke: #000000; stroke-width: 0.8"/>
      </g>
     </g>
    </g>
    <g id="xtick_24">
     <g id="line2d_41">
      <g>
       <use xlink:href="#m33ef332536" x="464.042215" y="402.99" style="stroke: #000000; stroke-width: 0.8"/>
      </g>
     </g>
    </g>
    <g id="xtick_25">
     <g id="line2d_42">
      <g>
       <use xlink:href="#m33ef332536" x="540.239604" y="402.99" style="stroke: #000000; stroke-width: 0.8"/>
      </g>
     </g>
    </g>
    <g id="xtick_26">
     <g id="line2d_43">
      <g>
       <use xlink:href="#m33ef332536" x="616.436994" y="402.99" style="stroke: #000000; stroke-width: 0.8"/>
      </g>
     </g>
    </g>
    <g id="xtick_27">
     <g id="line2d_44">
      <g>
       <use xlink:href="#m33ef332536" x="692.634383" y="402.99" style="stroke: #000000; stroke-width: 0.8"/>
      </g>
     </g>
    </g>
   </g>
   <g id="matplotlib.axis_6">
    <g id="ytick_8">
     <g id="line2d_45">
      <g>
       <use xlink:href="#m9883398608" x="69.91" y="391.759377" style="stroke: #000000; stroke-width: 0.8"/>
      </g>
     </g>
     <g id="text_12">
      <!-- −10 -->
      <g transform="translate(41.805313 395.558596)scale(0.1 -0.1)">
       <defs>
        <path id="DejaVuSans-31" d="M 794 531 
L 1825 531 
L 1825 4091 
L 703 3866 
L 703 4441 
L 1819 4666 
L 2450 4666 
L 2450 531 
L 3481 531 
L 3481 0 
L 794 0 
L 794 531 
z
" transform="scale(0.015625)"/>
       </defs>
       <use xlink:href="#DejaVuSans-2212"/>
       <use xlink:href="#DejaVuSans-31" x="83.789062"/>
       <use xlink:href="#DejaVuSans-30" x="147.412109"/>
      </g>
     </g>
    </g>
    <g id="ytick_9">
     <g id="line2d_46">
      <g>
       <use xlink:href="#m9883398608" x="69.91" y="359.403625" style="stroke: #000000; stroke-width: 0.8"/>
      </g>
     </g>
     <g id="text_13">
      <!-- 0 -->
      <g transform="translate(56.5475 363.202844)scale(0.1 -0.1)">
       <use xlink:href="#DejaVuSans-30"/>
      </g>
     </g>
    </g>
    <g id="ytick_10">
     <g id="line2d_47">
      <g>
       <use xlink:href="#m9883398608" x="69.91" y="327.047874" style="stroke: #000000; stroke-width: 0.8"/>
      </g>
     </g>
     <g id="text_14">
      <!-- 10 -->
      <g transform="translate(50.185 330.847093)scale(0.1 -0.1)">
       <use xlink:href="#DejaVuSans-31"/>
       <use xlink:href="#DejaVuSans-30" x="63.623047"/>
      </g>
     </g>
    </g>
    <g id="ytick_11">
     <g id="line2d_48">
      <g>
       <use xlink:href="#m9883398608" x="69.91" y="294.692122" style="stroke: #000000; stroke-width: 0.8"/>
      </g>
     </g>
     <g id="text_15">
      <!-- 20 -->
      <g transform="translate(50.185 298.491341)scale(0.1 -0.1)">
       <use xlink:href="#DejaVuSans-32"/>
       <use xlink:href="#DejaVuSans-30" x="63.623047"/>
      </g>
     </g>
    </g>
   </g>
   <g id="line2d_49">
    <path d="M 176.909269 359.403625 
L 289.734744 359.342764 
L 289.84142 359.188298 
L 289.955716 358.725869 
L 290.062393 357.539934 
L 290.275745 350.061355 
L 290.595774 319.672251 
L 290.816747 301.722024 
L 290.923423 300.878477 
L 291.136776 317.227224 
L 291.563481 354.815774 
L 291.784454 358.751528 
L 291.997806 359.342635 
L 292.317835 359.347294 
L 292.75216 359.080812 
L 293.178866 358.37125 
L 293.399838 358.15369 
L 293.613191 358.334915 
L 294.039896 358.876356 
L 294.687574 359.0415 
L 295.121899 359.06787 
L 295.335252 358.737776 
L 295.761957 357.510167 
L 295.876253 357.535987 
L 296.302959 358.073383 
L 296.409635 357.663695 
L 296.622988 354.937367 
L 297.057313 342.681332 
L 297.270666 336.102534 
L 297.491638 322.279833 
L 297.811667 294.009545 
L 297.918343 294.278551 
L 298.131696 315.612995 
L 298.459345 350.047701 
L 298.672698 356.759384 
L 298.88605 357.880964 
L 299.320375 357.879443 
L 299.960433 358.900008 
L 300.288082 358.793072 
L 300.608111 358.434765 
L 300.93576 357.631986 
L 301.255789 355.682617 
L 301.469142 354.452063 
L 301.575818 354.336553 
L 301.79679 355.047312 
L 302.764497 359.115886 
L 302.97785 359.251456 
L 308.250709 359.348912 
L 315.573278 359.172767 
L 315.786631 358.975591 
L 316.434309 357.992591 
L 316.761958 358.284084 
L 317.081987 358.597611 
L 317.508692 358.563055 
L 318.049694 358.573862 
L 318.263046 358.40393 
L 318.484019 357.918367 
L 318.910724 356.653678 
L 319.0174 356.650442 
L 319.451726 357.026642 
L 319.665078 356.822575 
L 319.985107 356.353513 
L 320.099403 356.458217 
L 320.312756 357.318847 
L 320.739461 359.033217 
L 320.960434 359.198749 
L 322.789171 359.35946 
L 323.436849 359.352795 
L 325.15891 359.388806 
L 327.307676 359.391945 
L 344.749259 359.312447 
L 345.069288 358.943494 
L 345.396937 358.681607 
L 346.905645 359.046127 
L 347.545703 358.992481 
L 347.766675 358.700114 
L 348.193381 357.807128 
L 348.300057 357.811981 
L 348.627706 358.448872 
L 348.947735 358.948962 
L 349.267764 359.114689 
L 351.104121 359.135623 
L 351.637503 359.091489 
L 352.071828 359.155651 
L 352.391857 359.156233 
L 352.826182 359.058195 
L 353.46624 359.158854 
L 353.900565 359.021698 
L 354.441567 359.207323 
L 354.974948 358.996202 
L 355.51595 359.178332 
L 355.942655 359.000279 
L 356.803686 359.070749 
L 358.640043 358.883377 
L 358.746719 358.731273 
L 358.960072 357.704301 
L 359.173425 354.866767 
L 359.60775 347.703171 
L 359.714426 348.31628 
L 360.362104 358.962261 
L 360.575457 359.356904 
L 361.002162 359.402687 
L 361.756516 359.294134 
L 362.297518 359.281644 
L 363.051872 359.293778 
L 364.667256 359.300896 
L 367.143671 359.08518 
L 368.004702 358.809962 
L 368.65238 359.344091 
L 371.014499 359.386962 
L 373.925239 359.37017 
L 376.188302 359.35823 
L 376.82836 359.382627 
L 377.910363 359.364928 
L 379.198098 359.358489 
L 380.059129 359.402978 
L 389.538084 359.403625 
L 392.227852 359.403625 
L 392.227852 359.403625 
" clip-path="url(#p5b2fd8ce95)" style="fill: none; stroke: #6495ed; stroke-linecap: square"/>
   </g>
   <g id="line2d_50">
    <path d="M 69.91 359.403625 
L 709.2 359.403625 
" clip-path="url(#p5b2fd8ce95)" style="fill: none; stroke-dasharray: 5.55,2.4; stroke-dashoffset: 0; stroke: #000000; stroke-opacity: 0.3; stroke-width: 1.5"/>
   </g>
   <g id="line2d_51">
    <path d="M 176.909269 359.403625 
L 297.163989 359.49914 
L 297.918343 359.575887 
L 298.779374 359.426695 
L 301.042436 359.412911 
L 302.551145 359.480373 
L 302.764497 359.732554 
L 303.297879 361.029275 
L 303.412175 360.967929 
L 303.945557 360.127618 
L 304.593235 359.90679 
L 305.134236 359.458112 
L 305.774294 359.427698 
L 306.635325 359.503022 
L 306.749621 359.658524 
L 306.856297 360.045466 
L 307.06965 362.321694 
L 307.496355 373.249396 
L 308.250709 388.016528 
L 308.365005 388.179116 
L 308.471682 388.744759 
L 308.685034 392.99527 
L 308.898387 396.451608 
L 309.005063 394.287882 
L 309.759418 361.570749 
L 309.97277 361.109421 
L 310.193743 361.250427 
L 310.948097 362.153476 
L 311.481479 361.94051 
L 311.702451 362.34266 
L 311.915804 363.531928 
L 312.235833 367.212071 
L 312.449185 369.512047 
L 312.563482 369.703594 
L 312.670158 368.985328 
L 313.310216 360.338545 
L 313.531188 359.979137 
L 313.851217 359.893944 
L 314.498895 359.435302 
L 315.573278 359.417409 
L 316.220956 359.517129 
L 316.327633 359.747405 
L 316.434309 360.342525 
L 316.647662 364.089321 
L 316.868634 373.251046 
L 317.295339 394.712907 
L 317.508692 397.800455 
L 317.622988 397.069279 
L 317.836341 391.515285 
L 318.590695 360.808383 
L 318.804048 360.011137 
L 319.345049 360.492429 
L 319.985107 359.997192 
L 320.526109 359.904784 
L 324.183583 359.853759 
L 324.937938 360.065495 
L 325.15891 360.548922 
L 325.798968 363.11606 
L 326.019941 362.974924 
L 326.233293 362.516216 
L 326.987647 359.502731 
L 327.307676 359.462675 
L 328.062031 359.41482 
L 344.855935 359.403625 
L 347.545703 359.458468 
L 347.873352 359.731389 
L 348.193381 359.995444 
L 348.52103 359.885273 
L 349.161088 359.706928 
L 349.595413 359.79568 
L 349.808765 360.013499 
L 350.243091 360.673168 
L 350.456443 360.705135 
L 350.669796 360.532647 
L 351.317474 359.724239 
L 356.37698 359.680364 
L 356.803686 359.645938 
L 357.238011 359.675058 
L 357.664716 359.681044 
L 358.099041 359.630795 
L 358.533366 359.73854 
L 359.173425 359.648655 
L 359.60775 359.750932 
L 360.141131 359.652538 
L 360.895486 359.885111 
L 361.116458 360.397562 
L 361.64984 362.31849 
L 361.870812 362.452184 
L 362.084165 363.179542 
L 362.617547 366.162418 
L 362.731843 365.836078 
L 362.945195 363.976011 
L 363.371901 360.09688 
L 363.592873 359.605946 
L 363.912902 359.514282 
L 365.093962 359.474711 
L 367.463701 359.645873 
L 368.004702 359.701945 
L 368.431407 359.800307 
L 368.972409 360.156964 
L 369.292438 359.739575 
L 369.620087 359.458404 
L 370.153468 359.424301 
L 372.096502 359.455718 
L 374.78627 359.446303 
L 377.803686 359.452094 
L 378.664717 359.442614 
L 379.304775 359.452321 
L 380.059129 359.433878 
L 381.78119 359.560615 
L 382.535544 359.455783 
L 384.798607 359.403625 
L 392.227852 359.403625 
L 392.227852 359.403625 
" clip-path="url(#p5b2fd8ce95)" style="fill: none; stroke: #6495ed; stroke-linecap: square"/>
   </g>
   <g id="patch_15">
    <path d="M 69.91 402.99 
L 69.91 288.82 
" style="fill: none; stroke: #000000; stroke-width: 0.8; stroke-linejoin: miter; stroke-linecap: square"/>
   </g>
   <g id="patch_16">
    <path d="M 709.2 402.99 
L 709.2 288.82 
" style="fill: none; stroke: #000000; stroke-width: 0.8; stroke-linejoin: miter; stroke-linecap: square"/>
   </g>
   <g id="patch_17">
    <path d="M 69.91 402.99 
L 709.2 402.99 
" style="fill: none; stroke: #000000; stroke-width: 0.8; stroke-linejoin: miter; stroke-linecap: square"/>
   </g>
   <g id="patch_18">
    <path d="M 69.91 288.82 
L 709.2 288.82 
" style="fill: none; stroke: #000000; stroke-width: 0.8; stroke-linejoin: miter; stroke-linecap: square"/>
   </g>
   <g id="legend_3">
    <g id="patch_19">
     <path d="M 628.11875 326.17625 
L 702.2 326.17625 
Q 704.2 326.17625 704.2 324.17625 
L 704.2 295.82 
Q 704.2 293.82 702.2 293.82 
L 628.11875 293.82 
Q 626.11875 293.82 626.11875 295.82 
L 626.11875 324.17625 
Q 626.11875 326.17625 628.11875 326.17625 
z
" style="fill: #ffffff; opacity: 0.8; stroke: #cccccc; stroke-linejoin: miter"/>
    </g>
    <g id="line2d_52">
     <path d="M 630.11875 301.918438 
L 640.11875 301.918438 
L 650.11875 301.918438 
" style="fill: none; stroke: #6495ed; stroke-linecap: square"/>
    </g>
    <g id="text_16">
     <!-- up Fe all -->
     <g transform="translate(658.11875 305.418438)scale(0.1 -0.1)">
      <defs>
       <path id="DejaVuSans-46" d="M 628 4666 
L 3309 4666 
L 3309 4134 
L 1259 4134 
L 1259 2759 
L 3109 2759 
L 3109 2228 
L 1259 2228 
L 1259 0 
L 628 0 
L 628 4666 
z
" transform="scale(0.015625)"/>
       <path id="DejaVuSans-65" d="M 3597 1894 
L 3597 1613 
L 953 1613 
Q 991 1019 1311 708 
Q 1631 397 2203 397 
Q 2534 397 2845 478 
Q 3156 559 3463 722 
L 3463 178 
Q 3153 47 2828 -22 
Q 2503 -91 2169 -91 
Q 1331 -91 842 396 
Q 353 884 353 1716 
Q 353 2575 817 3079 
Q 1281 3584 2069 3584 
Q 2775 3584 3186 3129 
Q 3597 2675 3597 1894 
z
M 3022 2063 
Q 3016 2534 2758 2815 
Q 2500 3097 2075 3097 
Q 1594 3097 1305 2825 
Q 1016 2553 972 2059 
L 3022 2063 
z
" transform="scale(0.015625)"/>
      </defs>
      <use xlink:href="#DejaVuSans-75"/>
      <use xlink:href="#DejaVuSans-70" x="63.378906"/>
      <use xlink:href="#DejaVuSans-20" x="126.855469"/>
      <use xlink:href="#DejaVuSans-46" x="158.642578"/>
      <use xlink:href="#DejaVuSans-65" x="210.662109"/>
      <use xlink:href="#DejaVuSans-20" x="272.185547"/>
      <use xlink:href="#DejaVuSans-61" x="303.972656"/>
      <use xlink:href="#DejaVuSans-6c" x="365.251953"/>
      <use xlink:href="#DejaVuSans-6c" x="393.035156"/>
     </g>
    </g>
    <g id="line2d_53">
     <path d="M 630.11875 316.596563 
L 640.11875 316.596563 
L 650.11875 316.596563 
" style="fill: none; stroke: #6495ed; stroke-linecap: square"/>
    </g>
    <g id="text_17">
     <!-- up Fe all -->
     <g transform="translate(658.11875 320.096563)scale(0.1 -0.1)">
      <use xlink:href="#DejaVuSans-75"/>
      <use xlink:href="#DejaVuSans-70" x="63.378906"/>
      <use xlink:href="#DejaVuSans-20" x="126.855469"/>
      <use xlink:href="#DejaVuSans-46" x="158.642578"/>
      <use xlink:href="#DejaVuSans-65" x="210.662109"/>
      <use xlink:href="#DejaVuSans-20" x="272.185547"/>
      <use xlink:href="#DejaVuSans-61" x="303.972656"/>
      <use xlink:href="#DejaVuSans-6c" x="365.251953"/>
      <use xlink:href="#DejaVuSans-6c" x="393.035156"/>
     </g>
    </g>
   </g>
  </g>
  <g id="axes_4">
   <g id="patch_20">
    <path d="M 69.91 517.16 
L 709.2 517.16 
L 709.2 402.99 
L 69.91 402.99 
z
" style="fill: #ffffff"/>
   </g>
   <g id="matplotlib.axis_7">
    <g id="xtick_28">
     <g id="line2d_54">
      <g>
       <use xlink:href="#m33ef332536" x="83.055269" y="517.16" style="stroke: #000000; stroke-width: 0.8"/>
      </g>
     </g>
     <g id="text_18">
      <!-- −30 -->
      <g transform="translate(72.502925 531.758438)scale(0.1 -0.1)">
       <defs>
        <path id="DejaVuSans-33" d="M 2597 2516 
Q 3050 2419 3304 2112 
Q 3559 1806 3559 1356 
Q 3559 666 3084 287 
Q 2609 -91 1734 -91 
Q 1441 -91 1130 -33 
Q 819 25 488 141 
L 488 750 
Q 750 597 1062 519 
Q 1375 441 1716 441 
Q 2309 441 2620 675 
Q 2931 909 2931 1356 
Q 2931 1769 2642 2001 
Q 2353 2234 1838 2234 
L 1294 2234 
L 1294 2753 
L 1863 2753 
Q 2328 2753 2575 2939 
Q 2822 3125 2822 3475 
Q 2822 3834 2567 4026 
Q 2313 4219 1838 4219 
Q 1578 4219 1281 4162 
Q 984 4106 628 3988 
L 628 4550 
Q 988 4650 1302 4700 
Q 1616 4750 1894 4750 
Q 2613 4750 3031 4423 
Q 3450 4097 3450 3541 
Q 3450 3153 3228 2886 
Q 3006 2619 2597 2516 
z
" transform="scale(0.015625)"/>
       </defs>
       <use xlink:href="#DejaVuSans-2212"/>
       <use xlink:href="#DejaVuSans-33" x="83.789062"/>
       <use xlink:href="#DejaVuSans-30" x="147.412109"/>
      </g>
     </g>
    </g>
    <g id="xtick_29">
     <g id="line2d_55">
      <g>
       <use xlink:href="#m33ef332536" x="159.252658" y="517.16" style="stroke: #000000; stroke-width: 0.8"/>
      </g>
     </g>
     <g id="text_19">
      <!-- −20 -->
      <g transform="translate(148.700314 531.758438)scale(0.1 -0.1)">
       <use xlink:href="#DejaVuSans-2212"/>
       <use xlink:href="#DejaVuSans-32" x="83.789062"/>
       <use xlink:href="#DejaVuSans-30" x="147.412109"/>
      </g>
     </g>
    </g>
    <g id="xtick_30">
     <g id="line2d_56">
      <g>
       <use xlink:href="#m33ef332536" x="235.450047" y="517.16" style="stroke: #000000; stroke-width: 0.8"/>
      </g>
     </g>
     <g id="text_20">
      <!-- −10 -->
      <g transform="translate(224.897704 531.758438)scale(0.1 -0.1)">
       <use xlink:href="#DejaVuSans-2212"/>
       <use xlink:href="#DejaVuSans-31" x="83.789062"/>
       <use xlink:href="#DejaVuSans-30" x="147.412109"/>
      </g>
     </g>
    </g>
    <g id="xtick_31">
     <g id="line2d_57">
      <g>
       <use xlink:href="#m33ef332536" x="311.647437" y="517.16" style="stroke: #000000; stroke-width: 0.8"/>
      </g>
     </g>
     <g id="text_21">
      <!-- 0 -->
      <g transform="translate(308.466187 531.758438)scale(0.1 -0.1)">
       <use xlink:href="#DejaVuSans-30"/>
      </g>
     </g>
    </g>
    <g id="xtick_32">
     <g id="line2d_58">
      <g>
       <use xlink:href="#m33ef332536" x="387.844826" y="517.16" style="stroke: #000000; stroke-width: 0.8"/>
      </g>
     </g>
     <g id="text_22">
      <!-- 10 -->
      <g transform="translate(381.482326 531.758438)scale(0.1 -0.1)">
       <use xlink:href="#DejaVuSans-31"/>
       <use xlink:href="#DejaVuSans-30" x="63.623047"/>
      </g>
     </g>
    </g>
    <g id="xtick_33">
     <g id="line2d_59">
      <g>
       <use xlink:href="#m33ef332536" x="464.042215" y="517.16" style="stroke: #000000; stroke-width: 0.8"/>
      </g>
     </g>
     <g id="text_23">
      <!-- 20 -->
      <g transform="translate(457.679715 531.758438)scale(0.1 -0.1)">
       <use xlink:href="#DejaVuSans-32"/>
       <use xlink:href="#DejaVuSans-30" x="63.623047"/>
      </g>
     </g>
    </g>
    <g id="xtick_34">
     <g id="line2d_60">
      <g>
       <use xlink:href="#m33ef332536" x="540.239604" y="517.16" style="stroke: #000000; stroke-width: 0.8"/>
      </g>
     </g>
     <g id="text_24">
      <!-- 30 -->
      <g transform="translate(533.877104 531.758438)scale(0.1 -0.1)">
       <use xlink:href="#DejaVuSans-33"/>
       <use xlink:href="#DejaVuSans-30" x="63.623047"/>
      </g>
     </g>
    </g>
    <g id="xtick_35">
     <g id="line2d_61">
      <g>
       <use xlink:href="#m33ef332536" x="616.436994" y="517.16" style="stroke: #000000; stroke-width: 0.8"/>
      </g>
     </g>
     <g id="text_25">
      <!-- 40 -->
      <g transform="translate(610.074494 531.758438)scale(0.1 -0.1)">
       <use xlink:href="#DejaVuSans-34"/>
       <use xlink:href="#DejaVuSans-30" x="63.623047"/>
      </g>
     </g>
    </g>
    <g id="xtick_36">
     <g id="line2d_62">
      <g>
       <use xlink:href="#m33ef332536" x="692.634383" y="517.16" style="stroke: #000000; stroke-width: 0.8"/>
      </g>
     </g>
     <g id="text_26">
      <!-- 50 -->
      <g transform="translate(686.271883 531.758438)scale(0.1 -0.1)">
       <use xlink:href="#DejaVuSans-35"/>
       <use xlink:href="#DejaVuSans-30" x="63.623047"/>
      </g>
     </g>
    </g>
   </g>
   <g id="matplotlib.axis_8">
    <g id="ytick_12">
     <g id="line2d_63">
      <g>
       <use xlink:href="#m9883398608" x="69.91" y="508.312562" style="stroke: #000000; stroke-width: 0.8"/>
      </g>
     </g>
     <g id="text_27">
      <!-- −10 -->
      <g transform="translate(41.805313 512.111781)scale(0.1 -0.1)">
       <use xlink:href="#DejaVuSans-2212"/>
       <use xlink:href="#DejaVuSans-31" x="83.789062"/>
       <use xlink:href="#DejaVuSans-30" x="147.412109"/>
      </g>
     </g>
    </g>
    <g id="ytick_13">
     <g id="line2d_64">
      <g>
       <use xlink:href="#m9883398608" x="69.91" y="469.444293" style="stroke: #000000; stroke-width: 0.8"/>
      </g>
     </g>
     <g id="text_28">
      <!-- 0 -->
      <g transform="translate(56.5475 473.243512)scale(0.1 -0.1)">
       <use xlink:href="#DejaVuSans-30"/>
      </g>
     </g>
    </g>
    <g id="ytick_14">
     <g id="line2d_65">
      <g>
       <use xlink:href="#m9883398608" x="69.91" y="430.576025" style="stroke: #000000; stroke-width: 0.8"/>
      </g>
     </g>
     <g id="text_29">
      <!-- 10 -->
      <g transform="translate(50.185 434.375244)scale(0.1 -0.1)">
       <use xlink:href="#DejaVuSans-31"/>
       <use xlink:href="#DejaVuSans-30" x="63.623047"/>
      </g>
     </g>
    </g>
   </g>
   <g id="line2d_66">
    <path d="M 176.909269 469.444293 
L 185.9539 469.373592 
L 186.060576 469.219596 
L 186.167252 468.827337 
L 186.388225 466.391579 
L 186.708254 456.41942 
L 187.142579 443.744322 
L 187.355932 439.54651 
L 187.569284 428.982115 
L 187.889313 408.179545 
L 188.003609 408.564264 
L 188.216962 425.297131 
L 188.643667 463.982446 
L 188.86464 468.60194 
L 189.077993 469.372542 
L 189.398022 469.44371 
L 211.685758 469.440795 
L 212.333436 469.30736 
L 213.407819 468.717107 
L 214.055497 467.854231 
L 214.268849 468.31276 
L 214.588878 469.201444 
L 214.916527 469.430728 
L 216.204263 469.444293 
L 280.911086 469.34549 
L 281.124439 468.993966 
L 281.66544 467.58363 
L 281.878793 467.817073 
L 282.305498 468.411486 
L 282.8465 468.656278 
L 283.70753 468.81591 
L 284.248532 468.88288 
L 287.044976 468.846927 
L 287.692654 468.451559 
L 288.119359 467.450507 
L 288.226035 467.523696 
L 288.767037 468.438499 
L 289.201362 468.521094 
L 289.521391 468.699655 
L 289.84142 468.576792 
L 290.382422 468.305997 
L 290.702451 467.857457 
L 290.923423 467.992447 
L 291.243452 468.354427 
L 291.563481 468.249677 
L 291.784454 468.014096 
L 291.997806 467.009702 
L 292.211159 464.020771 
L 292.645484 455.771486 
L 292.75216 455.460812 
L 293.178866 456.545664 
L 293.293162 456.677272 
L 293.506515 458.330223 
L 294.039896 464.506196 
L 294.260869 465.007675 
L 294.474221 464.970361 
L 295.015223 464.129096 
L 295.121899 464.200575 
L 295.228576 464.020188 
L 295.441928 461.579688 
L 295.761957 456.140501 
L 295.876253 456.472164 
L 296.516311 465.606246 
L 296.622988 465.586151 
L 296.84396 464.793239 
L 297.163989 463.548055 
L 297.491638 462.857715 
L 297.811667 461.954456 
L 297.918343 462.333188 
L 298.459345 465.951474 
L 298.566021 465.675509 
L 298.779374 463.374236 
L 299.213699 456.814049 
L 299.320375 457.120992 
L 299.853757 462.558663 
L 300.074729 460.315653 
L 300.829084 443.911533 
L 301.362465 417.192009 
L 301.469142 417.54913 
L 301.79679 422.183472 
L 302.010143 427.904764 
L 302.764497 457.822564 
L 302.871174 457.950713 
L 303.084526 457.394664 
L 303.191203 457.840871 
L 303.412175 461.142925 
L 303.83888 468.166421 
L 304.052233 469.03536 
L 304.273206 469.197907 
L 305.02756 469.219946 
L 305.454265 469.059575 
L 306.101943 469.33519 
L 306.749621 469.060508 
L 307.176326 469.310237 
L 308.685034 469.150294 
L 309.332712 469.297021 
L 309.866094 468.993072 
L 310.407095 469.369938 
L 310.727124 469.21637 
L 311.054773 469.04154 
L 311.374802 469.15247 
L 311.702451 469.257842 
L 312.235833 469.219596 
L 312.563482 469.184614 
L 312.990187 469.065056 
L 313.744541 469.261301 
L 314.171246 468.995209 
L 314.818924 469.259164 
L 315.359926 469.109443 
L 316.434309 469.114535 
L 316.761958 469.006792 
L 317.188663 469.113136 
L 317.729665 468.974726 
L 318.15637 468.910554 
L 318.369723 468.688267 
L 319.0174 467.73098 
L 319.558402 468.104193 
L 320.099403 467.986966 
L 320.419432 468.59506 
L 320.739461 469.081536 
L 320.960434 469.113874 
L 321.821464 468.733898 
L 322.034817 468.241631 
L 322.354846 467.272762 
L 322.461522 467.228413 
L 322.682495 467.703306 
L 323.002524 468.546631 
L 323.215877 468.705991 
L 323.756878 468.821779 
L 324.183583 469.006326 
L 324.617909 468.893102 
L 324.831261 468.853962 
L 325.585615 469.06867 
L 326.33997 468.995481 
L 326.659999 469.161255 
L 327.635325 468.964542 
L 328.168707 469.141743 
L 328.603032 468.846849 
L 329.25071 469.045816 
L 330.11174 468.934186 
L 330.325093 468.949306 
L 331.186123 468.216717 
L 331.399476 468.006556 
L 331.612829 468.314781 
L 332.047154 469.30188 
L 332.367183 469.437802 
L 334.950275 469.444293 
L 344.642582 469.38809 
L 344.855935 469.190211 
L 345.396937 468.431425 
L 345.716966 468.67614 
L 346.151291 468.916229 
L 346.684672 468.993188 
L 347.873352 468.890537 
L 348.193381 468.865817 
L 349.702089 469.204476 
L 350.456443 469.22943 
L 350.997445 469.283884 
L 351.530826 469.227603 
L 351.965152 469.290375 
L 352.391857 469.293135 
L 352.826182 469.226281 
L 353.359564 469.34036 
L 353.900565 469.224066 
L 354.441567 469.345995 
L 355.081625 469.254344 
L 355.51595 469.330215 
L 356.163628 469.246337 
L 356.697009 469.276771 
L 358.853396 469.035516 
L 359.066748 468.574655 
L 359.280101 467.270236 
L 359.60775 464.993838 
L 359.714426 465.125523 
L 360.46878 469.389878 
L 360.895486 469.443633 
L 361.543163 469.333713 
L 361.977488 469.188618 
L 365.74164 469.354119 
L 366.709346 469.079631 
L 367.143671 469.130354 
L 367.677053 469.099299 
L 369.292438 469.28163 
L 373.818563 469.330992 
L 374.351945 469.297915 
L 375.6473 469.260174 
L 375.967329 469.221967 
L 376.615007 469.426647 
L 378.878069 469.312063 
L 380.059129 469.442777 
L 384.044252 469.444293 
L 392.227852 469.444293 
L 392.227852 469.444293 
" clip-path="url(#pcd40344291)" style="fill: none; stroke: #ffa500; stroke-linecap: square"/>
   </g>
   <g id="line2d_67">
    <path d="M 176.909269 469.444293 
L 194.891853 469.498748 
L 194.99853 469.624448 
L 195.105206 469.960969 
L 195.318559 472.261465 
L 195.539531 478.710916 
L 196.293885 511.597241 
L 196.400562 511.970455 
L 196.613914 506.047164 
L 196.933943 495.599684 
L 197.04062 495.961237 
L 197.261592 499.156208 
L 197.368268 498.643031 
L 197.581621 489.675771 
L 197.90165 473.604869 
L 198.122623 470.131445 
L 198.335975 469.505705 
L 198.656004 469.444799 
L 211.899111 469.480635 
L 212.440112 469.683372 
L 212.973494 469.918059 
L 213.407819 469.982735 
L 213.727848 470.542905 
L 214.375526 471.894627 
L 214.588878 472.619831 
L 214.703175 472.659127 
L 214.916527 471.742419 
L 215.236556 469.92867 
L 215.449909 469.525217 
L 215.777558 469.446042 
L 224.281186 469.444293 
L 282.526471 469.506483 
L 282.739823 469.757572 
L 283.387501 471.017292 
L 284.248532 470.188038 
L 285.429591 469.955411 
L 286.831623 469.882416 
L 287.151652 469.860806 
L 287.479301 469.949037 
L 288.012683 469.836746 
L 288.553684 469.93244 
L 288.98039 469.851944 
L 289.414715 470.205101 
L 290.062393 470.901853 
L 290.489098 470.454169 
L 291.030099 469.981958 
L 291.350128 470.027473 
L 291.677777 470.092966 
L 292.317835 469.867957 
L 292.858837 470.041737 
L 293.506515 469.85859 
L 293.93322 470.05985 
L 294.687574 469.934539 
L 295.015223 470.124838 
L 295.655281 470.061638 
L 296.196282 470.552039 
L 296.409635 471.841377 
L 296.737284 477.893244 
L 297.057313 482.834839 
L 297.163989 483.017132 
L 297.377342 482.890654 
L 297.598314 483.086084 
L 297.704991 482.74999 
L 298.02502 479.098472 
L 298.238372 477.338439 
L 298.672698 476.065853 
L 299.320375 470.500888 
L 299.640404 470.196472 
L 299.853757 470.133933 
L 300.288082 470.203196 
L 300.608111 470.081539 
L 301.042436 470.196627 
L 301.469142 470.093005 
L 301.903467 470.182285 
L 302.330172 470.166582 
L 302.551145 470.562572 
L 302.764497 472.148942 
L 303.297879 479.530726 
L 303.412175 479.082613 
L 303.945557 473.574902 
L 304.166529 473.357667 
L 304.379882 473.490713 
L 304.486558 473.273595 
L 305.134236 470.563738 
L 305.560941 470.327147 
L 306.749621 470.743232 
L 306.962973 471.2224 
L 307.176326 472.694147 
L 307.93068 479.94063 
L 308.365005 481.629301 
L 308.578358 482.07065 
L 308.685034 481.433755 
L 309.332712 473.714983 
L 309.546065 473.546528 
L 309.759418 473.895526 
L 309.97277 475.318805 
L 310.193743 479.868802 
L 310.833801 503.854371 
L 310.948097 502.366572 
L 311.374802 488.714559 
L 311.481479 488.961139 
L 312.02248 498.873753 
L 312.342509 498.353695 
L 312.449185 498.241133 
L 312.563482 497.393921 
L 312.776834 491.674611 
L 313.20354 477.107833 
L 313.424512 475.576268 
L 313.637865 475.63939 
L 313.744541 475.352542 
L 314.06457 472.480799 
L 314.392219 470.558141 
L 314.925601 469.673616 
L 315.146573 469.632843 
L 315.786631 470.000226 
L 316.327633 469.754734 
L 317.081987 470.090673 
L 317.402016 471.014222 
L 317.729665 471.971081 
L 317.836341 472.054997 
L 317.943017 471.918531 
L 318.590695 469.998438 
L 318.910724 470.095687 
L 319.558402 469.707509 
L 319.985107 469.883971 
L 320.312756 469.912462 
L 320.739461 470.039639 
L 321.173787 469.788511 
L 321.387139 469.736544 
L 321.600492 469.89431 
L 321.928141 470.216256 
L 322.141493 470.091294 
L 322.461522 469.862555 
L 323.756878 470.089545 
L 323.970231 470.054447 
L 324.511232 470.422996 
L 324.724585 470.707007 
L 325.044614 471.86602 
L 325.585615 474.265513 
L 325.692292 474.312894 
L 325.913264 473.799638 
L 326.446646 471.663982 
L 326.774295 470.307247 
L 326.987647 470.002403 
L 327.307676 470.023392 
L 327.635325 470.017017 
L 328.062031 469.84281 
L 328.923061 469.969365 
L 329.25071 469.740042 
L 329.570739 469.878219 
L 329.890768 469.987555 
L 330.431769 469.861894 
L 330.751798 469.728887 
L 330.972771 469.882222 
L 331.2928 470.09316 
L 331.833801 469.820111 
L 332.694832 470.058684 
L 333.014861 469.92385 
L 333.769215 470.402863 
L 334.19592 470.963848 
L 334.310216 470.865473 
L 334.950275 469.504733 
L 335.3846 469.444682 
L 347.439027 469.496338 
L 347.659999 469.708598 
L 348.300057 470.769002 
L 349.054411 470.107153 
L 349.488736 470.068207 
L 350.022118 470.121806 
L 350.669796 470.320928 
L 350.997445 469.962524 
L 351.317474 469.756017 
L 351.858475 469.73977 
L 352.285181 469.687725 
L 352.826182 469.732968 
L 353.359564 469.670856 
L 353.900565 469.694799 
L 354.441567 469.657836 
L 354.974948 469.672683 
L 355.622626 469.650489 
L 356.590333 469.62919 
L 358.312394 469.69305 
L 358.853396 469.619745 
L 359.280101 469.682012 
L 359.714426 469.693439 
L 360.141131 469.647186 
L 360.788809 469.726749 
L 361.223134 469.748943 
L 361.756516 470.104276 
L 361.977488 470.465518 
L 362.190841 471.298387 
L 362.731843 474.172424 
L 362.838519 474.009138 
L 363.158548 471.617923 
L 363.478577 469.944489 
L 363.699549 469.689552 
L 364.339608 469.563425 
L 365.634963 469.576368 
L 366.175965 469.534623 
L 366.709346 469.580216 
L 367.143671 469.605325 
L 367.791349 469.913667 
L 368.538084 469.78614 
L 368.972409 469.928125 
L 369.833439 469.598251 
L 370.374441 469.567545 
L 370.907823 469.646486 
L 371.662177 469.514451 
L 372.309854 469.662033 
L 373.064209 469.494705 
L 373.925239 469.625147 
L 374.572917 469.513634 
L 375.212975 469.565096 
L 376.401654 469.56358 
L 376.942656 469.502246 
L 377.68939 469.636341 
L 378.337068 469.465049 
L 378.771393 469.614886 
L 379.091422 469.688075 
L 379.952453 469.501002 
L 380.706807 469.644076 
L 382.863193 469.49731 
L 383.503251 469.44441 
L 392.227852 469.444293 
L 392.227852 469.444293 
" clip-path="url(#pcd40344291)" style="fill: none; stroke: #ffa500; stroke-linecap: square"/>
   </g>
   <g id="line2d_68">
    <path d="M 69.91 469.444293 
L 709.2 469.444293 
" clip-path="url(#pcd40344291)" style="fill: none; stroke-dasharray: 5.55,2.4; stroke-dashoffset: 0; stroke: #000000; stroke-opacity: 0.3; stroke-width: 1.5"/>
   </g>
   <g id="patch_21">
    <path d="M 69.91 517.16 
L 69.91 402.99 
" style="fill: none; stroke: #000000; stroke-width: 0.8; stroke-linejoin: miter; stroke-linecap: square"/>
   </g>
   <g id="patch_22">
    <path d="M 709.2 517.16 
L 709.2 402.99 
" style="fill: none; stroke: #000000; stroke-width: 0.8; stroke-linejoin: miter; stroke-linecap: square"/>
   </g>
   <g id="patch_23">
    <path d="M 69.91 517.16 
L 709.2 517.16 
" style="fill: none; stroke: #000000; stroke-width: 0.8; stroke-linejoin: miter; stroke-linecap: square"/>
   </g>
   <g id="patch_24">
    <path d="M 69.91 402.99 
L 709.2 402.99 
" style="fill: none; stroke: #000000; stroke-width: 0.8; stroke-linejoin: miter; stroke-linecap: square"/>
   </g>
   <g id="legend_4">
    <g id="patch_25">
     <path d="M 631.601562 440.34625 
L 702.2 440.34625 
Q 704.2 440.34625 704.2 438.34625 
L 704.2 409.99 
Q 704.2 407.99 702.2 407.99 
L 631.601562 407.99 
Q 629.601562 407.99 629.601562 409.99 
L 629.601562 438.34625 
Q 629.601562 440.34625 631.601562 440.34625 
z
" style="fill: #ffffff; opacity: 0.8; stroke: #cccccc; stroke-linejoin: miter"/>
    </g>
    <g id="line2d_69">
     <path d="M 633.601562 416.088438 
L 643.601562 416.088438 
L 653.601562 416.088438 
" style="fill: none; stroke: #ffa500; stroke-linecap: square"/>
    </g>
    <g id="text_30">
     <!-- up O all -->
     <g transform="translate(661.601562 419.588438)scale(0.1 -0.1)">
      <use xlink:href="#DejaVuSans-75"/>
      <use xlink:href="#DejaVuSans-70" x="63.378906"/>
      <use xlink:href="#DejaVuSans-20" x="126.855469"/>
      <use xlink:href="#DejaVuSans-4f" x="158.642578"/>
      <use xlink:href="#DejaVuSans-20" x="237.353516"/>
      <use xlink:href="#DejaVuSans-61" x="269.140625"/>
      <use xlink:href="#DejaVuSans-6c" x="330.419922"/>
      <use xlink:href="#DejaVuSans-6c" x="358.203125"/>
     </g>
    </g>
    <g id="line2d_70">
     <path d="M 633.601562 430.766563 
L 643.601562 430.766563 
L 653.601562 430.766563 
" style="fill: none; stroke: #ffa500; stroke-linecap: square"/>
    </g>
    <g id="text_31">
     <!-- up O all -->
     <g transform="translate(661.601562 434.266563)scale(0.1 -0.1)">
      <use xlink:href="#DejaVuSans-75"/>
      <use xlink:href="#DejaVuSans-70" x="63.378906"/>
      <use xlink:href="#DejaVuSans-20" x="126.855469"/>
      <use xlink:href="#DejaVuSans-4f" x="158.642578"/>
      <use xlink:href="#DejaVuSans-20" x="237.353516"/>
      <use xlink:href="#DejaVuSans-61" x="269.140625"/>
      <use xlink:href="#DejaVuSans-6c" x="330.419922"/>
      <use xlink:href="#DejaVuSans-6c" x="358.203125"/>
     </g>
    </g>
   </g>
  </g>
  <g id="text_32">
   <!-- Density of States -->
   <g transform="translate(188.615625 41.91375)scale(0.4 -0.4)">
    <defs>
     <path id="DejaVuSans-73" d="M 2834 3397 
L 2834 2853 
Q 2591 2978 2328 3040 
Q 2066 3103 1784 3103 
Q 1356 3103 1142 2972 
Q 928 2841 928 2578 
Q 928 2378 1081 2264 
Q 1234 2150 1697 2047 
L 1894 2003 
Q 2506 1872 2764 1633 
Q 3022 1394 3022 966 
Q 3022 478 2636 193 
Q 2250 -91 1575 -91 
Q 1294 -91 989 -36 
Q 684 19 347 128 
L 347 722 
Q 666 556 975 473 
Q 1284 391 1588 391 
Q 1994 391 2212 530 
Q 2431 669 2431 922 
Q 2431 1156 2273 1281 
Q 2116 1406 1581 1522 
L 1381 1569 
Q 847 1681 609 1914 
Q 372 2147 372 2553 
Q 372 3047 722 3315 
Q 1072 3584 1716 3584 
Q 2034 3584 2315 3537 
Q 2597 3491 2834 3397 
z
" transform="scale(0.015625)"/>
     <path id="DejaVuSans-69" d="M 603 3500 
L 1178 3500 
L 1178 0 
L 603 0 
L 603 3500 
z
M 603 4863 
L 1178 4863 
L 1178 4134 
L 603 4134 
L 603 4863 
z
" transform="scale(0.015625)"/>
     <path id="DejaVuSans-74" d="M 1172 4494 
L 1172 3500 
L 2356 3500 
L 2356 3053 
L 1172 3053 
L 1172 1153 
Q 1172 725 1289 603 
Q 1406 481 1766 481 
L 2356 481 
L 2356 0 
L 1766 0 
Q 1100 0 847 248 
Q 594 497 594 1153 
L 594 3053 
L 172 3053 
L 172 3500 
L 594 3500 
L 594 4494 
L 1172 4494 
z
" transform="scale(0.015625)"/>
     <path id="DejaVuSans-79" d="M 2059 -325 
Q 1816 -950 1584 -1140 
Q 1353 -1331 966 -1331 
L 506 -1331 
L 506 -850 
L 844 -850 
Q 1081 -850 1212 -737 
Q 1344 -625 1503 -206 
L 1606 56 
L 191 3500 
L 800 3500 
L 1894 763 
L 2988 3500 
L 3597 3500 
L 2059 -325 
z
" transform="scale(0.015625)"/>
     <path id="DejaVuSans-66" d="M 2375 4863 
L 2375 4384 
L 1825 4384 
Q 1516 4384 1395 4259 
Q 1275 4134 1275 3809 
L 1275 3500 
L 2222 3500 
L 2222 3053 
L 1275 3053 
L 1275 0 
L 697 0 
L 697 3053 
L 147 3053 
L 147 3500 
L 697 3500 
L 697 3744 
Q 697 4328 969 4595 
Q 1241 4863 1831 4863 
L 2375 4863 
z
" transform="scale(0.015625)"/>
    </defs>
    <use xlink:href="#DejaVuSans-44"/>
    <use xlink:href="#DejaVuSans-65" x="77.001953"/>
    <use xlink:href="#DejaVuSans-6e" x="138.525391"/>
    <use xlink:href="#DejaVuSans-73" x="201.904297"/>
    <use xlink:href="#DejaVuSans-69" x="254.003906"/>
    <use xlink:href="#DejaVuSans-74" x="281.787109"/>
    <use xlink:href="#DejaVuSans-79" x="320.996094"/>
    <use xlink:href="#DejaVuSans-20" x="380.175781"/>
    <use xlink:href="#DejaVuSans-6f" x="411.962891"/>
    <use xlink:href="#DejaVuSans-66" x="473.144531"/>
    <use xlink:href="#DejaVuSans-20" x="508.349609"/>
    <use xlink:href="#DejaVuSans-53" x="540.136719"/>
    <use xlink:href="#DejaVuSans-74" x="603.613281"/>
    <use xlink:href="#DejaVuSans-61" x="642.822266"/>
    <use xlink:href="#DejaVuSans-74" x="704.101562"/>
    <use xlink:href="#DejaVuSans-65" x="743.310547"/>
    <use xlink:href="#DejaVuSans-73" x="804.833984"/>
   </g>
  </g>
  <g id="text_33">
   <!-- Energy (ev) -->
   <g transform="translate(301.934375 566.080625)scale(0.2 -0.2)">
    <defs>
     <path id="DejaVuSans-45" d="M 628 4666 
L 3578 4666 
L 3578 4134 
L 1259 4134 
L 1259 2753 
L 3481 2753 
L 3481 2222 
L 1259 2222 
L 1259 531 
L 3634 531 
L 3634 0 
L 628 0 
L 628 4666 
z
" transform="scale(0.015625)"/>
     <path id="DejaVuSans-72" d="M 2631 2963 
Q 2534 3019 2420 3045 
Q 2306 3072 2169 3072 
Q 1681 3072 1420 2755 
Q 1159 2438 1159 1844 
L 1159 0 
L 581 0 
L 581 3500 
L 1159 3500 
L 1159 2956 
Q 1341 3275 1631 3429 
Q 1922 3584 2338 3584 
Q 2397 3584 2469 3576 
Q 2541 3569 2628 3553 
L 2631 2963 
z
" transform="scale(0.015625)"/>
     <path id="DejaVuSans-67" d="M 2906 1791 
Q 2906 2416 2648 2759 
Q 2391 3103 1925 3103 
Q 1463 3103 1205 2759 
Q 947 2416 947 1791 
Q 947 1169 1205 825 
Q 1463 481 1925 481 
Q 2391 481 2648 825 
Q 2906 1169 2906 1791 
z
M 3481 434 
Q 3481 -459 3084 -895 
Q 2688 -1331 1869 -1331 
Q 1566 -1331 1297 -1286 
Q 1028 -1241 775 -1147 
L 775 -588 
Q 1028 -725 1275 -790 
Q 1522 -856 1778 -856 
Q 2344 -856 2625 -561 
Q 2906 -266 2906 331 
L 2906 616 
Q 2728 306 2450 153 
Q 2172 0 1784 0 
Q 1141 0 747 490 
Q 353 981 353 1791 
Q 353 2603 747 3093 
Q 1141 3584 1784 3584 
Q 2172 3584 2450 3431 
Q 2728 3278 2906 2969 
L 2906 3500 
L 3481 3500 
L 3481 434 
z
" transform="scale(0.015625)"/>
     <path id="DejaVuSans-28" d="M 1984 4856 
Q 1566 4138 1362 3434 
Q 1159 2731 1159 2009 
Q 1159 1288 1364 580 
Q 1569 -128 1984 -844 
L 1484 -844 
Q 1016 -109 783 600 
Q 550 1309 550 2009 
Q 550 2706 781 3412 
Q 1013 4119 1484 4856 
L 1984 4856 
z
" transform="scale(0.015625)"/>
     <path id="DejaVuSans-76" d="M 191 3500 
L 800 3500 
L 1894 563 
L 2988 3500 
L 3597 3500 
L 2284 0 
L 1503 0 
L 191 3500 
z
" transform="scale(0.015625)"/>
     <path id="DejaVuSans-29" d="M 513 4856 
L 1013 4856 
Q 1481 4119 1714 3412 
Q 1947 2706 1947 2009 
Q 1947 1309 1714 600 
Q 1481 -109 1013 -844 
L 513 -844 
Q 928 -128 1133 580 
Q 1338 1288 1338 2009 
Q 1338 2731 1133 3434 
Q 928 4138 513 4856 
z
" transform="scale(0.015625)"/>
    </defs>
    <use xlink:href="#DejaVuSans-45"/>
    <use xlink:href="#DejaVuSans-6e" x="63.183594"/>
    <use xlink:href="#DejaVuSans-65" x="126.5625"/>
    <use xlink:href="#DejaVuSans-72" x="188.085938"/>
    <use xlink:href="#DejaVuSans-67" x="227.449219"/>
    <use xlink:href="#DejaVuSans-79" x="290.925781"/>
    <use xlink:href="#DejaVuSans-20" x="350.105469"/>
    <use xlink:href="#DejaVuSans-28" x="381.892578"/>
    <use xlink:href="#DejaVuSans-65" x="420.90625"/>
    <use xlink:href="#DejaVuSans-76" x="482.429688"/>
    <use xlink:href="#DejaVuSans-29" x="541.609375"/>
   </g>
  </g>
  <g id="text_34">
   <!-- arbitrary -->
   <g transform="translate(29.596875 331.554688)rotate(-90)scale(0.2 -0.2)">
    <defs>
     <path id="DejaVuSans-62" d="M 3116 1747 
Q 3116 2381 2855 2742 
Q 2594 3103 2138 3103 
Q 1681 3103 1420 2742 
Q 1159 2381 1159 1747 
Q 1159 1113 1420 752 
Q 1681 391 2138 391 
Q 2594 391 2855 752 
Q 3116 1113 3116 1747 
z
M 1159 2969 
Q 1341 3281 1617 3432 
Q 1894 3584 2278 3584 
Q 2916 3584 3314 3078 
Q 3713 2572 3713 1747 
Q 3713 922 3314 415 
Q 2916 -91 2278 -91 
Q 1894 -91 1617 61 
Q 1341 213 1159 525 
L 1159 0 
L 581 0 
L 581 4863 
L 1159 4863 
L 1159 2969 
z
" transform="scale(0.015625)"/>
    </defs>
    <use xlink:href="#DejaVuSans-61"/>
    <use xlink:href="#DejaVuSans-72" x="61.279297"/>
    <use xlink:href="#DejaVuSans-62" x="102.392578"/>
    <use xlink:href="#DejaVuSans-69" x="165.869141"/>
    <use xlink:href="#DejaVuSans-74" x="193.652344"/>
    <use xlink:href="#DejaVuSans-72" x="232.861328"/>
    <use xlink:href="#DejaVuSans-61" x="273.974609"/>
    <use xlink:href="#DejaVuSans-72" x="335.253906"/>
    <use xlink:href="#DejaVuSans-79" x="376.367188"/>
   </g>
  </g>
 </g>
 <defs>
  <clipPath id="p4db29ba3d0">
   <rect x="69.91" y="60.48" width="639.29" height="114.17"/>
  </clipPath>
  <clipPath id="p170a54b6b4">
   <rect x="69.91" y="174.65" width="639.29" height="114.17"/>
  </clipPath>
  <clipPath id="p5b2fd8ce95">
   <rect x="69.91" y="288.82" width="639.29" height="114.17"/>
  </clipPath>
  <clipPath id="pcd40344291">
   <rect x="69.91" y="402.99" width="639.29" height="114.17"/>
  </clipPath>
 </defs>
</svg>
