<?xml version="1.0" encoding="utf-8" standalone="no"?>
<!DOCTYPE svg PUBLIC "-//W3C//DTD SVG 1.1//EN"
  "http://www.w3.org/Graphics/SVG/1.1/DTD/svg11.dtd">
<svg xmlns:xlink="http://www.w3.org/1999/xlink" width="720pt" height="576pt" viewBox="0 0 720 576" xmlns="http://www.w3.org/2000/svg" version="1.1">
 <metadata>
  <rdf:RDF xmlns:dc="http://purl.org/dc/elements/1.1/" xmlns:cc="http://creativecommons.org/ns#" xmlns:rdf="http://www.w3.org/1999/02/22-rdf-syntax-ns#">
   <cc:Work>
    <dc:type rdf:resource="http://purl.org/dc/dcmitype/StillImage"/>
    <dc:date>2022-03-10T11:36:05.522084</dc:date>
    <dc:format>image/svg+xml</dc:format>
    <dc:creator>
     <cc:Agent>
      <dc:title>Matplotlib v3.5.1, https://matplotlib.org/</dc:title>
     </cc:Agent>
    </dc:creator>
   </cc:Work>
  </rdf:RDF>
 </metadata>
 <defs>
  <style type="text/css">*{stroke-linejoin: round; stroke-linecap: butt}</style>
 </defs>
 <g id="figure_1">
  <g id="patch_1">
   <path d="M 0 576 
L 720 576 
L 720 0 
L 0 0 
z
" style="fill: #ffffff"/>
  </g>
  <g id="axes_1">
   <g id="patch_2">
    <path d="M 61.54 250.04 
L 709.2 250.04 
L 709.2 10.8 
L 61.54 10.8 
z
" style="fill: #ffffff"/>
   </g>
   <g id="matplotlib.axis_1">
    <g id="xtick_1">
     <g id="line2d_1">
      <defs>
       <path id="m88f8ee2219" d="M 0 0 
L 0 3.5 
" style="stroke: #000000; stroke-width: 0.8"/>
      </defs>
      <g>
       <use xlink:href="#m88f8ee2219" x="90.979091" y="250.04" style="stroke: #000000; stroke-width: 0.8"/>
      </g>
     </g>
     <g id="text_1">
      <!-- 0 -->
      <g transform="translate(87.797841 264.638438)scale(0.1 -0.1)">
       <defs>
        <path id="DejaVuSans-30" d="M 2034 4250 
Q 1547 4250 1301 3770 
Q 1056 3291 1056 2328 
Q 1056 1369 1301 889 
Q 1547 409 2034 409 
Q 2525 409 2770 889 
Q 3016 1369 3016 2328 
Q 3016 3291 2770 3770 
Q 2525 4250 2034 4250 
z
M 2034 4750 
Q 2819 4750 3233 4129 
Q 3647 3509 3647 2328 
Q 3647 1150 3233 529 
Q 2819 -91 2034 -91 
Q 1250 -91 836 529 
Q 422 1150 422 2328 
Q 422 3509 836 4129 
Q 1250 4750 2034 4750 
z
" transform="scale(0.015625)"/>
       </defs>
       <use xlink:href="#DejaVuSans-30"/>
      </g>
     </g>
    </g>
    <g id="xtick_2">
     <g id="line2d_2">
      <g>
       <use xlink:href="#m88f8ee2219" x="232.501785" y="250.04" style="stroke: #000000; stroke-width: 0.8"/>
      </g>
     </g>
     <g id="text_2">
      <!-- 20 -->
      <g transform="translate(226.139285 264.638438)scale(0.1 -0.1)">
       <defs>
        <path id="DejaVuSans-32" d="M 1228 531 
L 3431 531 
L 3431 0 
L 469 0 
L 469 531 
Q 828 903 1448 1529 
Q 2069 2156 2228 2338 
Q 2531 2678 2651 2914 
Q 2772 3150 2772 3378 
Q 2772 3750 2511 3984 
Q 2250 4219 1831 4219 
Q 1534 4219 1204 4116 
Q 875 4013 500 3803 
L 500 4441 
Q 881 4594 1212 4672 
Q 1544 4750 1819 4750 
Q 2544 4750 2975 4387 
Q 3406 4025 3406 3419 
Q 3406 3131 3298 2873 
Q 3191 2616 2906 2266 
Q 2828 2175 2409 1742 
Q 1991 1309 1228 531 
z
" transform="scale(0.015625)"/>
       </defs>
       <use xlink:href="#DejaVuSans-32"/>
       <use xlink:href="#DejaVuSans-30" x="63.623047"/>
      </g>
     </g>
    </g>
    <g id="xtick_3">
     <g id="line2d_3">
      <g>
       <use xlink:href="#m88f8ee2219" x="374.024479" y="250.04" style="stroke: #000000; stroke-width: 0.8"/>
      </g>
     </g>
     <g id="text_3">
      <!-- 40 -->
      <g transform="translate(367.661979 264.638438)scale(0.1 -0.1)">
       <defs>
        <path id="DejaVuSans-34" d="M 2419 4116 
L 825 1625 
L 2419 1625 
L 2419 4116 
z
M 2253 4666 
L 3047 4666 
L 3047 1625 
L 3713 1625 
L 3713 1100 
L 3047 1100 
L 3047 0 
L 2419 0 
L 2419 1100 
L 313 1100 
L 313 1709 
L 2253 4666 
z
" transform="scale(0.015625)"/>
       </defs>
       <use xlink:href="#DejaVuSans-34"/>
       <use xlink:href="#DejaVuSans-30" x="63.623047"/>
      </g>
     </g>
    </g>
    <g id="xtick_4">
     <g id="line2d_4">
      <g>
       <use xlink:href="#m88f8ee2219" x="515.547174" y="250.04" style="stroke: #000000; stroke-width: 0.8"/>
      </g>
     </g>
     <g id="text_4">
      <!-- 60 -->
      <g transform="translate(509.184674 264.638438)scale(0.1 -0.1)">
       <defs>
        <path id="DejaVuSans-36" d="M 2113 2584 
Q 1688 2584 1439 2293 
Q 1191 2003 1191 1497 
Q 1191 994 1439 701 
Q 1688 409 2113 409 
Q 2538 409 2786 701 
Q 3034 994 3034 1497 
Q 3034 2003 2786 2293 
Q 2538 2584 2113 2584 
z
M 3366 4563 
L 3366 3988 
Q 3128 4100 2886 4159 
Q 2644 4219 2406 4219 
Q 1781 4219 1451 3797 
Q 1122 3375 1075 2522 
Q 1259 2794 1537 2939 
Q 1816 3084 2150 3084 
Q 2853 3084 3261 2657 
Q 3669 2231 3669 1497 
Q 3669 778 3244 343 
Q 2819 -91 2113 -91 
Q 1303 -91 875 529 
Q 447 1150 447 2328 
Q 447 3434 972 4092 
Q 1497 4750 2381 4750 
Q 2619 4750 2861 4703 
Q 3103 4656 3366 4563 
z
" transform="scale(0.015625)"/>
       </defs>
       <use xlink:href="#DejaVuSans-36"/>
       <use xlink:href="#DejaVuSans-30" x="63.623047"/>
      </g>
     </g>
    </g>
    <g id="xtick_5">
     <g id="line2d_5">
      <g>
       <use xlink:href="#m88f8ee2219" x="657.069868" y="250.04" style="stroke: #000000; stroke-width: 0.8"/>
      </g>
     </g>
     <g id="text_5">
      <!-- 80 -->
      <g transform="translate(650.707368 264.638438)scale(0.1 -0.1)">
       <defs>
        <path id="DejaVuSans-38" d="M 2034 2216 
Q 1584 2216 1326 1975 
Q 1069 1734 1069 1313 
Q 1069 891 1326 650 
Q 1584 409 2034 409 
Q 2484 409 2743 651 
Q 3003 894 3003 1313 
Q 3003 1734 2745 1975 
Q 2488 2216 2034 2216 
z
M 1403 2484 
Q 997 2584 770 2862 
Q 544 3141 544 3541 
Q 544 4100 942 4425 
Q 1341 4750 2034 4750 
Q 2731 4750 3128 4425 
Q 3525 4100 3525 3541 
Q 3525 3141 3298 2862 
Q 3072 2584 2669 2484 
Q 3125 2378 3379 2068 
Q 3634 1759 3634 1313 
Q 3634 634 3220 271 
Q 2806 -91 2034 -91 
Q 1263 -91 848 271 
Q 434 634 434 1313 
Q 434 1759 690 2068 
Q 947 2378 1403 2484 
z
M 1172 3481 
Q 1172 3119 1398 2916 
Q 1625 2713 2034 2713 
Q 2441 2713 2670 2916 
Q 2900 3119 2900 3481 
Q 2900 3844 2670 4047 
Q 2441 4250 2034 4250 
Q 1625 4250 1398 4047 
Q 1172 3844 1172 3481 
z
" transform="scale(0.015625)"/>
       </defs>
       <use xlink:href="#DejaVuSans-38"/>
       <use xlink:href="#DejaVuSans-30" x="63.623047"/>
      </g>
     </g>
    </g>
   </g>
   <g id="matplotlib.axis_2">
    <g id="ytick_1">
     <g id="line2d_6">
      <defs>
       <path id="mcab6aa4a78" d="M 0 0 
L -3.5 0 
" style="stroke: #000000; stroke-width: 0.8"/>
      </defs>
      <g>
       <use xlink:href="#mcab6aa4a78" x="61.54" y="239.165455" style="stroke: #000000; stroke-width: 0.8"/>
      </g>
     </g>
     <g id="text_6">
      <!-- 0 -->
      <g transform="translate(48.1775 242.964673)scale(0.1 -0.1)">
       <use xlink:href="#DejaVuSans-30"/>
      </g>
     </g>
    </g>
    <g id="ytick_2">
     <g id="line2d_7">
      <g>
       <use xlink:href="#mcab6aa4a78" x="61.54" y="211.513758" style="stroke: #000000; stroke-width: 0.8"/>
      </g>
     </g>
     <g id="text_7">
      <!-- 2 -->
      <g transform="translate(48.1775 215.312977)scale(0.1 -0.1)">
       <use xlink:href="#DejaVuSans-32"/>
      </g>
     </g>
    </g>
    <g id="ytick_3">
     <g id="line2d_8">
      <g>
       <use xlink:href="#mcab6aa4a78" x="61.54" y="183.862061" style="stroke: #000000; stroke-width: 0.8"/>
      </g>
     </g>
     <g id="text_8">
      <!-- 4 -->
      <g transform="translate(48.1775 187.66128)scale(0.1 -0.1)">
       <use xlink:href="#DejaVuSans-34"/>
      </g>
     </g>
    </g>
    <g id="ytick_4">
     <g id="line2d_9">
      <g>
       <use xlink:href="#mcab6aa4a78" x="61.54" y="156.210364" style="stroke: #000000; stroke-width: 0.8"/>
      </g>
     </g>
     <g id="text_9">
      <!-- 6 -->
      <g transform="translate(48.1775 160.009583)scale(0.1 -0.1)">
       <use xlink:href="#DejaVuSans-36"/>
      </g>
     </g>
    </g>
    <g id="ytick_5">
     <g id="line2d_10">
      <g>
       <use xlink:href="#mcab6aa4a78" x="61.54" y="128.558668" style="stroke: #000000; stroke-width: 0.8"/>
      </g>
     </g>
     <g id="text_10">
      <!-- 8 -->
      <g transform="translate(48.1775 132.357886)scale(0.1 -0.1)">
       <use xlink:href="#DejaVuSans-38"/>
      </g>
     </g>
    </g>
    <g id="ytick_6">
     <g id="line2d_11">
      <g>
       <use xlink:href="#mcab6aa4a78" x="61.54" y="100.906971" style="stroke: #000000; stroke-width: 0.8"/>
      </g>
     </g>
     <g id="text_11">
      <!-- 10 -->
      <g transform="translate(41.815 104.70619)scale(0.1 -0.1)">
       <defs>
        <path id="DejaVuSans-31" d="M 794 531 
L 1825 531 
L 1825 4091 
L 703 3866 
L 703 4441 
L 1819 4666 
L 2450 4666 
L 2450 531 
L 3481 531 
L 3481 0 
L 794 0 
L 794 531 
z
" transform="scale(0.015625)"/>
       </defs>
       <use xlink:href="#DejaVuSans-31"/>
       <use xlink:href="#DejaVuSans-30" x="63.623047"/>
      </g>
     </g>
    </g>
    <g id="ytick_7">
     <g id="line2d_12">
      <g>
       <use xlink:href="#mcab6aa4a78" x="61.54" y="73.255274" style="stroke: #000000; stroke-width: 0.8"/>
      </g>
     </g>
     <g id="text_12">
      <!-- 12 -->
      <g transform="translate(41.815 77.054493)scale(0.1 -0.1)">
       <use xlink:href="#DejaVuSans-31"/>
       <use xlink:href="#DejaVuSans-32" x="63.623047"/>
      </g>
     </g>
    </g>
    <g id="ytick_8">
     <g id="line2d_13">
      <g>
       <use xlink:href="#mcab6aa4a78" x="61.54" y="45.603577" style="stroke: #000000; stroke-width: 0.8"/>
      </g>
     </g>
     <g id="text_13">
      <!-- 14 -->
      <g transform="translate(41.815 49.402796)scale(0.1 -0.1)">
       <use xlink:href="#DejaVuSans-31"/>
       <use xlink:href="#DejaVuSans-34" x="63.623047"/>
      </g>
     </g>
    </g>
    <g id="ytick_9">
     <g id="line2d_14">
      <g>
       <use xlink:href="#mcab6aa4a78" x="61.54" y="17.95188" style="stroke: #000000; stroke-width: 0.8"/>
      </g>
     </g>
     <g id="text_14">
      <!-- 16 -->
      <g transform="translate(41.815 21.751099)scale(0.1 -0.1)">
       <use xlink:href="#DejaVuSans-31"/>
       <use xlink:href="#DejaVuSans-36" x="63.623047"/>
      </g>
     </g>
    </g>
   </g>
   <g id="line2d_15">
    <path d="M 90.979091 239.165455 
L 91.568533 215.974581 
L 92.747417 216.803468 
L 93.336859 216.703184 
L 93.925593 216.012957 
L 94.515035 214.686967 
L 95.104477 212.668948 
L 95.693919 209.84643 
L 96.283361 206.109294 
L 96.872804 201.296702 
L 97.462246 195.125241 
L 99.230572 172.744665 
L 99.819306 169.180413 
L 100.408748 168.94572 
L 101.587632 172.456873 
L 102.177074 172.650755 
L 102.766516 170.686041 
L 103.355958 167.634663 
L 103.9454 166.328733 
L 104.534842 169.838441 
L 105.124284 178.933423 
L 106.302461 202.948327 
L 106.891903 211.795805 
L 107.481345 217.323501 
L 108.070787 220.219567 
L 108.660229 221.293002 
L 109.249671 221.109917 
L 109.839113 219.998664 
L 110.428555 218.031539 
L 111.017997 215.008878 
L 112.785615 202.072031 
L 113.375057 201.467631 
L 113.964499 204.345082 
L 115.143383 213.04306 
L 115.732825 215.629857 
L 116.322267 216.914087 
L 116.911709 217.465107 
L 117.500444 217.656448 
L 118.089886 217.639422 
L 119.858212 217.282274 
L 121.037096 217.070319 
L 121.626538 216.594016 
L 122.21598 215.628687 
L 123.983598 211.243704 
L 125.162482 209.122251 
L 125.751924 206.942371 
L 126.341367 202.331699 
L 126.930809 193.88761 
L 129.287869 145.861312 
L 129.877311 141.014341 
L 130.466753 134.33716 
L 131.056195 120.289858 
L 132.824521 49.551133 
L 133.413963 45.479089 
L 134.003405 60.701335 
L 135.771024 144.893526 
L 136.360466 162.421571 
L 136.949908 174.343123 
L 137.53935 182.563235 
L 138.128792 188.048383 
L 138.718234 191.664011 
L 139.897118 196.577408 
L 140.48656 198.22974 
L 141.075294 199.314443 
L 141.664736 200.010165 
L 142.254178 200.21235 
L 142.84362 199.704989 
L 143.433062 198.870055 
L 144.022504 198.546687 
L 144.611946 199.357397 
L 145.201388 201.462973 
L 146.380272 207.864809 
L 146.969007 209.957624 
L 147.558449 210.075307 
L 148.147891 208.234347 
L 148.737333 204.948292 
L 149.916217 195.972914 
L 150.505659 189.895574 
L 151.095101 180.471413 
L 151.684543 164.173883 
L 152.273985 137.559327 
L 154.041603 29.750555 
L 154.631045 21.674545 
L 155.220488 38.235658 
L 156.399372 101.720213 
L 156.988814 125.56885 
L 157.578256 141.713611 
L 158.756432 164.86073 
L 159.935316 183.030946 
L 161.1142 196.099142 
L 161.703642 200.993122 
L 162.293084 204.794299 
L 162.882526 207.419024 
L 163.471968 208.829995 
L 164.06141 209.159102 
L 164.650145 208.722468 
L 165.239587 207.909869 
L 165.829029 206.888518 
L 166.418471 205.513982 
L 167.007913 203.489148 
L 167.597355 200.672475 
L 168.776239 193.019209 
L 169.955123 185.192547 
L 170.543857 182.666595 
L 171.133299 181.754751 
L 171.722741 182.540646 
L 172.312183 184.636133 
L 173.491067 189.844641 
L 174.080509 191.803189 
L 174.669951 193.149883 
L 176.43757 196.093797 
L 177.616454 199.264808 
L 179.38478 205.301164 
L 181.742548 213.339768 
L 182.331282 214.812022 
L 182.920724 215.471436 
L 183.510166 215.365367 
L 185.278493 213.649627 
L 185.867935 213.660832 
L 186.457377 214.315887 
L 187.636261 216.84712 
L 188.224995 217.6925 
L 188.814437 217.877304 
L 189.403879 217.587362 
L 189.993321 217.049245 
L 190.582763 216.211983 
L 191.172205 214.917636 
L 191.761647 213.101601 
L 193.529973 206.681121 
L 194.118708 205.38164 
L 194.70815 204.795307 
L 195.297592 204.774974 
L 197.065918 205.811737 
L 197.65536 205.842171 
L 198.244802 205.625068 
L 199.423686 204.925007 
L 200.01242 204.870804 
L 200.601862 205.442896 
L 201.191304 206.755965 
L 202.95963 211.766429 
L 203.549072 212.816504 
L 204.138514 213.480584 
L 204.727956 213.764678 
L 205.317398 213.729651 
L 205.906133 213.438413 
L 206.495575 212.900623 
L 207.085017 211.949455 
L 207.674459 210.443539 
L 208.263901 208.26865 
L 210.032227 200.371158 
L 211.211111 195.984038 
L 211.799845 192.378096 
L 213.568172 176.98773 
L 214.157614 175.279861 
L 214.747056 177.610211 
L 215.336498 183.449394 
L 216.515382 197.247746 
L 217.104824 202.251927 
L 217.693558 206.043197 
L 218.283 208.998781 
L 218.872442 211.035003 
L 219.461884 211.978998 
L 220.051326 211.977648 
L 221.23021 210.968833 
L 221.819652 210.828424 
L 222.409094 211.058163 
L 222.997829 211.415343 
L 223.587271 211.636573 
L 224.176713 211.641756 
L 225.355597 211.3398 
L 225.945039 211.537306 
L 226.534481 212.167944 
L 227.713365 214.143613 
L 228.302807 214.815388 
L 228.891541 214.924342 
L 229.480983 214.380944 
L 230.070425 213.04752 
L 230.659867 210.640119 
L 231.249309 206.878648 
L 233.017635 190.300514 
L 233.607077 187.079481 
L 234.196519 187.279614 
L 234.785254 190.88062 
L 235.964138 201.967979 
L 236.55358 206.081623 
L 237.143022 208.732058 
L 237.732464 210.416663 
L 238.321906 211.58327 
L 238.911348 212.483696 
L 239.50079 213.130995 
L 240.090232 213.591586 
L 241.268408 214.101686 
L 241.85785 214.218596 
L 242.447292 214.06916 
L 243.036735 213.435392 
L 244.805061 209.726038 
L 245.394503 209.199714 
L 245.983945 209.378281 
L 247.162121 210.474672 
L 247.751563 210.460507 
L 248.341005 209.487783 
L 248.930447 207.439293 
L 250.109331 201.584512 
L 250.698773 199.787828 
L 251.288215 199.702485 
L 251.877657 200.825604 
L 253.055834 203.368652 
L 256.003044 208.53902 
L 256.592486 208.974532 
L 257.181928 209.024974 
L 257.77137 208.588561 
L 258.360104 207.583012 
L 258.949546 205.96554 
L 259.538988 203.67566 
L 260.12843 200.576547 
L 261.896756 189.823388 
L 262.486198 188.49095 
L 263.07564 188.772599 
L 263.665082 189.567411 
L 264.253817 189.345431 
L 264.843259 187.348354 
L 265.432701 184.380879 
L 266.022143 182.411251 
L 266.611585 182.959906 
L 267.201027 185.958643 
L 268.379911 193.194875 
L 268.969353 194.879622 
L 269.558795 195.310487 
L 270.147529 195.375919 
L 270.736971 195.751905 
L 271.915856 197.138326 
L 272.505298 197.63184 
L 274.273624 198.52648 
L 275.452508 199.059487 
L 276.041242 199.55429 
L 277.220126 201.374853 
L 277.809568 202.340042 
L 278.39901 202.987264 
L 278.988452 203.268908 
L 280.167336 203.18116 
L 280.756778 203.027835 
L 281.34622 202.741816 
L 281.934955 202.189427 
L 284.292723 199.287606 
L 284.882165 198.208598 
L 285.471607 196.388067 
L 286.061049 193.557815 
L 287.239933 185.155074 
L 288.418109 176.435136 
L 289.007551 173.48564 
L 289.596993 172.047415 
L 290.186435 171.903237 
L 290.775877 172.223185 
L 291.365319 172.258049 
L 292.544203 171.619382 
L 293.133645 171.813516 
L 293.72238 172.86286 
L 294.311822 175.049288 
L 299.027358 199.852548 
L 300.205534 204.870067 
L 300.794976 206.656524 
L 301.384419 208.015792 
L 301.973861 209.04026 
L 302.563303 209.725469 
L 303.742187 210.561771 
L 304.331629 210.784191 
L 304.921071 210.807468 
L 305.509805 210.529352 
L 307.278131 208.954622 
L 309.046457 208.100579 
L 309.635899 207.175479 
L 311.403518 202.360595 
L 311.99296 201.702056 
L 312.582402 201.913089 
L 313.171844 202.460352 
L 313.761286 202.64969 
L 314.350728 202.400473 
L 314.94017 202.488102 
L 315.529612 203.670879 
L 317.29723 210.024198 
L 317.886672 210.561432 
L 318.476114 210.061384 
L 319.065556 208.89194 
L 321.423324 202.574792 
L 322.012766 201.868312 
L 322.602208 201.641864 
L 323.190943 201.549219 
L 323.780385 201.26787 
L 324.369827 200.688884 
L 325.548711 199.227838 
L 326.138153 199.293657 
L 326.727595 200.285521 
L 328.495921 204.79171 
L 329.674097 206.543071 
L 330.852982 207.81333 
L 332.031866 208.817896 
L 332.621308 208.943049 
L 333.21075 208.700679 
L 334.978368 206.858402 
L 335.56781 206.69661 
L 336.746694 206.945056 
L 337.336136 206.725723 
L 337.925578 205.958854 
L 340.283346 201.395204 
L 341.461523 200.382085 
L 342.640407 199.79816 
L 343.229849 199.708722 
L 344.408733 199.792982 
L 344.998175 199.645369 
L 345.587617 199.145082 
L 347.355235 196.221374 
L 347.944677 195.71323 
L 348.534119 195.557937 
L 349.123561 195.520748 
L 349.713003 195.246489 
L 350.891887 194.160584 
L 351.481329 194.032694 
L 352.070064 194.532401 
L 352.659506 195.695025 
L 354.427832 200.535889 
L 355.606716 202.633832 
L 358.553218 206.716318 
L 359.14266 207.334685 
L 359.732103 207.705408 
L 360.321545 207.606175 
L 360.910987 206.813673 
L 362.679313 202.342723 
L 363.268755 201.981453 
L 363.857489 202.346048 
L 365.036373 203.621658 
L 365.625815 204.089366 
L 366.215257 204.36772 
L 367.394141 204.607814 
L 368.573025 204.496108 
L 369.162467 204.036208 
L 369.751202 203.154481 
L 370.340644 201.75279 
L 372.10897 196.660495 
L 372.698412 195.636946 
L 373.287854 195.484695 
L 373.877296 196.14345 
L 375.05618 198.419777 
L 375.644914 199.157897 
L 376.234356 199.373409 
L 376.823798 199.16163 
L 378.002682 198.340202 
L 378.592124 198.292183 
L 380.36045 198.98197 
L 380.949892 198.835507 
L 381.538627 198.119898 
L 382.128069 196.499025 
L 383.306953 191.250763 
L 383.896395 189.593081 
L 384.485837 190.233365 
L 385.075279 193.023147 
L 386.254163 199.862216 
L 386.843605 202.008786 
L 387.432339 203.345332 
L 390.37955 208.19173 
L 391.558434 209.619474 
L 392.737318 210.531312 
L 393.326052 210.795603 
L 393.915494 210.88337 
L 394.504936 210.757957 
L 395.094378 210.275612 
L 395.68382 209.542114 
L 397.452146 206.795018 
L 398.041588 206.448053 
L 398.63103 206.566407 
L 399.219765 207.152991 
L 400.988091 209.546868 
L 401.577533 210.11035 
L 402.756417 210.769945 
L 403.345859 210.900476 
L 403.935301 210.884756 
L 404.524743 210.611584 
L 405.113477 209.895814 
L 405.702919 208.662699 
L 406.881803 205.785752 
L 407.471245 204.951732 
L 408.060687 204.81625 
L 409.239571 205.543862 
L 409.829013 205.557394 
L 411.00719 204.952465 
L 411.596632 205.040541 
L 412.186074 205.652544 
L 412.775516 206.45497 
L 413.364958 206.960354 
L 413.9544 206.865028 
L 414.543842 206.16611 
L 415.133284 205.277209 
L 415.722726 204.83991 
L 416.312168 205.536987 
L 416.900902 207.377863 
L 417.490344 209.612561 
L 418.079787 211.401558 
L 418.669229 212.237755 
L 419.258671 211.958154 
L 419.848113 210.558233 
L 421.026997 206.44439 
L 421.616439 205.887473 
L 422.205881 207.259576 
L 423.973499 214.635455 
L 424.562941 215.695565 
L 425.152383 216.049551 
L 427.510151 216.286542 
L 428.688328 216.607072 
L 429.27777 216.608139 
L 429.867212 216.328545 
L 430.456654 215.526385 
L 431.046096 214.000341 
L 431.635538 211.791703 
L 432.814422 206.497169 
L 433.403864 204.608837 
L 433.993306 203.635069 
L 434.58204 203.257428 
L 435.171482 203.038503 
L 435.760924 203.019144 
L 436.350366 203.521049 
L 436.939808 204.990333 
L 439.297576 214.720514 
L 439.887018 216.246181 
L 440.475753 217.32503 
L 441.065195 218.035532 
L 441.654637 218.499565 
L 442.244079 218.673639 
L 445.191289 218.924437 
L 445.780731 219.14412 
L 448.137792 220.754519 
L 448.727234 220.85221 
L 449.316676 220.694243 
L 449.906118 220.236809 
L 450.49556 219.607306 
L 451.674444 218.130376 
L 452.263178 217.71099 
L 452.85262 217.547903 
L 453.442062 217.51327 
L 454.031504 217.349527 
L 455.210388 216.460407 
L 455.79983 216.251774 
L 456.389272 216.474988 
L 458.156891 218.238005 
L 458.746333 218.379409 
L 459.925217 218.269937 
L 460.514659 218.149344 
L 461.104101 217.896799 
L 462.872427 216.607459 
L 463.461869 216.881285 
L 464.050603 217.730969 
L 465.229487 220.064575 
L 465.818929 221.061302 
L 466.997813 222.439946 
L 467.587255 222.548743 
L 468.176697 222.117575 
L 468.766139 221.190003 
L 469.944316 218.790356 
L 470.533758 218.03856 
L 471.1232 217.826167 
L 471.712642 218.064788 
L 472.302084 218.666385 
L 474.07041 220.85066 
L 475.248586 221.573575 
L 476.427471 222.348069 
L 477.606355 223.3133 
L 478.195797 223.567135 
L 478.785239 223.636346 
L 481.142299 223.263052 
L 482.321183 223.543055 
L 482.910625 223.472884 
L 484.089509 222.956288 
L 485.268393 222.531561 
L 486.447277 222.765924 
L 487.036012 222.883759 
L 488.214896 222.741005 
L 488.804338 222.669481 
L 489.39378 222.788197 
L 491.162106 224.104065 
L 491.751548 224.130063 
L 492.929724 223.84592 
L 493.519166 224.016446 
L 494.69805 224.746075 
L 495.287492 224.870568 
L 496.466376 224.878007 
L 497.055818 225.052212 
L 497.64526 225.519611 
L 498.823437 227.09663 
L 500.002321 228.686521 
L 501.181205 229.843745 
L 502.360089 231.009789 
L 503.538973 232.184657 
L 504.128415 232.625181 
L 504.717149 232.916779 
L 505.896034 232.999614 
L 508.253802 233.065914 
L 508.843244 233.310772 
L 509.432686 233.759594 
L 511.200304 235.422269 
L 511.789746 235.724333 
L 512.96863 235.920212 
L 515.326398 235.747081 
L 516.504575 235.996703 
L 519.451785 237.48981 
L 520.630669 237.590087 
L 523.577171 237.051369 
L 524.756055 237.257307 
L 526.524381 237.834391 
L 528.881442 238.576295 
L 532.418094 238.787444 
L 535.954039 238.893261 
L 537.722365 238.946825 
L 546.56258 238.998228 
L 548.330906 239.053533 
L 593.712281 239.103936 
L 594.891165 239.165455 
L 679.760909 239.165455 
L 679.760909 239.165455 
" clip-path="url(#p381c973cc5)" style="fill: none; stroke: #ffa500; stroke-linecap: square"/>
   </g>
   <g id="patch_3">
    <path d="M 61.54 250.04 
L 61.54 10.8 
" style="fill: none; stroke: #000000; stroke-width: 0.8; stroke-linejoin: miter; stroke-linecap: square"/>
   </g>
   <g id="patch_4">
    <path d="M 709.2 250.04 
L 709.2 10.8 
" style="fill: none; stroke: #000000; stroke-width: 0.8; stroke-linejoin: miter; stroke-linecap: square"/>
   </g>
   <g id="patch_5">
    <path d="M 61.54 250.04 
L 709.2 250.04 
" style="fill: none; stroke: #000000; stroke-width: 0.8; stroke-linejoin: miter; stroke-linecap: square"/>
   </g>
   <g id="patch_6">
    <path d="M 61.54 10.8 
L 709.2 10.8 
" style="fill: none; stroke: #000000; stroke-width: 0.8; stroke-linejoin: miter; stroke-linecap: square"/>
   </g>
   <g id="legend_1">
    <g id="patch_7">
     <path d="M 658.3625 33.478125 
L 702.2 33.478125 
Q 704.2 33.478125 704.2 31.478125 
L 704.2 17.8 
Q 704.2 15.8 702.2 15.8 
L 658.3625 15.8 
Q 656.3625 15.8 656.3625 17.8 
L 656.3625 31.478125 
Q 656.3625 33.478125 658.3625 33.478125 
z
" style="fill: #ffffff; opacity: 0.8; stroke: #cccccc; stroke-linejoin: miter"/>
    </g>
    <g id="line2d_16">
     <path d="M 660.3625 23.898438 
L 670.3625 23.898438 
L 680.3625 23.898438 
" style="fill: none; stroke: #ffa500; stroke-linecap: square"/>
    </g>
    <g id="text_15">
     <!-- xx -->
     <g transform="translate(688.3625 27.398438)scale(0.1 -0.1)">
      <defs>
       <path id="DejaVuSans-78" d="M 3513 3500 
L 2247 1797 
L 3578 0 
L 2900 0 
L 1881 1375 
L 863 0 
L 184 0 
L 1544 1831 
L 300 3500 
L 978 3500 
L 1906 2253 
L 2834 3500 
L 3513 3500 
z
" transform="scale(0.015625)"/>
      </defs>
      <use xlink:href="#DejaVuSans-78"/>
      <use xlink:href="#DejaVuSans-78" x="59.179688"/>
     </g>
    </g>
   </g>
  </g>
  <g id="axes_2">
   <g id="patch_8">
    <path d="M 61.54 517.16 
L 709.2 517.16 
L 709.2 277.92 
L 61.54 277.92 
z
" style="fill: #ffffff"/>
   </g>
   <g id="matplotlib.axis_3">
    <g id="xtick_6">
     <g id="line2d_17">
      <g>
       <use xlink:href="#m88f8ee2219" x="90.979091" y="517.16" style="stroke: #000000; stroke-width: 0.8"/>
      </g>
     </g>
     <g id="text_16">
      <!-- 0 -->
      <g transform="translate(87.797841 531.758438)scale(0.1 -0.1)">
       <use xlink:href="#DejaVuSans-30"/>
      </g>
     </g>
    </g>
    <g id="xtick_7">
     <g id="line2d_18">
      <g>
       <use xlink:href="#m88f8ee2219" x="232.501785" y="517.16" style="stroke: #000000; stroke-width: 0.8"/>
      </g>
     </g>
     <g id="text_17">
      <!-- 20 -->
      <g transform="translate(226.139285 531.758438)scale(0.1 -0.1)">
       <use xlink:href="#DejaVuSans-32"/>
       <use xlink:href="#DejaVuSans-30" x="63.623047"/>
      </g>
     </g>
    </g>
    <g id="xtick_8">
     <g id="line2d_19">
      <g>
       <use xlink:href="#m88f8ee2219" x="374.024479" y="517.16" style="stroke: #000000; stroke-width: 0.8"/>
      </g>
     </g>
     <g id="text_18">
      <!-- 40 -->
      <g transform="translate(367.661979 531.758438)scale(0.1 -0.1)">
       <use xlink:href="#DejaVuSans-34"/>
       <use xlink:href="#DejaVuSans-30" x="63.623047"/>
      </g>
     </g>
    </g>
    <g id="xtick_9">
     <g id="line2d_20">
      <g>
       <use xlink:href="#m88f8ee2219" x="515.547174" y="517.16" style="stroke: #000000; stroke-width: 0.8"/>
      </g>
     </g>
     <g id="text_19">
      <!-- 60 -->
      <g transform="translate(509.184674 531.758438)scale(0.1 -0.1)">
       <use xlink:href="#DejaVuSans-36"/>
       <use xlink:href="#DejaVuSans-30" x="63.623047"/>
      </g>
     </g>
    </g>
    <g id="xtick_10">
     <g id="line2d_21">
      <g>
       <use xlink:href="#m88f8ee2219" x="657.069868" y="517.16" style="stroke: #000000; stroke-width: 0.8"/>
      </g>
     </g>
     <g id="text_20">
      <!-- 80 -->
      <g transform="translate(650.707368 531.758438)scale(0.1 -0.1)">
       <use xlink:href="#DejaVuSans-38"/>
       <use xlink:href="#DejaVuSans-30" x="63.623047"/>
      </g>
     </g>
    </g>
   </g>
   <g id="matplotlib.axis_4">
    <g id="ytick_10">
     <g id="line2d_22">
      <g>
       <use xlink:href="#mcab6aa4a78" x="61.54" y="506.285455" style="stroke: #000000; stroke-width: 0.8"/>
      </g>
     </g>
     <g id="text_21">
      <!-- 0 -->
      <g transform="translate(48.1775 510.084673)scale(0.1 -0.1)">
       <use xlink:href="#DejaVuSans-30"/>
      </g>
     </g>
    </g>
    <g id="ytick_11">
     <g id="line2d_23">
      <g>
       <use xlink:href="#mcab6aa4a78" x="61.54" y="455.62713" style="stroke: #000000; stroke-width: 0.8"/>
      </g>
     </g>
     <g id="text_22">
      <!-- 2 -->
      <g transform="translate(48.1775 459.426349)scale(0.1 -0.1)">
       <use xlink:href="#DejaVuSans-32"/>
      </g>
     </g>
    </g>
    <g id="ytick_12">
     <g id="line2d_24">
      <g>
       <use xlink:href="#mcab6aa4a78" x="61.54" y="404.968805" style="stroke: #000000; stroke-width: 0.8"/>
      </g>
     </g>
     <g id="text_23">
      <!-- 4 -->
      <g transform="translate(48.1775 408.768024)scale(0.1 -0.1)">
       <use xlink:href="#DejaVuSans-34"/>
      </g>
     </g>
    </g>
    <g id="ytick_13">
     <g id="line2d_25">
      <g>
       <use xlink:href="#mcab6aa4a78" x="61.54" y="354.310481" style="stroke: #000000; stroke-width: 0.8"/>
      </g>
     </g>
     <g id="text_24">
      <!-- 6 -->
      <g transform="translate(48.1775 358.109699)scale(0.1 -0.1)">
       <use xlink:href="#DejaVuSans-36"/>
      </g>
     </g>
    </g>
    <g id="ytick_14">
     <g id="line2d_26">
      <g>
       <use xlink:href="#mcab6aa4a78" x="61.54" y="303.652156" style="stroke: #000000; stroke-width: 0.8"/>
      </g>
     </g>
     <g id="text_25">
      <!-- 8 -->
      <g transform="translate(48.1775 307.451375)scale(0.1 -0.1)">
       <use xlink:href="#DejaVuSans-38"/>
      </g>
     </g>
    </g>
   </g>
   <g id="line2d_27">
    <path d="M 90.979091 506.285455 
L 91.568533 432.314409 
L 92.157975 434.335869 
L 92.747417 435.898678 
L 93.336859 435.938093 
L 93.925593 434.385329 
L 94.515035 431.451493 
L 96.283361 419.778845 
L 96.872804 419.459062 
L 98.051688 423.181952 
L 98.64113 422.557644 
L 99.230572 418.849809 
L 100.408748 406.169344 
L 100.99819 397.941505 
L 101.587632 386.17616 
L 102.177074 367.970275 
L 103.9454 293.880973 
L 104.534842 288.794545 
L 105.124284 301.799647 
L 106.891903 380.324863 
L 107.481345 397.784984 
L 108.070787 409.827227 
L 109.249671 426.642544 
L 110.428555 441.14528 
L 111.017997 446.648198 
L 111.606731 450.494905 
L 112.196173 453.102972 
L 112.785615 454.771612 
L 113.375057 455.430249 
L 113.964499 455.162048 
L 114.553941 454.628224 
L 115.143383 454.917067 
L 115.732825 456.752986 
L 117.500444 465.400757 
L 119.858212 472.346267 
L 120.447654 473.122795 
L 121.037096 472.927703 
L 122.805422 470.182181 
L 123.394156 469.849318 
L 123.983598 469.247735 
L 124.57304 467.334112 
L 125.162482 463.046401 
L 125.751924 455.100625 
L 126.341367 441.005792 
L 126.930809 417.189095 
L 128.699135 309.1167 
L 129.287869 292.407923 
L 129.877311 293.310467 
L 130.466753 305.224205 
L 134.003405 398.349041 
L 135.181582 421.5235 
L 135.771024 430.366572 
L 136.949908 442.839327 
L 138.128792 452.485394 
L 139.307676 458.892649 
L 141.075294 467.556626 
L 141.664736 469.720291 
L 142.254178 471.121429 
L 143.433062 472.840439 
L 144.022504 473.476953 
L 144.611946 473.538685 
L 145.201388 472.828308 
L 145.79083 471.53683 
L 146.380272 469.79235 
L 148.737333 460.887181 
L 149.916217 459.087676 
L 150.505659 456.854249 
L 151.095101 452.110576 
L 151.684543 444.010743 
L 152.862719 422.251711 
L 153.452161 414.530323 
L 154.041603 411.011414 
L 154.631045 408.811037 
L 155.220488 403.105876 
L 155.80993 390.766997 
L 156.988814 355.642341 
L 157.578256 345.200761 
L 158.167698 344.891305 
L 158.756432 352.892387 
L 159.935316 375.411874 
L 160.524758 383.094368 
L 161.1142 387.065707 
L 161.703642 387.908376 
L 162.293084 386.230207 
L 164.06141 375.965501 
L 164.650145 377.124257 
L 165.829029 387.216269 
L 166.418471 389.621987 
L 167.007913 387.732574 
L 167.597355 383.904952 
L 168.186797 382.107121 
L 168.776239 384.613807 
L 169.955123 395.858967 
L 170.543857 399.803926 
L 171.133299 402.989926 
L 171.722741 407.31112 
L 172.312183 413.613603 
L 173.491067 428.446087 
L 174.080509 434.145024 
L 174.669951 437.917301 
L 176.43757 446.109264 
L 177.616454 452.679238 
L 178.205896 455.002001 
L 178.795338 456.495264 
L 180.563664 459.934693 
L 181.153106 460.394592 
L 181.742548 459.962434 
L 182.331282 458.779706 
L 183.510166 455.785212 
L 184.099608 454.688558 
L 184.689051 454.126901 
L 185.278493 454.211108 
L 185.867935 454.830979 
L 188.814437 459.673048 
L 189.403879 460.311503 
L 189.993321 460.019711 
L 190.582763 458.308743 
L 191.172205 455.267235 
L 192.940531 443.145377 
L 193.529973 440.694469 
L 194.118708 441.336941 
L 194.70815 445.218858 
L 195.887034 455.01502 
L 196.476476 457.299817 
L 197.065918 457.466017 
L 197.65536 456.097087 
L 198.244802 453.403214 
L 198.834244 449.025205 
L 199.423686 442.21509 
L 200.01242 432.445534 
L 201.191304 410.071547 
L 201.780746 405.199209 
L 202.370188 408.227676 
L 204.138514 434.177306 
L 204.727956 437.811281 
L 205.317398 438.897707 
L 205.906133 438.85308 
L 206.495575 438.320828 
L 207.085017 436.75315 
L 207.674459 432.634129 
L 208.263901 424.523696 
L 209.442785 400.269924 
L 210.032227 391.427663 
L 210.621669 388.763096 
L 211.211111 390.83089 
L 211.799845 393.349237 
L 212.389287 391.981363 
L 212.978729 384.57961 
L 214.157614 359.99363 
L 214.747056 351.406791 
L 215.336498 348.02743 
L 215.92594 348.434193 
L 216.515382 351.076326 
L 217.104824 355.900863 
L 217.693558 363.974739 
L 218.283 375.894108 
L 219.461884 404.471812 
L 220.051326 415.41017 
L 220.640768 422.232397 
L 221.23021 425.956734 
L 222.409094 431.862079 
L 223.587271 439.915534 
L 224.176713 442.828451 
L 224.766155 444.12135 
L 225.355597 443.939112 
L 225.945039 442.751352 
L 226.534481 440.980142 
L 227.123923 438.533767 
L 227.713365 434.568523 
L 228.302807 427.577253 
L 228.891541 415.993926 
L 230.070425 383.993901 
L 230.659867 374.710183 
L 231.249309 377.045813 
L 231.838751 389.404911 
L 233.017635 420.107025 
L 233.607077 431.256616 
L 234.196519 439.470217 
L 234.785254 445.384576 
L 235.374696 449.151304 
L 235.964138 450.940845 
L 236.55358 451.312844 
L 237.732464 451.096566 
L 238.321906 451.290182 
L 239.50079 452.069963 
L 240.090232 452.755459 
L 241.85785 455.506249 
L 242.447292 455.604936 
L 243.036735 455.280495 
L 243.626177 454.692461 
L 244.215619 453.706402 
L 244.805061 451.823485 
L 245.394503 448.574911 
L 246.572679 439.057808 
L 247.162121 435.796615 
L 247.751563 435.372549 
L 248.341005 437.314019 
L 248.930447 439.979556 
L 249.519889 441.963769 
L 250.109331 442.984274 
L 250.698773 443.470193 
L 251.288215 443.65401 
L 251.877657 443.326448 
L 252.466392 441.760619 
L 253.055834 438.224845 
L 254.82416 422.173213 
L 255.413602 421.39946 
L 256.003044 423.421156 
L 256.592486 426.053861 
L 257.181928 427.69874 
L 257.77137 428.20066 
L 258.360104 428.1449 
L 258.949546 427.736906 
L 259.538988 426.548494 
L 260.12843 424.183561 
L 260.717872 420.743402 
L 261.896756 412.549061 
L 262.486198 409.641793 
L 263.07564 409.252233 
L 263.665082 411.905298 
L 264.843259 419.575388 
L 265.432701 421.151141 
L 267.201027 422.45574 
L 267.790469 420.556438 
L 268.379911 414.508882 
L 269.558795 397.111633 
L 270.147529 395.964311 
L 270.736971 402.968199 
L 271.915856 424.998841 
L 272.505298 431.999241 
L 273.09474 435.420502 
L 273.684182 436.58946 
L 274.273624 436.642018 
L 275.452508 435.971434 
L 276.041242 435.831536 
L 276.630684 435.888514 
L 277.220126 436.144485 
L 278.39901 436.864084 
L 278.988452 436.89067 
L 279.577894 436.559045 
L 280.756778 435.451892 
L 281.934955 433.933774 
L 285.471607 428.859562 
L 286.061049 428.385758 
L 286.650491 427.622451 
L 287.239933 425.866679 
L 287.828667 422.866835 
L 289.007551 415.066696 
L 289.596993 412.204881 
L 290.186435 411.027781 
L 290.775877 411.420867 
L 291.365319 412.983036 
L 292.544203 417.573901 
L 293.72238 423.388957 
L 294.901264 429.047424 
L 295.490706 430.812882 
L 296.080148 431.683098 
L 296.66959 431.821975 
L 297.259032 431.397033 
L 298.437916 430.106925 
L 299.027358 429.984828 
L 299.616092 430.347187 
L 301.973861 432.76402 
L 302.563303 433.056093 
L 303.152745 433.081939 
L 303.742187 432.839313 
L 304.331629 432.236016 
L 304.921071 430.908575 
L 305.509805 428.176372 
L 307.278131 415.467981 
L 307.867573 414.553221 
L 308.457015 416.441642 
L 309.046457 419.619086 
L 309.635899 421.998789 
L 310.225341 422.053857 
L 310.814783 418.250519 
L 311.403518 409.453245 
L 313.171844 370.920286 
L 313.761286 370.277536 
L 314.350728 379.062855 
L 316.119054 419.511417 
L 316.708496 427.329777 
L 317.29723 431.560289 
L 317.886672 433.18977 
L 318.476114 433.100039 
L 319.065556 431.999854 
L 319.654998 430.6071 
L 320.24444 429.596383 
L 320.833882 429.25993 
L 321.423324 429.359494 
L 322.012766 429.217099 
L 322.602208 428.246095 
L 323.780385 424.829163 
L 324.369827 423.749108 
L 324.959269 423.744328 
L 325.548711 424.576652 
L 326.138153 425.661363 
L 326.727595 426.505584 
L 327.317037 426.659998 
L 327.906479 426.169119 
L 328.495921 425.527681 
L 329.084655 425.684542 
L 329.674097 427.046595 
L 331.442424 433.776143 
L 332.031866 435.387764 
L 332.621308 436.600567 
L 333.21075 437.307656 
L 333.800192 437.607434 
L 334.389634 437.703077 
L 336.157252 437.633984 
L 336.746694 437.681689 
L 337.336136 437.521351 
L 337.925578 436.680483 
L 339.693904 431.568504 
L 340.283346 430.976293 
L 341.461523 431.053992 
L 342.050965 430.72348 
L 342.640407 430.180205 
L 343.229849 429.794996 
L 343.819291 429.99494 
L 344.408733 430.837767 
L 345.587617 432.915268 
L 346.176351 433.289491 
L 346.765793 433.071534 
L 347.944677 431.875708 
L 349.123561 431.163229 
L 349.713003 430.669415 
L 351.481329 428.686957 
L 352.659506 428.016821 
L 353.248948 427.846196 
L 353.83839 427.896786 
L 355.017274 428.50075 
L 355.606716 428.443817 
L 357.375042 426.875749 
L 357.963776 426.705996 
L 359.14266 426.87331 
L 360.321545 427.554644 
L 360.910987 427.898685 
L 361.500429 428.074196 
L 362.089871 427.851887 
L 362.679313 427.115211 
L 363.268755 426.090561 
L 364.446931 423.230731 
L 365.036373 421.565995 
L 365.625815 420.24189 
L 366.215257 419.834402 
L 366.804699 420.636673 
L 367.394141 422.542783 
L 368.573025 427.148144 
L 369.162467 428.799254 
L 370.340644 430.893742 
L 371.519528 432.597161 
L 372.10897 432.921352 
L 372.698412 432.533466 
L 373.287854 431.48935 
L 374.466738 427.841558 
L 375.05618 426.011678 
L 375.644914 424.954315 
L 376.823798 424.088653 
L 377.41324 423.143839 
L 378.002682 421.355487 
L 378.592124 418.842373 
L 379.181566 415.724723 
L 379.771008 411.883699 
L 380.36045 406.843442 
L 380.949892 399.956696 
L 382.128069 382.566734 
L 382.717511 377.032494 
L 383.306953 377.146369 
L 383.896395 382.407353 
L 385.075279 397.572723 
L 386.254163 409.382939 
L 386.843605 414.045376 
L 387.432339 417.570334 
L 388.021781 419.630213 
L 388.611224 420.209023 
L 389.200666 419.669707 
L 390.37955 417.340282 
L 390.968992 416.922318 
L 391.558434 417.568759 
L 392.147876 419.16133 
L 393.326052 422.815629 
L 394.504936 425.045948 
L 395.68382 427.492654 
L 396.273262 428.886257 
L 396.862704 429.900594 
L 397.452146 430.403436 
L 398.041588 430.71505 
L 398.63103 431.353148 
L 399.219765 432.775656 
L 400.398649 437.018491 
L 400.988091 438.532744 
L 401.577533 438.999571 
L 402.166975 438.081893 
L 403.935301 432.3412 
L 404.524743 432.008377 
L 405.113477 432.934885 
L 405.702919 434.464285 
L 406.292361 435.534113 
L 406.881803 435.806308 
L 407.471245 435.343109 
L 408.650129 433.138246 
L 409.829013 430.587822 
L 410.418455 429.712289 
L 411.00719 429.239186 
L 412.775516 428.422525 
L 413.364958 428.353265 
L 413.9544 428.896191 
L 414.543842 430.259812 
L 415.133284 432.382588 
L 416.312168 437.282975 
L 416.900902 438.95836 
L 417.490344 439.393748 
L 418.079787 438.373462 
L 418.669229 436.865564 
L 419.258671 436.398132 
L 419.848113 438.369472 
L 421.616439 451.695332 
L 422.205881 454.372637 
L 422.794615 455.708401 
L 423.384057 455.905556 
L 423.973499 455.315774 
L 424.562941 454.509688 
L 425.152383 454.060967 
L 425.741825 454.402665 
L 426.331267 455.539412 
L 428.099593 459.853941 
L 428.688328 460.576116 
L 429.27777 460.570189 
L 429.867212 459.832528 
L 431.635538 455.921797 
L 433.403864 453.823975 
L 433.993306 452.556465 
L 434.58204 450.770597 
L 435.171482 448.24487 
L 435.760924 444.245002 
L 436.939808 432.151416 
L 437.52925 428.454471 
L 438.118692 429.647145 
L 438.708134 435.398113 
L 439.887018 449.797142 
L 440.475753 454.877914 
L 441.065195 458.410795 
L 441.654637 460.980641 
L 442.833521 464.408695 
L 443.422963 465.714813 
L 444.012405 466.7203 
L 444.601847 467.192415 
L 445.191289 467.358752 
L 445.780731 467.37186 
L 446.369465 467.617097 
L 446.958908 468.405074 
L 448.727234 472.426228 
L 449.316676 473.074417 
L 449.906118 472.863316 
L 450.49556 471.867619 
L 451.674444 469.398707 
L 452.85262 467.705944 
L 454.620946 465.704345 
L 455.210388 465.40275 
L 455.79983 465.575283 
L 456.978714 466.796414 
L 457.568156 466.972497 
L 458.156891 466.431753 
L 459.925217 463.044035 
L 460.514659 463.216755 
L 461.104101 464.352439 
L 462.282985 467.524972 
L 463.461869 469.590798 
L 464.050603 470.508431 
L 466.408371 475.1185 
L 466.997813 476.056842 
L 467.587255 476.75155 
L 468.176697 476.870676 
L 468.766139 476.163379 
L 469.355581 474.875353 
L 470.533758 471.547294 
L 471.1232 470.500247 
L 471.712642 470.197112 
L 472.302084 470.557612 
L 473.480968 472.61717 
L 474.659852 474.944722 
L 475.248586 475.737378 
L 475.838028 476.19613 
L 476.427471 476.319143 
L 478.195797 475.92879 
L 478.785239 475.628538 
L 481.142299 473.738968 
L 482.321183 473.385656 
L 485.268393 473.571709 
L 485.857835 473.86839 
L 486.447277 473.993293 
L 487.036012 473.599673 
L 487.625454 472.59914 
L 488.804338 469.639491 
L 489.39378 468.632771 
L 489.983222 468.491599 
L 490.572664 469.132419 
L 492.34099 471.943411 
L 494.108608 474.434253 
L 494.69805 474.91763 
L 495.287492 474.960755 
L 496.466376 474.516213 
L 497.055818 474.470801 
L 497.64526 474.692084 
L 498.234702 475.359381 
L 499.412879 477.595528 
L 501.770647 482.119887 
L 502.949531 486.133636 
L 503.538973 488.199566 
L 504.128415 489.817815 
L 504.717149 490.70993 
L 505.306592 490.96292 
L 505.896034 490.941158 
L 506.485476 490.643457 
L 507.074918 490.52929 
L 507.66436 490.783875 
L 508.253802 491.408961 
L 511.200304 496.247099 
L 511.789746 496.88821 
L 512.379188 497.343889 
L 512.96863 497.613162 
L 514.147514 497.683136 
L 515.91584 497.552632 
L 516.504575 497.44584 
L 517.683459 497.706393 
L 518.272901 497.979995 
L 519.451785 498.81613 
L 524.166613 500.279382 
L 526.524381 500.343902 
L 528.292 501.002985 
L 530.060326 502.060245 
L 531.828652 502.831404 
L 533.596978 503.312379 
L 540.079425 504.374092 
L 541.847751 504.871251 
L 545.973138 504.756424 
L 547.152022 504.650329 
L 551.86685 505.355923 
L 553.045734 505.457057 
L 555.403502 505.764998 
L 568.369812 505.643485 
L 571.316314 504.563703 
L 571.905756 504.561594 
L 573.674082 505.31193 
L 574.263524 505.635562 
L 576.620585 505.95888 
L 581.924855 506.06535 
L 583.103739 506.175133 
L 607.268032 506.169714 
L 607.857474 506.285455 
L 679.760909 506.285455 
L 679.760909 506.285455 
" clip-path="url(#pf9f8445413)" style="fill: none; stroke: #0000ff; stroke-linecap: square"/>
   </g>
   <g id="patch_9">
    <path d="M 61.54 517.16 
L 61.54 277.92 
" style="fill: none; stroke: #000000; stroke-width: 0.8; stroke-linejoin: miter; stroke-linecap: square"/>
   </g>
   <g id="patch_10">
    <path d="M 709.2 517.16 
L 709.2 277.92 
" style="fill: none; stroke: #000000; stroke-width: 0.8; stroke-linejoin: miter; stroke-linecap: square"/>
   </g>
   <g id="patch_11">
    <path d="M 61.54 517.16 
L 709.2 517.16 
" style="fill: none; stroke: #000000; stroke-width: 0.8; stroke-linejoin: miter; stroke-linecap: square"/>
   </g>
   <g id="patch_12">
    <path d="M 61.54 277.92 
L 709.2 277.92 
" style="fill: none; stroke: #000000; stroke-width: 0.8; stroke-linejoin: miter; stroke-linecap: square"/>
   </g>
   <g id="legend_2">
    <g id="patch_13">
     <path d="M 658.3625 300.598125 
L 702.2 300.598125 
Q 704.2 300.598125 704.2 298.598125 
L 704.2 284.92 
Q 704.2 282.92 702.2 282.92 
L 658.3625 282.92 
Q 656.3625 282.92 656.3625 284.92 
L 656.3625 298.598125 
Q 656.3625 300.598125 658.3625 300.598125 
z
" style="fill: #ffffff; opacity: 0.8; stroke: #cccccc; stroke-linejoin: miter"/>
    </g>
    <g id="line2d_28">
     <path d="M 660.3625 291.018438 
L 670.3625 291.018438 
L 680.3625 291.018438 
" style="fill: none; stroke: #0000ff; stroke-linecap: square"/>
    </g>
    <g id="text_26">
     <!-- yy -->
     <g transform="translate(688.3625 294.518438)scale(0.1 -0.1)">
      <defs>
       <path id="DejaVuSans-79" d="M 2059 -325 
Q 1816 -950 1584 -1140 
Q 1353 -1331 966 -1331 
L 506 -1331 
L 506 -850 
L 844 -850 
Q 1081 -850 1212 -737 
Q 1344 -625 1503 -206 
L 1606 56 
L 191 3500 
L 800 3500 
L 1894 763 
L 2988 3500 
L 3597 3500 
L 2059 -325 
z
" transform="scale(0.015625)"/>
      </defs>
      <use xlink:href="#DejaVuSans-79"/>
      <use xlink:href="#DejaVuSans-79" x="59.179688"/>
     </g>
    </g>
   </g>
  </g>
  <g id="text_27">
   <!-- Absoption (cm^-1) -->
   <g transform="translate(29.596875 382.590625)rotate(-90)scale(0.2 -0.2)">
    <defs>
     <path id="DejaVuSans-41" d="M 2188 4044 
L 1331 1722 
L 3047 1722 
L 2188 4044 
z
M 1831 4666 
L 2547 4666 
L 4325 0 
L 3669 0 
L 3244 1197 
L 1141 1197 
L 716 0 
L 50 0 
L 1831 4666 
z
" transform="scale(0.015625)"/>
     <path id="DejaVuSans-62" d="M 3116 1747 
Q 3116 2381 2855 2742 
Q 2594 3103 2138 3103 
Q 1681 3103 1420 2742 
Q 1159 2381 1159 1747 
Q 1159 1113 1420 752 
Q 1681 391 2138 391 
Q 2594 391 2855 752 
Q 3116 1113 3116 1747 
z
M 1159 2969 
Q 1341 3281 1617 3432 
Q 1894 3584 2278 3584 
Q 2916 3584 3314 3078 
Q 3713 2572 3713 1747 
Q 3713 922 3314 415 
Q 2916 -91 2278 -91 
Q 1894 -91 1617 61 
Q 1341 213 1159 525 
L 1159 0 
L 581 0 
L 581 4863 
L 1159 4863 
L 1159 2969 
z
" transform="scale(0.015625)"/>
     <path id="DejaVuSans-73" d="M 2834 3397 
L 2834 2853 
Q 2591 2978 2328 3040 
Q 2066 3103 1784 3103 
Q 1356 3103 1142 2972 
Q 928 2841 928 2578 
Q 928 2378 1081 2264 
Q 1234 2150 1697 2047 
L 1894 2003 
Q 2506 1872 2764 1633 
Q 3022 1394 3022 966 
Q 3022 478 2636 193 
Q 2250 -91 1575 -91 
Q 1294 -91 989 -36 
Q 684 19 347 128 
L 347 722 
Q 666 556 975 473 
Q 1284 391 1588 391 
Q 1994 391 2212 530 
Q 2431 669 2431 922 
Q 2431 1156 2273 1281 
Q 2116 1406 1581 1522 
L 1381 1569 
Q 847 1681 609 1914 
Q 372 2147 372 2553 
Q 372 3047 722 3315 
Q 1072 3584 1716 3584 
Q 2034 3584 2315 3537 
Q 2597 3491 2834 3397 
z
" transform="scale(0.015625)"/>
     <path id="DejaVuSans-6f" d="M 1959 3097 
Q 1497 3097 1228 2736 
Q 959 2375 959 1747 
Q 959 1119 1226 758 
Q 1494 397 1959 397 
Q 2419 397 2687 759 
Q 2956 1122 2956 1747 
Q 2956 2369 2687 2733 
Q 2419 3097 1959 3097 
z
M 1959 3584 
Q 2709 3584 3137 3096 
Q 3566 2609 3566 1747 
Q 3566 888 3137 398 
Q 2709 -91 1959 -91 
Q 1206 -91 779 398 
Q 353 888 353 1747 
Q 353 2609 779 3096 
Q 1206 3584 1959 3584 
z
" transform="scale(0.015625)"/>
     <path id="DejaVuSans-70" d="M 1159 525 
L 1159 -1331 
L 581 -1331 
L 581 3500 
L 1159 3500 
L 1159 2969 
Q 1341 3281 1617 3432 
Q 1894 3584 2278 3584 
Q 2916 3584 3314 3078 
Q 3713 2572 3713 1747 
Q 3713 922 3314 415 
Q 2916 -91 2278 -91 
Q 1894 -91 1617 61 
Q 1341 213 1159 525 
z
M 3116 1747 
Q 3116 2381 2855 2742 
Q 2594 3103 2138 3103 
Q 1681 3103 1420 2742 
Q 1159 2381 1159 1747 
Q 1159 1113 1420 752 
Q 1681 391 2138 391 
Q 2594 391 2855 752 
Q 3116 1113 3116 1747 
z
" transform="scale(0.015625)"/>
     <path id="DejaVuSans-74" d="M 1172 4494 
L 1172 3500 
L 2356 3500 
L 2356 3053 
L 1172 3053 
L 1172 1153 
Q 1172 725 1289 603 
Q 1406 481 1766 481 
L 2356 481 
L 2356 0 
L 1766 0 
Q 1100 0 847 248 
Q 594 497 594 1153 
L 594 3053 
L 172 3053 
L 172 3500 
L 594 3500 
L 594 4494 
L 1172 4494 
z
" transform="scale(0.015625)"/>
     <path id="DejaVuSans-69" d="M 603 3500 
L 1178 3500 
L 1178 0 
L 603 0 
L 603 3500 
z
M 603 4863 
L 1178 4863 
L 1178 4134 
L 603 4134 
L 603 4863 
z
" transform="scale(0.015625)"/>
     <path id="DejaVuSans-6e" d="M 3513 2113 
L 3513 0 
L 2938 0 
L 2938 2094 
Q 2938 2591 2744 2837 
Q 2550 3084 2163 3084 
Q 1697 3084 1428 2787 
Q 1159 2491 1159 1978 
L 1159 0 
L 581 0 
L 581 3500 
L 1159 3500 
L 1159 2956 
Q 1366 3272 1645 3428 
Q 1925 3584 2291 3584 
Q 2894 3584 3203 3211 
Q 3513 2838 3513 2113 
z
" transform="scale(0.015625)"/>
     <path id="DejaVuSans-20" transform="scale(0.015625)"/>
     <path id="DejaVuSans-28" d="M 1984 4856 
Q 1566 4138 1362 3434 
Q 1159 2731 1159 2009 
Q 1159 1288 1364 580 
Q 1569 -128 1984 -844 
L 1484 -844 
Q 1016 -109 783 600 
Q 550 1309 550 2009 
Q 550 2706 781 3412 
Q 1013 4119 1484 4856 
L 1984 4856 
z
" transform="scale(0.015625)"/>
     <path id="DejaVuSans-63" d="M 3122 3366 
L 3122 2828 
Q 2878 2963 2633 3030 
Q 2388 3097 2138 3097 
Q 1578 3097 1268 2742 
Q 959 2388 959 1747 
Q 959 1106 1268 751 
Q 1578 397 2138 397 
Q 2388 397 2633 464 
Q 2878 531 3122 666 
L 3122 134 
Q 2881 22 2623 -34 
Q 2366 -91 2075 -91 
Q 1284 -91 818 406 
Q 353 903 353 1747 
Q 353 2603 823 3093 
Q 1294 3584 2113 3584 
Q 2378 3584 2631 3529 
Q 2884 3475 3122 3366 
z
" transform="scale(0.015625)"/>
     <path id="DejaVuSans-6d" d="M 3328 2828 
Q 3544 3216 3844 3400 
Q 4144 3584 4550 3584 
Q 5097 3584 5394 3201 
Q 5691 2819 5691 2113 
L 5691 0 
L 5113 0 
L 5113 2094 
Q 5113 2597 4934 2840 
Q 4756 3084 4391 3084 
Q 3944 3084 3684 2787 
Q 3425 2491 3425 1978 
L 3425 0 
L 2847 0 
L 2847 2094 
Q 2847 2600 2669 2842 
Q 2491 3084 2119 3084 
Q 1678 3084 1418 2786 
Q 1159 2488 1159 1978 
L 1159 0 
L 581 0 
L 581 3500 
L 1159 3500 
L 1159 2956 
Q 1356 3278 1631 3431 
Q 1906 3584 2284 3584 
Q 2666 3584 2933 3390 
Q 3200 3197 3328 2828 
z
" transform="scale(0.015625)"/>
     <path id="DejaVuSans-5e" d="M 2988 4666 
L 4684 2925 
L 4056 2925 
L 2681 4159 
L 1306 2925 
L 678 2925 
L 2375 4666 
L 2988 4666 
z
" transform="scale(0.015625)"/>
     <path id="DejaVuSans-2d" d="M 313 2009 
L 1997 2009 
L 1997 1497 
L 313 1497 
L 313 2009 
z
" transform="scale(0.015625)"/>
     <path id="DejaVuSans-29" d="M 513 4856 
L 1013 4856 
Q 1481 4119 1714 3412 
Q 1947 2706 1947 2009 
Q 1947 1309 1714 600 
Q 1481 -109 1013 -844 
L 513 -844 
Q 928 -128 1133 580 
Q 1338 1288 1338 2009 
Q 1338 2731 1133 3434 
Q 928 4138 513 4856 
z
" transform="scale(0.015625)"/>
    </defs>
    <use xlink:href="#DejaVuSans-41"/>
    <use xlink:href="#DejaVuSans-62" x="68.408203"/>
    <use xlink:href="#DejaVuSans-73" x="131.884766"/>
    <use xlink:href="#DejaVuSans-6f" x="183.984375"/>
    <use xlink:href="#DejaVuSans-70" x="245.166016"/>
    <use xlink:href="#DejaVuSans-74" x="308.642578"/>
    <use xlink:href="#DejaVuSans-69" x="347.851562"/>
    <use xlink:href="#DejaVuSans-6f" x="375.634766"/>
    <use xlink:href="#DejaVuSans-6e" x="436.816406"/>
    <use xlink:href="#DejaVuSans-20" x="500.195312"/>
    <use xlink:href="#DejaVuSans-28" x="531.982422"/>
    <use xlink:href="#DejaVuSans-63" x="570.996094"/>
    <use xlink:href="#DejaVuSans-6d" x="625.976562"/>
    <use xlink:href="#DejaVuSans-5e" x="723.388672"/>
    <use xlink:href="#DejaVuSans-2d" x="807.177734"/>
    <use xlink:href="#DejaVuSans-31" x="843.261719"/>
    <use xlink:href="#DejaVuSans-29" x="906.884766"/>
   </g>
  </g>
  <g id="text_28">
   <!-- Energy (eV) -->
   <g transform="translate(301.0125 566.080625)scale(0.2 -0.2)">
    <defs>
     <path id="DejaVuSans-45" d="M 628 4666 
L 3578 4666 
L 3578 4134 
L 1259 4134 
L 1259 2753 
L 3481 2753 
L 3481 2222 
L 1259 2222 
L 1259 531 
L 3634 531 
L 3634 0 
L 628 0 
L 628 4666 
z
" transform="scale(0.015625)"/>
     <path id="DejaVuSans-65" d="M 3597 1894 
L 3597 1613 
L 953 1613 
Q 991 1019 1311 708 
Q 1631 397 2203 397 
Q 2534 397 2845 478 
Q 3156 559 3463 722 
L 3463 178 
Q 3153 47 2828 -22 
Q 2503 -91 2169 -91 
Q 1331 -91 842 396 
Q 353 884 353 1716 
Q 353 2575 817 3079 
Q 1281 3584 2069 3584 
Q 2775 3584 3186 3129 
Q 3597 2675 3597 1894 
z
M 3022 2063 
Q 3016 2534 2758 2815 
Q 2500 3097 2075 3097 
Q 1594 3097 1305 2825 
Q 1016 2553 972 2059 
L 3022 2063 
z
" transform="scale(0.015625)"/>
     <path id="DejaVuSans-72" d="M 2631 2963 
Q 2534 3019 2420 3045 
Q 2306 3072 2169 3072 
Q 1681 3072 1420 2755 
Q 1159 2438 1159 1844 
L 1159 0 
L 581 0 
L 581 3500 
L 1159 3500 
L 1159 2956 
Q 1341 3275 1631 3429 
Q 1922 3584 2338 3584 
Q 2397 3584 2469 3576 
Q 2541 3569 2628 3553 
L 2631 2963 
z
" transform="scale(0.015625)"/>
     <path id="DejaVuSans-67" d="M 2906 1791 
Q 2906 2416 2648 2759 
Q 2391 3103 1925 3103 
Q 1463 3103 1205 2759 
Q 947 2416 947 1791 
Q 947 1169 1205 825 
Q 1463 481 1925 481 
Q 2391 481 2648 825 
Q 2906 1169 2906 1791 
z
M 3481 434 
Q 3481 -459 3084 -895 
Q 2688 -1331 1869 -1331 
Q 1566 -1331 1297 -1286 
Q 1028 -1241 775 -1147 
L 775 -588 
Q 1028 -725 1275 -790 
Q 1522 -856 1778 -856 
Q 2344 -856 2625 -561 
Q 2906 -266 2906 331 
L 2906 616 
Q 2728 306 2450 153 
Q 2172 0 1784 0 
Q 1141 0 747 490 
Q 353 981 353 1791 
Q 353 2603 747 3093 
Q 1141 3584 1784 3584 
Q 2172 3584 2450 3431 
Q 2728 3278 2906 2969 
L 2906 3500 
L 3481 3500 
L 3481 434 
z
" transform="scale(0.015625)"/>
     <path id="DejaVuSans-56" d="M 1831 0 
L 50 4666 
L 709 4666 
L 2188 738 
L 3669 4666 
L 4325 4666 
L 2547 0 
L 1831 0 
z
" transform="scale(0.015625)"/>
    </defs>
    <use xlink:href="#DejaVuSans-45"/>
    <use xlink:href="#DejaVuSans-6e" x="63.183594"/>
    <use xlink:href="#DejaVuSans-65" x="126.5625"/>
    <use xlink:href="#DejaVuSans-72" x="188.085938"/>
    <use xlink:href="#DejaVuSans-67" x="227.449219"/>
    <use xlink:href="#DejaVuSans-79" x="290.925781"/>
    <use xlink:href="#DejaVuSans-20" x="350.105469"/>
    <use xlink:href="#DejaVuSans-28" x="381.892578"/>
    <use xlink:href="#DejaVuSans-65" x="420.90625"/>
    <use xlink:href="#DejaVuSans-56" x="482.429688"/>
    <use xlink:href="#DejaVuSans-29" x="550.837891"/>
   </g>
  </g>
 </g>
 <defs>
  <clipPath id="p381c973cc5">
   <rect x="61.54" y="10.8" width="647.66" height="239.24"/>
  </clipPath>
  <clipPath id="pf9f8445413">
   <rect x="61.54" y="277.92" width="647.66" height="239.24"/>
  </clipPath>
 </defs>
</svg>
