<?xml version="1.0" encoding="utf-8" standalone="no"?>
<!DOCTYPE svg PUBLIC "-//W3C//DTD SVG 1.1//EN"
  "http://www.w3.org/Graphics/SVG/1.1/DTD/svg11.dtd">
<svg xmlns:xlink="http://www.w3.org/1999/xlink" width="720pt" height="576pt" viewBox="0 0 720 576" xmlns="http://www.w3.org/2000/svg" version="1.1">
 <metadata>
  <rdf:RDF xmlns:dc="http://purl.org/dc/elements/1.1/" xmlns:cc="http://creativecommons.org/ns#" xmlns:rdf="http://www.w3.org/1999/02/22-rdf-syntax-ns#">
   <cc:Work>
    <dc:type rdf:resource="http://purl.org/dc/dcmitype/StillImage"/>
    <dc:date>2022-03-10T19:34:44.749412</dc:date>
    <dc:format>image/svg+xml</dc:format>
    <dc:creator>
     <cc:Agent>
      <dc:title>Matplotlib v3.5.1, https://matplotlib.org/</dc:title>
     </cc:Agent>
    </dc:creator>
   </cc:Work>
  </rdf:RDF>
 </metadata>
 <defs>
  <style type="text/css">*{stroke-linejoin: round; stroke-linecap: butt}</style>
 </defs>
 <g id="figure_1">
  <g id="patch_1">
   <path d="M 0 576 
L 720 576 
L 720 0 
L 0 0 
z
" style="fill: #ffffff"/>
  </g>
  <g id="axes_1">
   <g id="patch_2">
    <path d="M 69.37 185 
L 365.04 185 
L 365.04 41.76 
L 69.37 41.76 
z
" style="fill: #ffffff"/>
   </g>
   <g id="matplotlib.axis_1">
    <g id="xtick_1">
     <g id="line2d_1">
      <defs>
       <path id="me933686aea" d="M 0 0 
L 0 3.5 
" style="stroke: #000000; stroke-width: 0.8"/>
      </defs>
      <g>
       <use xlink:href="#me933686aea" x="82.809545" y="185" style="stroke: #000000; stroke-width: 0.8"/>
      </g>
     </g>
     <g id="text_1">
      <!-- 0 -->
      <g transform="translate(79.628295 199.598437)scale(0.1 -0.1)">
       <defs>
        <path id="DejaVuSans-30" d="M 2034 4250 
Q 1547 4250 1301 3770 
Q 1056 3291 1056 2328 
Q 1056 1369 1301 889 
Q 1547 409 2034 409 
Q 2525 409 2770 889 
Q 3016 1369 3016 2328 
Q 3016 3291 2770 3770 
Q 2525 4250 2034 4250 
z
M 2034 4750 
Q 2819 4750 3233 4129 
Q 3647 3509 3647 2328 
Q 3647 1150 3233 529 
Q 2819 -91 2034 -91 
Q 1250 -91 836 529 
Q 422 1150 422 2328 
Q 422 3509 836 4129 
Q 1250 4750 2034 4750 
z
" transform="scale(0.015625)"/>
       </defs>
       <use xlink:href="#DejaVuSans-30"/>
      </g>
     </g>
    </g>
    <g id="xtick_2">
     <g id="line2d_2">
      <g>
       <use xlink:href="#me933686aea" x="147.417542" y="185" style="stroke: #000000; stroke-width: 0.8"/>
      </g>
     </g>
     <g id="text_2">
      <!-- 20 -->
      <g transform="translate(141.055042 199.598437)scale(0.1 -0.1)">
       <defs>
        <path id="DejaVuSans-32" d="M 1228 531 
L 3431 531 
L 3431 0 
L 469 0 
L 469 531 
Q 828 903 1448 1529 
Q 2069 2156 2228 2338 
Q 2531 2678 2651 2914 
Q 2772 3150 2772 3378 
Q 2772 3750 2511 3984 
Q 2250 4219 1831 4219 
Q 1534 4219 1204 4116 
Q 875 4013 500 3803 
L 500 4441 
Q 881 4594 1212 4672 
Q 1544 4750 1819 4750 
Q 2544 4750 2975 4387 
Q 3406 4025 3406 3419 
Q 3406 3131 3298 2873 
Q 3191 2616 2906 2266 
Q 2828 2175 2409 1742 
Q 1991 1309 1228 531 
z
" transform="scale(0.015625)"/>
       </defs>
       <use xlink:href="#DejaVuSans-32"/>
       <use xlink:href="#DejaVuSans-30" x="63.623047"/>
      </g>
     </g>
    </g>
    <g id="xtick_3">
     <g id="line2d_3">
      <g>
       <use xlink:href="#me933686aea" x="212.025538" y="185" style="stroke: #000000; stroke-width: 0.8"/>
      </g>
     </g>
     <g id="text_3">
      <!-- 40 -->
      <g transform="translate(205.663038 199.598437)scale(0.1 -0.1)">
       <defs>
        <path id="DejaVuSans-34" d="M 2419 4116 
L 825 1625 
L 2419 1625 
L 2419 4116 
z
M 2253 4666 
L 3047 4666 
L 3047 1625 
L 3713 1625 
L 3713 1100 
L 3047 1100 
L 3047 0 
L 2419 0 
L 2419 1100 
L 313 1100 
L 313 1709 
L 2253 4666 
z
" transform="scale(0.015625)"/>
       </defs>
       <use xlink:href="#DejaVuSans-34"/>
       <use xlink:href="#DejaVuSans-30" x="63.623047"/>
      </g>
     </g>
    </g>
    <g id="xtick_4">
     <g id="line2d_4">
      <g>
       <use xlink:href="#me933686aea" x="276.633535" y="185" style="stroke: #000000; stroke-width: 0.8"/>
      </g>
     </g>
     <g id="text_4">
      <!-- 60 -->
      <g transform="translate(270.271035 199.598437)scale(0.1 -0.1)">
       <defs>
        <path id="DejaVuSans-36" d="M 2113 2584 
Q 1688 2584 1439 2293 
Q 1191 2003 1191 1497 
Q 1191 994 1439 701 
Q 1688 409 2113 409 
Q 2538 409 2786 701 
Q 3034 994 3034 1497 
Q 3034 2003 2786 2293 
Q 2538 2584 2113 2584 
z
M 3366 4563 
L 3366 3988 
Q 3128 4100 2886 4159 
Q 2644 4219 2406 4219 
Q 1781 4219 1451 3797 
Q 1122 3375 1075 2522 
Q 1259 2794 1537 2939 
Q 1816 3084 2150 3084 
Q 2853 3084 3261 2657 
Q 3669 2231 3669 1497 
Q 3669 778 3244 343 
Q 2819 -91 2113 -91 
Q 1303 -91 875 529 
Q 447 1150 447 2328 
Q 447 3434 972 4092 
Q 1497 4750 2381 4750 
Q 2619 4750 2861 4703 
Q 3103 4656 3366 4563 
z
" transform="scale(0.015625)"/>
       </defs>
       <use xlink:href="#DejaVuSans-36"/>
       <use xlink:href="#DejaVuSans-30" x="63.623047"/>
      </g>
     </g>
    </g>
    <g id="xtick_5">
     <g id="line2d_5">
      <g>
       <use xlink:href="#me933686aea" x="341.241531" y="185" style="stroke: #000000; stroke-width: 0.8"/>
      </g>
     </g>
     <g id="text_5">
      <!-- 80 -->
      <g transform="translate(334.879031 199.598437)scale(0.1 -0.1)">
       <defs>
        <path id="DejaVuSans-38" d="M 2034 2216 
Q 1584 2216 1326 1975 
Q 1069 1734 1069 1313 
Q 1069 891 1326 650 
Q 1584 409 2034 409 
Q 2484 409 2743 651 
Q 3003 894 3003 1313 
Q 3003 1734 2745 1975 
Q 2488 2216 2034 2216 
z
M 1403 2484 
Q 997 2584 770 2862 
Q 544 3141 544 3541 
Q 544 4100 942 4425 
Q 1341 4750 2034 4750 
Q 2731 4750 3128 4425 
Q 3525 4100 3525 3541 
Q 3525 3141 3298 2862 
Q 3072 2584 2669 2484 
Q 3125 2378 3379 2068 
Q 3634 1759 3634 1313 
Q 3634 634 3220 271 
Q 2806 -91 2034 -91 
Q 1263 -91 848 271 
Q 434 634 434 1313 
Q 434 1759 690 2068 
Q 947 2378 1403 2484 
z
M 1172 3481 
Q 1172 3119 1398 2916 
Q 1625 2713 2034 2713 
Q 2441 2713 2670 2916 
Q 2900 3119 2900 3481 
Q 2900 3844 2670 4047 
Q 2441 4250 2034 4250 
Q 1625 4250 1398 4047 
Q 1172 3844 1172 3481 
z
" transform="scale(0.015625)"/>
       </defs>
       <use xlink:href="#DejaVuSans-38"/>
       <use xlink:href="#DejaVuSans-30" x="63.623047"/>
      </g>
     </g>
    </g>
   </g>
   <g id="matplotlib.axis_2">
    <g id="ytick_1">
     <g id="line2d_6">
      <defs>
       <path id="m52e6550cd3" d="M 0 0 
L -3.5 0 
" style="stroke: #000000; stroke-width: 0.8"/>
      </defs>
      <g>
       <use xlink:href="#m52e6550cd3" x="69.37" y="161.466741" style="stroke: #000000; stroke-width: 0.8"/>
      </g>
     </g>
     <g id="text_6">
      <!-- 1 -->
      <g transform="translate(56.0075 165.26596)scale(0.1 -0.1)">
       <defs>
        <path id="DejaVuSans-31" d="M 794 531 
L 1825 531 
L 1825 4091 
L 703 3866 
L 703 4441 
L 1819 4666 
L 2450 4666 
L 2450 531 
L 3481 531 
L 3481 0 
L 794 0 
L 794 531 
z
" transform="scale(0.015625)"/>
       </defs>
       <use xlink:href="#DejaVuSans-31"/>
      </g>
     </g>
    </g>
    <g id="ytick_2">
     <g id="line2d_7">
      <g>
       <use xlink:href="#m52e6550cd3" x="69.37" y="126.81054" style="stroke: #000000; stroke-width: 0.8"/>
      </g>
     </g>
     <g id="text_7">
      <!-- 2 -->
      <g transform="translate(56.0075 130.609758)scale(0.1 -0.1)">
       <use xlink:href="#DejaVuSans-32"/>
      </g>
     </g>
    </g>
    <g id="ytick_3">
     <g id="line2d_8">
      <g>
       <use xlink:href="#m52e6550cd3" x="69.37" y="92.154338" style="stroke: #000000; stroke-width: 0.8"/>
      </g>
     </g>
     <g id="text_8">
      <!-- 3 -->
      <g transform="translate(56.0075 95.953557)scale(0.1 -0.1)">
       <defs>
        <path id="DejaVuSans-33" d="M 2597 2516 
Q 3050 2419 3304 2112 
Q 3559 1806 3559 1356 
Q 3559 666 3084 287 
Q 2609 -91 1734 -91 
Q 1441 -91 1130 -33 
Q 819 25 488 141 
L 488 750 
Q 750 597 1062 519 
Q 1375 441 1716 441 
Q 2309 441 2620 675 
Q 2931 909 2931 1356 
Q 2931 1769 2642 2001 
Q 2353 2234 1838 2234 
L 1294 2234 
L 1294 2753 
L 1863 2753 
Q 2328 2753 2575 2939 
Q 2822 3125 2822 3475 
Q 2822 3834 2567 4026 
Q 2313 4219 1838 4219 
Q 1578 4219 1281 4162 
Q 984 4106 628 3988 
L 628 4550 
Q 988 4650 1302 4700 
Q 1616 4750 1894 4750 
Q 2613 4750 3031 4423 
Q 3450 4097 3450 3541 
Q 3450 3153 3228 2886 
Q 3006 2619 2597 2516 
z
" transform="scale(0.015625)"/>
       </defs>
       <use xlink:href="#DejaVuSans-33"/>
      </g>
     </g>
    </g>
    <g id="ytick_4">
     <g id="line2d_9">
      <g>
       <use xlink:href="#m52e6550cd3" x="69.37" y="57.498137" style="stroke: #000000; stroke-width: 0.8"/>
      </g>
     </g>
     <g id="text_9">
      <!-- 4 -->
      <g transform="translate(56.0075 61.297355)scale(0.1 -0.1)">
       <use xlink:href="#DejaVuSans-34"/>
      </g>
     </g>
    </g>
   </g>
   <g id="line2d_10">
    <path d="M 82.809545 48.270909 
L 83.078638 48.270909 
L 83.34773 85.806784 
L 83.616822 99.679894 
L 83.885915 105.557059 
L 84.154684 107.947186 
L 84.423776 108.73993 
L 84.692869 108.749089 
L 85.231053 107.919496 
L 85.769238 107.225741 
L 86.03833 107.710464 
L 86.307422 109.650078 
L 86.845284 118.668814 
L 87.383469 129.265807 
L 87.921653 134.837488 
L 88.190745 136.22875 
L 88.459838 138.288968 
L 88.72893 142.234396 
L 89.267115 155.931466 
L 89.804976 169.1275 
L 90.074069 172.389202 
L 90.343161 172.68716 
L 90.612253 170.157535 
L 91.41953 158.542645 
L 91.957715 153.208172 
L 92.226484 151.491154 
L 92.495576 150.922831 
L 92.764669 151.850938 
L 93.571946 158.081024 
L 93.841038 158.142338 
L 94.379222 155.938578 
L 95.186176 152.79332 
L 97.876776 144.080602 
L 98.414961 141.864958 
L 98.953146 138.079575 
L 99.49133 134.155038 
L 99.760422 133.374372 
L 100.029515 133.692835 
L 100.298284 134.564515 
L 100.567376 134.978355 
L 100.836469 134.186443 
L 101.374653 130.982872 
L 101.643746 131.355167 
L 101.912838 134.634038 
L 102.451022 149.047449 
L 102.988884 164.23702 
L 103.257976 168.890531 
L 103.527069 171.552255 
L 103.796161 172.835618 
L 104.065253 173.131671 
L 104.334346 172.653678 
L 105.141622 169.610749 
L 106.486761 163.862656 
L 106.755853 163.095366 
L 107.024946 162.668592 
L 107.56313 162.233712 
L 107.832222 161.713128 
L 108.101315 160.649007 
L 108.908269 155.261105 
L 109.984638 148.005794 
L 111.060684 137.569065 
L 111.329776 137.584584 
L 111.598869 140.535678 
L 112.137053 153.985552 
L 112.675238 166.995609 
L 113.213423 172.670353 
L 114.020376 177.074356 
L 114.289469 177.958218 
L 114.558561 178.440917 
L 114.827653 178.489091 
L 115.096746 178.053476 
L 115.365838 177.098557 
L 116.980069 169.009083 
L 117.787346 166.268148 
L 118.32553 165.144446 
L 118.594623 164.973787 
L 118.863715 165.112949 
L 119.132484 165.555806 
L 120.208853 168.255663 
L 120.477946 168.539882 
L 121.01613 168.651887 
L 121.554315 168.761211 
L 122.899453 169.380848 
L 123.437638 169.2652 
L 123.975823 168.907866 
L 124.513684 168.123353 
L 125.320961 166.772404 
L 125.859146 166.398303 
L 126.666423 166.203429 
L 127.204284 165.612929 
L 128.549746 163.85202 
L 129.08793 163.386647 
L 129.357023 163.320221 
L 129.894884 163.508268 
L 130.702161 163.92387 
L 131.240346 163.952109 
L 132.047623 163.891965 
L 132.585484 164.06271 
L 133.123669 164.357689 
L 133.392761 164.401204 
L 133.930946 164.16891 
L 135.007315 163.192312 
L 136.621546 161.621574 
L 137.15973 161.509815 
L 137.697915 161.369426 
L 138.235777 161.233065 
L 138.504869 161.493046 
L 138.773961 162.128322 
L 139.85033 165.908106 
L 140.119423 166.068955 
L 140.657284 165.742119 
L 142.271838 164.065864 
L 145.23153 163.19366 
L 146.038484 162.407314 
L 146.845761 161.474061 
L 147.114853 161.306234 
L 147.383946 161.361078 
L 147.653038 161.709426 
L 148.729084 164.333898 
L 148.998177 164.456468 
L 149.536361 164.152821 
L 150.881823 163.313057 
L 152.765146 162.33117 
L 154.110284 162.25985 
L 155.186654 161.661611 
L 155.455746 161.73991 
L 156.531792 162.474528 
L 157.339069 162.501001 
L 157.877254 162.367008 
L 158.68453 161.911667 
L 160.029669 161.001066 
L 160.298761 160.937815 
L 160.567854 161.00257 
L 161.644223 161.795656 
L 162.182084 161.740378 
L 162.451177 161.86446 
L 163.527546 163.18135 
L 164.06573 163.048213 
L 164.603592 162.932497 
L 165.949054 162.8949 
L 168.370561 162.700734 
L 172.406623 161.123045 
L 172.944484 161.378215 
L 174.559038 162.880532 
L 175.365992 163.718686 
L 175.904177 164.314319 
L 176.442361 164.614761 
L 177.518731 164.828125 
L 178.056592 164.692881 
L 181.554469 163.21095 
L 183.437792 162.913485 
L 184.245069 163.13381 
L 185.052346 163.255141 
L 185.590531 163.404625 
L 186.128392 163.223167 
L 187.204761 162.688319 
L 187.742946 162.645381 
L 190.164454 163.068553 
L 190.702638 163.243789 
L 191.509592 163.206373 
L 193.124146 162.896877 
L 193.931423 162.728483 
L 195.276561 162.586158 
L 196.083838 162.456825 
L 200.657761 162.795193 
L 201.465038 162.933692 
L 202.810177 163.340057 
L 204.424731 163.2312 
L 205.500777 163.006334 
L 206.577146 162.754421 
L 208.191377 162.92121 
L 210.0747 162.641618 
L 210.881977 162.602499 
L 211.689254 162.859692 
L 212.496531 163.023108 
L 214.379854 163.018254 
L 215.4559 162.927823 
L 215.994085 162.89718 
L 216.532269 163.192225 
L 217.070454 163.640058 
L 217.608638 163.742249 
L 222.720746 163.116593 
L 224.065885 163.253062 
L 225.680438 163.060098 
L 226.756485 162.911483 
L 232.137685 163.369569 
L 233.214054 163.114281 
L 233.752239 163.305856 
L 234.2901 163.503139 
L 234.828285 163.440173 
L 236.173746 163.183156 
L 237.518885 162.95864 
L 238.595254 162.76535 
L 239.402531 162.989269 
L 241.554946 163.60617 
L 247.205239 163.008542 
L 252.855531 163.152483 
L 253.662485 163.195985 
L 256.622177 163.096065 
L 257.698546 163.142456 
L 264.693977 163.062714 
L 269.536993 163.166315 
L 295.904808 162.410099 
L 328.461101 162.089211 
L 351.600455 161.962404 
L 351.600455 161.962404 
" clip-path="url(#p95e1c564c5)" style="fill: none; stroke: #ffa500; stroke-width: 1.5; stroke-linecap: square"/>
   </g>
   <g id="patch_3">
    <path d="M 69.37 185 
L 69.37 41.76 
" style="fill: none; stroke: #000000; stroke-width: 0.8; stroke-linejoin: miter; stroke-linecap: square"/>
   </g>
   <g id="patch_4">
    <path d="M 365.04 185 
L 365.04 41.76 
" style="fill: none; stroke: #000000; stroke-width: 0.8; stroke-linejoin: miter; stroke-linecap: square"/>
   </g>
   <g id="patch_5">
    <path d="M 69.37 185 
L 365.04 185 
" style="fill: none; stroke: #000000; stroke-width: 0.8; stroke-linejoin: miter; stroke-linecap: square"/>
   </g>
   <g id="patch_6">
    <path d="M 69.37 41.76 
L 365.04 41.76 
" style="fill: none; stroke: #000000; stroke-width: 0.8; stroke-linejoin: miter; stroke-linecap: square"/>
   </g>
   <g id="legend_1">
    <g id="patch_7">
     <path d="M 314.2025 64.438125 
L 358.04 64.438125 
Q 360.04 64.438125 360.04 62.438125 
L 360.04 48.76 
Q 360.04 46.76 358.04 46.76 
L 314.2025 46.76 
Q 312.2025 46.76 312.2025 48.76 
L 312.2025 62.438125 
Q 312.2025 64.438125 314.2025 64.438125 
z
" style="fill: #ffffff; opacity: 0.8; stroke: #cccccc; stroke-linejoin: miter"/>
    </g>
    <g id="line2d_11">
     <path d="M 316.2025 54.858438 
L 326.2025 54.858438 
L 336.2025 54.858438 
" style="fill: none; stroke: #ffa500; stroke-width: 1.5; stroke-linecap: square"/>
    </g>
    <g id="text_10">
     <!-- xx -->
     <g transform="translate(344.2025 58.358438)scale(0.1 -0.1)">
      <defs>
       <path id="DejaVuSans-78" d="M 3513 3500 
L 2247 1797 
L 3578 0 
L 2900 0 
L 1881 1375 
L 863 0 
L 184 0 
L 1544 1831 
L 300 3500 
L 978 3500 
L 1906 2253 
L 2834 3500 
L 3513 3500 
z
" transform="scale(0.015625)"/>
      </defs>
      <use xlink:href="#DejaVuSans-78"/>
      <use xlink:href="#DejaVuSans-78" x="59.179688"/>
     </g>
    </g>
   </g>
  </g>
  <g id="axes_2">
   <g id="patch_8">
    <path d="M 413.53 185 
L 709.2 185 
L 709.2 41.76 
L 413.53 41.76 
z
" style="fill: #ffffff"/>
   </g>
   <g id="matplotlib.axis_3">
    <g id="xtick_6">
     <g id="line2d_12">
      <g>
       <use xlink:href="#me933686aea" x="426.969545" y="185" style="stroke: #000000; stroke-width: 0.8"/>
      </g>
     </g>
     <g id="text_11">
      <!-- 0 -->
      <g transform="translate(423.788295 199.598437)scale(0.1 -0.1)">
       <use xlink:href="#DejaVuSans-30"/>
      </g>
     </g>
    </g>
    <g id="xtick_7">
     <g id="line2d_13">
      <g>
       <use xlink:href="#me933686aea" x="491.577542" y="185" style="stroke: #000000; stroke-width: 0.8"/>
      </g>
     </g>
     <g id="text_12">
      <!-- 20 -->
      <g transform="translate(485.215042 199.598437)scale(0.1 -0.1)">
       <use xlink:href="#DejaVuSans-32"/>
       <use xlink:href="#DejaVuSans-30" x="63.623047"/>
      </g>
     </g>
    </g>
    <g id="xtick_8">
     <g id="line2d_14">
      <g>
       <use xlink:href="#me933686aea" x="556.185538" y="185" style="stroke: #000000; stroke-width: 0.8"/>
      </g>
     </g>
     <g id="text_13">
      <!-- 40 -->
      <g transform="translate(549.823038 199.598437)scale(0.1 -0.1)">
       <use xlink:href="#DejaVuSans-34"/>
       <use xlink:href="#DejaVuSans-30" x="63.623047"/>
      </g>
     </g>
    </g>
    <g id="xtick_9">
     <g id="line2d_15">
      <g>
       <use xlink:href="#me933686aea" x="620.793535" y="185" style="stroke: #000000; stroke-width: 0.8"/>
      </g>
     </g>
     <g id="text_14">
      <!-- 60 -->
      <g transform="translate(614.431035 199.598437)scale(0.1 -0.1)">
       <use xlink:href="#DejaVuSans-36"/>
       <use xlink:href="#DejaVuSans-30" x="63.623047"/>
      </g>
     </g>
    </g>
    <g id="xtick_10">
     <g id="line2d_16">
      <g>
       <use xlink:href="#me933686aea" x="685.401531" y="185" style="stroke: #000000; stroke-width: 0.8"/>
      </g>
     </g>
     <g id="text_15">
      <!-- 80 -->
      <g transform="translate(679.039031 199.598437)scale(0.1 -0.1)">
       <use xlink:href="#DejaVuSans-38"/>
       <use xlink:href="#DejaVuSans-30" x="63.623047"/>
      </g>
     </g>
    </g>
   </g>
   <g id="matplotlib.axis_4">
    <g id="ytick_5">
     <g id="line2d_17">
      <g>
       <use xlink:href="#m52e6550cd3" x="413.53" y="169.90859" style="stroke: #000000; stroke-width: 0.8"/>
      </g>
     </g>
     <g id="text_16">
      <!-- 1 -->
      <g transform="translate(400.1675 173.707809)scale(0.1 -0.1)">
       <use xlink:href="#DejaVuSans-31"/>
      </g>
     </g>
    </g>
    <g id="ytick_6">
     <g id="line2d_18">
      <g>
       <use xlink:href="#m52e6550cd3" x="413.53" y="142.426873" style="stroke: #000000; stroke-width: 0.8"/>
      </g>
     </g>
     <g id="text_17">
      <!-- 2 -->
      <g transform="translate(400.1675 146.226092)scale(0.1 -0.1)">
       <use xlink:href="#DejaVuSans-32"/>
      </g>
     </g>
    </g>
    <g id="ytick_7">
     <g id="line2d_19">
      <g>
       <use xlink:href="#m52e6550cd3" x="413.53" y="114.945156" style="stroke: #000000; stroke-width: 0.8"/>
      </g>
     </g>
     <g id="text_18">
      <!-- 3 -->
      <g transform="translate(400.1675 118.744374)scale(0.1 -0.1)">
       <use xlink:href="#DejaVuSans-33"/>
      </g>
     </g>
    </g>
    <g id="ytick_8">
     <g id="line2d_20">
      <g>
       <use xlink:href="#m52e6550cd3" x="413.53" y="87.463438" style="stroke: #000000; stroke-width: 0.8"/>
      </g>
     </g>
     <g id="text_19">
      <!-- 4 -->
      <g transform="translate(400.1675 91.262657)scale(0.1 -0.1)">
       <use xlink:href="#DejaVuSans-34"/>
      </g>
     </g>
    </g>
    <g id="ytick_9">
     <g id="line2d_21">
      <g>
       <use xlink:href="#m52e6550cd3" x="413.53" y="59.981721" style="stroke: #000000; stroke-width: 0.8"/>
      </g>
     </g>
     <g id="text_20">
      <!-- 5 -->
      <g transform="translate(400.1675 63.78094)scale(0.1 -0.1)">
       <defs>
        <path id="DejaVuSans-35" d="M 691 4666 
L 3169 4666 
L 3169 4134 
L 1269 4134 
L 1269 2991 
Q 1406 3038 1543 3061 
Q 1681 3084 1819 3084 
Q 2600 3084 3056 2656 
Q 3513 2228 3513 1497 
Q 3513 744 3044 326 
Q 2575 -91 1722 -91 
Q 1428 -91 1123 -41 
Q 819 9 494 109 
L 494 744 
Q 775 591 1075 516 
Q 1375 441 1709 441 
Q 2250 441 2565 725 
Q 2881 1009 2881 1497 
Q 2881 1984 2565 2268 
Q 2250 2553 1709 2553 
Q 1456 2553 1204 2497 
Q 953 2441 691 2322 
L 691 4666 
z
" transform="scale(0.015625)"/>
       </defs>
       <use xlink:href="#DejaVuSans-35"/>
      </g>
     </g>
    </g>
   </g>
   <g id="line2d_22">
    <path d="M 426.969545 48.270909 
L 427.238638 48.270909 
L 427.50773 91.154807 
L 427.776822 108.495941 
L 428.045915 117.137936 
L 428.583776 125.117609 
L 429.391053 133.197556 
L 429.929238 139.212883 
L 430.19833 140.427223 
L 430.467422 140.219217 
L 431.543469 136.864939 
L 432.350745 132.607776 
L 432.619838 133.415489 
L 432.88893 136.860261 
L 433.427115 150.231601 
L 433.964976 164.089716 
L 434.503161 171.595184 
L 435.041345 174.861781 
L 435.848622 178.119039 
L 436.117715 178.489091 
L 436.386484 178.365776 
L 436.655576 177.901959 
L 437.193761 176.276449 
L 437.731946 174.737713 
L 438.001038 174.524223 
L 438.539222 174.604345 
L 438.808315 174.258451 
L 439.615269 172.017985 
L 440.153453 170.12136 
L 441.229822 165.806474 
L 441.767684 163.923229 
L 442.305869 161.23583 
L 443.113146 155.397548 
L 443.65133 151.677667 
L 443.920422 151.427938 
L 444.189515 152.882386 
L 444.727376 159.433447 
L 445.534653 168.60793 
L 446.34193 174.783118 
L 446.880115 177.177293 
L 447.148884 177.867594 
L 447.417976 178.137843 
L 447.687069 178.096717 
L 448.225253 177.635376 
L 448.763438 176.633435 
L 450.108576 173.726584 
L 451.454038 170.496511 
L 452.530084 168.249041 
L 453.068269 167.527778 
L 453.606453 166.901225 
L 454.144638 165.801775 
L 454.951915 163.962522 
L 455.220684 163.878049 
L 455.758869 164.315154 
L 456.027961 164.226033 
L 456.835238 163.009709 
L 457.10433 163.488281 
L 457.642515 166.279797 
L 458.180376 169.037447 
L 458.449469 169.663857 
L 458.718561 169.822633 
L 459.256746 169.496617 
L 459.79493 169.204432 
L 460.064023 169.336185 
L 460.333115 169.757773 
L 460.870976 170.977064 
L 461.140069 171.257389 
L 461.947346 171.149023 
L 462.48553 172.342337 
L 463.023715 173.366437 
L 463.561576 173.909597 
L 464.368853 175.052104 
L 464.637946 175.106115 
L 465.17613 174.705232 
L 465.714315 174.361744 
L 466.252176 174.092117 
L 467.597638 172.801477 
L 468.942776 171.543838 
L 469.480961 171.358919 
L 470.826423 171.135399 
L 471.633376 170.730887 
L 473.24793 169.571068 
L 473.517023 169.634183 
L 474.593069 170.332279 
L 475.131253 169.821053 
L 476.745484 167.878538 
L 477.014576 167.871972 
L 477.283669 168.201011 
L 478.090946 170.08787 
L 478.360038 170.226991 
L 478.898223 169.764069 
L 480.243361 168.151338 
L 480.781546 167.511044 
L 481.050638 167.55095 
L 481.857915 168.619874 
L 482.126684 168.650249 
L 482.933961 168.064669 
L 483.203053 168.284698 
L 483.741238 169.468715 
L 485.355469 173.496169 
L 485.624561 173.638901 
L 485.893653 173.484522 
L 486.70093 172.757604 
L 487.507884 172.299498 
L 489.660623 169.926007 
L 489.929392 169.632641 
L 490.198484 169.557937 
L 490.467577 169.892805 
L 491.005761 171.75047 
L 491.543946 173.250187 
L 491.813038 173.399627 
L 492.351223 173.101544 
L 493.696361 171.906278 
L 494.77273 171.525142 
L 495.848777 171.143717 
L 497.732423 170.228482 
L 498.270284 170.361857 
L 498.808469 170.631896 
L 499.346654 170.607587 
L 500.423023 170.227863 
L 501.229977 169.831133 
L 501.499069 169.858868 
L 502.575438 170.413048 
L 503.651484 170.240738 
L 504.727854 170.060322 
L 505.266038 170.296414 
L 506.072992 170.807093 
L 506.880269 170.691881 
L 507.418454 170.558862 
L 507.956638 170.262406 
L 508.22573 170.281658 
L 508.494823 170.566001 
L 509.032684 171.54277 
L 509.301777 171.806228 
L 509.570869 171.809051 
L 510.91633 171.109199 
L 513.068746 170.760559 
L 515.221161 170.51527 
L 516.566623 170.369781 
L 517.104484 170.318879 
L 517.642669 170.483956 
L 518.719038 170.984372 
L 519.525992 171.140637 
L 520.333269 171.03751 
L 521.678731 170.816363 
L 523.292961 170.725863 
L 524.638423 170.407712 
L 525.176284 170.260102 
L 525.714469 170.35118 
L 526.252654 170.568036 
L 526.790838 170.496644 
L 527.866884 169.868167 
L 528.135977 170.032955 
L 528.674161 171.058203 
L 529.212346 171.980878 
L 529.481438 172.100593 
L 530.019623 171.870397 
L 530.826577 171.371166 
L 531.633854 171.182904 
L 533.786269 171.133405 
L 534.862638 171.165594 
L 535.669592 171.234749 
L 536.476869 171.322024 
L 538.360192 171.076113 
L 541.050792 170.915453 
L 550.737146 170.87416 
L 552.082285 170.857121 
L 553.965931 171.071203 
L 555.849254 170.800248 
L 556.9253 170.727283 
L 558.001669 170.61131 
L 559.347131 170.431891 
L 559.884992 170.610534 
L 560.961362 171.608085 
L 561.499546 171.730865 
L 562.3065 171.662024 
L 563.382869 171.480217 
L 567.956792 171.61887 
L 570.647392 171.4832 
L 572.800131 171.427606 
L 576.297685 171.651468 
L 577.104962 171.814754 
L 577.643146 171.873398 
L 582.217069 171.349163 
L 584.907669 171.285739 
L 585.984039 171.8677 
L 586.790992 171.808442 
L 589.2125 171.551832 
L 590.557962 171.440926 
L 591.9031 171.31996 
L 595.400977 171.336433 
L 596.746439 171.409011 
L 599.167946 171.276268 
L 600.243993 171.212299 
L 602.396408 171.265953 
L 605.3561 171.174498 
L 618.8091 171.215771 
L 623.921208 171.050648 
L 647.329654 170.662304 
L 683.921685 170.388209 
L 695.760455 170.336514 
L 695.760455 170.336514 
" clip-path="url(#p20b006174e)" style="fill: none; stroke: #0000ff; stroke-width: 1.5; stroke-linecap: square"/>
   </g>
   <g id="patch_9">
    <path d="M 413.53 185 
L 413.53 41.76 
" style="fill: none; stroke: #000000; stroke-width: 0.8; stroke-linejoin: miter; stroke-linecap: square"/>
   </g>
   <g id="patch_10">
    <path d="M 709.2 185 
L 709.2 41.76 
" style="fill: none; stroke: #000000; stroke-width: 0.8; stroke-linejoin: miter; stroke-linecap: square"/>
   </g>
   <g id="patch_11">
    <path d="M 413.53 185 
L 709.2 185 
" style="fill: none; stroke: #000000; stroke-width: 0.8; stroke-linejoin: miter; stroke-linecap: square"/>
   </g>
   <g id="patch_12">
    <path d="M 413.53 41.76 
L 709.2 41.76 
" style="fill: none; stroke: #000000; stroke-width: 0.8; stroke-linejoin: miter; stroke-linecap: square"/>
   </g>
   <g id="legend_2">
    <g id="patch_13">
     <path d="M 658.3625 64.438125 
L 702.2 64.438125 
Q 704.2 64.438125 704.2 62.438125 
L 704.2 48.76 
Q 704.2 46.76 702.2 46.76 
L 658.3625 46.76 
Q 656.3625 46.76 656.3625 48.76 
L 656.3625 62.438125 
Q 656.3625 64.438125 658.3625 64.438125 
z
" style="fill: #ffffff; opacity: 0.8; stroke: #cccccc; stroke-linejoin: miter"/>
    </g>
    <g id="line2d_23">
     <path d="M 660.3625 54.858438 
L 670.3625 54.858438 
L 680.3625 54.858438 
" style="fill: none; stroke: #0000ff; stroke-width: 1.5; stroke-linecap: square"/>
    </g>
    <g id="text_21">
     <!-- yy -->
     <g transform="translate(688.3625 58.358438)scale(0.1 -0.1)">
      <defs>
       <path id="DejaVuSans-79" d="M 2059 -325 
Q 1816 -950 1584 -1140 
Q 1353 -1331 966 -1331 
L 506 -1331 
L 506 -850 
L 844 -850 
Q 1081 -850 1212 -737 
Q 1344 -625 1503 -206 
L 1606 56 
L 191 3500 
L 800 3500 
L 1894 763 
L 2988 3500 
L 3597 3500 
L 2059 -325 
z
" transform="scale(0.015625)"/>
      </defs>
      <use xlink:href="#DejaVuSans-79"/>
      <use xlink:href="#DejaVuSans-79" x="59.179688"/>
     </g>
    </g>
   </g>
  </g>
  <g id="axes_3">
   <g id="patch_14">
    <path d="M 69.37 356.12 
L 365.04 356.12 
L 365.04 212.88 
L 69.37 212.88 
z
" style="fill: #ffffff"/>
   </g>
   <g id="matplotlib.axis_5">
    <g id="xtick_11">
     <g id="line2d_24">
      <g>
       <use xlink:href="#me933686aea" x="82.809545" y="356.12" style="stroke: #000000; stroke-width: 0.8"/>
      </g>
     </g>
     <g id="text_22">
      <!-- 0 -->
      <g transform="translate(79.628295 370.718437)scale(0.1 -0.1)">
       <use xlink:href="#DejaVuSans-30"/>
      </g>
     </g>
    </g>
    <g id="xtick_12">
     <g id="line2d_25">
      <g>
       <use xlink:href="#me933686aea" x="147.417542" y="356.12" style="stroke: #000000; stroke-width: 0.8"/>
      </g>
     </g>
     <g id="text_23">
      <!-- 20 -->
      <g transform="translate(141.055042 370.718437)scale(0.1 -0.1)">
       <use xlink:href="#DejaVuSans-32"/>
       <use xlink:href="#DejaVuSans-30" x="63.623047"/>
      </g>
     </g>
    </g>
    <g id="xtick_13">
     <g id="line2d_26">
      <g>
       <use xlink:href="#me933686aea" x="212.025538" y="356.12" style="stroke: #000000; stroke-width: 0.8"/>
      </g>
     </g>
     <g id="text_24">
      <!-- 40 -->
      <g transform="translate(205.663038 370.718437)scale(0.1 -0.1)">
       <use xlink:href="#DejaVuSans-34"/>
       <use xlink:href="#DejaVuSans-30" x="63.623047"/>
      </g>
     </g>
    </g>
    <g id="xtick_14">
     <g id="line2d_27">
      <g>
       <use xlink:href="#me933686aea" x="276.633535" y="356.12" style="stroke: #000000; stroke-width: 0.8"/>
      </g>
     </g>
     <g id="text_25">
      <!-- 60 -->
      <g transform="translate(270.271035 370.718437)scale(0.1 -0.1)">
       <use xlink:href="#DejaVuSans-36"/>
       <use xlink:href="#DejaVuSans-30" x="63.623047"/>
      </g>
     </g>
    </g>
    <g id="xtick_15">
     <g id="line2d_28">
      <g>
       <use xlink:href="#me933686aea" x="341.241531" y="356.12" style="stroke: #000000; stroke-width: 0.8"/>
      </g>
     </g>
     <g id="text_26">
      <!-- 80 -->
      <g transform="translate(334.879031 370.718437)scale(0.1 -0.1)">
       <use xlink:href="#DejaVuSans-38"/>
       <use xlink:href="#DejaVuSans-30" x="63.623047"/>
      </g>
     </g>
    </g>
   </g>
   <g id="matplotlib.axis_6">
    <g id="ytick_10">
     <g id="line2d_29">
      <g>
       <use xlink:href="#m52e6550cd3" x="69.37" y="339.566667" style="stroke: #000000; stroke-width: 0.8"/>
      </g>
     </g>
     <g id="text_27">
      <!-- 1 -->
      <g transform="translate(56.0075 343.365885)scale(0.1 -0.1)">
       <use xlink:href="#DejaVuSans-31"/>
      </g>
     </g>
    </g>
    <g id="ytick_11">
     <g id="line2d_30">
      <g>
       <use xlink:href="#m52e6550cd3" x="69.37" y="303.844821" style="stroke: #000000; stroke-width: 0.8"/>
      </g>
     </g>
     <g id="text_28">
      <!-- 2 -->
      <g transform="translate(56.0075 307.64404)scale(0.1 -0.1)">
       <use xlink:href="#DejaVuSans-32"/>
      </g>
     </g>
    </g>
    <g id="ytick_12">
     <g id="line2d_31">
      <g>
       <use xlink:href="#m52e6550cd3" x="69.37" y="268.122976" style="stroke: #000000; stroke-width: 0.8"/>
      </g>
     </g>
     <g id="text_29">
      <!-- 3 -->
      <g transform="translate(56.0075 271.922195)scale(0.1 -0.1)">
       <use xlink:href="#DejaVuSans-33"/>
      </g>
     </g>
    </g>
    <g id="ytick_13">
     <g id="line2d_32">
      <g>
       <use xlink:href="#m52e6550cd3" x="69.37" y="232.40113" style="stroke: #000000; stroke-width: 0.8"/>
      </g>
     </g>
     <g id="text_30">
      <!-- 4 -->
      <g transform="translate(56.0075 236.200349)scale(0.1 -0.1)">
       <use xlink:href="#DejaVuSans-34"/>
      </g>
     </g>
    </g>
   </g>
   <g id="line2d_33">
    <path d="M 82.809545 219.390909 
L 83.078638 219.390909 
L 83.34773 261.189015 
L 83.885915 295.903716 
L 84.423776 316.287297 
L 84.692869 321.468626 
L 84.961961 323.174044 
L 85.231053 322.641596 
L 85.769238 320.479281 
L 88.190745 314.699736 
L 89.267115 309.368079 
L 89.535884 309.106771 
L 89.804976 309.715192 
L 90.343161 312.694305 
L 90.881345 315.364041 
L 91.41953 316.29975 
L 91.688622 316.70161 
L 91.957715 317.364643 
L 92.495576 319.644886 
L 93.033761 323.408229 
L 93.571946 327.00493 
L 93.841038 327.531263 
L 94.11013 327.011845 
L 94.379222 325.605226 
L 95.455269 317.824548 
L 95.724361 318.420281 
L 95.993453 320.657511 
L 96.80073 329.602176 
L 97.069822 331.166135 
L 97.338915 332.07058 
L 97.607684 332.476945 
L 98.145869 332.578999 
L 98.414961 333.216376 
L 98.684053 334.706038 
L 99.222238 339.555879 
L 100.029515 347.468534 
L 100.298284 349.070368 
L 100.567376 349.609091 
L 100.836469 348.967011 
L 101.374653 345.173722 
L 101.912838 341.573951 
L 102.18193 340.66596 
L 102.451022 340.341566 
L 102.988884 340.397947 
L 103.257976 340.119668 
L 103.796161 338.404235 
L 104.334346 336.59352 
L 104.603438 336.36231 
L 104.87253 336.78939 
L 105.948576 340.543665 
L 106.217669 340.806001 
L 106.486761 340.843206 
L 107.024946 340.566163 
L 107.56313 339.854871 
L 108.639176 337.4476 
L 109.446453 335.740096 
L 110.791915 333.459246 
L 111.598869 331.196853 
L 112.675238 327.337304 
L 113.213423 324.519218 
L 114.020376 319.24946 
L 114.289469 319.369282 
L 114.558561 321.75828 
L 115.096746 332.27871 
L 115.63493 342.134908 
L 115.904023 344.335068 
L 116.173115 344.832262 
L 116.441884 344.275473 
L 117.249161 341.366714 
L 117.518253 340.881288 
L 117.787346 340.842082 
L 118.594623 341.963399 
L 118.863715 341.983534 
L 119.401576 341.583092 
L 119.670669 341.58411 
L 120.208853 341.970054 
L 120.477946 341.896211 
L 120.747038 341.430361 
L 121.823084 338.211769 
L 122.092176 338.121861 
L 122.361269 338.580676 
L 123.437638 342.117687 
L 123.70673 342.382235 
L 123.975823 342.415818 
L 124.782776 342.183976 
L 125.320961 342.353313 
L 125.590053 342.447299 
L 125.859146 342.399824 
L 126.128238 342.135811 
L 126.666423 341.077057 
L 127.742469 338.819598 
L 128.280653 337.971497 
L 128.818838 337.57875 
L 129.08793 337.623095 
L 129.357023 337.869893 
L 130.702161 339.99655 
L 131.77853 340.487552 
L 132.854576 341.39659 
L 133.392761 341.765791 
L 133.661853 341.773571 
L 133.930946 341.613317 
L 134.46913 340.890752 
L 135.545177 338.977867 
L 136.083361 338.49439 
L 136.621546 338.258529 
L 136.890638 338.26781 
L 137.15973 338.423832 
L 137.697915 339.212217 
L 139.043053 341.590071 
L 139.581238 342.864935 
L 139.85033 343.027573 
L 140.119423 342.891943 
L 142.54093 340.636573 
L 142.810023 340.700639 
L 143.616977 341.58699 
L 143.886069 341.638833 
L 144.424253 341.358359 
L 145.500623 340.494319 
L 146.307577 339.757738 
L 146.576669 339.682401 
L 147.114853 340.003225 
L 147.383946 340.18654 
L 147.653038 340.218847 
L 148.729084 339.766177 
L 148.998177 340.018472 
L 150.074546 341.509937 
L 150.61273 341.822767 
L 150.881823 341.842708 
L 151.419684 341.532377 
L 153.30333 339.772928 
L 153.572423 339.941439 
L 154.379377 341.059733 
L 154.917561 341.180821 
L 155.99393 341.388911 
L 156.800884 341.479589 
L 157.339069 341.053378 
L 157.877254 340.516703 
L 158.68453 339.956573 
L 159.760577 338.867965 
L 160.029669 339.067479 
L 160.298761 339.687564 
L 161.106038 342.689005 
L 161.37513 343.15877 
L 161.644223 343.172442 
L 162.989361 341.671909 
L 164.06573 340.419405 
L 164.334823 340.31581 
L 164.603592 340.427045 
L 165.679961 341.477433 
L 166.218146 341.431062 
L 167.832377 340.988448 
L 168.639654 340.989793 
L 169.177838 340.994175 
L 171.330254 340.592747 
L 171.868438 340.793106 
L 172.406623 341.1089 
L 172.944484 341.173307 
L 173.751761 340.866024 
L 174.289946 340.663207 
L 174.828131 340.715496 
L 175.635084 341.085458 
L 176.173269 340.998698 
L 176.711454 340.841698 
L 177.249638 340.897303 
L 178.056592 341.03728 
L 178.594777 340.856391 
L 179.671146 340.117767 
L 180.478423 339.464309 
L 180.747192 339.55081 
L 182.899931 342.228905 
L 183.169023 342.274371 
L 183.975977 341.891655 
L 184.783254 341.465409 
L 185.052346 341.457127 
L 185.590531 341.783002 
L 186.128392 342.041089 
L 186.666577 341.918827 
L 187.473854 341.703261 
L 188.550223 341.715679 
L 190.164454 341.132241 
L 190.971731 341.170254 
L 191.778685 341.2243 
L 196.083838 340.809734 
L 196.890792 340.862795 
L 198.236254 341.072105 
L 199.3123 341.14293 
L 200.388669 341.312264 
L 202.0029 341.383387 
L 203.617454 341.788737 
L 204.6935 341.460153 
L 206.308054 340.968844 
L 208.729562 340.82805 
L 210.612885 340.741903 
L 211.958346 340.769874 
L 213.034392 340.560403 
L 214.110762 340.372663 
L 214.918038 340.355214 
L 215.4559 340.729268 
L 215.994085 341.255649 
L 216.532269 341.390536 
L 217.339546 341.582954 
L 218.1465 341.870192 
L 218.953777 342.266389 
L 220.299238 342.504508 
L 221.106192 342.726463 
L 221.913469 342.581598 
L 222.720746 342.514416 
L 223.796792 342.640432 
L 224.604069 342.384364 
L 225.949531 341.923294 
L 226.756485 341.906596 
L 228.9089 342.219164 
L 229.985269 342.321821 
L 233.214054 341.992999 
L 235.635562 341.759982 
L 237.518885 341.527824 
L 238.595254 341.535004 
L 240.209485 341.624264 
L 242.630992 341.535875 
L 248.281285 341.36773 
L 250.164931 341.582738 
L 252.317346 341.590965 
L 254.200669 341.403211 
L 257.967639 341.454629 
L 262.003377 341.266071 
L 263.079746 341.397851 
L 266.039439 341.369397 
L 267.384577 341.477963 
L 276.532746 341.093248 
L 277.608793 341.283834 
L 289.447562 340.82847 
L 344.066516 340.186459 
L 351.600455 340.144679 
L 351.600455 340.144679 
" clip-path="url(#p28aa66b37d)" style="fill: none; stroke: #ff0000; stroke-width: 1.5; stroke-linecap: square"/>
   </g>
   <g id="patch_15">
    <path d="M 69.37 356.12 
L 69.37 212.88 
" style="fill: none; stroke: #000000; stroke-width: 0.8; stroke-linejoin: miter; stroke-linecap: square"/>
   </g>
   <g id="patch_16">
    <path d="M 365.04 356.12 
L 365.04 212.88 
" style="fill: none; stroke: #000000; stroke-width: 0.8; stroke-linejoin: miter; stroke-linecap: square"/>
   </g>
   <g id="patch_17">
    <path d="M 69.37 356.12 
L 365.04 356.12 
" style="fill: none; stroke: #000000; stroke-width: 0.8; stroke-linejoin: miter; stroke-linecap: square"/>
   </g>
   <g id="patch_18">
    <path d="M 69.37 212.88 
L 365.04 212.88 
" style="fill: none; stroke: #000000; stroke-width: 0.8; stroke-linejoin: miter; stroke-linecap: square"/>
   </g>
   <g id="legend_3">
    <g id="patch_19">
     <path d="M 315.543125 235.558125 
L 358.04 235.558125 
Q 360.04 235.558125 360.04 233.558125 
L 360.04 219.88 
Q 360.04 217.88 358.04 217.88 
L 315.543125 217.88 
Q 313.543125 217.88 313.543125 219.88 
L 313.543125 233.558125 
Q 313.543125 235.558125 315.543125 235.558125 
z
" style="fill: #ffffff; opacity: 0.8; stroke: #cccccc; stroke-linejoin: miter"/>
    </g>
    <g id="line2d_34">
     <path d="M 317.543125 225.978437 
L 327.543125 225.978437 
L 337.543125 225.978437 
" style="fill: none; stroke: #ff0000; stroke-width: 1.5; stroke-linecap: square"/>
    </g>
    <g id="text_31">
     <!-- zz -->
     <g transform="translate(345.543125 229.478437)scale(0.1 -0.1)">
      <defs>
       <path id="DejaVuSans-7a" d="M 353 3500 
L 3084 3500 
L 3084 2975 
L 922 459 
L 3084 459 
L 3084 0 
L 275 0 
L 275 525 
L 2438 3041 
L 353 3041 
L 353 3500 
z
" transform="scale(0.015625)"/>
      </defs>
      <use xlink:href="#DejaVuSans-7a"/>
      <use xlink:href="#DejaVuSans-7a" x="52.490234"/>
     </g>
    </g>
   </g>
  </g>
  <g id="axes_4">
   <g id="patch_20">
    <path d="M 413.53 356.12 
L 709.2 356.12 
L 709.2 212.88 
L 413.53 212.88 
z
" style="fill: #ffffff"/>
   </g>
   <g id="matplotlib.axis_7">
    <g id="xtick_16">
     <g id="line2d_35">
      <g>
       <use xlink:href="#me933686aea" x="426.969545" y="356.12" style="stroke: #000000; stroke-width: 0.8"/>
      </g>
     </g>
     <g id="text_32">
      <!-- 0 -->
      <g transform="translate(423.788295 370.718437)scale(0.1 -0.1)">
       <use xlink:href="#DejaVuSans-30"/>
      </g>
     </g>
    </g>
    <g id="xtick_17">
     <g id="line2d_36">
      <g>
       <use xlink:href="#me933686aea" x="491.577542" y="356.12" style="stroke: #000000; stroke-width: 0.8"/>
      </g>
     </g>
     <g id="text_33">
      <!-- 20 -->
      <g transform="translate(485.215042 370.718437)scale(0.1 -0.1)">
       <use xlink:href="#DejaVuSans-32"/>
       <use xlink:href="#DejaVuSans-30" x="63.623047"/>
      </g>
     </g>
    </g>
    <g id="xtick_18">
     <g id="line2d_37">
      <g>
       <use xlink:href="#me933686aea" x="556.185538" y="356.12" style="stroke: #000000; stroke-width: 0.8"/>
      </g>
     </g>
     <g id="text_34">
      <!-- 40 -->
      <g transform="translate(549.823038 370.718437)scale(0.1 -0.1)">
       <use xlink:href="#DejaVuSans-34"/>
       <use xlink:href="#DejaVuSans-30" x="63.623047"/>
      </g>
     </g>
    </g>
    <g id="xtick_19">
     <g id="line2d_38">
      <g>
       <use xlink:href="#me933686aea" x="620.793535" y="356.12" style="stroke: #000000; stroke-width: 0.8"/>
      </g>
     </g>
     <g id="text_35">
      <!-- 60 -->
      <g transform="translate(614.431035 370.718437)scale(0.1 -0.1)">
       <use xlink:href="#DejaVuSans-36"/>
       <use xlink:href="#DejaVuSans-30" x="63.623047"/>
      </g>
     </g>
    </g>
    <g id="xtick_20">
     <g id="line2d_39">
      <g>
       <use xlink:href="#me933686aea" x="685.401531" y="356.12" style="stroke: #000000; stroke-width: 0.8"/>
      </g>
     </g>
     <g id="text_36">
      <!-- 80 -->
      <g transform="translate(679.039031 370.718437)scale(0.1 -0.1)">
       <use xlink:href="#DejaVuSans-38"/>
       <use xlink:href="#DejaVuSans-30" x="63.623047"/>
      </g>
     </g>
    </g>
   </g>
   <g id="matplotlib.axis_8">
    <g id="ytick_14">
     <g id="line2d_40">
      <g>
       <use xlink:href="#m52e6550cd3" x="413.53" y="349.609091" style="stroke: #000000; stroke-width: 0.8"/>
      </g>
     </g>
     <g id="text_37">
      <!-- 0.00 -->
      <g transform="translate(384.264375 353.40831)scale(0.1 -0.1)">
       <defs>
        <path id="DejaVuSans-2e" d="M 684 794 
L 1344 794 
L 1344 0 
L 684 0 
L 684 794 
z
" transform="scale(0.015625)"/>
       </defs>
       <use xlink:href="#DejaVuSans-30"/>
       <use xlink:href="#DejaVuSans-2e" x="63.623047"/>
       <use xlink:href="#DejaVuSans-30" x="95.410156"/>
       <use xlink:href="#DejaVuSans-30" x="159.033203"/>
      </g>
     </g>
    </g>
    <g id="ytick_15">
     <g id="line2d_41">
      <g>
       <use xlink:href="#m52e6550cd3" x="413.53" y="324.157726" style="stroke: #000000; stroke-width: 0.8"/>
      </g>
     </g>
     <g id="text_38">
      <!-- 0.25 -->
      <g transform="translate(384.264375 327.956945)scale(0.1 -0.1)">
       <use xlink:href="#DejaVuSans-30"/>
       <use xlink:href="#DejaVuSans-2e" x="63.623047"/>
       <use xlink:href="#DejaVuSans-32" x="95.410156"/>
       <use xlink:href="#DejaVuSans-35" x="159.033203"/>
      </g>
     </g>
    </g>
    <g id="ytick_16">
     <g id="line2d_42">
      <g>
       <use xlink:href="#m52e6550cd3" x="413.53" y="298.706361" style="stroke: #000000; stroke-width: 0.8"/>
      </g>
     </g>
     <g id="text_39">
      <!-- 0.50 -->
      <g transform="translate(384.264375 302.50558)scale(0.1 -0.1)">
       <use xlink:href="#DejaVuSans-30"/>
       <use xlink:href="#DejaVuSans-2e" x="63.623047"/>
       <use xlink:href="#DejaVuSans-35" x="95.410156"/>
       <use xlink:href="#DejaVuSans-30" x="159.033203"/>
      </g>
     </g>
    </g>
    <g id="ytick_17">
     <g id="line2d_43">
      <g>
       <use xlink:href="#m52e6550cd3" x="413.53" y="273.254997" style="stroke: #000000; stroke-width: 0.8"/>
      </g>
     </g>
     <g id="text_40">
      <!-- 0.75 -->
      <g transform="translate(384.264375 277.054215)scale(0.1 -0.1)">
       <defs>
        <path id="DejaVuSans-37" d="M 525 4666 
L 3525 4666 
L 3525 4397 
L 1831 0 
L 1172 0 
L 2766 4134 
L 525 4134 
L 525 4666 
z
" transform="scale(0.015625)"/>
       </defs>
       <use xlink:href="#DejaVuSans-30"/>
       <use xlink:href="#DejaVuSans-2e" x="63.623047"/>
       <use xlink:href="#DejaVuSans-37" x="95.410156"/>
       <use xlink:href="#DejaVuSans-35" x="159.033203"/>
      </g>
     </g>
    </g>
    <g id="ytick_18">
     <g id="line2d_44">
      <g>
       <use xlink:href="#m52e6550cd3" x="413.53" y="247.803632" style="stroke: #000000; stroke-width: 0.8"/>
      </g>
     </g>
     <g id="text_41">
      <!-- 1.00 -->
      <g transform="translate(384.264375 251.602851)scale(0.1 -0.1)">
       <use xlink:href="#DejaVuSans-31"/>
       <use xlink:href="#DejaVuSans-2e" x="63.623047"/>
       <use xlink:href="#DejaVuSans-30" x="95.410156"/>
       <use xlink:href="#DejaVuSans-30" x="159.033203"/>
      </g>
     </g>
    </g>
    <g id="ytick_19">
     <g id="line2d_45">
      <g>
       <use xlink:href="#m52e6550cd3" x="413.53" y="222.352267" style="stroke: #000000; stroke-width: 0.8"/>
      </g>
     </g>
     <g id="text_42">
      <!-- 1.25 -->
      <g transform="translate(384.264375 226.151486)scale(0.1 -0.1)">
       <use xlink:href="#DejaVuSans-31"/>
       <use xlink:href="#DejaVuSans-2e" x="63.623047"/>
       <use xlink:href="#DejaVuSans-32" x="95.410156"/>
       <use xlink:href="#DejaVuSans-35" x="159.033203"/>
      </g>
     </g>
    </g>
   </g>
   <g id="line2d_46">
    <path d="M 426.969545 219.390909 
L 427.238638 219.390909 
L 427.50773 280.284462 
L 428.045915 330.786348 
L 428.314684 345.322999 
L 428.583776 342.045167 
L 429.121961 324.40155 
L 429.391053 319.08994 
L 429.660145 316.559128 
L 429.929238 317.487028 
L 430.19833 323.243771 
L 430.467422 337.056808 
L 430.736515 344.816658 
L 431.005284 339.695046 
L 431.274376 341.385699 
L 431.543469 347.747234 
L 431.812561 342.011502 
L 432.619838 313.818495 
L 433.695884 284.107117 
L 433.964976 280.783214 
L 434.234069 280.551372 
L 434.503161 282.646704 
L 435.041345 290.615999 
L 436.117715 310.421874 
L 437.193761 324.226083 
L 437.462853 325.797118 
L 437.731946 325.963793 
L 438.001038 326.380746 
L 438.27013 328.500363 
L 438.539222 332.983021 
L 439.077084 347.093133 
L 439.346176 341.081448 
L 439.615269 337.70174 
L 439.884361 336.215695 
L 440.153453 336.42679 
L 440.422546 337.905655 
L 440.691638 340.441074 
L 440.96073 344.92379 
L 441.229822 346.607843 
L 441.498915 345.798131 
L 441.767684 346.030514 
L 442.305869 348.325997 
L 442.574961 349.513372 
L 442.844053 348.561217 
L 443.113146 346.886032 
L 443.382238 344.055754 
L 443.920422 333.560773 
L 445.265561 300.606638 
L 445.534653 295.944971 
L 445.803746 293.388237 
L 446.072838 293.541936 
L 446.34193 296.363665 
L 447.417976 315.343874 
L 450.108576 342.138678 
L 450.915853 346.263917 
L 451.454038 349.510442 
L 451.992222 346.510059 
L 452.799176 339.353222 
L 453.337361 335.141322 
L 453.606453 334.038239 
L 454.144638 333.252671 
L 454.41373 332.335308 
L 454.682823 330.331518 
L 455.758869 318.645044 
L 456.027961 318.095683 
L 456.297053 318.591367 
L 456.835238 321.130597 
L 457.373423 325.700348 
L 457.911284 330.178482 
L 458.180376 330.242887 
L 458.987653 326.297614 
L 459.256746 325.964275 
L 460.333115 327.195558 
L 460.601884 327.769096 
L 460.870976 328.929985 
L 461.140069 330.934323 
L 461.947346 340.146086 
L 462.216438 339.280645 
L 463.292484 331.412835 
L 464.099761 326.415585 
L 464.907038 323.878055 
L 465.445223 322.410811 
L 465.714315 322.168809 
L 465.983084 322.526136 
L 466.252176 323.494445 
L 466.790361 326.766121 
L 467.86673 333.438121 
L 468.135823 334.824611 
L 468.404915 335.527485 
L 468.673684 335.132077 
L 469.480961 331.978355 
L 469.750053 331.951688 
L 470.019146 332.485425 
L 471.095515 335.498399 
L 472.440653 337.788577 
L 472.709746 338.500953 
L 473.786115 342.951185 
L 474.323976 343.831264 
L 474.862161 345.808309 
L 475.669438 349.535623 
L 476.476715 344.770023 
L 476.745484 344.685993 
L 477.014576 345.91023 
L 477.283669 349.162326 
L 477.821853 344.828048 
L 478.62913 341.13968 
L 479.436084 338.089805 
L 481.31973 333.789502 
L 481.588823 333.852826 
L 482.395777 334.69136 
L 482.664869 334.604065 
L 482.933961 334.393096 
L 483.203053 334.416349 
L 483.472146 335.139383 
L 483.741238 336.816047 
L 484.817284 346.715776 
L 485.355469 348.879079 
L 485.624561 349.561624 
L 485.893653 349.184933 
L 486.162746 349.073909 
L 486.970023 349.379008 
L 487.238792 349.609091 
L 487.776977 348.851358 
L 488.046069 348.897842 
L 488.584253 349.532357 
L 488.853346 349.287554 
L 489.122438 349.274843 
L 489.39153 349.609091 
L 489.660623 349.455653 
L 489.929392 349.539174 
L 490.467577 348.169344 
L 491.005761 345.83665 
L 491.813038 342.029291 
L 492.08213 341.684383 
L 492.351223 342.248468 
L 492.619992 344.075741 
L 492.889084 348.317416 
L 493.158177 349.459022 
L 494.77273 338.515548 
L 495.310592 336.811885 
L 495.848777 335.768296 
L 496.117869 335.518299 
L 496.386961 335.43654 
L 496.925146 335.793364 
L 498.001192 336.939888 
L 498.270284 336.880985 
L 499.077561 336.057348 
L 499.346654 336.096517 
L 499.884838 336.821426 
L 500.960884 339.11038 
L 502.037254 342.251202 
L 502.575438 343.01361 
L 502.84453 343.270076 
L 503.113623 343.358839 
L 503.382392 342.676464 
L 504.189669 338.010025 
L 504.458761 337.649618 
L 504.727854 338.588245 
L 504.996946 340.906174 
L 505.53513 348.374971 
L 505.804223 346.915945 
L 506.342084 340.751468 
L 506.611177 338.871983 
L 506.880269 338.112751 
L 507.149361 338.682608 
L 508.22573 345.389739 
L 508.763592 347.064128 
L 509.301777 349.299136 
L 509.839961 346.34047 
L 510.109054 345.410158 
L 510.378146 344.923316 
L 510.647238 344.845534 
L 511.454192 345.50934 
L 511.723284 345.44975 
L 512.530561 344.621662 
L 512.799654 344.599558 
L 513.068746 345.070081 
L 513.876023 347.503213 
L 514.144792 346.707244 
L 514.952069 343.457368 
L 515.221161 343.042285 
L 515.490254 343.153992 
L 516.297531 344.616476 
L 516.566623 344.368334 
L 517.104484 343.372209 
L 517.911761 340.735944 
L 518.449946 339.428545 
L 518.719038 339.202221 
L 518.988131 339.18562 
L 519.257223 339.324217 
L 520.064177 340.22163 
L 520.602361 340.491987 
L 521.140546 340.924366 
L 521.409638 340.977198 
L 521.678731 340.9044 
L 522.216592 340.458447 
L 522.485684 340.440824 
L 522.754777 340.671629 
L 523.292961 341.839178 
L 524.100238 344.218387 
L 524.907192 347.020377 
L 525.176284 346.91188 
L 525.714469 344.704152 
L 525.983561 344.252957 
L 526.252654 344.0957 
L 526.521746 344.252635 
L 526.790838 344.695494 
L 527.059931 345.492732 
L 527.866884 349.401361 
L 528.405069 347.003184 
L 528.943254 344.724262 
L 529.481438 343.394763 
L 529.750531 343.075304 
L 530.019623 343.009474 
L 530.288392 343.295308 
L 531.364761 345.356799 
L 531.902946 345.91975 
L 532.172038 346.489414 
L 532.710223 348.781731 
L 532.978992 349.035156 
L 533.517177 346.52448 
L 533.786269 345.783902 
L 534.055361 345.444747 
L 534.324454 345.468223 
L 534.593546 345.903816 
L 534.862638 346.552697 
L 535.669592 349.498043 
L 536.207777 347.572982 
L 536.476869 347.112494 
L 537.015054 346.89042 
L 537.284146 346.38972 
L 537.822331 345.010516 
L 538.091423 344.617673 
L 538.360192 344.708385 
L 538.629285 345.133882 
L 538.898377 346.038529 
L 539.167469 347.36611 
L 539.436561 349.259327 
L 541.319885 343.414247 
L 541.588977 343.231123 
L 541.858069 343.512427 
L 542.127161 344.184419 
L 542.665346 346.729598 
L 542.934438 348.393081 
L 543.203531 348.976095 
L 543.741392 345.630777 
L 544.010485 344.45453 
L 544.279577 343.792155 
L 545.086854 342.927787 
L 545.894131 341.103258 
L 546.1629 341.154773 
L 546.701085 342.201137 
L 547.777454 345.829257 
L 548.315638 347.727345 
L 548.584731 348.279017 
L 548.8535 348.424787 
L 549.660777 347.562423 
L 549.929869 347.626336 
L 550.198961 347.962416 
L 550.737146 348.940833 
L 551.5441 349.420155 
L 551.813192 349.335139 
L 552.351377 347.967063 
L 552.889562 347.347947 
L 553.427746 347.51376 
L 553.696838 346.613361 
L 553.965931 346.42897 
L 554.2347 346.567944 
L 554.772885 347.74405 
L 555.311069 349.545956 
L 556.118346 347.26831 
L 556.9253 345.771145 
L 557.732577 344.076241 
L 558.001669 344.017556 
L 558.270762 344.205045 
L 559.6159 346.567102 
L 559.884992 346.315838 
L 560.961362 344.143324 
L 561.499546 343.946278 
L 561.768638 343.947049 
L 562.037731 343.831392 
L 562.3065 343.885108 
L 562.575592 344.068622 
L 562.844685 344.410787 
L 563.382869 345.9164 
L 563.651962 346.226208 
L 563.921054 345.76431 
L 565.535285 340.681346 
L 566.073469 339.777899 
L 566.342562 339.787784 
L 566.611654 340.171198 
L 567.149838 341.894148 
L 568.764069 348.61981 
L 569.033162 349.030104 
L 569.840438 344.870622 
L 570.109531 343.988846 
L 570.647392 343.106 
L 571.185577 342.934584 
L 571.992854 343.162325 
L 572.261946 343.28019 
L 572.531039 343.618588 
L 573.607085 345.994447 
L 573.876177 346.009724 
L 574.683454 345.761961 
L 574.952546 345.896228 
L 575.221639 346.178934 
L 575.7595 346.229107 
L 576.297685 345.799879 
L 576.566777 345.657469 
L 576.835869 345.790223 
L 577.104962 345.797454 
L 577.643146 345.382984 
L 577.912239 345.444747 
L 578.181331 345.70573 
L 579.257377 347.671757 
L 579.526469 347.822082 
L 579.795562 347.557375 
L 580.333746 347.37205 
L 580.871931 346.454226 
L 581.678885 344.842284 
L 581.947977 344.594963 
L 582.217069 344.518818 
L 582.486162 344.604493 
L 583.024346 345.215595 
L 583.293439 345.576208 
L 583.8313 347.197833 
L 584.100392 348.55054 
L 584.369485 348.55054 
L 584.638577 347.197833 
L 585.176762 345.91023 
L 586.790992 342.931456 
L 587.329177 343.108508 
L 588.136454 343.690437 
L 588.674639 343.918133 
L 589.2125 344.330832 
L 589.750685 345.22363 
L 590.288869 346.509368 
L 591.096146 348.356479 
L 591.365239 348.681067 
L 591.634331 348.493142 
L 592.172192 346.699016 
L 592.441285 346.301982 
L 592.710377 346.15071 
L 592.979469 346.356818 
L 593.517654 347.324769 
L 594.324931 349.53147 
L 595.939162 344.606633 
L 596.208254 344.163162 
L 596.746439 343.839526 
L 597.2843 343.984473 
L 597.822485 344.30471 
L 598.629762 345.289851 
L 599.706131 345.943751 
L 599.9749 346.22494 
L 600.513085 347.208056 
L 601.320362 349.609091 
L 602.127639 347.449471 
L 602.6655 346.716836 
L 603.203685 346.521031 
L 603.741869 346.709909 
L 604.010962 346.765607 
L 605.625193 345.846569 
L 606.163377 346.364241 
L 606.970654 348.44162 
L 607.239746 349.251892 
L 607.508839 349.417183 
L 607.777608 348.952879 
L 608.0467 348.806621 
L 608.584885 349.356513 
L 608.853977 349.228095 
L 609.392162 348.271283 
L 611.006393 344.171095 
L 611.275485 344.075741 
L 611.81367 344.685993 
L 612.351854 345.275754 
L 613.158808 345.638907 
L 613.4279 345.9164 
L 614.50427 347.965529 
L 615.311546 349.448323 
L 615.580639 349.439676 
L 615.849408 349.251892 
L 617.463962 347.216135 
L 617.733054 347.065295 
L 618.540008 347.19874 
L 618.8091 347.469849 
L 619.347285 347.36611 
L 619.616377 347.19874 
L 620.961839 347.108003 
L 621.4997 346.869287 
L 622.57607 346.513901 
L 623.114254 346.536358 
L 623.383346 346.724001 
L 623.652439 346.729598 
L 623.921208 346.915572 
L 624.1903 346.915572 
L 624.459393 347.106792 
L 624.728485 347.106792 
L 624.997577 347.332652 
L 626.8809 347.321409 
L 627.149993 347.106792 
L 627.95727 347.115377 
L 628.226362 347.332652 
L 631.455147 347.321409 
L 631.724239 347.557375 
L 635.759977 347.557375 
L 636.02907 347.822082 
L 643.0245 347.845769 
L 643.293593 347.572982 
L 645.7151 347.557375 
L 645.984193 347.822082 
L 646.522377 347.822082 
L 646.79147 348.127469 
L 648.136608 348.169344 
L 648.4057 347.845769 
L 660.513562 347.845769 
L 660.782654 348.169344 
L 695.760455 348.169344 
L 695.760455 348.169344 
" clip-path="url(#pe6216f1240)" style="fill: none; stroke: #008000; stroke-width: 1.5; stroke-linecap: square"/>
   </g>
   <g id="patch_21">
    <path d="M 413.53 356.12 
L 413.53 212.88 
" style="fill: none; stroke: #000000; stroke-width: 0.8; stroke-linejoin: miter; stroke-linecap: square"/>
   </g>
   <g id="patch_22">
    <path d="M 709.2 356.12 
L 709.2 212.88 
" style="fill: none; stroke: #000000; stroke-width: 0.8; stroke-linejoin: miter; stroke-linecap: square"/>
   </g>
   <g id="patch_23">
    <path d="M 413.53 356.12 
L 709.2 356.12 
" style="fill: none; stroke: #000000; stroke-width: 0.8; stroke-linejoin: miter; stroke-linecap: square"/>
   </g>
   <g id="patch_24">
    <path d="M 413.53 212.88 
L 709.2 212.88 
" style="fill: none; stroke: #000000; stroke-width: 0.8; stroke-linejoin: miter; stroke-linecap: square"/>
   </g>
   <g id="legend_4">
    <g id="patch_25">
     <path d="M 658.3625 235.558125 
L 702.2 235.558125 
Q 704.2 235.558125 704.2 233.558125 
L 704.2 219.88 
Q 704.2 217.88 702.2 217.88 
L 658.3625 217.88 
Q 656.3625 217.88 656.3625 219.88 
L 656.3625 233.558125 
Q 656.3625 235.558125 658.3625 235.558125 
z
" style="fill: #ffffff; opacity: 0.8; stroke: #cccccc; stroke-linejoin: miter"/>
    </g>
    <g id="line2d_47">
     <path d="M 660.3625 225.978437 
L 670.3625 225.978437 
L 680.3625 225.978437 
" style="fill: none; stroke: #008000; stroke-width: 1.5; stroke-linecap: square"/>
    </g>
    <g id="text_43">
     <!-- xy -->
     <g transform="translate(688.3625 229.478437)scale(0.1 -0.1)">
      <use xlink:href="#DejaVuSans-78"/>
      <use xlink:href="#DejaVuSans-79" x="59.179688"/>
     </g>
    </g>
   </g>
  </g>
  <g id="axes_5">
   <g id="patch_26">
    <path d="M 69.37 527.24 
L 365.04 527.24 
L 365.04 384 
L 69.37 384 
z
" style="fill: #ffffff"/>
   </g>
   <g id="matplotlib.axis_9">
    <g id="xtick_21">
     <g id="line2d_48">
      <g>
       <use xlink:href="#me933686aea" x="82.809545" y="527.24" style="stroke: #000000; stroke-width: 0.8"/>
      </g>
     </g>
     <g id="text_44">
      <!-- 0 -->
      <g transform="translate(79.628295 541.838437)scale(0.1 -0.1)">
       <use xlink:href="#DejaVuSans-30"/>
      </g>
     </g>
    </g>
    <g id="xtick_22">
     <g id="line2d_49">
      <g>
       <use xlink:href="#me933686aea" x="147.417542" y="527.24" style="stroke: #000000; stroke-width: 0.8"/>
      </g>
     </g>
     <g id="text_45">
      <!-- 20 -->
      <g transform="translate(141.055042 541.838437)scale(0.1 -0.1)">
       <use xlink:href="#DejaVuSans-32"/>
       <use xlink:href="#DejaVuSans-30" x="63.623047"/>
      </g>
     </g>
    </g>
    <g id="xtick_23">
     <g id="line2d_50">
      <g>
       <use xlink:href="#me933686aea" x="212.025538" y="527.24" style="stroke: #000000; stroke-width: 0.8"/>
      </g>
     </g>
     <g id="text_46">
      <!-- 40 -->
      <g transform="translate(205.663038 541.838437)scale(0.1 -0.1)">
       <use xlink:href="#DejaVuSans-34"/>
       <use xlink:href="#DejaVuSans-30" x="63.623047"/>
      </g>
     </g>
    </g>
    <g id="xtick_24">
     <g id="line2d_51">
      <g>
       <use xlink:href="#me933686aea" x="276.633535" y="527.24" style="stroke: #000000; stroke-width: 0.8"/>
      </g>
     </g>
     <g id="text_47">
      <!-- 60 -->
      <g transform="translate(270.271035 541.838437)scale(0.1 -0.1)">
       <use xlink:href="#DejaVuSans-36"/>
       <use xlink:href="#DejaVuSans-30" x="63.623047"/>
      </g>
     </g>
    </g>
    <g id="xtick_25">
     <g id="line2d_52">
      <g>
       <use xlink:href="#me933686aea" x="341.241531" y="527.24" style="stroke: #000000; stroke-width: 0.8"/>
      </g>
     </g>
     <g id="text_48">
      <!-- 80 -->
      <g transform="translate(334.879031 541.838437)scale(0.1 -0.1)">
       <use xlink:href="#DejaVuSans-38"/>
       <use xlink:href="#DejaVuSans-30" x="63.623047"/>
      </g>
     </g>
    </g>
   </g>
   <g id="matplotlib.axis_10">
    <g id="ytick_20">
     <g id="line2d_53">
      <g>
       <use xlink:href="#m52e6550cd3" x="69.37" y="507.707273" style="stroke: #000000; stroke-width: 0.8"/>
      </g>
     </g>
     <g id="text_49">
      <!-- 0.04 -->
      <g transform="translate(31.724688 511.506491)scale(0.1 -0.1)">
       <defs>
        <path id="DejaVuSans-2212" d="M 678 2272 
L 4684 2272 
L 4684 1741 
L 678 1741 
L 678 2272 
z
" transform="scale(0.015625)"/>
       </defs>
       <use xlink:href="#DejaVuSans-2212"/>
       <use xlink:href="#DejaVuSans-30" x="83.789062"/>
       <use xlink:href="#DejaVuSans-2e" x="147.412109"/>
       <use xlink:href="#DejaVuSans-30" x="179.199219"/>
       <use xlink:href="#DejaVuSans-34" x="242.822266"/>
      </g>
     </g>
    </g>
    <g id="ytick_21">
     <g id="line2d_54">
      <g>
       <use xlink:href="#m52e6550cd3" x="69.37" y="481.663636" style="stroke: #000000; stroke-width: 0.8"/>
      </g>
     </g>
     <g id="text_50">
      <!-- 0.02 -->
      <g transform="translate(31.724688 485.462855)scale(0.1 -0.1)">
       <use xlink:href="#DejaVuSans-2212"/>
       <use xlink:href="#DejaVuSans-30" x="83.789062"/>
       <use xlink:href="#DejaVuSans-2e" x="147.412109"/>
       <use xlink:href="#DejaVuSans-30" x="179.199219"/>
       <use xlink:href="#DejaVuSans-32" x="242.822266"/>
      </g>
     </g>
    </g>
    <g id="ytick_22">
     <g id="line2d_55">
      <g>
       <use xlink:href="#m52e6550cd3" x="69.37" y="455.62" style="stroke: #000000; stroke-width: 0.8"/>
      </g>
     </g>
     <g id="text_51">
      <!-- 0.00 -->
      <g transform="translate(40.104375 459.419219)scale(0.1 -0.1)">
       <use xlink:href="#DejaVuSans-30"/>
       <use xlink:href="#DejaVuSans-2e" x="63.623047"/>
       <use xlink:href="#DejaVuSans-30" x="95.410156"/>
       <use xlink:href="#DejaVuSans-30" x="159.033203"/>
      </g>
     </g>
    </g>
    <g id="ytick_23">
     <g id="line2d_56">
      <g>
       <use xlink:href="#m52e6550cd3" x="69.37" y="429.576364" style="stroke: #000000; stroke-width: 0.8"/>
      </g>
     </g>
     <g id="text_52">
      <!-- 0.02 -->
      <g transform="translate(40.104375 433.375582)scale(0.1 -0.1)">
       <use xlink:href="#DejaVuSans-30"/>
       <use xlink:href="#DejaVuSans-2e" x="63.623047"/>
       <use xlink:href="#DejaVuSans-30" x="95.410156"/>
       <use xlink:href="#DejaVuSans-32" x="159.033203"/>
      </g>
     </g>
    </g>
    <g id="ytick_24">
     <g id="line2d_57">
      <g>
       <use xlink:href="#m52e6550cd3" x="69.37" y="403.532727" style="stroke: #000000; stroke-width: 0.8"/>
      </g>
     </g>
     <g id="text_53">
      <!-- 0.04 -->
      <g transform="translate(40.104375 407.331946)scale(0.1 -0.1)">
       <use xlink:href="#DejaVuSans-30"/>
       <use xlink:href="#DejaVuSans-2e" x="63.623047"/>
       <use xlink:href="#DejaVuSans-30" x="95.410156"/>
       <use xlink:href="#DejaVuSans-34" x="159.033203"/>
      </g>
     </g>
    </g>
   </g>
   <g id="line2d_58">
    <path d="M 82.809545 455.62 
L 351.600455 455.62 
L 351.600455 455.62 
" clip-path="url(#p5eb5750807)" style="fill: none; stroke: #000000; stroke-width: 1.5; stroke-linecap: square"/>
   </g>
   <g id="patch_27">
    <path d="M 69.37 527.24 
L 69.37 384 
" style="fill: none; stroke: #000000; stroke-width: 0.8; stroke-linejoin: miter; stroke-linecap: square"/>
   </g>
   <g id="patch_28">
    <path d="M 365.04 527.24 
L 365.04 384 
" style="fill: none; stroke: #000000; stroke-width: 0.8; stroke-linejoin: miter; stroke-linecap: square"/>
   </g>
   <g id="patch_29">
    <path d="M 69.37 527.24 
L 365.04 527.24 
" style="fill: none; stroke: #000000; stroke-width: 0.8; stroke-linejoin: miter; stroke-linecap: square"/>
   </g>
   <g id="patch_30">
    <path d="M 69.37 384 
L 365.04 384 
" style="fill: none; stroke: #000000; stroke-width: 0.8; stroke-linejoin: miter; stroke-linecap: square"/>
   </g>
   <g id="legend_5">
    <g id="patch_31">
     <path d="M 314.872813 406.678125 
L 358.04 406.678125 
Q 360.04 406.678125 360.04 404.678125 
L 360.04 391 
Q 360.04 389 358.04 389 
L 314.872813 389 
Q 312.872813 389 312.872813 391 
L 312.872813 404.678125 
Q 312.872813 406.678125 314.872813 406.678125 
z
" style="fill: #ffffff; opacity: 0.8; stroke: #cccccc; stroke-linejoin: miter"/>
    </g>
    <g id="line2d_59">
     <path d="M 316.872813 397.098437 
L 326.872813 397.098437 
L 336.872813 397.098437 
" style="fill: none; stroke: #000000; stroke-width: 1.5; stroke-linecap: square"/>
    </g>
    <g id="text_54">
     <!-- yz -->
     <g transform="translate(344.872813 400.598437)scale(0.1 -0.1)">
      <use xlink:href="#DejaVuSans-79"/>
      <use xlink:href="#DejaVuSans-7a" x="59.179688"/>
     </g>
    </g>
   </g>
  </g>
  <g id="axes_6">
   <g id="patch_32">
    <path d="M 413.53 527.24 
L 709.2 527.24 
L 709.2 384 
L 413.53 384 
z
" style="fill: #ffffff"/>
   </g>
   <g id="matplotlib.axis_11">
    <g id="xtick_26">
     <g id="line2d_60">
      <g>
       <use xlink:href="#me933686aea" x="426.969545" y="527.24" style="stroke: #000000; stroke-width: 0.8"/>
      </g>
     </g>
     <g id="text_55">
      <!-- 0 -->
      <g transform="translate(423.788295 541.838437)scale(0.1 -0.1)">
       <use xlink:href="#DejaVuSans-30"/>
      </g>
     </g>
    </g>
    <g id="xtick_27">
     <g id="line2d_61">
      <g>
       <use xlink:href="#me933686aea" x="491.577542" y="527.24" style="stroke: #000000; stroke-width: 0.8"/>
      </g>
     </g>
     <g id="text_56">
      <!-- 20 -->
      <g transform="translate(485.215042 541.838437)scale(0.1 -0.1)">
       <use xlink:href="#DejaVuSans-32"/>
       <use xlink:href="#DejaVuSans-30" x="63.623047"/>
      </g>
     </g>
    </g>
    <g id="xtick_28">
     <g id="line2d_62">
      <g>
       <use xlink:href="#me933686aea" x="556.185538" y="527.24" style="stroke: #000000; stroke-width: 0.8"/>
      </g>
     </g>
     <g id="text_57">
      <!-- 40 -->
      <g transform="translate(549.823038 541.838437)scale(0.1 -0.1)">
       <use xlink:href="#DejaVuSans-34"/>
       <use xlink:href="#DejaVuSans-30" x="63.623047"/>
      </g>
     </g>
    </g>
    <g id="xtick_29">
     <g id="line2d_63">
      <g>
       <use xlink:href="#me933686aea" x="620.793535" y="527.24" style="stroke: #000000; stroke-width: 0.8"/>
      </g>
     </g>
     <g id="text_58">
      <!-- 60 -->
      <g transform="translate(614.431035 541.838437)scale(0.1 -0.1)">
       <use xlink:href="#DejaVuSans-36"/>
       <use xlink:href="#DejaVuSans-30" x="63.623047"/>
      </g>
     </g>
    </g>
    <g id="xtick_30">
     <g id="line2d_64">
      <g>
       <use xlink:href="#me933686aea" x="685.401531" y="527.24" style="stroke: #000000; stroke-width: 0.8"/>
      </g>
     </g>
     <g id="text_59">
      <!-- 80 -->
      <g transform="translate(679.039031 541.838437)scale(0.1 -0.1)">
       <use xlink:href="#DejaVuSans-38"/>
       <use xlink:href="#DejaVuSans-30" x="63.623047"/>
      </g>
     </g>
    </g>
   </g>
   <g id="matplotlib.axis_12">
    <g id="ytick_25">
     <g id="line2d_65">
      <g>
       <use xlink:href="#m52e6550cd3" x="413.53" y="507.707273" style="stroke: #000000; stroke-width: 0.8"/>
      </g>
     </g>
     <g id="text_60">
      <!-- 0.04 -->
      <g transform="translate(375.884687 511.506491)scale(0.1 -0.1)">
       <use xlink:href="#DejaVuSans-2212"/>
       <use xlink:href="#DejaVuSans-30" x="83.789062"/>
       <use xlink:href="#DejaVuSans-2e" x="147.412109"/>
       <use xlink:href="#DejaVuSans-30" x="179.199219"/>
       <use xlink:href="#DejaVuSans-34" x="242.822266"/>
      </g>
     </g>
    </g>
    <g id="ytick_26">
     <g id="line2d_66">
      <g>
       <use xlink:href="#m52e6550cd3" x="413.53" y="481.663636" style="stroke: #000000; stroke-width: 0.8"/>
      </g>
     </g>
     <g id="text_61">
      <!-- 0.02 -->
      <g transform="translate(375.884687 485.462855)scale(0.1 -0.1)">
       <use xlink:href="#DejaVuSans-2212"/>
       <use xlink:href="#DejaVuSans-30" x="83.789062"/>
       <use xlink:href="#DejaVuSans-2e" x="147.412109"/>
       <use xlink:href="#DejaVuSans-30" x="179.199219"/>
       <use xlink:href="#DejaVuSans-32" x="242.822266"/>
      </g>
     </g>
    </g>
    <g id="ytick_27">
     <g id="line2d_67">
      <g>
       <use xlink:href="#m52e6550cd3" x="413.53" y="455.62" style="stroke: #000000; stroke-width: 0.8"/>
      </g>
     </g>
     <g id="text_62">
      <!-- 0.00 -->
      <g transform="translate(384.264375 459.419219)scale(0.1 -0.1)">
       <use xlink:href="#DejaVuSans-30"/>
       <use xlink:href="#DejaVuSans-2e" x="63.623047"/>
       <use xlink:href="#DejaVuSans-30" x="95.410156"/>
       <use xlink:href="#DejaVuSans-30" x="159.033203"/>
      </g>
     </g>
    </g>
    <g id="ytick_28">
     <g id="line2d_68">
      <g>
       <use xlink:href="#m52e6550cd3" x="413.53" y="429.576364" style="stroke: #000000; stroke-width: 0.8"/>
      </g>
     </g>
     <g id="text_63">
      <!-- 0.02 -->
      <g transform="translate(384.264375 433.375582)scale(0.1 -0.1)">
       <use xlink:href="#DejaVuSans-30"/>
       <use xlink:href="#DejaVuSans-2e" x="63.623047"/>
       <use xlink:href="#DejaVuSans-30" x="95.410156"/>
       <use xlink:href="#DejaVuSans-32" x="159.033203"/>
      </g>
     </g>
    </g>
    <g id="ytick_29">
     <g id="line2d_69">
      <g>
       <use xlink:href="#m52e6550cd3" x="413.53" y="403.532727" style="stroke: #000000; stroke-width: 0.8"/>
      </g>
     </g>
     <g id="text_64">
      <!-- 0.04 -->
      <g transform="translate(384.264375 407.331946)scale(0.1 -0.1)">
       <use xlink:href="#DejaVuSans-30"/>
       <use xlink:href="#DejaVuSans-2e" x="63.623047"/>
       <use xlink:href="#DejaVuSans-30" x="95.410156"/>
       <use xlink:href="#DejaVuSans-34" x="159.033203"/>
      </g>
     </g>
    </g>
   </g>
   <g id="line2d_70">
    <path d="M 426.969545 455.62 
L 695.760455 455.62 
L 695.760455 455.62 
" clip-path="url(#p2119ea607d)" style="fill: none; stroke: #ee82ee; stroke-width: 1.5; stroke-linecap: square"/>
   </g>
   <g id="patch_33">
    <path d="M 413.53 527.24 
L 413.53 384 
" style="fill: none; stroke: #000000; stroke-width: 0.8; stroke-linejoin: miter; stroke-linecap: square"/>
   </g>
   <g id="patch_34">
    <path d="M 709.2 527.24 
L 709.2 384 
" style="fill: none; stroke: #000000; stroke-width: 0.8; stroke-linejoin: miter; stroke-linecap: square"/>
   </g>
   <g id="patch_35">
    <path d="M 413.53 527.24 
L 709.2 527.24 
" style="fill: none; stroke: #000000; stroke-width: 0.8; stroke-linejoin: miter; stroke-linecap: square"/>
   </g>
   <g id="patch_36">
    <path d="M 413.53 384 
L 709.2 384 
" style="fill: none; stroke: #000000; stroke-width: 0.8; stroke-linejoin: miter; stroke-linecap: square"/>
   </g>
   <g id="legend_6">
    <g id="patch_37">
     <path d="M 659.032812 406.678125 
L 702.2 406.678125 
Q 704.2 406.678125 704.2 404.678125 
L 704.2 391 
Q 704.2 389 702.2 389 
L 659.032812 389 
Q 657.032812 389 657.032812 391 
L 657.032812 404.678125 
Q 657.032812 406.678125 659.032812 406.678125 
z
" style="fill: #ffffff; opacity: 0.8; stroke: #cccccc; stroke-linejoin: miter"/>
    </g>
    <g id="line2d_71">
     <path d="M 661.032812 397.098437 
L 671.032812 397.098437 
L 681.032812 397.098437 
" style="fill: none; stroke: #ee82ee; stroke-width: 1.5; stroke-linecap: square"/>
    </g>
    <g id="text_65">
     <!-- zx -->
     <g transform="translate(689.032812 400.598437)scale(0.1 -0.1)">
      <use xlink:href="#DejaVuSans-7a"/>
      <use xlink:href="#DejaVuSans-78" x="52.490234"/>
     </g>
    </g>
   </g>
  </g>
  <g id="text_66">
   <!-- Refractivity -->
   <g transform="translate(302.85625 26.716875)scale(0.2 -0.2)">
    <defs>
     <path id="DejaVuSans-52" d="M 2841 2188 
Q 3044 2119 3236 1894 
Q 3428 1669 3622 1275 
L 4263 0 
L 3584 0 
L 2988 1197 
Q 2756 1666 2539 1819 
Q 2322 1972 1947 1972 
L 1259 1972 
L 1259 0 
L 628 0 
L 628 4666 
L 2053 4666 
Q 2853 4666 3247 4331 
Q 3641 3997 3641 3322 
Q 3641 2881 3436 2590 
Q 3231 2300 2841 2188 
z
M 1259 4147 
L 1259 2491 
L 2053 2491 
Q 2509 2491 2742 2702 
Q 2975 2913 2975 3322 
Q 2975 3731 2742 3939 
Q 2509 4147 2053 4147 
L 1259 4147 
z
" transform="scale(0.015625)"/>
     <path id="DejaVuSans-65" d="M 3597 1894 
L 3597 1613 
L 953 1613 
Q 991 1019 1311 708 
Q 1631 397 2203 397 
Q 2534 397 2845 478 
Q 3156 559 3463 722 
L 3463 178 
Q 3153 47 2828 -22 
Q 2503 -91 2169 -91 
Q 1331 -91 842 396 
Q 353 884 353 1716 
Q 353 2575 817 3079 
Q 1281 3584 2069 3584 
Q 2775 3584 3186 3129 
Q 3597 2675 3597 1894 
z
M 3022 2063 
Q 3016 2534 2758 2815 
Q 2500 3097 2075 3097 
Q 1594 3097 1305 2825 
Q 1016 2553 972 2059 
L 3022 2063 
z
" transform="scale(0.015625)"/>
     <path id="DejaVuSans-66" d="M 2375 4863 
L 2375 4384 
L 1825 4384 
Q 1516 4384 1395 4259 
Q 1275 4134 1275 3809 
L 1275 3500 
L 2222 3500 
L 2222 3053 
L 1275 3053 
L 1275 0 
L 697 0 
L 697 3053 
L 147 3053 
L 147 3500 
L 697 3500 
L 697 3744 
Q 697 4328 969 4595 
Q 1241 4863 1831 4863 
L 2375 4863 
z
" transform="scale(0.015625)"/>
     <path id="DejaVuSans-72" d="M 2631 2963 
Q 2534 3019 2420 3045 
Q 2306 3072 2169 3072 
Q 1681 3072 1420 2755 
Q 1159 2438 1159 1844 
L 1159 0 
L 581 0 
L 581 3500 
L 1159 3500 
L 1159 2956 
Q 1341 3275 1631 3429 
Q 1922 3584 2338 3584 
Q 2397 3584 2469 3576 
Q 2541 3569 2628 3553 
L 2631 2963 
z
" transform="scale(0.015625)"/>
     <path id="DejaVuSans-61" d="M 2194 1759 
Q 1497 1759 1228 1600 
Q 959 1441 959 1056 
Q 959 750 1161 570 
Q 1363 391 1709 391 
Q 2188 391 2477 730 
Q 2766 1069 2766 1631 
L 2766 1759 
L 2194 1759 
z
M 3341 1997 
L 3341 0 
L 2766 0 
L 2766 531 
Q 2569 213 2275 61 
Q 1981 -91 1556 -91 
Q 1019 -91 701 211 
Q 384 513 384 1019 
Q 384 1609 779 1909 
Q 1175 2209 1959 2209 
L 2766 2209 
L 2766 2266 
Q 2766 2663 2505 2880 
Q 2244 3097 1772 3097 
Q 1472 3097 1187 3025 
Q 903 2953 641 2809 
L 641 3341 
Q 956 3463 1253 3523 
Q 1550 3584 1831 3584 
Q 2591 3584 2966 3190 
Q 3341 2797 3341 1997 
z
" transform="scale(0.015625)"/>
     <path id="DejaVuSans-63" d="M 3122 3366 
L 3122 2828 
Q 2878 2963 2633 3030 
Q 2388 3097 2138 3097 
Q 1578 3097 1268 2742 
Q 959 2388 959 1747 
Q 959 1106 1268 751 
Q 1578 397 2138 397 
Q 2388 397 2633 464 
Q 2878 531 3122 666 
L 3122 134 
Q 2881 22 2623 -34 
Q 2366 -91 2075 -91 
Q 1284 -91 818 406 
Q 353 903 353 1747 
Q 353 2603 823 3093 
Q 1294 3584 2113 3584 
Q 2378 3584 2631 3529 
Q 2884 3475 3122 3366 
z
" transform="scale(0.015625)"/>
     <path id="DejaVuSans-74" d="M 1172 4494 
L 1172 3500 
L 2356 3500 
L 2356 3053 
L 1172 3053 
L 1172 1153 
Q 1172 725 1289 603 
Q 1406 481 1766 481 
L 2356 481 
L 2356 0 
L 1766 0 
Q 1100 0 847 248 
Q 594 497 594 1153 
L 594 3053 
L 172 3053 
L 172 3500 
L 594 3500 
L 594 4494 
L 1172 4494 
z
" transform="scale(0.015625)"/>
     <path id="DejaVuSans-69" d="M 603 3500 
L 1178 3500 
L 1178 0 
L 603 0 
L 603 3500 
z
M 603 4863 
L 1178 4863 
L 1178 4134 
L 603 4134 
L 603 4863 
z
" transform="scale(0.015625)"/>
     <path id="DejaVuSans-76" d="M 191 3500 
L 800 3500 
L 1894 563 
L 2988 3500 
L 3597 3500 
L 2284 0 
L 1503 0 
L 191 3500 
z
" transform="scale(0.015625)"/>
    </defs>
    <use xlink:href="#DejaVuSans-52"/>
    <use xlink:href="#DejaVuSans-65" x="64.982422"/>
    <use xlink:href="#DejaVuSans-66" x="126.505859"/>
    <use xlink:href="#DejaVuSans-72" x="161.710938"/>
    <use xlink:href="#DejaVuSans-61" x="202.824219"/>
    <use xlink:href="#DejaVuSans-63" x="264.103516"/>
    <use xlink:href="#DejaVuSans-74" x="319.083984"/>
    <use xlink:href="#DejaVuSans-69" x="358.292969"/>
    <use xlink:href="#DejaVuSans-76" x="386.076172"/>
    <use xlink:href="#DejaVuSans-69" x="445.255859"/>
    <use xlink:href="#DejaVuSans-74" x="473.039062"/>
    <use xlink:href="#DejaVuSans-79" x="512.248047"/>
   </g>
  </g>
  <g id="text_67">
   <!-- cm^-1 -->
   <g transform="translate(21.998438 304.794531)rotate(-90)scale(0.1 -0.1)">
    <defs>
     <path id="DejaVuSans-6d" d="M 3328 2828 
Q 3544 3216 3844 3400 
Q 4144 3584 4550 3584 
Q 5097 3584 5394 3201 
Q 5691 2819 5691 2113 
L 5691 0 
L 5113 0 
L 5113 2094 
Q 5113 2597 4934 2840 
Q 4756 3084 4391 3084 
Q 3944 3084 3684 2787 
Q 3425 2491 3425 1978 
L 3425 0 
L 2847 0 
L 2847 2094 
Q 2847 2600 2669 2842 
Q 2491 3084 2119 3084 
Q 1678 3084 1418 2786 
Q 1159 2488 1159 1978 
L 1159 0 
L 581 0 
L 581 3500 
L 1159 3500 
L 1159 2956 
Q 1356 3278 1631 3431 
Q 1906 3584 2284 3584 
Q 2666 3584 2933 3390 
Q 3200 3197 3328 2828 
z
" transform="scale(0.015625)"/>
     <path id="DejaVuSans-5e" d="M 2988 4666 
L 4684 2925 
L 4056 2925 
L 2681 4159 
L 1306 2925 
L 678 2925 
L 2375 4666 
L 2988 4666 
z
" transform="scale(0.015625)"/>
     <path id="DejaVuSans-2d" d="M 313 2009 
L 1997 2009 
L 1997 1497 
L 313 1497 
L 313 2009 
z
" transform="scale(0.015625)"/>
    </defs>
    <use xlink:href="#DejaVuSans-63"/>
    <use xlink:href="#DejaVuSans-6d" x="54.980469"/>
    <use xlink:href="#DejaVuSans-5e" x="152.392578"/>
    <use xlink:href="#DejaVuSans-2d" x="236.181641"/>
    <use xlink:href="#DejaVuSans-31" x="272.265625"/>
   </g>
  </g>
  <g id="text_68">
   <!-- Energy (eV) -->
   <g transform="translate(330.50625 568.160313)scale(0.1 -0.1)">
    <defs>
     <path id="DejaVuSans-45" d="M 628 4666 
L 3578 4666 
L 3578 4134 
L 1259 4134 
L 1259 2753 
L 3481 2753 
L 3481 2222 
L 1259 2222 
L 1259 531 
L 3634 531 
L 3634 0 
L 628 0 
L 628 4666 
z
" transform="scale(0.015625)"/>
     <path id="DejaVuSans-6e" d="M 3513 2113 
L 3513 0 
L 2938 0 
L 2938 2094 
Q 2938 2591 2744 2837 
Q 2550 3084 2163 3084 
Q 1697 3084 1428 2787 
Q 1159 2491 1159 1978 
L 1159 0 
L 581 0 
L 581 3500 
L 1159 3500 
L 1159 2956 
Q 1366 3272 1645 3428 
Q 1925 3584 2291 3584 
Q 2894 3584 3203 3211 
Q 3513 2838 3513 2113 
z
" transform="scale(0.015625)"/>
     <path id="DejaVuSans-67" d="M 2906 1791 
Q 2906 2416 2648 2759 
Q 2391 3103 1925 3103 
Q 1463 3103 1205 2759 
Q 947 2416 947 1791 
Q 947 1169 1205 825 
Q 1463 481 1925 481 
Q 2391 481 2648 825 
Q 2906 1169 2906 1791 
z
M 3481 434 
Q 3481 -459 3084 -895 
Q 2688 -1331 1869 -1331 
Q 1566 -1331 1297 -1286 
Q 1028 -1241 775 -1147 
L 775 -588 
Q 1028 -725 1275 -790 
Q 1522 -856 1778 -856 
Q 2344 -856 2625 -561 
Q 2906 -266 2906 331 
L 2906 616 
Q 2728 306 2450 153 
Q 2172 0 1784 0 
Q 1141 0 747 490 
Q 353 981 353 1791 
Q 353 2603 747 3093 
Q 1141 3584 1784 3584 
Q 2172 3584 2450 3431 
Q 2728 3278 2906 2969 
L 2906 3500 
L 3481 3500 
L 3481 434 
z
" transform="scale(0.015625)"/>
     <path id="DejaVuSans-20" transform="scale(0.015625)"/>
     <path id="DejaVuSans-28" d="M 1984 4856 
Q 1566 4138 1362 3434 
Q 1159 2731 1159 2009 
Q 1159 1288 1364 580 
Q 1569 -128 1984 -844 
L 1484 -844 
Q 1016 -109 783 600 
Q 550 1309 550 2009 
Q 550 2706 781 3412 
Q 1013 4119 1484 4856 
L 1984 4856 
z
" transform="scale(0.015625)"/>
     <path id="DejaVuSans-56" d="M 1831 0 
L 50 4666 
L 709 4666 
L 2188 738 
L 3669 4666 
L 4325 4666 
L 2547 0 
L 1831 0 
z
" transform="scale(0.015625)"/>
     <path id="DejaVuSans-29" d="M 513 4856 
L 1013 4856 
Q 1481 4119 1714 3412 
Q 1947 2706 1947 2009 
Q 1947 1309 1714 600 
Q 1481 -109 1013 -844 
L 513 -844 
Q 928 -128 1133 580 
Q 1338 1288 1338 2009 
Q 1338 2731 1133 3434 
Q 928 4138 513 4856 
z
" transform="scale(0.015625)"/>
    </defs>
    <use xlink:href="#DejaVuSans-45"/>
    <use xlink:href="#DejaVuSans-6e" x="63.183594"/>
    <use xlink:href="#DejaVuSans-65" x="126.5625"/>
    <use xlink:href="#DejaVuSans-72" x="188.085938"/>
    <use xlink:href="#DejaVuSans-67" x="227.449219"/>
    <use xlink:href="#DejaVuSans-79" x="290.925781"/>
    <use xlink:href="#DejaVuSans-20" x="350.105469"/>
    <use xlink:href="#DejaVuSans-28" x="381.892578"/>
    <use xlink:href="#DejaVuSans-65" x="420.90625"/>
    <use xlink:href="#DejaVuSans-56" x="482.429688"/>
    <use xlink:href="#DejaVuSans-29" x="550.837891"/>
   </g>
  </g>
 </g>
 <defs>
  <clipPath id="p95e1c564c5">
   <rect x="69.37" y="41.76" width="295.67" height="143.24"/>
  </clipPath>
  <clipPath id="p20b006174e">
   <rect x="413.53" y="41.76" width="295.67" height="143.24"/>
  </clipPath>
  <clipPath id="p28aa66b37d">
   <rect x="69.37" y="212.88" width="295.67" height="143.24"/>
  </clipPath>
  <clipPath id="pe6216f1240">
   <rect x="413.53" y="212.88" width="295.67" height="143.24"/>
  </clipPath>
  <clipPath id="p5eb5750807">
   <rect x="69.37" y="384" width="295.67" height="143.24"/>
  </clipPath>
  <clipPath id="p2119ea607d">
   <rect x="413.53" y="384" width="295.67" height="143.24"/>
  </clipPath>
 </defs>
</svg>
