<?xml version="1.0" encoding="utf-8" standalone="no"?>
<!DOCTYPE svg PUBLIC "-//W3C//DTD SVG 1.1//EN"
  "http://www.w3.org/Graphics/SVG/1.1/DTD/svg11.dtd">
<svg xmlns:xlink="http://www.w3.org/1999/xlink" width="460.8pt" height="345.6pt" viewBox="0 0 460.8 345.6" xmlns="http://www.w3.org/2000/svg" version="1.1">
 <metadata>
  <rdf:RDF xmlns:dc="http://purl.org/dc/elements/1.1/" xmlns:cc="http://creativecommons.org/ns#" xmlns:rdf="http://www.w3.org/1999/02/22-rdf-syntax-ns#">
   <cc:Work>
    <dc:type rdf:resource="http://purl.org/dc/dcmitype/StillImage"/>
    <dc:date>2022-03-10T11:39:09.877777</dc:date>
    <dc:format>image/svg+xml</dc:format>
    <dc:creator>
     <cc:Agent>
      <dc:title>Matplotlib v3.5.1, https://matplotlib.org/</dc:title>
     </cc:Agent>
    </dc:creator>
   </cc:Work>
  </rdf:RDF>
 </metadata>
 <defs>
  <style type="text/css">*{stroke-linejoin: round; stroke-linecap: butt}</style>
 </defs>
 <g id="figure_1">
  <g id="patch_1">
   <path d="M 0 345.6 
L 460.8 345.6 
L 460.8 0 
L 0 0 
z
" style="fill: #ffffff"/>
  </g>
  <g id="axes_1">
   <g id="patch_2">
    <path d="M 57.6 307.584 
L 414.72 307.584 
L 414.72 41.472 
L 57.6 41.472 
z
" style="fill: #ffffff"/>
   </g>
   <g id="matplotlib.axis_1">
    <g id="xtick_1">
     <g id="line2d_1">
      <defs>
       <path id="md6ec397b7b" d="M 0 0 
L 0 3.5 
" style="stroke: #000000; stroke-width: 0.8"/>
      </defs>
      <g>
       <use xlink:href="#md6ec397b7b" x="73.832727" y="307.584" style="stroke: #000000; stroke-width: 0.8"/>
      </g>
     </g>
     <g id="text_1">
      <!-- 0 -->
      <g transform="translate(70.651477 322.182437)scale(0.1 -0.1)">
       <defs>
        <path id="DejaVuSans-30" d="M 2034 4250 
Q 1547 4250 1301 3770 
Q 1056 3291 1056 2328 
Q 1056 1369 1301 889 
Q 1547 409 2034 409 
Q 2525 409 2770 889 
Q 3016 1369 3016 2328 
Q 3016 3291 2770 3770 
Q 2525 4250 2034 4250 
z
M 2034 4750 
Q 2819 4750 3233 4129 
Q 3647 3509 3647 2328 
Q 3647 1150 3233 529 
Q 2819 -91 2034 -91 
Q 1250 -91 836 529 
Q 422 1150 422 2328 
Q 422 3509 836 4129 
Q 1250 4750 2034 4750 
z
" transform="scale(0.015625)"/>
       </defs>
       <use xlink:href="#DejaVuSans-30"/>
      </g>
     </g>
    </g>
    <g id="xtick_2">
     <g id="line2d_2">
      <g>
       <use xlink:href="#md6ec397b7b" x="151.868401" y="307.584" style="stroke: #000000; stroke-width: 0.8"/>
      </g>
     </g>
     <g id="text_2">
      <!-- 20 -->
      <g transform="translate(145.505901 322.182437)scale(0.1 -0.1)">
       <defs>
        <path id="DejaVuSans-32" d="M 1228 531 
L 3431 531 
L 3431 0 
L 469 0 
L 469 531 
Q 828 903 1448 1529 
Q 2069 2156 2228 2338 
Q 2531 2678 2651 2914 
Q 2772 3150 2772 3378 
Q 2772 3750 2511 3984 
Q 2250 4219 1831 4219 
Q 1534 4219 1204 4116 
Q 875 4013 500 3803 
L 500 4441 
Q 881 4594 1212 4672 
Q 1544 4750 1819 4750 
Q 2544 4750 2975 4387 
Q 3406 4025 3406 3419 
Q 3406 3131 3298 2873 
Q 3191 2616 2906 2266 
Q 2828 2175 2409 1742 
Q 1991 1309 1228 531 
z
" transform="scale(0.015625)"/>
       </defs>
       <use xlink:href="#DejaVuSans-32"/>
       <use xlink:href="#DejaVuSans-30" x="63.623047"/>
      </g>
     </g>
    </g>
    <g id="xtick_3">
     <g id="line2d_3">
      <g>
       <use xlink:href="#md6ec397b7b" x="229.904075" y="307.584" style="stroke: #000000; stroke-width: 0.8"/>
      </g>
     </g>
     <g id="text_3">
      <!-- 40 -->
      <g transform="translate(223.541575 322.182437)scale(0.1 -0.1)">
       <defs>
        <path id="DejaVuSans-34" d="M 2419 4116 
L 825 1625 
L 2419 1625 
L 2419 4116 
z
M 2253 4666 
L 3047 4666 
L 3047 1625 
L 3713 1625 
L 3713 1100 
L 3047 1100 
L 3047 0 
L 2419 0 
L 2419 1100 
L 313 1100 
L 313 1709 
L 2253 4666 
z
" transform="scale(0.015625)"/>
       </defs>
       <use xlink:href="#DejaVuSans-34"/>
       <use xlink:href="#DejaVuSans-30" x="63.623047"/>
      </g>
     </g>
    </g>
    <g id="xtick_4">
     <g id="line2d_4">
      <g>
       <use xlink:href="#md6ec397b7b" x="307.939749" y="307.584" style="stroke: #000000; stroke-width: 0.8"/>
      </g>
     </g>
     <g id="text_4">
      <!-- 60 -->
      <g transform="translate(301.577249 322.182437)scale(0.1 -0.1)">
       <defs>
        <path id="DejaVuSans-36" d="M 2113 2584 
Q 1688 2584 1439 2293 
Q 1191 2003 1191 1497 
Q 1191 994 1439 701 
Q 1688 409 2113 409 
Q 2538 409 2786 701 
Q 3034 994 3034 1497 
Q 3034 2003 2786 2293 
Q 2538 2584 2113 2584 
z
M 3366 4563 
L 3366 3988 
Q 3128 4100 2886 4159 
Q 2644 4219 2406 4219 
Q 1781 4219 1451 3797 
Q 1122 3375 1075 2522 
Q 1259 2794 1537 2939 
Q 1816 3084 2150 3084 
Q 2853 3084 3261 2657 
Q 3669 2231 3669 1497 
Q 3669 778 3244 343 
Q 2819 -91 2113 -91 
Q 1303 -91 875 529 
Q 447 1150 447 2328 
Q 447 3434 972 4092 
Q 1497 4750 2381 4750 
Q 2619 4750 2861 4703 
Q 3103 4656 3366 4563 
z
" transform="scale(0.015625)"/>
       </defs>
       <use xlink:href="#DejaVuSans-36"/>
       <use xlink:href="#DejaVuSans-30" x="63.623047"/>
      </g>
     </g>
    </g>
    <g id="xtick_5">
     <g id="line2d_5">
      <g>
       <use xlink:href="#md6ec397b7b" x="385.975423" y="307.584" style="stroke: #000000; stroke-width: 0.8"/>
      </g>
     </g>
     <g id="text_5">
      <!-- 80 -->
      <g transform="translate(379.612923 322.182437)scale(0.1 -0.1)">
       <defs>
        <path id="DejaVuSans-38" d="M 2034 2216 
Q 1584 2216 1326 1975 
Q 1069 1734 1069 1313 
Q 1069 891 1326 650 
Q 1584 409 2034 409 
Q 2484 409 2743 651 
Q 3003 894 3003 1313 
Q 3003 1734 2745 1975 
Q 2488 2216 2034 2216 
z
M 1403 2484 
Q 997 2584 770 2862 
Q 544 3141 544 3541 
Q 544 4100 942 4425 
Q 1341 4750 2034 4750 
Q 2731 4750 3128 4425 
Q 3525 4100 3525 3541 
Q 3525 3141 3298 2862 
Q 3072 2584 2669 2484 
Q 3125 2378 3379 2068 
Q 3634 1759 3634 1313 
Q 3634 634 3220 271 
Q 2806 -91 2034 -91 
Q 1263 -91 848 271 
Q 434 634 434 1313 
Q 434 1759 690 2068 
Q 947 2378 1403 2484 
z
M 1172 3481 
Q 1172 3119 1398 2916 
Q 1625 2713 2034 2713 
Q 2441 2713 2670 2916 
Q 2900 3119 2900 3481 
Q 2900 3844 2670 4047 
Q 2441 4250 2034 4250 
Q 1625 4250 1398 4047 
Q 1172 3844 1172 3481 
z
" transform="scale(0.015625)"/>
       </defs>
       <use xlink:href="#DejaVuSans-38"/>
       <use xlink:href="#DejaVuSans-30" x="63.623047"/>
      </g>
     </g>
    </g>
    <g id="text_6">
     <!-- Energy (eV) -->
     <g transform="translate(206.66625 335.860562)scale(0.1 -0.1)">
      <defs>
       <path id="DejaVuSans-45" d="M 628 4666 
L 3578 4666 
L 3578 4134 
L 1259 4134 
L 1259 2753 
L 3481 2753 
L 3481 2222 
L 1259 2222 
L 1259 531 
L 3634 531 
L 3634 0 
L 628 0 
L 628 4666 
z
" transform="scale(0.015625)"/>
       <path id="DejaVuSans-6e" d="M 3513 2113 
L 3513 0 
L 2938 0 
L 2938 2094 
Q 2938 2591 2744 2837 
Q 2550 3084 2163 3084 
Q 1697 3084 1428 2787 
Q 1159 2491 1159 1978 
L 1159 0 
L 581 0 
L 581 3500 
L 1159 3500 
L 1159 2956 
Q 1366 3272 1645 3428 
Q 1925 3584 2291 3584 
Q 2894 3584 3203 3211 
Q 3513 2838 3513 2113 
z
" transform="scale(0.015625)"/>
       <path id="DejaVuSans-65" d="M 3597 1894 
L 3597 1613 
L 953 1613 
Q 991 1019 1311 708 
Q 1631 397 2203 397 
Q 2534 397 2845 478 
Q 3156 559 3463 722 
L 3463 178 
Q 3153 47 2828 -22 
Q 2503 -91 2169 -91 
Q 1331 -91 842 396 
Q 353 884 353 1716 
Q 353 2575 817 3079 
Q 1281 3584 2069 3584 
Q 2775 3584 3186 3129 
Q 3597 2675 3597 1894 
z
M 3022 2063 
Q 3016 2534 2758 2815 
Q 2500 3097 2075 3097 
Q 1594 3097 1305 2825 
Q 1016 2553 972 2059 
L 3022 2063 
z
" transform="scale(0.015625)"/>
       <path id="DejaVuSans-72" d="M 2631 2963 
Q 2534 3019 2420 3045 
Q 2306 3072 2169 3072 
Q 1681 3072 1420 2755 
Q 1159 2438 1159 1844 
L 1159 0 
L 581 0 
L 581 3500 
L 1159 3500 
L 1159 2956 
Q 1341 3275 1631 3429 
Q 1922 3584 2338 3584 
Q 2397 3584 2469 3576 
Q 2541 3569 2628 3553 
L 2631 2963 
z
" transform="scale(0.015625)"/>
       <path id="DejaVuSans-67" d="M 2906 1791 
Q 2906 2416 2648 2759 
Q 2391 3103 1925 3103 
Q 1463 3103 1205 2759 
Q 947 2416 947 1791 
Q 947 1169 1205 825 
Q 1463 481 1925 481 
Q 2391 481 2648 825 
Q 2906 1169 2906 1791 
z
M 3481 434 
Q 3481 -459 3084 -895 
Q 2688 -1331 1869 -1331 
Q 1566 -1331 1297 -1286 
Q 1028 -1241 775 -1147 
L 775 -588 
Q 1028 -725 1275 -790 
Q 1522 -856 1778 -856 
Q 2344 -856 2625 -561 
Q 2906 -266 2906 331 
L 2906 616 
Q 2728 306 2450 153 
Q 2172 0 1784 0 
Q 1141 0 747 490 
Q 353 981 353 1791 
Q 353 2603 747 3093 
Q 1141 3584 1784 3584 
Q 2172 3584 2450 3431 
Q 2728 3278 2906 2969 
L 2906 3500 
L 3481 3500 
L 3481 434 
z
" transform="scale(0.015625)"/>
       <path id="DejaVuSans-79" d="M 2059 -325 
Q 1816 -950 1584 -1140 
Q 1353 -1331 966 -1331 
L 506 -1331 
L 506 -850 
L 844 -850 
Q 1081 -850 1212 -737 
Q 1344 -625 1503 -206 
L 1606 56 
L 191 3500 
L 800 3500 
L 1894 763 
L 2988 3500 
L 3597 3500 
L 2059 -325 
z
" transform="scale(0.015625)"/>
       <path id="DejaVuSans-20" transform="scale(0.015625)"/>
       <path id="DejaVuSans-28" d="M 1984 4856 
Q 1566 4138 1362 3434 
Q 1159 2731 1159 2009 
Q 1159 1288 1364 580 
Q 1569 -128 1984 -844 
L 1484 -844 
Q 1016 -109 783 600 
Q 550 1309 550 2009 
Q 550 2706 781 3412 
Q 1013 4119 1484 4856 
L 1984 4856 
z
" transform="scale(0.015625)"/>
       <path id="DejaVuSans-56" d="M 1831 0 
L 50 4666 
L 709 4666 
L 2188 738 
L 3669 4666 
L 4325 4666 
L 2547 0 
L 1831 0 
z
" transform="scale(0.015625)"/>
       <path id="DejaVuSans-29" d="M 513 4856 
L 1013 4856 
Q 1481 4119 1714 3412 
Q 1947 2706 1947 2009 
Q 1947 1309 1714 600 
Q 1481 -109 1013 -844 
L 513 -844 
Q 928 -128 1133 580 
Q 1338 1288 1338 2009 
Q 1338 2731 1133 3434 
Q 928 4138 513 4856 
z
" transform="scale(0.015625)"/>
      </defs>
      <use xlink:href="#DejaVuSans-45"/>
      <use xlink:href="#DejaVuSans-6e" x="63.183594"/>
      <use xlink:href="#DejaVuSans-65" x="126.5625"/>
      <use xlink:href="#DejaVuSans-72" x="188.085938"/>
      <use xlink:href="#DejaVuSans-67" x="227.449219"/>
      <use xlink:href="#DejaVuSans-79" x="290.925781"/>
      <use xlink:href="#DejaVuSans-20" x="350.105469"/>
      <use xlink:href="#DejaVuSans-28" x="381.892578"/>
      <use xlink:href="#DejaVuSans-65" x="420.90625"/>
      <use xlink:href="#DejaVuSans-56" x="482.429688"/>
      <use xlink:href="#DejaVuSans-29" x="550.837891"/>
     </g>
    </g>
   </g>
   <g id="matplotlib.axis_2">
    <g id="ytick_1">
     <g id="line2d_6">
      <defs>
       <path id="mfaed83488a" d="M 0 0 
L -3.5 0 
" style="stroke: #000000; stroke-width: 0.8"/>
      </defs>
      <g>
       <use xlink:href="#mfaed83488a" x="57.6" y="295.488" style="stroke: #000000; stroke-width: 0.8"/>
      </g>
     </g>
     <g id="text_7">
      <!-- 0 -->
      <g transform="translate(44.2375 299.287219)scale(0.1 -0.1)">
       <use xlink:href="#DejaVuSans-30"/>
      </g>
     </g>
    </g>
    <g id="ytick_2">
     <g id="line2d_7">
      <g>
       <use xlink:href="#mfaed83488a" x="57.6" y="264.7304" style="stroke: #000000; stroke-width: 0.8"/>
      </g>
     </g>
     <g id="text_8">
      <!-- 2 -->
      <g transform="translate(44.2375 268.529618)scale(0.1 -0.1)">
       <use xlink:href="#DejaVuSans-32"/>
      </g>
     </g>
    </g>
    <g id="ytick_3">
     <g id="line2d_8">
      <g>
       <use xlink:href="#mfaed83488a" x="57.6" y="233.972799" style="stroke: #000000; stroke-width: 0.8"/>
      </g>
     </g>
     <g id="text_9">
      <!-- 4 -->
      <g transform="translate(44.2375 237.772018)scale(0.1 -0.1)">
       <use xlink:href="#DejaVuSans-34"/>
      </g>
     </g>
    </g>
    <g id="ytick_4">
     <g id="line2d_9">
      <g>
       <use xlink:href="#mfaed83488a" x="57.6" y="203.215199" style="stroke: #000000; stroke-width: 0.8"/>
      </g>
     </g>
     <g id="text_10">
      <!-- 6 -->
      <g transform="translate(44.2375 207.014417)scale(0.1 -0.1)">
       <use xlink:href="#DejaVuSans-36"/>
      </g>
     </g>
    </g>
    <g id="ytick_5">
     <g id="line2d_10">
      <g>
       <use xlink:href="#mfaed83488a" x="57.6" y="172.457598" style="stroke: #000000; stroke-width: 0.8"/>
      </g>
     </g>
     <g id="text_11">
      <!-- 8 -->
      <g transform="translate(44.2375 176.256817)scale(0.1 -0.1)">
       <use xlink:href="#DejaVuSans-38"/>
      </g>
     </g>
    </g>
    <g id="ytick_6">
     <g id="line2d_11">
      <g>
       <use xlink:href="#mfaed83488a" x="57.6" y="141.699998" style="stroke: #000000; stroke-width: 0.8"/>
      </g>
     </g>
     <g id="text_12">
      <!-- 10 -->
      <g transform="translate(37.875 145.499217)scale(0.1 -0.1)">
       <defs>
        <path id="DejaVuSans-31" d="M 794 531 
L 1825 531 
L 1825 4091 
L 703 3866 
L 703 4441 
L 1819 4666 
L 2450 4666 
L 2450 531 
L 3481 531 
L 3481 0 
L 794 0 
L 794 531 
z
" transform="scale(0.015625)"/>
       </defs>
       <use xlink:href="#DejaVuSans-31"/>
       <use xlink:href="#DejaVuSans-30" x="63.623047"/>
      </g>
     </g>
    </g>
    <g id="ytick_7">
     <g id="line2d_12">
      <g>
       <use xlink:href="#mfaed83488a" x="57.6" y="110.942397" style="stroke: #000000; stroke-width: 0.8"/>
      </g>
     </g>
     <g id="text_13">
      <!-- 12 -->
      <g transform="translate(37.875 114.741616)scale(0.1 -0.1)">
       <use xlink:href="#DejaVuSans-31"/>
       <use xlink:href="#DejaVuSans-32" x="63.623047"/>
      </g>
     </g>
    </g>
    <g id="ytick_8">
     <g id="line2d_13">
      <g>
       <use xlink:href="#mfaed83488a" x="57.6" y="80.184797" style="stroke: #000000; stroke-width: 0.8"/>
      </g>
     </g>
     <g id="text_14">
      <!-- 14 -->
      <g transform="translate(37.875 83.984016)scale(0.1 -0.1)">
       <use xlink:href="#DejaVuSans-31"/>
       <use xlink:href="#DejaVuSans-34" x="63.623047"/>
      </g>
     </g>
    </g>
    <g id="ytick_9">
     <g id="line2d_14">
      <g>
       <use xlink:href="#mfaed83488a" x="57.6" y="49.427197" style="stroke: #000000; stroke-width: 0.8"/>
      </g>
     </g>
     <g id="text_15">
      <!-- 16 -->
      <g transform="translate(37.875 53.226415)scale(0.1 -0.1)">
       <use xlink:href="#DejaVuSans-31"/>
       <use xlink:href="#DejaVuSans-36" x="63.623047"/>
      </g>
     </g>
    </g>
    <g id="text_16">
     <!-- Absoption (cm^-1) -->
     <g transform="translate(31.795312 221.823312)rotate(-90)scale(0.1 -0.1)">
      <defs>
       <path id="DejaVuSans-41" d="M 2188 4044 
L 1331 1722 
L 3047 1722 
L 2188 4044 
z
M 1831 4666 
L 2547 4666 
L 4325 0 
L 3669 0 
L 3244 1197 
L 1141 1197 
L 716 0 
L 50 0 
L 1831 4666 
z
" transform="scale(0.015625)"/>
       <path id="DejaVuSans-62" d="M 3116 1747 
Q 3116 2381 2855 2742 
Q 2594 3103 2138 3103 
Q 1681 3103 1420 2742 
Q 1159 2381 1159 1747 
Q 1159 1113 1420 752 
Q 1681 391 2138 391 
Q 2594 391 2855 752 
Q 3116 1113 3116 1747 
z
M 1159 2969 
Q 1341 3281 1617 3432 
Q 1894 3584 2278 3584 
Q 2916 3584 3314 3078 
Q 3713 2572 3713 1747 
Q 3713 922 3314 415 
Q 2916 -91 2278 -91 
Q 1894 -91 1617 61 
Q 1341 213 1159 525 
L 1159 0 
L 581 0 
L 581 4863 
L 1159 4863 
L 1159 2969 
z
" transform="scale(0.015625)"/>
       <path id="DejaVuSans-73" d="M 2834 3397 
L 2834 2853 
Q 2591 2978 2328 3040 
Q 2066 3103 1784 3103 
Q 1356 3103 1142 2972 
Q 928 2841 928 2578 
Q 928 2378 1081 2264 
Q 1234 2150 1697 2047 
L 1894 2003 
Q 2506 1872 2764 1633 
Q 3022 1394 3022 966 
Q 3022 478 2636 193 
Q 2250 -91 1575 -91 
Q 1294 -91 989 -36 
Q 684 19 347 128 
L 347 722 
Q 666 556 975 473 
Q 1284 391 1588 391 
Q 1994 391 2212 530 
Q 2431 669 2431 922 
Q 2431 1156 2273 1281 
Q 2116 1406 1581 1522 
L 1381 1569 
Q 847 1681 609 1914 
Q 372 2147 372 2553 
Q 372 3047 722 3315 
Q 1072 3584 1716 3584 
Q 2034 3584 2315 3537 
Q 2597 3491 2834 3397 
z
" transform="scale(0.015625)"/>
       <path id="DejaVuSans-6f" d="M 1959 3097 
Q 1497 3097 1228 2736 
Q 959 2375 959 1747 
Q 959 1119 1226 758 
Q 1494 397 1959 397 
Q 2419 397 2687 759 
Q 2956 1122 2956 1747 
Q 2956 2369 2687 2733 
Q 2419 3097 1959 3097 
z
M 1959 3584 
Q 2709 3584 3137 3096 
Q 3566 2609 3566 1747 
Q 3566 888 3137 398 
Q 2709 -91 1959 -91 
Q 1206 -91 779 398 
Q 353 888 353 1747 
Q 353 2609 779 3096 
Q 1206 3584 1959 3584 
z
" transform="scale(0.015625)"/>
       <path id="DejaVuSans-70" d="M 1159 525 
L 1159 -1331 
L 581 -1331 
L 581 3500 
L 1159 3500 
L 1159 2969 
Q 1341 3281 1617 3432 
Q 1894 3584 2278 3584 
Q 2916 3584 3314 3078 
Q 3713 2572 3713 1747 
Q 3713 922 3314 415 
Q 2916 -91 2278 -91 
Q 1894 -91 1617 61 
Q 1341 213 1159 525 
z
M 3116 1747 
Q 3116 2381 2855 2742 
Q 2594 3103 2138 3103 
Q 1681 3103 1420 2742 
Q 1159 2381 1159 1747 
Q 1159 1113 1420 752 
Q 1681 391 2138 391 
Q 2594 391 2855 752 
Q 3116 1113 3116 1747 
z
" transform="scale(0.015625)"/>
       <path id="DejaVuSans-74" d="M 1172 4494 
L 1172 3500 
L 2356 3500 
L 2356 3053 
L 1172 3053 
L 1172 1153 
Q 1172 725 1289 603 
Q 1406 481 1766 481 
L 2356 481 
L 2356 0 
L 1766 0 
Q 1100 0 847 248 
Q 594 497 594 1153 
L 594 3053 
L 172 3053 
L 172 3500 
L 594 3500 
L 594 4494 
L 1172 4494 
z
" transform="scale(0.015625)"/>
       <path id="DejaVuSans-69" d="M 603 3500 
L 1178 3500 
L 1178 0 
L 603 0 
L 603 3500 
z
M 603 4863 
L 1178 4863 
L 1178 4134 
L 603 4134 
L 603 4863 
z
" transform="scale(0.015625)"/>
       <path id="DejaVuSans-63" d="M 3122 3366 
L 3122 2828 
Q 2878 2963 2633 3030 
Q 2388 3097 2138 3097 
Q 1578 3097 1268 2742 
Q 959 2388 959 1747 
Q 959 1106 1268 751 
Q 1578 397 2138 397 
Q 2388 397 2633 464 
Q 2878 531 3122 666 
L 3122 134 
Q 2881 22 2623 -34 
Q 2366 -91 2075 -91 
Q 1284 -91 818 406 
Q 353 903 353 1747 
Q 353 2603 823 3093 
Q 1294 3584 2113 3584 
Q 2378 3584 2631 3529 
Q 2884 3475 3122 3366 
z
" transform="scale(0.015625)"/>
       <path id="DejaVuSans-6d" d="M 3328 2828 
Q 3544 3216 3844 3400 
Q 4144 3584 4550 3584 
Q 5097 3584 5394 3201 
Q 5691 2819 5691 2113 
L 5691 0 
L 5113 0 
L 5113 2094 
Q 5113 2597 4934 2840 
Q 4756 3084 4391 3084 
Q 3944 3084 3684 2787 
Q 3425 2491 3425 1978 
L 3425 0 
L 2847 0 
L 2847 2094 
Q 2847 2600 2669 2842 
Q 2491 3084 2119 3084 
Q 1678 3084 1418 2786 
Q 1159 2488 1159 1978 
L 1159 0 
L 581 0 
L 581 3500 
L 1159 3500 
L 1159 2956 
Q 1356 3278 1631 3431 
Q 1906 3584 2284 3584 
Q 2666 3584 2933 3390 
Q 3200 3197 3328 2828 
z
" transform="scale(0.015625)"/>
       <path id="DejaVuSans-5e" d="M 2988 4666 
L 4684 2925 
L 4056 2925 
L 2681 4159 
L 1306 2925 
L 678 2925 
L 2375 4666 
L 2988 4666 
z
" transform="scale(0.015625)"/>
       <path id="DejaVuSans-2d" d="M 313 2009 
L 1997 2009 
L 1997 1497 
L 313 1497 
L 313 2009 
z
" transform="scale(0.015625)"/>
      </defs>
      <use xlink:href="#DejaVuSans-41"/>
      <use xlink:href="#DejaVuSans-62" x="68.408203"/>
      <use xlink:href="#DejaVuSans-73" x="131.884766"/>
      <use xlink:href="#DejaVuSans-6f" x="183.984375"/>
      <use xlink:href="#DejaVuSans-70" x="245.166016"/>
      <use xlink:href="#DejaVuSans-74" x="308.642578"/>
      <use xlink:href="#DejaVuSans-69" x="347.851562"/>
      <use xlink:href="#DejaVuSans-6f" x="375.634766"/>
      <use xlink:href="#DejaVuSans-6e" x="436.816406"/>
      <use xlink:href="#DejaVuSans-20" x="500.195312"/>
      <use xlink:href="#DejaVuSans-28" x="531.982422"/>
      <use xlink:href="#DejaVuSans-63" x="570.996094"/>
      <use xlink:href="#DejaVuSans-6d" x="625.976562"/>
      <use xlink:href="#DejaVuSans-5e" x="723.388672"/>
      <use xlink:href="#DejaVuSans-2d" x="807.177734"/>
      <use xlink:href="#DejaVuSans-31" x="843.261719"/>
      <use xlink:href="#DejaVuSans-29" x="906.884766"/>
     </g>
    </g>
   </g>
   <g id="line2d_15">
    <path d="M 73.832727 295.488 
L 74.157746 269.692273 
L 74.807783 270.614262 
L 75.132802 270.502714 
L 75.45743 269.73496 
L 75.782449 268.260031 
L 76.107467 266.015343 
L 76.757504 258.718894 
L 77.407541 246.501086 
L 78.382597 221.606671 
L 78.707226 217.642074 
L 79.032244 217.381019 
L 79.682281 221.286553 
L 80.0073 221.502213 
L 80.332319 219.316818 
L 80.657337 215.922701 
L 80.982356 214.470086 
L 81.307374 218.374013 
L 81.632393 228.490564 
L 82.607058 265.044127 
L 82.932077 271.192707 
L 83.257096 274.414066 
L 83.582114 275.608071 
L 83.907133 275.404422 
L 84.232151 274.168351 
L 84.55717 271.980274 
L 84.882189 268.6181 
L 85.856854 254.228155 
L 86.181873 253.555868 
L 86.506891 256.756521 
L 87.156928 266.431476 
L 87.481947 269.308828 
L 87.806966 270.737307 
L 88.131984 271.350218 
L 88.456613 271.563051 
L 88.781631 271.544112 
L 89.756687 271.146849 
L 90.081705 271.089603 
L 90.406724 270.911087 
L 90.731743 270.381284 
L 91.056761 269.307527 
L 92.356445 263.305734 
L 92.681464 262.070273 
L 93.006483 259.645544 
L 93.331501 254.516991 
L 93.65652 245.124441 
L 94.956204 191.703716 
L 95.281222 186.312322 
L 95.606241 178.885145 
L 95.93126 163.260016 
L 96.906315 84.575752 
L 97.231334 80.046326 
L 97.556353 96.97837 
L 98.531018 190.627226 
L 99.181055 223.384672 
L 99.831092 238.629338 
L 100.48113 245.651122 
L 101.131167 249.95429 
L 101.455795 251.160829 
L 101.780814 251.934696 
L 102.105832 252.159591 
L 102.430851 251.595242 
L 102.755869 250.666527 
L 103.080888 250.306837 
L 103.405907 251.208608 
L 103.730925 253.550687 
L 104.705591 262.999477 
L 105.030609 263.130378 
L 105.355628 261.082637 
L 106.005665 252.793782 
L 106.655702 240.684011 
L 106.980721 230.201305 
L 107.305739 212.073198 
L 107.630758 182.469233 
L 108.605424 62.551126 
L 108.930442 53.568 
L 109.255461 71.989296 
L 110.230516 169.131957 
L 110.880554 200.776944 
L 111.855219 233.048332 
L 112.505256 247.584378 
L 113.155294 257.256195 
L 113.480312 260.175736 
L 113.805331 261.74519 
L 114.130349 262.111264 
L 114.454978 261.625586 
L 115.105015 259.585642 
L 115.430033 258.056715 
L 115.755052 255.804447 
L 116.405089 248.69866 
L 117.380145 235.452729 
L 117.704773 232.643056 
L 118.029792 231.628792 
L 118.35481 232.50296 
L 119.004848 237.809791 
L 119.654885 242.805893 
L 120.304922 245.359267 
L 120.954569 247.578433 
L 121.604606 251.105619 
L 123.229699 262.306218 
L 124.204365 268.399132 
L 124.529383 269.132613 
L 124.854402 269.01463 
L 125.829458 267.106175 
L 126.154476 267.118638 
L 126.479495 267.84727 
L 127.45416 271.603153 
L 127.779179 271.808714 
L 128.104197 271.486205 
L 128.429216 270.887645 
L 128.754235 269.95634 
L 129.079253 268.516609 
L 129.72929 264.036714 
L 130.379327 259.354949 
L 130.703956 257.909508 
L 131.028974 257.257316 
L 131.353993 257.2347 
L 132.329049 258.387915 
L 132.654067 258.421767 
L 132.979086 258.180278 
L 133.629123 257.401585 
L 133.953752 257.341294 
L 134.27877 257.977644 
L 134.603789 259.438201 
L 135.578844 265.011452 
L 135.903863 266.179473 
L 136.228882 266.918145 
L 136.5539 267.234148 
L 136.878919 267.195188 
L 137.203547 266.871236 
L 137.528566 266.273041 
L 137.853584 265.215035 
L 138.178603 263.539971 
L 138.82864 258.106497 
L 139.478677 252.336237 
L 140.128714 247.456345 
L 140.453343 243.445376 
L 141.428399 226.326327 
L 141.753417 224.426626 
L 142.078436 227.018727 
L 142.728473 241.585121 
L 143.37851 254.428258 
L 144.028157 261.932934 
L 144.353176 264.19787 
L 144.678194 265.247896 
L 145.003213 265.246395 
L 145.65325 264.124267 
L 145.978269 263.968088 
L 146.303287 264.223631 
L 146.952934 264.867009 
L 147.277953 264.872775 
L 147.92799 264.536902 
L 148.253008 264.756593 
L 148.578027 265.458066 
L 149.553083 268.402877 
L 149.877711 268.524068 
L 150.20273 267.919635 
L 150.527748 266.436438 
L 150.852767 263.758632 
L 151.177785 259.574663 
L 152.47786 237.551607 
L 152.802878 237.77422 
L 153.127507 241.779699 
L 154.102563 258.688115 
L 154.427581 261.636253 
L 155.077618 264.80772 
L 155.727655 266.529289 
L 156.377302 267.382672 
L 157.02734 267.739051 
L 157.352358 267.572831 
L 157.677377 266.867876 
L 158.977451 262.156437 
L 159.30247 262.355061 
L 159.952117 263.574601 
L 160.277135 263.558846 
L 160.602154 262.476862 
L 160.927172 260.198281 
L 161.57721 253.685877 
L 161.902228 251.687385 
L 162.227247 251.592457 
L 164.827005 261.421532 
L 165.152024 261.905961 
L 165.477042 261.962069 
L 165.802061 261.476638 
L 166.126689 260.358144 
L 166.451708 258.558993 
L 166.776727 256.011909 
L 167.426764 248.329261 
L 168.076801 240.603716 
L 168.401819 239.121615 
L 168.726838 239.4349 
L 169.051857 240.318987 
L 169.376485 240.072074 
L 169.701504 237.85068 
L 170.351541 232.359031 
L 170.676559 232.969312 
L 171.326596 240.751622 
L 171.651615 244.353897 
L 171.976634 246.227879 
L 172.301652 246.707139 
L 172.626281 246.779921 
L 172.951299 247.198138 
L 173.926355 249.289232 
L 174.901411 250.28436 
L 175.551448 250.877236 
L 175.876076 251.427616 
L 176.526113 253.452669 
L 177.176151 255.24619 
L 177.501169 255.559469 
L 178.151206 255.461864 
L 178.476225 255.291318 
L 178.801244 254.973172 
L 179.45089 253.519722 
L 180.750965 249.930773 
L 181.075983 247.905755 
L 181.401002 244.757603 
L 182.051039 235.411046 
L 182.700686 225.711664 
L 183.025705 222.430874 
L 183.350723 220.831104 
L 183.675742 220.670732 
L 184.00076 221.026618 
L 184.325779 221.065397 
L 184.975816 220.354993 
L 185.300835 220.570933 
L 185.625463 221.738142 
L 185.950482 224.170155 
L 188.875259 254.805422 
L 189.525296 259.32759 
L 190.175333 261.979072 
L 190.82537 263.259994 
L 191.475407 263.918886 
L 191.800426 263.944778 
L 192.125054 263.635423 
L 193.10011 261.883816 
L 194.075166 260.933844 
L 194.400185 259.904835 
L 195.37485 254.549132 
L 195.699869 253.816625 
L 196.024887 254.051361 
L 196.349906 254.660094 
L 196.674924 254.870699 
L 196.999943 254.59349 
L 197.324962 254.69096 
L 197.64998 256.006591 
L 198.624646 263.073529 
L 198.949664 263.671106 
L 199.274683 263.114892 
L 199.92472 260.063804 
L 200.899776 254.787389 
L 201.224794 254.001555 
L 201.549813 253.749672 
L 201.874441 253.64662 
L 202.19946 253.333669 
L 202.524479 252.689651 
L 203.174516 251.064496 
L 203.499534 251.137709 
L 203.824553 252.240981 
L 204.799609 257.253316 
L 205.449256 259.201393 
L 206.424311 261.218183 
L 206.74933 261.731732 
L 207.074349 261.870942 
L 207.399367 261.601349 
L 208.374033 259.552144 
L 208.699051 259.372178 
L 209.349088 259.64853 
L 209.674107 259.404561 
L 209.999126 258.551556 
L 211.2992 253.475306 
L 211.948847 252.348391 
L 212.598884 251.698878 
L 212.923903 251.599394 
L 213.57394 251.693119 
L 213.898958 251.528925 
L 214.223977 250.972445 
L 215.523661 247.155119 
L 215.84868 246.982383 
L 216.173698 246.941017 
L 216.498717 246.635952 
L 217.148754 245.428077 
L 217.473773 245.285821 
L 217.798401 245.841657 
L 218.12342 247.13487 
L 219.423494 253.818506 
L 220.723568 257.719798 
L 221.698234 260.081923 
L 222.023252 260.494288 
L 222.348271 260.383908 
L 222.67329 259.50239 
L 223.648345 254.529252 
L 223.973364 254.127404 
L 224.297992 254.532951 
L 225.273048 256.472082 
L 225.923085 256.950435 
L 226.573122 257.040349 
L 226.898141 256.924511 
L 227.22316 256.412954 
L 227.547788 255.432189 
L 228.197825 251.987457 
L 228.847862 248.208784 
L 229.172881 247.070267 
L 229.497899 246.900915 
L 229.822918 247.633663 
L 230.472955 250.165672 
L 230.797584 250.9867 
L 231.122602 251.226418 
L 231.447621 250.990852 
L 232.097658 250.077159 
L 232.422676 250.023747 
L 233.397732 250.791012 
L 233.722751 250.628098 
L 234.047379 249.83211 
L 234.372398 248.029176 
L 235.347454 240.347541 
L 235.672472 241.059742 
L 236.322509 248.231611 
L 236.972546 254.157807 
L 237.622193 256.756399 
L 239.247286 261.905269 
L 239.897324 263.188092 
L 240.54697 263.93158 
L 240.871989 264.029205 
L 241.197008 263.889705 
L 241.522026 263.353182 
L 242.172063 261.441428 
L 242.822101 259.48164 
L 243.147119 259.095703 
L 243.472138 259.227351 
L 244.121785 260.776232 
L 244.771822 262.542584 
L 245.421859 263.59621 
L 245.746878 263.90304 
L 246.071896 264.048233 
L 246.396915 264.030747 
L 246.721933 263.726891 
L 247.046562 262.930725 
L 248.346636 257.431312 
L 248.671655 257.280612 
L 249.321692 258.089951 
L 249.64671 258.105003 
L 250.296357 257.432127 
L 250.621376 257.530096 
L 251.596432 259.665547 
L 251.92145 259.559513 
L 252.896506 257.30693 
L 253.221525 258.082304 
L 254.19619 264.605598 
L 254.521209 265.535718 
L 254.846227 265.224711 
L 255.171246 263.667548 
L 255.821283 259.091629 
L 256.146302 258.472157 
L 256.47132 259.998378 
L 257.445986 268.202733 
L 257.771004 269.381918 
L 258.096023 269.775664 
L 259.396097 270.039274 
L 260.045744 270.395807 
L 260.370763 270.396994 
L 260.695782 270.085994 
L 261.0208 269.193735 
L 261.345819 267.496281 
L 261.995856 262.049473 
L 262.645893 257.049902 
L 262.970912 255.966758 
L 263.620559 255.303184 
L 263.945577 255.281651 
L 264.270596 255.839931 
L 264.595614 257.474248 
L 266.220707 269.99438 
L 266.870354 271.984715 
L 267.195373 272.500869 
L 267.520391 272.694496 
L 269.145484 272.973464 
L 269.470503 273.217823 
L 270.770187 275.009105 
L 271.095206 275.117769 
L 271.420224 274.942058 
L 272.070261 273.733034 
L 272.720298 272.090212 
L 273.044927 271.623719 
L 273.369945 271.442314 
L 273.694964 271.403792 
L 274.019983 271.221656 
L 274.995038 270.000601 
L 275.320057 270.248887 
L 276.294723 272.20993 
L 276.619741 272.367216 
L 277.269778 272.245449 
L 277.594797 272.11131 
L 277.919815 271.830399 
L 278.894871 270.396237 
L 279.21989 270.70082 
L 279.544518 271.645943 
L 280.519574 275.350347 
L 281.169611 276.883842 
L 281.49463 277.00486 
L 281.819648 276.525263 
L 282.144667 275.493504 
L 282.794314 272.824322 
L 283.119332 271.988083 
L 283.444351 271.751834 
L 283.76937 272.017257 
L 284.419407 273.560236 
L 285.069444 275.116045 
L 285.719091 275.920159 
L 286.369128 276.781646 
L 287.019165 277.855294 
L 287.344184 278.137641 
L 287.669202 278.214625 
L 288.968887 277.799402 
L 289.618924 278.110855 
L 289.943942 278.032803 
L 290.593979 277.458182 
L 291.244017 276.985749 
L 291.894054 277.246436 
L 292.218682 277.377507 
L 292.868719 277.218717 
L 293.193738 277.13916 
L 293.518756 277.27121 
L 294.493812 278.734879 
L 294.818831 278.763798 
L 295.468478 278.447739 
L 295.793496 278.637419 
L 296.443534 279.449002 
L 296.768552 279.587479 
L 297.418589 279.595752 
L 297.743608 279.789525 
L 298.068626 280.309423 
L 299.043292 282.973349 
L 299.693329 284.529377 
L 300.668385 286.416271 
L 301.318422 287.723103 
L 301.968069 288.537459 
L 302.618106 288.629598 
L 303.593162 288.60047 
L 303.918181 288.703345 
L 304.243199 288.975706 
L 304.893236 290.145804 
L 305.542883 291.324371 
L 305.867902 291.660363 
L 306.517939 291.878244 
L 307.818013 291.685666 
L 308.46766 291.963326 
L 310.092753 293.624143 
L 310.74279 293.735684 
L 312.367493 293.136455 
L 312.692512 293.192036 
L 313.992586 294.007428 
L 315.29227 294.832665 
L 316.592345 295.008767 
L 317.892419 295.066407 
L 318.867084 295.185635 
L 322.11688 295.242887 
L 322.766917 295.303676 
L 329.591527 295.361741 
L 330.241564 295.424708 
L 398.487273 295.488 
L 398.487273 295.488 
" clip-path="url(#p50c01c2bcc)" style="fill: none; stroke: #ffa500; stroke-linecap: square"/>
   </g>
   <g id="line2d_16">
    <path d="M 73.832727 295.488 
L 74.157746 250.575898 
L 74.807783 252.752115 
L 75.132802 252.776046 
L 75.45743 251.833273 
L 75.782449 250.051971 
L 76.757504 242.964831 
L 77.082523 242.770672 
L 77.73256 245.031055 
L 78.057579 244.652001 
L 78.382597 242.40076 
L 79.032244 234.701716 
L 79.357263 229.706119 
L 79.682281 222.562697 
L 80.0073 211.50885 
L 80.982356 166.524948 
L 81.307374 163.436683 
L 81.632393 171.332833 
L 82.932077 229.611085 
L 83.582114 242.37803 
L 84.55717 255.937631 
L 85.206817 261.614329 
L 85.531836 263.197838 
L 85.856854 264.210965 
L 86.181873 264.610862 
L 86.506891 264.448022 
L 86.83191 264.123906 
L 87.156928 264.29928 
L 87.481947 265.413972 
L 88.456613 270.664534 
L 89.756687 274.881555 
L 90.081705 275.353031 
L 90.406724 275.234578 
L 91.38178 273.567613 
L 91.706408 273.365513 
L 92.031427 273.000257 
L 92.356445 271.838386 
L 92.681464 269.235069 
L 93.006483 264.410728 
L 93.331501 255.852939 
L 93.65652 241.392444 
L 94.631575 175.775439 
L 94.956204 165.630574 
L 95.281222 166.17856 
L 95.93126 182.818484 
L 97.881371 237.422138 
L 98.531018 249.393253 
L 99.181055 256.966185 
L 99.831092 262.82287 
L 100.48113 266.713085 
L 101.780814 273.287173 
L 102.430851 274.69216 
L 103.080888 275.56806 
L 103.405907 275.605541 
L 103.730925 275.17423 
L 104.380962 273.330924 
L 105.680647 267.924081 
L 106.330684 266.831497 
L 106.655702 265.475455 
L 106.980721 262.595296 
L 107.630758 251.097676 
L 108.280405 239.77815 
L 108.605424 237.641616 
L 108.930442 236.30564 
L 109.255461 232.841707 
L 109.580479 225.35006 
L 110.230516 204.023848 
L 110.555535 197.684161 
L 110.880554 197.496272 
L 111.205182 202.354192 
L 111.855219 216.027076 
L 112.180238 220.691563 
L 112.505256 223.102792 
L 112.830275 223.614425 
L 113.155294 222.595512 
L 114.130349 216.363215 
L 114.454978 217.066763 
L 115.105015 223.194207 
L 115.430033 224.654858 
L 115.755052 223.507686 
L 116.080071 221.183715 
L 116.405089 220.092148 
L 116.730108 221.614102 
L 117.704773 230.836902 
L 118.029792 232.771307 
L 118.35481 235.394954 
L 119.004848 243.805798 
L 119.654885 251.68737 
L 120.304922 255.561356 
L 120.954569 258.951552 
L 121.604606 262.940564 
L 121.929625 264.350848 
L 122.579662 265.948836 
L 123.229699 267.345771 
L 123.554718 267.625002 
L 123.879736 267.362613 
L 124.529383 265.715426 
L 125.17942 264.160538 
L 125.504439 263.819524 
L 125.829458 263.870651 
L 126.154476 264.24701 
L 128.104197 267.574553 
L 128.429216 267.39739 
L 128.754235 266.358562 
L 129.404272 262.164301 
L 130.054309 257.152005 
L 130.379327 255.663917 
L 130.703956 256.053999 
L 131.028974 258.410935 
L 131.679012 264.358752 
L 132.00403 265.745985 
L 132.329049 265.846894 
L 132.654067 265.015738 
L 132.979086 263.380132 
L 133.304105 260.721989 
L 133.629123 256.587174 
L 134.928807 234.112691 
L 135.253826 235.951448 
L 136.228882 251.70697 
L 136.5539 253.913367 
L 136.878919 254.572999 
L 137.203547 254.545903 
L 137.528566 254.222742 
L 137.853584 253.270914 
L 138.178603 250.770018 
L 138.503621 245.845705 
L 139.478677 225.751188 
L 139.803696 224.133375 
L 140.453343 226.917887 
L 140.778361 226.087372 
L 141.10338 221.593339 
L 142.078436 201.452201 
L 142.403454 199.400395 
L 142.728473 199.647365 
L 143.053491 201.251557 
L 143.37851 204.180812 
L 143.703138 209.082929 
L 144.353176 225.107928 
L 145.003213 240.312356 
L 145.328231 244.454525 
L 145.978269 248.355002 
L 146.627916 252.764426 
L 147.277953 256.959581 
L 147.602971 257.744575 
L 147.92799 257.633928 
L 148.253008 256.912769 
L 148.578027 255.837365 
L 148.903046 254.35203 
L 149.228064 251.9445 
L 149.553083 247.699696 
L 149.877711 240.666788 
L 150.527748 221.237721 
L 150.852767 215.601038 
L 151.177785 217.019134 
L 151.827823 234.329364 
L 152.47786 249.93365 
L 153.127507 258.511553 
L 153.452525 260.798551 
L 153.777544 261.885085 
L 154.102563 262.110947 
L 154.7526 261.979632 
L 155.402637 262.313129 
L 155.727655 262.570638 
L 156.052674 262.986842 
L 157.02734 264.657006 
L 157.352358 264.716925 
L 157.677377 264.519938 
L 158.002395 264.162908 
L 158.327414 263.564214 
L 158.652433 262.420987 
L 158.977451 260.448589 
L 159.952117 252.690146 
L 160.277135 252.432671 
L 160.602154 253.61145 
L 161.252191 256.434583 
L 161.57721 257.05419 
L 161.902228 257.34922 
L 162.227247 257.460825 
L 162.552265 257.261944 
L 162.876894 256.311238 
L 163.201912 254.164466 
L 164.176968 244.418591 
L 164.501987 243.948801 
L 165.477042 247.773458 
L 165.802061 248.078202 
L 166.126689 248.044348 
L 166.451708 247.79663 
L 166.776727 247.075077 
L 167.101745 245.639189 
L 167.751782 241.044925 
L 168.401819 236.81004 
L 168.726838 236.573516 
L 169.051857 238.184345 
L 169.701504 242.841301 
L 170.026522 243.798032 
L 171.001578 244.590129 
L 171.326596 243.436953 
L 171.651615 239.765132 
L 172.301652 229.202255 
L 172.626281 228.505649 
L 172.951299 232.758115 
L 173.601336 246.134193 
L 173.926355 250.384541 
L 174.251374 252.461786 
L 174.576392 253.171529 
L 174.901411 253.20344 
L 175.876076 252.711349 
L 176.201095 252.745944 
L 176.851132 253.154746 
L 177.176151 253.338269 
L 177.501169 253.35441 
L 178.151206 252.829676 
L 178.801244 252.057452 
L 180.425946 249.372759 
L 181.075983 248.47826 
L 181.401002 248.190586 
L 181.726021 247.727138 
L 182.051039 246.661107 
L 182.700686 242.461908 
L 183.350723 238.366239 
L 183.675742 237.651554 
L 184.00076 237.890219 
L 184.650798 240.124967 
L 185.300835 243.319522 
L 186.2755 248.592322 
L 186.600519 249.664233 
L 186.925538 250.192592 
L 187.250556 250.276913 
L 187.575575 250.018905 
L 188.225612 249.235606 
L 188.55063 249.161474 
L 188.875259 249.381483 
L 190.500352 251.026217 
L 190.82537 251.041909 
L 191.150389 250.894597 
L 191.475407 250.528301 
L 191.800426 249.722335 
L 192.125054 248.063456 
L 193.10011 240.347456 
L 193.425129 239.792053 
L 193.750147 240.938622 
L 194.400185 244.312688 
L 194.725203 244.346123 
L 195.050222 242.036896 
L 195.37485 236.695562 
L 196.349906 213.299973 
L 196.674924 212.909722 
L 196.999943 218.243797 
L 197.974999 242.80246 
L 198.300017 247.549439 
L 198.624646 250.118028 
L 198.949664 251.10738 
L 199.274683 251.052899 
L 200.249739 248.925627 
L 200.574757 248.721347 
L 200.899776 248.781798 
L 201.224794 248.695341 
L 201.549813 248.105789 
L 202.524479 245.375407 
L 202.849497 245.372505 
L 203.824553 247.049024 
L 204.149571 247.142778 
L 204.799609 246.455282 
L 205.124237 246.550522 
L 205.449256 247.377503 
L 206.74933 252.441909 
L 207.074349 253.178272 
L 207.399367 253.607587 
L 208.049404 253.84767 
L 209.02407 253.80572 
L 209.349088 253.834684 
L 209.674107 253.737333 
L 209.999126 253.226794 
L 210.974181 250.123015 
L 211.2992 249.76345 
L 211.948847 249.810626 
L 212.598884 249.280099 
L 212.923903 249.046216 
L 213.248921 249.167614 
L 213.898958 250.35695 
L 214.223977 250.940714 
L 214.548605 251.167926 
L 214.873624 251.035592 
L 215.523661 250.309537 
L 216.173698 249.87695 
L 216.823735 249.143823 
L 217.473773 248.373462 
L 218.12342 247.966583 
L 218.448438 247.862987 
L 218.773457 247.893703 
L 219.423494 248.260404 
L 219.748513 248.225837 
L 220.723568 247.273773 
L 221.048197 247.170706 
L 221.698234 247.272292 
L 222.998308 248.001419 
L 223.323327 247.866442 
L 223.973364 246.797039 
L 224.623011 245.060671 
L 225.273048 243.245973 
L 225.598067 242.998563 
L 225.923085 243.485668 
L 226.573122 246.08959 
L 227.22316 248.441643 
L 228.197825 250.264889 
L 228.522844 250.747573 
L 228.847862 250.944408 
L 229.172881 250.7089 
L 229.497899 250.074957 
L 230.797584 246.107158 
L 231.447621 245.581565 
L 231.772639 245.007914 
L 232.097658 243.922102 
L 232.747695 240.503339 
L 233.397732 235.111 
L 234.047379 225.640685 
L 234.372398 220.371205 
L 234.697416 217.011048 
L 235.022435 217.080188 
L 235.347454 220.274436 
L 236.322509 233.364826 
L 236.972546 239.483711 
L 237.297175 241.623917 
L 237.622193 242.874588 
L 237.947212 243.226017 
L 238.272231 242.898567 
L 238.922268 241.484239 
L 239.247286 241.230469 
L 239.572305 241.62296 
L 241.197008 246.162794 
L 241.847045 247.648331 
L 242.497082 249.110331 
L 243.472138 249.99226 
L 243.796766 250.855947 
L 244.771822 254.351409 
L 245.09684 254.634846 
L 245.421859 254.077671 
L 246.396915 250.592164 
L 246.721933 250.390088 
L 247.046562 250.952625 
L 247.696599 252.530766 
L 248.021618 252.696032 
L 248.346636 252.414796 
L 248.996673 251.076096 
L 249.64671 249.527587 
L 249.971729 248.996 
L 250.621376 248.543708 
L 251.596432 248.170858 
L 251.92145 248.5005 
L 252.246469 249.328433 
L 253.546153 254.609825 
L 253.871172 254.874174 
L 254.19619 254.254699 
L 254.521209 253.339167 
L 254.846227 253.055362 
L 255.171246 254.252277 
L 256.47132 263.968725 
L 256.795949 264.779744 
L 257.120967 264.899448 
L 258.096023 263.779491 
L 258.421042 263.986956 
L 259.071079 265.59015 
L 259.721116 267.296741 
L 260.045744 267.735216 
L 260.370763 267.731617 
L 260.695782 267.28374 
L 261.670837 264.909309 
L 262.645893 263.6356 
L 262.970912 262.866021 
L 263.29554 261.781718 
L 263.620559 260.248202 
L 263.945577 257.819651 
L 264.920633 248.232306 
L 265.245651 248.956447 
L 265.895689 257.047197 
L 266.545336 264.275507 
L 267.195373 267.980826 
L 267.84541 270.062196 
L 268.495447 271.465705 
L 268.820466 271.752354 
L 269.795131 272.010202 
L 270.12015 272.488629 
L 271.420224 275.323657 
L 271.745243 275.195485 
L 272.39528 273.79456 
L 273.044927 272.530947 
L 274.345001 270.84886 
L 274.67002 270.665744 
L 274.995038 270.770499 
L 275.645076 271.511918 
L 275.970094 271.618829 
L 276.294723 271.290511 
L 277.269778 269.233632 
L 277.594797 269.3385 
L 277.919815 270.028039 
L 278.894871 272.653751 
L 279.869537 274.473443 
L 280.844593 276.564739 
L 281.49463 277.556257 
L 281.819648 277.628585 
L 282.144667 277.199145 
L 282.794314 275.382476 
L 283.444351 273.76073 
L 283.76937 273.576679 
L 284.094388 273.795559 
L 284.744425 275.046036 
L 285.394462 276.459228 
L 285.719091 276.940495 
L 286.044109 277.21903 
L 286.369128 277.293718 
L 287.669202 276.874412 
L 288.968887 275.727144 
L 289.618924 275.512629 
L 291.244017 275.625592 
L 291.894054 275.88156 
L 292.218682 275.64257 
L 292.543701 275.035089 
L 293.193738 273.238115 
L 293.518756 272.626877 
L 293.843775 272.541163 
L 294.168794 272.930242 
L 295.468478 275.139224 
L 296.118515 276.149293 
L 296.443534 276.442778 
L 296.768552 276.468962 
L 297.743608 276.171483 
L 298.068626 276.305836 
L 298.393645 276.710991 
L 300.018348 280.015515 
L 300.343366 280.815685 
L 301.643441 285.489543 
L 301.968069 286.031197 
L 302.293088 286.184802 
L 302.618106 286.17159 
L 303.268143 285.921521 
L 303.593162 286.076094 
L 303.918181 286.45562 
L 305.542883 289.393133 
L 306.19292 290.059058 
L 306.842958 290.27231 
L 308.143032 290.185798 
L 308.46766 290.120958 
L 309.117698 290.279155 
L 309.767735 290.727647 
L 310.417772 291.062815 
L 313.01753 291.836407 
L 313.667567 291.885412 
L 313.992586 291.880539 
L 314.967252 292.280707 
L 316.267326 293.098129 
L 318.542066 293.858868 
L 319.192103 293.914976 
L 321.791862 294.448213 
L 322.441899 294.629355 
L 324.716639 294.559637 
L 325.366676 294.49522 
L 327.966434 294.923628 
L 328.616471 294.985032 
L 329.916546 295.172001 
L 337.066174 295.098223 
L 338.690877 294.442625 
L 339.015895 294.441345 
L 339.990951 294.896917 
L 340.31597 295.093413 
L 341.615654 295.289718 
L 344.540431 295.354362 
L 345.190468 295.421017 
L 398.487273 295.488 
L 398.487273 295.488 
" clip-path="url(#p50c01c2bcc)" style="fill: none; stroke-dasharray: 6.4,1.6,1,1.6; stroke-dashoffset: 0; stroke: #0000ff"/>
   </g>
   <g id="patch_3">
    <path d="M 57.6 307.584 
L 57.6 41.472 
" style="fill: none; stroke: #000000; stroke-width: 0.8; stroke-linejoin: miter; stroke-linecap: square"/>
   </g>
   <g id="patch_4">
    <path d="M 414.72 307.584 
L 414.72 41.472 
" style="fill: none; stroke: #000000; stroke-width: 0.8; stroke-linejoin: miter; stroke-linecap: square"/>
   </g>
   <g id="patch_5">
    <path d="M 57.6 307.584 
L 414.72 307.584 
" style="fill: none; stroke: #000000; stroke-width: 0.8; stroke-linejoin: miter; stroke-linecap: square"/>
   </g>
   <g id="patch_6">
    <path d="M 57.6 41.472 
L 414.72 41.472 
" style="fill: none; stroke: #000000; stroke-width: 0.8; stroke-linejoin: miter; stroke-linecap: square"/>
   </g>
   <g id="legend_1">
    <g id="patch_7">
     <path d="M 363.8825 78.82825 
L 407.72 78.82825 
Q 409.72 78.82825 409.72 76.82825 
L 409.72 48.472 
Q 409.72 46.472 407.72 46.472 
L 363.8825 46.472 
Q 361.8825 46.472 361.8825 48.472 
L 361.8825 76.82825 
Q 361.8825 78.82825 363.8825 78.82825 
z
" style="fill: #ffffff; opacity: 0.8; stroke: #cccccc; stroke-linejoin: miter"/>
    </g>
    <g id="line2d_17">
     <path d="M 365.8825 54.570437 
L 375.8825 54.570437 
L 385.8825 54.570437 
" style="fill: none; stroke: #ffa500; stroke-linecap: square"/>
    </g>
    <g id="text_17">
     <!-- xx -->
     <g transform="translate(393.8825 58.070437)scale(0.1 -0.1)">
      <defs>
       <path id="DejaVuSans-78" d="M 3513 3500 
L 2247 1797 
L 3578 0 
L 2900 0 
L 1881 1375 
L 863 0 
L 184 0 
L 1544 1831 
L 300 3500 
L 978 3500 
L 1906 2253 
L 2834 3500 
L 3513 3500 
z
" transform="scale(0.015625)"/>
      </defs>
      <use xlink:href="#DejaVuSans-78"/>
      <use xlink:href="#DejaVuSans-78" x="59.179688"/>
     </g>
    </g>
    <g id="line2d_18">
     <path d="M 365.8825 69.248562 
L 375.8825 69.248562 
L 385.8825 69.248562 
" style="fill: none; stroke-dasharray: 6.4,1.6,1,1.6; stroke-dashoffset: 0; stroke: #0000ff"/>
    </g>
    <g id="text_18">
     <!-- yy -->
     <g transform="translate(393.8825 72.748562)scale(0.1 -0.1)">
      <use xlink:href="#DejaVuSans-79"/>
      <use xlink:href="#DejaVuSans-79" x="59.179688"/>
     </g>
    </g>
   </g>
  </g>
 </g>
 <defs>
  <clipPath id="p50c01c2bcc">
   <rect x="57.6" y="41.472" width="357.12" height="266.112"/>
  </clipPath>
 </defs>
</svg>
