<?xml version="1.0" encoding="utf-8" standalone="no"?>
<!DOCTYPE svg PUBLIC "-//W3C//DTD SVG 1.1//EN"
  "http://www.w3.org/Graphics/SVG/1.1/DTD/svg11.dtd">
<svg xmlns:xlink="http://www.w3.org/1999/xlink" width="720pt" height="576pt" viewBox="0 0 720 576" xmlns="http://www.w3.org/2000/svg" version="1.1">
 <metadata>
  <rdf:RDF xmlns:dc="http://purl.org/dc/elements/1.1/" xmlns:cc="http://creativecommons.org/ns#" xmlns:rdf="http://www.w3.org/1999/02/22-rdf-syntax-ns#">
   <cc:Work>
    <dc:type rdf:resource="http://purl.org/dc/dcmitype/StillImage"/>
    <dc:date>2022-03-11T21:12:17.779666</dc:date>
    <dc:format>image/svg+xml</dc:format>
    <dc:creator>
     <cc:Agent>
      <dc:title>Matplotlib v3.5.1, https://matplotlib.org/</dc:title>
     </cc:Agent>
    </dc:creator>
   </cc:Work>
  </rdf:RDF>
 </metadata>
 <defs>
  <style type="text/css">*{stroke-linejoin: round; stroke-linecap: butt}</style>
 </defs>
 <g id="figure_1">
  <g id="patch_1">
   <path d="M 0 576 
L 720 576 
L 720 0 
L 0 0 
z
" style="fill: #ffffff"/>
  </g>
  <g id="axes_1">
   <g id="patch_2">
    <path d="M 69.37 185 
L 360.634734 185 
L 360.634734 41.76 
L 69.37 41.76 
z
" style="fill: #ffffff"/>
   </g>
   <g id="matplotlib.axis_1">
    <g id="xtick_1">
     <g id="line2d_1">
      <defs>
       <path id="m8edf6d975f" d="M 0 0 
L 0 3.5 
" style="stroke: #000000; stroke-width: 0.8"/>
      </defs>
      <g>
       <use xlink:href="#m8edf6d975f" x="82.609306" y="185" style="stroke: #000000; stroke-width: 0.8"/>
      </g>
     </g>
     <g id="text_1">
      <!-- 0 -->
      <g transform="translate(79.428056 199.598437)scale(0.1 -0.1)">
       <defs>
        <path id="DejaVuSans-30" d="M 2034 4250 
Q 1547 4250 1301 3770 
Q 1056 3291 1056 2328 
Q 1056 1369 1301 889 
Q 1547 409 2034 409 
Q 2525 409 2770 889 
Q 3016 1369 3016 2328 
Q 3016 3291 2770 3770 
Q 2525 4250 2034 4250 
z
M 2034 4750 
Q 2819 4750 3233 4129 
Q 3647 3509 3647 2328 
Q 3647 1150 3233 529 
Q 2819 -91 2034 -91 
Q 1250 -91 836 529 
Q 422 1150 422 2328 
Q 422 3509 836 4129 
Q 1250 4750 2034 4750 
z
" transform="scale(0.015625)"/>
       </defs>
       <use xlink:href="#DejaVuSans-30"/>
      </g>
     </g>
    </g>
    <g id="xtick_2">
     <g id="line2d_2">
      <g>
       <use xlink:href="#m8edf6d975f" x="122.001627" y="185" style="stroke: #000000; stroke-width: 0.8"/>
      </g>
     </g>
     <g id="text_2">
      <!-- 10 -->
      <g transform="translate(115.639127 199.598437)scale(0.1 -0.1)">
       <defs>
        <path id="DejaVuSans-31" d="M 794 531 
L 1825 531 
L 1825 4091 
L 703 3866 
L 703 4441 
L 1819 4666 
L 2450 4666 
L 2450 531 
L 3481 531 
L 3481 0 
L 794 0 
L 794 531 
z
" transform="scale(0.015625)"/>
       </defs>
       <use xlink:href="#DejaVuSans-31"/>
       <use xlink:href="#DejaVuSans-30" x="63.623047"/>
      </g>
     </g>
    </g>
    <g id="xtick_3">
     <g id="line2d_3">
      <g>
       <use xlink:href="#m8edf6d975f" x="161.393948" y="185" style="stroke: #000000; stroke-width: 0.8"/>
      </g>
     </g>
     <g id="text_3">
      <!-- 20 -->
      <g transform="translate(155.031448 199.598437)scale(0.1 -0.1)">
       <defs>
        <path id="DejaVuSans-32" d="M 1228 531 
L 3431 531 
L 3431 0 
L 469 0 
L 469 531 
Q 828 903 1448 1529 
Q 2069 2156 2228 2338 
Q 2531 2678 2651 2914 
Q 2772 3150 2772 3378 
Q 2772 3750 2511 3984 
Q 2250 4219 1831 4219 
Q 1534 4219 1204 4116 
Q 875 4013 500 3803 
L 500 4441 
Q 881 4594 1212 4672 
Q 1544 4750 1819 4750 
Q 2544 4750 2975 4387 
Q 3406 4025 3406 3419 
Q 3406 3131 3298 2873 
Q 3191 2616 2906 2266 
Q 2828 2175 2409 1742 
Q 1991 1309 1228 531 
z
" transform="scale(0.015625)"/>
       </defs>
       <use xlink:href="#DejaVuSans-32"/>
       <use xlink:href="#DejaVuSans-30" x="63.623047"/>
      </g>
     </g>
    </g>
    <g id="xtick_4">
     <g id="line2d_4">
      <g>
       <use xlink:href="#m8edf6d975f" x="200.786269" y="185" style="stroke: #000000; stroke-width: 0.8"/>
      </g>
     </g>
     <g id="text_4">
      <!-- 30 -->
      <g transform="translate(194.423769 199.598437)scale(0.1 -0.1)">
       <defs>
        <path id="DejaVuSans-33" d="M 2597 2516 
Q 3050 2419 3304 2112 
Q 3559 1806 3559 1356 
Q 3559 666 3084 287 
Q 2609 -91 1734 -91 
Q 1441 -91 1130 -33 
Q 819 25 488 141 
L 488 750 
Q 750 597 1062 519 
Q 1375 441 1716 441 
Q 2309 441 2620 675 
Q 2931 909 2931 1356 
Q 2931 1769 2642 2001 
Q 2353 2234 1838 2234 
L 1294 2234 
L 1294 2753 
L 1863 2753 
Q 2328 2753 2575 2939 
Q 2822 3125 2822 3475 
Q 2822 3834 2567 4026 
Q 2313 4219 1838 4219 
Q 1578 4219 1281 4162 
Q 984 4106 628 3988 
L 628 4550 
Q 988 4650 1302 4700 
Q 1616 4750 1894 4750 
Q 2613 4750 3031 4423 
Q 3450 4097 3450 3541 
Q 3450 3153 3228 2886 
Q 3006 2619 2597 2516 
z
" transform="scale(0.015625)"/>
       </defs>
       <use xlink:href="#DejaVuSans-33"/>
       <use xlink:href="#DejaVuSans-30" x="63.623047"/>
      </g>
     </g>
    </g>
    <g id="xtick_5">
     <g id="line2d_5">
      <g>
       <use xlink:href="#m8edf6d975f" x="240.17859" y="185" style="stroke: #000000; stroke-width: 0.8"/>
      </g>
     </g>
     <g id="text_5">
      <!-- 40 -->
      <g transform="translate(233.81609 199.598437)scale(0.1 -0.1)">
       <defs>
        <path id="DejaVuSans-34" d="M 2419 4116 
L 825 1625 
L 2419 1625 
L 2419 4116 
z
M 2253 4666 
L 3047 4666 
L 3047 1625 
L 3713 1625 
L 3713 1100 
L 3047 1100 
L 3047 0 
L 2419 0 
L 2419 1100 
L 313 1100 
L 313 1709 
L 2253 4666 
z
" transform="scale(0.015625)"/>
       </defs>
       <use xlink:href="#DejaVuSans-34"/>
       <use xlink:href="#DejaVuSans-30" x="63.623047"/>
      </g>
     </g>
    </g>
    <g id="xtick_6">
     <g id="line2d_6">
      <g>
       <use xlink:href="#m8edf6d975f" x="279.570911" y="185" style="stroke: #000000; stroke-width: 0.8"/>
      </g>
     </g>
     <g id="text_6">
      <!-- 50 -->
      <g transform="translate(273.208411 199.598437)scale(0.1 -0.1)">
       <defs>
        <path id="DejaVuSans-35" d="M 691 4666 
L 3169 4666 
L 3169 4134 
L 1269 4134 
L 1269 2991 
Q 1406 3038 1543 3061 
Q 1681 3084 1819 3084 
Q 2600 3084 3056 2656 
Q 3513 2228 3513 1497 
Q 3513 744 3044 326 
Q 2575 -91 1722 -91 
Q 1428 -91 1123 -41 
Q 819 9 494 109 
L 494 744 
Q 775 591 1075 516 
Q 1375 441 1709 441 
Q 2250 441 2565 725 
Q 2881 1009 2881 1497 
Q 2881 1984 2565 2268 
Q 2250 2553 1709 2553 
Q 1456 2553 1204 2497 
Q 953 2441 691 2322 
L 691 4666 
z
" transform="scale(0.015625)"/>
       </defs>
       <use xlink:href="#DejaVuSans-35"/>
       <use xlink:href="#DejaVuSans-30" x="63.623047"/>
      </g>
     </g>
    </g>
    <g id="xtick_7">
     <g id="line2d_7">
      <g>
       <use xlink:href="#m8edf6d975f" x="318.963233" y="185" style="stroke: #000000; stroke-width: 0.8"/>
      </g>
     </g>
     <g id="text_7">
      <!-- 60 -->
      <g transform="translate(312.600733 199.598437)scale(0.1 -0.1)">
       <defs>
        <path id="DejaVuSans-36" d="M 2113 2584 
Q 1688 2584 1439 2293 
Q 1191 2003 1191 1497 
Q 1191 994 1439 701 
Q 1688 409 2113 409 
Q 2538 409 2786 701 
Q 3034 994 3034 1497 
Q 3034 2003 2786 2293 
Q 2538 2584 2113 2584 
z
M 3366 4563 
L 3366 3988 
Q 3128 4100 2886 4159 
Q 2644 4219 2406 4219 
Q 1781 4219 1451 3797 
Q 1122 3375 1075 2522 
Q 1259 2794 1537 2939 
Q 1816 3084 2150 3084 
Q 2853 3084 3261 2657 
Q 3669 2231 3669 1497 
Q 3669 778 3244 343 
Q 2819 -91 2113 -91 
Q 1303 -91 875 529 
Q 447 1150 447 2328 
Q 447 3434 972 4092 
Q 1497 4750 2381 4750 
Q 2619 4750 2861 4703 
Q 3103 4656 3366 4563 
z
" transform="scale(0.015625)"/>
       </defs>
       <use xlink:href="#DejaVuSans-36"/>
       <use xlink:href="#DejaVuSans-30" x="63.623047"/>
      </g>
     </g>
    </g>
    <g id="xtick_8">
     <g id="line2d_8">
      <g>
       <use xlink:href="#m8edf6d975f" x="358.355554" y="185" style="stroke: #000000; stroke-width: 0.8"/>
      </g>
     </g>
     <g id="text_8">
      <!-- 70 -->
      <g transform="translate(351.993054 199.598437)scale(0.1 -0.1)">
       <defs>
        <path id="DejaVuSans-37" d="M 525 4666 
L 3525 4666 
L 3525 4397 
L 1831 0 
L 1172 0 
L 2766 4134 
L 525 4134 
L 525 4666 
z
" transform="scale(0.015625)"/>
       </defs>
       <use xlink:href="#DejaVuSans-37"/>
       <use xlink:href="#DejaVuSans-30" x="63.623047"/>
      </g>
     </g>
    </g>
   </g>
   <g id="matplotlib.axis_2">
    <g id="ytick_1">
     <g id="line2d_9">
      <defs>
       <path id="m278f039b97" d="M 0 0 
L -3.5 0 
" style="stroke: #000000; stroke-width: 0.8"/>
      </defs>
      <g>
       <use xlink:href="#m278f039b97" x="69.37" y="156.105307" style="stroke: #000000; stroke-width: 0.8"/>
      </g>
     </g>
     <g id="text_9">
      <!-- 2 -->
      <g transform="translate(56.0075 159.904526)scale(0.1 -0.1)">
       <use xlink:href="#DejaVuSans-32"/>
      </g>
     </g>
    </g>
    <g id="ytick_2">
     <g id="line2d_10">
      <g>
       <use xlink:href="#m278f039b97" x="69.37" y="126.223586" style="stroke: #000000; stroke-width: 0.8"/>
      </g>
     </g>
     <g id="text_10">
      <!-- 4 -->
      <g transform="translate(56.0075 130.022805)scale(0.1 -0.1)">
       <use xlink:href="#DejaVuSans-34"/>
      </g>
     </g>
    </g>
    <g id="ytick_3">
     <g id="line2d_11">
      <g>
       <use xlink:href="#m278f039b97" x="69.37" y="96.341864" style="stroke: #000000; stroke-width: 0.8"/>
      </g>
     </g>
     <g id="text_11">
      <!-- 6 -->
      <g transform="translate(56.0075 100.141083)scale(0.1 -0.1)">
       <use xlink:href="#DejaVuSans-36"/>
      </g>
     </g>
    </g>
    <g id="ytick_4">
     <g id="line2d_12">
      <g>
       <use xlink:href="#m278f039b97" x="69.37" y="66.460143" style="stroke: #000000; stroke-width: 0.8"/>
      </g>
     </g>
     <g id="text_12">
      <!-- 8 -->
      <g transform="translate(56.0075 70.259362)scale(0.1 -0.1)">
       <defs>
        <path id="DejaVuSans-38" d="M 2034 2216 
Q 1584 2216 1326 1975 
Q 1069 1734 1069 1313 
Q 1069 891 1326 650 
Q 1584 409 2034 409 
Q 2484 409 2743 651 
Q 3003 894 3003 1313 
Q 3003 1734 2745 1975 
Q 2488 2216 2034 2216 
z
M 1403 2484 
Q 997 2584 770 2862 
Q 544 3141 544 3541 
Q 544 4100 942 4425 
Q 1341 4750 2034 4750 
Q 2731 4750 3128 4425 
Q 3525 4100 3525 3541 
Q 3525 3141 3298 2862 
Q 3072 2584 2669 2484 
Q 3125 2378 3379 2068 
Q 3634 1759 3634 1313 
Q 3634 634 3220 271 
Q 2806 -91 2034 -91 
Q 1263 -91 848 271 
Q 434 634 434 1313 
Q 434 1759 690 2068 
Q 947 2378 1403 2484 
z
M 1172 3481 
Q 1172 3119 1398 2916 
Q 1625 2713 2034 2713 
Q 2441 2713 2670 2916 
Q 2900 3119 2900 3481 
Q 2900 3844 2670 4047 
Q 2441 4250 2034 4250 
Q 1625 4250 1398 4047 
Q 1172 3844 1172 3481 
z
" transform="scale(0.015625)"/>
       </defs>
       <use xlink:href="#DejaVuSans-38"/>
      </g>
     </g>
    </g>
   </g>
   <g id="line2d_13">
    <path d="M 82.609306 48.270909 
L 82.874416 48.270909 
L 83.139527 90.668633 
L 83.669353 122.377263 
L 84.199574 137.503804 
L 84.729795 145.175238 
L 84.994905 146.794618 
L 85.789842 149.055931 
L 86.320063 152.805264 
L 87.38011 161.566425 
L 87.910331 163.855017 
L 88.175441 164.257839 
L 88.440551 164.19919 
L 88.705662 163.78082 
L 89.765709 161.306535 
L 90.29593 160.689957 
L 90.825756 160.467218 
L 91.090867 160.496759 
L 91.621087 160.897624 
L 92.151308 161.2688 
L 92.416024 161.141151 
L 92.681135 160.745611 
L 93.211355 159.389407 
L 93.741576 157.934433 
L 94.006686 157.542803 
L 94.271403 157.60428 
L 94.536513 158.222364 
L 95.066734 161.030305 
L 96.391891 169.830176 
L 97.717049 175.85452 
L 98.24727 177.655298 
L 98.51238 178.195842 
L 98.77749 178.470083 
L 99.042601 178.489091 
L 99.307711 178.274973 
L 99.837538 177.268503 
L 100.632869 175.496814 
L 101.958026 173.646184 
L 103.018074 170.81396 
L 103.548294 169.980248 
L 104.078515 169.535382 
L 104.608736 169.445724 
L 105.668783 169.620481 
L 106.199004 170.020016 
L 106.72883 170.562432 
L 106.993941 170.663075 
L 107.259051 170.579783 
L 109.114429 169.159744 
L 109.64465 169.044651 
L 110.174477 169.241657 
L 110.704697 169.427523 
L 110.969808 169.328695 
L 111.500028 168.701944 
L 112.029855 168.190907 
L 112.294965 168.19499 
L 113.090296 168.488645 
L 114.150344 167.967385 
L 115.210785 168.405209 
L 115.475501 168.584655 
L 115.740612 168.961615 
L 116.270832 170.364527 
L 116.801053 171.82506 
L 117.065769 172.180789 
L 117.33088 172.210614 
L 117.8611 171.703013 
L 118.391321 171.235533 
L 118.921148 171.119902 
L 119.981589 171.199199 
L 120.51181 170.932393 
L 121.306747 170.123782 
L 121.836967 169.569722 
L 122.102078 169.473724 
L 122.366794 169.569888 
L 122.897015 170.218513 
L 123.427235 170.787573 
L 123.692346 170.793687 
L 123.957456 170.582667 
L 124.487283 169.689618 
L 125.282614 168.147593 
L 125.547724 167.899056 
L 125.81244 167.899514 
L 126.077551 168.150348 
L 127.403102 170.221912 
L 128.72826 171.198349 
L 128.99337 171.180329 
L 129.258481 171.000755 
L 129.788307 170.26612 
L 130.583638 169.049997 
L 130.848749 168.883487 
L 131.113465 168.927857 
L 131.643686 169.504624 
L 132.173906 170.019723 
L 132.439017 170.054429 
L 133.233954 169.85659 
L 133.499064 169.96429 
L 134.029285 170.524821 
L 134.824222 171.381785 
L 135.354442 171.53267 
L 135.884663 171.624469 
L 136.41449 172.002038 
L 136.94471 172.484076 
L 137.474931 172.637033 
L 138.005152 172.38309 
L 139.59542 171.293779 
L 140.390357 170.874384 
L 141.450798 169.790303 
L 141.715514 169.773985 
L 141.980625 170.022853 
L 142.510845 171.29596 
L 143.306176 173.559419 
L 143.570893 173.903274 
L 143.836003 173.982478 
L 144.366224 173.672919 
L 145.426271 172.884548 
L 146.486712 172.439158 
L 148.07698 172.198968 
L 149.137028 172.190594 
L 149.932359 172.217361 
L 150.992406 172.150417 
L 152.582674 172.519936 
L 154.172942 172.668786 
L 156.02832 172.382052 
L 156.823651 172.086242 
L 158.148809 171.451999 
L 158.94414 171.512158 
L 159.739077 171.563676 
L 161.594455 171.289767 
L 162.389786 171.109533 
L 163.184723 171.260574 
L 164.774991 171.624316 
L 166.100543 172.525808 
L 166.630369 172.531581 
L 167.690811 172.282486 
L 168.485748 172.38233 
L 171.136457 172.872377 
L 172.196504 172.913013 
L 176.172371 171.977584 
L 177.232419 171.743315 
L 178.55797 171.65679 
L 179.883128 171.664915 
L 183.328774 171.593293 
L 184.388822 171.533764 
L 185.97909 171.384487 
L 188.364689 171.497288 
L 189.954957 171.902566 
L 192.075445 171.662039 
L 193.400603 171.781406 
L 194.725761 171.551437 
L 195.521092 171.844752 
L 196.581139 172.562269 
L 197.11136 172.835604 
L 197.64158 172.82907 
L 199.496959 172.418672 
L 201.352337 172.031819 
L 202.412384 171.854617 
L 203.472432 171.936842 
L 204.267763 172.177911 
L 205.32781 172.592229 
L 205.858031 172.546793 
L 208.50874 171.936576 
L 209.833898 171.784563 
L 210.893945 171.917649 
L 212.484213 172.122051 
L 215.665143 171.895293 
L 218.845679 171.5712 
L 220.701057 172.12782 
L 222.291325 172.121885 
L 224.411814 172.041322 
L 226.531909 172.154856 
L 228.652397 172.207984 
L 230.242665 172.203647 
L 231.832933 172.094064 
L 234.748753 172.266995 
L 235.8088 172.688201 
L 236.869241 172.798009 
L 237.929289 172.675941 
L 239.784667 172.33308 
L 240.579604 172.457444 
L 241.905156 172.841966 
L 243.760534 172.777444 
L 245.085692 172.943039 
L 250.121606 172.77515 
L 253.567252 172.48678 
L 256.482678 172.329711 
L 258.338056 172.230386 
L 266.02468 172.187113 
L 267.349838 172.134839 
L 268.674995 172.17191 
L 270.000547 172.233846 
L 273.711304 172.08587 
L 274.771351 172.265642 
L 276.096509 172.162988 
L 278.747218 171.956216 
L 279.807265 172.197237 
L 280.867707 172.388285 
L 282.987801 172.233288 
L 286.168731 172.197532 
L 288.288826 172.314317 
L 299.155986 171.939399 
L 347.395428 171.502097 
L 347.395428 171.502097 
" clip-path="url(#pf1c2c80d1a)" style="fill: none; stroke: #ffa500; stroke-width: 1.5; stroke-linecap: square"/>
   </g>
   <g id="patch_3">
    <path d="M 69.37 185 
L 69.37 41.76 
" style="fill: none; stroke: #000000; stroke-width: 0.8; stroke-linejoin: miter; stroke-linecap: square"/>
   </g>
   <g id="patch_4">
    <path d="M 360.634734 185 
L 360.634734 41.76 
" style="fill: none; stroke: #000000; stroke-width: 0.8; stroke-linejoin: miter; stroke-linecap: square"/>
   </g>
   <g id="patch_5">
    <path d="M 69.37 185 
L 360.634734 185 
" style="fill: none; stroke: #000000; stroke-width: 0.8; stroke-linejoin: miter; stroke-linecap: square"/>
   </g>
   <g id="patch_6">
    <path d="M 69.37 41.76 
L 360.634734 41.76 
" style="fill: none; stroke: #000000; stroke-width: 0.8; stroke-linejoin: miter; stroke-linecap: square"/>
   </g>
   <g id="legend_1">
    <g id="patch_7">
     <path d="M 309.797234 64.438125 
L 353.634734 64.438125 
Q 355.634734 64.438125 355.634734 62.438125 
L 355.634734 48.76 
Q 355.634734 46.76 353.634734 46.76 
L 309.797234 46.76 
Q 307.797234 46.76 307.797234 48.76 
L 307.797234 62.438125 
Q 307.797234 64.438125 309.797234 64.438125 
z
" style="fill: #ffffff; opacity: 0.8; stroke: #cccccc; stroke-linejoin: miter"/>
    </g>
    <g id="line2d_14">
     <path d="M 311.797234 54.858438 
L 321.797234 54.858438 
L 331.797234 54.858438 
" style="fill: none; stroke: #ffa500; stroke-width: 1.5; stroke-linecap: square"/>
    </g>
    <g id="text_13">
     <!-- xx -->
     <g transform="translate(339.797234 58.358438)scale(0.1 -0.1)">
      <defs>
       <path id="DejaVuSans-78" d="M 3513 3500 
L 2247 1797 
L 3578 0 
L 2900 0 
L 1881 1375 
L 863 0 
L 184 0 
L 1544 1831 
L 300 3500 
L 978 3500 
L 1906 2253 
L 2834 3500 
L 3513 3500 
z
" transform="scale(0.015625)"/>
      </defs>
      <use xlink:href="#DejaVuSans-78"/>
      <use xlink:href="#DejaVuSans-78" x="59.179688"/>
     </g>
    </g>
   </g>
  </g>
  <g id="axes_2">
   <g id="patch_8">
    <path d="M 413.53 185 
L 704.794734 185 
L 704.794734 41.76 
L 413.53 41.76 
z
" style="fill: #ffffff"/>
   </g>
   <g id="matplotlib.axis_3">
    <g id="xtick_9">
     <g id="line2d_15">
      <g>
       <use xlink:href="#m8edf6d975f" x="426.769306" y="185" style="stroke: #000000; stroke-width: 0.8"/>
      </g>
     </g>
     <g id="text_14">
      <!-- 0 -->
      <g transform="translate(423.588056 199.598437)scale(0.1 -0.1)">
       <use xlink:href="#DejaVuSans-30"/>
      </g>
     </g>
    </g>
    <g id="xtick_10">
     <g id="line2d_16">
      <g>
       <use xlink:href="#m8edf6d975f" x="466.161627" y="185" style="stroke: #000000; stroke-width: 0.8"/>
      </g>
     </g>
     <g id="text_15">
      <!-- 10 -->
      <g transform="translate(459.799127 199.598437)scale(0.1 -0.1)">
       <use xlink:href="#DejaVuSans-31"/>
       <use xlink:href="#DejaVuSans-30" x="63.623047"/>
      </g>
     </g>
    </g>
    <g id="xtick_11">
     <g id="line2d_17">
      <g>
       <use xlink:href="#m8edf6d975f" x="505.553948" y="185" style="stroke: #000000; stroke-width: 0.8"/>
      </g>
     </g>
     <g id="text_16">
      <!-- 20 -->
      <g transform="translate(499.191448 199.598437)scale(0.1 -0.1)">
       <use xlink:href="#DejaVuSans-32"/>
       <use xlink:href="#DejaVuSans-30" x="63.623047"/>
      </g>
     </g>
    </g>
    <g id="xtick_12">
     <g id="line2d_18">
      <g>
       <use xlink:href="#m8edf6d975f" x="544.946269" y="185" style="stroke: #000000; stroke-width: 0.8"/>
      </g>
     </g>
     <g id="text_17">
      <!-- 30 -->
      <g transform="translate(538.583769 199.598437)scale(0.1 -0.1)">
       <use xlink:href="#DejaVuSans-33"/>
       <use xlink:href="#DejaVuSans-30" x="63.623047"/>
      </g>
     </g>
    </g>
    <g id="xtick_13">
     <g id="line2d_19">
      <g>
       <use xlink:href="#m8edf6d975f" x="584.33859" y="185" style="stroke: #000000; stroke-width: 0.8"/>
      </g>
     </g>
     <g id="text_18">
      <!-- 40 -->
      <g transform="translate(577.97609 199.598437)scale(0.1 -0.1)">
       <use xlink:href="#DejaVuSans-34"/>
       <use xlink:href="#DejaVuSans-30" x="63.623047"/>
      </g>
     </g>
    </g>
    <g id="xtick_14">
     <g id="line2d_20">
      <g>
       <use xlink:href="#m8edf6d975f" x="623.730911" y="185" style="stroke: #000000; stroke-width: 0.8"/>
      </g>
     </g>
     <g id="text_19">
      <!-- 50 -->
      <g transform="translate(617.368411 199.598437)scale(0.1 -0.1)">
       <use xlink:href="#DejaVuSans-35"/>
       <use xlink:href="#DejaVuSans-30" x="63.623047"/>
      </g>
     </g>
    </g>
    <g id="xtick_15">
     <g id="line2d_21">
      <g>
       <use xlink:href="#m8edf6d975f" x="663.123233" y="185" style="stroke: #000000; stroke-width: 0.8"/>
      </g>
     </g>
     <g id="text_20">
      <!-- 60 -->
      <g transform="translate(656.760733 199.598437)scale(0.1 -0.1)">
       <use xlink:href="#DejaVuSans-36"/>
       <use xlink:href="#DejaVuSans-30" x="63.623047"/>
      </g>
     </g>
    </g>
    <g id="xtick_16">
     <g id="line2d_22">
      <g>
       <use xlink:href="#m8edf6d975f" x="702.515554" y="185" style="stroke: #000000; stroke-width: 0.8"/>
      </g>
     </g>
     <g id="text_21">
      <!-- 70 -->
      <g transform="translate(696.153054 199.598437)scale(0.1 -0.1)">
       <use xlink:href="#DejaVuSans-37"/>
       <use xlink:href="#DejaVuSans-30" x="63.623047"/>
      </g>
     </g>
    </g>
   </g>
   <g id="matplotlib.axis_4">
    <g id="ytick_5">
     <g id="line2d_23">
      <g>
       <use xlink:href="#m278f039b97" x="413.53" y="156.105307" style="stroke: #000000; stroke-width: 0.8"/>
      </g>
     </g>
     <g id="text_22">
      <!-- 2 -->
      <g transform="translate(400.1675 159.904526)scale(0.1 -0.1)">
       <use xlink:href="#DejaVuSans-32"/>
      </g>
     </g>
    </g>
    <g id="ytick_6">
     <g id="line2d_24">
      <g>
       <use xlink:href="#m278f039b97" x="413.53" y="126.223586" style="stroke: #000000; stroke-width: 0.8"/>
      </g>
     </g>
     <g id="text_23">
      <!-- 4 -->
      <g transform="translate(400.1675 130.022805)scale(0.1 -0.1)">
       <use xlink:href="#DejaVuSans-34"/>
      </g>
     </g>
    </g>
    <g id="ytick_7">
     <g id="line2d_25">
      <g>
       <use xlink:href="#m278f039b97" x="413.53" y="96.341864" style="stroke: #000000; stroke-width: 0.8"/>
      </g>
     </g>
     <g id="text_24">
      <!-- 6 -->
      <g transform="translate(400.1675 100.141083)scale(0.1 -0.1)">
       <use xlink:href="#DejaVuSans-36"/>
      </g>
     </g>
    </g>
    <g id="ytick_8">
     <g id="line2d_26">
      <g>
       <use xlink:href="#m278f039b97" x="413.53" y="66.460143" style="stroke: #000000; stroke-width: 0.8"/>
      </g>
     </g>
     <g id="text_25">
      <!-- 8 -->
      <g transform="translate(400.1675 70.259362)scale(0.1 -0.1)">
       <use xlink:href="#DejaVuSans-38"/>
      </g>
     </g>
    </g>
   </g>
   <g id="line2d_27">
    <path d="M 426.769306 48.270909 
L 427.034416 48.270909 
L 427.299527 90.668633 
L 427.829353 122.377263 
L 428.359574 137.503804 
L 428.889795 145.175238 
L 429.154905 146.794618 
L 429.949842 149.055931 
L 430.480063 152.805264 
L 431.54011 161.566425 
L 432.070331 163.855017 
L 432.335441 164.257839 
L 432.600551 164.19919 
L 432.865662 163.78082 
L 433.925709 161.306535 
L 434.45593 160.689957 
L 434.985756 160.467218 
L 435.250867 160.496759 
L 435.781087 160.897624 
L 436.311308 161.2688 
L 436.576024 161.141151 
L 436.841135 160.745611 
L 437.371355 159.389407 
L 437.901576 157.934433 
L 438.166686 157.542803 
L 438.431403 157.60428 
L 438.696513 158.222364 
L 439.226734 161.030305 
L 440.551891 169.830176 
L 441.877049 175.85452 
L 442.40727 177.655298 
L 442.67238 178.195842 
L 442.93749 178.470083 
L 443.202601 178.489091 
L 443.467711 178.274973 
L 443.997538 177.268503 
L 444.792869 175.496814 
L 446.118026 173.646184 
L 447.178074 170.81396 
L 447.708294 169.980248 
L 448.238515 169.535382 
L 448.768736 169.445724 
L 449.828783 169.620481 
L 450.359004 170.020016 
L 450.88883 170.562432 
L 451.153941 170.663075 
L 451.419051 170.579783 
L 453.274429 169.159744 
L 453.80465 169.044651 
L 454.334477 169.241657 
L 454.864697 169.427523 
L 455.129808 169.328695 
L 455.660028 168.701944 
L 456.189855 168.190907 
L 456.454965 168.19499 
L 457.250296 168.488645 
L 458.310344 167.967385 
L 459.370785 168.405209 
L 459.635501 168.584655 
L 459.900612 168.961615 
L 460.430832 170.364527 
L 460.961053 171.82506 
L 461.225769 172.180789 
L 461.49088 172.210614 
L 462.0211 171.703013 
L 462.551321 171.235533 
L 463.081148 171.119902 
L 464.141589 171.199199 
L 464.67181 170.932393 
L 465.466747 170.123782 
L 465.996967 169.569722 
L 466.262078 169.473724 
L 466.526794 169.569888 
L 467.057015 170.218513 
L 467.587235 170.787573 
L 467.852346 170.793687 
L 468.117456 170.582667 
L 468.647283 169.689618 
L 469.442614 168.147593 
L 469.707724 167.899056 
L 469.97244 167.899514 
L 470.237551 168.150348 
L 471.563102 170.221912 
L 472.88826 171.198349 
L 473.15337 171.180329 
L 473.418481 171.000755 
L 473.948307 170.26612 
L 474.743638 169.049997 
L 475.008749 168.883487 
L 475.273465 168.927857 
L 475.803686 169.504624 
L 476.333906 170.019723 
L 476.599017 170.054429 
L 477.393954 169.85659 
L 477.659064 169.96429 
L 478.189285 170.524821 
L 478.984222 171.381785 
L 479.514442 171.53267 
L 480.044663 171.624469 
L 480.57449 172.002038 
L 481.10471 172.484076 
L 481.634931 172.637033 
L 482.165152 172.38309 
L 483.75542 171.293779 
L 484.550357 170.874384 
L 485.610798 169.790303 
L 485.875514 169.773985 
L 486.140625 170.022853 
L 486.670845 171.29596 
L 487.466176 173.559419 
L 487.730893 173.903274 
L 487.996003 173.982478 
L 488.526224 173.672919 
L 489.586271 172.884548 
L 490.646712 172.439158 
L 492.23698 172.198968 
L 493.297028 172.190594 
L 494.092359 172.217361 
L 495.152406 172.150417 
L 496.742674 172.519936 
L 498.332942 172.668786 
L 500.18832 172.382052 
L 500.983651 172.086242 
L 502.308809 171.451999 
L 503.10414 171.512158 
L 503.899077 171.563676 
L 505.754455 171.289767 
L 506.549786 171.109533 
L 507.344723 171.260574 
L 508.934991 171.624316 
L 510.260543 172.525808 
L 510.790369 172.531581 
L 511.850811 172.282486 
L 512.645748 172.38233 
L 515.296457 172.872377 
L 516.356504 172.913013 
L 520.332371 171.977584 
L 521.392419 171.743315 
L 522.71797 171.65679 
L 524.043128 171.664915 
L 527.488774 171.593293 
L 528.548822 171.533764 
L 530.13909 171.384487 
L 532.524689 171.497288 
L 534.114957 171.902566 
L 536.235445 171.662039 
L 537.560603 171.781406 
L 538.885761 171.551437 
L 539.681092 171.844752 
L 540.741139 172.562269 
L 541.27136 172.835604 
L 541.80158 172.82907 
L 543.656959 172.418672 
L 545.512337 172.031819 
L 546.572384 171.854617 
L 547.632432 171.936842 
L 548.427763 172.177911 
L 549.48781 172.592229 
L 550.018031 172.546793 
L 552.66874 171.936576 
L 553.993898 171.784563 
L 555.053945 171.917649 
L 556.644213 172.122051 
L 559.825143 171.895293 
L 563.005679 171.5712 
L 564.861057 172.12782 
L 566.451325 172.121885 
L 568.571814 172.041322 
L 570.691909 172.154856 
L 572.812397 172.207984 
L 574.402665 172.203647 
L 575.992933 172.094064 
L 578.908753 172.266995 
L 579.9688 172.688201 
L 581.029241 172.798009 
L 582.089289 172.675941 
L 583.944667 172.33308 
L 584.739604 172.457444 
L 586.065156 172.841966 
L 587.920534 172.777444 
L 589.245692 172.943039 
L 594.281606 172.77515 
L 597.727252 172.48678 
L 600.642678 172.329711 
L 602.498056 172.230386 
L 610.18468 172.187113 
L 611.509838 172.134839 
L 612.834995 172.17191 
L 614.160547 172.233846 
L 617.871304 172.08587 
L 618.931351 172.265642 
L 620.256509 172.162988 
L 622.907218 171.956216 
L 623.967265 172.197237 
L 625.027707 172.388285 
L 627.147801 172.233288 
L 630.328731 172.197532 
L 632.448826 172.314317 
L 643.315986 171.939399 
L 691.555428 171.502097 
L 691.555428 171.502097 
" clip-path="url(#p722d9ae42c)" style="fill: none; stroke: #0000ff; stroke-width: 1.5; stroke-linecap: square"/>
   </g>
   <g id="patch_9">
    <path d="M 413.53 185 
L 413.53 41.76 
" style="fill: none; stroke: #000000; stroke-width: 0.8; stroke-linejoin: miter; stroke-linecap: square"/>
   </g>
   <g id="patch_10">
    <path d="M 704.794734 185 
L 704.794734 41.76 
" style="fill: none; stroke: #000000; stroke-width: 0.8; stroke-linejoin: miter; stroke-linecap: square"/>
   </g>
   <g id="patch_11">
    <path d="M 413.53 185 
L 704.794734 185 
" style="fill: none; stroke: #000000; stroke-width: 0.8; stroke-linejoin: miter; stroke-linecap: square"/>
   </g>
   <g id="patch_12">
    <path d="M 413.53 41.76 
L 704.794734 41.76 
" style="fill: none; stroke: #000000; stroke-width: 0.8; stroke-linejoin: miter; stroke-linecap: square"/>
   </g>
   <g id="legend_2">
    <g id="patch_13">
     <path d="M 653.957234 64.438125 
L 697.794734 64.438125 
Q 699.794734 64.438125 699.794734 62.438125 
L 699.794734 48.76 
Q 699.794734 46.76 697.794734 46.76 
L 653.957234 46.76 
Q 651.957234 46.76 651.957234 48.76 
L 651.957234 62.438125 
Q 651.957234 64.438125 653.957234 64.438125 
z
" style="fill: #ffffff; opacity: 0.8; stroke: #cccccc; stroke-linejoin: miter"/>
    </g>
    <g id="line2d_28">
     <path d="M 655.957234 54.858438 
L 665.957234 54.858438 
L 675.957234 54.858438 
" style="fill: none; stroke: #0000ff; stroke-width: 1.5; stroke-linecap: square"/>
    </g>
    <g id="text_26">
     <!-- yy -->
     <g transform="translate(683.957234 58.358438)scale(0.1 -0.1)">
      <defs>
       <path id="DejaVuSans-79" d="M 2059 -325 
Q 1816 -950 1584 -1140 
Q 1353 -1331 966 -1331 
L 506 -1331 
L 506 -850 
L 844 -850 
Q 1081 -850 1212 -737 
Q 1344 -625 1503 -206 
L 1606 56 
L 191 3500 
L 800 3500 
L 1894 763 
L 2988 3500 
L 3597 3500 
L 2059 -325 
z
" transform="scale(0.015625)"/>
      </defs>
      <use xlink:href="#DejaVuSans-79"/>
      <use xlink:href="#DejaVuSans-79" x="59.179688"/>
     </g>
    </g>
   </g>
  </g>
  <g id="axes_3">
   <g id="patch_14">
    <path d="M 69.37 356.12 
L 360.634734 356.12 
L 360.634734 212.88 
L 69.37 212.88 
z
" style="fill: #ffffff"/>
   </g>
   <g id="matplotlib.axis_5">
    <g id="xtick_17">
     <g id="line2d_29">
      <g>
       <use xlink:href="#m8edf6d975f" x="82.609306" y="356.12" style="stroke: #000000; stroke-width: 0.8"/>
      </g>
     </g>
     <g id="text_27">
      <!-- 0 -->
      <g transform="translate(79.428056 370.718437)scale(0.1 -0.1)">
       <use xlink:href="#DejaVuSans-30"/>
      </g>
     </g>
    </g>
    <g id="xtick_18">
     <g id="line2d_30">
      <g>
       <use xlink:href="#m8edf6d975f" x="122.001627" y="356.12" style="stroke: #000000; stroke-width: 0.8"/>
      </g>
     </g>
     <g id="text_28">
      <!-- 10 -->
      <g transform="translate(115.639127 370.718437)scale(0.1 -0.1)">
       <use xlink:href="#DejaVuSans-31"/>
       <use xlink:href="#DejaVuSans-30" x="63.623047"/>
      </g>
     </g>
    </g>
    <g id="xtick_19">
     <g id="line2d_31">
      <g>
       <use xlink:href="#m8edf6d975f" x="161.393948" y="356.12" style="stroke: #000000; stroke-width: 0.8"/>
      </g>
     </g>
     <g id="text_29">
      <!-- 20 -->
      <g transform="translate(155.031448 370.718437)scale(0.1 -0.1)">
       <use xlink:href="#DejaVuSans-32"/>
       <use xlink:href="#DejaVuSans-30" x="63.623047"/>
      </g>
     </g>
    </g>
    <g id="xtick_20">
     <g id="line2d_32">
      <g>
       <use xlink:href="#m8edf6d975f" x="200.786269" y="356.12" style="stroke: #000000; stroke-width: 0.8"/>
      </g>
     </g>
     <g id="text_30">
      <!-- 30 -->
      <g transform="translate(194.423769 370.718437)scale(0.1 -0.1)">
       <use xlink:href="#DejaVuSans-33"/>
       <use xlink:href="#DejaVuSans-30" x="63.623047"/>
      </g>
     </g>
    </g>
    <g id="xtick_21">
     <g id="line2d_33">
      <g>
       <use xlink:href="#m8edf6d975f" x="240.17859" y="356.12" style="stroke: #000000; stroke-width: 0.8"/>
      </g>
     </g>
     <g id="text_31">
      <!-- 40 -->
      <g transform="translate(233.81609 370.718437)scale(0.1 -0.1)">
       <use xlink:href="#DejaVuSans-34"/>
       <use xlink:href="#DejaVuSans-30" x="63.623047"/>
      </g>
     </g>
    </g>
    <g id="xtick_22">
     <g id="line2d_34">
      <g>
       <use xlink:href="#m8edf6d975f" x="279.570911" y="356.12" style="stroke: #000000; stroke-width: 0.8"/>
      </g>
     </g>
     <g id="text_32">
      <!-- 50 -->
      <g transform="translate(273.208411 370.718437)scale(0.1 -0.1)">
       <use xlink:href="#DejaVuSans-35"/>
       <use xlink:href="#DejaVuSans-30" x="63.623047"/>
      </g>
     </g>
    </g>
    <g id="xtick_23">
     <g id="line2d_35">
      <g>
       <use xlink:href="#m8edf6d975f" x="318.963233" y="356.12" style="stroke: #000000; stroke-width: 0.8"/>
      </g>
     </g>
     <g id="text_33">
      <!-- 60 -->
      <g transform="translate(312.600733 370.718437)scale(0.1 -0.1)">
       <use xlink:href="#DejaVuSans-36"/>
       <use xlink:href="#DejaVuSans-30" x="63.623047"/>
      </g>
     </g>
    </g>
    <g id="xtick_24">
     <g id="line2d_36">
      <g>
       <use xlink:href="#m8edf6d975f" x="358.355554" y="356.12" style="stroke: #000000; stroke-width: 0.8"/>
      </g>
     </g>
     <g id="text_34">
      <!-- 70 -->
      <g transform="translate(351.993054 370.718437)scale(0.1 -0.1)">
       <use xlink:href="#DejaVuSans-37"/>
       <use xlink:href="#DejaVuSans-30" x="63.623047"/>
      </g>
     </g>
    </g>
   </g>
   <g id="matplotlib.axis_6">
    <g id="ytick_9">
     <g id="line2d_37">
      <g>
       <use xlink:href="#m278f039b97" x="69.37" y="327.225307" style="stroke: #000000; stroke-width: 0.8"/>
      </g>
     </g>
     <g id="text_35">
      <!-- 2 -->
      <g transform="translate(56.0075 331.024526)scale(0.1 -0.1)">
       <use xlink:href="#DejaVuSans-32"/>
      </g>
     </g>
    </g>
    <g id="ytick_10">
     <g id="line2d_38">
      <g>
       <use xlink:href="#m278f039b97" x="69.37" y="297.343586" style="stroke: #000000; stroke-width: 0.8"/>
      </g>
     </g>
     <g id="text_36">
      <!-- 4 -->
      <g transform="translate(56.0075 301.142805)scale(0.1 -0.1)">
       <use xlink:href="#DejaVuSans-34"/>
      </g>
     </g>
    </g>
    <g id="ytick_11">
     <g id="line2d_39">
      <g>
       <use xlink:href="#m278f039b97" x="69.37" y="267.461864" style="stroke: #000000; stroke-width: 0.8"/>
      </g>
     </g>
     <g id="text_37">
      <!-- 6 -->
      <g transform="translate(56.0075 271.261083)scale(0.1 -0.1)">
       <use xlink:href="#DejaVuSans-36"/>
      </g>
     </g>
    </g>
    <g id="ytick_12">
     <g id="line2d_40">
      <g>
       <use xlink:href="#m278f039b97" x="69.37" y="237.580143" style="stroke: #000000; stroke-width: 0.8"/>
      </g>
     </g>
     <g id="text_38">
      <!-- 8 -->
      <g transform="translate(56.0075 241.379362)scale(0.1 -0.1)">
       <use xlink:href="#DejaVuSans-38"/>
      </g>
     </g>
    </g>
   </g>
   <g id="line2d_41">
    <path d="M 82.609306 219.390909 
L 82.874416 219.390909 
L 83.139527 261.788633 
L 83.669353 293.497263 
L 84.199574 308.623804 
L 84.729795 316.295238 
L 84.994905 317.914618 
L 85.789842 320.175931 
L 86.320063 323.925264 
L 87.38011 332.686425 
L 87.910331 334.975017 
L 88.175441 335.377839 
L 88.440551 335.31919 
L 88.705662 334.90082 
L 89.765709 332.426535 
L 90.29593 331.809957 
L 90.825756 331.587218 
L 91.090867 331.616759 
L 91.621087 332.017624 
L 92.151308 332.3888 
L 92.416024 332.261151 
L 92.681135 331.865611 
L 93.211355 330.509407 
L 93.741576 329.054433 
L 94.006686 328.662803 
L 94.271403 328.72428 
L 94.536513 329.342364 
L 95.066734 332.150305 
L 96.391891 340.950176 
L 97.717049 346.97452 
L 98.24727 348.775298 
L 98.51238 349.315842 
L 98.77749 349.590083 
L 99.042601 349.609091 
L 99.307711 349.394973 
L 99.837538 348.388503 
L 100.632869 346.616814 
L 101.958026 344.766184 
L 103.018074 341.93396 
L 103.548294 341.100248 
L 104.078515 340.655382 
L 104.608736 340.565724 
L 105.668783 340.740481 
L 106.199004 341.140016 
L 106.72883 341.682432 
L 106.993941 341.783075 
L 107.259051 341.699783 
L 109.114429 340.279744 
L 109.64465 340.164651 
L 110.174477 340.361657 
L 110.704697 340.547523 
L 110.969808 340.448695 
L 111.500028 339.821944 
L 112.029855 339.310907 
L 112.294965 339.31499 
L 113.090296 339.608645 
L 114.150344 339.087385 
L 115.210785 339.525209 
L 115.475501 339.704655 
L 115.740612 340.081615 
L 116.270832 341.484527 
L 116.801053 342.94506 
L 117.065769 343.300789 
L 117.33088 343.330614 
L 117.8611 342.823013 
L 118.391321 342.355533 
L 118.921148 342.239902 
L 119.981589 342.319199 
L 120.51181 342.052393 
L 121.306747 341.243782 
L 121.836967 340.689722 
L 122.102078 340.593724 
L 122.366794 340.689888 
L 122.897015 341.338513 
L 123.427235 341.907573 
L 123.692346 341.913687 
L 123.957456 341.702667 
L 124.487283 340.809618 
L 125.282614 339.267593 
L 125.547724 339.019056 
L 125.81244 339.019514 
L 126.077551 339.270348 
L 127.403102 341.341912 
L 128.72826 342.318349 
L 128.99337 342.300329 
L 129.258481 342.120755 
L 129.788307 341.38612 
L 130.583638 340.169997 
L 130.848749 340.003487 
L 131.113465 340.047857 
L 131.643686 340.624624 
L 132.173906 341.139723 
L 132.439017 341.174429 
L 133.233954 340.97659 
L 133.499064 341.08429 
L 134.029285 341.644821 
L 134.824222 342.501785 
L 135.354442 342.65267 
L 135.884663 342.744469 
L 136.41449 343.122038 
L 136.94471 343.604076 
L 137.474931 343.757033 
L 138.005152 343.50309 
L 139.59542 342.413779 
L 140.390357 341.994384 
L 141.450798 340.910303 
L 141.715514 340.893985 
L 141.980625 341.142853 
L 142.510845 342.41596 
L 143.306176 344.679419 
L 143.570893 345.023274 
L 143.836003 345.102478 
L 144.366224 344.792919 
L 145.426271 344.004548 
L 146.486712 343.559158 
L 148.07698 343.318968 
L 149.137028 343.310594 
L 149.932359 343.337361 
L 150.992406 343.270417 
L 152.582674 343.639936 
L 154.172942 343.788786 
L 156.02832 343.502052 
L 156.823651 343.206242 
L 158.148809 342.571999 
L 158.94414 342.632158 
L 159.739077 342.683676 
L 161.594455 342.409767 
L 162.389786 342.229533 
L 163.184723 342.380574 
L 164.774991 342.744316 
L 166.100543 343.645808 
L 166.630369 343.651581 
L 167.690811 343.402486 
L 168.485748 343.50233 
L 171.136457 343.992377 
L 172.196504 344.033013 
L 176.172371 343.097584 
L 177.232419 342.863315 
L 178.55797 342.77679 
L 179.883128 342.784915 
L 183.328774 342.713293 
L 184.388822 342.653764 
L 185.97909 342.504487 
L 188.364689 342.617288 
L 189.954957 343.022566 
L 192.075445 342.782039 
L 193.400603 342.901406 
L 194.725761 342.671437 
L 195.521092 342.964752 
L 196.581139 343.682269 
L 197.11136 343.955604 
L 197.64158 343.94907 
L 199.496959 343.538672 
L 201.352337 343.151819 
L 202.412384 342.974617 
L 203.472432 343.056842 
L 204.267763 343.297911 
L 205.32781 343.712229 
L 205.858031 343.666793 
L 208.50874 343.056576 
L 209.833898 342.904563 
L 210.893945 343.037649 
L 212.484213 343.242051 
L 215.665143 343.015293 
L 218.845679 342.6912 
L 220.701057 343.24782 
L 222.291325 343.241885 
L 224.411814 343.161322 
L 226.531909 343.274856 
L 228.652397 343.327984 
L 230.242665 343.323647 
L 231.832933 343.214064 
L 234.748753 343.386995 
L 235.8088 343.808201 
L 236.869241 343.918009 
L 237.929289 343.795941 
L 239.784667 343.45308 
L 240.579604 343.577444 
L 241.905156 343.961966 
L 243.760534 343.897444 
L 245.085692 344.063039 
L 250.121606 343.89515 
L 253.567252 343.60678 
L 256.482678 343.449711 
L 258.338056 343.350386 
L 266.02468 343.307113 
L 267.349838 343.254839 
L 268.674995 343.29191 
L 270.000547 343.353846 
L 273.711304 343.20587 
L 274.771351 343.385642 
L 276.096509 343.282988 
L 278.747218 343.076216 
L 279.807265 343.317237 
L 280.867707 343.508285 
L 282.987801 343.353288 
L 286.168731 343.317532 
L 288.288826 343.434317 
L 299.155986 343.059399 
L 347.395428 342.622097 
L 347.395428 342.622097 
" clip-path="url(#pc617a8dc33)" style="fill: none; stroke: #ff0000; stroke-width: 1.5; stroke-linecap: square"/>
   </g>
   <g id="patch_15">
    <path d="M 69.37 356.12 
L 69.37 212.88 
" style="fill: none; stroke: #000000; stroke-width: 0.8; stroke-linejoin: miter; stroke-linecap: square"/>
   </g>
   <g id="patch_16">
    <path d="M 360.634734 356.12 
L 360.634734 212.88 
" style="fill: none; stroke: #000000; stroke-width: 0.8; stroke-linejoin: miter; stroke-linecap: square"/>
   </g>
   <g id="patch_17">
    <path d="M 69.37 356.12 
L 360.634734 356.12 
" style="fill: none; stroke: #000000; stroke-width: 0.8; stroke-linejoin: miter; stroke-linecap: square"/>
   </g>
   <g id="patch_18">
    <path d="M 69.37 212.88 
L 360.634734 212.88 
" style="fill: none; stroke: #000000; stroke-width: 0.8; stroke-linejoin: miter; stroke-linecap: square"/>
   </g>
   <g id="legend_3">
    <g id="patch_19">
     <path d="M 311.137859 235.558125 
L 353.634734 235.558125 
Q 355.634734 235.558125 355.634734 233.558125 
L 355.634734 219.88 
Q 355.634734 217.88 353.634734 217.88 
L 311.137859 217.88 
Q 309.137859 217.88 309.137859 219.88 
L 309.137859 233.558125 
Q 309.137859 235.558125 311.137859 235.558125 
z
" style="fill: #ffffff; opacity: 0.8; stroke: #cccccc; stroke-linejoin: miter"/>
    </g>
    <g id="line2d_42">
     <path d="M 313.137859 225.978437 
L 323.137859 225.978437 
L 333.137859 225.978437 
" style="fill: none; stroke: #ff0000; stroke-width: 1.5; stroke-linecap: square"/>
    </g>
    <g id="text_39">
     <!-- zz -->
     <g transform="translate(341.137859 229.478437)scale(0.1 -0.1)">
      <defs>
       <path id="DejaVuSans-7a" d="M 353 3500 
L 3084 3500 
L 3084 2975 
L 922 459 
L 3084 459 
L 3084 0 
L 275 0 
L 275 525 
L 2438 3041 
L 353 3041 
L 353 3500 
z
" transform="scale(0.015625)"/>
      </defs>
      <use xlink:href="#DejaVuSans-7a"/>
      <use xlink:href="#DejaVuSans-7a" x="52.490234"/>
     </g>
    </g>
   </g>
  </g>
  <g id="axes_4">
   <g id="patch_20">
    <path d="M 413.53 356.12 
L 704.794734 356.12 
L 704.794734 212.88 
L 413.53 212.88 
z
" style="fill: #ffffff"/>
   </g>
   <g id="matplotlib.axis_7">
    <g id="xtick_25">
     <g id="line2d_43">
      <g>
       <use xlink:href="#m8edf6d975f" x="426.769306" y="356.12" style="stroke: #000000; stroke-width: 0.8"/>
      </g>
     </g>
     <g id="text_40">
      <!-- 0 -->
      <g transform="translate(423.588056 370.718437)scale(0.1 -0.1)">
       <use xlink:href="#DejaVuSans-30"/>
      </g>
     </g>
    </g>
    <g id="xtick_26">
     <g id="line2d_44">
      <g>
       <use xlink:href="#m8edf6d975f" x="466.161627" y="356.12" style="stroke: #000000; stroke-width: 0.8"/>
      </g>
     </g>
     <g id="text_41">
      <!-- 10 -->
      <g transform="translate(459.799127 370.718437)scale(0.1 -0.1)">
       <use xlink:href="#DejaVuSans-31"/>
       <use xlink:href="#DejaVuSans-30" x="63.623047"/>
      </g>
     </g>
    </g>
    <g id="xtick_27">
     <g id="line2d_45">
      <g>
       <use xlink:href="#m8edf6d975f" x="505.553948" y="356.12" style="stroke: #000000; stroke-width: 0.8"/>
      </g>
     </g>
     <g id="text_42">
      <!-- 20 -->
      <g transform="translate(499.191448 370.718437)scale(0.1 -0.1)">
       <use xlink:href="#DejaVuSans-32"/>
       <use xlink:href="#DejaVuSans-30" x="63.623047"/>
      </g>
     </g>
    </g>
    <g id="xtick_28">
     <g id="line2d_46">
      <g>
       <use xlink:href="#m8edf6d975f" x="544.946269" y="356.12" style="stroke: #000000; stroke-width: 0.8"/>
      </g>
     </g>
     <g id="text_43">
      <!-- 30 -->
      <g transform="translate(538.583769 370.718437)scale(0.1 -0.1)">
       <use xlink:href="#DejaVuSans-33"/>
       <use xlink:href="#DejaVuSans-30" x="63.623047"/>
      </g>
     </g>
    </g>
    <g id="xtick_29">
     <g id="line2d_47">
      <g>
       <use xlink:href="#m8edf6d975f" x="584.33859" y="356.12" style="stroke: #000000; stroke-width: 0.8"/>
      </g>
     </g>
     <g id="text_44">
      <!-- 40 -->
      <g transform="translate(577.97609 370.718437)scale(0.1 -0.1)">
       <use xlink:href="#DejaVuSans-34"/>
       <use xlink:href="#DejaVuSans-30" x="63.623047"/>
      </g>
     </g>
    </g>
    <g id="xtick_30">
     <g id="line2d_48">
      <g>
       <use xlink:href="#m8edf6d975f" x="623.730911" y="356.12" style="stroke: #000000; stroke-width: 0.8"/>
      </g>
     </g>
     <g id="text_45">
      <!-- 50 -->
      <g transform="translate(617.368411 370.718437)scale(0.1 -0.1)">
       <use xlink:href="#DejaVuSans-35"/>
       <use xlink:href="#DejaVuSans-30" x="63.623047"/>
      </g>
     </g>
    </g>
    <g id="xtick_31">
     <g id="line2d_49">
      <g>
       <use xlink:href="#m8edf6d975f" x="663.123233" y="356.12" style="stroke: #000000; stroke-width: 0.8"/>
      </g>
     </g>
     <g id="text_46">
      <!-- 60 -->
      <g transform="translate(656.760733 370.718437)scale(0.1 -0.1)">
       <use xlink:href="#DejaVuSans-36"/>
       <use xlink:href="#DejaVuSans-30" x="63.623047"/>
      </g>
     </g>
    </g>
    <g id="xtick_32">
     <g id="line2d_50">
      <g>
       <use xlink:href="#m8edf6d975f" x="702.515554" y="356.12" style="stroke: #000000; stroke-width: 0.8"/>
      </g>
     </g>
     <g id="text_47">
      <!-- 70 -->
      <g transform="translate(696.153054 370.718437)scale(0.1 -0.1)">
       <use xlink:href="#DejaVuSans-37"/>
       <use xlink:href="#DejaVuSans-30" x="63.623047"/>
      </g>
     </g>
    </g>
   </g>
   <g id="matplotlib.axis_8">
    <g id="ytick_13">
     <g id="line2d_51">
      <g>
       <use xlink:href="#m278f039b97" x="413.53" y="336.587273" style="stroke: #000000; stroke-width: 0.8"/>
      </g>
     </g>
     <g id="text_48">
      <!-- −0.04 -->
      <g transform="translate(375.884687 340.386491)scale(0.1 -0.1)">
       <defs>
        <path id="DejaVuSans-2212" d="M 678 2272 
L 4684 2272 
L 4684 1741 
L 678 1741 
L 678 2272 
z
" transform="scale(0.015625)"/>
        <path id="DejaVuSans-2e" d="M 684 794 
L 1344 794 
L 1344 0 
L 684 0 
L 684 794 
z
" transform="scale(0.015625)"/>
       </defs>
       <use xlink:href="#DejaVuSans-2212"/>
       <use xlink:href="#DejaVuSans-30" x="83.789062"/>
       <use xlink:href="#DejaVuSans-2e" x="147.412109"/>
       <use xlink:href="#DejaVuSans-30" x="179.199219"/>
       <use xlink:href="#DejaVuSans-34" x="242.822266"/>
      </g>
     </g>
    </g>
    <g id="ytick_14">
     <g id="line2d_52">
      <g>
       <use xlink:href="#m278f039b97" x="413.53" y="310.543636" style="stroke: #000000; stroke-width: 0.8"/>
      </g>
     </g>
     <g id="text_49">
      <!-- −0.02 -->
      <g transform="translate(375.884687 314.342855)scale(0.1 -0.1)">
       <use xlink:href="#DejaVuSans-2212"/>
       <use xlink:href="#DejaVuSans-30" x="83.789062"/>
       <use xlink:href="#DejaVuSans-2e" x="147.412109"/>
       <use xlink:href="#DejaVuSans-30" x="179.199219"/>
       <use xlink:href="#DejaVuSans-32" x="242.822266"/>
      </g>
     </g>
    </g>
    <g id="ytick_15">
     <g id="line2d_53">
      <g>
       <use xlink:href="#m278f039b97" x="413.53" y="284.5" style="stroke: #000000; stroke-width: 0.8"/>
      </g>
     </g>
     <g id="text_50">
      <!-- 0.00 -->
      <g transform="translate(384.264375 288.299219)scale(0.1 -0.1)">
       <use xlink:href="#DejaVuSans-30"/>
       <use xlink:href="#DejaVuSans-2e" x="63.623047"/>
       <use xlink:href="#DejaVuSans-30" x="95.410156"/>
       <use xlink:href="#DejaVuSans-30" x="159.033203"/>
      </g>
     </g>
    </g>
    <g id="ytick_16">
     <g id="line2d_54">
      <g>
       <use xlink:href="#m278f039b97" x="413.53" y="258.456364" style="stroke: #000000; stroke-width: 0.8"/>
      </g>
     </g>
     <g id="text_51">
      <!-- 0.02 -->
      <g transform="translate(384.264375 262.255582)scale(0.1 -0.1)">
       <use xlink:href="#DejaVuSans-30"/>
       <use xlink:href="#DejaVuSans-2e" x="63.623047"/>
       <use xlink:href="#DejaVuSans-30" x="95.410156"/>
       <use xlink:href="#DejaVuSans-32" x="159.033203"/>
      </g>
     </g>
    </g>
    <g id="ytick_17">
     <g id="line2d_55">
      <g>
       <use xlink:href="#m278f039b97" x="413.53" y="232.412727" style="stroke: #000000; stroke-width: 0.8"/>
      </g>
     </g>
     <g id="text_52">
      <!-- 0.04 -->
      <g transform="translate(384.264375 236.211946)scale(0.1 -0.1)">
       <use xlink:href="#DejaVuSans-30"/>
       <use xlink:href="#DejaVuSans-2e" x="63.623047"/>
       <use xlink:href="#DejaVuSans-30" x="95.410156"/>
       <use xlink:href="#DejaVuSans-34" x="159.033203"/>
      </g>
     </g>
    </g>
   </g>
   <g id="line2d_56">
    <path d="M 426.769306 284.5 
L 691.555428 284.5 
L 691.555428 284.5 
" clip-path="url(#pc53e7255e3)" style="fill: none; stroke: #008000; stroke-width: 1.5; stroke-linecap: square"/>
   </g>
   <g id="patch_21">
    <path d="M 413.53 356.12 
L 413.53 212.88 
" style="fill: none; stroke: #000000; stroke-width: 0.8; stroke-linejoin: miter; stroke-linecap: square"/>
   </g>
   <g id="patch_22">
    <path d="M 704.794734 356.12 
L 704.794734 212.88 
" style="fill: none; stroke: #000000; stroke-width: 0.8; stroke-linejoin: miter; stroke-linecap: square"/>
   </g>
   <g id="patch_23">
    <path d="M 413.53 356.12 
L 704.794734 356.12 
" style="fill: none; stroke: #000000; stroke-width: 0.8; stroke-linejoin: miter; stroke-linecap: square"/>
   </g>
   <g id="patch_24">
    <path d="M 413.53 212.88 
L 704.794734 212.88 
" style="fill: none; stroke: #000000; stroke-width: 0.8; stroke-linejoin: miter; stroke-linecap: square"/>
   </g>
   <g id="legend_4">
    <g id="patch_25">
     <path d="M 653.957234 235.558125 
L 697.794734 235.558125 
Q 699.794734 235.558125 699.794734 233.558125 
L 699.794734 219.88 
Q 699.794734 217.88 697.794734 217.88 
L 653.957234 217.88 
Q 651.957234 217.88 651.957234 219.88 
L 651.957234 233.558125 
Q 651.957234 235.558125 653.957234 235.558125 
z
" style="fill: #ffffff; opacity: 0.8; stroke: #cccccc; stroke-linejoin: miter"/>
    </g>
    <g id="line2d_57">
     <path d="M 655.957234 225.978437 
L 665.957234 225.978437 
L 675.957234 225.978437 
" style="fill: none; stroke: #008000; stroke-width: 1.5; stroke-linecap: square"/>
    </g>
    <g id="text_53">
     <!-- xy -->
     <g transform="translate(683.957234 229.478437)scale(0.1 -0.1)">
      <use xlink:href="#DejaVuSans-78"/>
      <use xlink:href="#DejaVuSans-79" x="59.179688"/>
     </g>
    </g>
   </g>
  </g>
  <g id="axes_5">
   <g id="patch_26">
    <path d="M 69.37 527.24 
L 360.634734 527.24 
L 360.634734 384 
L 69.37 384 
z
" style="fill: #ffffff"/>
   </g>
   <g id="matplotlib.axis_9">
    <g id="xtick_33">
     <g id="line2d_58">
      <g>
       <use xlink:href="#m8edf6d975f" x="82.609306" y="527.24" style="stroke: #000000; stroke-width: 0.8"/>
      </g>
     </g>
     <g id="text_54">
      <!-- 0 -->
      <g transform="translate(79.428056 541.838437)scale(0.1 -0.1)">
       <use xlink:href="#DejaVuSans-30"/>
      </g>
     </g>
    </g>
    <g id="xtick_34">
     <g id="line2d_59">
      <g>
       <use xlink:href="#m8edf6d975f" x="122.001627" y="527.24" style="stroke: #000000; stroke-width: 0.8"/>
      </g>
     </g>
     <g id="text_55">
      <!-- 10 -->
      <g transform="translate(115.639127 541.838437)scale(0.1 -0.1)">
       <use xlink:href="#DejaVuSans-31"/>
       <use xlink:href="#DejaVuSans-30" x="63.623047"/>
      </g>
     </g>
    </g>
    <g id="xtick_35">
     <g id="line2d_60">
      <g>
       <use xlink:href="#m8edf6d975f" x="161.393948" y="527.24" style="stroke: #000000; stroke-width: 0.8"/>
      </g>
     </g>
     <g id="text_56">
      <!-- 20 -->
      <g transform="translate(155.031448 541.838437)scale(0.1 -0.1)">
       <use xlink:href="#DejaVuSans-32"/>
       <use xlink:href="#DejaVuSans-30" x="63.623047"/>
      </g>
     </g>
    </g>
    <g id="xtick_36">
     <g id="line2d_61">
      <g>
       <use xlink:href="#m8edf6d975f" x="200.786269" y="527.24" style="stroke: #000000; stroke-width: 0.8"/>
      </g>
     </g>
     <g id="text_57">
      <!-- 30 -->
      <g transform="translate(194.423769 541.838437)scale(0.1 -0.1)">
       <use xlink:href="#DejaVuSans-33"/>
       <use xlink:href="#DejaVuSans-30" x="63.623047"/>
      </g>
     </g>
    </g>
    <g id="xtick_37">
     <g id="line2d_62">
      <g>
       <use xlink:href="#m8edf6d975f" x="240.17859" y="527.24" style="stroke: #000000; stroke-width: 0.8"/>
      </g>
     </g>
     <g id="text_58">
      <!-- 40 -->
      <g transform="translate(233.81609 541.838437)scale(0.1 -0.1)">
       <use xlink:href="#DejaVuSans-34"/>
       <use xlink:href="#DejaVuSans-30" x="63.623047"/>
      </g>
     </g>
    </g>
    <g id="xtick_38">
     <g id="line2d_63">
      <g>
       <use xlink:href="#m8edf6d975f" x="279.570911" y="527.24" style="stroke: #000000; stroke-width: 0.8"/>
      </g>
     </g>
     <g id="text_59">
      <!-- 50 -->
      <g transform="translate(273.208411 541.838437)scale(0.1 -0.1)">
       <use xlink:href="#DejaVuSans-35"/>
       <use xlink:href="#DejaVuSans-30" x="63.623047"/>
      </g>
     </g>
    </g>
    <g id="xtick_39">
     <g id="line2d_64">
      <g>
       <use xlink:href="#m8edf6d975f" x="318.963233" y="527.24" style="stroke: #000000; stroke-width: 0.8"/>
      </g>
     </g>
     <g id="text_60">
      <!-- 60 -->
      <g transform="translate(312.600733 541.838437)scale(0.1 -0.1)">
       <use xlink:href="#DejaVuSans-36"/>
       <use xlink:href="#DejaVuSans-30" x="63.623047"/>
      </g>
     </g>
    </g>
    <g id="xtick_40">
     <g id="line2d_65">
      <g>
       <use xlink:href="#m8edf6d975f" x="358.355554" y="527.24" style="stroke: #000000; stroke-width: 0.8"/>
      </g>
     </g>
     <g id="text_61">
      <!-- 70 -->
      <g transform="translate(351.993054 541.838437)scale(0.1 -0.1)">
       <use xlink:href="#DejaVuSans-37"/>
       <use xlink:href="#DejaVuSans-30" x="63.623047"/>
      </g>
     </g>
    </g>
   </g>
   <g id="matplotlib.axis_10">
    <g id="ytick_18">
     <g id="line2d_66">
      <g>
       <use xlink:href="#m278f039b97" x="69.37" y="507.707273" style="stroke: #000000; stroke-width: 0.8"/>
      </g>
     </g>
     <g id="text_62">
      <!-- −0.04 -->
      <g transform="translate(31.724688 511.506491)scale(0.1 -0.1)">
       <use xlink:href="#DejaVuSans-2212"/>
       <use xlink:href="#DejaVuSans-30" x="83.789062"/>
       <use xlink:href="#DejaVuSans-2e" x="147.412109"/>
       <use xlink:href="#DejaVuSans-30" x="179.199219"/>
       <use xlink:href="#DejaVuSans-34" x="242.822266"/>
      </g>
     </g>
    </g>
    <g id="ytick_19">
     <g id="line2d_67">
      <g>
       <use xlink:href="#m278f039b97" x="69.37" y="481.663636" style="stroke: #000000; stroke-width: 0.8"/>
      </g>
     </g>
     <g id="text_63">
      <!-- −0.02 -->
      <g transform="translate(31.724688 485.462855)scale(0.1 -0.1)">
       <use xlink:href="#DejaVuSans-2212"/>
       <use xlink:href="#DejaVuSans-30" x="83.789062"/>
       <use xlink:href="#DejaVuSans-2e" x="147.412109"/>
       <use xlink:href="#DejaVuSans-30" x="179.199219"/>
       <use xlink:href="#DejaVuSans-32" x="242.822266"/>
      </g>
     </g>
    </g>
    <g id="ytick_20">
     <g id="line2d_68">
      <g>
       <use xlink:href="#m278f039b97" x="69.37" y="455.62" style="stroke: #000000; stroke-width: 0.8"/>
      </g>
     </g>
     <g id="text_64">
      <!-- 0.00 -->
      <g transform="translate(40.104375 459.419219)scale(0.1 -0.1)">
       <use xlink:href="#DejaVuSans-30"/>
       <use xlink:href="#DejaVuSans-2e" x="63.623047"/>
       <use xlink:href="#DejaVuSans-30" x="95.410156"/>
       <use xlink:href="#DejaVuSans-30" x="159.033203"/>
      </g>
     </g>
    </g>
    <g id="ytick_21">
     <g id="line2d_69">
      <g>
       <use xlink:href="#m278f039b97" x="69.37" y="429.576364" style="stroke: #000000; stroke-width: 0.8"/>
      </g>
     </g>
     <g id="text_65">
      <!-- 0.02 -->
      <g transform="translate(40.104375 433.375582)scale(0.1 -0.1)">
       <use xlink:href="#DejaVuSans-30"/>
       <use xlink:href="#DejaVuSans-2e" x="63.623047"/>
       <use xlink:href="#DejaVuSans-30" x="95.410156"/>
       <use xlink:href="#DejaVuSans-32" x="159.033203"/>
      </g>
     </g>
    </g>
    <g id="ytick_22">
     <g id="line2d_70">
      <g>
       <use xlink:href="#m278f039b97" x="69.37" y="403.532727" style="stroke: #000000; stroke-width: 0.8"/>
      </g>
     </g>
     <g id="text_66">
      <!-- 0.04 -->
      <g transform="translate(40.104375 407.331946)scale(0.1 -0.1)">
       <use xlink:href="#DejaVuSans-30"/>
       <use xlink:href="#DejaVuSans-2e" x="63.623047"/>
       <use xlink:href="#DejaVuSans-30" x="95.410156"/>
       <use xlink:href="#DejaVuSans-34" x="159.033203"/>
      </g>
     </g>
    </g>
   </g>
   <g id="line2d_71">
    <path d="M 82.609306 455.62 
L 347.395428 455.62 
L 347.395428 455.62 
" clip-path="url(#p8b7faa176c)" style="fill: none; stroke: #000000; stroke-width: 1.5; stroke-linecap: square"/>
   </g>
   <g id="patch_27">
    <path d="M 69.37 527.24 
L 69.37 384 
" style="fill: none; stroke: #000000; stroke-width: 0.8; stroke-linejoin: miter; stroke-linecap: square"/>
   </g>
   <g id="patch_28">
    <path d="M 360.634734 527.24 
L 360.634734 384 
" style="fill: none; stroke: #000000; stroke-width: 0.8; stroke-linejoin: miter; stroke-linecap: square"/>
   </g>
   <g id="patch_29">
    <path d="M 69.37 527.24 
L 360.634734 527.24 
" style="fill: none; stroke: #000000; stroke-width: 0.8; stroke-linejoin: miter; stroke-linecap: square"/>
   </g>
   <g id="patch_30">
    <path d="M 69.37 384 
L 360.634734 384 
" style="fill: none; stroke: #000000; stroke-width: 0.8; stroke-linejoin: miter; stroke-linecap: square"/>
   </g>
   <g id="legend_5">
    <g id="patch_31">
     <path d="M 310.467547 406.678125 
L 353.634734 406.678125 
Q 355.634734 406.678125 355.634734 404.678125 
L 355.634734 391 
Q 355.634734 389 353.634734 389 
L 310.467547 389 
Q 308.467547 389 308.467547 391 
L 308.467547 404.678125 
Q 308.467547 406.678125 310.467547 406.678125 
z
" style="fill: #ffffff; opacity: 0.8; stroke: #cccccc; stroke-linejoin: miter"/>
    </g>
    <g id="line2d_72">
     <path d="M 312.467547 397.098437 
L 322.467547 397.098437 
L 332.467547 397.098437 
" style="fill: none; stroke: #000000; stroke-width: 1.5; stroke-linecap: square"/>
    </g>
    <g id="text_67">
     <!-- yz -->
     <g transform="translate(340.467547 400.598437)scale(0.1 -0.1)">
      <use xlink:href="#DejaVuSans-79"/>
      <use xlink:href="#DejaVuSans-7a" x="59.179688"/>
     </g>
    </g>
   </g>
  </g>
  <g id="axes_6">
   <g id="patch_32">
    <path d="M 413.53 527.24 
L 704.794734 527.24 
L 704.794734 384 
L 413.53 384 
z
" style="fill: #ffffff"/>
   </g>
   <g id="matplotlib.axis_11">
    <g id="xtick_41">
     <g id="line2d_73">
      <g>
       <use xlink:href="#m8edf6d975f" x="426.769306" y="527.24" style="stroke: #000000; stroke-width: 0.8"/>
      </g>
     </g>
     <g id="text_68">
      <!-- 0 -->
      <g transform="translate(423.588056 541.838437)scale(0.1 -0.1)">
       <use xlink:href="#DejaVuSans-30"/>
      </g>
     </g>
    </g>
    <g id="xtick_42">
     <g id="line2d_74">
      <g>
       <use xlink:href="#m8edf6d975f" x="466.161627" y="527.24" style="stroke: #000000; stroke-width: 0.8"/>
      </g>
     </g>
     <g id="text_69">
      <!-- 10 -->
      <g transform="translate(459.799127 541.838437)scale(0.1 -0.1)">
       <use xlink:href="#DejaVuSans-31"/>
       <use xlink:href="#DejaVuSans-30" x="63.623047"/>
      </g>
     </g>
    </g>
    <g id="xtick_43">
     <g id="line2d_75">
      <g>
       <use xlink:href="#m8edf6d975f" x="505.553948" y="527.24" style="stroke: #000000; stroke-width: 0.8"/>
      </g>
     </g>
     <g id="text_70">
      <!-- 20 -->
      <g transform="translate(499.191448 541.838437)scale(0.1 -0.1)">
       <use xlink:href="#DejaVuSans-32"/>
       <use xlink:href="#DejaVuSans-30" x="63.623047"/>
      </g>
     </g>
    </g>
    <g id="xtick_44">
     <g id="line2d_76">
      <g>
       <use xlink:href="#m8edf6d975f" x="544.946269" y="527.24" style="stroke: #000000; stroke-width: 0.8"/>
      </g>
     </g>
     <g id="text_71">
      <!-- 30 -->
      <g transform="translate(538.583769 541.838437)scale(0.1 -0.1)">
       <use xlink:href="#DejaVuSans-33"/>
       <use xlink:href="#DejaVuSans-30" x="63.623047"/>
      </g>
     </g>
    </g>
    <g id="xtick_45">
     <g id="line2d_77">
      <g>
       <use xlink:href="#m8edf6d975f" x="584.33859" y="527.24" style="stroke: #000000; stroke-width: 0.8"/>
      </g>
     </g>
     <g id="text_72">
      <!-- 40 -->
      <g transform="translate(577.97609 541.838437)scale(0.1 -0.1)">
       <use xlink:href="#DejaVuSans-34"/>
       <use xlink:href="#DejaVuSans-30" x="63.623047"/>
      </g>
     </g>
    </g>
    <g id="xtick_46">
     <g id="line2d_78">
      <g>
       <use xlink:href="#m8edf6d975f" x="623.730911" y="527.24" style="stroke: #000000; stroke-width: 0.8"/>
      </g>
     </g>
     <g id="text_73">
      <!-- 50 -->
      <g transform="translate(617.368411 541.838437)scale(0.1 -0.1)">
       <use xlink:href="#DejaVuSans-35"/>
       <use xlink:href="#DejaVuSans-30" x="63.623047"/>
      </g>
     </g>
    </g>
    <g id="xtick_47">
     <g id="line2d_79">
      <g>
       <use xlink:href="#m8edf6d975f" x="663.123233" y="527.24" style="stroke: #000000; stroke-width: 0.8"/>
      </g>
     </g>
     <g id="text_74">
      <!-- 60 -->
      <g transform="translate(656.760733 541.838437)scale(0.1 -0.1)">
       <use xlink:href="#DejaVuSans-36"/>
       <use xlink:href="#DejaVuSans-30" x="63.623047"/>
      </g>
     </g>
    </g>
    <g id="xtick_48">
     <g id="line2d_80">
      <g>
       <use xlink:href="#m8edf6d975f" x="702.515554" y="527.24" style="stroke: #000000; stroke-width: 0.8"/>
      </g>
     </g>
     <g id="text_75">
      <!-- 70 -->
      <g transform="translate(696.153054 541.838437)scale(0.1 -0.1)">
       <use xlink:href="#DejaVuSans-37"/>
       <use xlink:href="#DejaVuSans-30" x="63.623047"/>
      </g>
     </g>
    </g>
   </g>
   <g id="matplotlib.axis_12">
    <g id="ytick_23">
     <g id="line2d_81">
      <g>
       <use xlink:href="#m278f039b97" x="413.53" y="507.707273" style="stroke: #000000; stroke-width: 0.8"/>
      </g>
     </g>
     <g id="text_76">
      <!-- −0.04 -->
      <g transform="translate(375.884687 511.506491)scale(0.1 -0.1)">
       <use xlink:href="#DejaVuSans-2212"/>
       <use xlink:href="#DejaVuSans-30" x="83.789062"/>
       <use xlink:href="#DejaVuSans-2e" x="147.412109"/>
       <use xlink:href="#DejaVuSans-30" x="179.199219"/>
       <use xlink:href="#DejaVuSans-34" x="242.822266"/>
      </g>
     </g>
    </g>
    <g id="ytick_24">
     <g id="line2d_82">
      <g>
       <use xlink:href="#m278f039b97" x="413.53" y="481.663636" style="stroke: #000000; stroke-width: 0.8"/>
      </g>
     </g>
     <g id="text_77">
      <!-- −0.02 -->
      <g transform="translate(375.884687 485.462855)scale(0.1 -0.1)">
       <use xlink:href="#DejaVuSans-2212"/>
       <use xlink:href="#DejaVuSans-30" x="83.789062"/>
       <use xlink:href="#DejaVuSans-2e" x="147.412109"/>
       <use xlink:href="#DejaVuSans-30" x="179.199219"/>
       <use xlink:href="#DejaVuSans-32" x="242.822266"/>
      </g>
     </g>
    </g>
    <g id="ytick_25">
     <g id="line2d_83">
      <g>
       <use xlink:href="#m278f039b97" x="413.53" y="455.62" style="stroke: #000000; stroke-width: 0.8"/>
      </g>
     </g>
     <g id="text_78">
      <!-- 0.00 -->
      <g transform="translate(384.264375 459.419219)scale(0.1 -0.1)">
       <use xlink:href="#DejaVuSans-30"/>
       <use xlink:href="#DejaVuSans-2e" x="63.623047"/>
       <use xlink:href="#DejaVuSans-30" x="95.410156"/>
       <use xlink:href="#DejaVuSans-30" x="159.033203"/>
      </g>
     </g>
    </g>
    <g id="ytick_26">
     <g id="line2d_84">
      <g>
       <use xlink:href="#m278f039b97" x="413.53" y="429.576364" style="stroke: #000000; stroke-width: 0.8"/>
      </g>
     </g>
     <g id="text_79">
      <!-- 0.02 -->
      <g transform="translate(384.264375 433.375582)scale(0.1 -0.1)">
       <use xlink:href="#DejaVuSans-30"/>
       <use xlink:href="#DejaVuSans-2e" x="63.623047"/>
       <use xlink:href="#DejaVuSans-30" x="95.410156"/>
       <use xlink:href="#DejaVuSans-32" x="159.033203"/>
      </g>
     </g>
    </g>
    <g id="ytick_27">
     <g id="line2d_85">
      <g>
       <use xlink:href="#m278f039b97" x="413.53" y="403.532727" style="stroke: #000000; stroke-width: 0.8"/>
      </g>
     </g>
     <g id="text_80">
      <!-- 0.04 -->
      <g transform="translate(384.264375 407.331946)scale(0.1 -0.1)">
       <use xlink:href="#DejaVuSans-30"/>
       <use xlink:href="#DejaVuSans-2e" x="63.623047"/>
       <use xlink:href="#DejaVuSans-30" x="95.410156"/>
       <use xlink:href="#DejaVuSans-34" x="159.033203"/>
      </g>
     </g>
    </g>
   </g>
   <g id="line2d_86">
    <path d="M 426.769306 455.62 
L 691.555428 455.62 
L 691.555428 455.62 
" clip-path="url(#p6bfb4a957d)" style="fill: none; stroke: #ee82ee; stroke-width: 1.5; stroke-linecap: square"/>
   </g>
   <g id="patch_33">
    <path d="M 413.53 527.24 
L 413.53 384 
" style="fill: none; stroke: #000000; stroke-width: 0.8; stroke-linejoin: miter; stroke-linecap: square"/>
   </g>
   <g id="patch_34">
    <path d="M 704.794734 527.24 
L 704.794734 384 
" style="fill: none; stroke: #000000; stroke-width: 0.8; stroke-linejoin: miter; stroke-linecap: square"/>
   </g>
   <g id="patch_35">
    <path d="M 413.53 527.24 
L 704.794734 527.24 
" style="fill: none; stroke: #000000; stroke-width: 0.8; stroke-linejoin: miter; stroke-linecap: square"/>
   </g>
   <g id="patch_36">
    <path d="M 413.53 384 
L 704.794734 384 
" style="fill: none; stroke: #000000; stroke-width: 0.8; stroke-linejoin: miter; stroke-linecap: square"/>
   </g>
   <g id="legend_6">
    <g id="patch_37">
     <path d="M 654.627547 406.678125 
L 697.794734 406.678125 
Q 699.794734 406.678125 699.794734 404.678125 
L 699.794734 391 
Q 699.794734 389 697.794734 389 
L 654.627547 389 
Q 652.627547 389 652.627547 391 
L 652.627547 404.678125 
Q 652.627547 406.678125 654.627547 406.678125 
z
" style="fill: #ffffff; opacity: 0.8; stroke: #cccccc; stroke-linejoin: miter"/>
    </g>
    <g id="line2d_87">
     <path d="M 656.627547 397.098437 
L 666.627547 397.098437 
L 676.627547 397.098437 
" style="fill: none; stroke: #ee82ee; stroke-width: 1.5; stroke-linecap: square"/>
    </g>
    <g id="text_81">
     <!-- zx -->
     <g transform="translate(684.627547 400.598437)scale(0.1 -0.1)">
      <use xlink:href="#DejaVuSans-7a"/>
      <use xlink:href="#DejaVuSans-78" x="52.490234"/>
     </g>
    </g>
   </g>
  </g>
  <g id="text_82">
   <!-- Refractivity -->
   <g transform="translate(302.85625 26.716875)scale(0.2 -0.2)">
    <defs>
     <path id="DejaVuSans-52" d="M 2841 2188 
Q 3044 2119 3236 1894 
Q 3428 1669 3622 1275 
L 4263 0 
L 3584 0 
L 2988 1197 
Q 2756 1666 2539 1819 
Q 2322 1972 1947 1972 
L 1259 1972 
L 1259 0 
L 628 0 
L 628 4666 
L 2053 4666 
Q 2853 4666 3247 4331 
Q 3641 3997 3641 3322 
Q 3641 2881 3436 2590 
Q 3231 2300 2841 2188 
z
M 1259 4147 
L 1259 2491 
L 2053 2491 
Q 2509 2491 2742 2702 
Q 2975 2913 2975 3322 
Q 2975 3731 2742 3939 
Q 2509 4147 2053 4147 
L 1259 4147 
z
" transform="scale(0.015625)"/>
     <path id="DejaVuSans-65" d="M 3597 1894 
L 3597 1613 
L 953 1613 
Q 991 1019 1311 708 
Q 1631 397 2203 397 
Q 2534 397 2845 478 
Q 3156 559 3463 722 
L 3463 178 
Q 3153 47 2828 -22 
Q 2503 -91 2169 -91 
Q 1331 -91 842 396 
Q 353 884 353 1716 
Q 353 2575 817 3079 
Q 1281 3584 2069 3584 
Q 2775 3584 3186 3129 
Q 3597 2675 3597 1894 
z
M 3022 2063 
Q 3016 2534 2758 2815 
Q 2500 3097 2075 3097 
Q 1594 3097 1305 2825 
Q 1016 2553 972 2059 
L 3022 2063 
z
" transform="scale(0.015625)"/>
     <path id="DejaVuSans-66" d="M 2375 4863 
L 2375 4384 
L 1825 4384 
Q 1516 4384 1395 4259 
Q 1275 4134 1275 3809 
L 1275 3500 
L 2222 3500 
L 2222 3053 
L 1275 3053 
L 1275 0 
L 697 0 
L 697 3053 
L 147 3053 
L 147 3500 
L 697 3500 
L 697 3744 
Q 697 4328 969 4595 
Q 1241 4863 1831 4863 
L 2375 4863 
z
" transform="scale(0.015625)"/>
     <path id="DejaVuSans-72" d="M 2631 2963 
Q 2534 3019 2420 3045 
Q 2306 3072 2169 3072 
Q 1681 3072 1420 2755 
Q 1159 2438 1159 1844 
L 1159 0 
L 581 0 
L 581 3500 
L 1159 3500 
L 1159 2956 
Q 1341 3275 1631 3429 
Q 1922 3584 2338 3584 
Q 2397 3584 2469 3576 
Q 2541 3569 2628 3553 
L 2631 2963 
z
" transform="scale(0.015625)"/>
     <path id="DejaVuSans-61" d="M 2194 1759 
Q 1497 1759 1228 1600 
Q 959 1441 959 1056 
Q 959 750 1161 570 
Q 1363 391 1709 391 
Q 2188 391 2477 730 
Q 2766 1069 2766 1631 
L 2766 1759 
L 2194 1759 
z
M 3341 1997 
L 3341 0 
L 2766 0 
L 2766 531 
Q 2569 213 2275 61 
Q 1981 -91 1556 -91 
Q 1019 -91 701 211 
Q 384 513 384 1019 
Q 384 1609 779 1909 
Q 1175 2209 1959 2209 
L 2766 2209 
L 2766 2266 
Q 2766 2663 2505 2880 
Q 2244 3097 1772 3097 
Q 1472 3097 1187 3025 
Q 903 2953 641 2809 
L 641 3341 
Q 956 3463 1253 3523 
Q 1550 3584 1831 3584 
Q 2591 3584 2966 3190 
Q 3341 2797 3341 1997 
z
" transform="scale(0.015625)"/>
     <path id="DejaVuSans-63" d="M 3122 3366 
L 3122 2828 
Q 2878 2963 2633 3030 
Q 2388 3097 2138 3097 
Q 1578 3097 1268 2742 
Q 959 2388 959 1747 
Q 959 1106 1268 751 
Q 1578 397 2138 397 
Q 2388 397 2633 464 
Q 2878 531 3122 666 
L 3122 134 
Q 2881 22 2623 -34 
Q 2366 -91 2075 -91 
Q 1284 -91 818 406 
Q 353 903 353 1747 
Q 353 2603 823 3093 
Q 1294 3584 2113 3584 
Q 2378 3584 2631 3529 
Q 2884 3475 3122 3366 
z
" transform="scale(0.015625)"/>
     <path id="DejaVuSans-74" d="M 1172 4494 
L 1172 3500 
L 2356 3500 
L 2356 3053 
L 1172 3053 
L 1172 1153 
Q 1172 725 1289 603 
Q 1406 481 1766 481 
L 2356 481 
L 2356 0 
L 1766 0 
Q 1100 0 847 248 
Q 594 497 594 1153 
L 594 3053 
L 172 3053 
L 172 3500 
L 594 3500 
L 594 4494 
L 1172 4494 
z
" transform="scale(0.015625)"/>
     <path id="DejaVuSans-69" d="M 603 3500 
L 1178 3500 
L 1178 0 
L 603 0 
L 603 3500 
z
M 603 4863 
L 1178 4863 
L 1178 4134 
L 603 4134 
L 603 4863 
z
" transform="scale(0.015625)"/>
     <path id="DejaVuSans-76" d="M 191 3500 
L 800 3500 
L 1894 563 
L 2988 3500 
L 3597 3500 
L 2284 0 
L 1503 0 
L 191 3500 
z
" transform="scale(0.015625)"/>
    </defs>
    <use xlink:href="#DejaVuSans-52"/>
    <use xlink:href="#DejaVuSans-65" x="64.982422"/>
    <use xlink:href="#DejaVuSans-66" x="126.505859"/>
    <use xlink:href="#DejaVuSans-72" x="161.710938"/>
    <use xlink:href="#DejaVuSans-61" x="202.824219"/>
    <use xlink:href="#DejaVuSans-63" x="264.103516"/>
    <use xlink:href="#DejaVuSans-74" x="319.083984"/>
    <use xlink:href="#DejaVuSans-69" x="358.292969"/>
    <use xlink:href="#DejaVuSans-76" x="386.076172"/>
    <use xlink:href="#DejaVuSans-69" x="445.255859"/>
    <use xlink:href="#DejaVuSans-74" x="473.039062"/>
    <use xlink:href="#DejaVuSans-79" x="512.248047"/>
   </g>
  </g>
  <g id="text_83">
   <!-- cm^-1 -->
   <g transform="translate(21.998438 304.794531)rotate(-90)scale(0.1 -0.1)">
    <defs>
     <path id="DejaVuSans-6d" d="M 3328 2828 
Q 3544 3216 3844 3400 
Q 4144 3584 4550 3584 
Q 5097 3584 5394 3201 
Q 5691 2819 5691 2113 
L 5691 0 
L 5113 0 
L 5113 2094 
Q 5113 2597 4934 2840 
Q 4756 3084 4391 3084 
Q 3944 3084 3684 2787 
Q 3425 2491 3425 1978 
L 3425 0 
L 2847 0 
L 2847 2094 
Q 2847 2600 2669 2842 
Q 2491 3084 2119 3084 
Q 1678 3084 1418 2786 
Q 1159 2488 1159 1978 
L 1159 0 
L 581 0 
L 581 3500 
L 1159 3500 
L 1159 2956 
Q 1356 3278 1631 3431 
Q 1906 3584 2284 3584 
Q 2666 3584 2933 3390 
Q 3200 3197 3328 2828 
z
" transform="scale(0.015625)"/>
     <path id="DejaVuSans-5e" d="M 2988 4666 
L 4684 2925 
L 4056 2925 
L 2681 4159 
L 1306 2925 
L 678 2925 
L 2375 4666 
L 2988 4666 
z
" transform="scale(0.015625)"/>
     <path id="DejaVuSans-2d" d="M 313 2009 
L 1997 2009 
L 1997 1497 
L 313 1497 
L 313 2009 
z
" transform="scale(0.015625)"/>
    </defs>
    <use xlink:href="#DejaVuSans-63"/>
    <use xlink:href="#DejaVuSans-6d" x="54.980469"/>
    <use xlink:href="#DejaVuSans-5e" x="152.392578"/>
    <use xlink:href="#DejaVuSans-2d" x="236.181641"/>
    <use xlink:href="#DejaVuSans-31" x="272.265625"/>
   </g>
  </g>
  <g id="text_84">
   <!-- Energy (eV) -->
   <g transform="translate(330.50625 568.160313)scale(0.1 -0.1)">
    <defs>
     <path id="DejaVuSans-45" d="M 628 4666 
L 3578 4666 
L 3578 4134 
L 1259 4134 
L 1259 2753 
L 3481 2753 
L 3481 2222 
L 1259 2222 
L 1259 531 
L 3634 531 
L 3634 0 
L 628 0 
L 628 4666 
z
" transform="scale(0.015625)"/>
     <path id="DejaVuSans-6e" d="M 3513 2113 
L 3513 0 
L 2938 0 
L 2938 2094 
Q 2938 2591 2744 2837 
Q 2550 3084 2163 3084 
Q 1697 3084 1428 2787 
Q 1159 2491 1159 1978 
L 1159 0 
L 581 0 
L 581 3500 
L 1159 3500 
L 1159 2956 
Q 1366 3272 1645 3428 
Q 1925 3584 2291 3584 
Q 2894 3584 3203 3211 
Q 3513 2838 3513 2113 
z
" transform="scale(0.015625)"/>
     <path id="DejaVuSans-67" d="M 2906 1791 
Q 2906 2416 2648 2759 
Q 2391 3103 1925 3103 
Q 1463 3103 1205 2759 
Q 947 2416 947 1791 
Q 947 1169 1205 825 
Q 1463 481 1925 481 
Q 2391 481 2648 825 
Q 2906 1169 2906 1791 
z
M 3481 434 
Q 3481 -459 3084 -895 
Q 2688 -1331 1869 -1331 
Q 1566 -1331 1297 -1286 
Q 1028 -1241 775 -1147 
L 775 -588 
Q 1028 -725 1275 -790 
Q 1522 -856 1778 -856 
Q 2344 -856 2625 -561 
Q 2906 -266 2906 331 
L 2906 616 
Q 2728 306 2450 153 
Q 2172 0 1784 0 
Q 1141 0 747 490 
Q 353 981 353 1791 
Q 353 2603 747 3093 
Q 1141 3584 1784 3584 
Q 2172 3584 2450 3431 
Q 2728 3278 2906 2969 
L 2906 3500 
L 3481 3500 
L 3481 434 
z
" transform="scale(0.015625)"/>
     <path id="DejaVuSans-20" transform="scale(0.015625)"/>
     <path id="DejaVuSans-28" d="M 1984 4856 
Q 1566 4138 1362 3434 
Q 1159 2731 1159 2009 
Q 1159 1288 1364 580 
Q 1569 -128 1984 -844 
L 1484 -844 
Q 1016 -109 783 600 
Q 550 1309 550 2009 
Q 550 2706 781 3412 
Q 1013 4119 1484 4856 
L 1984 4856 
z
" transform="scale(0.015625)"/>
     <path id="DejaVuSans-56" d="M 1831 0 
L 50 4666 
L 709 4666 
L 2188 738 
L 3669 4666 
L 4325 4666 
L 2547 0 
L 1831 0 
z
" transform="scale(0.015625)"/>
     <path id="DejaVuSans-29" d="M 513 4856 
L 1013 4856 
Q 1481 4119 1714 3412 
Q 1947 2706 1947 2009 
Q 1947 1309 1714 600 
Q 1481 -109 1013 -844 
L 513 -844 
Q 928 -128 1133 580 
Q 1338 1288 1338 2009 
Q 1338 2731 1133 3434 
Q 928 4138 513 4856 
z
" transform="scale(0.015625)"/>
    </defs>
    <use xlink:href="#DejaVuSans-45"/>
    <use xlink:href="#DejaVuSans-6e" x="63.183594"/>
    <use xlink:href="#DejaVuSans-65" x="126.5625"/>
    <use xlink:href="#DejaVuSans-72" x="188.085938"/>
    <use xlink:href="#DejaVuSans-67" x="227.449219"/>
    <use xlink:href="#DejaVuSans-79" x="290.925781"/>
    <use xlink:href="#DejaVuSans-20" x="350.105469"/>
    <use xlink:href="#DejaVuSans-28" x="381.892578"/>
    <use xlink:href="#DejaVuSans-65" x="420.90625"/>
    <use xlink:href="#DejaVuSans-56" x="482.429688"/>
    <use xlink:href="#DejaVuSans-29" x="550.837891"/>
   </g>
  </g>
 </g>
 <defs>
  <clipPath id="pf1c2c80d1a">
   <rect x="69.37" y="41.76" width="291.264734" height="143.24"/>
  </clipPath>
  <clipPath id="p722d9ae42c">
   <rect x="413.53" y="41.76" width="291.264734" height="143.24"/>
  </clipPath>
  <clipPath id="pc617a8dc33">
   <rect x="69.37" y="212.88" width="291.264734" height="143.24"/>
  </clipPath>
  <clipPath id="pc53e7255e3">
   <rect x="413.53" y="212.88" width="291.264734" height="143.24"/>
  </clipPath>
  <clipPath id="p8b7faa176c">
   <rect x="69.37" y="384" width="291.264734" height="143.24"/>
  </clipPath>
  <clipPath id="p6bfb4a957d">
   <rect x="413.53" y="384" width="291.264734" height="143.24"/>
  </clipPath>
 </defs>
</svg>
